g barrier_cl
v 0.466245979 0 -17.5336666
v 0.466245979 0 17.5336666
v 0.322050959 0 -10.6071882
v 0.322050959 0 4.44220591
v -0.466245979 0 -17.5336666
v 0.163958952 0 -10.6071882
v 0.131650299 0 15.5732183
v -0.131771177 0 15.5732183
v -0.466245979 0 17.5336666
v -0.321388513 0 -10.6071882
v -0.321388513 0 4.44220591
v -0.131771177 -6.10351549E-07 9.54503536
v 0.131650299 -6.10351549E-07 9.54503632
v 0.163958952 0 4.44220591
v -0.165075302 0 4.44220591
v -0.165075302 0 -10.6071882
vt 0.0199999996 1
vt 0.0199999996 0
vt 0.0164410193 0.700000048
vt 0.0164410193 0.400000036
vt 0 1
vt 0.0133571718 0.700000048
vt 0.0127832172 0.200000018
vt 0.00721436366 0.200000018
vt 0 0
vt 0.00357222953 0.699999988
vt 0.00357222953 0.400000036
vt 0.00721436366 0.350000024
vt 0.0127832172 0.350000024
vt 0.0133571718 0.400000036
vt 0.00662049977 0.400000036
vt 0.00662049977 0.699999988
vn -0 1 0
vn -0 1 0
vn -0 1 0
vn -0 1 0
vn -0 1 0
vn -0 1 0
vn -0 1 0
vn -0 1 0
vn -0 1 0
vn -0 1 0
vn -0 1 0
vn 3.70461953E-06 1 0
vn -3.68094584E-06 1 0
vn -0 1 0
vn -0 1 0
vn -0 1 0
g barrier_cl_0
f 3/3/3 2/2/2 1/1/1
f 4/4/4 2/2/2 3/3/3
f 5/5/5 3/3/3 1/1/1
f 5/5/5 6/6/6 3/3/3
f 4/4/4 7/7/7 2/2/2
f 2/2/2 7/7/7 8/8/8
f 2/2/2 8/8/8 9/9/9
f 9/9/9 10/10/10 5/5/5
f 9/9/9 11/11/11 10/10/10
f 8/8/8 11/11/11 9/9/9
f 12/12/12 11/11/11 8/8/8
f 4/4/4 13/13/13 7/7/7
f 14/14/14 13/13/13 4/4/4
f 12/12/12 15/15/15 11/11/11
f 15/15/15 13/13/13 14/14/14
f 12/12/12 13/13/13 15/15/15
f 16/16/16 5/5/5 10/10/10
f 16/16/16 6/6/6 5/5/5
f 16/16/16 14/14/14 6/6/6
f 15/15/15 14/14/14 16/16/16
