g wp_010_004_001_Mesh
v 0.548656702 0.0929940492 0.0935378075
v 0.557367742 0.0689806715 0.102848582
v 0.536625981 0.0747102797 0.080673635
v 0.548693657 0.102656111 0.0670849234
v 0.545974851 0.0937895849 0.0394926965
v 0.544258475 0.0815676004 0.0301516708
v 0.531681716 0.0568568595 0.0655506998
v 0.563391447 0.0435668081 0.0975146964
v 0.562649131 0.0306469332 0.0821777061
v 0.557367742 0.0689806715 0.102848582
v 0.548656702 0.0929940492 0.0935378075
v 0.548693657 0.102656111 0.0670849234
v 0.563391447 0.0435668081 0.0975146964
v 0.545974851 0.0937895849 0.0394926965
v 0.562649131 0.0306469332 0.0821777061
v 0.544258475 0.0815676004 0.0301516708
v 0.548656702 0.0929939821 -0.0935378596
v 0.536625981 0.0747102425 -0.0806736574
v 0.557367742 0.0689805821 -0.102848582
v 0.548693657 0.102656096 -0.0670850053
v 0.545974851 0.0937896445 -0.0394927524
v 0.544258475 0.0815676674 -0.0301517025
v 0.531681716 0.0568568595 -0.0655506775
v 0.563391447 0.0435667373 -0.0975146368
v 0.562649131 0.0306468941 -0.0821776092
v 0.557367742 0.0689805821 -0.102848582
v 0.548693657 0.102656096 -0.0670850053
v 0.548656702 0.0929939821 -0.0935378596
v 0.563391447 0.0435667373 -0.0975146368
v 0.545974851 0.0937896445 -0.0394927524
v 0.562649131 0.0306468941 -0.0821776092
v 0.544258475 0.0815676674 -0.0301517025
v 0.485677242 -0.000359890721 0.0665571317
v 0.466472119 0.000185395736 5.79412623E-17
v 0.492890149 0.0509045124 0.0576070435
v 0.479964674 0.0573342368 6.39331535E-17
v 0.544126987 0.0111473519 0.0970950127
v 0.544225633 0.062169563 0.072057046
v 0.544147193 0.0809935331 0.0397872813
v 0.544046402 0.085874334 -4.47033903E-11
v 0.543523252 -0.0396326594 0.0871433169
v 0.492121726 -0.0375433676 0.0622769445
v 0.541716754 -0.0678825751 0.0431093872
v 0.481485695 -0.0506244078 0.000248638884
v 0.54072845 -0.0730752647 9.09176909E-17
v 0.492890149 0.0509045124 -0.0576070473
v 0.485677242 -0.000359891419 -0.0665571317
v 0.544126987 0.0111473519 -0.0970950127
v 0.544225633 0.062169563 -0.072057046
v 0.544147193 0.0809935331 -0.0397872813
v 0.541716754 -0.0678825751 -0.0431093872
v 0.492121726 -0.0375433676 -0.061779663
v 0.543523252 -0.0396326594 -0.0871433169
v 0.544225633 0.062169563 0.072057046
v 0.601321101 0.0511403084 0.0559633784
v 0.544126987 0.0111473519 0.0970950127
v 0.544147193 0.0809935331 0.0397872813
v 0.612635553 0.0597240813 1.22850866E-16
v 0.544046402 0.085874334 -4.47033903E-11
v 0.631808102 -0.0149706369 1.31365188E-16
v 0.609269917 -0.0101116728 0.0661791116
v 0.543523252 -0.0396326594 0.0871433169
v 0.597554445 -0.0450484082 0.0602834597
v 0.541716754 -0.0678825751 0.0431093872
v 0.606133044 -0.0593689606 1.19963159E-16
v 0.54072845 -0.0730752647 9.09176909E-17
v 0.544147193 0.0809935331 -0.0397872813
v 0.601321101 0.0511403084 -0.0559633784
v 0.544225633 0.062169563 -0.072057046
v 0.544126987 0.0111473519 -0.0970950127
v 0.541716754 -0.0678825751 -0.0431093872
v 0.597554445 -0.0450484082 -0.0602834597
v 0.543523252 -0.0396326594 -0.0871433169
v 0.609269917 -0.0101116728 -0.0661791116
v -0.523591399 -0.0197229199 -0.0198691674
v -0.495492131 -0.0279529952 -0.0280992463
v -0.495492131 0.000146249993 -0.0397383347
v -0.523591399 0.000146249993 -0.0280992463
v -0.495492131 0.0282454956 -0.0280992463
v -0.523591399 0.0200154204 -0.0198691674
v -0.495492131 0.0398845896 -3.15544355E-32
v -0.523591399 0.0282454956 -3.15544355E-32
v -0.523591399 -0.027952997 -3.15544355E-32
v -0.495492131 -0.0395920873 -3.15544355E-32
v -0.467392832 -4.42378217E-11 -0.0254059006
v -0.467392832 -0.017848989 -0.0179646891
v -0.467392832 0.0180807896 -0.0179646891
v -0.467392832 0.0255220998 -2.82264288E-32
v -0.467392832 -0.0252903011 -2.82264288E-32
v -0.535230458 0.000146249993 -3.15544355E-32
v -0.523591399 0.0282454956 -3.15544355E-32
v -0.495492131 0.0398845896 -3.15544355E-32
v -0.495492131 0.0282454956 0.0280992463
v -0.523591399 0.0200154204 0.0198691674
v -0.495492131 0.000146249993 0.0397383347
v -0.523591399 0.000146249993 0.0280992463
v -0.495492131 -0.027952997 0.0280992482
v -0.523591399 -0.0197229199 0.0198691674
v -0.495492131 -0.0395920873 -3.15544355E-32
v -0.523591399 -0.027952997 -3.15544355E-32
v -0.467392832 0.0180807896 0.0179646891
v -0.467392832 0.0255220998 -2.82264288E-32
v -0.467392832 2.32830638E-12 0.0254059006
v -0.467392832 -0.017848989 0.0179646891
v -0.467392832 -0.0252903011 -2.82264288E-32
v -0.535230458 0.000146249993 -3.15544355E-32
v -0.130880758 0.000146249993 -0.0270668454
v -0.130880758 0.0192853995 -0.0191391502
v -0.150019914 0.000146249993 -0.0191391502
v -0.150019914 0.0192853995 -3.15544355E-32
v -0.130880758 0.0272130966 -3.15544355E-32
v -0.130880758 0.0192853995 0.0191391502
v -0.150019914 0.000146249993 0.0191391502
v -0.130880758 0.000146249993 0.0270668454
v -0.130880758 -0.0189929008 0.019139152
v -0.150019914 -0.0189929008 -3.15544355E-32
v -0.130880758 -0.0269205961 -3.15544355E-32
v -0.130880758 -0.0189929008 -0.0191391502
v -0.1579476 0.000146249993 -3.15544355E-32
v -0.130880758 0.000146249993 -0.0270668454
v -0.111741595 0.000146249993 -0.0191391502
v -0.130880758 0.0192853995 -0.0191391502
v -0.111741595 0.0192853995 -3.15544355E-32
v -0.130880758 0.0272130966 -3.15544355E-32
v -0.130880758 0.0192853995 0.0191391502
v -0.111741595 0.000146249993 0.0191391502
v -0.130880758 0.000146249993 0.0270668454
v -0.130880758 -0.0189929008 0.019139152
v -0.111741595 -0.0189929008 -3.15544355E-32
v -0.130880758 -0.0269205961 -3.15544355E-32
v -0.130880758 -0.0189929008 -0.0191391502
v -0.103813902 0.000146249993 -3.15544355E-32
v -0.443189234 -0.0127344001 -0.0189455599
v -0.443189234 0.00014109 -0.0446965396
v -0.456064671 0.00014109 -0.0189455599
v -0.443189234 0.00014109 -0.0446965396
v -0.443189234 0.0130165797 -0.0189455599
v -0.443189234 0.00014109 -0.0446965396
v -0.430313706 0.00014109 -0.0189455599
v -0.443189234 -0.0127344001 -0.0189455599
v -0.19457078 0.0054628402 -3.15544355E-32
v -0.19457078 -0.0054628402 -3.15544355E-32
v -0.189010844 -0.0027651398 -0.000904199958
v -0.189010844 0.0027651398 0.000904199958
v -0.189010844 -0.0027651398 -0.000904199958
v -0.170753762 0.0027651398 0.000904199958
v -0.170753762 -0.0027651398 -0.000904199958
v -0.170753762 -0.0027651398 -0.000904199958
v -0.165193766 -0.0054628402 -3.15544355E-32
v -0.165193766 0.0054628402 -3.15544355E-32
v -0.189010844 0.0027651398 0.000904199958
v -0.189010844 -0.0027651398 -0.000904199958
v -0.19457078 -0.0054628402 -3.15544355E-32
v -0.19457078 0.0054628402 -3.15544355E-32
v -0.170753762 -0.0027651398 -0.000904199958
v -0.189010844 -0.0027651398 -0.000904199958
v -0.170753762 0.0027651398 0.000904199958
v -0.165193766 -0.0054628402 -3.15544355E-32
v -0.170753762 -0.0027651398 -0.000904199958
v -0.165193766 0.0054628402 -3.15544355E-32
v -0.200528041 0 -3.15544355E-32
v -0.19457078 -0.0054628402 -3.15544355E-32
v -0.19457078 0.0054628402 -3.15544355E-32
v -0.19457078 -0.0054628402 -3.15544355E-32
v -0.200528041 0 -3.15544355E-32
v -0.19457078 0.0054628402 -3.15544355E-32
v -0.165193766 0.0054628402 -3.15544355E-32
v -0.165193766 -0.0054628402 -3.15544355E-32
v -0.159236535 0 -3.15544355E-32
v -0.159236535 0 -3.15544355E-32
v -0.165193766 -0.0054628402 -3.15544355E-32
v -0.165193766 0.0054628402 -3.15544355E-32
v -0.130880758 0.0124133099 0.0180578902
v -0.130880758 0.00014109 0.0426023267
v -0.143152982 0.00014109 0.0180578902
v -0.130880758 0.00014109 0.0426023267
v -0.130880758 -0.0121311294 0.0180578902
v -0.130880758 0.00014109 0.0426023267
v -0.118608527 0.00014109 0.0180578902
v -0.130880758 0.0124133099 0.0180578902
v -0.130880758 -0.0179167986 0.0122722192
v -0.130880758 -0.0424612388 -3.15544355E-32
v -0.143152982 -0.0179167986 -3.15544355E-32
v -0.130880758 -0.0424612388 -3.15544355E-32
v -0.130880758 -0.0179167986 -0.0122722192
v -0.130880758 -0.0424612388 -3.15544355E-32
v -0.118608527 -0.0179167986 -3.15544355E-32
v -0.130880758 -0.0179167986 0.0122722192
v -0.443189234 -0.0188044701 0.0128754899
v -0.443189234 -0.044555448 -3.15410231E-32
v -0.456064671 -0.0188044701 -3.15544355E-32
v -0.443189234 -0.044555448 -3.15410231E-32
v -0.443189234 -0.0188044701 -0.0128754899
v -0.443189234 -0.044555448 -3.15410231E-32
v -0.430313706 -0.0188044701 -3.15544355E-32
v -0.443189234 -0.0188044701 0.0128754899
v -0.443189234 0.0130165797 0.0189455599
v -0.443189234 0.00014109 0.0446965396
v -0.456064671 0.00014109 0.0189455599
v -0.443189234 0.00014109 0.0446965396
v -0.443189234 -0.0127344001 0.0189455599
v -0.443189234 0.00014109 0.0446965396
v -0.430313706 0.00014109 0.0189455599
v -0.443189234 0.0130165797 0.0189455599
v -0.443189234 0.0190866496 -0.0128754899
v -0.443189234 0.0448376313 -3.15544355E-32
v -0.456064671 0.0190866496 -3.15544355E-32
v -0.443189234 0.0448376313 -3.15544355E-32
v -0.443189234 0.0190866496 0.0128754899
v -0.443189234 0.0448376313 -3.15544355E-32
v -0.430313706 0.0190866496 -3.15544355E-32
v -0.443189234 0.0190866496 -0.0128754899
v -0.252592295 0.0247627199 -3.15544355E-32
v -0.252592295 0 0.0245829504
v -0.275519967 0 0.0156203639
v -0.275519967 0.0163527373 -2.66163219E-32
v -0.240382701 0.01800487 -3.15544355E-32
v -0.240382701 0 0.0178889707
v -0.275519967 -0.0163527373 -2.66163219E-32
v -0.252592295 -0.0247627199 -3.15544355E-32
v -0.240382701 -0.01800487 -3.15544355E-32
v -0.275519967 0.0163527373 -2.66163219E-32
v -0.275519967 0 -0.0156203639
v -0.252592295 0 -0.0245829504
v -0.252592295 0.0247627199 -3.15544355E-32
v -0.240382701 0.01800487 -3.15544355E-32
v -0.240382701 0 -0.0178889707
v -0.252592295 -0.0247627199 -3.15544355E-32
v -0.275519967 -0.0163527373 -2.66163219E-32
v -0.240382701 -0.01800487 -3.15544355E-32
v -0.216827482 0.026636878 -3.15544355E-32
v -0.216819823 0 0.0264586583
v -0.240382701 0 0.0178889707
v -0.240382701 0.01800487 -3.15544355E-32
v -0.216827482 -0.026636878 -3.15544355E-32
v -0.240382701 -0.01800487 -3.15544355E-32
v -0.202346146 -0.0151016796 -3.15544355E-32
v -0.202346146 0 0.0150044588
v -0.202346146 0.0151016796 -3.15544355E-32
v -0.216819823 0 -0.0264586583
v -0.216827482 0.026636878 -3.15544355E-32
v -0.240382701 0.01800487 -3.15544355E-32
v -0.240382701 0 -0.0178889707
v -0.216827482 -0.026636878 -3.15544355E-32
v -0.240382701 -0.01800487 -3.15544355E-32
v -0.202346146 0.0151016796 -3.15544355E-32
v -0.202346146 0 -0.0150044588
v -0.202346146 -0.0151016796 -3.15544355E-32
v -0.202346146 -0.0151016796 -3.15544355E-32
v -0.202346146 0.0151016796 -3.15544355E-32
v -0.202346146 0 -0.0150044588
v -0.202346146 0 0.0150044588
v -0.467392832 -0.0252903011 -2.82264288E-32
v -0.44305113 -0.0275896583 -3.15544355E-32
v -0.44305113 -0.0194748994 -0.0195677094
v -0.467392832 -0.017848989 -0.0179646891
v -0.44305113 -5.56999976E-06 -0.0276729204
v -0.467392832 -4.42378217E-11 -0.0254059006
v -0.44305113 0.0197066795 -0.0195677299
v -0.467392832 0.0180807896 -0.0179646891
v -0.44305113 0.0278214589 -3.15544355E-32
v -0.467392832 0.0255220998 -2.82264288E-32
v -0.423664302 0.0179736596 -3.15544355E-32
v -0.423664302 0 -0.0178155396
v -0.423664302 -0.017741859 -3.15544355E-32
v -0.467392832 -0.017848989 0.0179646891
v -0.44305113 -0.0194748994 0.0195677094
v -0.44305113 -0.0275896583 -3.15544355E-32
v -0.467392832 -0.0252903011 -2.82264288E-32
v -0.467392832 2.32830638E-12 0.0254059006
v -0.44305113 -5.56999976E-06 0.0276729204
v -0.467392832 0.0180807896 0.0179646891
v -0.44305113 0.0197066795 0.0195677299
v -0.467392832 0.0255220998 -2.82264288E-32
v -0.44305113 0.0278214589 -3.15544355E-32
v -0.423664302 -0.017741859 -3.15544355E-32
v -0.423664302 0 0.0178155396
v -0.423664302 0.0179736596 -3.15544355E-32
v -0.362668306 0 0.0156203639
v -0.390290886 0 0.0228116289
v -0.390290886 0.0230564177 -3.15544355E-32
v -0.362668306 0.0163527373 -2.66163219E-32
v -0.362668306 0 -0.0156203639
v -0.390290886 0 -0.0228116289
v -0.362668306 -0.0163527373 -2.66163219E-32
v -0.390290886 -0.022824619 -3.15544355E-32
v -0.390290886 -0.022824619 -3.15544355E-32
v -0.362668306 -0.0163527373 -2.66163219E-32
v -0.408397824 0 0.0155476695
v -0.408397824 0.015728591 -3.15544355E-32
v -0.408397824 0 -0.0155476695
v -0.408397824 -0.0154967792 -3.15544355E-32
v -0.408397824 -0.0154967792 -3.15544355E-32
v -0.423664302 0.0179736596 -3.15544355E-32
v -0.423664302 0 0.0178155396
v -0.423664302 0 -0.0178155396
v -0.423664302 -0.017741859 -3.15544355E-32
v -0.423664302 -0.017741859 -3.15544355E-32
v -0.130880758 0.01819898 -0.0122722192
v -0.130880758 0.0427434184 -3.15544355E-32
v -0.143152982 0.01819898 -3.15544355E-32
v -0.130880758 0.0427434184 -3.15544355E-32
v -0.130880758 0.01819898 0.0122722192
v -0.130880758 0.0427434184 -3.15544355E-32
v -0.118608527 0.01819898 -3.15544355E-32
v -0.130880758 0.01819898 -0.0122722192
v -0.130880758 -0.0121311294 -0.0180578902
v -0.130880758 0.00014109 -0.0426023267
v -0.143152982 0.00014109 -0.0180578902
v -0.130880758 0.00014109 -0.0426023267
v -0.130880758 0.0124133099 -0.0180578902
v -0.130880758 0.00014109 -0.0426023267
v -0.118608527 0.00014109 -0.0180578902
v -0.130880758 -0.0121311294 -0.0180578902
v -0.362668306 0 -0.0156203639
v -0.275519967 0 -0.0156203639
v -0.275519967 0.0163527373 -2.66163219E-32
v -0.362668306 0.0163527373 -2.66163219E-32
v -0.362668306 -0.0163527373 -2.66163219E-32
v -0.275519967 -0.0163527373 -2.66163219E-32
v -0.362668306 0 0.0156203639
v -0.275519967 0 0.0156203639
v -0.275519967 -0.0163527373 -2.66163219E-32
v -0.362668306 -0.0163527373 -2.66163219E-32
v -0.362668306 0.0163527373 -2.66163219E-32
v -0.275519967 0.0163527373 -2.66163219E-32
v 0.130880758 0.000146249993 0.0270668454
v 0.130880758 0.0192853995 0.0191391502
v 0.150019914 0.000146249993 0.0191391502
v 0.150019914 0.0192853995 1.83721397E-17
v 0.130880758 0.0272130966 1.60282705E-17
v 0.130880758 0.0192853995 -0.0191391502
v 0.150019914 0.000146249993 -0.0191391502
v 0.130880758 0.000146249993 -0.0270668454
v 0.130880758 -0.0189929008 -0.019139152
v 0.150019914 -0.0189929008 1.83721397E-17
v 0.130880758 -0.0269205961 1.60282705E-17
v 0.130880758 -0.0189929008 0.0191391502
v 0.1579476 0.000146249993 1.93430032E-17
v 0.130880758 0.000146249993 0.0270668454
v 0.111741595 0.000146249993 0.0191391502
v 0.130880758 0.0192853995 0.0191391502
v 0.111741595 0.0192853995 1.36843996E-17
v 0.130880758 0.0272130966 1.60282705E-17
v 0.130880758 0.0192853995 -0.0191391502
v 0.111741595 0.000146249993 -0.0191391502
v 0.130880758 0.000146249993 -0.0270668454
v 0.130880758 -0.0189929008 -0.019139152
v 0.111741595 -0.0189929008 1.36843996E-17
v 0.130880758 -0.0269205961 1.60282705E-17
v 0.130880758 -0.0189929008 0.0191391502
v 0.103813902 0.000146249993 1.27135369E-17
v 0.443189234 -0.0127344001 0.0189455599
v 0.443189234 0.00014109 0.0446965396
v 0.456064671 0.00014109 0.0189455599
v 0.443189234 0.00014109 0.0446965396
v 0.443189234 0.0130165797 0.0189455599
v 0.443189234 0.00014109 0.0446965396
v 0.430313706 0.00014109 0.0189455599
v 0.443189234 -0.0127344001 0.0189455599
v 0.19457078 0.0054628402 2.38280509E-17
v 0.19457078 -0.0054628402 2.38280509E-17
v 0.189010844 -0.0027651398 0.000904199958
v 0.189010844 0.0027651398 -0.000904199958
v 0.189010844 -0.0027651398 0.000904199958
v 0.170753762 0.0027651398 -0.000904199958
v 0.170753762 -0.0027651398 0.000904199958
v 0.170753762 -0.0027651398 0.000904199958
v 0.165193766 -0.0054628402 2.02304026E-17
v 0.165193766 0.0054628402 2.02304026E-17
v 0.189010844 0.0027651398 -0.000904199958
v 0.189010844 -0.0027651398 0.000904199958
v 0.19457078 -0.0054628402 2.38280509E-17
v 0.19457078 0.0054628402 2.38280509E-17
v 0.170753762 -0.0027651398 0.000904199958
v 0.189010844 -0.0027651398 0.000904199958
v 0.170753762 0.0027651398 -0.000904199958
v 0.165193766 -0.0054628402 2.02304026E-17
v 0.170753762 -0.0027651398 0.000904199958
v 0.165193766 0.0054628402 2.02304026E-17
v 0.200528041 0 2.45576044E-17
v 0.19457078 -0.0054628402 2.38280509E-17
v 0.19457078 0.0054628402 2.38280509E-17
v 0.19457078 -0.0054628402 2.38280509E-17
v 0.200528041 0 2.45576044E-17
v 0.19457078 0.0054628402 2.38280509E-17
v 0.165193766 0.0054628402 2.02304026E-17
v 0.165193766 -0.0054628402 2.02304026E-17
v 0.159236535 0 1.95008541E-17
v 0.159236535 0 1.95008541E-17
v 0.165193766 -0.0054628402 2.02304026E-17
v 0.165193766 0.0054628402 2.02304026E-17
v 0.130880758 0.0124133099 -0.0180578902
v 0.130880758 0.00014109 -0.0426023267
v 0.143152982 0.00014109 -0.0180578902
v 0.130880758 0.00014109 -0.0426023267
v 0.130880758 -0.0121311294 -0.0180578902
v 0.130880758 0.00014109 -0.0426023267
v 0.118608527 0.00014109 -0.0180578902
v 0.130880758 0.0124133099 -0.0180578902
v 0.130880758 -0.0179167986 -0.0122722192
v 0.130880758 -0.0424612388 1.60282705E-17
v 0.143152982 -0.0179167986 1.75311848E-17
v 0.130880758 -0.0424612388 1.60282705E-17
v 0.130880758 -0.0179167986 0.0122722192
v 0.130880758 -0.0424612388 1.60282705E-17
v 0.118608527 -0.0179167986 1.45253561E-17
v 0.130880758 -0.0179167986 -0.0122722192
v 0.443189234 -0.0188044701 -0.0128754899
v 0.443189234 -0.044555448 5.42750291E-17
v 0.456064671 -0.0188044701 5.58518173E-17
v 0.443189234 -0.044555448 5.42750291E-17
v 0.443189234 -0.0188044701 0.0128754899
v 0.443189234 -0.044555448 5.42750291E-17
v 0.430313706 -0.0188044701 5.26982342E-17
v 0.443189234 -0.0188044701 -0.0128754899
v 0.443189234 0.0130165797 -0.0189455599
v 0.443189234 0.00014109 -0.0446965396
v 0.456064671 0.00014109 -0.0189455599
v 0.443189234 0.00014109 -0.0446965396
v 0.443189234 -0.0127344001 -0.0189455599
v 0.443189234 0.00014109 -0.0446965396
v 0.430313706 0.00014109 -0.0189455599
v 0.443189234 0.0130165797 -0.0189455599
v 0.443189234 0.0190866496 0.0128754899
v 0.443189234 0.0448376313 5.42750291E-17
v 0.456064671 0.0190866496 5.58518173E-17
v 0.443189234 0.0448376313 5.42750291E-17
v 0.443189234 0.0190866496 -0.0128754899
v 0.443189234 0.0448376313 5.42750291E-17
v 0.430313706 0.0190866496 5.26982342E-17
v 0.443189234 0.0190866496 0.0128754899
v 0.252592295 0.0247627199 3.09336366E-17
v 0.252592295 0 -0.0245829504
v 0.275519967 0 -0.0156203639
v 0.275519967 0.0163527373 3.37414648E-17
v 0.240382701 0.01800487 2.94383919E-17
v 0.240382701 0 -0.0178889707
v 0.275519967 -0.0163527373 3.37414648E-17
v 0.252592295 -0.0247627199 3.09336366E-17
v 0.240382701 -0.01800487 2.94383919E-17
v 0.275519967 0.0163527373 3.37414648E-17
v 0.275519967 0 0.0156203639
v 0.252592295 0 0.0245829504
v 0.252592295 0.0247627199 3.09336366E-17
v 0.240382701 0.01800487 2.94383919E-17
v 0.240382701 0 0.0178889707
v 0.252592295 -0.0247627199 3.09336366E-17
v 0.275519967 -0.0163527373 3.37414648E-17
v 0.240382701 -0.01800487 2.94383919E-17
v 0.216827482 0.026636878 2.65537087E-17
v 0.216819823 0 -0.0264586583
v 0.240382701 0 -0.0178889707
v 0.240382701 0.01800487 2.94383919E-17
v 0.216827482 -0.026636878 2.65537087E-17
v 0.240382701 -0.01800487 2.94383919E-17
v 0.202346146 -0.0151016796 2.47802582E-17
v 0.202346146 0 -0.0150044588
v 0.202346146 0.0151016796 2.47802582E-17
v 0.216819823 0 0.0264586583
v 0.216827482 0.026636878 2.65537087E-17
v 0.240382701 0.01800487 2.94383919E-17
v 0.240382701 0 0.0178889707
v 0.216827482 -0.026636878 2.65537087E-17
v 0.240382701 -0.01800487 2.94383919E-17
v 0.202346146 0.0151016796 2.47802582E-17
v 0.202346146 0 0.0150044588
v 0.202346146 -0.0151016796 2.47802582E-17
v 0.202346146 -0.0151016796 2.47802582E-17
v 0.202346146 0.0151016796 2.47802582E-17
v 0.202346146 0 0.0150044588
v 0.202346146 0 -0.0150044588
v 0.475686014 -0.0252903011 5.72391183E-17
v 0.44305113 -0.0275896583 5.42581182E-17
v 0.44305113 -0.0194748994 0.0195677094
v 0.475686014 -0.017848989 0.0179646891
v 0.44305113 -5.56999976E-06 0.0276729204
v 0.475686014 0 0.0254059006
v 0.44305113 0.0197066795 0.0195677299
v 0.475686014 0.0180807896 0.0179646891
v 0.44305113 0.0278214589 5.42581182E-17
v 0.475686014 0.0255220998 5.72391183E-17
v 0.423664302 0.0179736596 5.18839179E-17
v 0.423664302 0 0.0178155396
v 0.423664302 -0.017741859 5.18839179E-17
v 0.475686014 -0.017848989 -0.0179646891
v 0.44305113 -0.0194748994 -0.0195677094
v 0.44305113 -0.0275896583 5.42581182E-17
v 0.475686014 -0.0252903011 5.72391183E-17
v 0.475686014 0 -0.0254059006
v 0.44305113 -5.56999976E-06 -0.0276729204
v 0.475686014 0.0180807896 -0.0179646891
v 0.44305113 0.0197066795 -0.0195677299
v 0.475686014 0.0255220998 5.72391183E-17
v 0.44305113 0.0278214589 5.42581182E-17
v 0.423664302 -0.017741859 5.18839179E-17
v 0.423664302 0 -0.0178155396
v 0.423664302 0.0179736596 5.18839179E-17
v 0.362668306 0 -0.0156203639
v 0.390290886 0 -0.0228116289
v 0.390290886 0.0230564177 4.77968516E-17
v 0.362668306 0.0163527373 4.44140568E-17
v 0.362668306 0 0.0156203639
v 0.390290886 0 0.0228116289
v 0.362668306 -0.0163527373 4.44140568E-17
v 0.390290886 -0.022824619 4.77968516E-17
v 0.390290886 -0.022824619 4.77968516E-17
v 0.362668306 -0.0163527373 4.44140568E-17
v 0.408397824 0 -0.0155476695
v 0.408397824 0.015728591 5.00143078E-17
v 0.408397824 0 0.0155476695
v 0.408397824 -0.0154967792 5.00143078E-17
v 0.408397824 -0.0154967792 5.00143078E-17
v 0.423664302 0.0179736596 5.18839179E-17
v 0.423664302 0 -0.0178155396
v 0.423664302 0 0.0178155396
v 0.423664302 -0.017741859 5.18839179E-17
v 0.423664302 -0.017741859 5.18839179E-17
v 0.130880758 0.01819898 0.0122722192
v 0.130880758 0.0427434184 1.60282705E-17
v 0.143152982 0.01819898 1.75311848E-17
v 0.130880758 0.0427434184 1.60282705E-17
v 0.130880758 0.01819898 -0.0122722192
v 0.130880758 0.0427434184 1.60282705E-17
v 0.118608527 0.01819898 1.45253561E-17
v 0.130880758 0.01819898 0.0122722192
v 0.130880758 -0.0121311294 0.0180578902
v 0.130880758 0.00014109 0.0426023267
v 0.143152982 0.00014109 0.0180578902
v 0.130880758 0.00014109 0.0426023267
v 0.130880758 0.0124133099 0.0180578902
v 0.130880758 0.00014109 0.0426023267
v 0.118608527 0.00014109 0.0180578902
v 0.130880758 -0.0121311294 0.0180578902
v 0.362668306 0 0.0156203639
v 0.275519967 0 0.0156203639
v 0.275519967 0.0163527373 3.37414648E-17
v 0.362668306 0.0163527373 4.44140568E-17
v 0.362668306 -0.0163527373 4.44140568E-17
v 0.275519967 -0.0163527373 3.37414648E-17
v 0.362668306 0 -0.0156203639
v 0.275519967 0 -0.0156203639
v 0.275519967 -0.0163527373 3.37414648E-17
v 0.362668306 -0.0163527373 4.44140568E-17
v 0.362668306 0.0163527373 4.44140568E-17
v 0.275519967 0.0163527373 3.37414648E-17
vt 0.721906722 0.893829584
vt 0.801587999 0.874051929
vt 0.725872993 0.857252121
vt 0.638825357 0.881582022
vt 0.618415833 0.854719102
vt 0.606314421 0.827798963
vt 0.728636146 0.82322216
vt 0.843901098 0.851089716
vt 0.848487318 0.82322216
vt 0.637529135 0.970049262
vt 0.71372807 0.988169074
vt 0.79137814 0.968205571
vt 0.590618253 0.935196459
vt 0.832888246 0.927964687
vt 0.598129153 0.904125869
vt 0.828305125 0.90412581
vt 0.721906722 0.893829584
vt 0.725872993 0.857252121
vt 0.801587999 0.874051929
vt 0.638825357 0.881582022
vt 0.618415833 0.854719102
vt 0.606314421 0.827798963
vt 0.728636146 0.82322216
vt 0.843901098 0.851089716
vt 0.848487318 0.82322216
vt 0.637529135 0.970049262
vt 0.79137814 0.968205571
vt 0.71372807 0.988169074
vt 0.590618253 0.935196459
vt 0.832888246 0.927964687
vt 0.598129153 0.904125869
vt 0.828305125 0.90412581
vt 0.175316542 0.610478997
vt 0.297702223 0.61141783
vt 0.18498823 0.662940502
vt 0.297695905 0.668717802
vt 0.0580123961 0.631940842
vt 0.115514308 0.696943521
vt 0.219700843 0.717727661
vt 0.297694236 0.729163289
vt 0.0873189867 0.558077812
vt 0.181940168 0.572415948
vt 0.213440433 0.512010336
vt 0.297696263 0.560543537
vt 0.29769519 0.505068779
vt 0.410407513 0.662941933
vt 0.420079798 0.610478997
vt 0.537385345 0.631940246
vt 0.479881555 0.696946084
vt 0.375688463 0.717729032
vt 0.381947905 0.512010574
vt 0.413455039 0.572415709
vt 0.508072257 0.558075607
vt 0.105086587 0.954709589
vt 0.199969262 0.897319555
vt 0.0338188112 0.881901801
vt 0.224067837 0.982090116
vt 0.29666391 0.904756904
vt 0.29666391 0.991380036
vt 0.29666391 0.849352002
vt 0.185193568 0.851376176
vt 0.0659054816 0.799187779
vt 0.192328602 0.816775024
vt 0.181420475 0.748910189
vt 0.29666391 0.806863308
vt 0.29666391 0.737317264
vt 0.369259983 0.982090116
vt 0.393358558 0.897319555
vt 0.488241225 0.954709589
vt 0.559509039 0.881901801
vt 0.411907464 0.748910189
vt 0.400999278 0.816775024
vt 0.527422309 0.799187839
vt 0.408134311 0.851376176
vt 0.228937626 0.366297036
vt 0.288098216 0.357633233
vt 0.288098216 0.387213439
vt 0.228937626 0.387213439
vt 0.288098216 0.416793674
vt 0.228937626 0.408129841
vt 0.288098216 0.429046214
vt 0.228937626 0.416793674
vt 0.228937626 0.357633233
vt 0.288098216 0.345380694
vt 0.347258687 0.387213439
vt 0.347258687 0.366297036
vt 0.347258687 0.408129841
vt 0.347258687 0.416793674
vt 0.347258687 0.357633233
vt 0.204432726 0.387213439
vt 0.228937626 0.416793674
vt 0.288098216 0.429046214
vt 0.288098216 0.416793674
vt 0.228937626 0.408129841
vt 0.288098216 0.387213439
vt 0.228937626 0.387213439
vt 0.288098216 0.357633233
vt 0.228937626 0.366297036
vt 0.288098216 0.345380694
vt 0.228937626 0.357633233
vt 0.347258687 0.408129841
vt 0.347258687 0.416793674
vt 0.347258687 0.387213439
vt 0.347258687 0.366297036
vt 0.347258687 0.357633233
vt 0.204432726 0.387213439
vt 0.569076061 0.449042976
vt 0.53641963 0.488462687
vt 0.521361232 0.449042976
vt 0.457580209 0.480933487
vt 0.457580209 0.504790843
vt 0.378740698 0.488462687
vt 0.393799096 0.449042976
vt 0.346084356 0.449042976
vt 0.378740698 0.409623146
vt 0.457580209 0.417152345
vt 0.457580209 0.39329496
vt 0.53641963 0.409623206
vt 0.457580209 0.449042976
vt 0.569076061 0.449042976
vt 0.521361232 0.449042976
vt 0.53641963 0.488462687
vt 0.457580209 0.480933487
vt 0.457580209 0.504790843
vt 0.378740698 0.488462687
vt 0.393799096 0.449042976
vt 0.346084356 0.449042976
vt 0.378740698 0.409623146
vt 0.457580209 0.417152345
vt 0.457580209 0.39329496
vt 0.53641963 0.409623206
vt 0.457580209 0.449042976
vt 0.55686003 0.491441995
vt 0.452410012 0.517554998
vt 0.55686003 0.504499018
vt 0.452410012 0.517554998
vt 0.55686003 0.517554998
vt 0.452410012 0.517554998
vt 0.55686003 0.530610979
vt 0.55686003 0.543667972
vt 0.141773999 0.0179140009
vt 0.141773999 0.00423499988
vt 0.155696005 0.00761299999
vt 0.155696005 0.0145359999
vt 0.155696005 0.00761299999
vt 0.201409996 0.0145359999
vt 0.201409996 0.00761299999
vt 0.201409996 0.00761299999
vt 0.215332001 0.00423499988
vt 0.215332001 0.0179140009
vt 0.155696005 0.0145359999
vt 0.155696005 0.00761299999
vt 0.141773999 0.00423499988
vt 0.141773999 0.0179140009
vt 0.201409996 0.00761299999
vt 0.155696005 0.00761299999
vt 0.201409996 0.0145359999
vt 0.215332001 0.00423499988
vt 0.201409996 0.00761299999
vt 0.215332001 0.0179140009
vt 0.126855999 0.0110750003
vt 0.141773999 0.00423499988
vt 0.141773999 0.0179140009
vt 0.141773999 0.00423499988
vt 0.126855999 0.0110750003
vt 0.141773999 0.0179140009
vt 0.215332001 0.0179140009
vt 0.215332001 0.00423499988
vt 0.230248004 0.0110750003
vt 0.230248004 0.0110750003
vt 0.215332001 0.00423499988
vt 0.215332001 0.0179140009
vt 0.55686003 0.491441995
vt 0.452410012 0.517554998
vt 0.55686003 0.504499018
vt 0.452410012 0.517554998
vt 0.55686003 0.517554998
vt 0.452410012 0.517554998
vt 0.55686003 0.530610979
vt 0.55686003 0.543667972
vt 0.55686003 0.491441995
vt 0.452410012 0.517554998
vt 0.55686003 0.504499018
vt 0.452410012 0.517554998
vt 0.55686003 0.517554998
vt 0.452410012 0.517554998
vt 0.55686003 0.530610979
vt 0.55686003 0.543667972
vt 0.55686003 0.491441995
vt 0.452410012 0.517554998
vt 0.55686003 0.504499018
vt 0.452410012 0.517554998
vt 0.55686003 0.517554998
vt 0.452410012 0.517554998
vt 0.55686003 0.530610979
vt 0.55686003 0.543667972
vt 0.55686003 0.491441995
vt 0.452410012 0.517554998
vt 0.55686003 0.504499018
vt 0.452410012 0.517554998
vt 0.55686003 0.517554998
vt 0.452410012 0.517554998
vt 0.55686003 0.530610979
vt 0.55686003 0.543667972
vt 0.55686003 0.491441995
vt 0.452410012 0.517554998
vt 0.55686003 0.504499018
vt 0.452410012 0.517554998
vt 0.55686003 0.517554998
vt 0.452410012 0.517554998
vt 0.55686003 0.530610979
vt 0.55686003 0.543667972
vt 0.886669993 0.244108006
vt 0.886669993 0.128353998
vt 0.705576003 0.128353983
vt 0.705576003 0.218978003
vt 0.983106017 0.212518007
vt 0.983106017 0.128353998
vt 0.705576003 0.0377300009
vt 0.886669993 0.0126
vt 0.983106017 0.0441900007
vt 0.705576003 0.218978003
vt 0.705576003 0.128353983
vt 0.886669993 0.128353998
vt 0.886669993 0.244108006
vt 0.983106017 0.212518007
vt 0.983106017 0.128353998
vt 0.886669993 0.0126
vt 0.705576003 0.0377300009
vt 0.983106017 0.0441900007
vt 0.137045994 0.52530098
vt 0.137079999 0.449847013
vt 0.0161099993 0.449847013
vt 0.0161099993 0.513399005
vt 0.137045994 0.374392986
vt 0.0161099993 0.386294991
vt 0.200031996 0.407068014
vt 0.200031996 0.449847013
vt 0.200031996 0.492624998
vt 0.137079999 0.449847013
vt 0.137045994 0.52530098
vt 0.0161099993 0.513399005
vt 0.0161099993 0.449847013
vt 0.137045994 0.374392986
vt 0.0161099993 0.386294991
vt 0.200031996 0.492624998
vt 0.200031996 0.449847013
vt 0.200031996 0.407068014
vt 0.285355985 0.229569003
vt 0.285355985 0.336005986
vt 0.391108006 0.282786995
vt 0.179603994 0.282786995
vt 0.0182659999 0.264955014
vt 0.100787997 0.264955014
vt 0.100787997 0.288403004
vt 0.0182659999 0.288412005
vt 0.100787997 0.311744988
vt 0.0182659999 0.311740994
vt 0.100787997 0.335337013
vt 0.0182659999 0.335326999
vt 0.100787997 0.35878399
vt 0.0182659999 0.35878399
vt 0.166444004 0.35878399
vt 0.166444004 0.311686009
vt 0.166444004 0.264955014
vt 0.0182659999 0.288412005
vt 0.100787997 0.288403004
vt 0.100787997 0.264955014
vt 0.0182659999 0.264955014
vt 0.0182659999 0.311740994
vt 0.100787997 0.311744988
vt 0.0182659999 0.335326999
vt 0.100787997 0.335337013
vt 0.0182659999 0.35878399
vt 0.100787997 0.35878399
vt 0.166444004 0.264955014
vt 0.166444004 0.311686009
vt 0.166444004 0.35878399
vt 0.985108018 0.411532015
vt 0.805743992 0.411532015
vt 0.805743992 0.505074024
vt 0.985108018 0.505074024
vt 0.985108018 0.598631978
vt 0.805743992 0.598631978
vt 0.985108018 0.691532016
vt 0.805743992 0.691532016
vt 0.805743992 0.318078011
vt 0.985108018 0.318078011
vt 0.680010021 0.411532015
vt 0.680010021 0.505074024
vt 0.680010021 0.598631978
vt 0.680010021 0.691532016
vt 0.680010021 0.318078011
vt 0.580685973 0.505074024
vt 0.580685973 0.411532015
vt 0.580685973 0.598631978
vt 0.580685973 0.691532016
vt 0.580685973 0.318078011
vt 0.55686003 0.491441995
vt 0.452410012 0.517554998
vt 0.55686003 0.504499018
vt 0.452410012 0.517554998
vt 0.55686003 0.517554998
vt 0.452410012 0.517554998
vt 0.55686003 0.530610979
vt 0.55686003 0.543667972
vt 0.55686003 0.491441995
vt 0.452410012 0.517554998
vt 0.55686003 0.504499018
vt 0.452410012 0.517554998
vt 0.55686003 0.517554998
vt 0.452410012 0.517554998
vt 0.55686003 0.530610979
vt 0.55686003 0.543667972
vt 0.0172352791 0.128353983
vt 0.705576003 0.128353983
vt 0.705576003 0.204916641
vt 0.0172352791 0.204916641
vt 0.0172352791 0.0517913252
vt 0.705576003 0.0517913252
vt 0.0172352791 0.128353983
vt 0.705576003 0.128353983
vt 0.705576003 0.0517913252
vt 0.0172352791 0.0517913252
vt 0.0172352791 0.204916641
vt 0.705576003 0.204916641
vt 0.569076061 0.449042976
vt 0.53641963 0.488462687
vt 0.521361232 0.449042976
vt 0.457580209 0.480933487
vt 0.457580209 0.504790843
vt 0.378740698 0.488462687
vt 0.393799096 0.449042976
vt 0.346084356 0.449042976
vt 0.378740698 0.409623146
vt 0.457580209 0.417152345
vt 0.457580209 0.39329496
vt 0.53641963 0.409623206
vt 0.457580209 0.449042976
vt 0.569076061 0.449042976
vt 0.521361232 0.449042976
vt 0.53641963 0.488462687
vt 0.457580209 0.480933487
vt 0.457580209 0.504790843
vt 0.378740698 0.488462687
vt 0.393799096 0.449042976
vt 0.346084356 0.449042976
vt 0.378740698 0.409623146
vt 0.457580209 0.417152345
vt 0.457580209 0.39329496
vt 0.53641963 0.409623206
vt 0.457580209 0.449042976
vt 0.55686003 0.491441995
vt 0.452410012 0.517554998
vt 0.55686003 0.504499018
vt 0.452410012 0.517554998
vt 0.55686003 0.517554998
vt 0.452410012 0.517554998
vt 0.55686003 0.530610979
vt 0.55686003 0.543667972
vt 0.141773999 0.0179140009
vt 0.141773999 0.00423499988
vt 0.155696005 0.00761299999
vt 0.155696005 0.0145359999
vt 0.155696005 0.00761299999
vt 0.201409996 0.0145359999
vt 0.201409996 0.00761299999
vt 0.201409996 0.00761299999
vt 0.215332001 0.00423499988
vt 0.215332001 0.0179140009
vt 0.155696005 0.0145359999
vt 0.155696005 0.00761299999
vt 0.141773999 0.00423499988
vt 0.141773999 0.0179140009
vt 0.201409996 0.00761299999
vt 0.155696005 0.00761299999
vt 0.201409996 0.0145359999
vt 0.215332001 0.00423499988
vt 0.201409996 0.00761299999
vt 0.215332001 0.0179140009
vt 0.126855999 0.0110750003
vt 0.141773999 0.00423499988
vt 0.141773999 0.0179140009
vt 0.141773999 0.00423499988
vt 0.126855999 0.0110750003
vt 0.141773999 0.0179140009
vt 0.215332001 0.0179140009
vt 0.215332001 0.00423499988
vt 0.230248004 0.0110750003
vt 0.230248004 0.0110750003
vt 0.215332001 0.00423499988
vt 0.215332001 0.0179140009
vt 0.55686003 0.491441995
vt 0.452410012 0.517554998
vt 0.55686003 0.504499018
vt 0.452410012 0.517554998
vt 0.55686003 0.517554998
vt 0.452410012 0.517554998
vt 0.55686003 0.530610979
vt 0.55686003 0.543667972
vt 0.55686003 0.491441995
vt 0.452410012 0.517554998
vt 0.55686003 0.504499018
vt 0.452410012 0.517554998
vt 0.55686003 0.517554998
vt 0.452410012 0.517554998
vt 0.55686003 0.530610979
vt 0.55686003 0.543667972
vt 0.55686003 0.491441995
vt 0.452410012 0.517554998
vt 0.55686003 0.504499018
vt 0.452410012 0.517554998
vt 0.55686003 0.517554998
vt 0.452410012 0.517554998
vt 0.55686003 0.530610979
vt 0.55686003 0.543667972
vt 0.55686003 0.491441995
vt 0.452410012 0.517554998
vt 0.55686003 0.504499018
vt 0.452410012 0.517554998
vt 0.55686003 0.517554998
vt 0.452410012 0.517554998
vt 0.55686003 0.530610979
vt 0.55686003 0.543667972
vt 0.55686003 0.491441995
vt 0.452410012 0.517554998
vt 0.55686003 0.504499018
vt 0.452410012 0.517554998
vt 0.55686003 0.517554998
vt 0.452410012 0.517554998
vt 0.55686003 0.530610979
vt 0.55686003 0.543667972
vt 0.886669993 0.244108006
vt 0.886669993 0.128353998
vt 0.705576003 0.128353983
vt 0.705576003 0.218978003
vt 0.983106017 0.212518007
vt 0.983106017 0.128353998
vt 0.705576003 0.0377300009
vt 0.886669993 0.0126
vt 0.983106017 0.0441900007
vt 0.705576003 0.218978003
vt 0.705576003 0.128353983
vt 0.886669993 0.128353998
vt 0.886669993 0.244108006
vt 0.983106017 0.212518007
vt 0.983106017 0.128353998
vt 0.886669993 0.0126
vt 0.705576003 0.0377300009
vt 0.983106017 0.0441900007
vt 0.137045994 0.52530098
vt 0.137079999 0.449847013
vt 0.0161099993 0.449847013
vt 0.0161099993 0.513399005
vt 0.137045994 0.374392986
vt 0.0161099993 0.386294991
vt 0.200031996 0.407068014
vt 0.200031996 0.449847013
vt 0.200031996 0.492624998
vt 0.137079999 0.449847013
vt 0.137045994 0.52530098
vt 0.0161099993 0.513399005
vt 0.0161099993 0.449847013
vt 0.137045994 0.374392986
vt 0.0161099993 0.386294991
vt 0.200031996 0.492624998
vt 0.200031996 0.449847013
vt 0.200031996 0.407068014
vt 0.285355985 0.229569003
vt 0.285355985 0.336005986
vt 0.391108006 0.282786995
vt 0.179603994 0.282786995
vt 0.0182659999 0.264955014
vt 0.100787997 0.264955014
vt 0.100787997 0.288403004
vt 0.0182659999 0.288412005
vt 0.100787997 0.311744988
vt 0.0182659999 0.311740994
vt 0.100787997 0.335337013
vt 0.0182659999 0.335326999
vt 0.100787997 0.35878399
vt 0.0182659999 0.35878399
vt 0.166444004 0.35878399
vt 0.166444004 0.311686009
vt 0.166444004 0.264955014
vt 0.0182659999 0.288412005
vt 0.100787997 0.288403004
vt 0.100787997 0.264955014
vt 0.0182659999 0.264955014
vt 0.0182659999 0.311740994
vt 0.100787997 0.311744988
vt 0.0182659999 0.335326999
vt 0.100787997 0.335337013
vt 0.0182659999 0.35878399
vt 0.100787997 0.35878399
vt 0.166444004 0.264955014
vt 0.166444004 0.311686009
vt 0.166444004 0.35878399
vt 0.985108018 0.411532015
vt 0.805743992 0.411532015
vt 0.805743992 0.505074024
vt 0.985108018 0.505074024
vt 0.985108018 0.598631978
vt 0.805743992 0.598631978
vt 0.985108018 0.691532016
vt 0.805743992 0.691532016
vt 0.805743992 0.318078011
vt 0.985108018 0.318078011
vt 0.680010021 0.411532015
vt 0.680010021 0.505074024
vt 0.680010021 0.598631978
vt 0.680010021 0.691532016
vt 0.680010021 0.318078011
vt 0.580685973 0.505074024
vt 0.580685973 0.411532015
vt 0.580685973 0.598631978
vt 0.580685973 0.691532016
vt 0.580685973 0.318078011
vt 0.55686003 0.491441995
vt 0.452410012 0.517554998
vt 0.55686003 0.504499018
vt 0.452410012 0.517554998
vt 0.55686003 0.517554998
vt 0.452410012 0.517554998
vt 0.55686003 0.530610979
vt 0.55686003 0.543667972
vt 0.55686003 0.491441995
vt 0.452410012 0.517554998
vt 0.55686003 0.504499018
vt 0.452410012 0.517554998
vt 0.55686003 0.517554998
vt 0.452410012 0.517554998
vt 0.55686003 0.530610979
vt 0.55686003 0.543667972
vt 0.0172352791 0.128353983
vt 0.705576003 0.128353983
vt 0.705576003 0.204916641
vt 0.0172352791 0.204916641
vt 0.0172352791 0.0517913252
vt 0.705576003 0.0517913252
vt 0.0172352791 0.128353983
vt 0.705576003 0.128353983
vt 0.705576003 0.0517913252
vt 0.0172352791 0.0517913252
vt 0.0172352791 0.204916641
vt 0.705576003 0.204916641
vn -0.145004377 0.713473022 0.685514331
vn 0.650859714 0.139196187 0.746328354
vn -0.936271608 0.0817426443 0.341633767
vn 0.752880275 0.63627547 -0.168299586
vn 0.792203784 0.459312499 -0.40180245
vn 0.6080091 0.471331269 -0.638883233
vn -0.96343255 -0.00214460259 0.26794225
vn 0.930861294 -0.140210539 0.337399155
vn 0.969004631 -0.219148263 0.114034906
vn 0.650859714 0.139196187 0.746328354
vn -0.145004377 0.713473022 0.685514331
vn 0.752880275 0.63627547 -0.168299586
vn 0.930861294 -0.140210539 0.337399155
vn 0.792203784 0.459312499 -0.40180245
vn 0.969004631 -0.219148263 0.114034906
vn 0.6080091 0.471331269 -0.638883233
vn -0.145004213 0.713471591 -0.685515881
vn -0.936271727 0.0817405805 -0.341633797
vn 0.650859237 0.139193311 -0.746329367
vn 0.752882481 0.636273265 0.168298438
vn 0.792204082 0.459312886 0.401801378
vn 0.608007193 0.47133708 0.63888067
vn -0.96343267 -0.00214546802 -0.267941862
vn 0.930861354 -0.140209824 -0.337399423
vn 0.969005644 -0.219143927 -0.114035048
vn 0.650859237 0.139193311 -0.746329367
vn 0.752882481 0.636273265 0.168298438
vn -0.145004213 0.713471591 -0.685515881
vn 0.930861354 -0.140209824 -0.337399423
vn 0.792204082 0.459312886 0.401801378
vn 0.969005644 -0.219143927 -0.114035048
vn 0.608007193 0.47133708 0.63888067
vn -0.777387202 0.0248024836 0.628533185
vn -0.999964118 -0.00846439414 -0.000348016416
vn -0.682350457 0.522334754 0.511433661
vn -0.795457125 0.606009841 0
vn 0.0216558687 0.111050449 0.993578792
vn 0.0118457573 0.628601313 0.777637541
vn -0.012308931 0.962741852 0.270141989
vn -0.0178049169 0.999841511 0
vn -0.018395165 -0.500836432 0.865346432
vn -0.659045041 -0.565866828 0.49543342
vn -0.0649849027 -0.944533885 0.321920186
vn -0.748091102 -0.663595557 0.000719090516
vn -0.0724216253 -0.997374058 -0.000155256435
vn -0.682350457 0.522334635 -0.511433661
vn -0.777173638 0.0226285309 -0.628879249
vn 0.0216558706 0.111050501 -0.993578792
vn 0.0118457396 0.628601134 -0.777637601
vn -0.0123089533 0.962741852 -0.2701419
vn -0.0661342517 -0.9442904 -0.322400302
vn -0.660263181 -0.567526996 -0.491899967
vn -0.0199922193 -0.501060665 -0.865181208
vn 0.0118457573 0.628601313 0.777637541
vn 0.685808063 0.498966873 0.529810727
vn 0.0216558687 0.111050449 0.993578792
vn -0.012308931 0.962741852 0.270141989
vn 0.798301756 0.602257669 0
vn -0.0178049169 0.999841511 0
vn 0.997645319 -0.0685847551 0
vn 0.754631996 -0.00495862029 0.656129539
vn -0.018395165 -0.500836432 0.865346432
vn 0.542986333 -0.673702419 0.501289129
vn -0.0649849027 -0.944533885 0.321920186
vn 0.594871521 -0.803820789 0
vn -0.0724216253 -0.997374058 -0.000155256435
vn -0.0123089533 0.962741852 -0.2701419
vn 0.685807943 0.498966902 -0.529810727
vn 0.0118457396 0.628601134 -0.777637601
vn 0.0216558706 0.111050501 -0.993578792
vn -0.0661342517 -0.9442904 -0.322400302
vn 0.542986274 -0.673702538 -0.501289129
vn -0.0199922193 -0.501060665 -0.865181208
vn 0.754631937 -0.00495865103 -0.656129599
vn -0.532899797 -0.598338485 -0.598338485
vn 0.0331990011 -0.70695585 -0.706478119
vn 0.0339973569 0.000625392247 -0.999421716
vn -0.532899737 0 -0.846178353
vn 0.0347838365 0.706437707 -0.706919968
vn -0.532899737 0.598338544 -0.598338485
vn 0.0344639868 0.999405921 0
vn -0.532899857 0.846178353 0
vn -0.532899916 -0.846178293 0
vn 0.033516176 -0.999438167 0
vn 0.45436725 -0.00112522044 -0.890813768
vn 0.453457654 -0.630956531 -0.629499733
vn 0.455274254 0.628844261 -0.630301654
vn 0.455128461 0.890425801 0
vn 0.453601182 -0.891204774 0
vn -1 0 0
vn -0.532899857 0.846178353 0
vn 0.0344639868 0.999405921 0
vn 0.0347837433 0.706437767 0.706919909
vn -0.532899737 0.598338425 0.598338485
vn 0.0339973308 0.000625603308 0.999421716
vn -0.532899737 0 0.846178412
vn 0.0331990607 -0.70695585 0.706478
vn -0.532899737 -0.598338425 0.598338485
vn 0.033516176 -0.999438167 0
vn -0.532899916 -0.846178293 0
vn 0.455274194 0.62884444 0.630301535
vn 0.455128461 0.890425801 0
vn 0.45436725 -0.0011248067 0.890813768
vn 0.453457743 -0.630956471 0.629499793
vn 0.453601182 -0.891204774 0
vn -1 0 0
vn -0 0 -1
vn -0 0.707106709 -0.707106888
vn -0.707106709 0 -0.707106888
vn -0.707106709 0.707106888 0
vn -0 1 0
vn -0 0.707106709 0.707106888
vn -0.707106709 0 0.707106888
vn -0 0 1
vn -0 -0.707106709 0.707106888
vn -0.707106769 -0.707106769 0
vn -0 -1 0
vn -0 -0.707106769 -0.707106829
vn -1 0 0
vn -0 0 -1
vn 0.707106709 0 -0.707106888
vn -0 0.707106709 -0.707106888
vn 0.70710659 0.707106948 0
vn -0 1 0
vn -0 0.707106709 0.707106888
vn 0.707106709 0 0.707106888
vn -0 0 1
vn -0 -0.707106709 0.707106888
vn 0.70710665 -0.707106948 0
vn -0 -1 0
vn -0 -0.707106769 -0.707106829
vn 1 0 0
vn 3.08959159E-07 -0.894427001 -0.447213888
vn 2.4584217E-06 0 -1
vn -0.894427896 0 -0.44721216
vn 2.4584217E-06 0 -1
vn 3.08959159E-07 0.894427001 -0.447213888
vn 2.4584217E-06 0 -1
vn 0.894426823 0 -0.447214276
vn 3.08959159E-07 -0.894427001 -0.447213888
vn -0 1 0
vn -0 1 0
vn -0 1 0
vn -0 1 0
vn -0 1 0
vn -0 1 0
vn -0 1 0
vn -0 1 0
vn -0 1 0
vn -0 1 0
vn -0 1 0
vn -0 1 0
vn -0 1 0
vn -0 1 0
vn -0 1 0
vn -0 1 0
vn -0 1 0
vn -0 1 0
vn -0 1 0
vn -0 1 0
vn -0 1 0
vn -0 1 0
vn -0 1 0
vn -0 1 0
vn -0 1 0
vn -0 1 0
vn -0 1 0
vn -0 1 0
vn -0 1 0
vn -0 1 0
vn -0 1 0
vn -0 1 0
vn -0 0.894427299 0.447213501
vn -0 0 1
vn -0.894427121 0 0.447213769
vn -0 0 1
vn -0 -0.894427299 0.447213471
vn -0 0 1
vn 0.894427121 0 0.447213769
vn -0 0.894427299 0.447213501
vn -0 -0.447213769 0.894427121
vn -1.23002579E-07 -1 0
vn -0.894426823 -0.447214365 0
vn -1.23002579E-07 -1 0
vn -0 -0.447213769 -0.894427121
vn -1.23002579E-07 -1 0
vn 0.894427299 -0.447213352 0
vn -0 -0.447213769 0.894427121
vn 3.60452219E-07 -0.447213262 0.894427359
vn 2.57017041E-06 -1 0
vn -0.894427896 -0.44721216 0
vn 2.57017041E-06 -1 0
vn 3.60452219E-07 -0.447213262 -0.894427359
vn 2.57017041E-06 -1 0
vn 0.894427061 -0.447213858 0
vn 3.60452219E-07 -0.447213262 0.894427359
vn 3.08959159E-07 0.894427001 0.447213888
vn 2.4584217E-06 0 1
vn -0.894427896 0 0.44721216
vn 2.4584217E-06 0 1
vn 3.08959159E-07 -0.894427001 0.447213888
vn 2.4584217E-06 0 1
vn 0.894426823 0 0.447214276
vn 3.08959159E-07 0.894427001 0.447213888
vn 3.60452134E-07 0.447213173 -0.894427419
vn 2.68191729E-06 1 0
vn -0.894427896 0.4472121 0
vn 2.68191729E-06 1 0
vn 3.60452134E-07 0.447213173 0.894427419
vn 2.68191729E-06 1 0
vn 0.894427121 0.447213829 0
vn 3.60452134E-07 0.447213173 -0.894427419
vn -0.0635708198 0.997977316 2.31134763E-07
vn -0.0596461259 -1.52232644E-07 0.998219609
vn -0.35094887 -1.55722461E-07 0.936394632
vn -0.357901335 0.933759451 1.590289E-07
vn 0.483786076 0.875186265 2.93179426E-07
vn 0.481217593 0 0.87660116
vn -0.357901335 -0.933759451 -1.590289E-07
vn -0.0635708198 -0.997977316 -2.18293934E-07
vn 0.483786076 -0.875186265 -2.93179426E-07
vn -0.357901335 0.933759451 1.590289E-07
vn -0.35094887 1.55722461E-07 -0.936394632
vn -0.0596461408 1.395466E-07 -0.998219609
vn -0.0635708198 0.997977316 2.31134763E-07
vn 0.483786076 0.875186265 2.93179426E-07
vn 0.481217593 0 -0.87660116
vn -0.0635708198 -0.997977316 -2.18293934E-07
vn -0.357901335 -0.933759451 -1.590289E-07
vn 0.483786076 -0.875186265 -2.93179426E-07
vn 0.0123167736 0.999924123 0
vn 0.0129442438 -1.03563515E-07 0.999916196
vn -0.341926664 0 0.939726591
vn -0.343946248 0.938989341 0
vn 0.0123168193 -0.999924123 0
vn -0.343946218 -0.938989341 0
vn 0.736132026 -0.676837981 0
vn 0.734921396 -1.0579317E-07 0.678152204
vn 0.736132026 0.676837981 0
vn 0.0129441945 1.03563494E-07 -0.999916196
vn 0.0123167736 0.999924123 0
vn -0.343946248 0.938989341 0
vn -0.341926664 0 -0.939726591
vn 0.0123168193 -0.999924123 0
vn -0.343946218 -0.938989341 0
vn 0.736132026 0.676837981 0
vn 0.734921396 1.0579317E-07 -0.678152204
vn 0.736132026 -0.676837981 0
vn 0.736132026 -0.676837981 0
vn 0.736132026 0.676837981 0
vn 0.734921396 1.0579317E-07 -0.678152204
vn 0.734921396 -1.0579317E-07 0.678152204
vn -0.0938596725 -0.995585442 0
vn 0.0706853345 -0.997498691 0
vn 0.110544421 -0.704090714 -0.701452971
vn -0.0933694541 -0.705282331 -0.702750981
vn 0.0715494081 5.12439983E-05 -0.99743706
vn -0.0929156095 3.41105579E-06 -0.995674014
vn 0.111340284 0.700951338 -0.704464734
vn -0.0934046283 0.702095747 -0.705930054
vn 0.0706855133 0.997498631 0
vn -0.0938594937 0.995585442 0
vn 0.639123201 0.769104362 0
vn 0.636831403 -0.00095257326 -0.771002471
vn 0.635644674 -0.771981776 -2.35529157E-07
vn -0.0933694318 -0.705282331 0.702750981
vn 0.110544331 -0.704090714 0.701452971
vn 0.0706853345 -0.997498691 0
vn -0.0938596725 -0.995585442 0
vn -0.0929155797 3.41105579E-06 0.995674014
vn 0.0715494305 5.12317019E-05 0.99743706
vn -0.0934046134 0.702095747 0.705930054
vn 0.111340307 0.700951397 0.704464734
vn -0.0938594937 0.995585442 0
vn 0.0706855133 0.997498631 0
vn 0.635644674 -0.771981776 -2.35529157E-07
vn 0.636831403 -0.000952664879 0.771002531
vn 0.639123201 0.769104362 0
vn 0.239612684 0 0.970868587
vn 0.00278698397 0.000399237353 0.999996066
vn 0.00555375917 0.999984562 1.99322542E-07
vn 0.246932507 0.969032705 1.99870712E-07
vn 0.239612684 0 -0.970868587
vn 0.00278696977 0.000399001176 -0.999996066
vn 0.242392004 -0.970178425 -1.00379907E-07
vn 0.00390343554 -0.999992371 -1.39076505E-07
vn 0.00390343554 -0.999992371 -1.39076505E-07
vn 0.242392004 -0.970178425 -1.00379907E-07
vn -0.179032832 -0.000415427698 0.983843029
vn -0.180581614 0.983560026 1.76027811E-07
vn -0.179032832 -0.000415625138 -0.983843029
vn -0.17950879 -0.983756363 -1.54185699E-07
vn -0.17950879 -0.983756363 -1.54185699E-07
vn 0.146947205 0.989144325 0
vn 0.145988777 0.000228086225 0.989286184
vn 0.145988777 0.000228275036 -0.989286184
vn 0.14594844 -0.989292204 0
vn 0.14594844 -0.989292204 0
vn -0 0.447213769 -0.894427121
vn -0 1 0
vn -0.894426823 0.447214276 0
vn -0 1 0
vn -0 0.447213769 0.894427121
vn -0 1 0
vn 0.894427299 0.447213411 0
vn -0 0.447213769 -0.894427121
vn -0 -0.894427299 -0.447213471
vn -0 0 -1
vn -0.894427121 0 -0.447213769
vn -0 0 -1
vn -0 0.894427299 -0.447213501
vn -0 0 -1
vn 0.894427121 0 -0.447213769
vn -0 -0.894427299 -0.447213471
vn -0 0 -1
vn -0 0 -1
vn -0 1 0
vn -0 1 0
vn -0 -1 0
vn -0 -1 0
vn -0 0 1
vn -0 0 1
vn -0 -1 0
vn -0 -1 0
vn -0 1 0
vn -0 1 0
vn -0 0 1
vn -0 0.707106709 0.707106888
vn 0.707106709 0 0.707106888
vn 0.707106709 0.707106888 0
vn -0 1 0
vn -0 0.707106709 -0.707106888
vn 0.707106709 0 -0.707106888
vn -0 0 -1
vn -0 -0.707106709 -0.707106888
vn 0.707106769 -0.707106769 0
vn -0 -1 0
vn -0 -0.707106769 0.707106829
vn 1 0 0
vn -0 0 1
vn -0.707106709 0 0.707106888
vn -0 0.707106709 0.707106888
vn -0.70710659 0.707106948 0
vn -0 1 0
vn -0 0.707106709 -0.707106888
vn -0.707106709 0 -0.707106888
vn -0 0 -1
vn -0 -0.707106709 -0.707106888
vn -0.70710665 -0.707106948 0
vn -0 -1 0
vn -0 -0.707106769 0.707106829
vn -1 0 0
vn -3.08959159E-07 -0.894427001 0.447213888
vn -2.4584217E-06 0 1
vn 0.894427896 0 0.44721216
vn -2.4584217E-06 0 1
vn -3.08959159E-07 0.894427001 0.447213888
vn -2.4584217E-06 0 1
vn -0.894426823 0 0.447214276
vn -3.08959159E-07 -0.894427001 0.447213888
vn -0 1 0
vn -0 1 0
vn -0 1 0
vn -0 1 0
vn -0 1 0
vn -0 1 0
vn -0 1 0
vn -0 1 0
vn -0 1 0
vn -0 1 0
vn -0 1 0
vn -0 1 0
vn -0 1 0
vn -0 1 0
vn -0 1 0
vn -0 1 0
vn -0 1 0
vn -0 1 0
vn -0 1 0
vn -0 1 0
vn -0 1 0
vn -0 1 0
vn -0 1 0
vn -0 1 0
vn -0 1 0
vn -0 1 0
vn -0 1 0
vn -0 1 0
vn -0 1 0
vn -0 1 0
vn -0 1 0
vn -0 1 0
vn -0 0.894427299 -0.447213501
vn -0 0 -1
vn 0.894427121 0 -0.447213769
vn -0 0 -1
vn -0 -0.894427299 -0.447213471
vn -0 0 -1
vn -0.894427121 0 -0.447213769
vn -0 0.894427299 -0.447213501
vn -0 -0.447213769 -0.894427121
vn 1.23002579E-07 -1 0
vn 0.894426823 -0.447214365 0
vn 1.23002579E-07 -1 0
vn -0 -0.447213769 0.894427121
vn 1.23002579E-07 -1 0
vn -0.894427299 -0.447213352 0
vn -0 -0.447213769 -0.894427121
vn -3.60452219E-07 -0.447213262 -0.894427359
vn -2.57017041E-06 -1 0
vn 0.894427896 -0.44721216 0
vn -2.57017041E-06 -1 0
vn -3.60452219E-07 -0.447213262 0.894427359
vn -2.57017041E-06 -1 0
vn -0.894427061 -0.447213858 0
vn -3.60452219E-07 -0.447213262 -0.894427359
vn -3.08959159E-07 0.894427001 -0.447213888
vn -2.4584217E-06 0 -1
vn 0.894427896 0 -0.44721216
vn -2.4584217E-06 0 -1
vn -3.08959159E-07 -0.894427001 -0.447213888
vn -2.4584217E-06 0 -1
vn -0.894426823 0 -0.447214276
vn -3.08959159E-07 0.894427001 -0.447213888
vn -3.60452134E-07 0.447213173 0.894427419
vn -2.68191729E-06 1 0
vn 0.894427896 0.4472121 0
vn -2.68191729E-06 1 0
vn -3.60452134E-07 0.447213173 -0.894427419
vn -2.68191729E-06 1 0
vn -0.894427121 0.447213829 0
vn -3.60452134E-07 0.447213173 0.894427419
vn 0.0635708198 0.997977316 -2.31134763E-07
vn 0.0596461259 -1.52232644E-07 -0.998219609
vn 0.35094887 -1.55722461E-07 -0.936394632
vn 0.357901335 0.933759451 -1.590289E-07
vn -0.483786076 0.875186265 -2.93179426E-07
vn -0.481217593 0 -0.87660116
vn 0.357901335 -0.933759451 1.590289E-07
vn 0.0635708198 -0.997977316 2.18293934E-07
vn -0.483786076 -0.875186265 2.93179426E-07
vn 0.357901335 0.933759451 -1.590289E-07
vn 0.35094887 1.55722461E-07 0.936394632
vn 0.0596461408 1.395466E-07 0.998219609
vn 0.0635708198 0.997977316 -2.31134763E-07
vn -0.483786076 0.875186265 -2.93179426E-07
vn -0.481217593 0 0.87660116
vn 0.0635708198 -0.997977316 2.18293934E-07
vn 0.357901335 -0.933759451 1.590289E-07
vn -0.483786076 -0.875186265 2.93179426E-07
vn -0.0123167736 0.999924123 0
vn -0.0129442438 -1.03563515E-07 -0.999916196
vn 0.341926664 0 -0.939726591
vn 0.343946248 0.938989341 0
vn -0.0123168193 -0.999924123 0
vn 0.343946218 -0.938989341 0
vn -0.736132026 -0.676837981 0
vn -0.734921396 -1.0579317E-07 -0.678152204
vn -0.736132026 0.676837981 0
vn -0.0129441945 1.03563494E-07 0.999916196
vn -0.0123167736 0.999924123 0
vn 0.343946248 0.938989341 0
vn 0.341926664 0 0.939726591
vn -0.0123168193 -0.999924123 0
vn 0.343946218 -0.938989341 0
vn -0.736132026 0.676837981 0
vn -0.734921396 1.0579317E-07 0.678152204
vn -0.736132026 -0.676837981 0
vn -0.736132026 -0.676837981 0
vn -0.736132026 0.676837981 0
vn -0.734921396 1.0579317E-07 0.678152204
vn -0.734921396 -1.0579317E-07 -0.678152204
vn 0.0701452717 -0.997536778 0
vn -0.0561394095 -0.99842298 0
vn -0.0884626731 -0.705662429 0.703004181
vn 0.0697774962 -0.706673145 0.704091072
vn -0.0568446368 4.09871172E-05 0.998383045
vn 0.0694369748 2.64848472E-06 0.99758631
vn -0.0891012624 0.702526033 0.706058145
vn 0.0698038787 0.703490913 0.707268
vn -0.0561395027 0.99842298 0
vn 0.070145078 0.997536778 1.21530647E-07
vn -0.639123201 0.769104362 0
vn -0.636831403 -0.00095257326 0.771002471
vn -0.635644674 -0.771981776 2.35529157E-07
vn 0.0697774738 -0.706673205 -0.704090953
vn -0.0884626359 -0.705662489 -0.703004122
vn -0.0561394095 -0.99842298 0
vn 0.0701452717 -0.997536778 0
vn 0.0694369227 2.47839807E-06 -0.99758631
vn -0.056844648 4.08495944E-05 -0.998383045
vn 0.0698038563 0.703490853 -0.707268059
vn -0.0891012698 0.702526033 -0.706058145
vn 0.070145078 0.997536778 1.21530647E-07
vn -0.0561395027 0.99842298 0
vn -0.635644674 -0.771981776 2.35529157E-07
vn -0.636831403 -0.000952664879 -0.771002531
vn -0.639123201 0.769104362 0
vn -0.239612684 0 -0.970868587
vn -0.00278698397 0.000399237353 -0.999996066
vn -0.00555375917 0.999984562 -1.99322542E-07
vn -0.246932507 0.969032705 -1.99870712E-07
vn -0.239612684 0 0.970868587
vn -0.00278696977 0.000399001176 0.999996066
vn -0.242392004 -0.970178425 1.00379907E-07
vn -0.00390343554 -0.999992371 1.39076505E-07
vn -0.00390343554 -0.999992371 1.39076505E-07
vn -0.242392004 -0.970178425 1.00379907E-07
vn 0.179032832 -0.000415427698 -0.983843029
vn 0.180581614 0.983560026 -1.76027811E-07
vn 0.179032832 -0.000415625138 0.983843029
vn 0.17950879 -0.983756363 1.54185699E-07
vn 0.17950879 -0.983756363 1.54185699E-07
vn -0.146947205 0.989144325 0
vn -0.145988777 0.000228086225 -0.989286184
vn -0.145988777 0.000228275036 0.989286184
vn -0.14594844 -0.989292204 0
vn -0.14594844 -0.989292204 0
vn -0 0.447213769 0.894427121
vn -0 1 0
vn 0.894426823 0.447214276 0
vn -0 1 0
vn -0 0.447213769 -0.894427121
vn -0 1 0
vn -0.894427299 0.447213411 0
vn -0 0.447213769 0.894427121
vn -0 -0.894427299 0.447213471
vn -0 0 1
vn 0.894427121 0 0.447213769
vn -0 0 1
vn -0 0.894427299 0.447213501
vn -0 0 1
vn -0.894427121 0 0.447213769
vn -0 -0.894427299 0.447213471
vn -0 0 1
vn -0 0 1
vn -0 1 0
vn -0 1 0
vn -0 -1 0
vn -0 -1 0
vn -0 0 -1
vn -0 0 -1
vn -0 -1 0
vn -0 -1 0
vn -0 1 0
vn -0 1 0
g wp_010_004_001_Mesh_0
f 3/3/3 2/2/2 1/1/1
f 4/4/4 3/3/3 1/1/1
f 5/5/5 3/3/3 4/4/4
f 6/6/6 3/3/3 5/5/5
f 7/7/7 3/3/3 6/6/6
f 8/8/8 2/2/2 3/3/3
f 3/3/3 7/7/7 8/8/8
f 7/7/7 9/9/9 8/8/8
f 12/12/12 11/11/11 10/10/10
f 12/12/12 10/10/10 13/13/13
f 12/12/12 13/13/13 14/14/14
f 15/15/15 14/14/14 13/13/13
f 15/15/15 16/16/16 14/14/14
f 19/19/19 18/18/18 17/17/17
f 18/18/18 20/20/20 17/17/17
f 18/18/18 21/21/21 20/20/20
f 18/18/18 22/22/22 21/21/21
f 18/18/18 23/23/23 22/22/22
f 19/19/19 24/24/24 18/18/18
f 23/23/23 18/18/18 24/24/24
f 25/25/25 23/23/23 24/24/24
f 28/28/28 27/27/27 26/26/26
f 26/26/26 27/27/27 29/29/29
f 29/29/29 27/27/27 30/30/30
f 30/30/30 31/31/31 29/29/29
f 32/32/32 31/31/31 30/30/30
f 35/35/35 34/34/34 33/33/33
f 36/36/36 34/34/34 35/35/35
f 37/37/37 35/35/35 33/33/33
f 38/38/38 35/35/35 37/37/37
f 39/39/39 35/35/35 38/38/38
f 36/36/36 35/35/35 39/39/39
f 39/39/39 40/40/40 36/36/36
f 41/41/41 37/37/37 33/33/33
f 42/42/42 41/41/41 33/33/33
f 42/42/42 33/33/33 34/34/34
f 41/41/41 42/42/42 43/43/43
f 43/43/43 42/42/42 44/44/44
f 34/34/34 44/44/44 42/42/42
f 44/44/44 45/45/45 43/43/43
f 34/34/34 36/36/36 46/46/46
f 34/34/34 46/46/46 47/47/47
f 46/46/46 48/48/48 47/47/47
f 46/46/46 49/49/49 48/48/48
f 46/46/46 50/50/50 49/49/49
f 36/36/36 40/40/40 50/50/50
f 50/50/50 46/46/46 36/36/36
f 45/45/45 44/44/44 51/51/51
f 52/52/52 51/51/51 44/44/44
f 52/52/52 53/53/53 51/51/51
f 53/53/53 52/52/52 47/47/47
f 48/48/48 53/53/53 47/47/47
f 34/34/34 47/47/47 52/52/52
f 52/52/52 44/44/44 34/34/34
f 56/56/56 55/55/55 54/54/54
f 55/55/55 57/57/57 54/54/54
f 57/57/57 55/55/55 58/58/58
f 58/58/58 59/59/59 57/57/57
f 58/58/58 55/55/55 60/60/60
f 61/61/61 60/60/60 55/55/55
f 61/61/61 55/55/55 56/56/56
f 61/61/61 56/56/56 62/62/62
f 61/61/61 62/62/62 63/63/63
f 60/60/60 61/61/61 63/63/63
f 64/64/64 63/63/63 62/62/62
f 65/65/65 63/63/63 64/64/64
f 63/63/63 65/65/65 60/60/60
f 65/65/65 64/64/64 66/66/66
f 59/59/59 58/58/58 67/67/67
f 68/68/68 67/67/67 58/58/58
f 68/68/68 58/58/58 60/60/60
f 67/67/67 68/68/68 69/69/69
f 68/68/68 70/70/70 69/69/69
f 71/71/71 65/65/65 66/66/66
f 72/72/72 65/65/65 71/71/71
f 60/60/60 65/65/65 72/72/72
f 72/72/72 71/71/71 73/73/73
f 73/73/73 74/74/74 72/72/72
f 70/70/70 74/74/74 73/73/73
f 60/60/60 74/74/74 68/68/68
f 72/72/72 74/74/74 60/60/60
f 68/68/68 74/74/74 70/70/70
f 77/77/77 76/76/76 75/75/75
f 78/78/78 77/77/77 75/75/75
f 79/79/79 77/77/77 78/78/78
f 80/80/80 79/79/79 78/78/78
f 81/81/81 79/79/79 80/80/80
f 82/82/82 81/81/81 80/80/80
f 75/75/75 76/76/76 83/83/83
f 76/76/76 84/84/84 83/83/83
f 77/77/77 85/85/85 76/76/76
f 85/85/85 86/86/86 76/76/76
f 76/76/76 86/86/86 84/84/84
f 87/87/87 85/85/85 77/77/77
f 79/79/79 87/87/87 77/77/77
f 88/88/88 87/87/87 79/79/79
f 81/81/81 88/88/88 79/79/79
f 86/86/86 89/89/89 84/84/84
f 75/75/75 90/90/90 78/78/78
f 78/78/78 90/90/90 80/80/80
f 80/80/80 90/90/90 82/82/82
f 83/83/83 90/90/90 75/75/75
f 93/93/93 92/92/92 91/91/91
f 94/94/94 93/93/93 91/91/91
f 95/95/95 93/93/93 94/94/94
f 96/96/96 95/95/95 94/94/94
f 97/97/97 95/95/95 96/96/96
f 98/98/98 97/97/97 96/96/96
f 99/99/99 97/97/97 98/98/98
f 100/100/100 99/99/99 98/98/98
f 93/93/93 101/101/101 92/92/92
f 101/101/101 102/102/102 92/92/92
f 103/103/103 101/101/101 93/93/93
f 95/95/95 103/103/103 93/93/93
f 104/104/104 103/103/103 95/95/95
f 97/97/97 104/104/104 95/95/95
f 105/105/105 104/104/104 97/97/97
f 99/99/99 105/105/105 97/97/97
f 91/91/91 106/106/106 94/94/94
f 94/94/94 106/106/106 96/96/96
f 96/96/96 106/106/106 98/98/98
f 98/98/98 106/106/106 100/100/100
f 109/109/109 108/108/108 107/107/107
f 110/110/110 108/108/108 109/109/109
f 110/110/110 111/111/111 108/108/108
f 110/110/110 112/112/112 111/111/111
f 113/113/113 112/112/112 110/110/110
f 113/113/113 114/114/114 112/112/112
f 113/113/113 115/115/115 114/114/114
f 116/116/116 115/115/115 113/113/113
f 116/116/116 117/117/117 115/115/115
f 116/116/116 118/118/118 117/117/117
f 109/109/109 118/118/118 116/116/116
f 109/109/109 107/107/107 118/118/118
f 109/109/109 119/119/119 110/110/110
f 110/110/110 119/119/119 113/113/113
f 113/113/113 119/119/119 116/116/116
f 116/116/116 119/119/119 109/109/109
f 122/122/122 121/121/121 120/120/120
f 122/122/122 123/123/123 121/121/121
f 124/124/124 123/123/123 122/122/122
f 125/125/125 123/123/123 124/124/124
f 125/125/125 126/126/126 123/123/123
f 127/127/127 126/126/126 125/125/125
f 128/128/128 126/126/126 127/127/127
f 128/128/128 129/129/129 126/126/126
f 130/130/130 129/129/129 128/128/128
f 131/131/131 129/129/129 130/130/130
f 131/131/131 121/121/121 129/129/129
f 120/120/120 121/121/121 131/131/131
f 121/121/121 123/123/123 132/132/132
f 123/123/123 126/126/126 132/132/132
f 126/126/126 129/129/129 132/132/132
f 129/129/129 121/121/121 132/132/132
f 135/135/135 134/134/134 133/133/133
f 137/137/137 136/136/136 135/135/135
f 139/139/139 138/138/138 137/137/137
f 140/140/140 134/134/134 139/139/139
f 143/143/143 142/142/142 141/141/141
f 144/144/144 143/143/143 141/141/141
f 144/144/144 146/146/146 145/145/145
f 146/146/146 147/147/147 145/145/145
f 149/149/149 148/148/148 146/146/146
f 150/150/150 149/149/149 146/146/146
f 153/153/153 152/152/152 151/151/151
f 154/154/154 153/153/153 151/151/151
f 151/151/151 156/156/156 155/155/155
f 157/157/157 151/151/151 155/155/155
f 157/157/157 159/159/159 158/158/158
f 160/160/160 157/157/157 158/158/158
f 163/163/163 162/162/162 161/161/161
f 166/166/166 165/165/165 164/164/164
f 169/169/169 168/168/168 167/167/167
f 172/172/172 171/171/171 170/170/170
f 175/175/175 174/174/174 173/173/173
f 177/177/177 176/176/176 175/175/175
f 179/179/179 178/178/178 177/177/177
f 180/180/180 174/174/174 179/179/179
f 183/183/183 182/182/182 181/181/181
f 185/185/185 184/184/184 183/183/183
f 187/187/187 186/186/186 185/185/185
f 188/188/188 182/182/182 187/187/187
f 191/191/191 190/190/190 189/189/189
f 193/193/193 192/192/192 191/191/191
f 195/195/195 194/194/194 193/193/193
f 196/196/196 190/190/190 195/195/195
f 199/199/199 198/198/198 197/197/197
f 201/201/201 200/200/200 199/199/199
f 203/203/203 202/202/202 201/201/201
f 204/204/204 198/198/198 203/203/203
f 207/207/207 206/206/206 205/205/205
f 209/209/209 208/208/208 207/207/207
f 211/211/211 210/210/210 209/209/209
f 212/212/212 206/206/206 211/211/211
f 215/215/215 214/214/214 213/213/213
f 216/216/216 215/215/215 213/213/213
f 213/213/213 214/214/214 217/217/217
f 214/214/214 218/218/218 217/217/217
f 214/214/214 215/215/215 219/219/219
f 220/220/220 214/214/214 219/219/219
f 221/221/221 218/218/218 214/214/214
f 220/220/220 221/221/221 214/214/214
f 224/224/224 223/223/223 222/222/222
f 225/225/225 224/224/224 222/222/222
f 225/225/225 226/226/226 224/224/224
f 226/226/226 227/227/227 224/224/224
f 223/223/223 224/224/224 228/228/228
f 229/229/229 223/223/223 228/228/228
f 224/224/224 227/227/227 230/230/230
f 228/228/228 224/224/224 230/230/230
f 233/233/233 232/232/232 231/231/231
f 234/234/234 233/233/233 231/231/231
f 235/235/235 232/232/232 233/233/233
f 236/236/236 235/235/235 233/233/233
f 235/235/235 237/237/237 232/232/232
f 237/237/237 238/238/238 232/232/232
f 232/232/232 238/238/238 231/231/231
f 238/238/238 239/239/239 231/231/231
f 242/242/242 241/241/241 240/240/240
f 243/243/243 242/242/242 240/240/240
f 243/243/243 240/240/240 244/244/244
f 245/245/245 243/243/243 244/244/244
f 241/241/241 246/246/246 240/240/240
f 246/246/246 247/247/247 240/240/240
f 240/240/240 247/247/247 244/244/244
f 247/247/247 248/248/248 244/244/244
f 251/251/251 250/250/250 249/249/249
f 252/252/252 249/249/249 250/250/250
f 255/255/255 254/254/254 253/253/253
f 256/256/256 255/255/255 253/253/253
f 257/257/257 255/255/255 256/256/256
f 258/258/258 257/257/257 256/256/256
f 259/259/259 257/257/257 258/258/258
f 260/260/260 259/259/259 258/258/258
f 261/261/261 259/259/259 260/260/260
f 262/262/262 261/261/261 260/260/260
f 263/263/263 259/259/259 261/261/261
f 264/264/264 259/259/259 263/263/263
f 264/264/264 257/257/257 259/259/259
f 264/264/264 255/255/255 257/257/257
f 265/265/265 255/255/255 264/264/264
f 265/265/265 254/254/254 255/255/255
f 268/268/268 267/267/267 266/266/266
f 269/269/269 268/268/268 266/266/266
f 266/266/266 267/267/267 270/270/270
f 267/267/267 271/271/271 270/270/270
f 270/270/270 271/271/271 272/272/272
f 271/271/271 273/273/273 272/272/272
f 272/272/272 273/273/273 274/274/274
f 273/273/273 275/275/275 274/274/274
f 276/276/276 267/267/267 268/268/268
f 277/277/277 267/267/267 276/276/276
f 277/277/277 271/271/271 267/267/267
f 277/277/277 273/273/273 271/271/271
f 278/278/278 273/273/273 277/277/277
f 278/278/278 275/275/275 273/273/273
f 281/281/281 280/280/280 279/279/279
f 282/282/282 281/281/281 279/279/279
f 282/282/282 283/283/283 281/281/281
f 283/283/283 284/284/284 281/281/281
f 283/283/283 285/285/285 284/284/284
f 285/285/285 286/286/286 284/284/284
f 279/279/279 280/280/280 287/287/287
f 288/288/288 279/279/279 287/287/287
f 280/280/280 281/281/281 289/289/289
f 281/281/281 290/290/290 289/289/289
f 281/281/281 284/284/284 290/290/290
f 284/284/284 291/291/291 290/290/290
f 284/284/284 286/286/286 291/291/291
f 286/286/286 292/292/292 291/291/291
f 280/280/280 289/289/289 293/293/293
f 287/287/287 280/280/280 293/293/293
f 289/289/289 290/290/290 294/294/294
f 295/295/295 289/289/289 294/294/294
f 293/293/293 289/289/289 295/295/295
f 290/290/290 291/291/291 296/296/296
f 294/294/294 290/290/290 296/296/296
f 291/291/291 292/292/292 297/297/297
f 296/296/296 291/291/291 297/297/297
f 298/298/298 293/293/293 295/295/295
f 301/301/301 300/300/300 299/299/299
f 303/303/303 302/302/302 301/301/301
f 305/305/305 304/304/304 303/303/303
f 306/306/306 300/300/300 305/305/305
f 309/309/309 308/308/308 307/307/307
f 311/311/311 310/310/310 309/309/309
f 313/313/313 312/312/312 311/311/311
f 314/314/314 308/308/308 313/313/313
f 317/317/317 316/316/316 315/315/315
f 318/318/318 317/317/317 315/315/315
f 315/315/315 316/316/316 319/319/319
f 316/316/316 320/320/320 319/319/319
f 323/323/323 322/322/322 321/321/321
f 324/324/324 323/323/323 321/321/321
f 321/321/321 322/322/322 325/325/325
f 322/322/322 326/326/326 325/325/325
f 329/329/329 328/328/328 327/327/327
f 330/330/330 328/328/328 329/329/329
f 330/330/330 331/331/331 328/328/328
f 330/330/330 332/332/332 331/331/331
f 333/333/333 332/332/332 330/330/330
f 333/333/333 334/334/334 332/332/332
f 333/333/333 335/335/335 334/334/334
f 336/336/336 335/335/335 333/333/333
f 336/336/336 337/337/337 335/335/335
f 336/336/336 338/338/338 337/337/337
f 329/329/329 338/338/338 336/336/336
f 329/329/329 327/327/327 338/338/338
f 329/329/329 339/339/339 330/330/330
f 330/330/330 339/339/339 333/333/333
f 333/333/333 339/339/339 336/336/336
f 336/336/336 339/339/339 329/329/329
f 342/342/342 341/341/341 340/340/340
f 342/342/342 343/343/343 341/341/341
f 344/344/344 343/343/343 342/342/342
f 345/345/345 343/343/343 344/344/344
f 345/345/345 346/346/346 343/343/343
f 347/347/347 346/346/346 345/345/345
f 348/348/348 346/346/346 347/347/347
f 348/348/348 349/349/349 346/346/346
f 350/350/350 349/349/349 348/348/348
f 351/351/351 349/349/349 350/350/350
f 351/351/351 341/341/341 349/349/349
f 340/340/340 341/341/341 351/351/351
f 341/341/341 343/343/343 352/352/352
f 343/343/343 346/346/346 352/352/352
f 346/346/346 349/349/349 352/352/352
f 349/349/349 341/341/341 352/352/352
f 355/355/355 354/354/354 353/353/353
f 357/357/357 356/356/356 355/355/355
f 359/359/359 358/358/358 357/357/357
f 360/360/360 354/354/354 359/359/359
f 363/363/363 362/362/362 361/361/361
f 364/364/364 363/363/363 361/361/361
f 364/364/364 366/366/366 365/365/365
f 366/366/366 367/367/367 365/365/365
f 369/369/369 368/368/368 366/366/366
f 370/370/370 369/369/369 366/366/366
f 373/373/373 372/372/372 371/371/371
f 374/374/374 373/373/373 371/371/371
f 371/371/371 376/376/376 375/375/375
f 377/377/377 371/371/371 375/375/375
f 377/377/377 379/379/379 378/378/378
f 380/380/380 377/377/377 378/378/378
f 383/383/383 382/382/382 381/381/381
f 386/386/386 385/385/385 384/384/384
f 389/389/389 388/388/388 387/387/387
f 392/392/392 391/391/391 390/390/390
f 395/395/395 394/394/394 393/393/393
f 397/397/397 396/396/396 395/395/395
f 399/399/399 398/398/398 397/397/397
f 400/400/400 394/394/394 399/399/399
f 403/403/403 402/402/402 401/401/401
f 405/405/405 404/404/404 403/403/403
f 407/407/407 406/406/406 405/405/405
f 408/408/408 402/402/402 407/407/407
f 411/411/411 410/410/410 409/409/409
f 413/413/413 412/412/412 411/411/411
f 415/415/415 414/414/414 413/413/413
f 416/416/416 410/410/410 415/415/415
f 419/419/419 418/418/418 417/417/417
f 421/421/421 420/420/420 419/419/419
f 423/423/423 422/422/422 421/421/421
f 424/424/424 418/418/418 423/423/423
f 427/427/427 426/426/426 425/425/425
f 429/429/429 428/428/428 427/427/427
f 431/431/431 430/430/430 429/429/429
f 432/432/432 426/426/426 431/431/431
f 435/435/435 434/434/434 433/433/433
f 436/436/436 435/435/435 433/433/433
f 433/433/433 434/434/434 437/437/437
f 434/434/434 438/438/438 437/437/437
f 434/434/434 435/435/435 439/439/439
f 440/440/440 434/434/434 439/439/439
f 441/441/441 438/438/438 434/434/434
f 440/440/440 441/441/441 434/434/434
f 444/444/444 443/443/443 442/442/442
f 445/445/445 444/444/444 442/442/442
f 445/445/445 446/446/446 444/444/444
f 446/446/446 447/447/447 444/444/444
f 443/443/443 444/444/444 448/448/448
f 449/449/449 443/443/443 448/448/448
f 444/444/444 447/447/447 450/450/450
f 448/448/448 444/444/444 450/450/450
f 453/453/453 452/452/452 451/451/451
f 454/454/454 453/453/453 451/451/451
f 455/455/455 452/452/452 453/453/453
f 456/456/456 455/455/455 453/453/453
f 455/455/455 457/457/457 452/452/452
f 457/457/457 458/458/458 452/452/452
f 452/452/452 458/458/458 451/451/451
f 458/458/458 459/459/459 451/451/451
f 462/462/462 461/461/461 460/460/460
f 463/463/463 462/462/462 460/460/460
f 463/463/463 460/460/460 464/464/464
f 465/465/465 463/463/463 464/464/464
f 461/461/461 466/466/466 460/460/460
f 466/466/466 467/467/467 460/460/460
f 460/460/460 467/467/467 464/464/464
f 467/467/467 468/468/468 464/464/464
f 471/471/471 470/470/470 469/469/469
f 472/472/472 469/469/469 470/470/470
f 475/475/475 474/474/474 473/473/473
f 476/476/476 475/475/475 473/473/473
f 477/477/477 475/475/475 476/476/476
f 478/478/478 477/477/477 476/476/476
f 479/479/479 477/477/477 478/478/478
f 480/480/480 479/479/479 478/478/478
f 481/481/481 479/479/479 480/480/480
f 482/482/482 481/481/481 480/480/480
f 483/483/483 479/479/479 481/481/481
f 484/484/484 479/479/479 483/483/483
f 484/484/484 477/477/477 479/479/479
f 484/484/484 475/475/475 477/477/477
f 485/485/485 475/475/475 484/484/484
f 485/485/485 474/474/474 475/475/475
f 488/488/488 487/487/487 486/486/486
f 489/489/489 488/488/488 486/486/486
f 486/486/486 487/487/487 490/490/490
f 487/487/487 491/491/491 490/490/490
f 490/490/490 491/491/491 492/492/492
f 491/491/491 493/493/493 492/492/492
f 492/492/492 493/493/493 494/494/494
f 493/493/493 495/495/495 494/494/494
f 496/496/496 487/487/487 488/488/488
f 497/497/497 487/487/487 496/496/496
f 497/497/497 491/491/491 487/487/487
f 497/497/497 493/493/493 491/491/491
f 498/498/498 493/493/493 497/497/497
f 498/498/498 495/495/495 493/493/493
f 501/501/501 500/500/500 499/499/499
f 502/502/502 501/501/501 499/499/499
f 502/502/502 503/503/503 501/501/501
f 503/503/503 504/504/504 501/501/501
f 503/503/503 505/505/505 504/504/504
f 505/505/505 506/506/506 504/504/504
f 499/499/499 500/500/500 507/507/507
f 508/508/508 499/499/499 507/507/507
f 500/500/500 501/501/501 509/509/509
f 501/501/501 510/510/510 509/509/509
f 501/501/501 504/504/504 510/510/510
f 504/504/504 511/511/511 510/510/510
f 504/504/504 506/506/506 511/511/511
f 506/506/506 512/512/512 511/511/511
f 500/500/500 509/509/509 513/513/513
f 507/507/507 500/500/500 513/513/513
f 509/509/509 510/510/510 514/514/514
f 515/515/515 509/509/509 514/514/514
f 513/513/513 509/509/509 515/515/515
f 510/510/510 511/511/511 516/516/516
f 514/514/514 510/510/510 516/516/516
f 511/511/511 512/512/512 517/517/517
f 516/516/516 511/511/511 517/517/517
f 518/518/518 513/513/513 515/515/515
f 521/521/521 520/520/520 519/519/519
f 523/523/523 522/522/522 521/521/521
f 525/525/525 524/524/524 523/523/523
f 526/526/526 520/520/520 525/525/525
f 529/529/529 528/528/528 527/527/527
f 531/531/531 530/530/530 529/529/529
f 533/533/533 532/532/532 531/531/531
f 534/534/534 528/528/528 533/533/533
f 537/537/537 536/536/536 535/535/535
f 538/538/538 537/537/537 535/535/535
f 535/535/535 536/536/536 539/539/539
f 536/536/536 540/540/540 539/539/539
f 543/543/543 542/542/542 541/541/541
f 544/544/544 543/543/543 541/541/541
f 541/541/541 542/542/542 545/545/545
f 542/542/542 546/546/546 545/545/545
