g md_snow_wall_a
v 2.03553271 -5.57685947 -0.355305463
v -2.03553271 -5.57685947 -0.355305463
v -2.035532 -5.72598124 -0.366508782
v 2.03553271 -5.72598124 -0.366508782
v -1.72024822 -5.56839895 0.102214649
v -2.03553271 -5.57685947 -0.355305463
v 2.03553271 -5.57685947 -0.355305463
v 1.72025418 -5.56839895 0.102214649
v -1.60821581 -5.39253712 0.296259731
v -1.72024822 -5.56839895 0.102214649
v 1.72025418 -5.56839895 0.102214649
v 1.60822165 -5.39253712 0.296259731
v -1.52299178 -5.33416796 0.443872064
v -1.60821581 -5.39253712 0.296259731
v 1.60822165 -5.39253712 0.296259731
v 1.52299833 -5.33416796 0.44387266
v -1.52299178 -5.33416796 0.443872064
v 1.52299833 -5.33416796 0.44387266
v 1.52299845 5.66309738 0.44387266
v -1.52299166 5.66309738 0.443872064
vt 0.483258992 0.621248424
vt 0.498463035 0.621248424
vt 0.498465508 0.619321465
vt 0.4832533 0.619321465
vt 0.497034609 0.624116898
vt 0.498463035 0.621248424
vt 0.483258992 0.621248424
vt 0.484836906 0.624116898
vt 0.496555328 0.627364039
vt 0.497034609 0.624116898
vt 0.484836906 0.624116898
vt 0.485372514 0.627364039
vt 0.495727897 0.628587782
vt 0.496555328 0.627364039
vt 0.485372514 0.627364039
vt 0.485879123 0.628587782
vt 0.495727897 0.628587782
vt 0.485879123 0.628587782
vt 0.485879064 0.75917995
vt 0.495727897 0.75917995
vn -0 0.0749174953 -0.997189701
vn -0 0.0749174953 -0.997189701
vn -0 0.0749174878 -0.997189701
vn -0 0.0749174953 -0.997189701
vn -0 0.999829054 -0.0184893236
vn -0 0.999829054 -0.0184893236
vn -0 0.999829054 -0.0184893254
vn -0 0.999829054 -0.0184893236
vn -0 0.740970969 -0.671536982
vn -0 0.740970969 -0.671537042
vn -0 0.740970969 -0.671537042
vn -0 0.740970969 -0.671536982
vn -0 0.92993778 -0.367716938
vn -0 0.92993778 -0.367716938
vn -0 0.92993778 -0.367716938
vn -0 0.92993778 -0.367716968
vn 1.86580735E-07 0 -1
vn 1.86580735E-07 0 -1
vn 1.86580735E-07 0 -1
vn 1.86580735E-07 0 -1
g md_snow_wall_a_0
f 3/3/3 2/2/2 1/1/1
f 4/4/4 3/3/3 1/1/1
f 7/7/7 6/6/6 5/5/5
f 8/8/8 7/7/7 5/5/5
f 11/11/11 10/10/10 9/9/9
f 12/12/12 11/11/11 9/9/9
f 15/15/15 14/14/14 13/13/13
f 16/16/16 15/15/15 13/13/13
f 19/19/19 18/18/18 17/17/17
f 20/20/20 19/19/19 17/17/17
