g wp_005_004_101_Mesh
v -0.213086709 0.193813592 0.145108566
v -0.2523745 0.193813592 0.184396356
v -0.239180058 0.173584297 0.184396356
v -0.213086709 0.173584297 0.158303007
v -0.213086709 0.173584297 0.210489705
v -0.213086709 0.193813592 0.223684147
v -0.213086709 0.173584297 0.158303007
v -0.186993346 0.173584297 0.184396356
v -0.173798919 0.193813592 0.184396356
v -0.213086709 0.193813592 0.145108566
v -0.213086709 0.193813592 0.223684147
v -0.213086709 0.173584297 0.210489705
v -0.213086709 0.173584297 0.158303007
v -0.213086709 0.173584297 0.210489705
v -0.186993346 0.173584297 0.184396356
v -0.239180058 0.173584297 0.184396356
v -0.213086709 0.214042872 0.158303007
v -0.186993346 0.214042872 0.184396356
v -0.213086709 0.214042872 0.210489705
v -0.239180058 0.214042872 0.184396356
v -0.213086709 0.214042872 0.210489705
v -0.213086709 0.193813592 0.223684147
v -0.2523745 0.193813592 0.184396356
v -0.239180058 0.214042872 0.184396356
v -0.213086709 0.193813592 0.145108566
v -0.213086709 0.214042872 0.158303007
v -0.186993346 0.214042872 0.184396356
v -0.173798919 0.193813592 0.184396356
v -0.213086709 0.193813592 0.223684147
v -0.213086709 0.214042872 0.210489705
v -0.213086709 0.214042872 0.158303007
v -0.213086709 0.193813592 0.145108566
v -0.282809019 0.173861042 0.144142076
v -0.282809019 0.185882047 0.144142076
v -0.293595314 0.185882047 0.184396401
v -0.293595314 0.173861042 0.184396401
v -0.25334093 0.173861042 0.114674024
v -0.25334093 0.185882047 0.114674024
v -0.213086769 0.173861042 0.103887938
v -0.25334093 0.201745123 0.114674024
v -0.213086769 0.213766113 0.103887938
v -0.25334093 0.213766113 0.114674024
v -0.282809019 0.213766113 0.144142076
v -0.282809019 0.201745123 0.144142076
v -0.293595314 0.213766113 0.184396401
v -0.293595314 0.201745123 0.184396401
v -0.253340989 0.173861042 0.254118711
v -0.282809019 0.173861042 0.224650681
v -0.282809019 0.185882047 0.224650681
v -0.293595314 0.173861042 0.184396401
v -0.293595314 0.185882047 0.184396401
v -0.253340989 0.213766113 0.254118711
v -0.282809019 0.201745123 0.224650681
v -0.282809019 0.213766113 0.224650681
v -0.293595314 0.201745123 0.184396401
v -0.293595314 0.213766113 0.184396401
v -0.112814881 0.193813562 0.184396401
v -0.135850042 0.168619484 0.184396401
v -0.14619793 0.168619484 0.223014727
v -0.126248717 0.193813562 0.234532401
v -0.174468383 0.168619484 0.251285136
v -0.162950784 0.193813562 0.271234363
v -0.213086709 0.168619484 0.261633068
v -0.213086709 0.193813562 0.284668237
v -0.251705021 0.168619484 0.251285136
v -0.263222605 0.193813562 0.271234363
v -0.213086709 0.219007671 0.261633068
v -0.25170505 0.219007671 0.251285136
v -0.174468383 0.219007671 0.251285136
v -0.14619793 0.219007671 0.223014727
v -0.135850042 0.219007671 0.184396401
v -0.266023755 0.211628467 0.238111064
v -0.271954745 0.193813562 0.232654303
v -0.266023695 0.175998688 0.238111064
v -0.126248717 0.193813562 0.134260505
v -0.14619793 0.168619484 0.14577806
v -0.135850042 0.168619484 0.184396401
v -0.112814881 0.193813562 0.184396401
v -0.162950784 0.193813562 0.0975584313
v -0.174468383 0.168619484 0.117507674
v -0.21308668 0.193813562 0.0841246098
v -0.213086739 0.168619484 0.10715986
v -0.213086739 0.219007671 0.10715986
v -0.174468383 0.219007671 0.117507674
v -0.14619793 0.219007671 0.14577806
v -0.135850042 0.219007671 0.184396401
v -0.232074186 0.211628467 0.111409605
v -0.239939019 0.193813562 0.113169909
v -0.232074156 0.175998688 0.111409649
v -0.14619793 0.168619484 0.223014727
v -0.135850042 0.168619484 0.184396401
v -0.135850042 0.219007671 0.184396401
v -0.14619793 0.219007671 0.223014727
v -0.174468383 0.168619484 0.251285136
v -0.174468383 0.219007671 0.251285136
v -0.213086709 0.168619484 0.261633068
v -0.213086709 0.219007671 0.261633068
v -0.251705021 0.168619484 0.251285136
v -0.25170505 0.219007671 0.251285136
v -0.266023695 0.175998688 0.238111064
v -0.266023755 0.211628467 0.238111064
v -0.271954745 0.193813562 0.232654303
v -0.14619793 0.168619484 0.14577806
v -0.14619793 0.219007671 0.14577806
v -0.135850042 0.219007671 0.184396401
v -0.135850042 0.168619484 0.184396401
v -0.174468383 0.168619484 0.117507674
v -0.174468383 0.219007671 0.117507674
v -0.213086739 0.168619484 0.10715986
v -0.213086739 0.219007671 0.10715986
v -0.232074156 0.175998688 0.111409649
v -0.232074186 0.211628467 0.111409605
v -0.239939019 0.193813562 0.113169909
v -0.213086709 0.193813592 -0.204945177
v -0.2523745 0.193813592 -0.165657386
v -0.239180058 0.173584297 -0.165657386
v -0.213086709 0.173584297 -0.19175072
v -0.213086709 0.173584297 -0.139564037
v -0.213086709 0.193813592 -0.126369581
v -0.213086709 0.173584297 -0.19175072
v -0.186993346 0.173584297 -0.165657386
v -0.173798919 0.193813592 -0.165657386
v -0.213086709 0.193813592 -0.204945177
v -0.213086709 0.193813592 -0.126369581
v -0.213086709 0.173584297 -0.139564037
v -0.213086709 0.173584297 -0.19175072
v -0.213086709 0.173584297 -0.139564037
v -0.186993346 0.173584297 -0.165657386
v -0.239180058 0.173584297 -0.165657386
v -0.213086709 0.214042872 -0.19175072
v -0.186993346 0.214042872 -0.165657386
v -0.213086709 0.214042872 -0.139564037
v -0.239180058 0.214042872 -0.165657386
v -0.213086709 0.214042872 -0.139564037
v -0.213086709 0.193813592 -0.126369581
v -0.2523745 0.193813592 -0.165657386
v -0.239180058 0.214042872 -0.165657386
v -0.213086709 0.193813592 -0.204945177
v -0.213086709 0.214042872 -0.19175072
v -0.186993346 0.214042872 -0.165657386
v -0.173798919 0.193813592 -0.165657386
v -0.213086709 0.193813592 -0.126369581
v -0.213086709 0.214042872 -0.139564037
v -0.213086709 0.214042872 -0.19175072
v -0.213086709 0.193813592 -0.204945177
v -0.282809019 0.213766113 -0.125403062
v -0.282809019 0.201745123 -0.125403062
v -0.293595314 0.201745123 -0.165657341
v -0.293595314 0.213766113 -0.165657341
v -0.253340989 0.213766113 -0.0959350169
v -0.282809019 0.185882047 -0.125403062
v -0.253340989 0.173861042 -0.0959350169
v -0.282809019 0.173861042 -0.125403062
v -0.293595314 0.185882047 -0.165657341
v -0.293595314 0.173861042 -0.165657341
v -0.282809019 0.173861042 -0.205911696
v -0.282809019 0.185882047 -0.205911696
v -0.293595314 0.185882047 -0.165657341
v -0.293595314 0.173861042 -0.165657341
v -0.25334093 0.173861042 -0.235379711
v -0.25334093 0.185882047 -0.235379711
v -0.213086769 0.173861042 -0.246165782
v -0.25334093 0.201745123 -0.235379711
v -0.213086769 0.213766113 -0.246165782
v -0.25334093 0.213766113 -0.235379711
v -0.282809019 0.213766113 -0.205911696
v -0.282809019 0.201745123 -0.205911696
v -0.293595314 0.213766113 -0.165657341
v -0.293595314 0.201745123 -0.165657341
v -0.112814881 0.193813562 -0.165657341
v -0.135850042 0.168619484 -0.165657341
v -0.14619793 0.168619484 -0.127039
v -0.126248717 0.193813562 -0.115521349
v -0.174468383 0.168619484 -0.0987686142
v -0.162950784 0.193813562 -0.0788193867
v -0.213086709 0.168619484 -0.0884206593
v -0.213086709 0.193813562 -0.0653855056
v -0.251705021 0.168619484 -0.0987686142
v -0.263222605 0.193813562 -0.0788193867
v -0.213086709 0.219007671 -0.0884206593
v -0.25170505 0.219007671 -0.0987686142
v -0.174468383 0.219007671 -0.0987686142
v -0.14619793 0.219007671 -0.127039
v -0.135850042 0.219007671 -0.165657341
v -0.266023755 0.211628467 -0.111942671
v -0.271954745 0.193813562 -0.117399439
v -0.266023695 0.175998688 -0.111942671
v -0.126248717 0.193813562 -0.215793222
v -0.14619793 0.168619484 -0.204275683
v -0.135850042 0.168619484 -0.165657341
v -0.112814881 0.193813562 -0.165657341
v -0.162950784 0.193813562 -0.252495289
v -0.174468383 0.168619484 -0.232546076
v -0.21308668 0.193813562 -0.265929163
v -0.213086739 0.168619484 -0.24289386
v -0.213086739 0.219007671 -0.24289386
v -0.174468383 0.219007671 -0.232546076
v -0.14619793 0.219007671 -0.204275683
v -0.135850042 0.219007671 -0.165657341
v -0.232074186 0.211628467 -0.238644138
v -0.239939019 0.193813562 -0.236883849
v -0.232074156 0.175998688 -0.238644078
v -0.14619793 0.168619484 -0.127039
v -0.135850042 0.168619484 -0.165657341
v -0.135850042 0.219007671 -0.165657341
v -0.14619793 0.219007671 -0.127039
v -0.174468383 0.168619484 -0.0987686142
v -0.174468383 0.219007671 -0.0987686142
v -0.213086709 0.168619484 -0.0884206593
v -0.213086709 0.219007671 -0.0884206593
v -0.251705021 0.168619484 -0.0987686142
v -0.25170505 0.219007671 -0.0987686142
v -0.266023695 0.175998688 -0.111942671
v -0.266023755 0.211628467 -0.111942671
v -0.271954745 0.193813562 -0.117399439
v -0.14619793 0.168619484 -0.204275683
v -0.14619793 0.219007671 -0.204275683
v -0.135850042 0.219007671 -0.165657341
v -0.135850042 0.168619484 -0.165657341
v -0.174468383 0.168619484 -0.232546076
v -0.174468383 0.219007671 -0.232546076
v -0.213086739 0.168619484 -0.24289386
v -0.213086739 0.219007671 -0.24289386
v -0.232074156 0.175998688 -0.238644078
v -0.232074186 0.211628467 -0.238644138
v -0.239939019 0.193813562 -0.236883849
v -0.0257282294 0.193813592 -0.0343386494
v -0.15613389 0.193813592 -0.101015821
v -0.142381489 0.217721298 -0.1248357
v -0.0157051701 0.211238086 -0.0516990833
v -0.128629088 0.193813592 -0.148655549
v -0.00568210986 0.193813592 -0.0690595061
v -0.0157051701 0.176389113 -0.0516990796
v -0.142381489 0.169905871 -0.124835692
v -0.15613389 0.193813592 -0.101015821
v -0.0257282294 0.193813592 -0.0343386494
v -0.00568210986 0.193813592 -0.0690595061
v -0.128629088 0.193813592 -0.148655549
v -0.0377506092 0.193813592 0.0374097303
v -0.135907307 0.193813592 0.146114603
v -0.155356139 0.217721298 0.126665771
v -0.0519253425 0.211238086 0.0232349802
v -0.174804956 0.193813592 0.107216947
v -0.0661000758 0.193813592 0.00906024966
v -0.0519253388 0.176389113 0.0232349839
v -0.155356124 0.169905871 0.126665786
v -0.135907307 0.193813592 0.146114603
v -0.0377506092 0.193813592 0.0374097303
v -0.0661000758 0.193813592 0.00906024966
v -0.174804956 0.193813592 0.107216947
v 0.213086709 0.173584297 0.158303007
v 0.239180058 0.173584297 0.184396356
v 0.2523745 0.193813592 0.184396356
v 0.213086709 0.193813592 0.145108566
v 0.213086709 0.193813592 0.223684147
v 0.213086709 0.173584297 0.210489705
v 0.213086709 0.193813592 0.145108566
v 0.173798919 0.193813592 0.184396356
v 0.186993346 0.173584297 0.184396356
v 0.213086709 0.173584297 0.158303007
v 0.213086709 0.173584297 0.210489705
v 0.213086709 0.193813592 0.223684147
v 0.213086709 0.173584297 0.210489705
v 0.213086709 0.173584297 0.158303007
v 0.186993346 0.173584297 0.184396356
v 0.239180058 0.173584297 0.184396356
v 0.213086709 0.214042872 0.210489705
v 0.186993346 0.214042872 0.184396356
v 0.213086709 0.214042872 0.158303007
v 0.239180058 0.214042872 0.184396356
v 0.213086709 0.193813592 0.223684147
v 0.213086709 0.214042872 0.210489705
v 0.239180058 0.214042872 0.184396356
v 0.2523745 0.193813592 0.184396356
v 0.213086709 0.214042872 0.158303007
v 0.213086709 0.193813592 0.145108566
v 0.173798919 0.193813592 0.184396356
v 0.186993346 0.214042872 0.184396356
v 0.213086709 0.214042872 0.210489705
v 0.213086709 0.193813592 0.223684147
v 0.213086709 0.193813592 0.145108566
v 0.213086709 0.214042872 0.158303007
v 0.293595314 0.173861042 0.184396401
v 0.293595314 0.185882047 0.184396401
v 0.282809019 0.185882047 0.144142076
v 0.282809019 0.173861042 0.144142076
v 0.25334093 0.185882047 0.114674024
v 0.25334093 0.173861042 0.114674024
v 0.213086769 0.173861042 0.103887938
v 0.213086769 0.213766113 0.103887938
v 0.25334093 0.201745123 0.114674024
v 0.25334093 0.213766113 0.114674024
v 0.282809019 0.201745123 0.144142076
v 0.282809019 0.213766113 0.144142076
v 0.293595314 0.201745123 0.184396401
v 0.293595314 0.213766113 0.184396401
v 0.253340989 0.213766113 0.254118711
v 0.282809019 0.213766113 0.224650681
v 0.282809019 0.201745123 0.224650681
v 0.293595314 0.213766113 0.184396401
v 0.293595314 0.201745123 0.184396401
v 0.253340989 0.173861042 0.254118711
v 0.282809019 0.185882047 0.224650681
v 0.282809019 0.173861042 0.224650681
v 0.293595314 0.185882047 0.184396401
v 0.293595314 0.173861042 0.184396401
v 0.126248717 0.193813562 0.234532401
v 0.14619793 0.168619484 0.223014727
v 0.135850042 0.168619484 0.184396401
v 0.112814881 0.193813562 0.184396401
v 0.162950784 0.193813562 0.271234363
v 0.174468383 0.168619484 0.251285136
v 0.213086709 0.193813562 0.284668237
v 0.213086709 0.168619484 0.261633068
v 0.263222605 0.193813562 0.271234363
v 0.251705021 0.168619484 0.251285136
v 0.25170505 0.219007671 0.251285136
v 0.213086709 0.219007671 0.261633068
v 0.174468383 0.219007671 0.251285136
v 0.14619793 0.219007671 0.223014727
v 0.135850042 0.219007671 0.184396401
v 0.266023755 0.211628467 0.238111064
v 0.271954745 0.193813562 0.232654303
v 0.266023695 0.175998688 0.238111064
v 0.135850042 0.168619484 0.184396401
v 0.14619793 0.168619484 0.14577806
v 0.126248717 0.193813562 0.134260505
v 0.112814881 0.193813562 0.184396401
v 0.174468383 0.168619484 0.117507674
v 0.162950784 0.193813562 0.0975584313
v 0.213086739 0.168619484 0.10715986
v 0.21308668 0.193813562 0.0841246098
v 0.174468383 0.219007671 0.117507674
v 0.213086739 0.219007671 0.10715986
v 0.14619793 0.219007671 0.14577806
v 0.135850042 0.219007671 0.184396401
v 0.232074186 0.211628467 0.111409605
v 0.239939019 0.193813562 0.113169909
v 0.232074156 0.175998688 0.111409649
v 0.14619793 0.168619484 0.223014727
v 0.14619793 0.219007671 0.223014727
v 0.135850042 0.219007671 0.184396401
v 0.135850042 0.168619484 0.184396401
v 0.174468383 0.168619484 0.251285136
v 0.174468383 0.219007671 0.251285136
v 0.213086709 0.168619484 0.261633068
v 0.213086709 0.219007671 0.261633068
v 0.251705021 0.168619484 0.251285136
v 0.25170505 0.219007671 0.251285136
v 0.266023695 0.175998688 0.238111064
v 0.266023755 0.211628467 0.238111064
v 0.271954745 0.193813562 0.232654303
v 0.14619793 0.168619484 0.14577806
v 0.135850042 0.168619484 0.184396401
v 0.135850042 0.219007671 0.184396401
v 0.14619793 0.219007671 0.14577806
v 0.174468383 0.168619484 0.117507674
v 0.174468383 0.219007671 0.117507674
v 0.213086739 0.168619484 0.10715986
v 0.213086739 0.219007671 0.10715986
v 0.232074156 0.175998688 0.111409649
v 0.232074186 0.211628467 0.111409605
v 0.239939019 0.193813562 0.113169909
v 0.213086709 0.173584297 -0.19175072
v 0.239180058 0.173584297 -0.165657386
v 0.2523745 0.193813592 -0.165657386
v 0.213086709 0.193813592 -0.204945177
v 0.213086709 0.193813592 -0.126369581
v 0.213086709 0.173584297 -0.139564037
v 0.213086709 0.193813592 -0.204945177
v 0.173798919 0.193813592 -0.165657386
v 0.186993346 0.173584297 -0.165657386
v 0.213086709 0.173584297 -0.19175072
v 0.213086709 0.173584297 -0.139564037
v 0.213086709 0.193813592 -0.126369581
v 0.213086709 0.173584297 -0.139564037
v 0.213086709 0.173584297 -0.19175072
v 0.186993346 0.173584297 -0.165657386
v 0.239180058 0.173584297 -0.165657386
v 0.213086709 0.214042872 -0.139564037
v 0.186993346 0.214042872 -0.165657386
v 0.213086709 0.214042872 -0.19175072
v 0.239180058 0.214042872 -0.165657386
v 0.213086709 0.193813592 -0.126369581
v 0.213086709 0.214042872 -0.139564037
v 0.239180058 0.214042872 -0.165657386
v 0.2523745 0.193813592 -0.165657386
v 0.213086709 0.214042872 -0.19175072
v 0.213086709 0.193813592 -0.204945177
v 0.173798919 0.193813592 -0.165657386
v 0.186993346 0.214042872 -0.165657386
v 0.213086709 0.214042872 -0.139564037
v 0.213086709 0.193813592 -0.126369581
v 0.213086709 0.193813592 -0.204945177
v 0.213086709 0.214042872 -0.19175072
v 0.253340989 0.213766113 -0.0959350169
v 0.282809019 0.213766113 -0.125403062
v 0.282809019 0.201745123 -0.125403062
v 0.293595314 0.213766113 -0.165657341
v 0.293595314 0.201745123 -0.165657341
v 0.253340989 0.173861042 -0.0959350169
v 0.282809019 0.185882047 -0.125403062
v 0.282809019 0.173861042 -0.125403062
v 0.293595314 0.185882047 -0.165657341
v 0.293595314 0.173861042 -0.165657341
v 0.293595314 0.173861042 -0.165657341
v 0.293595314 0.185882047 -0.165657341
v 0.282809019 0.185882047 -0.205911696
v 0.282809019 0.173861042 -0.205911696
v 0.25334093 0.185882047 -0.235379711
v 0.25334093 0.173861042 -0.235379711
v 0.213086769 0.173861042 -0.246165782
v 0.213086769 0.213766113 -0.246165782
v 0.25334093 0.201745123 -0.235379711
v 0.25334093 0.213766113 -0.235379711
v 0.282809019 0.201745123 -0.205911696
v 0.282809019 0.213766113 -0.205911696
v 0.293595314 0.201745123 -0.165657341
v 0.293595314 0.213766113 -0.165657341
v 0.126248717 0.193813562 -0.115521349
v 0.14619793 0.168619484 -0.127039
v 0.135850042 0.168619484 -0.165657341
v 0.112814881 0.193813562 -0.165657341
v 0.162950784 0.193813562 -0.0788193867
v 0.174468383 0.168619484 -0.0987686142
v 0.213086709 0.193813562 -0.0653855056
v 0.213086709 0.168619484 -0.0884206593
v 0.263222605 0.193813562 -0.0788193867
v 0.251705021 0.168619484 -0.0987686142
v 0.25170505 0.219007671 -0.0987686142
v 0.213086709 0.219007671 -0.0884206593
v 0.174468383 0.219007671 -0.0987686142
v 0.14619793 0.219007671 -0.127039
v 0.135850042 0.219007671 -0.165657341
v 0.266023755 0.211628467 -0.111942671
v 0.271954745 0.193813562 -0.117399439
v 0.266023695 0.175998688 -0.111942671
v 0.135850042 0.168619484 -0.165657341
v 0.14619793 0.168619484 -0.204275683
v 0.126248717 0.193813562 -0.215793222
v 0.112814881 0.193813562 -0.165657341
v 0.174468383 0.168619484 -0.232546076
v 0.162950784 0.193813562 -0.252495289
v 0.213086739 0.168619484 -0.24289386
v 0.21308668 0.193813562 -0.265929163
v 0.174468383 0.219007671 -0.232546076
v 0.213086739 0.219007671 -0.24289386
v 0.14619793 0.219007671 -0.204275683
v 0.135850042 0.219007671 -0.165657341
v 0.232074186 0.211628467 -0.238644138
v 0.239939019 0.193813562 -0.236883849
v 0.232074156 0.175998688 -0.238644078
v 0.14619793 0.168619484 -0.127039
v 0.14619793 0.219007671 -0.127039
v 0.135850042 0.219007671 -0.165657341
v 0.135850042 0.168619484 -0.165657341
v 0.174468383 0.168619484 -0.0987686142
v 0.174468383 0.219007671 -0.0987686142
v 0.213086709 0.168619484 -0.0884206593
v 0.213086709 0.219007671 -0.0884206593
v 0.251705021 0.168619484 -0.0987686142
v 0.25170505 0.219007671 -0.0987686142
v 0.266023695 0.175998688 -0.111942671
v 0.266023755 0.211628467 -0.111942671
v 0.271954745 0.193813562 -0.117399439
v 0.14619793 0.168619484 -0.204275683
v 0.135850042 0.168619484 -0.165657341
v 0.135850042 0.219007671 -0.165657341
v 0.14619793 0.219007671 -0.204275683
v 0.174468383 0.168619484 -0.232546076
v 0.174468383 0.219007671 -0.232546076
v 0.213086739 0.168619484 -0.24289386
v 0.213086739 0.219007671 -0.24289386
v 0.232074156 0.175998688 -0.238644078
v 0.232074186 0.211628467 -0.238644138
v 0.239939019 0.193813562 -0.236883849
v 0.0157051701 0.211238086 -0.0516990833
v 0.142381489 0.217721298 -0.1248357
v 0.15613389 0.193813592 -0.101015821
v 0.0257282294 0.193813592 -0.0343386494
v 0.00568210986 0.193813592 -0.0690595061
v 0.128629088 0.193813592 -0.148655549
v 0.0257282294 0.193813592 -0.0343386494
v 0.15613389 0.193813592 -0.101015821
v 0.142381489 0.169905871 -0.124835692
v 0.0157051701 0.176389113 -0.0516990796
v 0.128629088 0.193813592 -0.148655549
v 0.00568210986 0.193813592 -0.0690595061
v 0.0519253425 0.211238086 0.0232349802
v 0.155356139 0.217721298 0.126665771
v 0.135907307 0.193813592 0.146114603
v 0.0377506092 0.193813592 0.0374097303
v 0.0661000758 0.193813592 0.00906024966
v 0.174804956 0.193813592 0.107216947
v 0.0377506092 0.193813592 0.0374097303
v 0.135907307 0.193813592 0.146114603
v 0.155356124 0.169905871 0.126665786
v 0.0519253388 0.176389113 0.0232349839
v 0.174804956 0.193813592 0.107216947
v 0.0661000758 0.193813592 0.00906024966
v 7.88860888E-33 0.110607453 0.106739178
v 7.88860888E-33 0.166003227 0.150339738
v 0.0775121748 0.170732915 0.121098153
v 0.063383624 0.130889148 0.0943006128
v 0.063383624 0.130889148 -0.0739926696
v 0.0784338489 0.177391484 -0.0895038173
v 7.88860888E-33 0.124204725 -0.0739926472
v 7.88860888E-33 0.177391484 -0.0944919363
v -0.0775121748 0.170732915 0.121098153
v 7.88860888E-33 0.166003227 0.150339738
v 7.88860888E-33 0.110607453 0.106739178
v -0.063383624 0.130889148 0.0943006128
v -0.063383624 0.130889148 -0.0739926696
v -0.0784338489 0.177391484 -0.0895038098
v 7.88860888E-33 0.177391484 -0.0944919363
v 7.88860888E-33 0.124204725 -0.0739926472
v 7.88860888E-33 0.124204725 -0.0739926472
v 7.88860888E-33 0.130889028 -0.0739926472
v 0.063383624 0.130889148 -0.0739926696
v -0.063383624 0.130889148 -0.0739926696
v 7.88860888E-33 0.130889028 -0.0739926472
v 7.88860888E-33 0.124204725 -0.0739926472
v 7.88860888E-33 0.130889028 -0.0739926472
v 7.88860888E-33 0.128070071 0.106739178
v 0.063383624 0.130889148 0.0943006128
v 0.063383624 0.130889148 -0.0739926696
v 7.88860888E-33 0.128070071 0.106739178
v 7.88860888E-33 0.110607453 0.106739178
v 0.063383624 0.130889148 0.0943006128
v -0.063383624 0.130889148 0.0943006128
v 7.88860888E-33 0.110607453 0.106739178
v 7.88860888E-33 0.128070071 0.106739178
v -0.063383624 0.130889148 -0.0739926696
v -0.063383624 0.130889148 0.0943006128
v 7.88860888E-33 0.128070071 0.106739178
v 7.88860888E-33 0.130889028 -0.0739926472
v -0.020077249 0.0223057009 -0.000286569993
v -0.020077249 0.0318921208 -0.000286569993
v 0.020077249 0.0318921208 -0.000286569993
v 0.020077249 0.0223057009 -0.000286569993
v -0.020077249 0.0624601878 -0.0284210388
v -0.020077249 0.0624601878 -0.0753795058
v 0.020077249 0.0624601878 -0.0753795058
v 0.020077249 0.0624601878 -0.0284210388
v 0.020077249 0.0223057009 -0.0753795058
v 0.020077249 0.0624601878 -0.0753795058
v -0.020077249 0.0624601878 -0.0753795058
v -0.020077249 0.0223057009 -0.0753795058
v -0.020077249 0.0223057009 -0.0753795058
v -0.020077249 0.0223057009 -0.000286569993
v 0.020077249 0.0223057009 -0.000286569993
v 0.020077249 0.0223057009 -0.0753795058
v 0.020077249 0.0624601878 -0.0753795058
v 0.020077249 0.0223057009 -0.0753795058
v 0.020077249 0.0223057009 -0.000286569993
v 0.020077249 0.0318921208 -0.000286569993
v 0.020077249 0.0624601878 -0.0284210388
v -0.020077249 0.0318921208 -0.000286569993
v -0.020077249 0.0223057009 -0.000286569993
v -0.020077249 0.0223057009 -0.0753795058
v -0.020077249 0.0624601878 -0.0753795058
v -0.020077249 0.0624601878 -0.0284210388
v -0.020077249 0.0318921208 -0.000286569993
v -0.020077249 0.0624601878 -0.0284210388
v 0.020077249 0.0624601878 -0.0284210388
v 0.020077249 0.0318921208 -0.000286569993
v 0.0113854203 0.0624601878 -0.0520649478
v 0.0113854203 0.15714252 -0.0520649478
v 7.88860888E-33 0.15714252 -0.0634503588
v 9.56563083E-33 0.0624601878 -0.0634503588
v 9.56563083E-33 0.0624601878 -0.0406795405
v 7.88860888E-33 0.15714252 -0.0406795405
v -0.0113854092 0.15714252 -0.0520649478
v -0.0113854092 0.0624601878 -0.0520649478
v 9.56563083E-33 0.0624601878 -0.0634503588
v 7.88860888E-33 0.15714252 -0.0634503588
v 7.88860888E-33 0.15714252 -0.0406795405
v 9.56563083E-33 0.0624601878 -0.0406795405
v 0.0164027791 0.0338613987 0.0258703697
v 0.0164027791 0.0338613987 0.0158544388
v -3.32759911E-32 0.0174586289 0.0158544388
v -3.32759911E-32 0.0174586289 0.0258703697
v -3.65108663E-32 0.0502641648 0.0158544388
v -3.65108663E-32 0.0502641648 0.0258703697
v -3.32759911E-32 0.0174586289 0.0158544388
v -0.0164027791 0.0338613987 0.0158544388
v -0.0164027791 0.0338613987 0.0258703697
v -3.32759911E-32 0.0174586289 0.0258703697
v -3.65108663E-32 0.0502641648 0.0258703697
v -3.65108663E-32 0.0502641648 0.0158544388
v -0.0164027791 0.0338613987 0.0158544388
v -3.32759911E-32 0.0174586289 0.0158544388
v -3.65108663E-32 0.0502641648 0.0158544388
v 0.0164027791 0.0338613987 0.0158544388
v -0.0294272657 0.0168715529 0.0258703697
v -3.48275075E-09 -0.000118292002 0.0258703697
v -9.15789666E-12 0.0678410754 0.0258703697
v -0.0294272639 0.0508512333 0.0258703697
v 0.0294272676 0.016871538 0.0258703697
v 0.0294272844 0.0508512147 0.0258703697
v 0.0294272844 0.0508512147 0.0258703697
v 0.0294272844 0.0508512147 0.106594048
v -3.0592865E-11 0.0678410754 0.106594048
v -9.15789666E-12 0.0678410754 0.0258703697
v 0.0294272676 0.016871538 0.106594048
v 0.0294272676 0.016871538 0.0258703697
v -3.48275075E-09 -0.000118292002 0.0258703697
v -3.46131612E-09 -0.000118292002 0.106594048
v 0.018098902 0.0443108082 0.128858089
v 0.018098902 0.0234119967 0.128858089
v 1.62584779E-12 0.0547602177 0.128858089
v 2.32530617E-09 0.0129625853 0.128858089
v -9.15789666E-12 0.0678410754 0.0258703697
v -3.0592865E-11 0.0678410754 0.106594048
v -0.0294272639 0.0508512333 0.106594048
v -0.0294272639 0.0508512333 0.0258703697
v -0.0294272657 0.0168715529 0.0258703697
v -0.0294272657 0.0168715529 0.106594048
v -3.46131612E-09 -0.000118292002 0.106594048
v -3.48275075E-09 -0.000118292002 0.0258703697
v -0.018098915 0.044310797 0.128858089
v 1.62584779E-12 0.0547602177 0.128858089
v -0.0180989038 0.0234119855 0.128858089
v 2.32530617E-09 0.0129625853 0.128858089
v 0.018098902 0.0443108082 0.128858089
v -3.48934272E-32 0.033861395 0.132302359
v 1.62584779E-12 0.0547602177 0.128858089
v -0.018098915 0.044310797 0.128858089
v -0.0180989038 0.0234119855 0.128858089
v 2.32530617E-09 0.0129625853 0.128858089
v 0.018098902 0.0234119967 0.128858089
v 0.0113854203 0.0338613875 -0.0520649552
v 0.0113854203 0.0338613875 0.01621872
v 3.60161154E-32 0.0452467985 0.01621872
v 3.60161154E-32 0.0452467985 -0.0520649552
v 3.37707361E-32 0.022475969 -0.0520649552
v 3.37707361E-32 0.022475969 0.01621872
v -0.0113854092 0.0338613875 0.01621872
v -0.0113854092 0.0338613875 -0.0520649552
v 3.60161154E-32 0.0452467985 -0.0520649552
v 3.60161154E-32 0.0452467985 0.01621872
v 3.37707361E-32 0.022475969 0.01621872
v 3.37707361E-32 0.022475969 -0.0520649552
v 7.88860888E-33 0.216623187 0.149148121
v 0.0431177802 0.286506593 0.0146453492
v 0.0985571519 0.251310408 0.0403008498
v -0.0431177802 0.286506593 0.0146453492
v 0.0988421515 0.275893182 -0.146661043
v 7.88860888E-33 0.291269839 -0.154112667
v 0.087864399 0.164606512 0.129229948
v 7.88860888E-33 0.145047769 0.19204551
v -0.0988421515 0.275893182 -0.146661043
v -0.0985571519 0.251310408 0.0403008498
v -0.087864399 0.164606512 0.129229948
v 7.88860888E-33 0.145047769 0.19204551
v 7.88860888E-33 0.164606512 0.129229948
v 7.88860888E-33 0.145047769 0.19204551
v 0.087864399 0.164606512 0.129229948
v 7.88860888E-33 0.164606839 0.0483752005
v 0.0982763469 0.164606512 0.0483747199
v 0.0988421515 0.275893182 -0.146661043
v 0.0988421813 0.217941046 -0.109162137
v 0.0988033116 0.217941046 0.0313501246
v 0.0985571519 0.251310408 0.0403008498
v 0.087864399 0.164606512 0.129229948
v 0.0982763469 0.164606512 0.0483747199
v 0.0988033116 0.217941046 0.0313501246
v 0.0985779241 0.168572113 -0.09658885
v 0.0985716954 0.164606497 0.0483747385
v 0.0988421813 0.217941046 -0.109162137
v 0.0985716954 0.164606497 0.0483747385
v 0.0985779241 0.168572113 -0.09658885
v 7.88860888E-33 0.168572113 -0.09658885
v 7.88860888E-33 0.164606839 0.0483752005
v 7.88860888E-33 0.217941031 -0.109162137
v 0.0988421813 0.217941046 -0.109162137
v -0.0985779241 0.168572113 -0.09658885
v -0.0988033116 0.217941046 0.0313501246
v -0.0985716954 0.164606497 0.0483747385
v -0.0988421813 0.217941046 -0.109162137
v 7.88860888E-33 0.168572113 -0.09658885
v -0.0985779241 0.168572113 -0.09658885
v -0.0985716954 0.164606497 0.0483747385
v 7.88860888E-33 0.164606839 0.0483752005
v 7.88860888E-33 0.217941031 -0.109162137
v -0.0988421813 0.217941046 -0.109162137
v 0.0988421515 0.275893182 -0.146661043
v 7.88860888E-33 0.291269839 -0.154112667
v 7.88860888E-33 0.217941031 -0.109162137
v 0.0988421813 0.217941046 -0.109162137
v 7.88860888E-33 0.145047769 0.19204551
v 7.88860888E-33 0.164606512 0.129229948
v -0.087864399 0.164606512 0.129229948
v 7.88860888E-33 0.164606839 0.0483752005
v -0.0982763469 0.164606512 0.0483747199
v -0.0988033116 0.217941046 0.0313501246
v -0.0988421813 0.217941046 -0.109162137
v -0.0988421515 0.275893182 -0.146661043
v -0.0985571519 0.251310408 0.0403008498
v -0.0985571519 0.251310408 0.0403008498
v -0.087864399 0.164606512 0.129229948
v -0.0982763469 0.164606512 0.0483747199
v -0.0988033116 0.217941046 0.0313501246
v 7.88860888E-33 0.291269839 -0.154112667
v -0.0988421515 0.275893182 -0.146661043
v -0.0988421813 0.217941046 -0.109162137
v 7.88860888E-33 0.217941031 -0.109162137
v -0.0837314278 0.067493692 0.106821388
v -0.0633828491 0.130889177 0.0942570344
v -0.070194073 0.0675011575 -0.0739139616
v -0.0633843914 0.130889148 -0.0740371794
v 0.0837317184 0.0674937144 0.106821388
v 0.0701943412 0.067501232 -0.0739139616
v 0.0633828416 0.130889148 0.0942570567
v 0.0633844063 0.130889148 -0.0740371794
v 0.0701943412 0.067501232 -0.0739139616
v 0.0837317184 0.0674937144 0.106821388
v 0.0633844063 0.130889148 -0.0739481598
v 0.0633844063 0.130889148 0.0943441689
v -0.0633844063 0.130889118 0.0943441838
v -0.0837315992 0.067493625 0.106821388
v -0.0633844137 0.130889148 -0.0739481598
v -0.0701940879 0.0675011054 -0.0739139616
vt 0.534420013 0.737955987
vt 0.414994001 0.737955987
vt 0.414994001 0.707210004
vt 0.494311988 0.707210004
vt 0.335676014 0.707210004
vt 0.295567989 0.737955987
vt 0.494311988 0.707210004
vt 0.414994001 0.707210004
vt 0.414994001 0.737955987
vt 0.534420013 0.737955987
vt 0.295567989 0.737955987
vt 0.335676014 0.707210004
vt 0.530457973 0.88943398
vt 0.530457973 0.806504011
vt 0.447528005 0.847968996
vt 0.613385975 0.847968996
vt 0.530457973 0.88943398
vt 0.447528005 0.847968996
vt 0.530457973 0.806504011
vt 0.613385975 0.847968996
vt 0.335676014 0.768701971
vt 0.295567989 0.737955987
vt 0.414994001 0.737955987
vt 0.414994001 0.768701971
vt 0.534420013 0.737955987
vt 0.494311988 0.768701971
vt 0.414994001 0.768701971
vt 0.414994001 0.737955987
vt 0.295567989 0.737955987
vt 0.335676014 0.768701971
vt 0.494311988 0.768701971
vt 0.534420013 0.737955987
vt 0.856144011 0.815343022
vt 0.857842028 0.793527007
vt 0.971152008 0.793527007
vt 0.972850025 0.815343022
vt 0.739440024 0.815343022
vt 0.744561076 0.793527007
vt 0.62273401 0.815343022
vt 0.744534016 0.78095299
vt 0.62273401 0.759136021
vt 0.739440024 0.759136021
vt 0.856144011 0.759136975
vt 0.857842028 0.78095299
vt 0.972850025 0.759136975
vt 0.971152008 0.78095299
vt 0.622735977 0.815343022
vt 0.739440024 0.815343022
vt 0.744560838 0.793527007
vt 0.856145978 0.815343022
vt 0.857843995 0.793527007
vt 0.622735977 0.759136021
vt 0.744534016 0.78095299
vt 0.739440024 0.759136021
vt 0.857843995 0.78095299
vt 0.856145978 0.759136975
vt 0.0795020014 0.692170024
vt 0.0109540001 0.692170024
vt 0.0109540001 0.634531021
vt 0.0795020014 0.634531021
vt 0.0109540001 0.576892018
vt 0.0795020014 0.576892018
vt 0.0109540001 0.519253016
vt 0.0795020014 0.519253016
vt 0.0109540001 0.461614996
vt 0.0795020014 0.461614996
vt 0.148049995 0.519253016
vt 0.148049995 0.461614996
vt 0.148049995 0.576892018
vt 0.148049995 0.634531021
vt 0.148049995 0.692170024
vt 0.127974004 0.433598012
vt 0.0795020014 0.421927989
vt 0.0310319997 0.433598012
vt 0.0795020014 0.576892018
vt 0.0109540001 0.576892018
vt 0.0109540001 0.634531021
vt 0.0795020014 0.634531021
vt 0.0795020014 0.519254029
vt 0.0109540001 0.519254029
vt 0.0795020014 0.461614996
vt 0.0109540001 0.461614996
vt 0.148049995 0.461614996
vt 0.148049995 0.519254029
vt 0.148049995 0.576892018
vt 0.148049995 0.634531021
vt 0.127974004 0.433598012
vt 0.0795020014 0.421927989
vt 0.0310319997 0.433598012
vt 0.231900007 0.652984977
vt 0.160237998 0.652984977
vt 0.160237998 0.695598006
vt 0.231900007 0.695598006
vt 0.303561985 0.652984977
vt 0.303561985 0.695598006
vt 0.375223994 0.652984977
vt 0.375223994 0.695598006
vt 0.446886003 0.652984977
vt 0.446886003 0.695598006
vt 0.481718004 0.659224987
vt 0.481718004 0.689356983
vt 0.496228009 0.674291015
vt 0.303561985 0.652984977
vt 0.303561985 0.695598006
vt 0.231900007 0.695598006
vt 0.231900007 0.652984977
vt 0.375223994 0.652984977
vt 0.375223994 0.695598006
vt 0.446886003 0.652984977
vt 0.446886003 0.695598006
vt 0.481718004 0.659224987
vt 0.481718004 0.689356983
vt 0.496228009 0.674291015
vt 0.534420013 0.737955987
vt 0.414994001 0.737955987
vt 0.414994001 0.707210004
vt 0.494311988 0.707210004
vt 0.335676014 0.707210004
vt 0.295567989 0.737955987
vt 0.494311988 0.707210004
vt 0.414994001 0.707210004
vt 0.414994001 0.737955987
vt 0.534420013 0.737955987
vt 0.295567989 0.737955987
vt 0.335676014 0.707210004
vt 0.530457973 0.88943398
vt 0.530457973 0.806504011
vt 0.447528005 0.847968996
vt 0.613385975 0.847968996
vt 0.530457973 0.88943398
vt 0.447528005 0.847968996
vt 0.530457973 0.806504011
vt 0.613385975 0.847968996
vt 0.335676014 0.768701971
vt 0.295567989 0.737955987
vt 0.414994001 0.737955987
vt 0.414994001 0.768701971
vt 0.534420013 0.737955987
vt 0.494311988 0.768701971
vt 0.414994001 0.768701971
vt 0.414994001 0.737955987
vt 0.295567989 0.737955987
vt 0.335676014 0.768701971
vt 0.494311988 0.768701971
vt 0.534420013 0.737955987
vt 0.739440024 0.759136021
vt 0.744534016 0.78095299
vt 0.857843995 0.78095299
vt 0.856145978 0.759136975
vt 0.622735977 0.759136021
vt 0.744560838 0.793527007
vt 0.622735977 0.815343022
vt 0.739440024 0.815343022
vt 0.857843995 0.793527007
vt 0.856145978 0.815343022
vt 0.856144011 0.815343022
vt 0.857842028 0.793527007
vt 0.971152008 0.793527007
vt 0.972850025 0.815343022
vt 0.739440024 0.815343022
vt 0.744561076 0.793527007
vt 0.62273401 0.815343022
vt 0.744534016 0.78095299
vt 0.62273401 0.759136021
vt 0.739440024 0.759136021
vt 0.856144011 0.759136975
vt 0.857842028 0.78095299
vt 0.972850025 0.759136975
vt 0.971152008 0.78095299
vt 0.0795020014 0.692170024
vt 0.0109540001 0.692170024
vt 0.0109540001 0.634531021
vt 0.0795020014 0.634531021
vt 0.0109540001 0.576892018
vt 0.0795020014 0.576892018
vt 0.0109540001 0.519253016
vt 0.0795020014 0.519253016
vt 0.0109540001 0.461614996
vt 0.0795020014 0.461614996
vt 0.148049995 0.519253016
vt 0.148049995 0.461614996
vt 0.148049995 0.576892018
vt 0.148049995 0.634531021
vt 0.148049995 0.692170024
vt 0.127974004 0.433598012
vt 0.0795020014 0.421927989
vt 0.0310319997 0.433598012
vt 0.0795020014 0.576892018
vt 0.0109540001 0.576892018
vt 0.0109540001 0.634531021
vt 0.0795020014 0.634531021
vt 0.0795020014 0.519254029
vt 0.0109540001 0.519254029
vt 0.0795020014 0.461614996
vt 0.0109540001 0.461614996
vt 0.148049995 0.461614996
vt 0.148049995 0.519254029
vt 0.148049995 0.576892018
vt 0.148049995 0.634531021
vt 0.127974004 0.433598012
vt 0.0795020014 0.421927989
vt 0.0310319997 0.433598012
vt 0.231900007 0.652984977
vt 0.160237998 0.652984977
vt 0.160237998 0.695598006
vt 0.231900007 0.695598006
vt 0.303561985 0.652984977
vt 0.303561985 0.695598006
vt 0.375223994 0.652984977
vt 0.375223994 0.695598006
vt 0.446886003 0.652984977
vt 0.446886003 0.695598006
vt 0.481718004 0.659224987
vt 0.481718004 0.689356983
vt 0.496228009 0.674291015
vt 0.303561985 0.652984977
vt 0.303561985 0.695598006
vt 0.231900007 0.695598006
vt 0.231900007 0.652984977
vt 0.375223994 0.652984977
vt 0.375223994 0.695598006
vt 0.446886003 0.652984977
vt 0.446886003 0.695598006
vt 0.481718004 0.659224987
vt 0.481718004 0.689356983
vt 0.496228009 0.674291015
vt 0.419221997 0.777791977
vt 0.419221997 0.990683973
vt 0.329032004 0.990683973
vt 0.329032004 0.777791977
vt 0.238841996 0.990683973
vt 0.238841996 0.777791977
vt 0.329032004 0.777791977
vt 0.329032004 0.990683973
vt 0.419221997 0.990683973
vt 0.419221997 0.777791977
vt 0.238841996 0.777791977
vt 0.238841996 0.990683973
vt 0.207542002 0.777791977
vt 0.207542002 0.990683973
vt 0.117351994 0.990683973
vt 0.117351994 0.777791977
vt 0.0271620005 0.990683973
vt 0.0271620005 0.777791977
vt 0.117351994 0.777791977
vt 0.117351994 0.990683973
vt 0.207542002 0.990683973
vt 0.207542002 0.777791977
vt 0.0271620005 0.777791977
vt 0.0271620005 0.990683973
vt 0.494311988 0.707210004
vt 0.414994001 0.707210004
vt 0.414994001 0.737955987
vt 0.534420013 0.737955987
vt 0.295567989 0.737955987
vt 0.335676014 0.707210004
vt 0.534420013 0.737955987
vt 0.414994001 0.737955987
vt 0.414994001 0.707210004
vt 0.494311988 0.707210004
vt 0.335676014 0.707210004
vt 0.295567989 0.737955987
vt 0.530457973 0.806504011
vt 0.530457973 0.88943398
vt 0.447528005 0.847968996
vt 0.613385975 0.847968996
vt 0.530457973 0.806504011
vt 0.447528005 0.847968996
vt 0.530457973 0.88943398
vt 0.613385975 0.847968996
vt 0.295567989 0.737955987
vt 0.335676014 0.768701971
vt 0.414994001 0.768701971
vt 0.414994001 0.737955987
vt 0.494311988 0.768701971
vt 0.534420013 0.737955987
vt 0.414994001 0.737955987
vt 0.414994001 0.768701971
vt 0.335676014 0.768701971
vt 0.295567989 0.737955987
vt 0.534420013 0.737955987
vt 0.494311988 0.768701971
vt 0.972850025 0.815343022
vt 0.971152008 0.793527007
vt 0.857842028 0.793527007
vt 0.856144011 0.815343022
vt 0.744534016 0.793527007
vt 0.739440024 0.815343022
vt 0.62273401 0.815343022
vt 0.62273401 0.759136021
vt 0.744534016 0.78095299
vt 0.739440024 0.759136021
vt 0.857842028 0.78095299
vt 0.856144011 0.759136975
vt 0.971152008 0.78095299
vt 0.972850025 0.759136975
vt 0.622735977 0.759136021
vt 0.739440024 0.759136021
vt 0.744534016 0.78095299
vt 0.856145978 0.759136975
vt 0.857843995 0.78095299
vt 0.622735977 0.815343022
vt 0.744534016 0.793527007
vt 0.739440024 0.815343022
vt 0.857843995 0.793527007
vt 0.856145978 0.815343022
vt 0.0795020014 0.634531021
vt 0.0109540001 0.634531021
vt 0.0109540001 0.692170024
vt 0.0795020014 0.692170024
vt 0.0795020014 0.576892018
vt 0.0109540001 0.576892018
vt 0.0795020014 0.519253016
vt 0.0109540001 0.519253016
vt 0.0795020014 0.461614996
vt 0.0109540001 0.461614996
vt 0.148049995 0.461614996
vt 0.148049995 0.519253016
vt 0.148049995 0.576892018
vt 0.148049995 0.634531021
vt 0.148049995 0.692170024
vt 0.127974004 0.433598012
vt 0.0795020014 0.421927989
vt 0.0310319997 0.433598012
vt 0.0109540001 0.634531021
vt 0.0109540001 0.576892018
vt 0.0795020014 0.576892018
vt 0.0795020014 0.634531021
vt 0.0109540001 0.519254029
vt 0.0795020014 0.519254029
vt 0.0109540001 0.461614996
vt 0.0795020014 0.461614996
vt 0.148049995 0.519254029
vt 0.148049995 0.461614996
vt 0.148049995 0.576892018
vt 0.148049995 0.634531021
vt 0.127974004 0.433598012
vt 0.0795020014 0.421927989
vt 0.0310319997 0.433598012
vt 0.231900007 0.652984977
vt 0.231900007 0.695598006
vt 0.160237998 0.695598006
vt 0.160237998 0.652984977
vt 0.303561985 0.652984977
vt 0.303561985 0.695598006
vt 0.375223994 0.652984977
vt 0.375223994 0.695598006
vt 0.446886003 0.652984977
vt 0.446886003 0.695598006
vt 0.481718004 0.659224987
vt 0.481718004 0.689356983
vt 0.496228009 0.674291015
vt 0.303561985 0.652984977
vt 0.231900007 0.652984977
vt 0.231900007 0.695598006
vt 0.303561985 0.695598006
vt 0.375223994 0.652984977
vt 0.375223994 0.695598006
vt 0.446886003 0.652984977
vt 0.446886003 0.695598006
vt 0.481718004 0.659224987
vt 0.481718004 0.689356983
vt 0.496228009 0.674291015
vt 0.494311988 0.707210004
vt 0.414994001 0.707210004
vt 0.414994001 0.737955987
vt 0.534420013 0.737955987
vt 0.295567989 0.737955987
vt 0.335676014 0.707210004
vt 0.534420013 0.737955987
vt 0.414994001 0.737955987
vt 0.414994001 0.707210004
vt 0.494311988 0.707210004
vt 0.335676014 0.707210004
vt 0.295567989 0.737955987
vt 0.530457973 0.806504011
vt 0.530457973 0.88943398
vt 0.447528005 0.847968996
vt 0.613385975 0.847968996
vt 0.530457973 0.806504011
vt 0.447528005 0.847968996
vt 0.530457973 0.88943398
vt 0.613385975 0.847968996
vt 0.295567989 0.737955987
vt 0.335676014 0.768701971
vt 0.414994001 0.768701971
vt 0.414994001 0.737955987
vt 0.494311988 0.768701971
vt 0.534420013 0.737955987
vt 0.414994001 0.737955987
vt 0.414994001 0.768701971
vt 0.335676014 0.768701971
vt 0.295567989 0.737955987
vt 0.534420013 0.737955987
vt 0.494311988 0.768701971
vt 0.622735977 0.759136021
vt 0.739440024 0.759136021
vt 0.744534016 0.78095299
vt 0.856145978 0.759136975
vt 0.857843995 0.78095299
vt 0.622735977 0.815343022
vt 0.744534016 0.793527007
vt 0.739440024 0.815343022
vt 0.857843995 0.793527007
vt 0.856145978 0.815343022
vt 0.972850025 0.815343022
vt 0.971152008 0.793527007
vt 0.857842028 0.793527007
vt 0.856144011 0.815343022
vt 0.744534016 0.793527007
vt 0.739440024 0.815343022
vt 0.62273401 0.815343022
vt 0.62273401 0.759136021
vt 0.744534016 0.78095299
vt 0.739440024 0.759136021
vt 0.857842028 0.78095299
vt 0.856144011 0.759136975
vt 0.971152008 0.78095299
vt 0.972850025 0.759136975
vt 0.0795020014 0.634531021
vt 0.0109540001 0.634531021
vt 0.0109540001 0.692170024
vt 0.0795020014 0.692170024
vt 0.0795020014 0.576892018
vt 0.0109540001 0.576892018
vt 0.0795020014 0.519253016
vt 0.0109540001 0.519253016
vt 0.0795020014 0.461614996
vt 0.0109540001 0.461614996
vt 0.148049995 0.461614996
vt 0.148049995 0.519253016
vt 0.148049995 0.576892018
vt 0.148049995 0.634531021
vt 0.148049995 0.692170024
vt 0.127974004 0.433598012
vt 0.0795020014 0.421927989
vt 0.0310319997 0.433598012
vt 0.0109540001 0.634531021
vt 0.0109540001 0.576892018
vt 0.0795020014 0.576892018
vt 0.0795020014 0.634531021
vt 0.0109540001 0.519254029
vt 0.0795020014 0.519254029
vt 0.0109540001 0.461614996
vt 0.0795020014 0.461614996
vt 0.148049995 0.519254029
vt 0.148049995 0.461614996
vt 0.148049995 0.576892018
vt 0.148049995 0.634531021
vt 0.127974004 0.433598012
vt 0.0795020014 0.421927989
vt 0.0310319997 0.433598012
vt 0.231900007 0.652984977
vt 0.231900007 0.695598006
vt 0.160237998 0.695598006
vt 0.160237998 0.652984977
vt 0.303561985 0.652984977
vt 0.303561985 0.695598006
vt 0.375223994 0.652984977
vt 0.375223994 0.695598006
vt 0.446886003 0.652984977
vt 0.446886003 0.695598006
vt 0.481718004 0.659224987
vt 0.481718004 0.689356983
vt 0.496228009 0.674291015
vt 0.303561985 0.652984977
vt 0.231900007 0.652984977
vt 0.231900007 0.695598006
vt 0.303561985 0.695598006
vt 0.375223994 0.652984977
vt 0.375223994 0.695598006
vt 0.446886003 0.652984977
vt 0.446886003 0.695598006
vt 0.481718004 0.659224987
vt 0.481718004 0.689356983
vt 0.496228009 0.674291015
vt 0.329032004 0.777791977
vt 0.329032004 0.990683973
vt 0.419221997 0.990683973
vt 0.419221997 0.777791977
vt 0.238841996 0.777791977
vt 0.238841996 0.990683973
vt 0.419221997 0.777791977
vt 0.419221997 0.990683973
vt 0.329032004 0.990683973
vt 0.329032004 0.777791977
vt 0.238841996 0.990683973
vt 0.238841996 0.777791977
vt 0.117351994 0.777791977
vt 0.117351994 0.990683973
vt 0.207542002 0.990683973
vt 0.207542002 0.777791977
vt 0.0271620005 0.777791977
vt 0.0271620005 0.990683973
vt 0.207542002 0.777791977
vt 0.207542002 0.990683973
vt 0.117351994 0.990683973
vt 0.117351994 0.777791977
vt 0.0271620005 0.990683973
vt 0.0271620005 0.777791977
vt 0.174106002 0.0613490008
vt 0.0685060024 0.0130589996
vt 0.0180319995 0.0629670024
vt 0.103834003 0.0897319987
vt 0.102738 0.256469011
vt 0.00920299999 0.275390983
vt 0.162481993 0.285344005
vt 0.0544399992 0.320562989
vt 0.0180319995 0.0629670024
vt 0.0685060024 0.0130589996
vt 0.174106002 0.0613490008
vt 0.103834003 0.0897319987
vt 0.102738 0.256469011
vt 0.00920299999 0.275390983
vt 0.0544399992 0.320562989
vt 0.162481993 0.285344005
vt 0.760977983 0.823091984
vt 0.756275356 0.833766997
vt 0.756276011 0.846682012
vt 0.756276011 0.846682012
vt 0.756275356 0.833766997
vt 0.760977983 0.823091984
vt 0.756275356 0.833766997
vt 0.621792376 0.834075689
vt 0.635236025 0.848999023
vt 0.753624022 0.848007023
vt 0.621792376 0.834075689
vt 0.609568 0.824661016
vt 0.630602002 0.847110987
vt 0.630602002 0.847110987
vt 0.609568 0.824661016
vt 0.621792376 0.834075689
vt 0.753624022 0.848007023
vt 0.635236025 0.848999023
vt 0.621792376 0.834075689
vt 0.756275356 0.833766997
vt 0.312622011 0.135832995
vt 0.332749993 0.135832995
vt 0.332749993 0.0936800018
vt 0.312622011 0.0936800018
vt 0.396930009 0.135832995
vt 0.495521992 0.135832995
vt 0.495521992 0.0936800018
vt 0.396930009 0.0936800018
vt 0.491684198 0.0552188642
vt 0.491684198 0.0900975466
vt 0.456805438 0.0900975466
vt 0.456805438 0.0552188642
vt 0.495521992 0.00937199965
vt 0.337859988 0.00937199965
vt 0.337859988 0.0515259989
vt 0.495521992 0.0515259989
vt 0.495521992 0.0936800018
vt 0.495521992 0.0515259989
vt 0.337859988 0.0515259989
vt 0.337859988 0.061590001
vt 0.396930009 0.0936800018
vt 0.337859988 0.061590001
vt 0.337859988 0.0515259989
vt 0.495521992 0.0515259989
vt 0.495521992 0.0936800018
vt 0.396930009 0.0936800018
vt 0.332749993 0.135832995
vt 0.396930009 0.135832995
vt 0.396930009 0.0936800018
vt 0.332749993 0.0936800018
vt 0.980827987 0.836277008
vt 0.768624008 0.836277008
vt 0.768624008 0.850091994
vt 0.980827987 0.850091994
vt 0.980827987 0.822462022
vt 0.768624008 0.822462022
vt 0.768624008 0.836277008
vt 0.980827987 0.836277008
vt 0.980827987 0.850091994
vt 0.768624008 0.850091994
vt 0.768624008 0.822462022
vt 0.980827987 0.822462022
vt 0.219761997 0.074781999
vt 0.244021997 0.074781999
vt 0.244021997 0.0550980009
vt 0.219761997 0.0550980009
vt 0.244021997 0.0944650024
vt 0.219761997 0.0944650024
vt 0.244021997 0.0550980009
vt 0.244021997 0.074781999
vt 0.219761997 0.074781999
vt 0.219761997 0.0550980009
vt 0.219761997 0.0944650024
vt 0.244021997 0.0944650024
vt 0.286107987 0.0944650024
vt 0.325475991 0.074781999
vt 0.246741995 0.074781999
vt 0.286107987 0.0550980009
vt 0.519204974 0.0117425006
vt 0.546854019 0.00532600004
vt 0.546854019 0.0458070002
vt 0.519204974 0.039391499
vt 0.574503005 0.0117425006
vt 0.574503005 0.039391499
vt 0.963988006 0.121532321
vt 0.685476005 0.121532321
vt 0.685476005 0.177180022
vt 0.963988006 0.177180022
vt 0.685476005 0.0658846647
vt 0.963988006 0.0658846647
vt 0.963988006 0.010237
vt 0.685476005 0.010237
vt 0.608662009 0.110821649
vt 0.608662009 0.0765963271
vt 0.608662009 0.145046979
vt 0.608662009 0.0423710011
vt 0.963988006 0.177180007
vt 0.685476005 0.177180007
vt 0.685476005 0.121532351
vt 0.963988006 0.121532351
vt 0.963988006 0.065884687
vt 0.685476005 0.065884687
vt 0.685476005 0.0102370251
vt 0.963988006 0.0102370251
vt 0.608662009 0.110821642
vt 0.608662009 0.145046994
vt 0.608662009 0.0765963197
vt 0.608662009 0.0423709936
vt 0.265301079 0.397509396
vt 0.165375993 0.369636506
vt 0.165375993 0.428151011
vt 0.0654509217 0.397509396
vt 0.0654509217 0.341762602
vt 0.165375993 0.311122
vt 0.265301079 0.341762602
vt 0.982074022 0.866518974
vt 0.827081978 0.866518021
vt 0.827081978 0.880394995
vt 0.982074022 0.880394995
vt 0.982074022 0.852642
vt 0.827081978 0.852642
vt 0.827081978 0.866518021
vt 0.982074022 0.866518974
vt 0.982074022 0.880394995
vt 0.827081978 0.880394995
vt 0.827081978 0.852642
vt 0.982074022 0.852642
vt 0.744063973 0.288325757
vt 0.83940798 0.454443991
vt 0.971692026 0.421561003
vt 0.648720026 0.454443008
vt 0.971692026 0.632197022
vt 0.744063973 0.641026974
vt 0.971692026 0.253365993
vt 0.744063973 0.186959997
vt 0.516435981 0.632197022
vt 0.516435981 0.421559989
vt 0.516435981 0.25336501
vt 0.744063973 0.186959997
vt 0.201849997 0.0989010036
vt 0.201849997 0.0760729983
vt 0.128224 0.102390997
vt 0.201849997 0.136267081
vt 0.119499773 0.136267349
vt 0.166538 0.641506016
vt 0.280236006 0.60472101
vt 0.280236006 0.466883987
vt 0.214768007 0.458103001
vt 0.384876013 0.370867014
vt 0.379343987 0.451306999
vt 0.280236006 0.466883987
vt 0.372974634 0.593225062
vt 0.379343987 0.451306999
vt 0.280236006 0.60472101
vt 0.0253720004 0.765841007
vt 0.156968802 0.765830457
vt 0.15696542 0.734024704
vt 0.0253660008 0.702233016
vt 0.246544003 0.702217996
vt 0.246549994 0.765851974
vt 0.372974634 0.593225062
vt 0.280236006 0.466883987
vt 0.379343987 0.451306999
vt 0.280236006 0.60472101
vt 0.15696542 0.734024704
vt 0.156968802 0.765830457
vt 0.0253720004 0.765841007
vt 0.0253660008 0.702233016
vt 0.246544003 0.702217996
vt 0.246549994 0.765851974
vt 0.119025998 0.245649993
vt 0.201849997 0.252092987
vt 0.201849997 0.180805683
vt 0.119057998 0.180805683
vt 0.201849997 0.0760729983
vt 0.201849997 0.0989010036
vt 0.128224 0.102390997
vt 0.201849997 0.136267081
vt 0.119499773 0.136267349
vt 0.491597354 0.466883987
vt 0.49752599 0.593939006
vt 0.383828014 0.630724013
vt 0.426129341 0.458103001
vt 0.214768007 0.458103001
vt 0.384876013 0.370867014
vt 0.379343987 0.451306999
vt 0.280236006 0.466883987
vt 0.201849997 0.252092987
vt 0.119025998 0.245649993
vt 0.119057998 0.180805683
vt 0.201849997 0.180805683
vt 0.641156018 0.852955997
vt 0.652845979 0.883904994
vt 0.809253991 0.852955997
vt 0.809376001 0.883904994
vt 0.641156018 0.852955997
vt 0.809253991 0.852955997
vt 0.652845979 0.883904994
vt 0.809376001 0.883904994
vt 0.972572029 0.897319973
vt 0.483756006 0.897310019
vt 0.972675979 0.987780988
vt 0.51751399 0.987802982
vt 0.51751399 0.987802982
vt 0.483756006 0.897310019
vt 0.972675979 0.987780988
vt 0.972572029 0.897319973
vn -0 -0.546309471 -0.837583423
vn -0.837583482 -0.546309412 0
vn -0.837583423 -0.546309412 0
vn -0 -0.546309471 -0.837583423
vn -0 -0.546309471 0.837583423
vn -0 -0.546309471 0.837583423
vn -0 -0.546309471 -0.837583423
vn 0.837583482 -0.546309352 0
vn 0.837583482 -0.546309412 0
vn -0 -0.546309471 -0.837583423
vn -0 -0.546309471 0.837583423
vn -0 -0.546309471 0.837583423
vn -0 -1 0
vn -0 -1 0
vn -0 -1 0
vn -0 -1 0
vn -0 1 0
vn -0 1 0
vn -0 1 0
vn -0 1 0
vn -0 0.546309531 0.837583363
vn -0 0.546309531 0.837583363
vn -0.837583363 0.546309531 0
vn -0.837583363 0.546309531 0
vn -0 0.546309412 -0.837583482
vn -0 0.546309412 -0.837583482
vn 0.837583542 0.546309292 0
vn 0.837583542 0.546309292 0
vn -0 0.546309531 0.837583363
vn -0 0.546309531 0.837583363
vn -0 0.546309412 -0.837583482
vn -0 0.546309412 -0.837583482
vn -0.866024673 0 -0.500001311
vn -0.866024673 0 -0.500001311
vn -1 0 0
vn -1 0 0
vn -0.57506001 0 -0.818111241
vn -0.376317531 0 -0.926490724
vn -0.25881955 0 -0.965925634
vn -0.37631762 0 -0.926490724
vn -0.25881961 0 -0.965925634
vn -0.575060725 0 -0.818110764
vn -0.866024494 0 -0.500001609
vn -0.866024494 0 -0.500001609
vn -1 0 0
vn -1 0 0
vn -0.707106888 0 0.70710665
vn -0.90707171 0 0.420976132
vn -0.789145768 0 0.614206016
vn -1 0 0
vn -1 0 0
vn -0.707106888 0 0.707106709
vn -0.789145768 0 0.614206016
vn -0.907071829 0 0.420975953
vn -1 0 0
vn -1 0 0
vn 1 0 0
vn 0.73801899 -0.674779952 0
vn 0.639142454 -0.674780548 0.369009584
vn 0.866025209 0 0.500000358
vn 0.369009674 -0.674780309 0.639142632
vn 0.499999672 0 0.866025567
vn -0 -0.67478025 0.738018692
vn -0 1.06986235E-07 1
vn -0.277767807 -0.671184897 0.687281489
vn -0.399493396 3.87169081E-07 0.916736066
vn -0 0.674779713 0.738019228
vn -0.277767628 0.671184361 0.687282085
vn 0.369009852 0.674780011 0.639142931
vn 0.639142752 0.67478025 0.369009793
vn 0.738019288 0.674779654 0
vn -0.855087638 0.423004925 0.299819857
vn -0.975329399 -2.11323299E-06 0.220754534
vn -0.855086565 -0.423007101 0.299819827
vn 0.866025448 0 -0.49999997
vn 0.639142632 -0.674780011 -0.36901021
vn 0.73801899 -0.674779952 0
vn 1 0 0
vn 0.499999166 0 -0.866025865
vn 0.369009227 -0.674780548 -0.639142632
vn 0.112398162 0 -0.993663251
vn 0.103088379 -0.671185493 -0.734086335
vn 0.1030889 0.671184957 -0.734086752
vn 0.369009197 0.674780071 -0.639143169
vn 0.63914299 0.674779713 -0.369010329
vn 0.738019288 0.674779654 0
vn -0.590617299 0.423005283 -0.687195539
vn -0.734282911 -1.22926906E-06 -0.678843617
vn -0.590617836 -0.42300576 -0.687194765
vn -0.866024792 0 -0.500001073
vn -1 0 0
vn -1 0 0
vn -0.866024792 0 -0.500001073
vn -0.500000715 0 -0.866025031
vn -0.500000715 0 -0.866025031
vn -0 0 -1
vn -0 0 -1
vn 0.367880076 2.59370125E-07 -0.929873288
vn 0.367880166 2.59370211E-07 -0.929873228
vn 0.677080393 4.87553791E-07 -0.735909045
vn 0.677080393 4.87553734E-07 -0.735909045
vn 0.677072108 1.32845207E-06 -0.735916674
vn -0.866024733 0 0.500001132
vn -0.866024733 0 0.500001132
vn -1 0 0
vn -1 0 0
vn -0.499999404 0 0.866025746
vn -0.499999404 0 0.866025746
vn -0.146347031 1.42007195E-07 0.989233315
vn -0.146347001 1.42007224E-07 0.989233315
vn 0.218415499 6.1261818E-07 0.975855887
vn 0.218415514 6.12618123E-07 0.975855827
vn 0.218414217 1.6359221E-06 0.975856185
vn -0 -0.546309769 -0.837583184
vn -0.837582886 -0.546310186 0
vn -0.837582886 -0.546310186 0
vn -0 -0.546309769 -0.837583244
vn -0 -0.546309531 0.837583303
vn -0 -0.54630965 0.837583303
vn -0 -0.546309769 -0.837583244
vn 0.837583482 -0.546309352 0
vn 0.837583482 -0.546309352 1.02870374E-07
vn -0 -0.546309769 -0.837583184
vn -0 -0.54630965 0.837583303
vn -0 -0.546309531 0.837583303
vn -0 -1 0
vn -0 -1 0
vn -0 -1 0
vn -0 -1 0
vn -0 1 0
vn -0 1 0
vn -0 1 0
vn -0 1 0
vn -0 0.54630965 0.837583244
vn -0 0.54630971 0.837583244
vn -0.837583005 0.546310186 0
vn -0.837583005 0.546310127 0
vn -0 0.546309829 -0.837583184
vn -0 0.546309769 -0.837583184
vn 0.837583423 0.546309471 0
vn 0.837583363 0.546309531 0
vn -0 0.54630971 0.837583244
vn -0 0.54630965 0.837583244
vn -0 0.546309769 -0.837583184
vn -0 0.546309829 -0.837583184
vn -0.907071829 0 0.420975864
vn -0.789145827 0 0.614205897
vn -1 0 0
vn -1 0 0
vn -0.707107067 0 0.707106471
vn -0.789145827 0 0.614205897
vn -0.707107067 0 0.707106471
vn -0.907071829 0 0.420975953
vn -1 0 0
vn -1 0 0
vn -0.866024613 0 -0.500001371
vn -0.866024613 0 -0.500001371
vn -1 0 0
vn -1 0 0
vn -0.575059533 0 -0.818111539
vn -0.376316965 0 -0.926490963
vn -0.258819014 0 -0.965925813
vn -0.376317054 0 -0.926490963
vn -0.258819073 0 -0.965925813
vn -0.575060308 0 -0.818111062
vn -0.866024494 0 -0.500001609
vn -0.866024494 0 -0.500001609
vn -1 0 0
vn -1 0 0
vn 1 0 0
vn 0.738019049 -0.674779832 0
vn 0.639142513 -0.674780428 0.369009823
vn 0.866025269 0 0.500000238
vn 0.369009703 -0.674780011 0.639142931
vn 0.499999523 0 0.866025686
vn -0 -0.674779952 0.73801899
vn -0 1.06986221E-07 1
vn -0.277767718 -0.671184778 0.687281668
vn -0.399493217 3.28605694E-07 0.916736126
vn -0 0.674779415 0.738019526
vn -0.277767599 0.671184063 0.687282383
vn 0.369009823 0.674779773 0.639143229
vn 0.639142692 0.67478013 0.369009912
vn 0.738019288 0.674779534 0
vn -0.855087757 0.423004448 0.299820185
vn -0.97532934 -1.06352354E-06 0.220754713
vn -0.855087042 -0.423006088 0.299820006
vn 0.866025448 0 -0.499999851
vn 0.639142811 -0.674779892 -0.36901024
vn 0.738019049 -0.674779832 0
vn 1 0 0
vn 0.499999344 0 -0.866025805
vn 0.369009316 -0.674780726 -0.639142513
vn 0.112398155 -1.33394494E-07 -0.993663251
vn 0.10308823 -0.67118597 -0.734086037
vn 0.103088625 0.671185374 -0.734086514
vn 0.369009286 0.67478013 -0.639143169
vn 0.63914299 0.674779594 -0.369010597
vn 0.738019288 0.674779534 0
vn -0.590617418 0.423006058 -0.687195003
vn -0.734282732 -1.80937309E-06 -0.678843737
vn -0.590617776 -0.423006833 -0.687194228
vn -0.866024792 0 -0.500001073
vn -1 0 0
vn -1 0 0
vn -0.866024792 0 -0.500001073
vn -0.500000775 0 -0.866024971
vn -0.500000775 0 -0.866024971
vn -0 0 -1
vn -0 0 -1
vn 0.367880315 2.5937004E-07 -0.929873168
vn 0.367880434 2.59370097E-07 -0.929873049
vn 0.677079976 4.87554018E-07 -0.735909402
vn 0.677079976 4.87553962E-07 -0.735909462
vn 0.677071452 1.32845321E-06 -0.73591727
vn -0.866024733 0 0.500001132
vn -0.866024733 0 0.500001132
vn -1 0 0
vn -1 0 0
vn -0.499999166 0 0.866025865
vn -0.499999166 0 0.866025865
vn -0.14634648 1.47855104E-07 0.989233434
vn -0.146346465 1.47855104E-07 0.989233434
vn 0.218415827 6.42458872E-07 0.975855768
vn 0.218415827 6.42458872E-07 0.975855768
vn 0.218411654 1.83025531E-06 0.975856721
vn -0.455248892 0 0.89036423
vn -0.455248922 0 0.89036423
vn 0.0383470878 0.999019146 0.0221397579
vn 0.0383471139 0.999019146 0.0221397262
vn 0.54345423 -2.05614882E-07 -0.839438796
vn 0.54345417 -2.74106952E-07 -0.839438796
vn 0.0383472145 -0.999019146 0.0221393108
vn 0.0383471288 -0.999019206 0.0221394412
vn -0.455248922 0 0.89036423
vn -0.455248892 0 0.89036423
vn 0.54345417 -2.74106952E-07 -0.839438796
vn 0.54345423 -2.05614882E-07 -0.839438796
vn 0.742199063 5.8737146E-07 0.670179486
vn 0.742199063 6.16844375E-07 0.670179486
vn 0.0313103609 0.999019146 -0.0313101821
vn 0.0313102081 0.999019146 -0.031310346
vn -0.670179784 -4.11229536E-07 -0.742198825
vn -0.670179725 -5.0905544E-07 -0.742198825
vn 0.0313101746 -0.999019146 -0.0313103087
vn 0.031310346 -0.999019146 -0.031310223
vn 0.742199063 6.16844375E-07 0.670179486
vn 0.742199063 5.8737146E-07 0.670179486
vn -0.670179725 -5.0905544E-07 -0.742198825
vn -0.670179784 -4.11229536E-07 -0.742198825
vn -0 -0.546309471 -0.837583423
vn 0.837583423 -0.546309412 0
vn 0.837583482 -0.546309412 0
vn -0 -0.546309471 -0.837583423
vn -0 -0.546309471 0.837583423
vn -0 -0.546309471 0.837583423
vn -0 -0.546309471 -0.837583423
vn -0.837583482 -0.546309412 0
vn -0.837583482 -0.546309352 0
vn -0 -0.546309471 -0.837583423
vn -0 -0.546309471 0.837583423
vn -0 -0.546309471 0.837583423
vn -0 -1 0
vn -0 -1 0
vn -0 -1 0
vn -0 -1 0
vn -0 1 0
vn -0 1 0
vn -0 1 0
vn -0 1 0
vn -0 0.546309531 0.837583363
vn -0 0.546309531 0.837583363
vn 0.837583363 0.546309531 0
vn 0.837583363 0.546309531 0
vn -0 0.546309412 -0.837583482
vn -0 0.546309412 -0.837583482
vn -0.837583542 0.546309292 0
vn -0.837583542 0.546309292 0
vn -0 0.546309531 0.837583363
vn -0 0.546309531 0.837583363
vn -0 0.546309412 -0.837583482
vn -0 0.546309412 -0.837583482
vn 1 0 0
vn 1 0 0
vn 0.866024673 0 -0.500001311
vn 0.866024673 0 -0.500001311
vn 0.37631762 0 -0.926490724
vn 0.57506001 0 -0.818111241
vn 0.258819729 0 -0.965925634
vn 0.258819759 0 -0.965925634
vn 0.37631765 0 -0.926490724
vn 0.575060725 0 -0.818110764
vn 0.866024494 0 -0.500001609
vn 0.866024494 0 -0.500001609
vn 1 0 0
vn 1 0 0
vn 0.707106888 0 0.707106709
vn 0.907071829 0 0.420975953
vn 0.789145708 0 0.614206076
vn 1 0 0
vn 1 0 0
vn 0.707106888 0 0.70710665
vn 0.789145708 0 0.614206076
vn 0.90707171 0 0.420976132
vn 1 0 0
vn 1 0 0
vn -0.866025209 0 0.500000358
vn -0.639142513 -0.674780548 0.369009644
vn -0.73801899 -0.674779952 0
vn -1 0 0
vn -0.499999672 0 0.866025567
vn -0.369009703 -0.674780309 0.639142752
vn -0 1.22269967E-07 1
vn -0 -0.67478013 0.738018811
vn 0.399493277 2.96070425E-07 0.916736126
vn 0.277767897 -0.671184778 0.687281668
vn 0.277767628 0.671184242 0.687282205
vn -0 0.674779654 0.738019288
vn -0.369009852 0.674780011 0.639142871
vn -0.639142692 0.67478025 0.369009882
vn -0.738019228 0.674779713 0
vn 0.855087638 0.423004925 0.299819857
vn 0.975329459 -2.11323322E-06 0.2207544
vn 0.855086744 -0.423006803 0.299819857
vn -0.73801899 -0.674779952 0
vn -0.639142632 -0.674780011 -0.36901018
vn -0.866025448 0 -0.499999911
vn -1 0 0
vn -0.369009197 -0.674780548 -0.639142752
vn -0.499999225 0 -0.866025865
vn -0.103088401 -0.671185434 -0.734086394
vn -0.112398155 0 -0.993663251
vn -0.369009286 0.67478019 -0.63914305
vn -0.103088893 0.671185195 -0.734086633
vn -0.63914299 0.674779654 -0.369010299
vn -0.738019228 0.674779713 0
vn 0.590617478 0.423005223 -0.68719548
vn 0.734282911 -1.22926906E-06 -0.678843617
vn 0.590617716 -0.423005968 -0.687194824
vn 0.866024792 0 -0.500001073
vn 0.866024792 0 -0.500001073
vn 1 0 0
vn 1 0 0
vn 0.500000715 0 -0.866025031
vn 0.500000715 0 -0.866025031
vn -0 0 -1
vn -0 0 -1
vn -0.367879927 2.5937004E-07 -0.929873288
vn -0.367880076 2.59370182E-07 -0.929873288
vn -0.677080214 4.87553848E-07 -0.735909224
vn -0.677080214 4.87553791E-07 -0.735909224
vn -0.677073717 1.32845003E-06 -0.735915184
vn 0.866024733 0 0.500001132
vn 1 0 0
vn 1 0 0
vn 0.866024733 0 0.500001132
vn 0.499999404 0 0.866025746
vn 0.499999404 0 0.866025746
vn 0.146347076 1.40961859E-07 0.989233315
vn 0.146347031 1.40961902E-07 0.989233315
vn -0.218415439 6.09440974E-07 0.975855887
vn -0.218415454 6.09440974E-07 0.975855887
vn -0.218414202 1.66055031E-06 0.975856185
vn -0 -0.546309769 -0.837583244
vn 0.837582886 -0.546310186 0
vn 0.837582886 -0.546310186 0
vn -0 -0.546309769 -0.837583184
vn -0 -0.546309829 0.837583184
vn -0 -0.546309769 0.837583184
vn -0 -0.546309769 -0.837583184
vn -0.837583363 -0.546309531 0
vn -0.837583423 -0.546309471 0
vn -0 -0.546309769 -0.837583244
vn -0 -0.546309769 0.837583184
vn -0 -0.546309829 0.837583184
vn -0 -1 0
vn -0 -1 0
vn -0 -1 0
vn -0 -1 0
vn -0 1 0
vn -0 1 0
vn -0 1 0
vn -0 1 0
vn -0 0.546309531 0.837583363
vn -0 0.546309531 0.837583363
vn 0.837583005 0.546310127 0
vn 0.837583005 0.546310186 0
vn -0 0.546309769 -0.837583184
vn -0 0.546309829 -0.837583184
vn -0.837583482 0.546309352 0
vn -0.837583542 0.546309292 0
vn -0 0.546309531 0.837583363
vn -0 0.546309531 0.837583363
vn -0 0.546309829 -0.837583184
vn -0 0.546309769 -0.837583184
vn 0.707107127 0 0.707106471
vn 0.907071829 0 0.420975864
vn 0.789145827 0 0.614205956
vn 1 0 0
vn 1 0 0
vn 0.707107127 0 0.707106471
vn 0.789145887 0 0.614205897
vn 0.907071829 0 0.420975953
vn 1 0 0
vn 1 0 0
vn 1 0 0
vn 1 0 0
vn 0.866024613 0 -0.500001371
vn 0.866024613 0 -0.500001371
vn 0.376316965 0 -0.926490963
vn 0.575059533 0 -0.818111539
vn 0.258819014 0 -0.965925813
vn 0.258819073 0 -0.965925813
vn 0.376317054 0 -0.926490963
vn 0.575060308 0 -0.818111062
vn 0.866024494 0 -0.500001609
vn 0.866024494 0 -0.500001609
vn 1 0 0
vn 1 0 0
vn -0.866025209 0 0.500000298
vn -0.639142454 -0.674780488 0.369009793
vn -0.73801899 -0.674779952 0
vn -1 0 0
vn -0.499999493 0 0.866025686
vn -0.369009703 -0.674780011 0.639142931
vn -0 1.68121204E-07 1
vn -0 -0.674779773 0.738019168
vn 0.399493217 4.35971913E-07 0.916736186
vn 0.277767807 -0.67118454 0.687281907
vn 0.277767628 0.671184063 0.687282443
vn -0 0.674779296 0.738019526
vn -0.369009793 0.674779594 0.639143407
vn -0.639142752 0.674780011 0.369009972
vn -0.738019407 0.674779415 0
vn 0.855087757 0.423004389 0.299820185
vn 0.975329399 -1.06352343E-06 0.220754564
vn 0.855087221 -0.42300576 0.299819946
vn -0.73801899 -0.674779952 0
vn -0.639142811 -0.674779832 -0.369010329
vn -0.866025507 0 -0.499999851
vn -1 0 0
vn -0.369009346 -0.674780548 -0.639142632
vn -0.499999404 0 -0.866025805
vn -0.103088222 -0.671185672 -0.734086215
vn -0.112398215 1.07366311E-07 -0.993663251
vn -0.369009227 0.674780309 -0.639142931
vn -0.103088774 0.671185613 -0.734086275
vn -0.63914305 0.674779594 -0.369010448
vn -0.738019407 0.674779415 0
vn 0.590617239 0.4230057 -0.687195361
vn 0.734282732 -2.29279317E-06 -0.678843737
vn 0.590617776 -0.423006862 -0.687194228
vn 0.866024792 0 -0.500001073
vn 0.866024792 0 -0.500001073
vn 1 0 0
vn 1 0 0
vn 0.500000775 0 -0.866024971
vn 0.500000775 0 -0.866024971
vn -0 0 -1
vn -0 0 -1
vn -0.367880255 2.59370012E-07 -0.929873168
vn -0.367880404 2.59370069E-07 -0.929873109
vn -0.677079856 4.87553962E-07 -0.735909462
vn -0.677079916 4.87554018E-07 -0.735909522
vn -0.677072346 1.3284523E-06 -0.735916436
vn 0.866024733 0 0.500001132
vn 1 0 0
vn 1 0 0
vn 0.866024733 0 0.500001132
vn 0.499999166 0 0.866025865
vn 0.499999166 0 0.866025865
vn 0.146346584 1.40961873E-07 0.989233375
vn 0.146346554 1.40961873E-07 0.989233375
vn -0.218415335 6.21507809E-07 0.975855887
vn -0.218415365 6.21507922E-07 0.975855887
vn -0.218409091 1.99266242E-06 0.975857258
vn -0.0383471735 0.999019146 0.022139797
vn -0.0383471251 0.999019146 0.0221398342
vn 0.455248713 0 0.890364289
vn 0.455248684 0 0.890364349
vn -0.54345417 -3.52423314E-07 -0.839438856
vn -0.54345423 -2.46737869E-07 -0.839438796
vn 0.455248684 0 0.890364349
vn 0.455248713 0 0.890364289
vn -0.0383472182 -0.999019146 0.0221394785
vn -0.0383473076 -0.999019146 0.0221393481
vn -0.54345423 -2.46737869E-07 -0.839438796
vn -0.54345417 -3.52423314E-07 -0.839438856
vn -0.0313101336 0.999019146 -0.031310346
vn -0.0313102901 0.999019146 -0.0313102007
vn -0.742199004 6.99090435E-07 0.670179665
vn -0.742198944 6.65687764E-07 0.670179665
vn 0.670179725 -5.87371744E-07 -0.742198825
vn 0.670179784 -5.34598485E-07 -0.742198825
vn -0.742198944 6.65687764E-07 0.670179665
vn -0.742199004 6.99090435E-07 0.670179665
vn -0.0313103311 -0.999019206 -0.0313100107
vn -0.0313101783 -0.999019206 -0.0313101374
vn 0.670179784 -5.34598485E-07 -0.742198825
vn 0.670179725 -5.87371744E-07 -0.742198825
vn -0 -0.626703799 0.779257536
vn -0 -0.626703918 0.779257536
vn 0.791445017 -0.499622107 0.352125704
vn 0.845557749 -0.462280571 0.267074406
vn 0.834306657 -0.41005075 -0.368498117
vn 0.834024668 -0.410143793 -0.369032472
vn -0 -0.346319318 -0.93811667
vn -0 -0.346319318 -0.93811667
vn -0.791445076 -0.499622077 0.352125674
vn -0 -0.626703918 0.779257536
vn -0 -0.626703799 0.779257536
vn -0.845557809 -0.462280571 0.267074376
vn -0.834306657 -0.41005066 -0.368498176
vn -0.834024727 -0.410143673 -0.369032353
vn -0 -0.346319318 -0.93811667
vn -0 -0.346319318 -0.93811667
vn -0 0 1
vn -0 0 1
vn 4.50190868E-07 0 1
vn -3.6444743E-07 0 1
vn -0 0 1
vn -0 0 1
vn -0 -0.999967396 -0.00807647035
vn -0 -0.999967396 -0.00807647035
vn 0.0214410946 -0.999737501 -0.00807461422
vn 0.0214410946 -0.999737501 -0.00807461515
vn -0 0 -1
vn -0 0 -1
vn -0.192569405 0 -0.981283367
vn 0.192569405 0 -0.981283367
vn -0 0 -1
vn -0 0 -1
vn -0.0214410946 -0.999737501 -0.00807461515
vn -0.0214410946 -0.999737501 -0.00807461422
vn -0 -0.999967396 -0.00807647035
vn -0 -0.999967396 -0.00807647035
vn -0 0 1
vn -0 0 1
vn -0 0 1
vn -0 0 1
vn -0 1 0
vn -0 1 0
vn -0 1 0
vn -0 1 0
vn -0 0 -1
vn -0 0 -1
vn -0 0 -1
vn -0 0 -1
vn -0 -1 0
vn -0 -1 0
vn -0 -1 0
vn -0 -1 0
vn 1 0 0
vn 1 0 0
vn 1 0 0
vn 1 0 0
vn 1 0 0
vn -1 0 0
vn -1 0 0
vn -1 0 0
vn -1 0 0
vn -1 0 0
vn -0 0.677210987 0.735788822
vn -0 0.677210987 0.735788822
vn -0 0.677210987 0.735788822
vn -0 0.677210987 0.735788822
vn 1 0 0
vn 1 0 0
vn -0 0 -1
vn -0 0 -1
vn -0 0 1
vn -0 0 1
vn -1 0 0
vn -1 0 0
vn -0 0 -1
vn -0 0 -1
vn -0 0 1
vn -0 0 1
vn 1 0 0
vn 1 0 0
vn -0 -1 0
vn -0 -1 0
vn -0 1 0
vn -0 1 0
vn -0 -1 0
vn -1 0 0
vn -1 0 0
vn -0 -1 0
vn -0 1 0
vn -0 1 0
vn -0 0 -1
vn -0 0 -1
vn -0 0 -1
vn 1.7722931E-07 0 -1
vn -0 0 -1
vn -0 0 -1
vn -0 0 -1
vn -0 0 -1
vn -0 0 -1
vn -0 0 -1
vn 0.866025448 0.499999911 0
vn 0.862358809 0.497882873 0.0919231474
vn 3.21768027E-07 0.995766103 0.0919230953
vn 3.57813946E-07 1 0
vn 0.86235851 -0.497883409 0.0919232443
vn 0.866025209 -0.500000358 0
vn -2.81139592E-07 -1 0
vn -2.62777291E-07 -0.995766103 0.0919232145
vn 0.686899841 0.396582007 0.609008551
vn 0.6868999 -0.396581709 0.609008729
vn 1.13530234E-07 0.793163836 0.609008312
vn -0 -0.793163538 0.60900867
vn 3.57813946E-07 1 0
vn 3.21768027E-07 0.995766103 0.0919230953
vn -0.862358689 0.497883052 0.0919230953
vn -0.866025388 0.50000006 0
vn -0.866025448 -0.499999851 0
vn -0.862358809 -0.497882873 0.0919231176
vn -2.62777291E-07 -0.995766103 0.0919232145
vn -2.81139592E-07 -1 0
vn -0.686900079 0.396581739 0.609008312
vn 1.13530234E-07 0.793163836 0.609008312
vn -0.68690002 -0.396581918 0.609008312
vn -0 -0.793163538 0.60900867
vn 0.686899841 0.396582007 0.609008551
vn 1.6544233E-07 0 1
vn 1.13530234E-07 0.793163836 0.609008312
vn -0.686900079 0.396581739 0.609008312
vn -0.68690002 -0.396581918 0.609008312
vn -0 -0.793163538 0.60900867
vn 0.6868999 -0.396581709 0.609008729
vn 1 0 0
vn 1 0 0
vn -0 1 0
vn -0 1 0
vn -0 -1 0
vn -0 -1 0
vn -1 0 0
vn -1 0 0
vn -0 1 0
vn -0 1 0
vn -0 -1 0
vn -0 -1 0
vn -0 0.695008218 0.71900177
vn 0.19823572 0.952947915 0.229331374
vn 0.424989104 0.803461552 0.416933864
vn -0.19823572 0.952947915 0.229331374
vn 0.216472134 0.976231813 0.0105490247
vn -0 0.999983788 -0.00568955205
vn 0.483675063 0.55916816 0.67334199
vn 0.446341157 0.460025668 0.767564952
vn -0.216472134 0.976231813 0.0105490247
vn -0.424989104 0.803461552 0.416933864
vn -0.483675063 0.5591681 0.67334199
vn -0.446341157 0.460025668 0.767564952
vn -1.27013448E-06 -0.996528089 -0.0832576752
vn -0 -0.954787195 -0.297290087
vn -1.5286339E-06 -0.999281168 -0.0379095823
vn -1.74196316E-06 -1 -2.02769138E-06
vn -1.74196305E-06 -1 -2.02769115E-06
vn 0.999994516 0.00307706837 0.00121997553
vn 0.999994516 0.00307706813 0.00121997553
vn 0.998677611 0.00502231903 0.0511645004
vn 0.999399006 0.00436971523 0.0343871266
vn 0.993325591 0.00750138378 0.115099907
vn 0.993325591 0.00750138378 0.115099899
vn 0.999989748 -0.00453257654 -1.26952555E-05
vn 0.246101588 -0.917825997 -0.311495543
vn 0.205955207 -0.978195727 -0.0267495774
vn 0.502878547 -0.215851754 -0.836971462
vn 0.205955207 -0.978195727 -0.0267495774
vn 0.246101588 -0.917825997 -0.311495543
vn -0 -0.947077036 -0.321006209
vn -0 -0.9996261 -0.0273446497
vn -0 -0.246801928 -0.969065964
vn 0.502878547 -0.215851754 -0.836971462
vn -0.246101618 -0.917825997 -0.311495543
vn -0.999989748 -0.00453257654 -1.26952555E-05
vn -0.205955207 -0.978195727 -0.0267495662
vn -0.502878547 -0.215851679 -0.836971462
vn -0 -0.947077036 -0.321006209
vn -0.246101618 -0.917825997 -0.311495543
vn -0.205955207 -0.978195727 -0.0267495662
vn -0 -0.9996261 -0.0273446497
vn -0 -0.246801928 -0.969065964
vn -0.502878547 -0.215851679 -0.836971462
vn -0.00944734924 -0.531824052 -0.846802175
vn -0.00944735017 -0.531824052 -0.846802175
vn -0.00944734924 -0.531824052 -0.846802175
vn -0.00944734924 -0.531824052 -0.846802175
vn -0 -0.954787195 -0.297290087
vn 1.27013448E-06 -0.996528089 -0.0832576752
vn 1.5286339E-06 -0.999281168 -0.0379095823
vn 1.74196316E-06 -1 -2.02769138E-06
vn 1.74196305E-06 -1 -2.02769115E-06
vn -0.998677611 0.00502223661 0.0511645004
vn -0.999994516 0.00307706813 0.00121997553
vn -0.999994516 0.00307706837 0.00121997553
vn -0.999399006 0.00436966028 0.0343871266
vn -0.999399006 0.00436966028 0.0343871266
vn -0.993325591 0.00750119518 0.115099907
vn -0.993325591 0.00750119472 0.115099899
vn -0.998677611 0.00502223661 0.0511645004
vn 0.00944734924 -0.531824112 -0.846802115
vn 0.00944734924 -0.531824112 -0.846802115
vn 0.00944734924 -0.531824112 -0.846802115
vn 0.00944734924 -0.531824112 -0.846802115
vn 0.953754067 -0.291978836 0.0714256018
vn 0.964371979 -0.258065909 0.0582129136
vn 0.98768574 -0.155347332 0.0185513701
vn 0.994279027 -0.106814079 -9.11798179E-06
vn -0.953752697 -0.291983068 0.0714255497
vn -0.987685025 -0.155351534 0.0185512807
vn -0.964370787 -0.258070201 0.058212854
vn -0.99427855 -0.106818184 -9.23523567E-06
vn 0.991537273 0.106483579 -0.0742633641
vn 0.966343462 0.256567985 -0.0187933221
vn 0.986880422 0.150567859 -0.0582789332
vn 0.952158809 0.305603683 0
vn -0.952159405 0.305601865 1.36178016E-07
vn -0.966344118 0.256565422 -0.0187934581
vn -0.986880898 0.150563955 -0.0582795665
vn -0.99153769 0.10647919 -0.0742641911
g wp_005_004_101_Mesh_0
f 3/3/3 2/2/2 1/1/1
f 4/4/4 3/3/3 1/1/1
f 2/2/2 3/3/3 5/5/5
f 6/6/6 2/2/2 5/5/5
f 9/9/9 8/8/8 7/7/7
f 10/10/10 9/9/9 7/7/7
f 9/9/9 11/11/11 8/8/8
f 11/11/11 12/12/12 8/8/8
f 15/15/15 14/14/14 13/13/13
f 13/13/13 14/14/14 16/16/16
f 19/19/19 18/18/18 17/17/17
f 19/19/19 17/17/17 20/20/20
f 23/23/23 22/22/22 21/21/21
f 24/24/24 23/23/23 21/21/21
f 25/25/25 23/23/23 24/24/24
f 26/26/26 25/25/25 24/24/24
f 29/29/29 28/28/28 27/27/27
f 30/30/30 29/29/29 27/27/27
f 27/27/27 28/28/28 31/31/31
f 28/28/28 32/32/32 31/31/31
f 35/35/35 34/34/34 33/33/33
f 36/36/36 35/35/35 33/33/33
f 37/37/37 33/33/33 34/34/34
f 38/38/38 37/37/37 34/34/34
f 39/39/39 37/37/37 38/38/38
f 39/39/39 38/38/38 40/40/40
f 41/41/41 39/39/39 40/40/40
f 40/40/40 42/42/42 41/41/41
f 43/43/43 42/42/42 40/40/40
f 44/44/44 43/43/43 40/40/40
f 43/43/43 44/44/44 45/45/45
f 44/44/44 46/46/46 45/45/45
f 49/49/49 48/48/48 47/47/47
f 50/50/50 48/48/48 49/49/49
f 51/51/51 50/50/50 49/49/49
f 47/47/47 52/52/52 49/49/49
f 52/52/52 53/53/53 49/49/49
f 52/52/52 54/54/54 53/53/53
f 53/53/53 54/54/54 55/55/55
f 54/54/54 56/56/56 55/55/55
f 59/59/59 58/58/58 57/57/57
f 60/60/60 59/59/59 57/57/57
f 61/61/61 59/59/59 60/60/60
f 62/62/62 61/61/61 60/60/60
f 63/63/63 61/61/61 62/62/62
f 64/64/64 63/63/63 62/62/62
f 65/65/65 63/63/63 64/64/64
f 66/66/66 65/65/65 64/64/64
f 64/64/64 67/67/67 66/66/66
f 67/67/67 68/68/68 66/66/66
f 69/69/69 67/67/67 64/64/64
f 62/62/62 69/69/69 64/64/64
f 70/70/70 69/69/69 62/62/62
f 60/60/60 70/70/70 62/62/62
f 71/71/71 70/70/70 60/60/60
f 57/57/57 71/71/71 60/60/60
f 68/68/68 72/72/72 66/66/66
f 72/72/72 73/73/73 66/66/66
f 73/73/73 74/74/74 66/66/66
f 74/74/74 65/65/65 66/66/66
f 77/77/77 76/76/76 75/75/75
f 78/78/78 77/77/77 75/75/75
f 75/75/75 76/76/76 79/79/79
f 76/76/76 80/80/80 79/79/79
f 79/79/79 80/80/80 81/81/81
f 80/80/80 82/82/82 81/81/81
f 81/81/81 83/83/83 79/79/79
f 83/83/83 84/84/84 79/79/79
f 79/79/79 84/84/84 75/75/75
f 84/84/84 85/85/85 75/75/75
f 75/75/75 85/85/85 86/86/86
f 78/78/78 75/75/75 86/86/86
f 87/87/87 83/83/83 81/81/81
f 88/88/88 87/87/87 81/81/81
f 89/89/89 88/88/88 81/81/81
f 82/82/82 89/89/89 81/81/81
f 92/92/92 91/91/91 90/90/90
f 93/93/93 92/92/92 90/90/90
f 93/93/93 90/90/90 94/94/94
f 95/95/95 93/93/93 94/94/94
f 95/95/95 94/94/94 96/96/96
f 97/97/97 95/95/95 96/96/96
f 97/97/97 96/96/96 98/98/98
f 99/99/99 97/97/97 98/98/98
f 99/99/99 98/98/98 100/100/100
f 101/101/101 99/99/99 100/100/100
f 100/100/100 102/102/102 101/101/101
f 105/105/105 104/104/104 103/103/103
f 106/106/106 105/105/105 103/103/103
f 103/103/103 104/104/104 107/107/107
f 104/104/104 108/108/108 107/107/107
f 107/107/107 108/108/108 109/109/109
f 108/108/108 110/110/110 109/109/109
f 109/109/109 110/110/110 111/111/111
f 110/110/110 112/112/112 111/111/111
f 113/113/113 111/111/111 112/112/112
f 116/116/116 115/115/115 114/114/114
f 117/117/117 116/116/116 114/114/114
f 115/115/115 116/116/116 118/118/118
f 119/119/119 115/115/115 118/118/118
f 122/122/122 121/121/121 120/120/120
f 123/123/123 122/122/122 120/120/120
f 122/122/122 124/124/124 121/121/121
f 124/124/124 125/125/125 121/121/121
f 128/128/128 127/127/127 126/126/126
f 126/126/126 127/127/127 129/129/129
f 132/132/132 131/131/131 130/130/130
f 132/132/132 130/130/130 133/133/133
f 136/136/136 135/135/135 134/134/134
f 137/137/137 136/136/136 134/134/134
f 138/138/138 136/136/136 137/137/137
f 139/139/139 138/138/138 137/137/137
f 142/142/142 141/141/141 140/140/140
f 143/143/143 142/142/142 140/140/140
f 140/140/140 141/141/141 144/144/144
f 141/141/141 145/145/145 144/144/144
f 148/148/148 147/147/147 146/146/146
f 149/149/149 148/148/148 146/146/146
f 146/146/146 147/147/147 150/150/150
f 150/150/150 147/147/147 151/151/151
f 152/152/152 150/150/150 151/151/151
f 151/151/151 153/153/153 152/152/152
f 151/151/151 154/154/154 153/153/153
f 154/154/154 155/155/155 153/153/153
f 158/158/158 157/157/157 156/156/156
f 159/159/159 158/158/158 156/156/156
f 160/160/160 156/156/156 157/157/157
f 161/161/161 160/160/160 157/157/157
f 162/162/162 160/160/160 161/161/161
f 162/162/162 161/161/161 163/163/163
f 164/164/164 162/162/162 163/163/163
f 163/163/163 165/165/165 164/164/164
f 166/166/166 165/165/165 163/163/163
f 167/167/167 166/166/166 163/163/163
f 166/166/166 167/167/167 168/168/168
f 167/167/167 169/169/169 168/168/168
f 172/172/172 171/171/171 170/170/170
f 173/173/173 172/172/172 170/170/170
f 174/174/174 172/172/172 173/173/173
f 175/175/175 174/174/174 173/173/173
f 176/176/176 174/174/174 175/175/175
f 177/177/177 176/176/176 175/175/175
f 178/178/178 176/176/176 177/177/177
f 179/179/179 178/178/178 177/177/177
f 177/177/177 180/180/180 179/179/179
f 180/180/180 181/181/181 179/179/179
f 182/182/182 180/180/180 177/177/177
f 175/175/175 182/182/182 177/177/177
f 183/183/183 182/182/182 175/175/175
f 173/173/173 183/183/183 175/175/175
f 184/184/184 183/183/183 173/173/173
f 170/170/170 184/184/184 173/173/173
f 181/181/181 185/185/185 179/179/179
f 185/185/185 186/186/186 179/179/179
f 186/186/186 187/187/187 179/179/179
f 187/187/187 178/178/178 179/179/179
f 190/190/190 189/189/189 188/188/188
f 191/191/191 190/190/190 188/188/188
f 188/188/188 189/189/189 192/192/192
f 189/189/189 193/193/193 192/192/192
f 192/192/192 193/193/193 194/194/194
f 193/193/193 195/195/195 194/194/194
f 194/194/194 196/196/196 192/192/192
f 196/196/196 197/197/197 192/192/192
f 192/192/192 197/197/197 188/188/188
f 197/197/197 198/198/198 188/188/188
f 188/188/188 198/198/198 199/199/199
f 191/191/191 188/188/188 199/199/199
f 200/200/200 196/196/196 194/194/194
f 201/201/201 200/200/200 194/194/194
f 202/202/202 201/201/201 194/194/194
f 195/195/195 202/202/202 194/194/194
f 205/205/205 204/204/204 203/203/203
f 206/206/206 205/205/205 203/203/203
f 206/206/206 203/203/203 207/207/207
f 208/208/208 206/206/206 207/207/207
f 208/208/208 207/207/207 209/209/209
f 210/210/210 208/208/208 209/209/209
f 210/210/210 209/209/209 211/211/211
f 212/212/212 210/210/210 211/211/211
f 212/212/212 211/211/211 213/213/213
f 214/214/214 212/212/212 213/213/213
f 213/213/213 215/215/215 214/214/214
f 218/218/218 217/217/217 216/216/216
f 219/219/219 218/218/218 216/216/216
f 216/216/216 217/217/217 220/220/220
f 217/217/217 221/221/221 220/220/220
f 220/220/220 221/221/221 222/222/222
f 221/221/221 223/223/223 222/222/222
f 222/222/222 223/223/223 224/224/224
f 223/223/223 225/225/225 224/224/224
f 226/226/226 224/224/224 225/225/225
f 229/229/229 228/228/228 227/227/227
f 230/230/230 229/229/229 227/227/227
f 231/231/231 229/229/229 230/230/230
f 232/232/232 231/231/231 230/230/230
f 235/235/235 234/234/234 233/233/233
f 236/236/236 235/235/235 233/233/233
f 233/233/233 234/234/234 237/237/237
f 234/234/234 238/238/238 237/237/237
f 241/241/241 240/240/240 239/239/239
f 242/242/242 241/241/241 239/239/239
f 243/243/243 241/241/241 242/242/242
f 244/244/244 243/243/243 242/242/242
f 247/247/247 246/246/246 245/245/245
f 248/248/248 247/247/247 245/245/245
f 245/245/245 246/246/246 249/249/249
f 246/246/246 250/250/250 249/249/249
f 253/253/253 252/252/252 251/251/251
f 254/254/254 253/253/253 251/251/251
f 252/252/252 253/253/253 255/255/255
f 256/256/256 252/252/252 255/255/255
f 259/259/259 258/258/258 257/257/257
f 260/260/260 259/259/259 257/257/257
f 259/259/259 261/261/261 258/258/258
f 261/261/261 262/262/262 258/258/258
f 265/265/265 264/264/264 263/263/263
f 263/263/263 264/264/264 266/266/266
f 269/269/269 268/268/268 267/267/267
f 269/269/269 267/267/267 270/270/270
f 273/273/273 272/272/272 271/271/271
f 274/274/274 273/273/273 271/271/271
f 275/275/275 273/273/273 274/274/274
f 276/276/276 275/275/275 274/274/274
f 279/279/279 278/278/278 277/277/277
f 280/280/280 279/279/279 277/277/277
f 277/277/277 278/278/278 281/281/281
f 278/278/278 282/282/282 281/281/281
f 285/285/285 284/284/284 283/283/283
f 286/286/286 285/285/285 283/283/283
f 285/285/285 286/286/286 287/287/287
f 286/286/286 288/288/288 287/287/287
f 287/287/287 288/288/288 289/289/289
f 289/289/289 290/290/290 287/287/287
f 290/290/290 291/291/291 287/287/287
f 290/290/290 292/292/292 291/291/291
f 291/291/291 292/292/292 293/293/293
f 292/292/292 294/294/294 293/293/293
f 295/295/295 293/293/293 294/294/294
f 296/296/296 295/295/295 294/294/294
f 299/299/299 298/298/298 297/297/297
f 300/300/300 298/298/298 299/299/299
f 301/301/301 300/300/300 299/299/299
f 297/297/297 302/302/302 299/299/299
f 302/302/302 303/303/303 299/299/299
f 302/302/302 304/304/304 303/303/303
f 303/303/303 304/304/304 305/305/305
f 304/304/304 306/306/306 305/305/305
f 309/309/309 308/308/308 307/307/307
f 310/310/310 309/309/309 307/307/307
f 307/307/307 308/308/308 311/311/311
f 308/308/308 312/312/312 311/311/311
f 311/311/311 312/312/312 313/313/313
f 312/312/312 314/314/314 313/313/313
f 313/313/313 314/314/314 315/315/315
f 314/314/314 316/316/316 315/315/315
f 315/315/315 317/317/317 313/313/313
f 317/317/317 318/318/318 313/313/313
f 313/313/313 318/318/318 311/311/311
f 318/318/318 319/319/319 311/311/311
f 311/311/311 319/319/319 307/307/307
f 319/319/319 320/320/320 307/307/307
f 307/307/307 320/320/320 310/310/310
f 320/320/320 321/321/321 310/310/310
f 322/322/322 317/317/317 315/315/315
f 323/323/323 322/322/322 315/315/315
f 324/324/324 323/323/323 315/315/315
f 316/316/316 324/324/324 315/315/315
f 327/327/327 326/326/326 325/325/325
f 328/328/328 327/327/327 325/325/325
f 329/329/329 326/326/326 327/327/327
f 330/330/330 329/329/329 327/327/327
f 331/331/331 329/329/329 330/330/330
f 332/332/332 331/331/331 330/330/330
f 330/330/330 333/333/333 332/332/332
f 333/333/333 334/334/334 332/332/332
f 335/335/335 333/333/333 330/330/330
f 327/327/327 335/335/335 330/330/330
f 336/336/336 335/335/335 327/327/327
f 328/328/328 336/336/336 327/327/327
f 334/334/334 337/337/337 332/332/332
f 337/337/337 338/338/338 332/332/332
f 338/338/338 339/339/339 332/332/332
f 339/339/339 331/331/331 332/332/332
f 342/342/342 341/341/341 340/340/340
f 343/343/343 342/342/342 340/340/340
f 340/340/340 341/341/341 344/344/344
f 341/341/341 345/345/345 344/344/344
f 344/344/344 345/345/345 346/346/346
f 345/345/345 347/347/347 346/346/346
f 346/346/346 347/347/347 348/348/348
f 347/347/347 349/349/349 348/348/348
f 348/348/348 349/349/349 350/350/350
f 349/349/349 351/351/351 350/350/350
f 352/352/352 350/350/350 351/351/351
f 355/355/355 354/354/354 353/353/353
f 356/356/356 355/355/355 353/353/353
f 356/356/356 353/353/353 357/357/357
f 358/358/358 356/356/356 357/357/357
f 358/358/358 357/357/357 359/359/359
f 360/360/360 358/358/358 359/359/359
f 360/360/360 359/359/359 361/361/361
f 362/362/362 360/360/360 361/361/361
f 361/361/361 363/363/363 362/362/362
f 366/366/366 365/365/365 364/364/364
f 367/367/367 366/366/366 364/364/364
f 365/365/365 366/366/366 368/368/368
f 369/369/369 365/365/365 368/368/368
f 372/372/372 371/371/371 370/370/370
f 373/373/373 372/372/372 370/370/370
f 372/372/372 374/374/374 371/371/371
f 374/374/374 375/375/375 371/371/371
f 378/378/378 377/377/377 376/376/376
f 376/376/376 377/377/377 379/379/379
f 382/382/382 381/381/381 380/380/380
f 382/382/382 380/380/380 383/383/383
f 386/386/386 385/385/385 384/384/384
f 387/387/387 386/386/386 384/384/384
f 388/388/388 386/386/386 387/387/387
f 389/389/389 388/388/388 387/387/387
f 392/392/392 391/391/391 390/390/390
f 393/393/393 392/392/392 390/390/390
f 390/390/390 391/391/391 394/394/394
f 391/391/391 395/395/395 394/394/394
f 398/398/398 397/397/397 396/396/396
f 399/399/399 397/397/397 398/398/398
f 400/400/400 399/399/399 398/398/398
f 396/396/396 401/401/401 398/398/398
f 401/401/401 402/402/402 398/398/398
f 401/401/401 403/403/403 402/402/402
f 402/402/402 403/403/403 404/404/404
f 403/403/403 405/405/405 404/404/404
f 408/408/408 407/407/407 406/406/406
f 409/409/409 408/408/408 406/406/406
f 408/408/408 409/409/409 410/410/410
f 409/409/409 411/411/411 410/410/410
f 410/410/410 411/411/411 412/412/412
f 412/412/412 413/413/413 410/410/410
f 413/413/413 414/414/414 410/410/410
f 413/413/413 415/415/415 414/414/414
f 414/414/414 415/415/415 416/416/416
f 415/415/415 417/417/417 416/416/416
f 418/418/418 416/416/416 417/417/417
f 419/419/419 418/418/418 417/417/417
f 422/422/422 421/421/421 420/420/420
f 423/423/423 422/422/422 420/420/420
f 420/420/420 421/421/421 424/424/424
f 421/421/421 425/425/425 424/424/424
f 424/424/424 425/425/425 426/426/426
f 425/425/425 427/427/427 426/426/426
f 426/426/426 427/427/427 428/428/428
f 427/427/427 429/429/429 428/428/428
f 428/428/428 430/430/430 426/426/426
f 430/430/430 431/431/431 426/426/426
f 426/426/426 431/431/431 424/424/424
f 431/431/431 432/432/432 424/424/424
f 424/424/424 432/432/432 420/420/420
f 432/432/432 433/433/433 420/420/420
f 420/420/420 433/433/433 423/423/423
f 433/433/433 434/434/434 423/423/423
f 435/435/435 430/430/430 428/428/428
f 436/436/436 435/435/435 428/428/428
f 437/437/437 436/436/436 428/428/428
f 429/429/429 437/437/437 428/428/428
f 440/440/440 439/439/439 438/438/438
f 441/441/441 440/440/440 438/438/438
f 442/442/442 439/439/439 440/440/440
f 443/443/443 442/442/442 440/440/440
f 444/444/444 442/442/442 443/443/443
f 445/445/445 444/444/444 443/443/443
f 443/443/443 446/446/446 445/445/445
f 446/446/446 447/447/447 445/445/445
f 448/448/448 446/446/446 443/443/443
f 440/440/440 448/448/448 443/443/443
f 449/449/449 448/448/448 440/440/440
f 441/441/441 449/449/449 440/440/440
f 447/447/447 450/450/450 445/445/445
f 450/450/450 451/451/451 445/445/445
f 451/451/451 452/452/452 445/445/445
f 452/452/452 444/444/444 445/445/445
f 455/455/455 454/454/454 453/453/453
f 456/456/456 455/455/455 453/453/453
f 453/453/453 454/454/454 457/457/457
f 454/454/454 458/458/458 457/457/457
f 457/457/457 458/458/458 459/459/459
f 458/458/458 460/460/460 459/459/459
f 459/459/459 460/460/460 461/461/461
f 460/460/460 462/462/462 461/461/461
f 461/461/461 462/462/462 463/463/463
f 462/462/462 464/464/464 463/463/463
f 465/465/465 463/463/463 464/464/464
f 468/468/468 467/467/467 466/466/466
f 469/469/469 468/468/468 466/466/466
f 469/469/469 466/466/466 470/470/470
f 471/471/471 469/469/469 470/470/470
f 471/471/471 470/470/470 472/472/472
f 473/473/473 471/471/471 472/472/472
f 473/473/473 472/472/472 474/474/474
f 475/475/475 473/473/473 474/474/474
f 474/474/474 476/476/476 475/475/475
f 479/479/479 478/478/478 477/477/477
f 480/480/480 479/479/479 477/477/477
f 477/477/477 478/478/478 481/481/481
f 478/478/478 482/482/482 481/481/481
f 485/485/485 484/484/484 483/483/483
f 486/486/486 485/485/485 483/483/483
f 487/487/487 485/485/485 486/486/486
f 488/488/488 487/487/487 486/486/486
f 491/491/491 490/490/490 489/489/489
f 492/492/492 491/491/491 489/489/489
f 489/489/489 490/490/490 493/493/493
f 490/490/490 494/494/494 493/493/493
f 497/497/497 496/496/496 495/495/495
f 498/498/498 497/497/497 495/495/495
f 499/499/499 497/497/497 498/498/498
f 500/500/500 499/499/499 498/498/498
f 503/503/503 502/502/502 501/501/501
f 504/504/504 503/503/503 501/501/501
f 504/504/504 505/505/505 503/503/503
f 505/505/505 506/506/506 503/503/503
f 505/505/505 507/507/507 506/506/506
f 507/507/507 508/508/508 506/506/506
f 511/511/511 510/510/510 509/509/509
f 512/512/512 511/511/511 509/509/509
f 512/512/512 509/509/509 513/513/513
f 509/509/509 514/514/514 513/513/513
f 513/513/513 514/514/514 515/515/515
f 516/516/516 513/513/513 515/515/515
f 519/519/519 518/518/518 517/517/517
f 522/522/522 521/521/521 520/520/520
f 525/525/525 524/524/524 523/523/523
f 526/526/526 525/525/525 523/523/523
f 529/529/529 528/528/528 527/527/527
f 532/532/532 531/531/531 530/530/530
f 535/535/535 534/534/534 533/533/533
f 536/536/536 535/535/535 533/533/533
f 539/539/539 538/538/538 537/537/537
f 540/540/540 539/539/539 537/537/537
f 543/543/543 542/542/542 541/541/541
f 544/544/544 543/543/543 541/541/541
f 547/547/547 546/546/546 545/545/545
f 548/548/548 547/547/547 545/545/545
f 551/551/551 550/550/550 549/549/549
f 552/552/552 551/551/551 549/549/549
f 555/555/555 554/554/554 553/553/553
f 553/553/553 556/556/556 555/555/555
f 553/553/553 557/557/557 556/556/556
f 560/560/560 559/559/559 558/558/558
f 558/558/558 561/561/561 560/560/560
f 558/558/558 562/562/562 561/561/561
f 565/565/565 564/564/564 563/563/563
f 566/566/566 565/565/565 563/563/563
f 569/569/569 568/568/568 567/567/567
f 570/570/570 569/569/569 567/567/567
f 571/571/571 567/567/567 568/568/568
f 572/572/572 571/571/571 568/568/568
f 575/575/575 574/574/574 573/573/573
f 576/576/576 575/575/575 573/573/573
f 573/573/573 574/574/574 577/577/577
f 574/574/574 578/578/578 577/577/577
f 581/581/581 580/580/580 579/579/579
f 582/582/582 581/581/581 579/579/579
f 579/579/579 580/580/580 583/583/583
f 584/584/584 579/579/579 583/583/583
f 587/587/587 586/586/586 585/585/585
f 588/588/588 587/587/587 585/585/585
f 587/587/587 589/589/589 586/586/586
f 589/589/589 590/590/590 586/586/586
f 593/593/593 592/592/592 591/591/591
f 594/594/594 592/592/592 593/593/593
f 597/597/597 596/596/596 595/595/595
f 598/598/598 597/597/597 595/595/595
f 596/596/596 597/597/597 599/599/599
f 597/597/597 600/600/600 599/599/599
f 603/603/603 602/602/602 601/601/601
f 604/604/604 603/603/603 601/601/601
f 601/601/601 602/602/602 605/605/605
f 606/606/606 601/601/601 605/605/605
f 606/606/606 605/605/605 607/607/607
f 605/605/605 608/608/608 607/607/607
f 602/602/602 609/609/609 605/605/605
f 609/609/609 610/610/610 605/605/605
f 608/608/608 605/605/605 610/610/610
f 602/602/602 603/603/603 611/611/611
f 609/609/609 602/602/602 611/611/611
f 612/612/612 608/608/608 610/610/610
f 615/615/615 614/614/614 613/613/613
f 616/616/616 615/615/615 613/613/613
f 616/616/616 617/617/617 615/615/615
f 617/617/617 618/618/618 615/615/615
f 619/619/619 618/618/618 617/617/617
f 620/620/620 619/619/619 617/617/617
f 614/614/614 615/615/615 621/621/621
f 615/615/615 618/618/618 621/621/621
f 622/622/622 614/614/614 621/621/621
f 618/618/618 623/623/623 621/621/621
f 618/618/618 619/619/619 624/624/624
f 623/623/623 618/618/618 624/624/624
f 627/627/627 626/626/626 625/625/625
f 627/627/627 628/628/628 626/626/626
f 629/629/629 626/626/626 628/628/628
f 629/629/629 630/630/630 626/626/626
f 631/631/631 626/626/626 630/630/630
f 631/631/631 625/625/625 626/626/626
f 634/634/634 633/633/633 632/632/632
f 635/635/635 634/634/634 632/632/632
f 636/636/636 632/632/632 633/633/633
f 637/637/637 636/636/636 633/633/633
f 640/640/640 639/639/639 638/638/638
f 641/641/641 640/640/640 638/638/638
f 638/638/638 639/639/639 642/642/642
f 639/639/639 643/643/643 642/642/642
f 646/646/646 645/645/645 644/644/644
f 645/645/645 647/647/647 644/644/644
f 648/648/648 645/645/645 646/646/646
f 649/649/649 647/647/647 645/645/645
f 645/645/645 648/648/648 649/649/649
f 650/650/650 646/646/646 644/644/644
f 650/650/650 644/644/644 651/651/651
f 647/647/647 649/649/649 652/652/652
f 653/653/653 647/647/647 652/652/652
f 644/644/644 647/647/647 653/653/653
f 644/644/644 653/653/653 654/654/654
f 644/644/644 654/654/654 655/655/655
f 658/658/658 657/657/657 656/656/656
f 658/658/658 656/656/656 659/659/659
f 660/660/660 658/658/658 659/659/659
f 663/663/663 662/662/662 661/661/661
f 664/664/664 663/663/663 661/661/661
f 663/663/663 664/664/664 665/665/665
f 666/666/666 663/663/663 665/665/665
f 669/669/669 668/668/668 667/667/667
f 670/670/670 667/667/667 668/668/668
f 673/673/673 672/672/672 671/671/671
f 674/674/674 673/673/673 671/671/671
f 673/673/673 675/675/675 672/672/672
f 675/675/675 676/676/676 672/672/672
f 679/679/679 678/678/678 677/677/677
f 680/680/680 677/677/677 678/678/678
f 683/683/683 682/682/682 681/681/681
f 684/684/684 683/683/683 681/681/681
f 681/681/681 682/682/682 685/685/685
f 682/682/682 686/686/686 685/685/685
f 689/689/689 688/688/688 687/687/687
f 690/690/690 689/689/689 687/687/687
f 693/693/693 692/692/692 691/691/691
f 692/692/692 693/693/693 694/694/694
f 693/693/693 695/695/695 694/694/694
f 698/698/698 697/697/697 696/696/696
f 699/699/699 698/698/698 696/696/696
f 702/702/702 701/701/701 700/700/700
f 703/703/703 702/702/702 700/700/700
f 706/706/706 705/705/705 704/704/704
f 707/707/707 706/706/706 704/704/704
f 710/710/710 709/709/709 708/708/708
f 710/710/710 711/711/711 709/709/709
f 714/714/714 713/713/713 712/712/712
f 714/714/714 715/715/715 713/713/713
f 718/718/718 717/717/717 716/716/716
f 718/718/718 719/719/719 717/717/717
f 722/722/722 721/721/721 720/720/720
f 722/722/722 723/723/723 721/721/721
