g wp_013_003_001_Mesh
v -0.00637485785 0.0123373112 0.103884503
v -0.0058844476 0.0269522164 0.266760349
v -8.43883838E-17 0.00795520656 0.268052697
v -6.20596159E-17 -0.00843897182 0.106528319
v -1.08012894E-16 0.0104124751 0.420266867
v -0.0058844476 0.0296152588 0.420583874
v -1.35915793E-16 0.00413931254 0.583447278
v -0.00588444714 0.0231684241 0.585069358
v -1.60309813E-16 -0.0110319313 0.751073599
v -0.0058844476 0.00513362279 0.753632665
v -1.95040559E-16 -0.0389253423 0.911951125
v -0.0058844476 -0.0254143849 0.914918184
v -5.47500987E-17 0.0331135951 0.101240687
v -7.78047606E-17 0.0459492244 0.265467972
v -1.03111663E-16 0.0488180406 0.420900881
v -1.30358569E-16 0.0421975404 0.586691439
v -1.59275771E-16 0.0226742551 0.756409347
v -1.89891393E-16 -0.0107541569 0.91813767
v -2.00671978E-16 -0.028675532 0.973646581
v -2.09548037E-16 -0.0594917573 1.00166893
v -8.43883838E-17 0.00795520656 0.268052697
v 0.0058844476 0.0269522164 0.266760349
v 0.00637485785 0.0123373112 0.103884503
v -6.20596159E-17 -0.00843897182 0.106528319
v -1.08012894E-16 0.0104124751 0.420266867
v 0.0058844476 0.0296152588 0.420583874
v -1.35915793E-16 0.00413931254 0.583447278
v 0.00588444714 0.0231684241 0.585069358
v -1.60309813E-16 -0.0110319313 0.751073599
v 0.0058844476 0.00513362279 0.753632665
v -1.95040559E-16 -0.0389253423 0.911951125
v 0.0058844476 -0.0254143849 0.914918184
v -5.47500987E-17 0.0331135951 0.101240687
v -7.78047606E-17 0.0459492244 0.265467972
v -1.03111663E-16 0.0488180406 0.420900881
v -1.30358569E-16 0.0421975404 0.586691439
v -1.59275771E-16 0.0226742551 0.756409347
v -1.89891393E-16 -0.0107541569 0.91813767
v -2.00671978E-16 -0.028675532 0.973646581
v -2.09548037E-16 -0.0594917573 1.00166893
v -4.42146442E-19 -0.0151466737 -0.127882272
v -0.0121891992 -0.0354556628 -0.129641086
v 0.0121891992 -0.0354557075 -0.12964122
v -8.21459004E-18 -0.0515324585 -0.116979323
v -0.0121891992 -0.00636052946 -0.0103921359
v -2.13045843E-17 -0.0249229502 -0.00634694938
v -8.21459004E-18 -0.0515324585 -0.116979323
v -0.0121891992 -0.0354556628 -0.129641086
v -4.42146442E-19 -0.0151466737 -0.127882272
v -1.39004195E-17 0.0122018894 -0.0144373076
v 0.0121891992 -0.0354557075 -0.12964122
v 0.0121891992 -0.00636052946 -0.0103921359
v -8.21459004E-18 -0.0515324585 -0.116979323
v -2.13045843E-17 -0.0249229502 -0.00634694938
v -0.0121891992 0.0113498466 0.0968796387
v -2.81626974E-17 0.0302298293 0.0944958702
v 0.0121891992 0.0113498466 0.0968796387
v -3.51332624E-17 -0.00753010157 0.0992635638
v -3.51332624E-17 -0.00753010157 0.0992635638
v -3.22394554E-18 -0.0383050591 -0.165493563
v 0.00367179397 -0.0388086438 -0.161579281
v 0.00367179397 -0.0289133731 -0.155905098
v -5.82320314E-19 -0.0257894658 -0.158316821
v -7.324638E-18 -0.0522296578 -0.161718518
v 0.00367179397 -0.0498179235 -0.158594564
v -1.16460545E-17 -0.0594064072 -0.149202883
v 0.00367179397 -0.0554921217 -0.148699269
v 0.00367179397 -0.0525073819 -0.137689978
v -1.28087611E-17 -0.0556312688 -0.135278255
v -1.03408653E-17 -0.0431156754 -0.128101498
v 0.00367179397 -0.0426121019 -0.132015795
v -1.65705142E-18 -0.0220143497 -0.144392222
v 0.00367179397 -0.0259286296 -0.144895807
v 0.00367179397 -0.0316028222 -0.135000527
v -5.71320001E-18 -0.0291910972 -0.131876603
v -9.57993602E-18 -0.0515778437 -0.148195669
v -7.15640601E-18 -0.0474062003 -0.155470639
v -1.02497885E-17 -0.0493834764 -0.140101701
v -8.81048186E-18 -0.0421085209 -0.135930091
v -3.75249989E-18 -0.0298429094 -0.145399392
v -6.11598072E-18 -0.0340145379 -0.138124451
v -3.11762346E-18 -0.0320372842 -0.15349336
v -4.59271273E-18 -0.0393122397 -0.157664984
v -1.03408653E-17 -0.0431156754 -0.128101498
v -5.71320001E-18 -0.0291910972 -0.131876603
v 0.00367179397 -0.0316028222 -0.135000527
v 0.00367179397 -0.0426121019 -0.132015795
v -6.11598072E-18 -0.0340145379 -0.138124451
v -8.81048186E-18 -0.0421085209 -0.135930091
v -0.00367179397 -0.0388086438 -0.161579281
v -3.22394554E-18 -0.0383050591 -0.165493563
v -5.82320314E-19 -0.0257894658 -0.158316821
v -0.00367179397 -0.0289133731 -0.155905098
v -0.00367179397 -0.0498179235 -0.158594564
v -7.324638E-18 -0.0522296578 -0.161718518
v -0.00367179397 -0.0554921217 -0.148699269
v -1.16460545E-17 -0.0594064072 -0.149202883
v -1.28087611E-17 -0.0556312688 -0.135278255
v -0.00367179397 -0.0525073819 -0.137689978
v -0.00367179397 -0.0426121019 -0.132015795
v -1.03408653E-17 -0.0431156754 -0.128101498
v -0.00367179397 -0.0259286296 -0.144895807
v -1.65705142E-18 -0.0220143497 -0.144392222
v -5.71320001E-18 -0.0291910972 -0.131876603
v -0.00367179397 -0.0316028222 -0.135000527
v -6.11598072E-18 -0.0340145379 -0.138124451
v -3.75249989E-18 -0.0298429094 -0.145399392
v -3.11762346E-18 -0.0320372842 -0.15349336
v -4.59271273E-18 -0.0393122397 -0.157664984
v -7.15640601E-18 -0.0474062003 -0.155470639
v -9.57993602E-18 -0.0515778437 -0.148195669
v -1.02497885E-17 -0.0493834764 -0.140101701
v -8.81048186E-18 -0.0421085209 -0.135930091
v -0.00367179397 -0.0426121019 -0.132015795
v -0.00367179397 -0.0316028222 -0.135000527
v -5.71320001E-18 -0.0291910972 -0.131876603
v -1.03408653E-17 -0.0431156754 -0.128101498
v -6.11598072E-18 -0.0340145379 -0.138124451
v -8.81048186E-18 -0.0421085209 -0.135930091
v -1.93715088E-09 -0.0428219326 -0.138268322
v -2.40295828E-09 -0.044202853 -0.12248566
v 0.0107798073 -0.0353321843 -0.129222348
v 0.00553927897 -0.03819957 -0.139551491
v 1.21086541E-09 -0.0223872084 -0.128541693
v 5.96046434E-10 -0.0335772 -0.140834659
v 5.96046434E-10 -0.0335772 -0.140834659
v 1.21086541E-09 -0.0223872084 -0.128541693
v -0.0107798073 -0.0353321843 -0.129222348
v -0.00553927897 -0.03819957 -0.139551491
v -2.40295828E-09 -0.044202853 -0.12248566
v -1.93715088E-09 -0.0428219326 -0.138268322
v 5.96046434E-10 -0.0335772 -0.140834659
v -0.00553927897 -0.03819957 -0.139551491
v 0.00553927897 -0.03819957 -0.139551491
v -1.93715088E-09 -0.0428219326 -0.138268322
v 0.0404715873 0.0113504408 0.0968843475
v 0.0350494273 0.0332411565 0.0941204652
v 0.0350494273 -0.0105402749 0.0996483415
v 0.0202357955 -0.0265653599 0.101671681
v 0.0202357955 0.0492662787 0.0920971185
v 9.53674295E-09 -0.0324309915 0.102412254
v 9.53674295E-09 0.0551318713 0.0913564935
v -0.0202357862 -0.0265653599 0.101671636
v -0.0202357862 0.0492662787 0.0920970738
v -0.0350494087 -0.0105402749 0.0996483415
v -0.0350494087 0.0332411565 0.0941204652
v -0.0404715799 0.0113504408 0.0968843997
v -0.0350494087 -0.00965480786 0.106661364
v -0.0404715799 0.0122359078 0.103897423
v -0.0350494087 0.0341266245 0.101133488
v -0.0202357769 -0.0256798938 0.108684696
v -0.0202357769 0.0501517467 0.0991101339
v 4.76837148E-09 -0.0315455236 0.109425306
v 4.76837148E-09 0.0560173392 0.0983695388
v 0.0202357955 -0.0256798938 0.108684696
v 0.0202357955 0.0501517467 0.0991101339
v 0.0350494273 -0.00965480786 0.106661364
v 0.0350494273 0.0341266245 0.101133488
v 0.0404715873 0.0122359078 0.103897423
v -0.0350494087 0.0341266245 0.101133488
v -0.0404715799 0.0122359078 0.103897423
v -0.0404715799 0.0113504408 0.0968843997
v -0.0350494087 0.0332411565 0.0941204652
v -0.0202357769 0.0501517467 0.0991101339
v -0.0202357862 0.0492662787 0.0920970738
v 4.76837148E-09 0.0560173392 0.0983695388
v 9.53674295E-09 0.0551318713 0.0913564935
v -0.0350494087 -0.0105402749 0.0996483415
v -0.0350494087 -0.00965480786 0.106661364
v -0.0202357862 -0.0265653599 0.101671636
v -0.0202357769 -0.0256798938 0.108684696
v 9.53674295E-09 -0.0324309915 0.102412254
v 4.76837148E-09 -0.0315455236 0.109425306
v 0.0350494273 -0.00965480786 0.106661364
v 0.0404715873 0.0122359078 0.103897423
v 0.0404715873 0.0113504408 0.0968843475
v 0.0350494273 -0.0105402749 0.0996483415
v 0.0202357955 -0.0256798938 0.108684696
v 0.0202357955 -0.0265653599 0.101671681
v 4.76837148E-09 -0.0315455236 0.109425306
v 9.53674295E-09 -0.0324309915 0.102412254
v 0.0350494273 0.0332411565 0.0941204652
v 0.0350494273 0.0341266245 0.101133488
v 0.0202357955 0.0492662787 0.0920971185
v 0.0202357955 0.0501517467 0.0991101339
v 9.53674295E-09 0.0551318713 0.0913564935
v 4.76837148E-09 0.0560173392 0.0983695388
v -0.005500481 -0.0966007188 -0.230106458
v -0.005500481 -0.0895492509 -0.219540551
v -1.49011592E-09 -0.0948321968 -0.216014817
v -1.49011592E-09 -0.101883657 -0.226580754
v -2.98023134E-10 -0.0913177654 -0.233632192
v -2.98023134E-10 -0.084266305 -0.22306627
v -1.60799585E-09 -0.101892844 -0.23803623
v -1.49011592E-09 -0.101883657 -0.226580754
v -1.49011592E-09 -0.0948321968 -0.216014817
v 0.00550048053 -0.0895492509 -0.219540551
v 0.00550048053 -0.0966007188 -0.230106458
v -2.98023134E-10 -0.084266305 -0.22306627
v -2.98023134E-10 -0.0913177654 -0.233632192
v -1.60799585E-09 -0.101892844 -0.23803623
v -2.98023134E-10 -0.084266305 -0.22306627
v -1.49011592E-09 -0.0948321968 -0.216014817
v -0.005500481 -0.0895492509 -0.219540551
v 0.00550048053 -0.0895492509 -0.219540551
v 0.00205799495 -0.085621424 -0.222161904
v 0.00205799495 -0.0657918453 -0.192449227
v -0.00205799541 -0.0657918453 -0.192449227
v -0.00205799541 -0.085621424 -0.222161904
v 0.00205799495 -0.0657918453 -0.192449227
v 0.00205799495 -0.073647514 -0.187206537
v -0.00205799541 -0.073647514 -0.187206537
v -0.00205799541 -0.0657918453 -0.192449227
v 0.00205799495 -0.073647514 -0.187206537
v 0.00205799495 -0.0934770927 -0.216919214
v -0.00205799541 -0.0934770927 -0.216919214
v -0.00205799541 -0.073647514 -0.187206537
v -0.00205799541 -0.085621424 -0.222161904
v -0.00205799541 -0.0657918453 -0.192449227
v -0.00205799541 -0.073647514 -0.187206537
v -0.00205799541 -0.0934770927 -0.216919214
v 0.00205799495 -0.0934770927 -0.216919214
v 0.00205799495 -0.073647514 -0.187206537
v 0.00205799495 -0.0657918453 -0.192449227
v 0.00205799495 -0.085621424 -0.222161904
v -4.47556547E-10 -0.0416307636 -0.152937964
v -4.47556547E-10 -0.046431426 -0.14973411
v -0.00455759512 -0.0504313447 -0.15572758
v -0.00455759512 -0.0456306823 -0.158931449
v -0.000933125382 -0.0673193559 -0.191429779
v -0.000933125382 -0.0721200183 -0.18822594
v 0.000933124335 -0.0721200183 -0.18822594
v 0.00455759326 -0.0504313447 -0.15572758
v 0.00455759326 -0.0456306823 -0.158931449
v 0.000933124335 -0.0673193559 -0.191429779
v -4.47556547E-10 -0.046431426 -0.14973411
v -4.47556547E-10 -0.0416307636 -0.152937964
v 0.00265957834 -0.0791068599 -0.294470936
v 0.00265957834 -0.0763622671 -0.268277496
v -0.00265957881 -0.0763622671 -0.268277496
v -0.00265957881 -0.0791068599 -0.294470936
v -0.00265957881 -0.0895439684 -0.244385183
v 0.00265957834 -0.0895439684 -0.244385183
v -0.00265957881 -0.100423984 -0.235835239
v 0.00265957834 -0.100423984 -0.235835239
v 0.00265957834 -0.0959364027 -0.313073158
v -0.00265957881 -0.0959364027 -0.313073158
v 0.00265957834 -0.100918308 -0.339774549
v -0.00265957881 -0.100918308 -0.339774549
v 0.00265957834 -0.120427437 -0.360295475
v -0.00265957881 -0.120427437 -0.360295475
v 0.00265957834 -0.151310638 -0.365670592
v -0.00265957881 -0.151310638 -0.365670592
v -0.00265957881 -0.177987158 -0.352056026
v 0.00265957834 -0.164389163 -0.360486597
v 0.00265957834 -0.177987158 -0.352056026
v -0.00265957881 -0.164389163 -0.360486597
v -0.00265957881 -0.162750915 -0.238648772
v -0.00265957881 -0.139615566 -0.226063654
v 0.00265957834 -0.139615566 -0.226063654
v 0.00265957834 -0.162750915 -0.238648772
v -0.00265957881 -0.173471615 -0.261327893
v 0.00265957834 -0.173471615 -0.261327893
v -0.00265957881 -0.196217537 -0.276173979
v 0.00265957834 -0.196217537 -0.276173979
v 0.00265957834 -0.112494215 -0.229068696
v -0.00265957881 -0.112494215 -0.229068696
v 0.00265957834 -0.100423984 -0.235835239
v -0.00265957881 -0.100423984 -0.235835239
v -0.00265957881 -0.207681969 -0.302063793
v 0.00265957834 -0.207681969 -0.302063793
v -0.00265957881 -0.200795487 -0.332645476
v 0.00265957834 -0.200795487 -0.332645476
v 0.00265957834 -0.190989986 -0.34273383
v 0.00265957834 -0.177987158 -0.352056026
v -0.00265957881 -0.177987158 -0.352056026
v -0.00265957881 -0.190989986 -0.34273383
v 0.00265957834 -0.164389163 -0.360486597
v 0.00265957834 -0.177987158 -0.352056026
v 0.00265957834 -0.190989986 -0.34273383
v 0.00265957834 -0.151310638 -0.365670592
v 0.00265957834 -0.200795487 -0.332645476
v 0.00265957834 -0.207681969 -0.302063793
v 0.00265957834 -0.120427437 -0.360295475
v 0.00265957834 -0.196217537 -0.276173979
v 0.00265957834 -0.100918308 -0.339774549
v 0.00265957834 -0.173471615 -0.261327893
v 0.00265957834 -0.0959364027 -0.313073158
v 0.00265957834 -0.162750915 -0.238648772
v 0.00265957834 -0.0791068599 -0.294470936
v 0.00265957834 -0.139615566 -0.226063654
v 0.00265957834 -0.0763622671 -0.268277496
v 0.00265957834 -0.112494215 -0.229068696
v 0.00265957834 -0.0895439684 -0.244385183
v 0.00265957834 -0.100423984 -0.235835239
v -0.00265957881 -0.0895439684 -0.244385183
v -0.00265957881 -0.100423984 -0.235835239
v -0.00265957881 -0.112494215 -0.229068696
v -0.00265957881 -0.139615566 -0.226063654
v -0.00265957881 -0.0763622671 -0.268277496
v -0.00265957881 -0.162750915 -0.238648772
v -0.00265957881 -0.0791068599 -0.294470936
v -0.00265957881 -0.173471615 -0.261327893
v -0.00265957881 -0.0959364027 -0.313073158
v -0.00265957881 -0.196217537 -0.276173979
v -0.00265957881 -0.100918308 -0.339774549
v -0.00265957881 -0.207681969 -0.302063793
v -0.00265957881 -0.120427437 -0.360295475
v -0.00265957881 -0.200795487 -0.332645476
v -0.00265957881 -0.151310638 -0.365670592
v -0.00265957881 -0.164389163 -0.360486597
v -0.00265957881 -0.190989986 -0.34273383
v -0.00265957881 -0.177987158 -0.352056026
v -0.00365186227 0.0159839056 -0.27057305
v -0.00365186227 0.0188484006 -0.298399895
v -0.00365186227 0.0206913762 -0.283167571
v -0.00365186227 0.0104659554 -0.311332494
v -0.00365186227 0.00524265273 -0.260590822
v -0.00365186227 -0.00338663091 -0.317985594
v -0.00365186227 -0.00989707001 -0.254740596
v -0.00365186227 -0.0202010535 -0.321227252
v -0.00365186227 -0.0271304604 -0.253912985
v -0.00365186227 -0.0373232625 -0.321479052
v -0.00365186227 -0.0438338369 -0.258234084
v -0.00365186227 -0.0522407517 -0.317787588
v -0.00365186227 -0.0574642159 -0.267045945
v -0.00365186227 -0.0630820617 -0.306833923
v -0.00365186227 -0.0659466162 -0.279007077
v -0.00365186227 -0.0679895356 -0.292296499
v -0.00365186227 -0.00989707001 -0.254740596
v -0.00123915577 -0.00989707001 -0.254740596
v -0.00123915577 -0.0271304604 -0.253912985
v -0.00365186227 -0.0271304604 -0.253912985
v -0.00365186227 0.00524265273 -0.260590822
v -0.00123915577 0.00524265273 -0.260590822
v -0.00365186227 0.0159839056 -0.27057305
v -0.001239156 0.0159839056 -0.27057305
v -0.00365186227 0.0206913762 -0.283167571
v -0.00123915577 0.0206913762 -0.283167571
v -0.00365186227 0.0188484006 -0.298399895
v -0.00123915577 0.0188484006 -0.298399895
v -0.00365186227 0.0104659554 -0.311332494
v -0.00123915577 0.0104659554 -0.311332494
v -0.00365186227 -0.00338663091 -0.317985594
v -0.00123915577 -0.00338663091 -0.317985594
v -0.00365186227 -0.0202010535 -0.321227252
v -0.00123915577 -0.0202010535 -0.321227252
v -0.00365186227 -0.0438338369 -0.258234084
v -0.00365186227 -0.0271304604 -0.253912985
v -0.00123915577 -0.0271304604 -0.253912985
v -0.00123915577 -0.0438338369 -0.258234084
v -0.00365186227 -0.0574642159 -0.267045945
v -0.00123915577 -0.0574642159 -0.267045945
v -0.001239156 -0.0659466162 -0.279007077
v -0.00365186227 -0.0659466162 -0.279007077
v -0.00365186227 -0.0679895356 -0.292296499
v -0.00123915577 -0.0679895356 -0.292296499
v -0.00365186227 -0.0630820617 -0.306833923
v -0.00123915577 -0.0630820617 -0.306833923
v -0.00365186227 -0.0522407517 -0.317787588
v -0.00123915577 -0.0522407517 -0.317787588
v -0.00365186227 -0.0373232625 -0.321479052
v -0.00123915577 -0.0373232625 -0.321479052
v -0.00365186227 -0.0202010535 -0.321227252
v -0.00123915577 -0.0202010535 -0.321227252
v -0.00123915577 -0.0630820617 -0.306833923
v -0.00123915577 -0.0679895356 -0.292296499
v -0.001239156 -0.0659466162 -0.279007077
v -0.00123915577 -0.0522407517 -0.317787588
v -0.00123915577 -0.0574642159 -0.267045945
v -0.00123915577 -0.0373232625 -0.321479052
v -0.00123915577 -0.0438338369 -0.258234084
v -0.00123915577 -0.0202010535 -0.321227252
v -0.00123915577 -0.0271304604 -0.253912985
v -0.00123915577 -0.00989707001 -0.254740596
v -0.00123915577 -0.00338663091 -0.317985594
v -0.00123915577 0.0104659554 -0.311332494
v -0.00123915577 0.00524265273 -0.260590822
v -0.001239156 0.0159839056 -0.27057305
v -0.00123915577 0.0188484006 -0.298399895
v -0.00123915577 0.0206913762 -0.283167571
v -0.00550048146 -0.0278927945 -0.246507525
v -0.00550048146 -0.0291935578 -0.23387149
v -1.49011603E-09 -0.0355115682 -0.234521881
v -1.49011603E-09 -0.0342108048 -0.247157931
v -2.98023217E-10 -0.0215747822 -0.245857164
v -2.98023217E-10 -0.0228755474 -0.233221099
v -3.01274367E-10 -0.027015077 -0.255033821
v -1.49011603E-09 -0.0342108048 -0.247157931
v -1.49011603E-09 -0.0355115682 -0.234521881
v 0.0055004796 -0.0291935578 -0.23387149
v 0.0055004796 -0.0278927945 -0.246507525
v -2.98023217E-10 -0.0228755474 -0.233221099
v -2.98023217E-10 -0.0215747822 -0.245857164
v -3.01274367E-10 -0.027015077 -0.255033821
v -2.98023217E-10 -0.0228755474 -0.233221099
v -1.49011603E-09 -0.0355115682 -0.234521881
v -0.00550048146 -0.0291935578 -0.23387149
v 0.0055004796 -0.0291935578 -0.23387149
v 0.00205799495 -0.0244961642 -0.233387947
v 0.00205799495 -0.0281540956 -0.197853804
v -0.00205799541 -0.0281540956 -0.197853804
v -0.00205799541 -0.0244961642 -0.233387947
v 0.00205799495 -0.0281540956 -0.197853804
v 0.00205799495 -0.0375488922 -0.198820904
v -0.00205799541 -0.0375488922 -0.198820904
v -0.00205799541 -0.0281540956 -0.197853804
v 0.00205799495 -0.0375488922 -0.198820904
v 0.00205799495 -0.0338909626 -0.234355047
v -0.00205799541 -0.0338909626 -0.234355047
v -0.00205799541 -0.0375488922 -0.198820904
v -0.00205799541 -0.0244961642 -0.233387947
v -0.00205799541 -0.0281540956 -0.197853804
v -0.00205799541 -0.0375488922 -0.198820904
v -0.00205799541 -0.0338909626 -0.234355047
v 0.00205799495 -0.0338909626 -0.234355047
v 0.00205799495 -0.0375488922 -0.198820904
v 0.00205799495 -0.0281540956 -0.197853804
v 0.00205799495 -0.0244961642 -0.233387947
v -4.47556658E-10 -0.0347196087 -0.152008504
v -4.47556658E-10 -0.0404608436 -0.152599514
v -0.00455759512 -0.0397229865 -0.15976727
v -0.00455759512 -0.0339817517 -0.15917626
v -0.000933125382 -0.0299808886 -0.198041856
v -0.000933125382 -0.0357221216 -0.198632866
v 0.000933124335 -0.0357221216 -0.198632866
v 0.00455759326 -0.0397229865 -0.15976727
v 0.00455759326 -0.0339817517 -0.15917626
v 0.000933124335 -0.0299808886 -0.198041856
v -4.47556658E-10 -0.0404608436 -0.152599514
v -4.47556658E-10 -0.0347196087 -0.152008504
vt 0.179731593 0.986798108
vt 0.211487904 0.809843421
vt 0.17020981 0.808439314
vt 0.134587184 0.983925641
vt 0.175549179 0.643067896
vt 0.217274457 0.64272362
vt 0.161918402 0.465782464
vt 0.203266293 0.464020222
vt 0.128953025 0.28366676
vt 0.164078861 0.280886531
vt 0.0683440343 0.108883098
vt 0.097701624 0.10565953
vt 0.224875897 0.989670396
vt 0.252766162 0.811247408
vt 0.258999705 0.642379165
vt 0.244614244 0.462257922
vt 0.202192575 0.277869731
vt 0.129556611 0.10216184
vt 0.0906158015 0.0418547876
vt 0.0236557871 0.011410106
vt 0.17020981 0.808439314
vt 0.211487904 0.809843421
vt 0.179731593 0.986798108
vt 0.134587184 0.983925641
vt 0.175549179 0.643067896
vt 0.217274457 0.64272362
vt 0.161918402 0.465782464
vt 0.203266293 0.464020222
vt 0.128953025 0.28366676
vt 0.164078861 0.280886531
vt 0.0683440343 0.108883098
vt 0.097701624 0.10565953
vt 0.224875897 0.989670396
vt 0.252766162 0.811247408
vt 0.258999705 0.642379165
vt 0.244614244 0.462257922
vt 0.202192575 0.277869731
vt 0.129556611 0.10216184
vt 0.0906158015 0.0418547876
vt 0.0236557871 0.011410106
vt 0.252540469 0.119891576
vt 0.200577021 0.161538303
vt 0.30022192 0.162844867
vt 0.248226166 0.205170125
vt 0.611507714 0.172923267
vt 0.535822451 0.172923267
vt 0.535822272 0.343058884
vt 0.611507535 0.353487968
vt 0.687407613 0.343064487
vt 0.687407851 0.172923267
vt 0.763307571 0.353488207
vt 0.763307691 0.172923267
vt 0.838992953 0.343058884
vt 0.838992953 0.172923267
vt 0.611506939 0.00651213527
vt 0.68740797 0.00651213527
vt 0.763308644 0.00651213527
vt 0.838992953 0.00651213527
vt 0.53582263 0.00651213527
vt 0.930807114 0.996183991
vt 0.922180951 0.986307085
vt 0.96538955 0.963864803
vt 0.985457718 0.967799127
vt 0.852021098 0.996933818
vt 0.859889865 0.986899614
vt 0.795250833 0.969608665
vt 0.815005183 0.965295315
vt 0.813820004 0.934149742
vt 0.793752015 0.930215418
vt 0.848402262 0.901830256
vt 0.857028604 0.911707401
vt 0.983958662 0.92840606
vt 0.964204371 0.932719171
vt 0.919319808 0.911114872
vt 0.927188456 0.901080728
vt 0.834759593 0.960982144
vt 0.867758453 0.97686559
vt 0.833888173 0.938084066
vt 0.865654945 0.921584547
vt 0.944449961 0.937032223
vt 0.911451221 0.921148956
vt 0.945321202 0.95993042
vt 0.913554549 0.976429939
vt 0.848402262 0.901830256
vt 0.927188456 0.901080728
vt 0.919319808 0.911114872
vt 0.857028604 0.911707401
vt 0.911451221 0.921148956
vt 0.865654945 0.921584547
vt 0.922180951 0.986307085
vt 0.930807114 0.996183991
vt 0.985457718 0.967799127
vt 0.96538955 0.963864803
vt 0.859889865 0.986899614
vt 0.852021098 0.996933818
vt 0.815005183 0.965295315
vt 0.795250833 0.969608665
vt 0.793752015 0.930215418
vt 0.813820004 0.934149742
vt 0.857028604 0.911707401
vt 0.848402262 0.901830256
vt 0.964204371 0.932719171
vt 0.983958662 0.92840606
vt 0.927188456 0.901080728
vt 0.919319808 0.911114872
vt 0.911451221 0.921148956
vt 0.944449961 0.937032223
vt 0.945321202 0.95993042
vt 0.913554549 0.976429939
vt 0.867758453 0.97686559
vt 0.834759593 0.960982144
vt 0.833888173 0.938084066
vt 0.865654945 0.921584547
vt 0.857028604 0.911707401
vt 0.919319808 0.911114872
vt 0.927188456 0.901080728
vt 0.848402262 0.901830256
vt 0.911451221 0.921148956
vt 0.865654945 0.921584547
vt 0.298199773 0.288510859
vt 0.224728882 0.294287384
vt 0.224352717 0.267752528
vt 0.297772765 0.267275691
vt 0.223040998 0.241150305
vt 0.297345996 0.246424243
vt 0.297345996 0.236827657
vt 0.223040998 0.225510761
vt 0.224352717 0.267871201
vt 0.297772765 0.267510712
vt 0.224728882 0.309560061
vt 0.298199773 0.298010647
vt 0.922360599 0.946562886
vt 0.887478054 0.926423609
vt 0.887478054 0.966702521
vt 0.852595448 0.946562886
vt 0.519471645 0.475797325
vt 0.547848105 0.418060809
vt 0.547848105 0.533533812
vt 0.625374377 0.575799942
vt 0.625374377 0.375794679
vt 0.73127681 0.591270387
vt 0.73127681 0.360324204
vt 0.837179542 0.575799942
vt 0.837179542 0.375794679
vt 0.914705634 0.533533812
vt 0.914705634 0.418060809
vt 0.943082213 0.475797325
vt 0.914705634 0.533533812
vt 0.943082213 0.475797325
vt 0.914705634 0.418060809
vt 0.837179303 0.575799942
vt 0.837179303 0.375794679
vt 0.731276929 0.591270387
vt 0.731276929 0.360324204
vt 0.625374377 0.575799942
vt 0.625374377 0.375794679
vt 0.547848105 0.533533812
vt 0.547848105 0.418060809
vt 0.519471645 0.475797325
vt 0.0565984324 0.41887778
vt 0.0565984324 0.482603043
vt 0.0974291489 0.482603043
vt 0.0974291489 0.41887778
vt 0.0565984324 0.372227579
vt 0.0974293128 0.372227579
vt 0.0565984324 0.355152428
vt 0.0974293128 0.355152428
vt 0.0974291489 0.546328306
vt 0.0565984324 0.546328306
vt 0.0974293128 0.592978537
vt 0.0565984324 0.592978537
vt 0.0974293128 0.610053658
vt 0.0565984324 0.610053658
vt 0.0565984324 0.546328306
vt 0.0565984324 0.482603043
vt 0.0974294767 0.482603043
vt 0.0974291489 0.546328306
vt 0.0565984324 0.592978537
vt 0.0974291489 0.592978537
vt 0.0565984324 0.610053658
vt 0.0974293128 0.610053658
vt 0.0974291489 0.41887778
vt 0.0565984324 0.41887778
vt 0.0974291489 0.372227579
vt 0.0565984324 0.372227579
vt 0.0974293128 0.355152428
vt 0.0565984324 0.355152428
vt 0.915213227 0.244128123
vt 0.915213227 0.296080887
vt 0.967165709 0.296080887
vt 0.967165709 0.244128123
vt 0.863260448 0.244128123
vt 0.863260448 0.296080887
vt 0.915213108 0.223151252
vt 0.967165709 0.244128123
vt 0.967165709 0.296080887
vt 0.915213227 0.296080887
vt 0.915213227 0.244128123
vt 0.863260448 0.296080887
vt 0.863260448 0.244128123
vt 0.915213108 0.223151252
vt 0.856497884 0.324281335
vt 0.970283628 0.324281335
vt 0.913390815 0.29964596
vt 0.913390815 0.348916709
vt 0.11592178 0.618580282
vt 0.11592178 0.810744226
vt 0.16020523 0.810744226
vt 0.16020523 0.618580282
vt 0.0143099912 0.832885981
vt 0.115921661 0.832885921
vt 0.11592178 0.810744107
vt 0.01431017 0.810744286
vt 0.16020523 0.810744286
vt 0.160205111 0.618580222
vt 0.115921661 0.618580282
vt 0.115921661 0.810744286
vt 0.01431017 0.618580282
vt 0.01431017 0.810744226
vt 0.11592178 0.810744226
vt 0.11592178 0.618580282
vt 0.0143098719 0.618580282
vt 0.0143099912 0.810744166
vt 0.115921482 0.810744166
vt 0.115921482 0.618580222
vt 0.538088262 0.958622217
vt 0.538088262 0.973947585
vt 0.57635498 0.973947585
vt 0.57635498 0.958622217
vt 0.783847988 0.958622277
vt 0.783847988 0.973947644
vt 0.783848226 0.973947644
vt 0.57635498 0.973947585
vt 0.57635498 0.958622217
vt 0.783848226 0.958622277
vt 0.538088262 0.973947585
vt 0.538088262 0.958622217
vt 0.0598847456 0.527238309
vt 0.0598847456 0.557191014
vt 0.0936053246 0.557191014
vt 0.0936053246 0.527238309
vt 0.0936053246 0.588065386
vt 0.0598847456 0.588065386
vt 0.0936053246 0.603480697
vt 0.0598847456 0.603480697
vt 0.0598847456 0.499061018
vt 0.0936053246 0.499061018
vt 0.0598847456 0.468323171
vt 0.0936053246 0.468323171
vt 0.0598847456 0.436292529
vt 0.0936053246 0.436292529
vt 0.0598847456 0.400877595
vt 0.0936053246 0.400877595
vt 0.0936053246 0.367381424
vt 0.0598847456 0.38520506
vt 0.0598847456 0.367381424
vt 0.0936053246 0.38520506
vt 0.0936053246 0.527238309
vt 0.0936053246 0.557191014
vt 0.0598847456 0.557191014
vt 0.0598847456 0.527238429
vt 0.0936053246 0.499060988
vt 0.0598847456 0.499060988
vt 0.0936053246 0.468323171
vt 0.0598847456 0.468323171
vt 0.0598847456 0.588065386
vt 0.0936053246 0.588065386
vt 0.0598847456 0.603480577
vt 0.0936053246 0.603480577
vt 0.0936053246 0.43629244
vt 0.0598847456 0.436292529
vt 0.0936053246 0.400877476
vt 0.0598847456 0.400877595
vt 0.0598847456 0.385204911
vt 0.0598847456 0.367381424
vt 0.0936053246 0.367381424
vt 0.0936053246 0.385204911
vt 0.639974177 0.738121092
vt 0.686970413 0.737333477
vt 0.733966708 0.738121092
vt 0.599544466 0.742453456
vt 0.7743963 0.742453456
vt 0.838615 0.772337973
vt 0.535325766 0.772337973
vt 0.855337322 0.813335359
vt 0.518603563 0.813335359
vt 0.822169304 0.850036681
vt 0.551771641 0.850036681
vt 0.834745944 0.886502981
vt 0.539194942 0.886502981
vt 0.798721313 0.920758426
vt 0.575219572 0.920758426
vt 0.727517068 0.939209282
vt 0.646423757 0.939209282
vt 0.686970413 0.940784812
vt 0.646423757 0.939209282
vt 0.686970413 0.940784812
vt 0.727517068 0.939209282
vt 0.798721313 0.920758426
vt 0.575219572 0.920758426
vt 0.834745944 0.886502981
vt 0.539194942 0.886502981
vt 0.822169304 0.850036681
vt 0.551771641 0.850036681
vt 0.855337322 0.813335359
vt 0.518603563 0.813335359
vt 0.838615 0.772337973
vt 0.535325766 0.772337973
vt 0.7743963 0.742453456
vt 0.599544466 0.742453456
vt 0.639974177 0.738121092
vt 0.733966708 0.738121092
vt 0.686970413 0.737333477
vt 0.538690031 0.688839138
vt 0.538690269 0.633475184
vt 0.525259554 0.663089931
vt 0.576937497 0.609713376
vt 0.576937199 0.710668206
vt 0.634177983 0.599422693
vt 0.634177804 0.725253999
vt 0.701697826 0.596448481
vt 0.701697826 0.730375707
vt 0.76921767 0.599422693
vt 0.769217908 0.725253999
vt 0.826458156 0.609713376
vt 0.826458454 0.710668206
vt 0.864705324 0.633475184
vt 0.864705622 0.688839138
vt 0.878136158 0.663089931
vt 0.084535189 0.596491218
vt 0.0590719059 0.596491218
vt 0.0590719059 0.606013536
vt 0.084535189 0.606013536
vt 0.084535189 0.569373667
vt 0.0590719059 0.569373667
vt 0.084535189 0.528789878
vt 0.0590719059 0.528789878
vt 0.084535189 0.480917931
vt 0.0590719059 0.480917931
vt 0.084535189 0.425859332
vt 0.0590719059 0.425859332
vt 0.084535189 0.381682277
vt 0.0590719059 0.381682277
vt 0.084535189 0.362550169
vt 0.0590719059 0.362550169
vt 0.084535189 0.357020378
vt 0.0590719059 0.357020378
vt 0.084535189 0.596491218
vt 0.084535189 0.606013536
vt 0.0590719059 0.606013536
vt 0.0590719059 0.596491218
vt 0.084535189 0.569373667
vt 0.0590719059 0.569373667
vt 0.0590719059 0.528789878
vt 0.084535189 0.528789878
vt 0.084535189 0.480917931
vt 0.0590719059 0.480917931
vt 0.084535189 0.425859332
vt 0.0590719059 0.425859332
vt 0.084535189 0.381682277
vt 0.0590719059 0.381682277
vt 0.084535189 0.362550169
vt 0.0590719059 0.362550169
vt 0.084535189 0.357020378
vt 0.0590719059 0.357020378
vt 0.864705324 0.633475184
vt 0.878136158 0.663089931
vt 0.864705622 0.688839138
vt 0.826458156 0.609713376
vt 0.826458454 0.710668206
vt 0.76921767 0.599422693
vt 0.769217908 0.725253999
vt 0.701697826 0.596448481
vt 0.701697826 0.730375707
vt 0.634177804 0.725253999
vt 0.634177983 0.599422693
vt 0.576937497 0.609713376
vt 0.576937199 0.710668206
vt 0.538690031 0.688839138
vt 0.538690269 0.633475184
vt 0.525259554 0.663089931
vt 0.915213227 0.244128123
vt 0.915213227 0.296080887
vt 0.967165709 0.296080887
vt 0.967165709 0.244128123
vt 0.863260448 0.244128123
vt 0.863260448 0.296080887
vt 0.915213108 0.223151252
vt 0.967165709 0.244128123
vt 0.967165709 0.296080887
vt 0.915213227 0.296080887
vt 0.915213227 0.244128123
vt 0.863260448 0.296080887
vt 0.863260448 0.244128123
vt 0.915213108 0.223151252
vt 0.856497884 0.324281335
vt 0.970283628 0.324281335
vt 0.913390815 0.29964596
vt 0.913390815 0.348916709
vt 0.11592178 0.618580282
vt 0.11592178 0.810744226
vt 0.16020523 0.810744226
vt 0.16020523 0.618580282
vt 0.0143099912 0.832885981
vt 0.115921661 0.832885921
vt 0.11592178 0.810744107
vt 0.01431017 0.810744286
vt 0.16020523 0.810744286
vt 0.160205111 0.618580222
vt 0.115921661 0.618580282
vt 0.115921661 0.810744286
vt 0.01431017 0.618580282
vt 0.01431017 0.810744226
vt 0.11592178 0.810744226
vt 0.11592178 0.618580282
vt 0.0143098719 0.618580282
vt 0.0143099912 0.810744166
vt 0.115921482 0.810744166
vt 0.115921482 0.618580222
vt 0.538088262 0.958622217
vt 0.538088262 0.973947585
vt 0.57635498 0.973947585
vt 0.57635498 0.958622217
vt 0.783847988 0.958622277
vt 0.783847988 0.973947644
vt 0.783848226 0.973947644
vt 0.57635498 0.973947585
vt 0.57635498 0.958622217
vt 0.783848226 0.958622277
vt 0.538088262 0.973947585
vt 0.538088262 0.958622217
vn -0.999962151 0.00831742771 0.00254123914
vn -0.999966323 0.00810374878 0.00129994098
vn -0.955946684 -0.293005228 0.0177183598
vn -0.956036806 -0.291775614 0.0293358099
vn -0.955803692 -0.293984741 -0.0034994008
vn -0.999977827 0.00665976712 1.74703582E-05
vn -0.952644289 -0.303369552 -0.0208746288
vn -0.999970376 0.00755092781 0.00150218059
vn -0.941631258 -0.333459526 -0.046210438
vn -0.999951303 0.00914081931 0.00371106365
vn -0.929445565 -0.362364054 -0.0694495812
vn -0.999966085 -0.00629506912 0.00530921761
vn -0.956020832 0.292387426 -0.0231038705
vn -0.955907702 0.293296218 -0.0147563769
vn -0.95580703 0.293973923 0.0034940308
vn -0.954263568 0.298109293 0.0226256568
vn -0.947462082 0.316165894 0.0485251658
vn -0.939797819 0.334056735 0.0720142573
vn -0.988328695 0.110227056 0.105149038
vn -0.997900248 -0.00904971175 0.0641343072
vn 0.955946684 -0.293005228 0.0177183598
vn 0.999966323 0.0081037404 0.00129994238
vn 0.999962151 0.0083174184 0.00254124147
vn 0.956036806 -0.291775614 0.0293358099
vn 0.955803692 -0.293984681 -0.00349940266
vn 0.999977827 0.00665979274 1.7470049E-05
vn 0.952644348 -0.303369522 -0.0208746269
vn 0.999970376 0.00755092269 0.00150218175
vn 0.941631258 -0.333459437 -0.0462104157
vn 0.999951303 0.00914087892 0.00371107855
vn 0.929445565 -0.362364054 -0.0694495812
vn 0.999966085 -0.00629502395 0.00530922459
vn 0.956020832 0.292387396 -0.0231038649
vn 0.955907702 0.293296218 -0.0147563722
vn 0.95580703 0.293974012 0.00349403336
vn 0.954263568 0.298109353 0.0226256624
vn 0.947462082 0.316165984 0.0485251807
vn 0.939797819 0.334056884 0.0720142871
vn 0.988328695 0.110227093 0.105149075
vn 0.997900248 -0.00904986449 0.0641342774
vn -4.60568981E-06 0.0862831622 -0.996270657
vn -5.68139239E-06 -0.287352055 -0.957825065
vn -5.68139103E-06 -0.287352115 -0.957825005
vn -5.95640722E-06 -0.618730068 -0.785603642
vn -0.999851584 0.0168944821 -0.00337793026
vn 1.29758035E-07 -0.979667902 0.200626031
vn 2.66258326E-06 -0.971873462 0.235503495
vn -0.999660134 0.0253174957 -0.00621514302
vn 3.18499474E-06 0.971818507 -0.235730439
vn 3.54577111E-07 0.979501486 -0.201436847
vn 0.999660134 0.0253176372 -0.00621516956
vn 0.999851584 0.0168945063 -0.00337793515
vn 2.66258326E-06 -0.971873462 0.235503495
vn 1.29758035E-07 -0.979667902 0.200626031
vn -0.999836862 0.0178018231 -0.00306668831
vn -0 0.986612022 -0.163085312
vn 0.999836862 0.0178017933 -0.00306668505
vn -0 -0.986675918 0.162697881
vn -0 -0.986675918 0.162697881
vn 0.732132494 0.0869184583 -0.675593913
vn 0.961813688 0.0349262394 -0.271467566
vn 0.96181339 0.216653273 -0.167261362
vn 0.732132196 0.539177656 -0.416257024
vn 0.732134581 -0.416254491 -0.539176404
vn 0.961813688 -0.167260751 -0.216652229
vn 0.732132912 -0.675593555 -0.0869182423
vn 0.961813629 -0.271467954 -0.0349243209
vn 0.96181345 -0.21665363 0.167260617
vn 0.732132018 -0.539177656 0.416257352
vn 0.704623282 -0.352976859 0.615559399
vn 0.955691218 -0.146433264 0.25536564
vn 0.732132018 0.675594449 0.0869178772
vn 0.961813509 0.271468163 0.034925621
vn 0.955690563 0.255367607 0.146433815
vn 0.704623163 0.615559757 0.35297659
vn 0.732131898 0.675594628 0.0869178995
vn 0.732132494 0.416257113 0.539177299
vn 0.732132912 0.539176822 -0.416256815
vn 0.704624057 0.352975905 -0.615559101
vn 0.732131958 -0.675594687 -0.0869172066
vn 0.704622626 -0.615560234 -0.352976769
vn 0.732132852 -0.539176822 0.416256875
vn 0.732132912 -0.0869176835 0.675593674
vn 0.704624295 0.185672447 0.684857905
vn 0.704624295 0.185672447 0.684857845
vn 0.955691755 0.0770262778 0.284113169
vn 0.955691755 0.0770262778 0.284113079
vn 0.704622567 -0.18567273 -0.684859633
vn 0.704622626 -0.18567273 -0.684859514
vn -0.961813688 0.0349260196 -0.271467566
vn -0.732132494 0.0869183242 -0.675594032
vn -0.732132256 0.539177716 -0.416256875
vn -0.96181345 0.216653183 -0.167261094
vn -0.961813629 -0.167261139 -0.216652587
vn -0.732134342 -0.416254789 -0.539176404
vn -0.961813509 -0.271468282 -0.0349245407
vn -0.732132614 -0.675593793 -0.0869184881
vn -0.732132018 -0.539177656 0.416257352
vn -0.96181345 -0.21665363 0.167260602
vn -0.955691218 -0.146433264 0.25536564
vn -0.704623282 -0.352976859 0.615559399
vn -0.961813569 0.271468043 0.0349255651
vn -0.732132018 0.675594449 0.0869178772
vn -0.704623163 0.615559757 0.35297659
vn -0.955690622 0.255367517 0.146433741
vn -0.70462209 -0.615560651 -0.352977067
vn -0.73213172 -0.675594926 -0.0869173333
vn -0.732132852 -0.539176822 0.416256875
vn -0.732133329 -0.0869178176 0.675593138
vn -0.732132912 0.416256905 0.539176762
vn -0.732131839 0.675594687 0.0869178623
vn -0.732132912 0.539176822 -0.416256815
vn -0.704624057 0.352975905 -0.615559101
vn -0.955692053 0.0770259947 0.284112066
vn -0.955692053 0.0770259947 0.284112066
vn -0.70462507 0.185672283 0.68485707
vn -0.70462507 0.185672283 0.68485707
vn -0.704622149 -0.185672849 -0.684859991
vn -0.70462209 -0.185672835 -0.684860051
vn -0 -0.995113075 -0.0987417251
vn -0 -0.995113075 -0.0987417325
vn 0.895907342 -0.117067926 -0.428538382
vn 0.895926416 -0.118818112 -0.428016514
vn -1.47957309E-07 0.751351655 -0.659902036
vn -1.30834735E-07 0.751351655 -0.659902036
vn -1.30834735E-07 0.751351655 -0.659902036
vn -1.47957309E-07 0.751351655 -0.659902036
vn -0.895907283 -0.11706724 -0.428538769
vn -0.895926356 -0.118817583 -0.428016812
vn -0 -0.995113075 -0.0987417325
vn -0 -0.995113075 -0.0987417251
vn -0 -0.267484456 -0.963562191
vn -0 -0.267484814 -0.963562071
vn -0 -0.267484784 -0.963562071
vn -0 -0.267485261 -0.963561952
vn -1.11599275E-05 -0.125266194 -0.992123187
vn -2.53538786E-07 -0.125266269 -0.992123187
vn -2.53539127E-07 -0.125266269 -0.992123187
vn 1.27714623E-06 -0.125266284 -0.992123187
vn 1.27714657E-06 -0.125266299 -0.992123187
vn 1.18756191E-06 -0.125266299 -0.992123187
vn 1.18756145E-06 -0.125266269 -0.992123187
vn -0 -0.125266284 -0.992123187
vn -0 -0.125266284 -0.992123187
vn -3.79362018E-06 -0.125266284 -0.992123187
vn -3.79362018E-06 -0.125266284 -0.992123187
vn -0 -0.125266314 -0.992123127
vn 4.42678925E-07 0.125266239 0.992123187
vn 1.59427157E-06 0.125266299 0.992123187
vn 4.42678953E-07 0.125266254 0.992123187
vn 3.34621831E-07 0.125266314 0.992123127
vn 3.34621831E-07 0.125266314 0.992123127
vn -0 0.125266314 0.992123127
vn -0 0.125266314 0.992123127
vn -3.34621689E-07 0.125266314 0.992123127
vn -3.34621689E-07 0.125266314 0.992123127
vn -4.63844799E-07 0.125266269 0.992123187
vn -4.63844799E-07 0.125266269 0.992123187
vn -3.18855086E-06 0.125266194 0.992123187
vn -0.883755803 0.464262486 -0.0586175472
vn -1 -1.09480972E-07 0
vn -1 0 0
vn -0.883755624 0.464262813 -0.0586175807
vn -0.53275001 0.839606822 -0.106008619
vn -0.53275013 0.839606762 -0.106008612
vn -6.10136567E-07 0.992123246 -0.125265762
vn -5.70345264E-07 0.992123246 -0.125265762
vn -0.883755505 -0.464263022 0.058618132
vn -0.883755565 -0.464262962 0.058618132
vn -0.532749951 -0.839606822 0.106008992
vn -0.532749593 -0.83960706 0.106009021
vn -4.3770649E-07 -0.992123246 0.125265673
vn -4.77498077E-07 -0.992123246 0.125265688
vn 0.883756101 -0.464261979 0.0586178452
vn 1 -3.04112461E-07 0
vn 1 0 0
vn 0.88375622 -0.464261651 0.0586178042
vn 0.532749832 -0.839606881 0.106009103
vn 0.532749832 -0.839606881 0.106009103
vn -4.77498077E-07 -0.992123246 0.125265688
vn -4.3770649E-07 -0.992123246 0.125265673
vn 0.883756459 0.464261204 -0.0586177371
vn 0.883756459 0.464261264 -0.0586177483
vn 0.532749891 0.839606822 -0.106008969
vn 0.53275001 0.839606762 -0.106008962
vn -5.70345264E-07 0.992123246 -0.125265762
vn -6.10136567E-07 0.992123246 -0.125265762
vn -0.991445482 -0.0724541023 -0.108564734
vn -1 2.11642316E-07 2.11642316E-07
vn -1.08614955E-07 -0.831776977 0.555109918
vn -0 -0.901743114 0.432272375
vn -0 0.745188415 -0.666853964
vn 2.17229882E-07 0.831777334 -0.555109501
vn -1.94947475E-07 -0.555106997 -0.831778944
vn -0 -0.901743114 0.432272375
vn -1.08614955E-07 -0.831776977 0.555109918
vn 1 -2.11642316E-07 3.99768822E-07
vn 0.991445482 -0.0724544153 -0.108564325
vn 2.17229882E-07 0.831777334 -0.555109501
vn -0 0.745188415 -0.666853964
vn -1.94947475E-07 -0.555106997 -0.831778944
vn 1.36489814E-06 0.555110514 0.831776619
vn 1.36489859E-06 0.555110633 0.831776559
vn 5.45959711E-06 0.555110455 0.831776679
vn -2.72979833E-06 0.555110633 0.8317765
vn -0 0.831777215 -0.55510956
vn -0 0.831777215 -0.55510956
vn -0 0.831777215 -0.55510956
vn -0 0.831777215 -0.55510956
vn -0 0.555108786 0.831777692
vn -0 0.555108786 0.831777692
vn -0 0.555108786 0.831777692
vn -0 0.555108786 0.831777692
vn -0 -0.831777215 0.55510956
vn -0 -0.831777215 0.55510956
vn -0 -0.831777215 0.55510956
vn -0 -0.831777215 0.55510956
vn -1 0 0
vn -1 0 0
vn -1 0 0
vn -1 0 0
vn 1 0 0
vn 1 0 0
vn 1 0 0
vn 1 0 0
vn -4.32764239E-07 0.555110037 0.831776917
vn -3.60636903E-07 0.555110037 0.831776917
vn -0.999796748 0.0111911362 0.0167687181
vn -0.999796748 0.0111910943 0.0167686455
vn -0.995724797 -0.0512752272 -0.076830931
vn -0.995724797 -0.0512752235 -0.076830931
vn 0.995724797 -0.0512752496 -0.076830931
vn 0.999796748 0.0111910161 0.0167685375
vn 0.999796748 0.0111909732 0.016768463
vn 0.995724797 -0.0512752533 -0.076830931
vn -3.60636903E-07 0.555110037 0.831776917
vn -4.32764239E-07 0.555110037 0.831776917
vn -0 0.916337192 -0.400407434
vn -0 0.978970349 0.204002529
vn -0 0.978970349 0.204002529
vn -0 0.916337192 -0.400407434
vn -0 0.803196967 0.595713556
vn -0 0.803196967 0.595713556
vn -0 0.55510962 0.831777155
vn -0 0.55510962 0.831777155
vn -0 0.90101254 -0.433793038
vn -0 0.90101254 -0.433793038
vn -0 0.887713194 -0.460396826
vn -0 0.887713194 -0.460396826
vn -0 0.457068622 -0.889431417
vn -0 0.457068622 -0.889431417
vn -0 -0.141701505 -0.98990941
vn -0 -0.141701505 -0.98990941
vn -0 -0.55510956 -0.831777215
vn -0 -0.454578161 -0.890706837
vn -0 -0.55510956 -0.831777215
vn -0 -0.454578161 -0.890706837
vn -0 -0.721363127 0.692557037
vn -0 -0.187251225 0.982312024
vn -0 -0.187251225 0.982312024
vn -0 -0.721363127 0.692557037
vn -0 -0.746313095 0.665595114
vn -0 -0.746313095 0.665595114
vn -0 -0.765776932 0.643106282
vn -0 -0.765776932 0.643106282
vn -0 0.241922706 0.970295548
vn -0 0.241922706 0.970295548
vn -0 0.55510962 0.831777155
vn -0 0.55510962 0.831777155
vn -0 -0.996730208 0.0808014423
vn -0 -0.996730208 0.0808014423
vn -0 -0.859764695 -0.510690331
vn -0 -0.859764695 -0.510690331
vn -0 -0.648103297 -0.761552453
vn -0 -0.55510956 -0.831777215
vn -0 -0.55510956 -0.831777215
vn -0 -0.648103297 -0.761552453
vn 1 0 0
vn 1 0 0
vn 1 0 0
vn 1 0 0
vn 1 0 0
vn 1 0 0
vn 1 0 0
vn 1 0 0
vn 1 0 0
vn 1 0 0
vn 1 0 0
vn 1 0 0
vn 1 0 0
vn 1 0 0
vn 1 0 0
vn 1 0 0
vn 1 0 0
vn 1 -1.00749268E-07 0
vn -1 0 0
vn -1 1.00749268E-07 0
vn -1 0 0
vn -1 0 0
vn -1 0 0
vn -1 0 0
vn -1 0 0
vn -1 0 0
vn -1 0 0
vn -1 0 0
vn -1 0 0
vn -1 0 0
vn -1 0 0
vn -1 0 0
vn -1 0 0
vn -1 0 0
vn -1 0 0
vn -1 0 0
vn -1 0 0
vn -1 0 0
vn -1 2.51186322E-07 0
vn -1 0 0
vn -1 0 0
vn -1 0 0
vn -1 0 0
vn -1 0 0
vn -1 0 0
vn -1 0 0
vn -1 0 0
vn -1 0 0
vn -1 0 0
vn -1 0 0
vn -1 0 0
vn -1 0 0
vn -0 0.202023923 0.979380548
vn -0 0.202023923 0.979380548
vn -0 -0.102399752 0.994743288
vn -0 -0.102399752 0.994743288
vn -0 0.52184093 0.853042841
vn -0 0.52184093 0.853042841
vn -0 0.825281978 0.564720929
vn -0 0.825281978 0.564720929
vn -0 0.994743407 0.102398746
vn -0 0.994743407 0.102398746
vn -0 0.939968705 -0.341260523
vn -0 0.939968705 -0.341260523
vn -0 0.660986543 -0.750397742
vn -0 0.660986543 -0.750397742
vn -0 0.307064325 -0.951688766
vn -0 0.307064325 -0.951688766
vn -0 0.102400161 -0.994743288
vn -0 0.102400161 -0.994743288
vn -0 -0.397310078 0.917684436
vn -0 -0.102399752 0.994743288
vn -0 -0.102399752 0.994743288
vn -0 -0.397310078 0.917684436
vn -0 -0.684682012 0.72884196
vn -0 -0.684682012 0.72884196
vn -0 -0.923021615 0.384748071
vn -0 -0.923021615 0.384748071
vn -0 -0.994743168 -0.102400921
vn -0 -0.994743168 -0.102400921
vn -0 -0.850733936 -0.525596499
vn -0 -0.850733936 -0.525596499
vn -0 -0.494251102 -0.869319201
vn -0 -0.494251102 -0.869319201
vn -0 -0.106743276 -0.994286656
vn -0 -0.106743276 -0.994286656
vn -0 0.102400161 -0.994743288
vn -0 0.102400161 -0.994743288
vn 1 0 0
vn 1 0 0
vn 1 0 0
vn 1 0 0
vn 1 0 0
vn 1 0 0
vn 1 0 0
vn 1 0 0
vn 1 0 0
vn 1 0 0
vn 1 0 0
vn 1 0 0
vn 1 0 0
vn 1 0 0
vn 1 0 0
vn 1 0 0
vn -0.991358578 0.0134327812 -0.130490243
vn -1 8.46570742E-07 0
vn 2.17229768E-07 -0.994743347 -0.102399677
vn 1.62984151E-07 -0.970460892 -0.241258562
vn -0 0.999258876 -0.0384936221
vn -0 0.994743347 0.102399588
vn 2.317515E-07 0.102400847 -0.994743168
vn 1.62984151E-07 -0.970460892 -0.241258562
vn 2.17229768E-07 -0.994743347 -0.102399677
vn 1 0 0
vn 0.991358578 0.0134323342 -0.130490154
vn -0 0.994743347 0.102399588
vn -0 0.999258876 -0.0384936221
vn 2.317515E-07 0.102400847 -0.994743168
vn -0 -0.102400564 0.994743228
vn -0 -0.102400564 0.994743228
vn -0 -0.102400586 0.994743228
vn -0 -0.102400541 0.994743228
vn -0 0.994743288 0.102400236
vn -0 0.994743288 0.102400236
vn -0 0.994743288 0.102400236
vn -0 0.994743288 0.102400236
vn -0 -0.102399051 0.994743407
vn -0 -0.102399051 0.994743407
vn -0 -0.102399051 0.994743407
vn -0 -0.102399051 0.994743407
vn -0 -0.994743288 -0.102400236
vn -0 -0.994743288 -0.102400236
vn -0 -0.994743288 -0.102400236
vn -0 -0.994743288 -0.102400236
vn -1 0 0
vn -1 0 0
vn -1 0 0
vn -1 0 0
vn 1 0 0
vn 1 0 0
vn 1 0 0
vn 1 0 0
vn -0 -0.102400318 0.994743228
vn -0 -0.102400318 0.994743228
vn -0.999796748 -0.00206435961 0.0200538952
vn -0.999796748 -0.00206436682 0.0200539678
vn -0.995724797 0.00945871789 -0.0918842033
vn -0.995724797 0.00945871789 -0.0918842182
vn 0.995724797 0.0094587151 -0.0918841213
vn 0.999796748 -0.00206436077 0.0200539771
vn 0.999796748 -0.00206436822 0.0200540666
vn 0.995724797 0.0094587151 -0.0918841287
vn -0 -0.102400318 0.994743228
vn -0 -0.102400318 0.994743228
g wp_013_003_001_Mesh_0
f 3/3/3 2/2/2 1/1/1
f 4/4/4 3/3/3 1/1/1
f 2/2/2 3/3/3 5/5/5
f 6/6/6 2/2/2 5/5/5
f 6/6/6 5/5/5 7/7/7
f 8/8/8 6/6/6 7/7/7
f 8/8/8 7/7/7 9/9/9
f 10/10/10 8/8/8 9/9/9
f 10/10/10 9/9/9 11/11/11
f 12/12/12 10/10/10 11/11/11
f 1/1/1 2/2/2 13/13/13
f 2/2/2 14/14/14 13/13/13
f 2/2/2 6/6/6 14/14/14
f 6/6/6 15/15/15 14/14/14
f 6/6/6 8/8/8 15/15/15
f 8/8/8 16/16/16 15/15/15
f 8/8/8 10/10/10 16/16/16
f 10/10/10 17/17/17 16/16/16
f 10/10/10 12/12/12 17/17/17
f 12/12/12 18/18/18 17/17/17
f 12/12/12 19/19/19 18/18/18
f 12/12/12 20/20/20 19/19/19
f 12/12/12 11/11/11 20/20/20
f 23/23/23 22/22/22 21/21/21
f 24/24/24 23/23/23 21/21/21
f 21/21/21 22/22/22 25/25/25
f 22/22/22 26/26/26 25/25/25
f 25/25/25 26/26/26 27/27/27
f 26/26/26 28/28/28 27/27/27
f 27/27/27 28/28/28 29/29/29
f 28/28/28 30/30/30 29/29/29
f 29/29/29 30/30/30 31/31/31
f 30/30/30 32/32/32 31/31/31
f 22/22/22 23/23/23 33/33/33
f 34/34/34 22/22/22 33/33/33
f 26/26/26 22/22/22 34/34/34
f 35/35/35 26/26/26 34/34/34
f 28/28/28 26/26/26 35/35/35
f 30/30/30 28/28/28 36/36/36
f 36/36/36 28/28/28 35/35/35
f 37/37/37 30/30/30 36/36/36
f 32/32/32 30/30/30 37/37/37
f 38/38/38 32/32/32 37/37/37
f 39/39/39 32/32/32 38/38/38
f 40/40/40 32/32/32 39/39/39
f 40/40/40 31/31/31 32/32/32
f 43/43/43 42/42/42 41/41/41
f 44/44/44 42/42/42 43/43/43
f 47/47/47 46/46/46 45/45/45
f 48/48/48 47/47/47 45/45/45
f 48/48/48 45/45/45 49/49/49
f 45/45/45 50/50/50 49/49/49
f 49/49/49 50/50/50 51/51/51
f 50/50/50 52/52/52 51/51/51
f 51/51/51 52/52/52 53/53/53
f 52/52/52 54/54/54 53/53/53
f 45/45/45 55/55/55 50/50/50
f 45/45/45 46/46/46 55/55/55
f 55/55/55 56/56/56 50/50/50
f 50/50/50 56/56/56 52/52/52
f 56/56/56 57/57/57 52/52/52
f 52/52/52 57/57/57 58/58/58
f 54/54/54 52/52/52 58/58/58
f 46/46/46 59/59/59 55/55/55
f 62/62/62 61/61/61 60/60/60
f 63/63/63 62/62/62 60/60/60
f 60/60/60 61/61/61 64/64/64
f 61/61/61 65/65/65 64/64/64
f 64/64/64 65/65/65 66/66/66
f 65/65/65 67/67/67 66/66/66
f 67/67/67 68/68/68 66/66/66
f 68/68/68 69/69/69 66/66/66
f 69/69/69 68/68/68 70/70/70
f 68/68/68 71/71/71 70/70/70
f 62/62/62 63/63/63 72/72/72
f 73/73/73 62/62/62 72/72/72
f 74/74/74 73/73/73 72/72/72
f 75/75/75 74/74/74 72/72/72
f 67/67/67 65/65/65 76/76/76
f 65/65/65 77/77/77 76/76/76
f 78/78/78 68/68/68 67/67/67
f 76/76/76 78/78/78 67/67/67
f 68/68/68 78/78/78 79/79/79
f 71/71/71 68/68/68 79/79/79
f 73/73/73 74/74/74 80/80/80
f 74/74/74 81/81/81 80/80/80
f 80/80/80 82/82/82 73/73/73
f 82/82/82 62/62/62 73/73/73
f 62/62/62 82/82/82 83/83/83
f 61/61/61 62/62/62 83/83/83
f 61/61/61 83/83/83 77/77/77
f 65/65/65 61/61/61 77/77/77
f 86/86/86 85/85/85 84/84/84
f 87/87/87 86/86/86 84/84/84
f 88/88/88 86/86/86 87/87/87
f 89/89/89 88/88/88 87/87/87
f 92/92/92 91/91/91 90/90/90
f 93/93/93 92/92/92 90/90/90
f 90/90/90 91/91/91 94/94/94
f 91/91/91 95/95/95 94/94/94
f 94/94/94 95/95/95 96/96/96
f 95/95/95 97/97/97 96/96/96
f 97/97/97 98/98/98 96/96/96
f 98/98/98 99/99/99 96/96/96
f 99/99/99 98/98/98 100/100/100
f 98/98/98 101/101/101 100/100/100
f 92/92/92 93/93/93 102/102/102
f 103/103/103 92/92/92 102/102/102
f 104/104/104 103/103/103 102/102/102
f 105/105/105 104/104/104 102/102/102
f 106/106/106 105/105/105 102/102/102
f 107/107/107 106/106/106 102/102/102
f 102/102/102 93/93/93 108/108/108
f 107/107/107 102/102/102 108/108/108
f 108/108/108 93/93/93 90/90/90
f 109/109/109 108/108/108 90/90/90
f 109/109/109 90/90/90 94/94/94
f 110/110/110 109/109/109 94/94/94
f 110/110/110 94/94/94 96/96/96
f 111/111/111 110/110/110 96/96/96
f 111/111/111 96/96/96 112/112/112
f 96/96/96 99/99/99 112/112/112
f 112/112/112 99/99/99 100/100/100
f 113/113/113 112/112/112 100/100/100
f 116/116/116 115/115/115 114/114/114
f 117/117/117 116/116/116 114/114/114
f 114/114/114 115/115/115 118/118/118
f 119/119/119 114/114/114 118/118/118
f 122/122/122 121/121/121 120/120/120
f 123/123/123 122/122/122 120/120/120
f 124/124/124 122/122/122 123/123/123
f 125/125/125 124/124/124 123/123/123
f 128/128/128 127/127/127 126/126/126
f 129/129/129 128/128/128 126/126/126
f 130/130/130 128/128/128 129/129/129
f 131/131/131 130/130/130 129/129/129
f 134/134/134 133/133/133 132/132/132
f 133/133/133 134/134/134 135/135/135
f 138/138/138 137/137/137 136/136/136
f 138/138/138 139/139/139 137/137/137
f 139/139/139 140/140/140 137/137/137
f 139/139/139 141/141/141 140/140/140
f 141/141/141 142/142/142 140/140/140
f 141/141/141 143/143/143 142/142/142
f 143/143/143 144/144/144 142/142/142
f 143/143/143 145/145/145 144/144/144
f 145/145/145 146/146/146 144/144/144
f 145/145/145 147/147/147 146/146/146
f 150/150/150 149/149/149 148/148/148
f 150/150/150 148/148/148 151/151/151
f 152/152/152 150/150/150 151/151/151
f 152/152/152 151/151/151 153/153/153
f 154/154/154 152/152/152 153/153/153
f 154/154/154 153/153/153 155/155/155
f 156/156/156 154/154/154 155/155/155
f 156/156/156 155/155/155 157/157/157
f 158/158/158 156/156/156 157/157/157
f 159/159/159 158/158/158 157/157/157
f 162/162/162 161/161/161 160/160/160
f 163/163/163 162/162/162 160/160/160
f 163/163/163 160/160/160 164/164/164
f 165/165/165 163/163/163 164/164/164
f 165/165/165 164/164/164 166/166/166
f 167/167/167 165/165/165 166/166/166
f 162/162/162 168/168/168 161/161/161
f 168/168/168 169/169/169 161/161/161
f 168/168/168 170/170/170 169/169/169
f 170/170/170 171/171/171 169/169/169
f 170/170/170 172/172/172 171/171/171
f 172/172/172 173/173/173 171/171/171
f 176/176/176 175/175/175 174/174/174
f 177/177/177 176/176/176 174/174/174
f 177/177/177 174/174/174 178/178/178
f 179/179/179 177/177/177 178/178/178
f 179/179/179 178/178/178 180/180/180
f 181/181/181 179/179/179 180/180/180
f 176/176/176 182/182/182 175/175/175
f 182/182/182 183/183/183 175/175/175
f 182/182/182 184/184/184 183/183/183
f 184/184/184 185/185/185 183/183/183
f 184/184/184 186/186/186 185/185/185
f 186/186/186 187/187/187 185/185/185
f 190/190/190 189/189/189 188/188/188
f 191/191/191 190/190/190 188/188/188
f 188/188/188 189/189/189 192/192/192
f 189/189/189 193/193/193 192/192/192
f 188/188/188 194/194/194 191/191/191
f 188/188/188 192/192/192 194/194/194
f 197/197/197 196/196/196 195/195/195
f 198/198/198 197/197/197 195/195/195
f 199/199/199 197/197/197 198/198/198
f 200/200/200 199/199/199 198/198/198
f 195/195/195 201/201/201 198/198/198
f 198/198/198 201/201/201 200/200/200
f 204/204/204 203/203/203 202/202/202
f 203/203/203 205/205/205 202/202/202
f 208/208/208 207/207/207 206/206/206
f 209/209/209 208/208/208 206/206/206
f 212/212/212 211/211/211 210/210/210
f 213/213/213 212/212/212 210/210/210
f 216/216/216 215/215/215 214/214/214
f 217/217/217 216/216/216 214/214/214
f 220/220/220 219/219/219 218/218/218
f 221/221/221 220/220/220 218/218/218
f 224/224/224 223/223/223 222/222/222
f 225/225/225 224/224/224 222/222/222
f 228/228/228 227/227/227 226/226/226
f 229/229/229 228/228/228 226/226/226
f 228/228/228 229/229/229 230/230/230
f 231/231/231 228/228/228 230/230/230
f 234/234/234 233/233/233 232/232/232
f 235/235/235 234/234/234 232/232/232
f 236/236/236 233/233/233 234/234/234
f 237/237/237 236/236/236 234/234/234
f 240/240/240 239/239/239 238/238/238
f 241/241/241 240/240/240 238/238/238
f 239/239/239 240/240/240 242/242/242
f 243/243/243 239/239/239 242/242/242
f 242/242/242 244/244/244 243/243/243
f 244/244/244 245/245/245 243/243/243
f 241/241/241 238/238/238 246/246/246
f 247/247/247 241/241/241 246/246/246
f 247/247/247 246/246/246 248/248/248
f 249/249/249 247/247/247 248/248/248
f 249/249/249 248/248/248 250/250/250
f 251/251/251 249/249/249 250/250/250
f 251/251/251 250/250/250 252/252/252
f 253/253/253 251/251/251 252/252/252
f 254/254/254 253/253/253 252/252/252
f 254/254/254 252/252/252 255/255/255
f 255/255/255 256/256/256 254/254/254
f 254/254/254 257/257/257 253/253/253
f 260/260/260 259/259/259 258/258/258
f 261/261/261 260/260/260 258/258/258
f 261/261/261 258/258/258 262/262/262
f 263/263/263 261/261/261 262/262/262
f 263/263/263 262/262/262 264/264/264
f 265/265/265 263/263/263 264/264/264
f 260/260/260 266/266/266 259/259/259
f 266/266/266 267/267/267 259/259/259
f 267/267/267 266/266/266 268/268/268
f 269/269/269 267/267/267 268/268/268
f 265/265/265 264/264/264 270/270/270
f 271/271/271 265/265/265 270/270/270
f 271/271/271 270/270/270 272/272/272
f 273/273/273 271/271/271 272/272/272
f 274/274/274 273/273/273 272/272/272
f 272/272/272 275/275/275 274/274/274
f 272/272/272 276/276/276 275/275/275
f 272/272/272 277/277/277 276/276/276
f 280/280/280 279/279/279 278/278/278
f 280/280/280 278/278/278 281/281/281
f 282/282/282 280/280/280 281/281/281
f 282/282/282 281/281/281 283/283/283
f 281/281/281 284/284/284 283/283/283
f 283/283/283 284/284/284 285/285/285
f 284/284/284 286/286/286 285/285/285
f 285/285/285 286/286/286 287/287/287
f 286/286/286 288/288/288 287/287/287
f 287/287/287 288/288/288 289/289/289
f 288/288/288 290/290/290 289/289/289
f 289/289/289 290/290/290 291/291/291
f 290/290/290 292/292/292 291/291/291
f 291/291/291 292/292/292 293/293/293
f 292/292/292 294/294/294 293/293/293
f 294/294/294 295/295/295 293/293/293
f 298/298/298 297/297/297 296/296/296
f 298/298/298 296/296/296 299/299/299
f 296/296/296 300/300/300 299/299/299
f 299/299/299 300/300/300 301/301/301
f 300/300/300 302/302/302 301/301/301
f 301/301/301 302/302/302 303/303/303
f 302/302/302 304/304/304 303/303/303
f 303/303/303 304/304/304 305/305/305
f 304/304/304 306/306/306 305/305/305
f 305/305/305 306/306/306 307/307/307
f 306/306/306 308/308/308 307/307/307
f 307/307/307 308/308/308 309/309/309
f 308/308/308 310/310/310 309/309/309
f 310/310/310 311/311/311 309/309/309
f 311/311/311 312/312/312 309/309/309
f 311/311/311 313/313/313 312/312/312
f 316/316/316 315/315/315 314/314/314
f 315/315/315 317/317/317 314/314/314
f 317/317/317 318/318/318 314/314/314
f 317/317/317 319/319/319 318/318/318
f 319/319/319 320/320/320 318/318/318
f 319/319/319 321/321/321 320/320/320
f 321/321/321 322/322/322 320/320/320
f 321/321/321 323/323/323 322/322/322
f 323/323/323 324/324/324 322/322/322
f 323/323/323 325/325/325 324/324/324
f 325/325/325 326/326/326 324/324/324
f 325/325/325 327/327/327 326/326/326
f 327/327/327 328/328/328 326/326/326
f 327/327/327 329/329/329 328/328/328
f 332/332/332 331/331/331 330/330/330
f 333/333/333 332/332/332 330/330/330
f 330/330/330 331/331/331 334/334/334
f 331/331/331 335/335/335 334/334/334
f 336/336/336 334/334/334 335/335/335
f 337/337/337 336/336/336 335/335/335
f 336/336/336 337/337/337 338/338/338
f 337/337/337 339/339/339 338/338/338
f 338/338/338 339/339/339 340/340/340
f 339/339/339 341/341/341 340/340/340
f 340/340/340 341/341/341 342/342/342
f 341/341/341 343/343/343 342/342/342
f 342/342/342 343/343/343 344/344/344
f 343/343/343 345/345/345 344/344/344
f 344/344/344 345/345/345 346/346/346
f 345/345/345 347/347/347 346/346/346
f 350/350/350 349/349/349 348/348/348
f 351/351/351 350/350/350 348/348/348
f 351/351/351 348/348/348 352/352/352
f 353/353/353 351/351/351 352/352/352
f 353/353/353 352/352/352 354/354/354
f 352/352/352 355/355/355 354/354/354
f 354/354/354 355/355/355 356/356/356
f 357/357/357 354/354/354 356/356/356
f 357/357/357 356/356/356 358/358/358
f 359/359/359 357/357/357 358/358/358
f 359/359/359 358/358/358 360/360/360
f 361/361/361 359/359/359 360/360/360
f 361/361/361 360/360/360 362/362/362
f 363/363/363 361/361/361 362/362/362
f 363/363/363 362/362/362 364/364/364
f 365/365/365 363/363/363 364/364/364
f 368/368/368 367/367/367 366/366/366
f 368/368/368 366/366/366 369/369/369
f 370/370/370 368/368/368 369/369/369
f 370/370/370 369/369/369 371/371/371
f 372/372/372 370/370/370 371/371/371
f 371/371/371 373/373/373 372/372/372
f 373/373/373 374/374/374 372/372/372
f 374/374/374 373/373/373 375/375/375
f 373/373/373 376/376/376 375/375/375
f 376/376/376 377/377/377 375/375/375
f 377/377/377 378/378/378 375/375/375
f 378/378/378 377/377/377 379/379/379
f 377/377/377 380/380/380 379/379/379
f 379/379/379 380/380/380 381/381/381
f 384/384/384 383/383/383 382/382/382
f 385/385/385 384/384/384 382/382/382
f 382/382/382 383/383/383 386/386/386
f 383/383/383 387/387/387 386/386/386
f 382/382/382 388/388/388 385/385/385
f 382/382/382 386/386/386 388/388/388
f 391/391/391 390/390/390 389/389/389
f 392/392/392 391/391/391 389/389/389
f 393/393/393 391/391/391 392/392/392
f 394/394/394 393/393/393 392/392/392
f 389/389/389 395/395/395 392/392/392
f 392/392/392 395/395/395 394/394/394
f 398/398/398 397/397/397 396/396/396
f 397/397/397 399/399/399 396/396/396
f 402/402/402 401/401/401 400/400/400
f 403/403/403 402/402/402 400/400/400
f 406/406/406 405/405/405 404/404/404
f 407/407/407 406/406/406 404/404/404
f 410/410/410 409/409/409 408/408/408
f 411/411/411 410/410/410 408/408/408
f 414/414/414 413/413/413 412/412/412
f 415/415/415 414/414/414 412/412/412
f 418/418/418 417/417/417 416/416/416
f 419/419/419 418/418/418 416/416/416
f 422/422/422 421/421/421 420/420/420
f 423/423/423 422/422/422 420/420/420
f 422/422/422 423/423/423 424/424/424
f 425/425/425 422/422/422 424/424/424
f 428/428/428 427/427/427 426/426/426
f 429/429/429 428/428/428 426/426/426
f 430/430/430 427/427/427 428/428/428
f 431/431/431 430/430/430 428/428/428
