g wp_013_004_002_Mesh_a
v 4.04608986E-18 0.0330388285 0.101270787
v -0.0121891992 0.0122359199 0.103897378
v 0.0121892095 0.0122359199 0.103897378
v -1.04915494E-18 -0.00856699981 0.106523991
v 5.91508708E-18 0.0483003519 0.2653386
v 4.04608986E-18 0.0330388285 0.101270787
v 0.0121892095 0.0122359199 0.103897378
v 0.0121891992 0.0273924079 0.266695708
v -1.04915494E-18 -0.00856699981 0.106523991
v 7.94118514E-19 0.0064844694 0.268052787
v 0.0121891992 0.0296965782 0.342602849
v 6.20127214E-18 0.0506372303 0.342292964
v 1.07229222E-18 0.00875592977 0.342912674
v 0.0121891992 0.0298249293 0.420598865
v 6.20995505E-18 0.05070813 0.420930862
v 1.09504723E-18 0.0089417398 0.420266867
v 3.98504936E-19 0.00325403991 0.58349508
v 0.0121892197 0.0229013208 0.585092783
v -1.48298233E-18 -0.0121094706 0.751128137
v 0.0121892197 0.0055013001 0.753779709
v 2.83041209E-18 0.0231120698 0.756431341
v 5.21069936E-18 0.0425485894 0.586690485
v -4.82383361E-18 -0.0393895879 0.911767304
v 0.0121891797 -0.0227793586 0.915387332
v -7.55500553E-19 -0.00616913009 0.919007421
v -0.0121891992 0.0296965782 0.342602849
v -0.0121891992 0.0273924079 0.266695708
v -0.0121891992 0.0122359199 0.103897378
v 7.94118514E-19 0.0064844694 0.268052787
v 1.07229222E-18 0.00875592977 0.342912674
v -0.0121891992 0.0298249293 0.420598865
v 1.09504723E-18 0.0089417398 0.420266867
v -0.0121892197 0.0229013208 0.585092783
v 3.98504936E-19 0.00325403991 0.58349508
v -0.0121892197 0.0055013001 0.753779709
v -1.48298233E-18 -0.0121094706 0.751128137
v -0.0121891797 -0.0227793586 0.915387332
v -4.82383361E-18 -0.0393895879 0.911767304
v -0.0121891797 -0.0440372415 1.00273514
v -3.38214631E-18 -0.0276173204 1.00378191
v -0.00843161996 -0.04592444 1.01064515
v -7.01627086E-18 -0.0572921969 1.01023424
v -7.40419292E-18 -0.0604598261 1.00168359
v -4.16227565E-18 -0.0339875594 1.01107669
v 0.0121891797 -0.0440372415 1.00273514
v -4.16227565E-18 -0.0339875594 1.01107669
v 0.00843161996 -0.04592444 1.01064515
v -7.40419292E-18 -0.0604598261 1.00168359
v -7.01627086E-18 -0.0572921969 1.01023424
v -1.04915494E-18 -0.00856699981 0.106523991
v -0.0136396093 0.0283353664 0.446528703
v -0.0136396093 0.0283353664 0.477387875
v 5.41121187E-19 0.00441859011 0.477387875
v 5.41121187E-19 0.00441859011 0.446528703
v 6.39904068E-18 0.0522521287 0.446528703
v 6.39904068E-18 0.0522521287 0.477387875
v 0.0136396093 0.0283353664 0.477387875
v 0.0136396093 0.0283353664 0.446528703
v 6.39904068E-18 0.0522521287 0.477387875
v 6.39904068E-18 0.0522521287 0.446528703
v -0.0134122176 0.027372228 0.480354875
v -0.00686149951 0.0141746895 0.480354875
v -0.00686149951 0.0141746895 0.442611039
v -0.0134122176 0.027372228 0.442611039
v -0.0136396093 0.0283353664 0.338837534
v -0.0136396093 0.0283353664 0.369696677
v 5.41121187E-19 0.00441859011 0.369696677
v 5.41121187E-19 0.00441859011 0.338837534
v 6.39904068E-18 0.0522521287 0.338837534
v 6.39904068E-18 0.0522521287 0.369696677
v 0.0136396093 0.0283353664 0.369696677
v 0.0136396093 0.0283353664 0.338837534
v 6.39904068E-18 0.0522521287 0.369696677
v 6.39904068E-18 0.0522521287 0.338837534
v -0.0134122176 0.027372228 0.372663677
v -0.00686149951 0.0141746895 0.372663677
v -0.00686149951 0.0141746895 0.33491984
v -0.0134122176 0.027372228 0.33491984
v 0.0192657374 0.0283353608 0.461958289
v 0.0131280944 0.0212642923 0.461958289
v 0.0131280944 0.0283353608 0.469029367
v 0.0192657374 0.0283353608 0.461958289
v 0.0131280944 0.0283353608 0.454887241
v 0.0131280944 0.0212642923 0.461958289
v 0.0192657374 0.0283353608 0.461958289
v 0.0131280944 0.0354064293 0.461958289
v 0.0131280944 0.0283353608 0.454887241
v 0.0192657374 0.0283353608 0.461958289
v 0.0131280944 0.0283353608 0.469029367
v 0.0131280944 0.0354064293 0.461958289
v 0.0192657374 0.0283353608 0.35426712
v 0.0131280944 0.0212642923 0.35426712
v 0.0131280944 0.0283353608 0.361338198
v 0.0192657374 0.0283353608 0.35426712
v 0.0131280944 0.0283353608 0.347196043
v 0.0131280944 0.0212642923 0.35426712
v 0.0192657374 0.0283353608 0.35426712
v 0.0131280944 0.0354064293 0.35426712
v 0.0131280944 0.0283353608 0.347196043
v 0.0192657374 0.0283353608 0.35426712
v 0.0131280944 0.0283353608 0.361338198
v 0.0131280944 0.0354064293 0.35426712
vt 0.0777219981 0.89783603
vt 0.0287459996 0.939629018
vt 0.126698002 0.939629018
vt 0.0777219981 0.98142302
vt 0.395181566 0.817429543
vt 0.395181566 0.989370942
vt 0.450313449 0.989370942
vt 0.450313449 0.817429543
vt 0.504990876 0.989370942
vt 0.504990876 0.817429543
vt 0.450313449 0.737814486
vt 0.395181566 0.737814486
vt 0.504990876 0.737814486
vt 0.450313449 0.655714035
vt 0.395181566 0.655714035
vt 0.504990876 0.655714035
vt 0.504990876 0.482383847
vt 0.450313449 0.482383847
vt 0.504990876 0.303870142
vt 0.450313449 0.303870142
vt 0.395181566 0.303870142
vt 0.395181566 0.482383847
vt 0.504990876 0.130370677
vt 0.450313449 0.130370677
vt 0.395181566 0.130370677
vt 0.340276241 0.737814486
vt 0.340276241 0.817429543
vt 0.340276241 0.989370942
vt 0.285497129 0.817429543
vt 0.285497129 0.737814486
vt 0.340276241 0.655714035
vt 0.285497129 0.655714035
vt 0.340276241 0.482383847
vt 0.285497129 0.482383847
vt 0.340276241 0.303870142
vt 0.285497129 0.303870142
vt 0.340276241 0.130370677
vt 0.285497129 0.130370677
vt 0.340276241 0.0336844027
vt 0.395181566 0.0336844027
vt 0.336769372 0.024595188
vt 0.301017731 0.0153318597
vt 0.285497129 0.0336844027
vt 0.375468761 0.0154729998
vt 0.450313449 0.0336844027
vt 0.415484816 0.0159776248
vt 0.453727424 0.024841221
vt 0.504990876 0.0336844027
vt 0.488992035 0.0158347115
vt 0.285497129 0.989370942
vt 0.976589978 0.0588865019
vt 0.858164012 0.0588865019
vt 0.858164012 0.108493999
vt 0.976589978 0.108493999
vt 0.976589978 0.00927899964
vt 0.858164012 0.00927899964
vt 0.858164012 0.158102006
vt 0.976589978 0.158102006
vt 0.858164012 0.207709998
vt 0.976589978 0.207709998
vt 0.97731936 0.780763566
vt 0.977319539 0.766740203
vt 0.90198046 0.766740203
vt 0.901980639 0.780763566
vt 0.976589978 0.0588865019
vt 0.858164012 0.0588865019
vt 0.858164012 0.108493999
vt 0.976589978 0.108493999
vt 0.976589978 0.00927899964
vt 0.858164012 0.00927899964
vt 0.858164012 0.158102006
vt 0.976589978 0.158102006
vt 0.858164012 0.207709998
vt 0.976589978 0.207709998
vt 0.97731936 0.780763566
vt 0.977319539 0.766740203
vt 0.90198046 0.766740203
vt 0.901980639 0.780763566
vt 0.189692572 0.331893176
vt 0.189692572 0.336067945
vt 0.181342781 0.331893116
vt 0.189692572 0.331893176
vt 0.198042437 0.331893116
vt 0.189692572 0.336067945
vt 0.189692572 0.331893176
vt 0.189692572 0.327718079
vt 0.198042437 0.331893116
vt 0.189692572 0.331893176
vt 0.181342781 0.331893116
vt 0.189692572 0.327718079
vt 0.189692333 0.331893176
vt 0.189692408 0.336067945
vt 0.181342885 0.331893116
vt 0.189692333 0.331893176
vt 0.198042467 0.331893116
vt 0.189692408 0.336067945
vt 0.189692333 0.331893176
vt 0.189692408 0.327718079
vt 0.198042467 0.331893116
vt 0.189692333 0.331893176
vt 0.181342885 0.331893116
vt 0.189692408 0.327718079
vn -0 -0.125266179 -0.992123187
vn -0 -0.125266597 -0.992123127
vn -0 -0.125266597 -0.992123127
vn -0 -0.125267059 -0.992123067
vn -0 0.997336626 -0.0729360804
vn -0 0.995697856 -0.0926591307
vn 0.99991864 0.0127029261 -0.00115918892
vn 0.999922633 0.012410989 -0.000841218338
vn -0 -0.995690465 0.0927390456
vn -0 -0.997334003 0.0729720071
vn 0.999969661 0.00778807327 -3.13038945E-05
vn -0 0.99987781 -0.0156307332
vn -0 -0.999872208 0.0159837119
vn 0.999948502 0.00998534355 0.00182663556
vn -0 0.999535918 0.0304609463
vn -0 -0.999676108 -0.0254510157
vn -0 -0.997692704 -0.0678910241
vn 0.999916613 0.0123692155 0.00371363387
vn -0 -0.991175413 -0.132556766
vn 0.999884427 0.0144746024 0.00464295596
vn -0 0.98999542 0.141099617
vn -0 0.9969998 0.0774039477
vn -0 -0.9813779 -0.19208689
vn 0.999936342 0.0105061438 0.00410908461
vn -0 0.98019135 0.198052794
vn -0.999969661 0.00778810168 -3.13039709E-05
vn -0.999922633 0.0124110254 -0.000841239933
vn -0.99991864 0.0127029615 -0.00115921767
vn -0 -0.997334003 0.0729720071
vn -0 -0.999872208 0.0159837119
vn -0.999948502 0.00998541713 0.00182664033
vn -0 -0.999676108 -0.0254510157
vn -0.999916613 0.0123692332 0.00371363247
vn -0 -0.997692704 -0.0678910241
vn -0.999884427 0.0144747728 0.0046429988
vn -0 -0.991175413 -0.132556766
vn -0.999936342 0.0105064781 0.00410914328
vn -0 -0.9813779 -0.19208689
vn -0.997599363 -0.0678309351 0.0139458114
vn -0 0.96388495 0.266318947
vn -0.743249834 -0.0882990509 0.663161337
vn -6.9385311E-07 -0.798107624 0.602514923
vn -0 -0.980763018 -0.195202202
vn -3.64702288E-07 0.613383472 0.789785266
vn 0.997599363 -0.0678310171 0.0139458496
vn -3.64702288E-07 0.613383472 0.789785266
vn 0.743249238 -0.0882994682 0.663161933
vn -0 -0.980763018 -0.195202202
vn -6.9385311E-07 -0.798107624 0.602514923
vn -0 -0.995690465 0.0927390456
vn -1 0 0
vn -1 0 0
vn -0 -1 0
vn -0 -1 0
vn -0 1 0
vn -0 1 0
vn 1 0 0
vn 1 0 0
vn -0 1 0
vn -0 1 0
vn -0.895727932 -0.444602638 0
vn -0.895727932 -0.444602638 0
vn -0.895727932 -0.444602638 0
vn -0.895727932 -0.444602638 0
vn -1 0 0
vn -1 0 0
vn -0 -1 0
vn -0 -1 0
vn -0 1 0
vn -0 1 0
vn 1 0 0
vn 1 0 0
vn -0 1 0
vn -0 1 0
vn -0.895727813 -0.444602847 0
vn -0.895727813 -0.444602847 0
vn -0.895727813 -0.444602847 0
vn -0.895727813 -0.444602847 0
vn 0.631593585 -0.548220098 0.548219264
vn 0.631593525 -0.548220038 0.548219264
vn 0.631593585 -0.548220038 0.548219264
vn 0.631593585 -0.548220098 -0.548219264
vn 0.631593585 -0.548220038 -0.548219264
vn 0.631593525 -0.548220038 -0.548219264
vn 0.631593645 0.548220158 -0.548219085
vn 0.631593645 0.548220098 -0.548219025
vn 0.631593645 0.548220158 -0.548219085
vn 0.631593645 0.548220158 0.548219085
vn 0.631593645 0.548220158 0.548219085
vn 0.631593645 0.548220098 0.548219025
vn 0.631593585 -0.548220098 0.548219264
vn 0.631593525 -0.548220038 0.548219264
vn 0.631593585 -0.548220038 0.548219264
vn 0.631593585 -0.548220098 -0.548219264
vn 0.631593585 -0.548220038 -0.548219264
vn 0.631593525 -0.548220038 -0.548219264
vn 0.631593645 0.548220158 -0.548219085
vn 0.631593645 0.548220098 -0.548219025
vn 0.631593645 0.548220158 -0.548219085
vn 0.631593645 0.548220158 0.548219085
vn 0.631593645 0.548220158 0.548219085
vn 0.631593645 0.548220098 0.548219025
g wp_013_004_002_Mesh_a_0
f 3/3/3 2/2/2 1/1/1
f 4/4/4 2/2/2 3/3/3
f 7/7/7 6/6/6 5/5/5
f 8/8/8 7/7/7 5/5/5
f 9/9/9 7/7/7 8/8/8
f 10/10/10 9/9/9 8/8/8
f 11/11/11 8/8/8 5/5/5
f 12/12/12 11/11/11 5/5/5
f 13/13/13 10/10/10 8/8/8
f 11/11/11 13/13/13 8/8/8
f 14/14/14 11/11/11 12/12/12
f 15/15/15 14/14/14 12/12/12
f 16/16/16 13/13/13 11/11/11
f 14/14/14 16/16/16 11/11/11
f 17/17/17 16/16/16 14/14/14
f 18/18/18 17/17/17 14/14/14
f 19/19/19 17/17/17 18/18/18
f 20/20/20 19/19/19 18/18/18
f 20/20/20 18/18/18 21/21/21
f 18/18/18 22/22/22 21/21/21
f 14/14/14 15/15/15 22/22/22
f 18/18/18 14/14/14 22/22/22
f 23/23/23 19/19/19 20/20/20
f 24/24/24 23/23/23 20/20/20
f 20/20/20 21/21/21 25/25/25
f 24/24/24 20/20/20 25/25/25
f 15/15/15 12/12/12 26/26/26
f 26/26/26 12/12/12 27/27/27
f 12/12/12 5/5/5 27/27/27
f 5/5/5 6/6/6 27/27/27
f 6/6/6 28/28/28 27/27/27
f 26/26/26 27/27/27 29/29/29
f 30/30/30 26/26/26 29/29/29
f 31/31/31 26/26/26 30/30/30
f 31/31/31 15/15/15 26/26/26
f 32/32/32 31/31/31 30/30/30
f 31/31/31 32/32/32 33/33/33
f 15/15/15 31/31/31 33/33/33
f 22/22/22 15/15/15 33/33/33
f 32/32/32 34/34/34 33/33/33
f 33/33/33 34/34/34 35/35/35
f 22/22/22 33/33/33 35/35/35
f 21/21/21 22/22/22 35/35/35
f 34/34/34 36/36/36 35/35/35
f 35/35/35 36/36/36 37/37/37
f 21/21/21 35/35/35 37/37/37
f 36/36/36 38/38/38 37/37/37
f 25/25/25 21/21/21 37/37/37
f 37/37/37 39/39/39 25/25/25
f 39/39/39 40/40/40 25/25/25
f 39/39/39 41/41/41 40/40/40
f 42/42/42 41/41/41 39/39/39
f 43/43/43 42/42/42 39/39/39
f 43/43/43 39/39/39 37/37/37
f 38/38/38 43/43/43 37/37/37
f 41/41/41 44/44/44 40/40/40
f 44/44/44 41/41/41 42/42/42
f 25/25/25 40/40/40 24/24/24
f 40/40/40 45/45/45 24/24/24
f 40/40/40 46/46/46 45/45/45
f 46/46/46 47/47/47 45/45/45
f 45/45/45 47/47/47 48/48/48
f 47/47/47 49/49/49 48/48/48
f 49/49/49 47/47/47 46/46/46
f 45/45/45 48/48/48 23/23/23
f 24/24/24 45/45/45 23/23/23
f 50/50/50 29/29/29 27/27/27
f 28/28/28 50/50/50 27/27/27
f 53/53/53 52/52/52 51/51/51
f 54/54/54 53/53/53 51/51/51
f 55/55/55 51/51/51 52/52/52
f 56/56/56 55/55/55 52/52/52
f 57/57/57 53/53/53 54/54/54
f 58/58/58 57/57/57 54/54/54
f 57/57/57 58/58/58 59/59/59
f 58/58/58 60/60/60 59/59/59
f 63/63/63 62/62/62 61/61/61
f 64/64/64 63/63/63 61/61/61
f 67/67/67 66/66/66 65/65/65
f 68/68/68 67/67/67 65/65/65
f 69/69/69 65/65/65 66/66/66
f 70/70/70 69/69/69 66/66/66
f 71/71/71 67/67/67 68/68/68
f 72/72/72 71/71/71 68/68/68
f 71/71/71 72/72/72 73/73/73
f 72/72/72 74/74/74 73/73/73
f 77/77/77 76/76/76 75/75/75
f 78/78/78 77/77/77 75/75/75
f 81/81/81 80/80/80 79/79/79
f 84/84/84 83/83/83 82/82/82
f 87/87/87 86/86/86 85/85/85
f 90/90/90 89/89/89 88/88/88
f 93/93/93 92/92/92 91/91/91
f 96/96/96 95/95/95 94/94/94
f 99/99/99 98/98/98 97/97/97
f 102/102/102 101/101/101 100/100/100
