g md_00301_barrier
v 8.61914444 39.2108917 47.8532791
v 10.0000019 36.9558678 47.6496849
v 10.0000048 36.9558678 3.06161859E-16
v 8.61913776 39.2108994 0
v 6.57304239 40.8301735 48.6363258
v 6.57303572 40.8301773 0
v 3.35091186 42.1164436 49.4645309
v 3.35090375 42.1164436 0
v 4.75404613E-06 42.4646072 50.5719032
v -7.28645659E-07 42.5064163 0
v -3.35089707 42.1164436 49.4645309
v -3.35090518 42.1164436 0
v -6.57302952 40.8301811 48.6363258
v -6.57303715 40.8301773 0
v -8.61913204 39.2109108 47.8532791
v -8.61913776 39.2108994 0
v -10.0000019 36.9558678 47.6496964
v -10.0000048 36.9558678 -3.06161859E-16
v 9.51841164 40.601902 50.3618355
v 10.290163 39.9117775 49.7168884
v 12.0976868 39.9117775 51.9236412
v 12.5993452 40.601902 54.6614304
v 8.00903702 41.5928459 51.8712082
v 10.6014166 41.5928421 55.4889984
v 13.461051 40.601902 59.8802414
v 14.2701826 39.9117775 57.1685295
v 14.5524874 39.9117775 60.0070496
v 14.2701836 39.9117775 62.8455696
v 12.5993471 40.601902 65.0990524
v 11.3264828 41.5928459 59.8802414
v 10.6014156 41.5928421 64.271492
v 9.51840973 40.601902 69.3986588
v 12.0976868 39.9117775 68.0904541
v 10.2901592 39.9117775 70.2972107
v 8.08340454 39.9117775 72.1047363
v 5.2188139 40.601902 72.4795914
v 8.00903511 41.5928459 67.8892822
v 4.39124489 41.5928421 70.4816589
v -1.98883981E-06 40.601902 73.3412933
v 2.83851671 39.9117775 74.2772293
v -1.86558748E-06 39.9117775 74.5595322
v -2.04916569E-06 41.5928459 71.2067261
v 3.47911072 42.4228134 68.2795639
v -1.53573444E-06 42.4228058 68.8540268
v 2.43424153 43.0321274 65.7570267
v -7.58350211E-07 43.0321274 66.1589661
v 6.34542704 42.4228058 66.2256699
v 4.43971682 43.0321274 64.3199615
v 8.39931774 42.4228134 63.3593559
v 5.87678099 43.0321274 62.3144875
v 8.9737854 42.4228058 59.8802414
v 6.2787199 43.0321274 59.8802414
v -0 43.5020905 59.8802414
v 8.39931965 42.4228134 56.4011307
v 5.87678194 43.0321274 57.4459991
v 6.34543085 42.4228058 53.5348129
v 4.43972349 43.0321274 55.4405251
v 3.47911239 42.4228134 51.4809265
v 2.43424273 43.0321274 54.0034599
v 7.58350211E-07 43.0321274 53.6015205
v -2.43424153 43.0321274 54.0034599
v -3.47911072 42.4228134 51.4809227
v -6.34542704 42.4228058 53.5348129
v -8.00903511 41.5928459 51.8712044
v -9.51840973 40.601902 50.3618317
v -10.2901592 39.9117775 49.7168884
v -12.0976868 39.9117775 51.9236412
v -12.5993471 40.601902 54.6614304
v -10.6014156 41.5928421 55.4889946
v -11.3264828 41.5928459 59.8802414
v -13.461051 40.601902 59.8802414
v -14.2701836 39.9117775 57.1685295
v -14.5524874 39.9117775 60.0070457
v -4.43971682 43.0321274 55.4405212
v -8.39931774 42.4228134 56.4011307
v -5.87678099 43.0321274 57.4459991
v -8.9737854 42.4228058 59.8802414
v -6.2787199 43.0321274 59.8802414
v -13.4447594 39.9117775 54.4380493
v -14.2701826 39.9117775 62.8455658
v -12.5993452 40.601902 65.0990524
v -10.6014166 41.5928421 64.2714844
v -8.00903702 41.5928459 67.8892746
v -9.51841164 40.601902 69.3986511
v -12.0976868 39.9117775 68.0904541
v -10.290163 39.9117775 70.2972031
v -8.08340454 39.9117775 72.1047363
v -5.21881437 40.601902 72.4795914
v -4.39124823 41.5928421 70.4816589
v -2.83851886 39.9117775 74.2772293
v -6.34543085 42.4228058 66.2256699
v -8.39931965 42.4228134 63.3593559
v -5.87678194 43.0321274 62.3144875
v -4.43972349 43.0321274 64.3199615
v -2.43424273 43.0321274 65.7570267
v -3.47911239 42.4228134 68.2795563
v -5.56899881 39.9117775 73.4518127
v 5.56899786 39.9117775 73.4518127
v 13.4447594 39.9117775 65.5760422
v 13.4447594 39.9117775 54.4380493
v -13.4447594 39.9117775 65.5760422
v -8.61914444 39.2108917 -47.8532791
v -10.0000019 36.9558678 -47.6496849
v -10.0000048 36.9558678 -1.53080929E-15
v -8.61913776 39.2108994 -1.05553995E-15
v -6.57304239 40.8301735 -48.6363258
v -6.57303572 40.8301773 -8.04964738E-16
v -3.35091186 42.1164436 -49.4645309
v -3.35090375 42.1164436 -4.10367399E-16
v -4.75404613E-06 42.4646072 -50.5719032
v 7.28645659E-07 42.5064163 8.92333581E-23
v 3.35089707 42.1164436 -49.4645309
v 3.35090518 42.1164436 4.10367531E-16
v 6.57302952 40.8301811 -48.6363258
v 6.57303715 40.8301773 8.0496495E-16
v 8.61913204 39.2109108 -47.8532791
v 8.61913776 39.2108994 1.05554006E-15
v 10.0000019 36.9558678 -47.6496964
v 10.0000048 36.9558678 1.53080929E-15
v -9.51841164 40.601902 -50.3618355
v -10.290163 39.9117775 -49.7168884
v -12.0976868 39.9117775 -51.9236412
v -12.5993452 40.601902 -54.6614304
v -8.00903702 41.5928459 -51.8712082
v -10.6014166 41.5928421 -55.4889984
v -13.461051 40.601902 -59.8802414
v -14.2701826 39.9117775 -57.1685295
v -14.5524874 39.9117775 -60.0070496
v -14.2701836 39.9117775 -62.8455696
v -12.5993471 40.601902 -65.0990524
v -11.3264828 41.5928459 -59.8802414
v -10.6014156 41.5928421 -64.271492
v -9.51840973 40.601902 -69.3986588
v -12.0976868 39.9117775 -68.0904541
v -10.2901592 39.9117775 -70.2972107
v -8.08340454 39.9117775 -72.1047363
v -5.2188139 40.601902 -72.4795914
v -8.00903511 41.5928459 -67.8892822
v -4.39124489 41.5928421 -70.4816589
v 1.98883981E-06 40.601902 -73.3412933
v -2.83851671 39.9117775 -74.2772293
v 1.86558748E-06 39.9117775 -74.5595322
v 2.04916569E-06 41.5928459 -71.2067261
v -3.47911072 42.4228134 -68.2795639
v 1.53573444E-06 42.4228058 -68.8540268
v -2.43424153 43.0321274 -65.7570267
v 7.58350211E-07 43.0321274 -66.1589661
v -6.34542704 42.4228058 -66.2256699
v -4.43971682 43.0321274 -64.3199615
v -8.39931774 42.4228134 -63.3593559
v -5.87678099 43.0321274 -62.3144875
v -8.9737854 42.4228058 -59.8802414
v -6.2787199 43.0321274 -59.8802414
v 7.33321485E-15 43.5020905 -59.8802414
v -8.39931965 42.4228134 -56.4011307
v -5.87678194 43.0321274 -57.4459991
v -6.34543085 42.4228058 -53.5348129
v -4.43972349 43.0321274 -55.4405251
v -3.47911239 42.4228134 -51.4809265
v -2.43424273 43.0321274 -54.0034599
v -7.58350211E-07 43.0321274 -53.6015205
v 2.43424153 43.0321274 -54.0034599
v 3.47911072 42.4228134 -51.4809227
v 6.34542704 42.4228058 -53.5348129
v 8.00903511 41.5928459 -51.8712044
v 9.51840973 40.601902 -50.3618317
v 10.2901592 39.9117775 -49.7168884
v 12.0976868 39.9117775 -51.9236412
v 12.5993471 40.601902 -54.6614304
v 10.6014156 41.5928421 -55.4889946
v 11.3264828 41.5928459 -59.8802414
v 13.461051 40.601902 -59.8802414
v 14.2701836 39.9117775 -57.1685295
v 14.5524874 39.9117775 -60.0070457
v 4.43971682 43.0321274 -55.4405212
v 8.39931774 42.4228134 -56.4011307
v 5.87678099 43.0321274 -57.4459991
v 8.9737854 42.4228058 -59.8802414
v 6.2787199 43.0321274 -59.8802414
v 13.4447594 39.9117775 -54.4380493
v 14.2701826 39.9117775 -62.8455658
v 12.5993452 40.601902 -65.0990524
v 10.6014166 41.5928421 -64.2714844
v 8.00903702 41.5928459 -67.8892746
v 9.51841164 40.601902 -69.3986511
v 12.0976868 39.9117775 -68.0904541
v 10.290163 39.9117775 -70.2972031
v 8.08340454 39.9117775 -72.1047363
v 5.21881437 40.601902 -72.4795914
v 4.39124823 41.5928421 -70.4816589
v 2.83851886 39.9117775 -74.2772293
v 6.34543085 42.4228058 -66.2256699
v 8.39931965 42.4228134 -63.3593559
v 5.87678194 43.0321274 -62.3144875
v 4.43972349 43.0321274 -64.3199615
v 2.43424273 43.0321274 -65.7570267
v 3.47911239 42.4228134 -68.2795563
v 5.56899881 39.9117775 -73.4518127
v -5.56899786 39.9117775 -73.4518127
v -13.4447594 39.9117775 -65.5760422
v -13.4447594 39.9117775 -54.4380493
v 13.4447594 39.9117775 -65.5760422
vt 2.46929646 10.0940228
vt 2.96902394 10.0509777
vt 2.96902394 -0.0236358643
vt 2.46929502 -0.0236358643
vt 1.88974404 10.2595844
vt 1.88974202 -0.0236358643
vt 1.20848656 10.4346905
vt 1.20848441 -0.0236358643
vt 0.500000834 10.6688251
vt 0.49999994 -0.0236358643
vt -0.208482802 10.4346905
vt -0.20848459 -0.0236358643
vt -0.889740944 10.2595844
vt -0.889742851 -0.0236358643
vt -1.46929169 10.0940228
vt -1.46929407 -0.0236358643
vt -1.96902347 10.0509777
vt -1.96902418 -0.0236358643
vt 2.51248503 10.6244068
vt 2.81349611 10.3216591
vt 3.21987295 10.8177967
vt 3.16388893 11.5334721
vt 2.19335699 10.9435368
vt 2.74146676 11.7084484
vt 3.34608054 12.6368942
vt 3.7083075 11.9969826
vt 3.77177691 12.6351566
vt 3.70830917 13.2733288
vt 3.16389084 13.7403107
vt 2.89476657 12.6368942
vt 2.74146676 13.5653381
vt 2.51248503 14.6493778
vt 3.21987295 14.4525127
vt 2.81349611 14.9486485
vt 2.31735897 15.355032
vt 1.60341728 15.3007851
vt 2.19335699 14.3302498
vt 1.42844343 14.8783588
vt 0.49999994 15.4829712
vt 1.13817298 15.8434639
vt 0.49999994 15.9069328
vt 0.49999994 15.0316582
vt 1.2355907 14.4127693
vt 0.49999994 14.5342255
vt 1.01467323 13.879427
vt 0.49999994 13.9644051
vt 1.8416183 13.9785099
vt 1.43869281 13.5755844
vt 2.27587414 13.3724823
vt 1.74253178 13.1515675
vt 2.39733505 12.6368942
vt 1.82751465 12.6368942
vt 0.49999994 12.6368942
vt 2.27587414 11.9013004
vt 1.7425338 12.1222191
vt 1.84161997 11.2952728
vt 1.43869472 11.6981983
vt 1.2355907 10.861021
vt 1.01467323 11.3943615
vt 0.49999994 11.3093796
vt -0.014673233 11.3943615
vt -0.235590816 10.861021
vt -0.841618299 11.2952728
vt -1.19335711 10.9435368
vt -1.51248503 10.6244068
vt -1.81349516 10.3216591
vt -2.21987462 10.8177967
vt -2.16388988 11.5334721
vt -1.74146605 11.7084484
vt -1.89476728 12.6368942
vt -2.34608078 12.6368942
vt -2.70830822 11.9969826
vt -2.77177691 12.6351566
vt -0.438693106 11.6981983
vt -1.27587438 11.9013004
vt -0.742532849 12.1222191
vt -1.39733505 12.6368942
vt -0.827514768 12.6368942
vt -2.52273083 11.3830967
vt -2.70830822 13.2733269
vt -2.16388988 13.7403107
vt -1.741467 13.5653381
vt -1.19335711 14.3302479
vt -1.51248503 14.6493778
vt -2.21987462 14.4525127
vt -1.81349587 14.9486485
vt -1.31735945 15.355032
vt -0.603418589 15.3007851
vt -0.428445578 14.8783588
vt -0.138173044 15.8434639
vt -0.841619492 13.9785099
vt -1.27587438 13.3724823
vt -0.742532849 13.1515675
vt -0.438694 13.5755844
vt -0.0146740666 13.879427
vt -0.235591769 14.4127674
vt -0.752055287 15.6578846
vt 1.75205564 15.6578846
vt 3.52273083 13.8872128
vt 3.52273083 11.3830967
vt -2.52273083 13.8872128
vt 2.46929646 10.0940228
vt 2.96902394 10.0509777
vt 2.96902394 -0.0236358643
vt 2.46929502 -0.0236358643
vt 1.88974404 10.2595844
vt 1.88974202 -0.0236358643
vt 1.20848656 10.4346905
vt 1.20848441 -0.0236358643
vt 0.500000834 10.6688251
vt 0.49999994 -0.0236358643
vt -0.208482802 10.4346905
vt -0.20848459 -0.0236358643
vt -0.889740944 10.2595844
vt -0.889742851 -0.0236358643
vt -1.46929169 10.0940228
vt -1.46929407 -0.0236358643
vt -1.96902347 10.0509777
vt -1.96902418 -0.0236358643
vt 2.51248503 10.6244068
vt 2.81349611 10.3216591
vt 3.21987295 10.8177967
vt 3.16388893 11.5334721
vt 2.19335699 10.9435368
vt 2.74146676 11.7084484
vt 3.34608054 12.6368942
vt 3.7083075 11.9969826
vt 3.77177691 12.6351566
vt 3.70830917 13.2733288
vt 3.16389084 13.7403107
vt 2.89476657 12.6368942
vt 2.74146676 13.5653381
vt 2.51248503 14.6493778
vt 3.21987295 14.4525127
vt 2.81349611 14.9486485
vt 2.31735897 15.355032
vt 1.60341728 15.3007851
vt 2.19335699 14.3302498
vt 1.42844343 14.8783588
vt 0.49999994 15.4829712
vt 1.13817298 15.8434639
vt 0.49999994 15.9069328
vt 0.49999994 15.0316582
vt 1.2355907 14.4127693
vt 0.49999994 14.5342255
vt 1.01467323 13.879427
vt 0.49999994 13.9644051
vt 1.8416183 13.9785099
vt 1.43869281 13.5755844
vt 2.27587414 13.3724823
vt 1.74253178 13.1515675
vt 2.39733505 12.6368942
vt 1.82751465 12.6368942
vt 0.49999994 12.6368942
vt 2.27587414 11.9013004
vt 1.7425338 12.1222191
vt 1.84161997 11.2952728
vt 1.43869472 11.6981983
vt 1.2355907 10.861021
vt 1.01467323 11.3943615
vt 0.49999994 11.3093796
vt -0.014673233 11.3943615
vt -0.235590816 10.861021
vt -0.841618299 11.2952728
vt -1.19335711 10.9435368
vt -1.51248503 10.6244068
vt -1.81349516 10.3216591
vt -2.21987462 10.8177967
vt -2.16388988 11.5334721
vt -1.74146605 11.7084484
vt -1.89476728 12.6368942
vt -2.34608078 12.6368942
vt -2.70830822 11.9969826
vt -2.77177691 12.6351566
vt -0.438693106 11.6981983
vt -1.27587438 11.9013004
vt -0.742532849 12.1222191
vt -1.39733505 12.6368942
vt -0.827514768 12.6368942
vt -2.52273083 11.3830967
vt -2.70830822 13.2733269
vt -2.16388988 13.7403107
vt -1.741467 13.5653381
vt -1.19335711 14.3302479
vt -1.51248503 14.6493778
vt -2.21987462 14.4525127
vt -1.81349587 14.9486485
vt -1.31735945 15.355032
vt -0.603418589 15.3007851
vt -0.428445578 14.8783588
vt -0.138173044 15.8434639
vt -0.841619492 13.9785099
vt -1.27587438 13.3724823
vt -0.742532849 13.1515675
vt -0.438694 13.5755844
vt -0.0146740666 13.879427
vt -0.235591769 14.4127674
vt -0.752055287 15.6578846
vt 1.75205564 15.6578846
vt 3.52273083 13.8872128
vt 3.52273083 11.3830967
vt -2.52273083 13.8872128
vn -0.73254323 -0.680680752 0.00735462224
vn -0.852811933 -0.522218168 0
vn -0.852811933 -0.522218168 0
vn -0.748420477 -0.663224518 0
vn -0.453171283 -0.891182423 0.0207274221
vn -0.481906891 -0.876222432 0
vn -0.219511256 -0.97556591 0.0092682261
vn -0.242957145 -0.970036983 -0.000208586396
vn -0 -0.999936938 0.0112291081
vn -0 -0.99999994 -0.0004179065
vn 0.219510809 -0.97556603 0.00926816091
vn 0.242956728 -0.970037103 -0.000208623736
vn 0.453170091 -0.891183078 0.0207272749
vn 0.481905729 -0.876223087 0
vn 0.732543051 -0.68068099 0.00735456729
vn 0.748420238 -0.663224757 0
vn 0.852811933 -0.522218049 0
vn 0.852811992 -0.522218049 0
vn -0.328784436 -0.885989726 0.326990783
vn -0.355044127 -0.818735301 0.451238513
vn -0.421001345 -0.856557429 0.29844135
vn -0.411500245 -0.895181358 0.171224654
vn -0.28148523 -0.924357414 0.257545054
vn -0.352966577 -0.92414248 0.146202952
vn -0.439044923 -0.898464918 0.000613343553
vn -0.492361635 -0.866401136 0.083241418
vn -0.534141243 -0.845388055 -0.00349175441
vn -0.480171353 -0.873329937 -0.0820385665
vn -0.406209379 -0.89829433 -0.167514831
vn -0.384634495 -0.923068941 0
vn -0.352966279 -0.92414254 -0.146202967
vn -0.306980669 -0.90104717 -0.306393147
vn -0.384815097 -0.881614745 -0.273263246
vn -0.355087221 -0.863481045 -0.358208805
vn -0.268207639 -0.885799766 -0.378712833
vn -0.166690305 -0.900470376 -0.401705772
vn -0.271977514 -0.923069 -0.271977574
vn -0.146203205 -0.92414242 -0.352966636
vn -0 -0.90210712 -0.431512117
vn -0.0768977329 -0.888851702 -0.451696098
vn -0 -0.870085299 -0.492901206
vn -0 -0.923068821 -0.384634733
vn -0.109625496 -0.958090246 -0.264660776
vn -0 -0.957713187 -0.287724525
vn -0.060754884 -0.987317204 -0.146675169
vn 1.05585407E-07 -0.987470329 -0.157804668
vn -0.203451172 -0.957713306 -0.203452125
vn -0.111584872 -0.987470329 -0.111584879
vn -0.264659703 -0.958090544 -0.109625794
vn -0.146675393 -0.987317204 -0.0607550107
vn -0.287723631 -0.957713485 -2.70619694E-07
vn -0.157805264 -0.987470269 0
vn -0 -1 0
vn -0.264659792 -0.958090544 0.109625705
vn -0.146675348 -0.987317204 0.0607550293
vn -0.202821434 -0.961591601 0.184946224
vn -0.111584872 -0.987470388 0.111584254
vn -0.129458129 -0.971698225 0.197593346
vn -0.0646919757 -0.987874746 0.141132668
vn -0 -0.989137471 0.14699325
vn 0.0646919087 -0.987874746 0.141132861
vn 0.12945798 -0.971698165 0.197593689
vn 0.20282121 -0.961591601 0.184946403
vn 0.281484991 -0.924357653 0.257544279
vn 0.328784555 -0.885990202 0.326989323
vn 0.355044812 -0.818735182 0.451238096
vn 0.421001732 -0.856557429 0.298440814
vn 0.411500394 -0.895181358 0.1712244
vn 0.352966309 -0.92414254 0.146202937
vn 0.384634644 -0.923068941 0
vn 0.439044893 -0.898464918 0.000613082084
vn 0.492361933 -0.866400957 0.0832414404
vn 0.534140944 -0.845388234 -0.00349200424
vn 0.111584961 -0.987470329 0.111584879
vn 0.264659613 -0.958090544 0.109625787
vn 0.146675318 -0.987317204 0.0607550219
vn 0.28772375 -0.957713425 2.70619665E-07
vn 0.157805249 -0.987470269 0
vn 0.576890588 -0.782515645 0.23423624
vn 0.480171561 -0.873329818 -0.0820385143
vn 0.40620935 -0.89829433 -0.167515159
vn 0.352966458 -0.92414254 -0.146202967
vn 0.271977633 -0.92306906 -0.271977365
vn 0.30698061 -0.901047289 -0.306393057
vn 0.384815037 -0.881614625 -0.273263633
vn 0.355086505 -0.86348033 -0.358211309
vn 0.268207937 -0.885799766 -0.378712654
vn 0.166690603 -0.900470674 -0.401704997
vn 0.146203429 -0.924142778 -0.352965683
vn 0.0768976361 -0.888849974 -0.451699495
vn 0.203451231 -0.957713366 -0.203452006
vn 0.264660001 -0.958090484 -0.109625682
vn 0.146675423 -0.987317145 -0.0607550256
vn 0.111584783 -0.987470388 -0.111584254
vn 0.060754925 -0.987317324 -0.146674469
vn 0.109625474 -0.958090365 -0.264660418
vn 0.21133779 -0.831345677 -0.514004529
vn -0.211337715 -0.831345677 -0.514004529
vn -0.536194623 -0.813211679 -0.226234719
vn -0.576890051 -0.782516062 0.234236062
vn 0.536194623 -0.813211679 -0.226234689
vn 0.73254323 -0.680680752 -0.00735462224
vn 0.852811933 -0.522218168 0
vn 0.852811933 -0.522218168 0
vn 0.748420477 -0.663224518 0
vn 0.453171283 -0.891182423 -0.0207274221
vn 0.481906891 -0.876222432 0
vn 0.219511256 -0.97556591 -0.0092682261
vn 0.242957145 -0.970036983 0.000208586396
vn -0 -0.999936938 -0.0112291081
vn -0 -0.99999994 0.0004179065
vn -0.219510809 -0.97556603 -0.00926816091
vn -0.242956728 -0.970037103 0.000208623736
vn -0.453170091 -0.891183078 -0.0207272749
vn -0.481905729 -0.876223087 0
vn -0.732543051 -0.68068099 -0.00735456729
vn -0.748420238 -0.663224757 0
vn -0.852811933 -0.522218049 0
vn -0.852811992 -0.522218049 0
vn 0.328784436 -0.885989726 -0.326990783
vn 0.355044127 -0.818735301 -0.451238513
vn 0.421001345 -0.856557429 -0.29844135
vn 0.411500245 -0.895181358 -0.171224654
vn 0.28148523 -0.924357414 -0.257545054
vn 0.352966577 -0.92414248 -0.146202952
vn 0.439044923 -0.898464918 -0.000613343553
vn 0.492361635 -0.866401136 -0.083241418
vn 0.534141243 -0.845388055 0.00349175441
vn 0.480171353 -0.873329937 0.0820385665
vn 0.406209379 -0.89829433 0.167514831
vn 0.384634495 -0.923068941 0
vn 0.352966279 -0.92414254 0.146202967
vn 0.306980669 -0.90104717 0.306393147
vn 0.384815097 -0.881614745 0.273263246
vn 0.355087221 -0.863481045 0.358208805
vn 0.268207639 -0.885799766 0.378712833
vn 0.166690305 -0.900470376 0.401705772
vn 0.271977514 -0.923069 0.271977574
vn 0.146203205 -0.92414242 0.352966636
vn -0 -0.90210712 0.431512117
vn 0.0768977329 -0.888851702 0.451696098
vn -0 -0.870085299 0.492901206
vn -0 -0.923068821 0.384634733
vn 0.109625496 -0.958090246 0.264660776
vn -0 -0.957713187 0.287724525
vn 0.060754884 -0.987317204 0.146675169
vn -1.05585407E-07 -0.987470329 0.157804668
vn 0.203451172 -0.957713306 0.203452125
vn 0.111584872 -0.987470329 0.111584879
vn 0.264659703 -0.958090544 0.109625794
vn 0.146675393 -0.987317204 0.0607550107
vn 0.287723631 -0.957713485 2.70619694E-07
vn 0.157805264 -0.987470269 0
vn -0 -1 0
vn 0.264659792 -0.958090544 -0.109625705
vn 0.146675348 -0.987317204 -0.0607550293
vn 0.202821434 -0.961591601 -0.184946224
vn 0.111584872 -0.987470388 -0.111584254
vn 0.129458129 -0.971698225 -0.197593346
vn 0.0646919757 -0.987874746 -0.141132668
vn -0 -0.989137471 -0.14699325
vn -0.0646919087 -0.987874746 -0.141132861
vn -0.12945798 -0.971698165 -0.197593689
vn -0.20282121 -0.961591601 -0.184946403
vn -0.281484991 -0.924357653 -0.257544279
vn -0.328784555 -0.885990202 -0.326989323
vn -0.355044812 -0.818735182 -0.451238096
vn -0.421001732 -0.856557429 -0.298440814
vn -0.411500394 -0.895181358 -0.1712244
vn -0.352966309 -0.92414254 -0.146202937
vn -0.384634644 -0.923068941 0
vn -0.439044893 -0.898464918 -0.000613082084
vn -0.492361933 -0.866400957 -0.0832414404
vn -0.534140944 -0.845388234 0.00349200424
vn -0.111584961 -0.987470329 -0.111584879
vn -0.264659613 -0.958090544 -0.109625787
vn -0.146675318 -0.987317204 -0.0607550219
vn -0.28772375 -0.957713425 -2.70619665E-07
vn -0.157805249 -0.987470269 0
vn -0.576890588 -0.782515645 -0.23423624
vn -0.480171561 -0.873329818 0.0820385143
vn -0.40620935 -0.89829433 0.167515159
vn -0.352966458 -0.92414254 0.146202967
vn -0.271977633 -0.92306906 0.271977365
vn -0.30698061 -0.901047289 0.306393057
vn -0.384815037 -0.881614625 0.273263633
vn -0.355086505 -0.86348033 0.358211309
vn -0.268207937 -0.885799766 0.378712654
vn -0.166690603 -0.900470674 0.401704997
vn -0.146203429 -0.924142778 0.352965683
vn -0.0768976361 -0.888849974 0.451699495
vn -0.203451231 -0.957713366 0.203452006
vn -0.264660001 -0.958090484 0.109625682
vn -0.146675423 -0.987317145 0.0607550256
vn -0.111584783 -0.987470388 0.111584254
vn -0.060754925 -0.987317324 0.146674469
vn -0.109625474 -0.958090365 0.264660418
vn -0.21133779 -0.831345677 0.514004529
vn 0.211337715 -0.831345677 0.514004529
vn 0.536194623 -0.813211679 0.226234719
vn 0.576890051 -0.782516062 -0.234236062
vn -0.536194623 -0.813211679 0.226234689
g md_00301_barrier_0
f 3/3/3 2/2/2 1/1/1
f 4/4/4 3/3/3 1/1/1
f 4/4/4 1/1/1 5/5/5
f 6/6/6 4/4/4 5/5/5
f 6/6/6 5/5/5 7/7/7
f 8/8/8 6/6/6 7/7/7
f 8/8/8 7/7/7 9/9/9
f 10/10/10 8/8/8 9/9/9
f 10/10/10 9/9/9 11/11/11
f 12/12/12 10/10/10 11/11/11
f 12/12/12 11/11/11 13/13/13
f 14/14/14 12/12/12 13/13/13
f 14/14/14 13/13/13 15/15/15
f 16/16/16 14/14/14 15/15/15
f 16/16/16 15/15/15 17/17/17
f 18/18/18 16/16/16 17/17/17
f 7/7/7 5/5/5 19/19/19
f 19/19/19 5/5/5 1/1/1
f 19/19/19 1/1/1 20/20/20
f 19/19/19 20/20/20 21/21/21
f 19/19/19 21/21/21 22/22/22
f 23/23/23 19/19/19 22/22/22
f 24/24/24 23/23/23 22/22/22
f 24/24/24 22/22/22 25/25/25
f 25/25/25 22/22/22 26/26/26
f 25/25/25 26/26/26 27/27/27
f 25/25/25 27/27/27 28/28/28
f 25/25/25 28/28/28 29/29/29
f 30/30/30 25/25/25 29/29/29
f 30/30/30 24/24/24 25/25/25
f 31/31/31 30/30/30 29/29/29
f 31/31/31 29/29/29 32/32/32
f 32/32/32 29/29/29 33/33/33
f 32/32/32 33/33/33 34/34/34
f 32/32/32 34/34/34 35/35/35
f 32/32/32 35/35/35 36/36/36
f 37/37/37 32/32/32 36/36/36
f 37/37/37 31/31/31 32/32/32
f 38/38/38 37/37/37 36/36/36
f 38/38/38 36/36/36 39/39/39
f 39/39/39 36/36/36 40/40/40
f 39/39/39 40/40/40 41/41/41
f 42/42/42 38/38/38 39/39/39
f 43/43/43 38/38/38 42/42/42
f 44/44/44 43/43/43 42/42/42
f 45/45/45 43/43/43 44/44/44
f 46/46/46 45/45/45 44/44/44
f 47/47/47 37/37/37 38/38/38
f 43/43/43 47/47/47 38/38/38
f 48/48/48 47/47/47 43/43/43
f 45/45/45 48/48/48 43/43/43
f 47/47/47 49/49/49 37/37/37
f 49/49/49 31/31/31 37/37/37
f 50/50/50 49/49/49 47/47/47
f 48/48/48 50/50/50 47/47/47
f 49/49/49 51/51/51 31/31/31
f 51/51/51 30/30/30 31/31/31
f 52/52/52 51/51/51 49/49/49
f 50/50/50 52/52/52 49/49/49
f 53/53/53 45/45/45 46/46/46
f 53/53/53 48/48/48 45/45/45
f 53/53/53 50/50/50 48/48/48
f 53/53/53 52/52/52 50/50/50
f 51/51/51 54/54/54 30/30/30
f 54/54/54 24/24/24 30/30/30
f 55/55/55 54/54/54 51/51/51
f 52/52/52 55/55/55 51/51/51
f 53/53/53 55/55/55 52/52/52
f 54/54/54 56/56/56 24/24/24
f 56/56/56 23/23/23 24/24/24
f 57/57/57 56/56/56 54/54/54
f 55/55/55 57/57/57 54/54/54
f 53/53/53 57/57/57 55/55/55
f 56/56/56 58/58/58 23/23/23
f 58/58/58 7/7/7 23/23/23
f 23/23/23 7/7/7 19/19/19
f 59/59/59 58/58/58 56/56/56
f 57/57/57 59/59/59 56/56/56
f 53/53/53 59/59/59 57/57/57
f 58/58/58 9/9/9 7/7/7
f 60/60/60 9/9/9 58/58/58
f 59/59/59 60/60/60 58/58/58
f 53/53/53 60/60/60 59/59/59
f 60/60/60 61/61/61 9/9/9
f 53/53/53 61/61/61 60/60/60
f 61/61/61 62/62/62 9/9/9
f 62/62/62 11/11/11 9/9/9
f 62/62/62 63/63/63 11/11/11
f 63/63/63 64/64/64 11/11/11
f 11/11/11 64/64/64 13/13/13
f 64/64/64 65/65/65 13/13/13
f 65/65/65 15/15/15 13/13/13
f 65/65/65 66/66/66 15/15/15
f 65/65/65 67/67/67 66/66/66
f 65/65/65 68/68/68 67/67/67
f 69/69/69 68/68/68 65/65/65
f 64/64/64 69/69/69 65/65/65
f 69/69/69 70/70/70 68/68/68
f 70/70/70 71/71/71 68/68/68
f 71/71/71 72/72/72 68/68/68
f 71/71/71 73/73/73 72/72/72
f 74/74/74 63/63/63 62/62/62
f 61/61/61 74/74/74 62/62/62
f 75/75/75 69/69/69 64/64/64
f 63/63/63 75/75/75 64/64/64
f 76/76/76 75/75/75 63/63/63
f 74/74/74 76/76/76 63/63/63
f 77/77/77 70/70/70 69/69/69
f 75/75/75 77/77/77 69/69/69
f 78/78/78 77/77/77 75/75/75
f 76/76/76 78/78/78 75/75/75
f 53/53/53 74/74/74 61/61/61
f 53/53/53 76/76/76 74/74/74
f 53/53/53 78/78/78 76/76/76
f 68/68/68 79/79/79 67/67/67
f 68/68/68 72/72/72 79/79/79
f 71/71/71 80/80/80 73/73/73
f 71/71/71 81/81/81 80/80/80
f 82/82/82 81/81/81 71/71/71
f 70/70/70 82/82/82 71/71/71
f 82/82/82 83/83/83 81/81/81
f 83/83/83 84/84/84 81/81/81
f 84/84/84 85/85/85 81/81/81
f 84/84/84 86/86/86 85/85/85
f 84/84/84 87/87/87 86/86/86
f 84/84/84 88/88/88 87/87/87
f 89/89/89 88/88/88 84/84/84
f 83/83/83 89/89/89 84/84/84
f 89/89/89 42/42/42 88/88/88
f 42/42/42 39/39/39 88/88/88
f 39/39/39 90/90/90 88/88/88
f 39/39/39 41/41/41 90/90/90
f 91/91/91 83/83/83 82/82/82
f 92/92/92 91/91/91 82/82/82
f 92/92/92 82/82/82 70/70/70
f 77/77/77 92/92/92 70/70/70
f 93/93/93 92/92/92 77/77/77
f 78/78/78 93/93/93 77/77/77
f 94/94/94 91/91/91 92/92/92
f 93/93/93 94/94/94 92/92/92
f 94/94/94 95/95/95 91/91/91
f 95/95/95 96/96/96 91/91/91
f 96/96/96 89/89/89 83/83/83
f 91/91/91 96/96/96 83/83/83
f 44/44/44 42/42/42 89/89/89
f 96/96/96 44/44/44 89/89/89
f 46/46/46 44/44/44 96/96/96
f 95/95/95 46/46/46 96/96/96
f 53/53/53 93/93/93 78/78/78
f 53/53/53 94/94/94 93/93/93
f 53/53/53 95/95/95 94/94/94
f 53/53/53 46/46/46 95/95/95
f 88/88/88 90/90/90 97/97/97
f 88/88/88 97/97/97 87/87/87
f 36/36/36 98/98/98 40/40/40
f 36/36/36 35/35/35 98/98/98
f 29/29/29 99/99/99 33/33/33
f 29/29/29 28/28/28 99/99/99
f 22/22/22 100/100/100 26/26/26
f 22/22/22 21/21/21 100/100/100
f 81/81/81 101/101/101 80/80/80
f 81/81/81 85/85/85 101/101/101
f 104/104/104 103/103/103 102/102/102
f 105/105/105 104/104/104 102/102/102
f 105/105/105 102/102/102 106/106/106
f 107/107/107 105/105/105 106/106/106
f 107/107/107 106/106/106 108/108/108
f 109/109/109 107/107/107 108/108/108
f 109/109/109 108/108/108 110/110/110
f 111/111/111 109/109/109 110/110/110
f 111/111/111 110/110/110 112/112/112
f 113/113/113 111/111/111 112/112/112
f 113/113/113 112/112/112 114/114/114
f 115/115/115 113/113/113 114/114/114
f 115/115/115 114/114/114 116/116/116
f 117/117/117 115/115/115 116/116/116
f 117/117/117 116/116/116 118/118/118
f 119/119/119 117/117/117 118/118/118
f 108/108/108 106/106/106 120/120/120
f 120/120/120 106/106/106 102/102/102
f 120/120/120 102/102/102 121/121/121
f 120/120/120 121/121/121 122/122/122
f 120/120/120 122/122/122 123/123/123
f 124/124/124 120/120/120 123/123/123
f 125/125/125 124/124/124 123/123/123
f 125/125/125 123/123/123 126/126/126
f 126/126/126 123/123/123 127/127/127
f 126/126/126 127/127/127 128/128/128
f 126/126/126 128/128/128 129/129/129
f 126/126/126 129/129/129 130/130/130
f 131/131/131 126/126/126 130/130/130
f 131/131/131 125/125/125 126/126/126
f 132/132/132 131/131/131 130/130/130
f 132/132/132 130/130/130 133/133/133
f 133/133/133 130/130/130 134/134/134
f 133/133/133 134/134/134 135/135/135
f 133/133/133 135/135/135 136/136/136
f 133/133/133 136/136/136 137/137/137
f 138/138/138 133/133/133 137/137/137
f 138/138/138 132/132/132 133/133/133
f 139/139/139 138/138/138 137/137/137
f 139/139/139 137/137/137 140/140/140
f 140/140/140 137/137/137 141/141/141
f 140/140/140 141/141/141 142/142/142
f 143/143/143 139/139/139 140/140/140
f 144/144/144 139/139/139 143/143/143
f 145/145/145 144/144/144 143/143/143
f 146/146/146 144/144/144 145/145/145
f 147/147/147 146/146/146 145/145/145
f 148/148/148 138/138/138 139/139/139
f 144/144/144 148/148/148 139/139/139
f 149/149/149 148/148/148 144/144/144
f 146/146/146 149/149/149 144/144/144
f 148/148/148 150/150/150 138/138/138
f 150/150/150 132/132/132 138/138/138
f 151/151/151 150/150/150 148/148/148
f 149/149/149 151/151/151 148/148/148
f 150/150/150 152/152/152 132/132/132
f 152/152/152 131/131/131 132/132/132
f 153/153/153 152/152/152 150/150/150
f 151/151/151 153/153/153 150/150/150
f 154/154/154 146/146/146 147/147/147
f 154/154/154 149/149/149 146/146/146
f 154/154/154 151/151/151 149/149/149
f 154/154/154 153/153/153 151/151/151
f 152/152/152 155/155/155 131/131/131
f 155/155/155 125/125/125 131/131/131
f 156/156/156 155/155/155 152/152/152
f 153/153/153 156/156/156 152/152/152
f 154/154/154 156/156/156 153/153/153
f 155/155/155 157/157/157 125/125/125
f 157/157/157 124/124/124 125/125/125
f 158/158/158 157/157/157 155/155/155
f 156/156/156 158/158/158 155/155/155
f 154/154/154 158/158/158 156/156/156
f 157/157/157 159/159/159 124/124/124
f 159/159/159 108/108/108 124/124/124
f 124/124/124 108/108/108 120/120/120
f 160/160/160 159/159/159 157/157/157
f 158/158/158 160/160/160 157/157/157
f 154/154/154 160/160/160 158/158/158
f 159/159/159 110/110/110 108/108/108
f 161/161/161 110/110/110 159/159/159
f 160/160/160 161/161/161 159/159/159
f 154/154/154 161/161/161 160/160/160
f 161/161/161 162/162/162 110/110/110
f 154/154/154 162/162/162 161/161/161
f 162/162/162 163/163/163 110/110/110
f 163/163/163 112/112/112 110/110/110
f 163/163/163 164/164/164 112/112/112
f 164/164/164 165/165/165 112/112/112
f 112/112/112 165/165/165 114/114/114
f 165/165/165 166/166/166 114/114/114
f 166/166/166 116/116/116 114/114/114
f 166/166/166 167/167/167 116/116/116
f 166/166/166 168/168/168 167/167/167
f 166/166/166 169/169/169 168/168/168
f 170/170/170 169/169/169 166/166/166
f 165/165/165 170/170/170 166/166/166
f 170/170/170 171/171/171 169/169/169
f 171/171/171 172/172/172 169/169/169
f 172/172/172 173/173/173 169/169/169
f 172/172/172 174/174/174 173/173/173
f 175/175/175 164/164/164 163/163/163
f 162/162/162 175/175/175 163/163/163
f 176/176/176 170/170/170 165/165/165
f 164/164/164 176/176/176 165/165/165
f 177/177/177 176/176/176 164/164/164
f 175/175/175 177/177/177 164/164/164
f 178/178/178 171/171/171 170/170/170
f 176/176/176 178/178/178 170/170/170
f 179/179/179 178/178/178 176/176/176
f 177/177/177 179/179/179 176/176/176
f 154/154/154 175/175/175 162/162/162
f 154/154/154 177/177/177 175/175/175
f 154/154/154 179/179/179 177/177/177
f 169/169/169 180/180/180 168/168/168
f 169/169/169 173/173/173 180/180/180
f 172/172/172 181/181/181 174/174/174
f 172/172/172 182/182/182 181/181/181
f 183/183/183 182/182/182 172/172/172
f 171/171/171 183/183/183 172/172/172
f 183/183/183 184/184/184 182/182/182
f 184/184/184 185/185/185 182/182/182
f 185/185/185 186/186/186 182/182/182
f 185/185/185 187/187/187 186/186/186
f 185/185/185 188/188/188 187/187/187
f 185/185/185 189/189/189 188/188/188
f 190/190/190 189/189/189 185/185/185
f 184/184/184 190/190/190 185/185/185
f 190/190/190 143/143/143 189/189/189
f 143/143/143 140/140/140 189/189/189
f 140/140/140 191/191/191 189/189/189
f 140/140/140 142/142/142 191/191/191
f 192/192/192 184/184/184 183/183/183
f 193/193/193 192/192/192 183/183/183
f 193/193/193 183/183/183 171/171/171
f 178/178/178 193/193/193 171/171/171
f 194/194/194 193/193/193 178/178/178
f 179/179/179 194/194/194 178/178/178
f 195/195/195 192/192/192 193/193/193
f 194/194/194 195/195/195 193/193/193
f 195/195/195 196/196/196 192/192/192
f 196/196/196 197/197/197 192/192/192
f 197/197/197 190/190/190 184/184/184
f 192/192/192 197/197/197 184/184/184
f 145/145/145 143/143/143 190/190/190
f 197/197/197 145/145/145 190/190/190
f 147/147/147 145/145/145 197/197/197
f 196/196/196 147/147/147 197/197/197
f 154/154/154 194/194/194 179/179/179
f 154/154/154 195/195/195 194/194/194
f 154/154/154 196/196/196 195/195/195
f 154/154/154 147/147/147 196/196/196
f 189/189/189 191/191/191 198/198/198
f 189/189/189 198/198/198 188/188/188
f 137/137/137 199/199/199 141/141/141
f 137/137/137 136/136/136 199/199/199
f 130/130/130 200/200/200 134/134/134
f 130/130/130 129/129/129 200/200/200
f 123/123/123 201/201/201 127/127/127
f 123/123/123 122/122/122 201/201/201
f 182/182/182 202/202/202 181/181/181
f 182/182/182 186/186/186 202/202/202
