g Weapon1
v -0.0482577085 1.57985198 -0.0751525089
v -0 1.6369549 -0.20310837
v -0.0635282397 1.62953746 -0.0720078945
v -0 1.56299675 -0.0760813877
v -0 1.6369549 -0.20310837
v -0.0482577085 1.67926049 -0.0695281178
v -0 1.6369549 -0.20310837
v -0 1.69611299 -0.0685498789
v 0.0635282397 1.62953746 -0.0720078945
v 0.0482577085 1.57985198 -0.0751525089
v -0 1.56299675 -0.0760813877
v 0.0482577085 1.67926049 -0.0695281178
v -0 1.6369549 -0.20310837
v -0 1.6369549 -0.20310837
v -0.0635282397 1.62953746 -0.0720078945
v -0.0428602882 1.6294595 -0.0706312284
v -0.0325578004 1.59706438 -0.0725400224
v -0.0482577085 1.57985198 -0.0751525089
v -0 1.58607781 -0.0731557757
v -0 1.56299675 -0.0760813877
v -0.0482577085 1.67926049 -0.0695281178
v -0.0325578004 1.66186333 -0.0688737482
v -0 1.69611299 -0.0685498789
v -0 1.67284906 -0.0682463795
v 0.0325578004 1.66186333 -0.0688737482
v 0.0482577085 1.67926049 -0.0695281178
v 0.0428602882 1.6294595 -0.0706313252
v 0.0635282397 1.62953746 -0.0720078945
v 0.0325578004 1.59706438 -0.0725400224
v 0.0482577085 1.57985198 -0.0751525089
v -0 1.58607781 -0.0731557757
v -0 1.56299675 -0.0760813877
v -0.0428602882 1.6294595 -0.0706312284
v -0.0428602882 1.62828803 -0.0499268286
v -0.0325578004 1.5959022 -0.0520021804
v -0.0325578004 1.59706438 -0.0725400224
v -0 1.58491528 -0.0526057817
v -0 1.58607781 -0.0731557757
v -0.0325578004 1.66186333 -0.0688737482
v -0.0325578004 1.66070139 -0.0483359098
v -0 1.67284906 -0.0682463795
v -0 1.67168641 -0.0476963781
v 0.0325578004 1.66070139 -0.0483359098
v 0.0325578004 1.66186333 -0.0688737482
v 0.0428602882 1.62828803 -0.0499268286
v 0.0428602882 1.6294595 -0.0706313252
v 0.0325578004 1.5959022 -0.0520021804
v 0.0325578004 1.59706438 -0.0725400224
v -0 1.58491528 -0.0526057817
v -0 1.58607781 -0.0731557757
v -0.0428602882 1.62828803 -0.0499268286
v -0.0707009658 1.62828457 -0.049864959
v -0.0537063293 1.57486188 -0.0532885678
v -0.0325578004 1.5959022 -0.0520021804
v -0 1.5567379 -0.0542837456
v -0 1.58491528 -0.0526057817
v -0.0325578004 1.66070139 -0.0483359098
v -0.0537063293 1.68175256 -0.0472408719
v -0 1.67168641 -0.0476963781
v -0 1.69987297 -0.046185378
v 0.0537063293 1.68175256 -0.0472408719
v 0.0325578004 1.66070139 -0.0483359098
v 0.0707009658 1.62828457 -0.049864959
v 0.0428602882 1.62828803 -0.0499268286
v 0.0537063293 1.57486188 -0.0532885678
v 0.0325578004 1.5959022 -0.0520021804
v -0 1.5567379 -0.0542837456
v -0 1.58491528 -0.0526057817
v -0.0707009658 1.62828457 -0.049864959
v -0.0755852386 1.6280117 -0.0450426489
v -0.0574165471 1.57089841 -0.048702579
v -0.0537063293 1.57486188 -0.0532885678
v -0 1.55152249 -0.0497664586
v -0 1.5567379 -0.0542837456
v -0.0537063293 1.68175256 -0.0472408719
v -0.0574165471 1.68517351 -0.0422370918
v -0 1.69987297 -0.046185378
v -0 1.70454574 -0.0411086306
v 0.0574165471 1.68517351 -0.0422370918
v 0.0537063293 1.68175256 -0.0472408719
v 0.0755852386 1.6280117 -0.0450426489
v 0.0707009658 1.62828457 -0.049864959
v 0.0574165471 1.57089841 -0.048702579
v 0.0537063293 1.57486188 -0.0532885678
v -0 1.55152249 -0.0497664586
v -0 1.5567379 -0.0542837456
v -2.49999999E-07 1.60529006 0.356554151
v -2.49999999E-07 1.60529006 0.356554151
v -2.49999999E-07 1.60529006 0.356554151
v -2.49999999E-07 1.60529006 0.356554151
v -2.49999999E-07 1.60529006 0.356554151
vt 0.937915981 0.962426007
vt 0.916962981 0.974340022
vt 0.937915981 0.965328991
vt 0.937915981 0.958875
vt 0.916962981 0.974340022
vt 0.937915981 0.968232989
vt 0.916962981 0.974340022
vt 0.937915981 0.974340022
vt 0.937915981 0.983350992
vt 0.937915981 0.986253977
vt 0.937915981 0.98980701
vt 0.937915981 0.980448008
vt 0.916962981 0.974340022
vt 0.916962981 0.974340022
vt 0.937915981 0.965328991
vt 0.942844987 0.965328991
vt 0.942844987 0.961714029
vt 0.937915981 0.962426007
vt 0.942844987 0.958540976
vt 0.937915981 0.958875
vt 0.937915981 0.968232989
vt 0.942844987 0.968460023
vt 0.937915981 0.974340022
vt 0.942844987 0.974340022
vt 0.942844987 0.97973597
vt 0.937915981 0.980448008
vt 0.942844987 0.983350992
vt 0.937915981 0.983350992
vt 0.942844987 0.986479998
vt 0.937915981 0.986253977
vt 0.942844987 0.989275992
vt 0.937915981 0.98980701
vt 0.942844987 0.965328991
vt 0.946704984 0.965328991
vt 0.946704984 0.961714029
vt 0.942844987 0.961714029
vt 0.946704984 0.958540976
vt 0.942844987 0.958540976
vt 0.942844987 0.968460023
vt 0.946704984 0.968460023
vt 0.942844987 0.974340022
vt 0.946704984 0.974340022
vt 0.946704984 0.97973597
vt 0.942844987 0.97973597
vt 0.946704984 0.983349979
vt 0.942844987 0.983350992
vt 0.946704984 0.986479998
vt 0.942844987 0.986479998
vt 0.946704984 0.989275992
vt 0.942844987 0.989275992
vt 0.946704984 0.965328991
vt 0.951946974 0.965330005
vt 0.951946974 0.961190999
vt 0.946704984 0.961714029
vt 0.951946974 0.956588984
vt 0.946704984 0.958540976
vt 0.946704984 0.968460023
vt 0.951946974 0.969467998
vt 0.946704984 0.974340022
vt 0.951946974 0.974340022
vt 0.951946974 0.979211986
vt 0.946704984 0.97973597
vt 0.951946974 0.983350992
vt 0.946704984 0.983349979
vt 0.951946974 0.987491012
vt 0.946704984 0.986479998
vt 0.951946974 0.992092013
vt 0.946704984 0.989275992
vt 0.951946974 0.965330005
vt 0.954209983 0.965328991
vt 0.954209983 0.961099029
vt 0.951946974 0.961190999
vt 0.954209983 0.956408024
vt 0.951946974 0.956588984
vt 0.951946974 0.969467998
vt 0.954209983 0.969560981
vt 0.951946974 0.974340022
vt 0.954209983 0.974340022
vt 0.954209983 0.979120016
vt 0.951946974 0.979211986
vt 0.954209983 0.983350992
vt 0.951946974 0.983350992
vt 0.954209983 0.987582982
vt 0.951946974 0.987491012
vt 0.954209983 0.992272973
vt 0.951946974 0.992092013
vt 0.992640018 0.974340022
vt 0.992640018 0.974340022
vt 0.992640018 0.974340022
vt 0.992640018 0.974340022
vt 0.992640018 0.974340022
vn -0.638196647 -0.58420676 -0.501405656
vn 3.18647466E-07 0.0564879216 -0.998403251
vn -0.900183082 0.0246011354 -0.434816301
vn -0 -0.86419636 -0.503154635
vn 3.18647466E-07 0.0564879216 -0.998403251
vn -0.638196111 0.637034893 -0.432310402
vn 3.18647466E-07 0.0564879216 -0.998403251
vn -0 0.91543448 -0.402467012
vn 0.90018338 0.0246013347 -0.434815645
vn 0.638196647 -0.58420676 -0.501405656
vn -0 -0.86419636 -0.503154635
vn 0.638196647 0.637034893 -0.432309657
vn 3.18647466E-07 0.0564879216 -0.998403251
vn 3.18647466E-07 0.0564879216 -0.998403251
vn -0.0699633509 -0.0563496277 0.995956779
vn -0.0699633583 -0.0563497916 0.995956779
vn -0.0470986106 -0.10511449 0.993344188
vn -0.0450418629 -0.107099317 0.993227541
vn -0 -0.126714528 0.991939247
vn -0 -0.126714528 0.991939247
vn -0.0450426228 -0.0056155338 0.998969316
vn -0.0470993631 -0.00760084949 0.998861313
vn -1.12751543E-07 0.0140200797 0.999901712
vn -1.1229799E-07 0.0140200797 0.999901712
vn 0.0470991395 -0.0076008304 0.998861313
vn 0.0450423881 -0.0056155161 0.998969316
vn 0.0699633583 -0.0563497432 0.995956779
vn 0.0699633509 -0.0563495867 0.995956779
vn 0.0470986627 -0.105114609 0.993344188
vn 0.045041915 -0.107099444 0.993227541
vn -0 -0.126714528 0.991939247
vn -0 -0.126714528 0.991939247
vn -1 -2.60054009E-07 -2.28889917E-06
vn -1 1.81988668E-07 -2.26419502E-06
vn -0.713371694 -0.699666858 -0.0395867117
vn -0.712396443 -0.700656652 -0.0396427028
vn -0 -0.99840337 -0.0564858131
vn -0 -0.99840337 -0.0564858243
vn -0.712396801 0.700656414 0.0396402739
vn -0.713372827 0.699665844 0.0395842269
vn -0 0.99840337 0.0564858168
vn -0 0.99840337 0.056485828
vn 0.713372827 0.699665844 0.0395842269
vn 0.712396741 0.700656533 0.0396402702
vn 1 1.93362993E-07 -2.26632801E-06
vn 1 -2.48747313E-07 -2.2910192E-06
vn 0.713371754 -0.699666739 -0.0395867117
vn 0.712396502 -0.700656593 -0.0396427065
vn -0 -0.99840337 -0.0564858131
vn -0 -0.99840337 -0.0564858243
vn -0.0022230919 0.0564877614 -0.998400807
vn -0.00222309143 0.056487754 -0.998400807
vn -0.000301549153 0.0613206737 -0.998118043
vn -0.000321711675 0.0613408908 -0.998116791
vn -0 0.0594513938 -0.998231232
vn -0 0.0594513863 -0.998231232
vn -0.000321048428 0.0516330525 -0.998666108
vn -0.00030088675 0.0516532846 -0.998665035
vn -0 0.0535229184 -0.998566628
vn -0 0.0535229221 -0.998566628
vn 0.00030088675 0.0516532846 -0.998665035
vn 0.000321048428 0.0516330525 -0.998666108
vn 0.00222309981 0.0564877875 -0.998400807
vn 0.00222309958 0.0564877838 -0.998400807
vn 0.000301537249 0.0613206998 -0.998118043
vn 0.000321700092 0.0613409281 -0.998116791
vn -0 0.0594513938 -0.998231232
vn -0 0.0594513863 -0.998231232
vn -0.703151762 0.040164385 -0.709904492
vn -0.986862957 -0.00912618544 0.161301702
vn -0.699545264 -0.701766968 0.134757295
vn -0.483406752 -0.429852366 -0.762590885
vn 1.16100296E-07 -0.994190514 0.10763488
vn -4.91522314E-07 -0.654702663 -0.755886555
vn -0.483403146 0.513124347 -0.709242404
vn -0.699545622 0.682088435 0.213052616
vn -0 0.735781908 -0.677218497
vn 1.4776397E-07 0.975704968 0.219088525
vn 0.699545622 0.682088077 0.213053718
vn 0.483402938 0.513124645 -0.709242344
vn 0.986862719 -0.00912621617 0.161303252
vn 0.703152835 0.0401639752 -0.709903479
vn 0.699545264 -0.701766789 0.134757966
vn 0.483407021 -0.429851264 -0.762591302
vn 1.16100296E-07 -0.994190514 0.10763488
vn -4.91522314E-07 -0.654702663 -0.755886555
vn 1.7635515E-06 -0.0564888194 0.998403192
vn 1.7635515E-06 -0.0564888194 0.998403192
vn 1.7635515E-06 -0.0564888194 0.998403192
vn 1.7635515E-06 -0.0564888194 0.998403192
vn 1.7635515E-06 -0.0564888194 0.998403192
g Weapon1_0
f 3/3/3 2/2/2 1/1/1
f 1/1/1 2/2/2 4/4/4
f 6/6/6 5/5/5 3/3/3
f 8/8/8 7/7/7 6/6/6
f 10/10/10 2/2/2 9/9/9
f 11/11/11 2/2/2 10/10/10
f 9/9/9 13/13/13 12/12/12
f 8/8/8 12/12/12 14/14/14
f 17/17/17 16/16/16 15/15/15
f 18/18/18 17/17/17 15/15/15
f 19/19/19 17/17/17 18/18/18
f 20/20/20 19/19/19 18/18/18
f 15/15/15 16/16/16 21/21/21
f 16/16/16 22/22/22 21/21/21
f 21/21/21 22/22/22 23/23/23
f 22/22/22 24/24/24 23/23/23
f 24/24/24 25/25/25 23/23/23
f 25/25/25 26/26/26 23/23/23
f 25/25/25 27/27/27 26/26/26
f 27/27/27 28/28/28 26/26/26
f 27/27/27 29/29/29 28/28/28
f 29/29/29 30/30/30 28/28/28
f 29/29/29 31/31/31 30/30/30
f 31/31/31 32/32/32 30/30/30
f 35/35/35 34/34/34 33/33/33
f 36/36/36 35/35/35 33/33/33
f 37/37/37 35/35/35 36/36/36
f 38/38/38 37/37/37 36/36/36
f 33/33/33 34/34/34 39/39/39
f 34/34/34 40/40/40 39/39/39
f 39/39/39 40/40/40 41/41/41
f 40/40/40 42/42/42 41/41/41
f 42/42/42 43/43/43 41/41/41
f 43/43/43 44/44/44 41/41/41
f 43/43/43 45/45/45 44/44/44
f 45/45/45 46/46/46 44/44/44
f 45/45/45 47/47/47 46/46/46
f 47/47/47 48/48/48 46/46/46
f 47/47/47 49/49/49 48/48/48
f 49/49/49 50/50/50 48/48/48
f 53/53/53 52/52/52 51/51/51
f 54/54/54 53/53/53 51/51/51
f 55/55/55 53/53/53 54/54/54
f 56/56/56 55/55/55 54/54/54
f 51/51/51 52/52/52 57/57/57
f 52/52/52 58/58/58 57/57/57
f 57/57/57 58/58/58 59/59/59
f 58/58/58 60/60/60 59/59/59
f 60/60/60 61/61/61 59/59/59
f 61/61/61 62/62/62 59/59/59
f 61/61/61 63/63/63 62/62/62
f 63/63/63 64/64/64 62/62/62
f 63/63/63 65/65/65 64/64/64
f 65/65/65 66/66/66 64/64/64
f 65/65/65 67/67/67 66/66/66
f 67/67/67 68/68/68 66/66/66
f 71/71/71 70/70/70 69/69/69
f 72/72/72 71/71/71 69/69/69
f 73/73/73 71/71/71 72/72/72
f 74/74/74 73/73/73 72/72/72
f 69/69/69 70/70/70 75/75/75
f 70/70/70 76/76/76 75/75/75
f 75/75/75 76/76/76 77/77/77
f 76/76/76 78/78/78 77/77/77
f 78/78/78 79/79/79 77/77/77
f 79/79/79 80/80/80 77/77/77
f 79/79/79 81/81/81 80/80/80
f 81/81/81 82/82/82 80/80/80
f 81/81/81 83/83/83 82/82/82
f 83/83/83 84/84/84 82/82/82
f 83/83/83 85/85/85 84/84/84
f 85/85/85 86/86/86 84/84/84
f 87/87/87 83/83/83 81/81/81
f 88/88/88 81/81/81 79/79/79
f 88/88/88 79/79/79 78/78/78
f 76/76/76 89/89/89 78/78/78
f 70/70/70 89/89/89 76/76/76
f 90/90/90 85/85/85 83/83/83
f 71/71/71 91/91/91 70/70/70
f 73/73/73 90/90/90 71/71/71
