g mesh_flag_b
v -82.1665421 25.9472179 48.2779007
v -82.1665421 31.9472179 48.2779007
v -82.1893158 31.9472179 48.2551346
v -82.1893158 25.9472179 48.2551346
v -82.1665421 31.9472179 48.2779007
v -82.1893158 31.9472179 48.300663
v -82.2120667 31.9472179 48.2779007
v -82.1893158 31.9472179 48.2551346
v -82.1893158 31.9472179 48.300663
v -82.1893158 25.9472179 48.300663
v -82.2120667 25.9472179 48.2779007
v -82.2120667 31.9472179 48.2779007
v -82.1893158 25.9472179 48.300663
v -82.1665421 25.9472179 48.2779007
v -82.1893158 25.9472179 48.2551346
v -82.2120667 25.9472179 48.2779007
v -82.1893158 25.9472179 48.2551346
v -82.1893158 31.9472179 48.2551346
v -82.2120667 31.9472179 48.2779007
v -82.2120667 25.9472179 48.2779007
v -82.1893158 25.9472179 48.300663
v -82.1893158 31.9472179 48.300663
v -82.1665421 31.9472179 48.2779007
v -82.1665421 25.9472179 48.2779007
v -82.1893158 28.3410206 48.2779007
v -82.1893158 31.9410191 48.2779007
v -82.1893158 31.9472179 46.4296684
v -82.1893158 28.3372192 46.4296684
v -82.1893158 31.9472179 44.7867851
v -82.1893158 28.3372192 44.7867851
v -82.1893158 31.9472179 43.2208176
v -82.1893158 28.3372192 43.2208176
v -82.1893158 28.3372192 41.5693169
v -82.1893158 30.1422176 41.5686302
v -82.1893158 31.9472179 41.5679588
v -82.1893158 28.3372192 39.8322983
v -82.1893158 31.9472179 39.8323059
v -82.1893158 31.9410191 48.2779007
v -82.1893158 28.3410206 48.2779007
v -82.1893158 28.3372192 46.4296684
v -82.1893158 31.9472179 46.4296684
v -82.1893158 28.3372192 44.7867851
v -82.1893158 31.9472179 44.7867851
v -82.1893158 28.3372192 43.2208176
v -82.1893158 31.9472179 43.2208176
v -82.1893158 31.9472179 41.5693245
v -82.1893158 30.1422176 41.5693169
v -82.1893158 28.3372192 41.5693169
v -82.1893158 31.9472179 39.8323059
v -82.1893158 28.3372192 39.8322983
v -48.2514725 25.9472179 63.1574631
v -48.2514725 31.9472179 63.1574631
v -48.2742386 31.9472179 63.1347008
v -48.2742386 25.9472179 63.1347008
v -48.2514725 31.9472179 63.1574631
v -48.2742386 31.9472179 63.1802292
v -48.2970009 31.9472179 63.1574631
v -48.2742386 31.9472179 63.1347008
v -48.2742386 31.9472179 63.1802292
v -48.2742386 25.9472179 63.1802292
v -48.2970009 25.9472179 63.1574631
v -48.2970009 31.9472179 63.1574631
v -48.2742386 25.9472179 63.1802292
v -48.2514725 25.9472179 63.1574631
v -48.2742386 25.9472179 63.1347008
v -48.2970009 25.9472179 63.1574631
v -48.2742386 25.9472179 63.1347008
v -48.2742386 31.9472179 63.1347008
v -48.2970009 31.9472179 63.1574631
v -48.2970009 25.9472179 63.1574631
v -48.2742386 25.9472179 63.1802292
v -48.2742386 31.9472179 63.1802292
v -48.2514725 31.9472179 63.1574631
v -48.2514725 25.9472179 63.1574631
v -48.2742386 28.3410206 63.1574631
v -48.2742386 31.9410191 63.1574631
v -48.2742386 31.9472179 61.3092308
v -48.2742386 28.3372192 61.3092308
v -48.2742386 31.9472179 59.6663513
v -48.2742386 28.3372192 59.6663513
v -48.2742386 31.9472179 58.1003838
v -48.2742386 28.3372192 58.1003838
v -48.2742386 28.3372192 56.4488792
v -48.2742386 30.1422176 56.4481964
v -48.2742386 31.9472179 56.447525
v -48.2742386 28.3372192 54.7118607
v -48.2742386 31.9472179 54.7118683
v -48.2742386 31.9410191 63.1574631
v -48.2742386 28.3410206 63.1574631
v -48.2742386 28.3372192 61.3092308
v -48.2742386 31.9472179 61.3092308
v -48.2742386 28.3372192 59.6663513
v -48.2742386 31.9472179 59.6663513
v -48.2742386 28.3372192 58.1003838
v -48.2742386 31.9472179 58.1003838
v -48.2742386 31.9472179 56.4488907
v -48.2742386 30.1422176 56.4488792
v -48.2742386 28.3372192 56.4488792
v -48.2742386 31.9472179 54.7118683
v -48.2742386 28.3372192 54.7118607
v 11.7394419 17.8318138 86.0077057
v 11.7394419 23.8318138 86.0077057
v 11.7166805 23.8318138 85.9849472
v 11.7166805 17.8318138 85.9849472
v 11.7394419 23.8318138 86.0077057
v 11.7166805 23.8318138 86.0304642
v 11.6939182 23.8318138 86.0077057
v 11.7166805 23.8318138 85.9849472
v 11.7166805 23.8318138 86.0304642
v 11.7166805 17.8318138 86.0304642
v 11.6939182 17.8318138 86.0077057
v 11.6939182 23.8318138 86.0077057
v 11.7166805 17.8318138 86.0304642
v 11.7394419 17.8318138 86.0077057
v 11.7166805 17.8318138 85.9849472
v 11.6939182 17.8318138 86.0077057
v 11.7166805 17.8318138 85.9849472
v 11.7166805 23.8318138 85.9849472
v 11.6939182 23.8318138 86.0077057
v 11.6939182 17.8318138 86.0077057
v 11.7166805 17.8318138 86.0304642
v 11.7166805 23.8318138 86.0304642
v 11.7394419 23.8318138 86.0077057
v 11.7394419 17.8318138 86.0077057
v 11.7166805 20.2256126 86.0077057
v 11.7166796 23.8256149 86.0077057
v 11.7166805 23.8318138 84.1594696
v 11.7166805 20.2218132 84.1594696
v 11.7166805 23.8318138 82.5166016
v 11.7166805 20.2218132 82.5166016
v 11.7166805 23.8318138 80.9506226
v 11.7166805 20.2218132 80.9506226
v 11.7166805 20.2218132 79.2991257
v 11.7166805 22.0268154 79.2984467
v 11.7166805 23.8318138 79.2977753
v 11.7166805 20.2218132 77.5621109
v 11.7166805 23.8318138 77.5621109
v 11.7166796 23.8256149 86.0077057
v 11.7166805 20.2256126 86.0077057
v 11.7166805 20.2218132 84.1594696
v 11.7166805 23.8318138 84.1594696
v 11.7166805 20.2218132 82.5166016
v 11.7166805 23.8318138 82.5166016
v 11.7166805 20.2218132 80.9506226
v 11.7166805 23.8318138 80.9506226
v 11.7166805 23.8318138 79.2991257
v 11.7166805 22.0268154 79.2991257
v 11.7166805 20.2218132 79.2991257
v 11.7166805 23.8318138 77.5621109
v 11.7166805 20.2218132 77.5621109
v -21.506216 16.0649967 78.2568207
v -21.506216 22.0649948 78.2568207
v -21.5289783 22.0649948 78.2340622
v -21.5289783 16.0649967 78.2340622
v -21.506216 22.0649948 78.2568207
v -21.5289783 22.0649948 78.2795868
v -21.5517387 22.0649948 78.2568207
v -21.5289783 22.0649948 78.2340622
v -21.5289783 22.0649948 78.2795868
v -21.5289783 16.0649967 78.2795868
v -21.5517387 16.0649967 78.2568207
v -21.5517387 22.0649948 78.2568207
v -21.5289783 16.0649967 78.2795868
v -21.506216 16.0649967 78.2568207
v -21.5289783 16.0649967 78.2340622
v -21.5517387 16.0649967 78.2568207
v -21.5289783 16.0649967 78.2340622
v -21.5289783 22.0649948 78.2340622
v -21.5517387 22.0649948 78.2568207
v -21.5517387 16.0649967 78.2568207
v -21.5289783 16.0649967 78.2795868
v -21.5289783 22.0649948 78.2795868
v -21.506216 22.0649948 78.2568207
v -21.506216 16.0649967 78.2568207
v -21.5289783 18.4587955 78.2568207
v -21.5289783 22.0587959 78.2568207
v -21.5289783 22.0649948 76.4085922
v -21.5289783 18.4549942 76.4085922
v -21.5289783 22.0649948 74.7657089
v -21.5289783 18.4549942 74.7657089
v -21.5289783 22.0649948 73.1997452
v -21.5289783 18.4549942 73.1997452
v -21.5289783 18.4549942 71.5482407
v -21.5289783 20.2599945 71.547554
v -21.5289783 22.0649948 71.5468826
v -21.5289783 18.4549942 69.8112183
v -21.5289783 22.0649948 69.8112259
v -21.5289783 22.0587959 78.2568207
v -21.5289783 18.4587955 78.2568207
v -21.5289783 18.4549942 76.4085922
v -21.5289783 22.0649948 76.4085922
v -21.5289783 18.4549942 74.7657089
v -21.5289783 22.0649948 74.7657089
v -21.5289783 18.4549942 73.1997452
v -21.5289783 22.0649948 73.1997452
v -21.5289783 22.0649948 71.5482483
v -21.5289783 20.2599945 71.5482407
v -21.5289783 18.4549942 71.5482407
v -21.5289783 22.0649948 69.8112259
v -21.5289783 18.4549942 69.8112183
vt 0.902259648 0.400893033
vt 0.902259648 0.531202555
vt 0.902259648 0.531202555
vt 0.902259648 0.400893033
vt 0.902259648 0.531202555
vt 0.905517578 0.531202555
vt 0.905517578 0.531202555
vt 0.902259648 0.531202555
vt 0.905517578 0.531202555
vt 0.905517578 0.400893033
vt 0.905517578 0.400893033
vt 0.905517578 0.531202555
vt 0.905517578 0.400893033
vt 0.902259648 0.400893033
vt 0.902259648 0.400893033
vt 0.905517578 0.400893033
vt 0.902259648 0.400893033
vt 0.902259648 0.531202555
vt 0.905517578 0.531202555
vt 0.905517578 0.400893033
vt 0.905517578 0.400893033
vt 0.905517578 0.531202555
vt 0.902259648 0.531202555
vt 0.902259648 0.400893033
vt 0.462879509 0.813149631
vt 0.462879509 0.861266255
vt 0.48674041 0.861349046
vt 0.48674041 0.813098848
vt 0.511221647 0.861349046
vt 0.511221647 0.813098848
vt 0.534556866 0.861349046
vt 0.534556866 0.813098848
vt 0.559166789 0.813098848
vt 0.559176862 0.837223947
vt 0.559186935 0.861349046
vt 0.58873117 0.813098848
vt 0.58873105 0.861349046
vt 0.462879509 0.861266255
vt 0.462879509 0.813149631
vt 0.48674041 0.813098848
vt 0.48674041 0.861349046
vt 0.511221647 0.813098848
vt 0.511221647 0.861349046
vt 0.534556866 0.813098848
vt 0.534556866 0.861349046
vt 0.55916667 0.861349046
vt 0.559166729 0.837223947
vt 0.559166789 0.813098848
vt 0.58873105 0.861349046
vt 0.58873117 0.813098848
vt 0.902259648 0.400893033
vt 0.902259648 0.531202555
vt 0.902259648 0.531202555
vt 0.902259648 0.400893033
vt 0.902259648 0.531202555
vt 0.905517578 0.531202555
vt 0.905517578 0.531202555
vt 0.902259648 0.531202555
vt 0.905517578 0.531202555
vt 0.905517578 0.400893033
vt 0.905517578 0.400893033
vt 0.905517578 0.531202555
vt 0.905517578 0.400893033
vt 0.902259648 0.400893033
vt 0.902259648 0.400893033
vt 0.905517578 0.400893033
vt 0.902259648 0.400893033
vt 0.902259648 0.531202555
vt 0.905517578 0.531202555
vt 0.905517578 0.400893033
vt 0.905517578 0.400893033
vt 0.905517578 0.531202555
vt 0.902259648 0.531202555
vt 0.902259648 0.400893033
vt 0.462879509 0.813149631
vt 0.462879509 0.861266255
vt 0.48674041 0.861349046
vt 0.48674041 0.813098848
vt 0.511221647 0.861349046
vt 0.511221647 0.813098848
vt 0.534556866 0.861349046
vt 0.534556866 0.813098848
vt 0.559166789 0.813098848
vt 0.559176862 0.837223947
vt 0.559186935 0.861349046
vt 0.58873117 0.813098848
vt 0.58873105 0.861349046
vt 0.462879509 0.861266255
vt 0.462879509 0.813149631
vt 0.48674041 0.813098848
vt 0.48674041 0.861349046
vt 0.511221647 0.813098848
vt 0.511221647 0.861349046
vt 0.534556866 0.813098848
vt 0.534556866 0.861349046
vt 0.55916667 0.861349046
vt 0.559166729 0.837223947
vt 0.559166789 0.813098848
vt 0.58873105 0.861349046
vt 0.58873117 0.813098848
vt 0.902259648 0.400893033
vt 0.902259648 0.531202555
vt 0.902259648 0.531202555
vt 0.902259648 0.400893033
vt 0.902259648 0.531202555
vt 0.905517578 0.531202555
vt 0.905517578 0.531202555
vt 0.902259648 0.531202555
vt 0.905517578 0.531202555
vt 0.905517578 0.400893033
vt 0.905517578 0.400893033
vt 0.905517578 0.531202555
vt 0.905517578 0.400893033
vt 0.902259648 0.400893033
vt 0.902259648 0.400893033
vt 0.905517578 0.400893033
vt 0.902259648 0.400893033
vt 0.902259648 0.531202555
vt 0.905517578 0.531202555
vt 0.905517578 0.400893033
vt 0.905517578 0.400893033
vt 0.905517578 0.531202555
vt 0.902259648 0.531202555
vt 0.902259648 0.400893033
vt 0.462879509 0.813149631
vt 0.462879509 0.861266255
vt 0.48674041 0.861349046
vt 0.48674041 0.813098848
vt 0.511221647 0.861349046
vt 0.511221647 0.813098848
vt 0.534556866 0.861349046
vt 0.534556866 0.813098848
vt 0.559166789 0.813098848
vt 0.559176862 0.837223947
vt 0.559186935 0.861349046
vt 0.58873117 0.813098848
vt 0.58873105 0.861349046
vt 0.462879509 0.861266255
vt 0.462879509 0.813149631
vt 0.48674041 0.813098848
vt 0.48674041 0.861349046
vt 0.511221647 0.813098848
vt 0.511221647 0.861349046
vt 0.534556866 0.813098848
vt 0.534556866 0.861349046
vt 0.55916667 0.861349046
vt 0.559166729 0.837223947
vt 0.559166789 0.813098848
vt 0.58873105 0.861349046
vt 0.58873117 0.813098848
vt 0.902259648 0.400893033
vt 0.902259648 0.531202555
vt 0.902259648 0.531202555
vt 0.902259648 0.400893033
vt 0.902259648 0.531202555
vt 0.905517578 0.531202555
vt 0.905517578 0.531202555
vt 0.902259648 0.531202555
vt 0.905517578 0.531202555
vt 0.905517578 0.400893033
vt 0.905517578 0.400893033
vt 0.905517578 0.531202555
vt 0.905517578 0.400893033
vt 0.902259648 0.400893033
vt 0.902259648 0.400893033
vt 0.905517578 0.400893033
vt 0.902259648 0.400893033
vt 0.902259648 0.531202555
vt 0.905517578 0.531202555
vt 0.905517578 0.400893033
vt 0.905517578 0.400893033
vt 0.905517578 0.531202555
vt 0.902259648 0.531202555
vt 0.902259648 0.400893033
vt 0.462879509 0.813149631
vt 0.462879509 0.861266255
vt 0.48674041 0.861349046
vt 0.48674041 0.813098848
vt 0.511221647 0.861349046
vt 0.511221647 0.813098848
vt 0.534556866 0.861349046
vt 0.534556866 0.813098848
vt 0.559166789 0.813098848
vt 0.559176862 0.837223947
vt 0.559186935 0.861349046
vt 0.58873117 0.813098848
vt 0.58873105 0.861349046
vt 0.462879509 0.861266255
vt 0.462879509 0.813149631
vt 0.48674041 0.813098848
vt 0.48674041 0.861349046
vt 0.511221647 0.813098848
vt 0.511221647 0.861349046
vt 0.534556866 0.813098848
vt 0.534556866 0.861349046
vt 0.55916667 0.861349046
vt 0.559166729 0.837223947
vt 0.559166789 0.813098848
vt 0.58873105 0.861349046
vt 0.58873117 0.813098848
vn 0.706936896 0 -0.707276583
vn 0.706936896 0 -0.707276583
vn 0.706936896 0 -0.707276583
vn 0.706936896 0 -0.707276583
vn -0 1 4.71164713E-05
vn -0 1 4.71164749E-05
vn -0 1 4.71164713E-05
vn -0 1 4.71164749E-05
vn -0.707240283 0 0.706973255
vn -0.707240283 0 0.706973255
vn -0.707240283 0 0.706973255
vn -0.707240283 0 0.706973255
vn -0 -1 0
vn -0 -1 0
vn -0 -1 0
vn -0 -1 0
vn -0.707240283 0 -0.706973255
vn -0.707240283 0 -0.706973255
vn -0.707240283 0 -0.706973255
vn -0.707240283 0 -0.706973255
vn 0.706936896 0 0.707276583
vn 0.706936896 0 0.707276583
vn 0.706936896 0 0.707276583
vn 0.706936896 0 0.707276583
vn 1 0 0
vn 1 0 0
vn 1 0 0
vn 1 0 0
vn 1 0 0
vn 1 0 0
vn 1 -7.71971258E-07 0
vn 1 0 0
vn 1 -5.62624336E-07 0
vn 1 -8.33868739E-07 0
vn 1 -4.08645974E-06 0
vn 1 -2.16861622E-06 0
vn 1 0 0
vn -1 0 0
vn -1 0 0
vn -1 0 0
vn -1 0 0
vn -1 0 0
vn -1 0 0
vn -1 0 0
vn -1 0 0
vn -1 -1.63433401E-06 0
vn -1 -5.31042701E-07 0
vn -1 0 0
vn -1 -6.29597071E-06 0
vn -1 0 0
vn 0.70708859 0 -0.707124949
vn 0.70708859 0 -0.707124949
vn 0.70708859 0 -0.707124949
vn 0.70708859 0 -0.707124949
vn -0 1 0
vn -0 1 0
vn -0 1 0
vn -0 1 0
vn -0.70708859 0 0.707124949
vn -0.70708859 0 0.707124949
vn -0.70708859 0 0.707124949
vn -0.70708859 0 0.707124949
vn -0 -1 0
vn -0 -1 0
vn -0 -1 0
vn -0 -1 0
vn -0.70708859 0 -0.707124949
vn -0.70708859 0 -0.707124949
vn -0.70708859 0 -0.707124949
vn -0.70708859 0 -0.707124949
vn 0.70708859 0 0.707124949
vn 0.70708859 0 0.707124949
vn 0.70708859 0 0.707124949
vn 0.70708859 0 0.707124949
vn 1 0 0
vn 1 0 0
vn 1 0 0
vn 1 0 0
vn 1 0 0
vn 1 0 0
vn 1 -3.85985942E-07 0
vn 1 0 0
vn 1 0 0
vn 1 -3.27265468E-07 0
vn 1 -2.04322987E-06 0
vn 1 0 0
vn 1 0 0
vn -1 0 0
vn -1 0 0
vn -1 0 0
vn -1 0 0
vn -1 0 0
vn -1 0 0
vn -1 3.44849951E-07 0
vn -1 6.17309922E-07 0
vn -1 1.47838193E-06 0
vn -1 1.19765298E-06 0
vn -1 0 0
vn -1 1.70835165E-06 0
vn -1 0 0
vn 0.707061768 0 -0.707151771
vn 0.707061768 0 -0.707151771
vn 0.707061768 0 -0.707151771
vn 0.707061768 0 -0.707151771
vn -0 1 0
vn -0 1 0
vn -0 1 0
vn -0 1 0
vn -0.707042813 0 0.707170725
vn -0.707042813 0 0.707170725
vn -0.707042813 0 0.707170725
vn -0.707042813 0 0.707170725
vn -0 -1 0
vn -0 -1 0
vn -0 -1 0
vn -0 -1 0
vn -0.707042813 0 -0.707170725
vn -0.707042813 0 -0.707170725
vn -0.707042813 0 -0.707170725
vn -0.707042813 0 -0.707170725
vn 0.707061768 0 0.707151771
vn 0.707061768 0 0.707151771
vn 0.707061768 0 0.707151771
vn 0.707061768 0 0.707151771
vn 1 4.69016754E-07 3.30345472E-07
vn 1 4.69016811E-07 3.30345472E-07
vn 1 2.47891307E-07 1.7459881E-07
vn 1 2.47988055E-07 1.74666965E-07
vn 1 0 0
vn 1 0 0
vn 1 0 0
vn 1 0 0
vn 1 -2.11744293E-07 0
vn 1 0 0
vn 1 5.11053372E-07 0
vn 1 -8.161511E-07 0
vn 1 9.9749434E-07 0
vn -1 -4.69016783E-07 -3.303455E-07
vn -1 -4.69016783E-07 -3.30345443E-07
vn -1 -2.47987799E-07 -1.74666752E-07
vn -1 -2.4789108E-07 -1.74598668E-07
vn -1 0 0
vn -1 0 0
vn -1 0 0
vn -1 0 0
vn -1 0 0
vn -1 0 0
vn -1 0 0
vn -1 0 0
vn -1 0 0
vn 0.707023919 0 -0.707189679
vn 0.707023919 0 -0.707189679
vn 0.707023919 0 -0.707189679
vn 0.707023919 0 -0.707189679
vn -0 1 4.71209096E-05
vn -0 1 4.71209132E-05
vn -0 1 4.71209096E-05
vn -0 1 4.71209132E-05
vn -0.707229257 0 0.706984282
vn -0.707229257 0 0.706984282
vn -0.707229257 0 0.706984282
vn -0.707229257 0 0.706984282
vn -0 -1 0
vn -0 -1 0
vn -0 -1 0
vn -0 -1 0
vn -0.707099855 0 -0.707113743
vn -0.707099855 0 -0.707113743
vn -0.707099855 0 -0.707113743
vn -0.707099855 0 -0.707113743
vn 0.70715338 0 0.707060218
vn 0.70715338 0 0.707060218
vn 0.70715338 0 0.707060218
vn 0.70715338 0 0.707060218
vn 1 0 0
vn 1 0 0
vn 1 0 0
vn 1 0 0
vn 1 0 0
vn 1 0 0
vn 1 1.92992715E-07 0
vn 1 0 0
vn 1 2.40150939E-07 0
vn 1 2.40820611E-07 0
vn 1 1.02161914E-06 0
vn 1 9.25652614E-07 0
vn 1 0 0
vn -1 0 0
vn -1 0 0
vn -1 0 0
vn -1 0 0
vn -1 0 0
vn -1 0 0
vn -1 0 0
vn -1 0 0
vn -1 1.43885302E-07 0
vn -1 0 0
vn -1 0 0
vn -1 5.54290466E-07 0
vn -1 0 0
g mesh_flag_b_0
f 3/3/3 2/2/2 1/1/1
f 4/4/4 3/3/3 1/1/1
f 7/7/7 6/6/6 5/5/5
f 8/8/8 7/7/7 5/5/5
f 11/11/11 10/10/10 9/9/9
f 12/12/12 11/11/11 9/9/9
f 15/15/15 14/14/14 13/13/13
f 16/16/16 15/15/15 13/13/13
f 19/19/19 18/18/18 17/17/17
f 20/20/20 19/19/19 17/17/17
f 23/23/23 22/22/22 21/21/21
f 24/24/24 23/23/23 21/21/21
f 27/27/27 26/26/26 25/25/25
f 28/28/28 27/27/27 25/25/25
f 29/29/29 27/27/27 28/28/28
f 30/30/30 29/29/29 28/28/28
f 31/31/31 29/29/29 30/30/30
f 32/32/32 31/31/31 30/30/30
f 32/32/32 33/33/33 31/31/31
f 33/33/33 34/34/34 31/31/31
f 35/35/35 31/31/31 34/34/34
f 36/36/36 34/34/34 33/33/33
f 35/35/35 34/34/34 37/37/37
f 40/40/40 39/39/39 38/38/38
f 41/41/41 40/40/40 38/38/38
f 42/42/42 40/40/40 41/41/41
f 43/43/43 42/42/42 41/41/41
f 44/44/44 42/42/42 43/43/43
f 45/45/45 44/44/44 43/43/43
f 45/45/45 46/46/46 44/44/44
f 46/46/46 47/47/47 44/44/44
f 48/48/48 44/44/44 47/47/47
f 49/49/49 47/47/47 46/46/46
f 48/48/48 47/47/47 50/50/50
f 53/53/53 52/52/52 51/51/51
f 54/54/54 53/53/53 51/51/51
f 57/57/57 56/56/56 55/55/55
f 58/58/58 57/57/57 55/55/55
f 61/61/61 60/60/60 59/59/59
f 62/62/62 61/61/61 59/59/59
f 65/65/65 64/64/64 63/63/63
f 66/66/66 65/65/65 63/63/63
f 69/69/69 68/68/68 67/67/67
f 70/70/70 69/69/69 67/67/67
f 73/73/73 72/72/72 71/71/71
f 74/74/74 73/73/73 71/71/71
f 77/77/77 76/76/76 75/75/75
f 78/78/78 77/77/77 75/75/75
f 79/79/79 77/77/77 78/78/78
f 80/80/80 79/79/79 78/78/78
f 81/81/81 79/79/79 80/80/80
f 82/82/82 81/81/81 80/80/80
f 82/82/82 83/83/83 81/81/81
f 83/83/83 84/84/84 81/81/81
f 85/85/85 81/81/81 84/84/84
f 86/86/86 84/84/84 83/83/83
f 85/85/85 84/84/84 87/87/87
f 90/90/90 89/89/89 88/88/88
f 91/91/91 90/90/90 88/88/88
f 92/92/92 90/90/90 91/91/91
f 93/93/93 92/92/92 91/91/91
f 94/94/94 92/92/92 93/93/93
f 95/95/95 94/94/94 93/93/93
f 95/95/95 96/96/96 94/94/94
f 96/96/96 97/97/97 94/94/94
f 98/98/98 94/94/94 97/97/97
f 99/99/99 97/97/97 96/96/96
f 98/98/98 97/97/97 100/100/100
f 103/103/103 102/102/102 101/101/101
f 104/104/104 103/103/103 101/101/101
f 107/107/107 106/106/106 105/105/105
f 108/108/108 107/107/107 105/105/105
f 111/111/111 110/110/110 109/109/109
f 112/112/112 111/111/111 109/109/109
f 115/115/115 114/114/114 113/113/113
f 116/116/116 115/115/115 113/113/113
f 119/119/119 118/118/118 117/117/117
f 120/120/120 119/119/119 117/117/117
f 123/123/123 122/122/122 121/121/121
f 124/124/124 123/123/123 121/121/121
f 127/127/127 126/126/126 125/125/125
f 128/128/128 127/127/127 125/125/125
f 129/129/129 127/127/127 128/128/128
f 130/130/130 129/129/129 128/128/128
f 131/131/131 129/129/129 130/130/130
f 132/132/132 131/131/131 130/130/130
f 132/132/132 133/133/133 131/131/131
f 133/133/133 134/134/134 131/131/131
f 135/135/135 131/131/131 134/134/134
f 136/136/136 134/134/134 133/133/133
f 135/135/135 134/134/134 137/137/137
f 140/140/140 139/139/139 138/138/138
f 141/141/141 140/140/140 138/138/138
f 142/142/142 140/140/140 141/141/141
f 143/143/143 142/142/142 141/141/141
f 144/144/144 142/142/142 143/143/143
f 145/145/145 144/144/144 143/143/143
f 145/145/145 146/146/146 144/144/144
f 146/146/146 147/147/147 144/144/144
f 148/148/148 144/144/144 147/147/147
f 149/149/149 147/147/147 146/146/146
f 148/148/148 147/147/147 150/150/150
f 153/153/153 152/152/152 151/151/151
f 154/154/154 153/153/153 151/151/151
f 157/157/157 156/156/156 155/155/155
f 158/158/158 157/157/157 155/155/155
f 161/161/161 160/160/160 159/159/159
f 162/162/162 161/161/161 159/159/159
f 165/165/165 164/164/164 163/163/163
f 166/166/166 165/165/165 163/163/163
f 169/169/169 168/168/168 167/167/167
f 170/170/170 169/169/169 167/167/167
f 173/173/173 172/172/172 171/171/171
f 174/174/174 173/173/173 171/171/171
f 177/177/177 176/176/176 175/175/175
f 178/178/178 177/177/177 175/175/175
f 179/179/179 177/177/177 178/178/178
f 180/180/180 179/179/179 178/178/178
f 181/181/181 179/179/179 180/180/180
f 182/182/182 181/181/181 180/180/180
f 182/182/182 183/183/183 181/181/181
f 183/183/183 184/184/184 181/181/181
f 185/185/185 181/181/181 184/184/184
f 186/186/186 184/184/184 183/183/183
f 185/185/185 184/184/184 187/187/187
f 190/190/190 189/189/189 188/188/188
f 191/191/191 190/190/190 188/188/188
f 192/192/192 190/190/190 191/191/191
f 193/193/193 192/192/192 191/191/191
f 194/194/194 192/192/192 193/193/193
f 195/195/195 194/194/194 193/193/193
f 195/195/195 196/196/196 194/194/194
f 196/196/196 197/197/197 194/194/194
f 198/198/198 194/194/194 197/197/197
f 199/199/199 197/197/197 196/196/196
f 198/198/198 197/197/197 200/200/200
