g wp_013_001_002_Mesh_b
v 0.0179807954 0.0328334048 0.0484471321
v 0.0179807954 0.0319479257 0.0554601736
v -1.02374491E-08 0.03939927 0.0564009957
v -1.02374491E-08 0.0402847379 0.0493879505
v 0.023582017 0.0207572225 0.0469223782
v 0.023582017 0.0198717546 0.0539354309
v -1.02374491E-08 0.0402847379 0.0493879505
v -1.02374491E-08 0.03939927 0.0564009957
v -0.0179808084 0.0319479257 0.0554601736
v -0.0179808121 0.0328334048 0.0484471321
v -0.0235820264 0.0198717546 0.0539354309
v -0.0235820264 0.0207572225 0.0469223782
v -0.0235820264 0.0207572225 0.0469223782
v -0.0235820264 0.0198717546 0.0539354309
v -0.0352914147 0.014223611 0.0532222912
v -0.0352914147 0.0151090855 0.0462092385
v -0.0411668681 -0.00143782969 0.0512448698
v -0.0411668681 -0.000552356243 0.0442318134
v -0.0411668681 -0.000552356243 0.0442318134
v -0.0411668681 -0.00143782969 0.0512448698
v -0.0352914147 -0.0170992687 0.0492674336
v -0.0352914147 -0.0162137952 0.0422543883
v -0.0235820264 -0.0227474067 0.0485542938
v -0.0235820264 -0.021861935 0.0415412523
v 0.0352913998 -0.0170992687 0.0492674336
v 0.0411668532 -0.00143782969 0.0512448698
v 0.0411668532 -0.000552356243 0.0442318134
v 0.0352913998 -0.0162137952 0.0422543883
v 0.023582017 -0.021861935 0.0415412523
v 0.023582017 -0.0227474067 0.0485542938
v 0.0411668532 -0.000552356243 0.0442318134
v 0.0411668532 -0.00143782969 0.0512448698
v 0.0352913998 0.014223611 0.0532222912
v 0.0352913998 0.0151090855 0.0462092385
v 0.023582017 0.0198717546 0.0539354309
v 0.023582017 0.0207572225 0.0469223782
v -1.02374491E-08 -0.0413894542 0.0390756875
v -1.02374491E-08 -0.0422749259 0.0460887328
v 0.0179807954 -0.0348235853 0.0470295511
v 0.0179807954 -0.0339381136 0.0400165059
v 0.023582017 -0.0227474067 0.0485542938
v 0.023582017 -0.021861935 0.0415412523
v -0.0179808084 -0.0339381136 0.0400165059
v -0.0179808084 -0.0348235853 0.0470295511
v -1.02374491E-08 -0.0422749259 0.0460887328
v -1.02374491E-08 -0.0413894542 0.0390756875
v -0.0235820264 -0.021861935 0.0415412523
v -0.0235820264 -0.0227474067 0.0485542938
v -1.02374491E-08 -0.0413894542 0.0390756875
v -1.02374491E-08 -0.000552356243 0.0442318134
v -0.0179808084 -0.0339381136 0.0400165059
v -0.0235820264 -0.021861935 0.0415412523
v -0.0352914147 -0.0162137952 0.0422543883
v -0.0411668681 -0.000552356243 0.0442318134
v -1.02374491E-08 0.03939927 0.0564009957
v 0.0179807954 0.0319479257 0.0554601736
v -1.02374491E-08 -0.00143782736 0.0512448698
v 0.023582017 0.0198717546 0.0539354309
v 0.0352913998 0.014223611 0.0532222912
v 0.0411668532 -0.00143782969 0.0512448698
v -1.02374491E-08 0.03939927 0.0564009957
v -1.02374491E-08 -0.00143782736 0.0512448698
v -0.0179808084 0.0319479257 0.0554601736
v -0.0235820264 0.0198717546 0.0539354309
v -0.0352914147 0.014223611 0.0532222912
v -0.0411668681 -0.00143782969 0.0512448698
v -1.02374491E-08 -0.0413894542 0.0390756875
v 0.0179807954 -0.0339381136 0.0400165059
v -1.02374491E-08 -0.000552356243 0.0442318134
v 0.023582017 -0.021861935 0.0415412523
v 0.0352913998 -0.0162137952 0.0422543883
v 0.0411668532 -0.000552356243 0.0442318134
v -1.02374491E-08 0.0402847379 0.0493879505
v -0.0179808121 0.0328334048 0.0484471321
v -1.02374491E-08 -0.000552356243 0.0442318134
v -0.0235820264 0.0207572225 0.0469223782
v -0.0352914147 0.0151090855 0.0462092385
v -0.0411668681 -0.000552356243 0.0442318134
v -1.02374491E-08 0.0402847379 0.0493879505
v -1.02374491E-08 -0.000552356243 0.0442318134
v 0.0179807954 0.0328334048 0.0484471321
v 0.023582017 0.0207572225 0.0469223782
v 0.0352913998 0.0151090855 0.0462092385
v 0.0411668532 -0.000552356243 0.0442318134
v -1.02374491E-08 -0.0422749259 0.0460887328
v -0.0179808084 -0.0348235853 0.0470295511
v -1.02374491E-08 -0.00143782736 0.0512448698
v -0.0235820264 -0.0227474067 0.0485542938
v -0.0352914147 -0.0170992687 0.0492674336
v -0.0411668681 -0.00143782969 0.0512448698
v -1.02374491E-08 -0.0422749259 0.0460887328
v -1.02374491E-08 -0.00143782736 0.0512448698
v 0.0179807954 -0.0348235853 0.0470295511
v 0.023582017 -0.0227474067 0.0485542938
v 0.0352913998 -0.0170992687 0.0492674336
v 0.0411668532 -0.00143782969 0.0512448698
v 1.92562551E-16 -0.0279349517 0.276011497
v 0.0121891992 -0.0482439399 0.27777034
v -0.0121891992 -0.0482439846 0.27777046
v 1.96828328E-16 -0.0643207356 0.265108526
v 0.0121891992 -0.0191488061 0.158521369
v 1.74336255E-16 -0.0377112255 0.154476181
v 1.96828328E-16 -0.0643207356 0.265108526
v 0.0121891992 -0.0482439399 0.27777034
v 1.92562551E-16 -0.0279349517 0.276011497
v 1.69534134E-16 -0.000586386886 0.162566543
v -0.0121891992 -0.0482439846 0.27777046
v -0.0121891992 -0.0191488061 0.158521369
v 1.96828328E-16 -0.0643207356 0.265108526
v 1.74336255E-16 -0.0377112255 0.154476181
v 0.0121891992 -0.00143842935 0.0512495898
v 1.48760836E-16 0.017441554 0.0536333658
v -0.0121891992 -0.00143842935 0.0512495898
v 1.54197994E-16 -0.0203183796 0.0488656685
v 1.54197994E-16 -0.0203183796 0.0488656685
v 2.07441055E-16 -0.0510933399 0.313622802
v -0.00367179397 -0.0515969209 0.309708506
v -0.00367179397 -0.0417016484 0.304034293
v 2.0249122E-16 -0.0385777429 0.306446046
v 2.10327611E-16 -0.0650179312 0.309847742
v -0.00367179397 -0.0626062006 0.306723803
v 2.10623676E-16 -0.072194688 0.297332108
v -0.00367179397 -0.0682803988 0.296828538
v -0.00367179397 -0.065295659 0.285819232
v 2.07307886E-16 -0.0684195459 0.283407509
v 2.02531772E-16 -0.0559039526 0.276230723
v -0.00367179397 -0.055400379 0.280144989
v 1.99087471E-16 -0.0348026268 0.292521447
v -0.00367179397 -0.0387169048 0.293025017
v -0.00367179397 -0.0443910956 0.283129752
v 1.99118282E-16 -0.0419793725 0.280005842
v 2.08233627E-16 -0.0643661171 0.296324879
v 2.08149903E-16 -0.0601944774 0.303599864
v 2.06300261E-16 -0.0621717535 0.288230956
v 2.03519266E-16 -0.054896798 0.284059286
v 2.01506835E-16 -0.0426311865 0.293528616
v 2.01530512E-16 -0.046802815 0.286253661
v 2.03475181E-16 -0.0448255613 0.301622599
v 2.06291976E-16 -0.0521005131 0.305794239
v 2.02531772E-16 -0.0559039526 0.276230723
v 1.99118282E-16 -0.0419793725 0.280005842
v -0.00367179397 -0.0443910956 0.283129752
v -0.00367179397 -0.055400379 0.280144989
v 2.01530512E-16 -0.046802815 0.286253661
v 2.03519266E-16 -0.054896798 0.284059286
v 0.00367179397 -0.0515969209 0.309708506
v 2.07441055E-16 -0.0510933399 0.313622802
v 2.0249122E-16 -0.0385777429 0.306446046
v 0.00367179397 -0.0417016484 0.304034293
v 0.00367179397 -0.0626062006 0.306723803
v 2.10327611E-16 -0.0650179312 0.309847742
v 0.00367179397 -0.0682803988 0.296828538
v 2.10623676E-16 -0.072194688 0.297332108
v 2.07307886E-16 -0.0684195459 0.283407509
v 0.00367179397 -0.065295659 0.285819232
v 0.00367179397 -0.055400379 0.280144989
v 2.02531772E-16 -0.0559039526 0.276230723
v 0.00367179397 -0.0387169048 0.293025017
v 1.99087471E-16 -0.0348026268 0.292521447
v 1.99118282E-16 -0.0419793725 0.280005842
v 0.00367179397 -0.0443910956 0.283129752
v 2.01530512E-16 -0.046802815 0.286253661
v 2.01506835E-16 -0.0426311865 0.293528616
v 2.03475181E-16 -0.0448255613 0.301622599
v 2.06291976E-16 -0.0521005131 0.305794239
v 2.08149903E-16 -0.0601944774 0.303599864
v 2.08233627E-16 -0.0643661171 0.296324879
v 2.06300261E-16 -0.0621717535 0.288230956
v 2.03519266E-16 -0.054896798 0.284059286
v 0.00367179397 -0.055400379 0.280144989
v 0.00367179397 -0.0443910956 0.283129752
v 1.99118282E-16 -0.0419793725 0.280005842
v 2.02531772E-16 -0.0559039526 0.276230723
v 2.01530512E-16 -0.046802815 0.286253661
v 2.03519266E-16 -0.054896798 0.284059286
v 1.93715111E-09 -0.055610206 0.286397547
v 2.40295828E-09 -0.0569911264 0.270614922
v -0.0107798073 -0.0481204577 0.277351588
v -0.00553927897 -0.0509878434 0.287680715
v -1.21086507E-09 -0.0351754837 0.276670933
v -5.96046212E-10 -0.0463654809 0.288963884
v -5.96046212E-10 -0.0463654809 0.288963884
v -1.21086507E-09 -0.0351754837 0.276670933
v 0.0107798073 -0.0481204577 0.277351588
v 0.00553927897 -0.0509878434 0.287680715
v 2.40295828E-09 -0.0569911264 0.270614922
v 1.93715111E-09 -0.055610206 0.286397547
v -5.96046212E-10 -0.0463654809 0.288963884
v 0.00553927897 -0.0509878434 0.287680715
v -0.00553927897 -0.0509878434 0.287680715
v 1.93715111E-09 -0.055610206 0.286397547
v -0.00592560088 -0.046969898 0.308244646
v 4.00468908E-10 -0.0475917049 0.302136987
v 0.00592560088 -0.046969898 0.308244646
v -0.00121036998 -0.0463197976 0.314630181
v 0.00121036998 -0.0463197976 0.314630181
v 2.18007593E-16 -0.0432374552 0.344906241
v 2.06662248E-16 -0.0549725182 0.302888393
v -0.00592560088 -0.0543507077 0.308996052
v 0.00592560088 -0.0543507077 0.308996052
v 0.00121036998 -0.0537006073 0.315381616
v -0.00121036998 -0.0537006073 0.315381616
v -4.00468492E-10 -0.0506182648 0.345657647
v 2.06662248E-16 -0.0549725182 0.302888393
v 0.00592560088 -0.0543507077 0.308996052
v 0.00592560088 -0.046969898 0.308244646
v 4.00468908E-10 -0.0475917049 0.302136987
v 0.00121036998 -0.0537006073 0.315381616
v 0.00121036998 -0.0463197976 0.314630181
v -4.00468492E-10 -0.0506182648 0.345657647
v 2.18007593E-16 -0.0432374552 0.344906241
v -0.00592560088 -0.0543507077 0.308996052
v 2.06662248E-16 -0.0549725182 0.302888393
v 4.00468908E-10 -0.0475917049 0.302136987
v -0.00592560088 -0.046969898 0.308244646
v -0.00121036998 -0.0537006073 0.315381616
v -0.00121036998 -0.0463197976 0.314630181
v -4.00468492E-10 -0.0506182648 0.345657647
v 2.18007593E-16 -0.0432374552 0.344906241
v 0.00158835622 -0.0458841138 0.316083699
v 0.00158835622 -0.0538344383 0.316893101
v 0.00158835622 -0.0527159683 0.327879161
v 0.00158835622 -0.0447656438 0.327069759
v -0.00158835622 -0.0447656438 0.327069759
v -0.00158835622 -0.0458841138 0.316083699
v -0.00158835622 -0.0538344383 0.316893101
v -0.00158835622 -0.0527159683 0.327879161
v -0.00158835622 -0.0538344383 0.316893101
v -0.00158835622 -0.0458841138 0.316083699
v -0.00158835622 -0.0447656438 0.327069759
v -0.00158835622 -0.0527159683 0.327879161
v -0.00158835622 -0.0447656438 0.327069759
v 0.00158835622 -0.0447656438 0.327069759
v 0.00158835622 -0.0527159683 0.327879161
v -0.00158835622 -0.0527159683 0.327879161
v 0.000777755515 -0.0440711677 0.333891213
v 0.000777755515 -0.0520214923 0.334700614
v 0.000777755457 -0.0509030223 0.345686644
v 0.000777755515 -0.0429526977 0.344877243
v -0.000777755515 -0.0429526977 0.344877243
v -0.000777755515 -0.0440711677 0.333891213
v -0.000777755515 -0.0520214923 0.334700614
v -0.000777755515 -0.0509030223 0.345686644
v -0.000777755515 -0.0520214923 0.334700614
v -0.000777755515 -0.0440711677 0.333891213
v -0.000777755515 -0.0429526977 0.344877243
v -0.000777755515 -0.0509030223 0.345686644
v -0.00309380703 -0.0289514773 0.357043803
v -0.00309380703 -0.0303210579 0.343591213
v 0.00309380703 -0.0303210579 0.343591213
v 0.00309380726 -0.0289514773 0.357043803
v -0.00309380703 -0.0303210579 0.343591213
v -0.00309380703 -0.0635346472 0.346972644
v 0.00309380703 -0.0635346472 0.346972644
v 0.00309380703 -0.0303210579 0.343591213
v -0.00309380703 -0.0635346472 0.346972644
v -0.00309380703 -0.0621650666 0.360425174
v 0.00309380703 -0.0621650666 0.360425174
v 0.00309380703 -0.0635346472 0.346972644
v -0.00309380703 -0.0621650666 0.360425174
v -0.00309380703 -0.0289514773 0.357043803
v 0.00309380726 -0.0289514773 0.357043803
v 0.00309380703 -0.0621650666 0.360425174
v 0.00309380726 -0.0289514773 0.357043803
v 0.00309380703 -0.0303210579 0.343591213
v 0.00309380703 -0.0635346472 0.346972644
v 0.00309380703 -0.0621650666 0.360425174
v -0.00309380703 -0.0621650666 0.360425174
v -0.00309380703 -0.0635346472 0.346972644
v -0.00309380703 -0.0303210579 0.343591213
v -0.00309380703 -0.0289514773 0.357043803
v 0.000448554754 -0.051196374 0.444620192
v 0.000448554754 -0.0227275845 0.441721857
v 0.000299100037 -0.0321593024 0.349079549
v 0.000299100037 -0.0606280901 0.351977885
v 0.000299100037 -0.0414416119 0.540435553
v 0.000299100037 -0.0129728289 0.537537217
v 5.65078844E-05 -0.0227275845 0.441721857
v 5.65078844E-05 -0.051196374 0.444620162
v -9.29465095E-05 -0.0606280901 0.351977885
v -9.29465095E-05 -0.0321593024 0.349079549
v -9.29465095E-05 -0.0129728289 0.537537217
v -9.29465095E-05 -0.0414416119 0.540435553
v -0.0165683907 -0.116166458 0.361862808
v 2.18133073E-16 -0.0986753255 0.3651537
v -0.0242578071 -0.102127083 0.370661199
v -0.0420157537 -0.111557215 0.385708332
v -0.0363867097 -0.129358292 0.374552578
v -0.0485156104 -0.124438576 0.4062635
v -0.0420157537 -0.144993737 0.393381655
v -0.0420157537 -0.13732034 0.426818192
v -0.0363867097 -0.155121312 0.415662616
v -0.0242578071 -0.146750316 0.441865563
v -0.0165683907 -0.160789549 0.433067322
v -0.0210078768 -0.168152764 0.407495856
v 2.36808733E-16 -0.172922581 0.404506683
v 2.23046354E-16 -0.167305335 0.428983867
v -0.0165683907 -0.1327108 0.450663984
v -0.0363867097 -0.119519301 0.437974095
v -0.0210078768 -0.10648796 0.446140587
v 1.86380243E-16 -0.126195118 0.45474726
v 1.73301485E-16 -0.101717949 0.449129939
v 2.42187869E-16 -0.165548652 0.380500108
v -0.0242578052 -0.160040587 0.383952051
v -0.0420157537 -0.103883617 0.419145048
v -0.0242578052 -0.0888365656 0.42857489
v 1.94336715E-16 -0.0833289325 0.432026505
v 2.37742296E-16 -0.147159234 0.363396853
v -0.0210078768 -0.142389566 0.366385996
v -0.0363867097 -0.0937560722 0.396864146
v -0.0210078768 -0.0807247534 0.405030817
v 1.95023433E-16 -0.0759549662 0.40801993
v 2.37935922E-16 -0.12268199 0.357779622
v -0.0165683907 -0.0880878791 0.379459411
v 2.04135258E-16 -0.0815721229 0.383542776
v 0.0165683907 -0.0880878791 0.379459411
v 2.18133073E-16 -0.0986753255 0.3651537
v 0.0242578071 -0.102127083 0.370661199
v 0.0373641923 -0.114373103 0.38665238
v 0.0363867097 -0.0937560722 0.396864146
v 0.0420157537 -0.103883617 0.419145048
v 0.0210078768 -0.0807247534 0.405030817
v 0.0242578052 -0.0888365656 0.42857489
v 0.0363867097 -0.119519301 0.437974095
v 0.0210078768 -0.10648796 0.446140587
v 0.0165683907 -0.1327108 0.450663984
v 1.73301485E-16 -0.101717949 0.449129939
v 1.86380243E-16 -0.126195118 0.45474726
v 0.0242578071 -0.146750316 0.441865563
v 0.0420157537 -0.13732034 0.426818192
v 0.0165683907 -0.160789549 0.433067322
v 0.0363867097 -0.155121312 0.415662616
v 0.0210078768 -0.168152764 0.407495856
v 2.23046354E-16 -0.167305335 0.428983867
v 2.36808733E-16 -0.172922581 0.404506683
v 0.0420157537 -0.144993737 0.393381655
v 0.0242578052 -0.160040587 0.383952051
v 2.42187869E-16 -0.165548652 0.380500108
v 1.94336715E-16 -0.0833289325 0.432026505
v 0.0485156104 -0.124438576 0.4062635
v 0.0363867097 -0.129358292 0.374552578
v 0.0210078768 -0.142389566 0.366385996
v 2.37742296E-16 -0.147159234 0.363396853
v 1.95023433E-16 -0.0759549662 0.40801993
v 0.0165683907 -0.116166458 0.361862808
v 2.37935922E-16 -0.12268199 0.357779622
v 2.04135258E-16 -0.0815721229 0.383542776
v 2.04588341E-16 -0.150201961 0.447373182
v 2.04588341E-16 -0.150201961 0.447373182
v 1.12943688E-09 -0.14376457 0.36260283
v 5.89246874E-10 -0.14254187 0.348438948
v -0.00463394215 -0.138065398 0.347892761
v -0.00861283299 -0.135366902 0.3606897
v -2.09092688E-10 -0.133299991 0.347311169
v -3.76478654E-10 -0.126969188 0.358776659
v 2.53716199E-16 -0.136396721 0.333248138
v -3.76478654E-10 -0.126969188 0.358776659
v -2.09092688E-10 -0.133299991 0.347311169
v 0.00463394215 -0.138065398 0.347892761
v 0.00861283299 -0.135366902 0.3606897
v 5.89246874E-10 -0.14254187 0.348438948
v 1.12943688E-09 -0.14376457 0.36260283
v 2.53716199E-16 -0.136396721 0.333248138
v 1.28693445E-09 -0.0768944919 0.403867096
v -0.00981387496 -0.0791048333 0.394305348
v -0.00528013613 -0.066283986 0.388698041
v 6.71416089E-10 -0.0635721311 0.393062741
v -2.38250364E-10 -0.069170773 0.384051591
v -4.28977937E-10 -0.0813152269 0.384743631
v 1.90728765E-16 -0.0579726398 0.376069397
v -4.28977937E-10 -0.0813152269 0.384743631
v 0.00981387496 -0.0791048333 0.394305348
v 0.00528013613 -0.066283986 0.388698041
v -2.38250364E-10 -0.069170773 0.384051591
v 6.71416089E-10 -0.0635721311 0.393062741
v 1.28693445E-09 -0.0768944919 0.403867096
v 1.90728765E-16 -0.0579726398 0.376069397
v -0.0053983354 -0.0587574691 0.308981925
v 2.04934685E-16 -0.0541027337 0.301971316
v 0.0053983354 -0.0587574691 0.308981925
v 2.2313561E-16 -0.10108047 0.373874575
v 2.12022167E-16 -0.0625762865 0.296661019
v -0.0053983354 -0.0668558851 0.303906739
v 0.0053983354 -0.0668558851 0.303906739
v 2.26408148E-16 -0.106801748 0.370289117
v 0.0053983354 -0.0587574691 0.308981925
v 2.04934685E-16 -0.0541027337 0.301971316
v 2.12022167E-16 -0.0625762865 0.296661019
v 0.0053983354 -0.0668558851 0.303906739
v 2.26408148E-16 -0.106801748 0.370289117
v 2.2313561E-16 -0.10108047 0.373874575
v -0.0053983354 -0.0668558851 0.303906739
v 2.12022167E-16 -0.0625762865 0.296661019
v 2.04934685E-16 -0.0541027337 0.301971316
v -0.0053983354 -0.0587574691 0.308981925
v 2.26408148E-16 -0.106801748 0.370289117
v 2.2313561E-16 -0.10108047 0.373874575
vt 0.739107847 0.938816905
vt 0.744572937 0.940476954
vt 0.722729325 0.958453298
vt 0.717264652 0.956793547
vt 0.755440474 0.9253757
vt 0.760905027 0.927035809
vt 0.717264652 0.956793547
vt 0.722729325 0.958453298
vt 0.744572937 0.940476954
vt 0.739107847 0.938816905
vt 0.760905027 0.927035928
vt 0.755440474 0.9253757
vt 0.755440474 0.9253757
vt 0.760905027 0.927035928
vt 0.744572878 0.940476835
vt 0.739107847 0.938817024
vt 0.722729385 0.958453536
vt 0.717264593 0.956793666
vt 0.717264414 0.956793308
vt 0.722729146 0.958453298
vt 0.744572878 0.940476716
vt 0.739108086 0.938816726
vt 0.760905027 0.927035868
vt 0.755440474 0.9253757
vt 0.744572878 0.940476716
vt 0.722729146 0.958453298
vt 0.717264414 0.956793308
vt 0.739108086 0.938816726
vt 0.755440474 0.9253757
vt 0.760905027 0.927035868
vt 0.717264593 0.956793666
vt 0.722729385 0.958453536
vt 0.744572878 0.940476835
vt 0.739107847 0.938816905
vt 0.760905027 0.927035809
vt 0.755440474 0.9253757
vt 0.717264593 0.956793606
vt 0.722729325 0.958453417
vt 0.744572937 0.940476894
vt 0.739107847 0.938816965
vt 0.760905027 0.927035868
vt 0.755440474 0.9253757
vt 0.739107847 0.938816965
vt 0.744572937 0.940476894
vt 0.722729325 0.958453417
vt 0.717264593 0.956793606
vt 0.755440474 0.9253757
vt 0.760905027 0.927035868
vt 0.533768117 0.982511401
vt 0.533768117 0.786986947
vt 0.704592705 0.946834922
vt 0.75780654 0.889015377
vt 0.869050145 0.861972451
vt 0.924869001 0.786986947
vt 0.533768117 0.982511163
vt 0.704592764 0.946834862
vt 0.533768117 0.786986947
vt 0.75780642 0.889015198
vt 0.869050145 0.861972392
vt 0.924869299 0.786986947
vt 0.533767998 0.982511163
vt 0.533767998 0.786986947
vt 0.704592645 0.946834922
vt 0.75780648 0.889015317
vt 0.869050145 0.861972451
vt 0.924868941 0.786986947
vt 0.533767998 0.982511401
vt 0.704592764 0.946834922
vt 0.533767998 0.786986947
vt 0.75780642 0.889015377
vt 0.869050145 0.861972451
vt 0.924869299 0.786986947
vt 0.533767998 0.982511163
vt 0.704592645 0.946834922
vt 0.533767998 0.786986947
vt 0.75780648 0.889015317
vt 0.869050145 0.861972451
vt 0.924868941 0.786986947
vt 0.533768117 0.982511163
vt 0.533768117 0.786986947
vt 0.704592764 0.946834862
vt 0.75780642 0.889015198
vt 0.869050145 0.861972392
vt 0.924869299 0.786986947
vt 0.533768117 0.982511401
vt 0.704592705 0.946834922
vt 0.533768117 0.786986947
vt 0.75780654 0.889015377
vt 0.869050145 0.861972451
vt 0.924869001 0.786986947
vt 0.533767998 0.982511401
vt 0.533767998 0.786986947
vt 0.704592764 0.946834922
vt 0.75780642 0.889015377
vt 0.869050145 0.861972451
vt 0.924869299 0.786986947
vt 0.252540469 0.119891576
vt 0.200577021 0.161538303
vt 0.30022192 0.162844867
vt 0.248226166 0.205170125
vt 0.611507714 0.172923267
vt 0.535822451 0.172923267
vt 0.535822272 0.343058884
vt 0.611507535 0.353487968
vt 0.687407613 0.343064487
vt 0.687407851 0.172923267
vt 0.763307571 0.353488207
vt 0.763307691 0.172923267
vt 0.838992953 0.343058884
vt 0.838992953 0.172923267
vt 0.611506939 0.00651213527
vt 0.68740797 0.00651213527
vt 0.763308644 0.00651213527
vt 0.838992953 0.00651213527
vt 0.53582263 0.00651213527
vt 0.930807114 0.996183991
vt 0.922180951 0.986307085
vt 0.96538955 0.963864803
vt 0.985457718 0.967799127
vt 0.852021098 0.996933818
vt 0.859889865 0.986899614
vt 0.795250833 0.969608665
vt 0.815005183 0.965295315
vt 0.813820004 0.934149742
vt 0.793752015 0.930215418
vt 0.848402262 0.901830256
vt 0.857028604 0.911707401
vt 0.983958662 0.92840606
vt 0.964204371 0.932719171
vt 0.919319808 0.911114872
vt 0.927188456 0.901080728
vt 0.834759593 0.960982144
vt 0.867758453 0.97686559
vt 0.833888173 0.938084066
vt 0.865654945 0.921584547
vt 0.944449961 0.937032223
vt 0.911451221 0.921148956
vt 0.945321202 0.95993042
vt 0.913554549 0.976429939
vt 0.848402262 0.901830256
vt 0.927188456 0.901080728
vt 0.919319808 0.911114872
vt 0.857028604 0.911707401
vt 0.911451221 0.921148956
vt 0.865654945 0.921584547
vt 0.922180951 0.986307085
vt 0.930807114 0.996183991
vt 0.985457718 0.967799127
vt 0.96538955 0.963864803
vt 0.859889865 0.986899614
vt 0.852021098 0.996933818
vt 0.815005183 0.965295315
vt 0.795250833 0.969608665
vt 0.793752015 0.930215418
vt 0.813820004 0.934149742
vt 0.857028604 0.911707401
vt 0.848402262 0.901830256
vt 0.964204371 0.932719171
vt 0.983958662 0.92840606
vt 0.927188456 0.901080728
vt 0.919319808 0.911114872
vt 0.911451221 0.921148956
vt 0.944449961 0.937032223
vt 0.945321202 0.95993042
vt 0.913554549 0.976429939
vt 0.867758453 0.97686559
vt 0.834759593 0.960982144
vt 0.833888173 0.938084066
vt 0.865654945 0.921584547
vt 0.857028604 0.911707401
vt 0.919319808 0.911114872
vt 0.927188456 0.901080728
vt 0.848402262 0.901830256
vt 0.911451221 0.921148956
vt 0.865654945 0.921584547
vt 0.298199773 0.288510859
vt 0.224728882 0.294287384
vt 0.224352717 0.267752528
vt 0.297772765 0.267275691
vt 0.223040998 0.241150305
vt 0.297345996 0.246424243
vt 0.297345996 0.236827657
vt 0.223040998 0.225510761
vt 0.224352717 0.267871201
vt 0.297772765 0.267510712
vt 0.224728882 0.309560061
vt 0.298199773 0.298010647
vt 0.922360599 0.946562886
vt 0.887478054 0.926423609
vt 0.887478054 0.966702521
vt 0.852595448 0.946562886
vt 0.841648519 0.353097856
vt 0.877188921 0.372752845
vt 0.912729323 0.353097856
vt 0.86929667 0.335444987
vt 0.885081291 0.335444987
vt 0.877188921 0.231249705
vt 0.877188921 0.372752815
vt 0.912729204 0.353097856
vt 0.841648519 0.353097856
vt 0.86929667 0.335444987
vt 0.885081291 0.335444987
vt 0.877188921 0.231249705
vt 0.98408401 0.379706293
vt 0.98408401 0.356840223
vt 0.924981713 0.356840223
vt 0.924981713 0.379706293
vt 0.98408401 0.336303324
vt 0.924981713 0.336303324
vt 0.98408401 0.215085238
vt 0.924981713 0.215085238
vt 0.98408401 0.356840223
vt 0.98408401 0.379706293
vt 0.924981713 0.379706293
vt 0.924981713 0.356840223
vt 0.98408401 0.336303324
vt 0.924981713 0.336303324
vt 0.98408401 0.215085238
vt 0.924981713 0.215085238
vt 0.899527013 0.590876818
vt 0.963189542 0.590876818
vt 0.963189542 0.546891212
vt 0.899527013 0.546891212
vt 0.899527013 0.546891212
vt 0.899527013 0.590876818
vt 0.963189542 0.590876818
vt 0.963189542 0.546891212
vt 0.963189542 0.590876818
vt 0.899527013 0.590876818
vt 0.899527013 0.546891212
vt 0.963189542 0.546891212
vt 0.936144292 0.887563944
vt 0.987304211 0.887563944
vt 0.987304211 0.854526997
vt 0.936144292 0.854526997
vt 0.899527013 0.590876818
vt 0.963189542 0.590876818
vt 0.963189542 0.546891272
vt 0.899527013 0.546891272
vt 0.899527013 0.546891272
vt 0.899527013 0.590876818
vt 0.963189542 0.590876818
vt 0.963189542 0.546891272
vt 0.963189542 0.590876818
vt 0.899527013 0.590876818
vt 0.899527013 0.546891272
vt 0.963189542 0.546891272
vt 0.950401723 0.656303883
vt 0.990579784 0.656303883
vt 0.990579784 0.647111297
vt 0.950401723 0.647111297
vt 0.932016492 0.647111297
vt 0.932016551 0.597512543
vt 0.950401723 0.597512543
vt 0.950401723 0.647111297
vt 0.990579724 0.656303883
vt 0.950401723 0.656303883
vt 0.950401723 0.647111297
vt 0.990579784 0.647111297
vt 0.932016492 0.597512543
vt 0.932016492 0.647111297
vt 0.950401723 0.647111297
vt 0.950401723 0.597512543
vt 0.950401723 0.647111297
vt 0.990579784 0.647111297
vt 0.990579784 0.597512543
vt 0.950401723 0.597512543
vt 0.950401664 0.597512484
vt 0.990579784 0.597512543
vt 0.990579665 0.647111297
vt 0.950401604 0.647111297
vt 0.139433518 0.745780706
vt 0.0310885496 0.745780706
vt 0.0310888849 0.923451066
vt 0.139433175 0.923451066
vt 0.139433175 0.564792395
vt 0.0310888924 0.564792335
vt 0.139433518 0.742248297
vt 0.0310885459 0.742248297
vt 0.0310888886 0.923844099
vt 0.139433175 0.923844039
vt 0.139433175 0.565297961
vt 0.0310888886 0.565297961
vt 0.680395663 0.751488745
vt 0.742717624 0.780712008
vt 0.736883759 0.744067073
vt 0.734324038 0.70971334
vt 0.673576057 0.713507891
vt 0.730204701 0.676950812
vt 0.663579226 0.679071188
vt 0.727128148 0.644490302
vt 0.6660344 0.644413829
vt 0.72306931 0.610804975
vt 0.662184775 0.6067909
vt 0.60464102 0.640791357
vt 0.541969121 0.630081832
vt 0.611496508 0.588463008
vt 0.783054411 0.601686835
vt 0.788310409 0.640378296
vt 0.848428071 0.633586168
vt 0.832604825 0.583660841
vt 0.908363581 0.620197356
vt 0.522860587 0.682817101
vt 0.595271707 0.681005776
vt 0.797905445 0.674855351
vt 0.866560042 0.673282862
vt 0.94007808 0.671803713
vt 0.555688679 0.733705997
vt 0.612965107 0.721265197
vt 0.795497596 0.709961772
vt 0.856895447 0.713843942
vt 0.917999089 0.724645019
vt 0.637716651 0.770583987
vt 0.798271656 0.748432875
vt 0.846013844 0.764916658
vt 0.662148714 0.538654983
vt 0.716856837 0.571143329
vt 0.720229089 0.533251107
vt 0.729810834 0.500882983
vt 0.666817188 0.50038147
vt 0.661883175 0.466593683
vt 0.602149725 0.505618691
vt 0.591006219 0.465005696
vt 0.669493318 0.431225359
vt 0.606881797 0.424493968
vt 0.670655966 0.391592801
vt 0.545387566 0.411577165
vt 0.623970807 0.374006331
vt 0.734803557 0.401171893
vt 0.730833948 0.434747219
vt 0.796292543 0.396738768
vt 0.7920506 0.434895337
vt 0.854064763 0.430424213
vt 0.848718166 0.37694639
vt 0.917714775 0.419856668
vt 0.793276846 0.469872117
vt 0.862717032 0.470955789
vt 0.937723577 0.47328946
vt 0.516125321 0.463488579
vt 0.727503598 0.468713403
vt 0.782975435 0.503152847
vt 0.845350266 0.511172652
vt 0.902646244 0.524380505
vt 0.538963377 0.516432166
vt 0.779027343 0.54133904
vt 0.822877944 0.560437918
vt 0.612990499 0.55679369
vt 0.739205062 0.363049805
vt 0.716278017 0.574224293
vt 0.047785081 0.320388615
vt 0.0691570118 0.292012364
vt 0.0881700739 0.293474466
vt 0.0844788253 0.3213076
vt 0.108410761 0.295030832
vt 0.121172898 0.322226703
vt 0.111928031 0.264368415
vt 0.121172898 0.322226703
vt 0.108410761 0.295030832
vt 0.0881700739 0.293474466
vt 0.0844788253 0.3213076
vt 0.0691570118 0.292012364
vt 0.047785081 0.320388615
vt 0.111928031 0.264368415
vt 0.0173294768 0.24088411
vt 0.0534664318 0.251451254
vt 0.0333301574 0.279547721
vt 0.0118494183 0.277365714
vt 0.0561968237 0.281870991
vt 0.089603126 0.262018383
vt 0.0481795371 0.310926348
vt 0.089603126 0.262018383
vt 0.0534664318 0.251451254
vt 0.0333301574 0.279547721
vt 0.0561968237 0.281870991
vt 0.0118494183 0.277365714
vt 0.0173294768 0.24088411
vt 0.0481795371 0.310926348
vt 0.142559767 0.525679827
vt 0.117292173 0.547148287
vt 0.0888012648 0.526717901
vt 0.100495927 0.333333373
vt 0.115936279 0.547261477
vt 0.141443968 0.525857091
vt 0.08766222 0.526745915
vt 0.101624429 0.333336651
vt 0.0256360769 0.52651906
vt 0.0253323317 0.547490835
vt 0.0751676559 0.547015786
vt 0.0732644796 0.526064992
vt 0.0589141846 0.3331168
vt 0.0252658129 0.333437443
vt 0.0732644796 0.526064992
vt 0.0751676559 0.547015786
vt 0.0253323317 0.547490835
vt 0.0256360769 0.52651906
vt 0.0589141846 0.3331168
vt 0.0252658129 0.333437443
vn 0.64077723 0.761679649 0.0961701944
vn 0.640777349 0.76167953 0.096170187
vn -0 0.992123187 0.125266001
vn -0 0.992123187 0.125265986
vn 0.908431649 0.414740652 0.0523654446
vn 0.908431649 0.414740652 0.0523654446
vn -0 0.992123187 0.125265986
vn -0 0.992123187 0.125266001
vn -0.640777409 0.761679471 0.0961700305
vn -0.640777409 0.761679471 0.0961700305
vn -0.908431709 0.414740503 0.0523655191
vn -0.908431709 0.414740473 0.0523655154
vn -0.437249899 0.892256081 0.112656757
vn -0.437249869 0.892256141 0.11265675
vn -0.773757696 0.628491819 0.0793537945
vn -0.773757756 0.628491819 0.079353787
vn -1 0 0
vn -1 0 0
vn -1 0 0
vn -1 0 0
vn -0.773757696 -0.628491819 -0.0793538913
vn -0.773757637 -0.628491879 -0.0793538913
vn -0.437249899 -0.892256081 -0.112657033
vn -0.437249869 -0.892256081 -0.112657018
vn 0.773757756 -0.6284917 -0.0793539137
vn 1 2.38040514E-07 0
vn 1 1.70028912E-07 0
vn 0.773757696 -0.628491819 -0.0793539137
vn 0.437249899 -0.892256081 -0.112657063
vn 0.437249959 -0.892256081 -0.112657063
vn 1 1.70028912E-07 0
vn 1 2.38040514E-07 0
vn 0.773757696 0.628491819 0.0793537423
vn 0.773757637 0.628491879 0.0793537423
vn 0.437249988 0.892256081 0.11265666
vn 0.437250018 0.892256081 0.11265666
vn -0 -0.992123127 -0.125266373
vn -0 -0.992123127 -0.125266358
vn 0.64077729 -0.76167953 -0.0961704403
vn 0.64077723 -0.761679649 -0.0961704329
vn 0.908431649 -0.414740652 -0.0523654819
vn 0.908431649 -0.414740622 -0.052365467
vn -0.640777409 -0.761679471 -0.0961702392
vn -0.640777409 -0.761679471 -0.0961702392
vn -0 -0.992123127 -0.125266358
vn -0 -0.992123127 -0.125266373
vn -0.908431709 -0.414740562 -0.052365493
vn -0.908431709 -0.414740562 -0.0523655005
vn -0 0.125266299 -0.992123187
vn -0 0.125266314 -0.992123127
vn -3.83533177E-07 0.125266209 -0.992123187
vn 1.22570697E-07 0.125266105 -0.992123187
vn -0 0.125266194 -0.992123187
vn -0 0.125266194 -0.992123187
vn -0 -0.125266299 0.992123187
vn 2.27742987E-07 -0.125266239 0.992123187
vn -0 -0.125266358 0.992123127
vn -3.6318545E-07 -0.12526612 0.992123187
vn -0 -0.125266179 0.992123187
vn -0 -0.125266477 0.992123127
vn -0 -0.125266299 0.992123187
vn -0 -0.125266358 0.992123127
vn -3.83533177E-07 -0.125266239 0.992123187
vn 2.45141393E-07 -0.125266105 0.992123187
vn 1.26566306E-07 -0.125266179 0.992123187
vn -0 -0.125266492 0.992123127
vn -0 0.125266299 -0.992123187
vn 4.31474604E-07 0.125266239 -0.992123187
vn -0 0.125266314 -0.992123127
vn -1.22570697E-07 0.125266135 -0.992123187
vn -0 0.125266194 -0.992123187
vn -0 0.125266179 -0.992123187
vn -0 0.125266537 -0.992123127
vn 4.0746329E-07 0.125266552 -0.992123127
vn -0 0.125266314 -0.992123127
vn 2.3608834E-07 0.125266403 -0.992123127
vn -0 0.125266194 -0.992123187
vn -0 0.125266194 -0.992123187
vn -0 0.125266537 -0.992123127
vn -0 0.125266314 -0.992123127
vn -5.03346314E-07 0.125266537 -0.992123127
vn -2.36088184E-07 0.125266388 -0.992123127
vn -0 0.125266194 -0.992123187
vn -0 0.125266179 -0.992123187
vn -0 -0.125266522 0.992123127
vn -0 -0.125266433 0.992123127
vn -0 -0.125266358 0.992123127
vn -2.45141422E-07 -0.125266328 0.992123127
vn -1.74363876E-07 -0.125266716 0.992123127
vn -0 -0.125266492 0.992123127
vn -0 -0.125266522 0.992123127
vn -0 -0.125266358 0.992123127
vn -0 -0.125266403 0.992123127
vn 2.45141365E-07 -0.125266299 0.992123187
vn 1.26566306E-07 -0.125266716 0.992123127
vn -0 -0.125266477 0.992123127
vn 4.60569072E-06 0.0862838849 0.996270597
vn 5.14893873E-06 -0.287352949 0.957824767
vn 5.14893827E-06 -0.287353009 0.957824767
vn 4.96891334E-06 -0.61873132 0.785602689
vn 0.999851584 0.0168945529 0.0033779284
vn -0 -0.979667902 -0.200626031
vn -1.97986878E-06 -0.971873462 -0.235503599
vn 0.999660134 0.0253179632 0.00621520123
vn -2.83110489E-06 0.971818507 0.23573038
vn -3.76738143E-07 0.979501486 0.201436833
vn -0.999660134 0.0253180806 0.00621522963
vn -0.999851584 0.0168945901 0.00337793841
vn -1.97986878E-06 -0.971873462 -0.235503599
vn -0 -0.979667902 -0.200626031
vn 0.999836862 0.0178018231 0.00306669227
vn -0 0.986612022 0.163085297
vn -0.999836862 0.0178017933 0.0030666776
vn -0 -0.986675918 -0.162697881
vn -0 -0.986675918 -0.162697881
vn -0.732131898 0.0869191885 0.675594509
vn -0.961813509 0.0349266268 0.271468103
vn -0.961813629 0.216652721 0.167260736
vn -0.732132733 0.539176762 0.416257143
vn -0.73213315 -0.416255563 0.539177477
vn -0.961813331 -0.167260706 0.216654062
vn -0.732132196 -0.675594389 0.0869173184
vn -0.961813569 -0.271468282 0.0349240974
vn -0.961813271 -0.216654152 -0.167260796
vn -0.732130766 -0.539178789 -0.416258126
vn -0.704621136 -0.352979571 -0.615560234
vn -0.955690265 -0.146434784 -0.255368203
vn -0.7321316 0.675595105 -0.0869167969
vn -0.96181345 0.271468371 -0.0349256657
vn -0.955690622 0.255367428 -0.146433756
vn -0.704621315 0.615561187 -0.352977693
vn -0.732132673 0.675594151 -0.0869160071
vn -0.732134104 0.416257322 -0.539174855
vn -0.73213166 0.539178491 0.416256815
vn -0.704623044 0.352979422 0.615558147
vn -0.732132018 -0.675594687 0.0869168043
vn -0.70462352 -0.615559101 0.352976859
vn -0.732132077 -0.539177656 -0.416257173
vn -0.73213315 -0.086919181 -0.675593257
vn -0.704619944 0.185674325 -0.684861839
vn -0.704619944 0.18567431 -0.684861839
vn -0.955691397 0.0770263299 -0.284114331
vn -0.955690861 0.0770267546 -0.284115881
vn -0.704623282 -0.185674459 0.684858441
vn -0.704623222 -0.185674444 0.684858441
vn 0.961814046 0.0349262431 0.271466255
vn 0.732132614 0.086918503 0.675593853
vn 0.732133448 0.539176583 0.416256249
vn 0.961813927 0.216652215 0.167259648
vn 0.96181345 -0.167260841 0.216653451
vn 0.732132792 -0.416255921 0.539177656
vn 0.96181345 -0.271468639 0.0349242687
vn 0.732131839 -0.675594747 0.086917527
vn 0.732130766 -0.539179087 -0.416257709
vn 0.961813509 -0.216653824 -0.167259946
vn 0.955690801 -0.146433994 -0.255366832
vn 0.704621196 -0.3529796 -0.615560234
vn 0.961813331 0.271468729 -0.0349258818
vn 0.7321316 0.675595105 -0.0869167969
vn 0.704621315 0.615561187 -0.352977693
vn 0.955690444 0.255368084 -0.146434143
vn 0.704624474 -0.615558326 0.352976322
vn 0.732132435 -0.67559427 0.086916402
vn 0.732132077 -0.539177656 -0.416257173
vn 0.732132256 -0.0869185552 -0.675594211
vn 0.73213315 0.416257352 -0.539176047
vn 0.732132614 0.675594151 -0.086916022
vn 0.73213166 0.539178491 0.416256815
vn 0.704623044 0.352979422 0.615558147
vn 0.955691397 0.0770263523 -0.28411442
vn 0.955691814 0.0770259202 -0.284112841
vn 0.704621375 0.185673952 -0.684860468
vn 0.704621375 0.185673952 -0.684860468
vn 0.704623282 -0.185674459 0.684858441
vn 0.704623222 -0.185674444 0.684858441
vn -0 -0.995113075 0.0987421572
vn -0 -0.995113075 0.0987421647
vn -0.895906627 -0.117068075 0.428539872
vn -0.895925701 -0.118818782 0.428017855
vn 2.46596073E-07 0.75135088 0.659902871
vn 2.61669811E-07 0.751350939 0.659902871
vn 2.61669811E-07 0.751350939 0.659902871
vn 2.46596073E-07 0.75135088 0.659902871
vn 0.895906925 -0.117067337 0.428539455
vn 0.895925999 -0.11881794 0.428017437
vn -0 -0.995113075 0.0987421647
vn -0 -0.995113075 0.0987421572
vn -0 -0.267485023 0.963562012
vn -0 -0.267484874 0.963562071
vn -0 -0.267484874 0.963562071
vn -0 -0.267484754 0.963562071
vn -0 0.99485749 -0.101284444
vn -0 0.99485755 -0.10128396
vn -0 0.99485749 -0.101284437
vn -0 0.99485749 -0.101284631
vn -0 0.99485749 -0.101284631
vn -0 0.99485749 -0.101284377
vn -0 -0.99485743 0.101284929
vn -0 -0.99485743 0.101284973
vn -0 -0.99485743 0.101284973
vn -0 -0.99485749 0.10128475
vn -0 -0.99485749 0.10128475
vn -0 -0.99485755 0.101284258
vn 0.719513893 -0.0703383237 -0.690906823
vn 0.995387137 -0.00971605629 -0.0954466909
vn 0.995387197 -0.00971598551 -0.0954459608
vn 0.719513893 -0.0703383237 -0.690906882
vn 0.987317324 0.0160798822 0.157942742
vn 0.987317324 0.0160799194 0.157943115
vn 0.99921006 0.00402512215 0.0395364687
vn 0.99921006 0.00402512308 0.0395364687
vn -0.995387077 -0.00971608423 -0.0954474881
vn -0.719513893 -0.0703382492 -0.690906882
vn -0.719513893 -0.0703382567 -0.690906882
vn -0.995387137 -0.00971601252 -0.0954467431
vn -0.987317383 0.0160798971 0.157942489
vn -0.987317324 0.0160799306 0.157942861
vn -0.99921006 0.00402516685 0.0395364389
vn -0.99921006 0.00402516685 0.0395364426
vn 0.929270923 0.367499262 -0.037414398
vn 0.929270804 -0.367499471 0.0374144167
vn 0.929270923 -0.367499262 0.037414398
vn 0.929270804 0.367499471 -0.0374144167
vn -0.929270685 0.367499918 -0.0374144614
vn -0.929270804 0.367499709 -0.037414439
vn -0.929270685 -0.367499918 0.0374144614
vn -0.929270804 -0.367499709 0.037414439
vn -0.929270685 -0.367499918 0.0374144614
vn -0.929270804 0.367499709 -0.037414439
vn -0.929270685 0.367499918 -0.0374144614
vn -0.929270804 -0.367499709 0.037414439
vn -0 0.101283945 0.99485755
vn -0 0.101283945 0.99485755
vn -0 0.101283945 0.99485755
vn -0 0.101283945 0.99485755
vn 0.981578052 0.190079123 -0.0193516724
vn 0.981577992 -0.190079316 0.0193516389
vn 0.981578052 -0.190079123 0.0193516165
vn 0.981577992 0.190079331 -0.0193516966
vn -0.981577933 0.19007957 -0.0193517227
vn -0.981577992 0.190079376 -0.0193517022
vn -0.981577933 -0.190079555 0.0193516575
vn -0.981577992 -0.190079361 0.0193516389
vn -0.981577933 -0.190079555 0.0193516575
vn -0.981577992 0.190079376 -0.0193517022
vn -0.981577933 0.19007957 -0.0193517227
vn -0.981577992 -0.190079361 0.0193516389
vn -0 0.99485749 -0.101284675
vn -0 0.99485749 -0.101284675
vn -0 0.99485749 -0.101284675
vn -0 0.99485749 -0.10128469
vn -0 -0.101284884 -0.99485743
vn -0 -0.101284884 -0.99485743
vn -0 -0.101284884 -0.99485743
vn -0 -0.101284884 -0.99485743
vn -0 -0.99485743 0.101284951
vn -0 -0.99485743 0.101284951
vn -0 -0.99485743 0.101284951
vn -0 -0.99485743 0.101284951
vn -0 0.101283744 0.99485755
vn -0 0.101283744 0.99485755
vn -0 0.101283744 0.99485755
vn -0 0.101283744 0.99485755
vn 1 0 0
vn 1 0 0
vn 1 0 0
vn 1 0 0
vn -1 0 0
vn -1 0 0
vn -1 0 0
vn -1 0 0
vn 1 0 0
vn 1 0 0
vn 0.999998689 -0.000162555327 -0.0015966926
vn 0.999998689 -0.000162555327 -0.0015966926
vn 0.999998808 0.000157172093 0.00154381664
vn 0.999998808 0.000157172093 0.00154381653
vn -1 0 0
vn -1 0 0
vn -0.999998689 0.000162553624 0.00159668992
vn -0.999998689 0.00016255361 0.00159669004
vn -0.999998808 -0.000157170376 -0.00154381257
vn -0.999998808 -0.000157170376 -0.00154381257
vn -0.409511209 0.0859086663 -0.908251226
vn -2.26712075E-07 0.53102994 -0.847353101
vn -0.598145604 0.425560445 -0.679058313
vn -0.875694335 0.256414384 -0.409159094
vn -0.78229183 -0.1296857 -0.609262705
vn -1 1.28507952E-06 1.3735189E-06
vn -0.866024375 -0.423678517 -0.265515268
vn -0.875694633 -0.2564165 0.409157008
vn -0.782292306 -0.604843378 0.148940384
vn -0.598145962 -0.425559372 0.679058671
vn -0.409513861 -0.779912233 0.473323643
vn -0.433426887 -0.900456488 -0.0363212265
vn -0 -0.998438358 -0.0558649898
vn 1.34937039E-07 -0.932401061 0.361425251
vn -0.409516424 -0.0859060064 0.90824908
vn -0.782291293 0.129681796 0.609264255
vn -0.433426648 0.425300181 0.794519365
vn -4.87851878E-07 0.0812847689 0.996690929
vn -3.14274985E-07 0.485611677 0.874174595
vn -0 -0.847352445 -0.531030893
vn -0.500001431 -0.733829558 -0.459883392
vn -0.866024137 0.423678696 0.265515655
vn -0.499998957 0.73383075 0.459884197
vn -0 0.847354472 0.531027675
vn -0 -0.485609621 -0.874175787
vn -0.433422863 -0.425302982 -0.79452002
vn -0.782291532 0.604843855 -0.148942232
vn -0.433423877 0.900458097 0.0363186374
vn -0 0.998438478 0.0558616407
vn -1.88134109E-07 -0.081279695 -0.996691346
vn -0.409514904 0.779912531 -0.473322213
vn 1.69969852E-07 0.932402015 -0.361422718
vn 0.447933257 0.752296388 -0.483121008
vn -2.26712075E-07 0.53102994 -0.847353101
vn 0.65947473 0.402821213 -0.634687483
vn 0.8706882 0.255390525 -0.420330435
vn 0.807024956 0.558012664 -0.193216622
vn 0.879296243 0.417692363 0.228847459
vn 0.433423638 0.900458157 0.0363186672
vn 0.499998719 0.733830869 0.459884256
vn 0.782291174 0.129681855 0.609264433
vn 0.433426231 0.425300241 0.794519603
vn 0.409516007 -0.085905984 0.908249319
vn -3.14274985E-07 0.485611677 0.874174595
vn -4.87851878E-07 0.0812847689 0.996690929
vn 0.598145902 -0.425559461 0.679058611
vn 0.875694633 -0.256416559 0.409157097
vn 0.409514099 -0.779912233 0.473323524
vn 0.782292247 -0.604843378 0.148940489
vn 0.433426946 -0.900456488 -0.0363211296
vn 1.34937039E-07 -0.932401061 0.361425251
vn -0 -0.998438358 -0.0558649898
vn 0.874578595 -0.401224077 -0.272271037
vn 0.500001371 -0.733829618 -0.459883362
vn -0 -0.847352445 -0.531030893
vn -0 0.847354472 0.531027675
vn 0.999173343 0.0245408658 -0.0324096344
vn 0.799830437 -0.0865344778 -0.593955457
vn 0.433422774 -0.425302923 -0.79452002
vn -0 -0.485609621 -0.874175787
vn -0 0.998438478 0.0558616407
vn 0.434675723 0.10063643 -0.894946516
vn -1.88134109E-07 -0.081279695 -0.996691346
vn 1.69969852E-07 0.932402015 -0.361422718
vn -0 -0.531029224 0.847353518
vn -0 -0.531029224 0.847353518
vn -0 -0.996294618 -0.086005643
vn -0 -0.988226235 -0.152999535
vn -0.951702476 -0.118690401 -0.283152014
vn -0.956411242 -0.0842449814 -0.279607445
vn -0 0.905811608 -0.423680663
vn -0 0.875415087 -0.483371943
vn -3.32462662E-07 0.0294546131 -0.999566138
vn -0 0.875415087 -0.483371943
vn -0 0.905811608 -0.423680663
vn 0.951702476 -0.118690245 -0.283152103
vn 0.956411242 -0.0842447802 -0.279607505
vn -0 -0.988226235 -0.152999535
vn -0 -0.996294618 -0.086005643
vn -3.32462662E-07 0.0294546131 -0.999566138
vn -0 0.640932679 0.767597079
vn -0.935696125 0.349173009 0.0505063795
vn -0.930508494 0.366267264 0.00148635474
vn 2.29252763E-07 0.722777069 0.691081285
vn 8.15345743E-07 -0.199267611 -0.979945123
vn 1.02432898E-06 -0.0764544308 -0.997073054
vn 1.42946158E-06 0.718349099 -0.695682824
vn 1.02432898E-06 -0.0764544308 -0.997073054
vn 0.935696363 0.349172682 0.0505053587
vn 0.930508554 0.366267115 0.00148573553
vn 8.15345743E-07 -0.199267611 -0.979945123
vn 2.29252763E-07 0.722777069 0.691081285
vn -0 0.640932679 0.767597079
vn 1.42946158E-06 0.718349099 -0.695682824
vn -0 0.837297916 0.546747029
vn -0 0.833090603 0.553136587
vn -0 0.837297916 0.546747029
vn -0 0.837600589 0.546283185
vn -0 -0.861028969 -0.508555889
vn -0 -0.857114375 -0.515126109
vn -0 -0.857114375 -0.515126109
vn -0 -0.856829047 -0.515600502
vn 0.999899864 0.00751460483 -0.0119908983
vn 0.841612518 0.286798835 -0.457640499
vn 0.841612518 0.286798835 -0.457640499
vn 0.999899864 0.00751443114 -0.0119906254
vn 0.997580469 -0.0369180255 0.0589095727
vn 0.997580469 -0.0369180255 0.0589095727
vn -0.999899864 0.00751461834 -0.0119909272
vn -0.84161222 0.286799043 -0.457640827
vn -0.84161222 0.286799043 -0.457640886
vn -0.999899864 0.00751479669 -0.0119912047
vn -0.997580469 -0.036917977 0.0589095019
vn -0.997580469 -0.036917977 0.0589094944
g wp_013_001_002_Mesh_b_0
f 3/3/3 2/2/2 1/1/1
f 4/4/4 3/3/3 1/1/1
f 1/1/1 2/2/2 5/5/5
f 2/2/2 6/6/6 5/5/5
f 9/9/9 8/8/8 7/7/7
f 10/10/10 9/9/9 7/7/7
f 11/11/11 9/9/9 10/10/10
f 12/12/12 11/11/11 10/10/10
f 15/15/15 14/14/14 13/13/13
f 16/16/16 15/15/15 13/13/13
f 17/17/17 15/15/15 16/16/16
f 18/18/18 17/17/17 16/16/16
f 21/21/21 20/20/20 19/19/19
f 22/22/22 21/21/21 19/19/19
f 23/23/23 21/21/21 22/22/22
f 24/24/24 23/23/23 22/22/22
f 27/27/27 26/26/26 25/25/25
f 28/28/28 27/27/27 25/25/25
f 28/28/28 25/25/25 29/29/29
f 25/25/25 30/30/30 29/29/29
f 33/33/33 32/32/32 31/31/31
f 34/34/34 33/33/33 31/31/31
f 35/35/35 33/33/33 34/34/34
f 36/36/36 35/35/35 34/34/34
f 39/39/39 38/38/38 37/37/37
f 40/40/40 39/39/39 37/37/37
f 41/41/41 39/39/39 40/40/40
f 42/42/42 41/41/41 40/40/40
f 45/45/45 44/44/44 43/43/43
f 46/46/46 45/45/45 43/43/43
f 43/43/43 44/44/44 47/47/47
f 44/44/44 48/48/48 47/47/47
f 51/51/51 50/50/50 49/49/49
f 52/52/52 50/50/50 51/51/51
f 52/52/52 53/53/53 50/50/50
f 50/50/50 53/53/53 54/54/54
f 57/57/57 56/56/56 55/55/55
f 57/57/57 58/58/58 56/56/56
f 59/59/59 58/58/58 57/57/57
f 59/59/59 57/57/57 60/60/60
f 63/63/63 62/62/62 61/61/61
f 64/64/64 62/62/62 63/63/63
f 64/64/64 65/65/65 62/62/62
f 62/62/62 65/65/65 66/66/66
f 69/69/69 68/68/68 67/67/67
f 69/69/69 70/70/70 68/68/68
f 69/69/69 71/71/71 70/70/70
f 71/71/71 69/69/69 72/72/72
f 75/75/75 74/74/74 73/73/73
f 75/75/75 76/76/76 74/74/74
f 77/77/77 76/76/76 75/75/75
f 77/77/77 75/75/75 78/78/78
f 81/81/81 80/80/80 79/79/79
f 82/82/82 80/80/80 81/81/81
f 82/82/82 83/83/83 80/80/80
f 80/80/80 83/83/83 84/84/84
f 87/87/87 86/86/86 85/85/85
f 87/87/87 88/88/88 86/86/86
f 89/89/89 88/88/88 87/87/87
f 89/89/89 87/87/87 90/90/90
f 93/93/93 92/92/92 91/91/91
f 94/94/94 92/92/92 93/93/93
f 95/95/95 92/92/92 94/94/94
f 92/92/92 95/95/95 96/96/96
f 99/99/99 98/98/98 97/97/97
f 100/100/100 98/98/98 99/99/99
f 103/103/103 102/102/102 101/101/101
f 104/104/104 103/103/103 101/101/101
f 104/104/104 101/101/101 105/105/105
f 101/101/101 106/106/106 105/105/105
f 105/105/105 106/106/106 107/107/107
f 106/106/106 108/108/108 107/107/107
f 107/107/107 108/108/108 109/109/109
f 108/108/108 110/110/110 109/109/109
f 101/101/101 111/111/111 106/106/106
f 101/101/101 102/102/102 111/111/111
f 111/111/111 112/112/112 106/106/106
f 106/106/106 112/112/112 108/108/108
f 112/112/112 113/113/113 108/108/108
f 108/108/108 113/113/113 114/114/114
f 110/110/110 108/108/108 114/114/114
f 102/102/102 115/115/115 111/111/111
f 118/118/118 117/117/117 116/116/116
f 119/119/119 118/118/118 116/116/116
f 116/116/116 117/117/117 120/120/120
f 117/117/117 121/121/121 120/120/120
f 120/120/120 121/121/121 122/122/122
f 121/121/121 123/123/123 122/122/122
f 123/123/123 124/124/124 122/122/122
f 124/124/124 125/125/125 122/122/122
f 125/125/125 124/124/124 126/126/126
f 124/124/124 127/127/127 126/126/126
f 118/118/118 119/119/119 128/128/128
f 129/129/129 118/118/118 128/128/128
f 130/130/130 129/129/129 128/128/128
f 131/131/131 130/130/130 128/128/128
f 123/123/123 121/121/121 132/132/132
f 121/121/121 133/133/133 132/132/132
f 134/134/134 124/124/124 123/123/123
f 132/132/132 134/134/134 123/123/123
f 124/124/124 134/134/134 135/135/135
f 127/127/127 124/124/124 135/135/135
f 129/129/129 130/130/130 136/136/136
f 130/130/130 137/137/137 136/136/136
f 136/136/136 138/138/138 129/129/129
f 138/138/138 118/118/118 129/129/129
f 118/118/118 138/138/138 139/139/139
f 117/117/117 118/118/118 139/139/139
f 117/117/117 139/139/139 133/133/133
f 121/121/121 117/117/117 133/133/133
f 142/142/142 141/141/141 140/140/140
f 143/143/143 142/142/142 140/140/140
f 144/144/144 142/142/142 143/143/143
f 145/145/145 144/144/144 143/143/143
f 148/148/148 147/147/147 146/146/146
f 149/149/149 148/148/148 146/146/146
f 146/146/146 147/147/147 150/150/150
f 147/147/147 151/151/151 150/150/150
f 150/150/150 151/151/151 152/152/152
f 151/151/151 153/153/153 152/152/152
f 153/153/153 154/154/154 152/152/152
f 154/154/154 155/155/155 152/152/152
f 155/155/155 154/154/154 156/156/156
f 154/154/154 157/157/157 156/156/156
f 148/148/148 149/149/149 158/158/158
f 159/159/159 148/148/148 158/158/158
f 160/160/160 159/159/159 158/158/158
f 161/161/161 160/160/160 158/158/158
f 162/162/162 161/161/161 158/158/158
f 163/163/163 162/162/162 158/158/158
f 158/158/158 149/149/149 164/164/164
f 163/163/163 158/158/158 164/164/164
f 164/164/164 149/149/149 146/146/146
f 165/165/165 164/164/164 146/146/146
f 165/165/165 146/146/146 150/150/150
f 166/166/166 165/165/165 150/150/150
f 166/166/166 150/150/150 152/152/152
f 167/167/167 166/166/166 152/152/152
f 167/167/167 152/152/152 168/168/168
f 152/152/152 155/155/155 168/168/168
f 168/168/168 155/155/155 156/156/156
f 169/169/169 168/168/168 156/156/156
f 172/172/172 171/171/171 170/170/170
f 173/173/173 172/172/172 170/170/170
f 170/170/170 171/171/171 174/174/174
f 175/175/175 170/170/170 174/174/174
f 178/178/178 177/177/177 176/176/176
f 179/179/179 178/178/178 176/176/176
f 180/180/180 178/178/178 179/179/179
f 181/181/181 180/180/180 179/179/179
f 184/184/184 183/183/183 182/182/182
f 185/185/185 184/184/184 182/182/182
f 186/186/186 184/184/184 185/185/185
f 187/187/187 186/186/186 185/185/185
f 190/190/190 189/189/189 188/188/188
f 189/189/189 190/190/190 191/191/191
f 194/194/194 193/193/193 192/192/192
f 194/194/194 192/192/192 195/195/195
f 196/196/196 194/194/194 195/195/195
f 196/196/196 195/195/195 197/197/197
f 200/200/200 199/199/199 198/198/198
f 200/200/200 201/201/201 199/199/199
f 201/201/201 202/202/202 199/199/199
f 201/201/201 203/203/203 202/202/202
f 206/206/206 205/205/205 204/204/204
f 207/207/207 206/206/206 204/204/204
f 208/208/208 205/205/205 206/206/206
f 209/209/209 208/208/208 206/206/206
f 210/210/210 208/208/208 209/209/209
f 211/211/211 210/210/210 209/209/209
f 214/214/214 213/213/213 212/212/212
f 215/215/215 214/214/214 212/212/212
f 215/215/215 212/212/212 216/216/216
f 217/217/217 215/215/215 216/216/216
f 217/217/217 216/216/216 218/218/218
f 219/219/219 217/217/217 218/218/218
f 222/222/222 221/221/221 220/220/220
f 223/223/223 222/222/222 220/220/220
f 223/223/223 220/220/220 224/224/224
f 220/220/220 225/225/225 224/224/224
f 221/221/221 222/222/222 226/226/226
f 222/222/222 227/227/227 226/226/226
f 230/230/230 229/229/229 228/228/228
f 231/231/231 230/230/230 228/228/228
f 234/234/234 233/233/233 232/232/232
f 235/235/235 234/234/234 232/232/232
f 238/238/238 237/237/237 236/236/236
f 239/239/239 238/238/238 236/236/236
f 239/239/239 236/236/236 240/240/240
f 236/236/236 241/241/241 240/240/240
f 237/237/237 238/238/238 242/242/242
f 238/238/238 243/243/243 242/242/242
f 246/246/246 245/245/245 244/244/244
f 247/247/247 246/246/246 244/244/244
f 250/250/250 249/249/249 248/248/248
f 251/251/251 250/250/250 248/248/248
f 254/254/254 253/253/253 252/252/252
f 255/255/255 254/254/254 252/252/252
f 258/258/258 257/257/257 256/256/256
f 259/259/259 258/258/258 256/256/256
f 262/262/262 261/261/261 260/260/260
f 263/263/263 262/262/262 260/260/260
f 266/266/266 265/265/265 264/264/264
f 267/267/267 266/266/266 264/264/264
f 270/270/270 269/269/269 268/268/268
f 271/271/271 270/270/270 268/268/268
f 274/274/274 273/273/273 272/272/272
f 275/275/275 274/274/274 272/272/272
f 272/272/272 273/273/273 276/276/276
f 273/273/273 277/277/277 276/276/276
f 280/280/280 279/279/279 278/278/278
f 281/281/281 280/280/280 278/278/278
f 278/278/278 279/279/279 282/282/282
f 279/279/279 283/283/283 282/282/282
f 286/286/286 285/285/285 284/284/284
f 287/287/287 286/286/286 284/284/284
f 288/288/288 287/287/287 284/284/284
f 289/289/289 287/287/287 288/288/288
f 290/290/290 289/289/289 288/288/288
f 291/291/291 289/289/289 290/290/290
f 292/292/292 291/291/291 290/290/290
f 293/293/293 291/291/291 292/292/292
f 294/294/294 293/293/293 292/292/292
f 294/294/294 292/292/292 295/295/295
f 294/294/294 295/295/295 296/296/296
f 297/297/297 294/294/294 296/296/296
f 293/293/293 298/298/298 291/291/291
f 298/298/298 299/299/299 291/291/291
f 291/291/291 299/299/299 289/289/289
f 298/298/298 300/300/300 299/299/299
f 298/298/298 301/301/301 300/300/300
f 301/301/301 302/302/302 300/300/300
f 296/296/296 295/295/295 303/303/303
f 295/295/295 304/304/304 303/303/303
f 292/292/292 290/290/290 304/304/304
f 295/295/295 292/292/292 304/304/304
f 299/299/299 305/305/305 289/289/289
f 299/299/299 300/300/300 305/305/305
f 300/300/300 306/306/306 305/305/305
f 300/300/300 302/302/302 306/306/306
f 302/302/302 307/307/307 306/306/306
f 303/303/303 304/304/304 308/308/308
f 304/304/304 309/309/309 308/308/308
f 304/304/304 290/290/290 309/309/309
f 290/290/290 288/288/288 309/309/309
f 305/305/305 306/306/306 310/310/310
f 305/305/305 310/310/310 287/287/287
f 289/289/289 305/305/305 287/287/287
f 306/306/306 311/311/311 310/310/310
f 306/306/306 307/307/307 311/311/311
f 307/307/307 312/312/312 311/311/311
f 309/309/309 284/284/284 308/308/308
f 309/309/309 288/288/288 284/284/284
f 284/284/284 313/313/313 308/308/308
f 287/287/287 310/310/310 286/286/286
f 310/310/310 314/314/314 286/286/286
f 310/310/310 311/311/311 314/314/314
f 311/311/311 312/312/312 314/314/314
f 312/312/312 315/315/315 314/314/314
f 315/315/315 285/285/285 314/314/314
f 313/313/313 284/284/284 285/285/285
f 286/286/286 314/314/314 285/285/285
f 318/318/318 317/317/317 316/316/316
f 319/319/319 318/318/318 316/316/316
f 320/320/320 319/319/319 316/316/316
f 320/320/320 321/321/321 319/319/319
f 321/321/321 320/320/320 322/322/322
f 322/322/322 320/320/320 316/316/316
f 323/323/323 321/321/321 322/322/322
f 324/324/324 321/321/321 323/323/323
f 325/325/325 324/324/324 323/323/323
f 326/326/326 324/324/324 325/325/325
f 326/326/326 325/325/325 327/327/327
f 328/328/328 326/326/326 327/327/327
f 326/326/326 329/329/329 324/324/324
f 329/329/329 330/330/330 324/324/324
f 324/324/324 330/330/330 321/321/321
f 329/329/329 331/331/331 330/330/330
f 331/331/331 332/332/332 330/330/330
f 331/331/331 333/333/333 332/332/332
f 331/331/331 334/334/334 333/333/333
f 334/334/334 335/335/335 333/333/333
f 332/332/332 333/333/333 336/336/336
f 333/333/333 337/337/337 336/336/336
f 333/333/333 335/335/335 337/337/337
f 335/335/335 338/338/338 337/337/337
f 325/325/325 323/323/323 339/339/339
f 327/327/327 325/325/325 339/339/339
f 332/332/332 336/336/336 340/340/340
f 330/330/330 332/332/332 340/340/340
f 330/330/330 340/340/340 321/321/321
f 336/336/336 337/337/337 341/341/341
f 337/337/337 342/342/342 341/341/341
f 337/337/337 338/338/338 342/342/342
f 338/338/338 343/343/343 342/342/342
f 339/339/339 323/323/323 344/344/344
f 323/323/323 322/322/322 344/344/344
f 321/321/321 340/340/340 319/319/319
f 336/336/336 341/341/341 319/319/319
f 340/340/340 336/336/336 319/319/319
f 341/341/341 342/342/342 345/345/345
f 342/342/342 343/343/343 345/345/345
f 341/341/341 345/345/345 319/319/319
f 343/343/343 346/346/346 345/345/345
f 344/344/344 322/322/322 347/347/347
f 322/322/322 316/316/316 347/347/347
f 345/345/345 318/318/318 319/319/319
f 318/318/318 345/345/345 317/317/317
f 347/347/347 316/316/316 317/317/317
f 345/345/345 346/346/346 317/317/317
f 329/329/329 326/326/326 348/348/348
f 348/348/348 326/326/326 328/328/328
f 348/348/348 331/331/331 329/329/329
f 334/334/334 331/331/331 348/348/348
f 298/298/298 349/349/349 301/301/301
f 298/298/298 293/293/293 349/349/349
f 349/349/349 293/293/293 294/294/294
f 294/294/294 297/297/297 349/349/349
f 352/352/352 351/351/351 350/350/350
f 353/353/353 352/352/352 350/350/350
f 354/354/354 352/352/352 353/353/353
f 355/355/355 354/354/354 353/353/353
f 352/352/352 356/356/356 351/351/351
f 354/354/354 356/356/356 352/352/352
f 359/359/359 358/358/358 357/357/357
f 360/360/360 359/359/359 357/357/357
f 361/361/361 359/359/359 360/360/360
f 362/362/362 361/361/361 360/360/360
f 359/359/359 363/363/363 358/358/358
f 361/361/361 363/363/363 359/359/359
f 366/366/366 365/365/365 364/364/364
f 367/367/367 366/366/366 364/364/364
f 366/366/366 368/368/368 365/365/365
f 368/368/368 369/369/369 365/365/365
f 370/370/370 366/366/366 367/367/367
f 370/370/370 368/368/368 366/366/366
f 373/373/373 372/372/372 371/371/371
f 374/374/374 373/373/373 371/371/371
f 373/373/373 375/375/375 372/372/372
f 375/375/375 376/376/376 372/372/372
f 377/377/377 373/373/373 374/374/374
f 377/377/377 375/375/375 373/373/373
f 380/380/380 379/379/379 378/378/378
f 378/378/378 381/381/381 380/380/380
f 384/384/384 383/383/383 382/382/382
f 384/384/384 385/385/385 383/383/383
f 388/388/388 387/387/387 386/386/386
f 389/389/389 388/388/388 386/386/386
f 389/389/389 386/386/386 390/390/390
f 386/386/386 391/391/391 390/390/390
f 394/394/394 393/393/393 392/392/392
f 395/395/395 394/394/394 392/392/392
f 392/392/392 396/396/396 395/395/395
f 396/396/396 397/397/397 395/395/395
