g wp_010_023_201_Mesh
v 0.0905191079 0.508944094 0.273750097
v 0.112826027 0.398056865 0.447830796
v -0 0.411347866 0.470722944
v -0 0.527634621 0.283127993
v 0.193172902 0.37928167 0.303404599
v 0.0827530175 0.503888667 -0.175165623
v -0 0.52390939 -0.177065775
v -0 0.4194628 -0.278517872
v 0.102222681 0.411981523 -0.257650793
v 0.205651388 0.393206239 -0.0897636786
v 0.229680806 0.167438447 -0.0548408478
v 0.102222681 0.411981523 -0.257650793
v 0.106443115 0.172948509 -0.245743901
v -0 0.4194628 -0.278517872
v -0 0.169128075 -0.267683953
v 0.213754952 0.168160677 0.247246072
v -0 0.0981123894 -0.211983174
v 0.106443115 0.172948509 -0.245743901
v -0 0.169128075 -0.267683953
v -0 0.110460848 0.367461592
v 0.118753202 0.183760136 0.406588852
v -0 0.179814145 0.429911911
v 0.118753202 0.183760136 0.406588852
v 0.112826027 0.398056865 0.447830796
v -0 0.179814145 0.429911911
v -0 0.411347866 0.470722944
v -0 0.411347866 0.470722944
v -0.112826027 0.398056865 0.447830796
v -0.0905191079 0.508944094 0.273750097
v -0 0.527634621 0.283127993
v -0.193172902 0.37928167 0.303404599
v -0 0.52390939 -0.177065775
v -0.0827530175 0.503888667 -0.175165623
v -0 0.4194628 -0.278517872
v -0.102222681 0.411981523 -0.257650793
v -0.205651388 0.393206239 -0.0897636786
v -0.213754952 0.168160677 0.247246072
v -0.112826027 0.398056865 0.447830796
v -0.118753202 0.183760136 0.406588852
v -0 0.179814145 0.429911911
v -0 0.411347866 0.470722944
v -0.229680806 0.167438447 -0.0548408478
v -0 0.0981123894 -0.211983174
v -0.106443115 0.172948509 -0.245743901
v -0 0.169128075 -0.267683953
v -0 0.110460848 0.367461592
v -0.118753202 0.183760136 0.406588852
v -0 0.179814145 0.429911911
v -0.106443115 0.172948509 -0.245743901
v -0.102222681 0.411981523 -0.257650793
v -0 0.169128075 -0.267683953
v -0 0.4194628 -0.278517872
v 0.306532562 0.271159619 0.319903523
v 0.306532562 0.271159619 0.543313861
v 0.254512966 0.285098255 0.54331392
v 0.254512966 0.285098255 0.319903553
v 0.358552128 0.181059077 0.319903523
v 0.358552128 0.181059077 0.543313861
v 0.306532562 0.090958558 0.319903523
v 0.306532562 0.090958558 0.543313861
v 0.254512966 0.0770199597 0.319903553
v 0.254512966 0.0770199597 0.54331392
v 0.28268826 0.246573344 0.245855272
v 0.32051295 0.181059077 0.259857386
v 0.28268826 0.115544818 0.245855272
v 0.244863585 0.105409712 0.236136198
v 0.244863585 0.256708413 0.236136198
v 0.244863585 0.181059077 0.211952686
v 0.207038954 0.115544818 0.221438035
v 0.174281791 0.181059077 0.204365551
v 0.207038954 0.246573344 0.221438035
v 0.254512966 0.285098255 0.319903553
v 0.254512966 0.285098255 0.54331392
v 0.202493459 0.271159619 0.54331392
v 0.202493459 0.271159619 0.319903553
v 0.150473863 0.181059077 0.54331392
v 0.150473863 0.181059077 0.319903553
v 0.202493459 0.0909585133 0.54331392
v 0.202493459 0.0909585133 0.319903553
v 0.254512966 0.0770199597 0.54331392
v 0.254512966 0.0770199597 0.319903553
v 0.244863585 0.105409712 0.236136198
v 0.207038954 0.115544818 0.221438035
v 0.174281791 0.181059077 0.204365551
v 0.207038954 0.246573344 0.221438035
v 0.244863585 0.256708413 0.236136198
v 0.358552128 0.181059077 0.543313861
v 0.306532562 0.090958558 0.543313861
v 0.310594529 0.0839230344 0.626726568
v 0.366676092 0.181059077 0.626726568
v 0.254512966 0.0770199597 0.54331392
v 0.254512966 0.0688960329 0.626726568
v 0.306532562 0.271159619 0.543313861
v 0.310594529 0.309371859 0.626726568
v 0.254512966 0.329221874 0.626726568
v 0.254512966 0.285098255 0.54331392
v 0.254512966 0.0688960329 0.626726568
v 0.254512966 0.0770199597 0.54331392
v 0.202493459 0.0909585133 0.54331392
v 0.198431492 0.0839229971 0.626726568
v 0.142349944 0.181059077 0.626726568
v 0.150473863 0.181059077 0.54331392
v 0.198431492 0.309371859 0.626726568
v 0.202493459 0.271159619 0.54331392
v 0.254512966 0.285098255 0.54331392
v 0.254512966 0.329221874 0.626726568
v 0.366676092 0.181059077 0.626726568
v 0.334460825 0.183018759 0.664141536
v 0.293512106 0.290278524 0.664141536
v 0.310594529 0.309371859 0.626726568
v 0.254512966 0.329221874 0.626726568
v 0.254512966 0.305978775 0.664141536
v 0.21551387 0.290278524 0.664141536
v 0.198431492 0.309371859 0.626726568
v 0.142349944 0.181059077 0.626726568
v 0.174565196 0.183018744 0.664141595
v 0.198431492 0.0839229971 0.626726568
v 0.214579269 0.104007229 0.664141536
v 0.254512966 0.0688960329 0.626726568
v 0.254512966 0.0918368474 0.664141536
v 0.294446737 0.104007229 0.664141536
v 0.310594529 0.0839230344 0.626726568
v 0.178227171 0.317180485 -0.380546451
v 0.259785444 0.290397525 -0.380546451
v 0.259785444 0.290397525 -0.306563169
v 0.178227171 0.317180485 -0.306563169
v 0.309859902 0.185547784 -0.306563169
v 0.309859902 0.185547784 -0.380546451
v 0.286797971 0.0905853286 -0.306563169
v 0.286797971 0.0905853286 -0.380546451
v 0.252696872 0.283308953 -0.255543023
v 0.17338562 0.312338889 -0.255543023
v 0.281726837 0.203997687 -0.255543023
v 0.0940743461 0.283308953 -0.255543023
v 0.0940743461 0.283308953 -0.306563169
v 0.252696902 0.12468639 -0.255543023
v 0.0940743461 0.283308953 -0.380546451
v 0.0940743461 0.283308953 -0.306563169
v 0.0602027886 0.199156106 -0.306563169
v 0.0602027886 0.199156106 -0.380546451
v 0.0940743461 0.283308953 -0.380546451
v 0.0869857594 0.117597826 -0.380546451
v 0.0869857594 0.117597826 -0.306563169
v 0.191835493 0.067523405 -0.380546451
v 0.191835493 0.067523405 -0.306563169
v 0.17338562 0.0956564322 -0.255543023
v 0.252696902 0.12468639 -0.255543023
v 0.286797971 0.0905853286 -0.306563169
v 0.0940743461 0.12468639 -0.255543023
v 0.0650443658 0.203997701 -0.255543023
v 0.286797971 0.0905853286 -0.380546451
v 0.0940743461 0.283308953 -0.255543023
v 0.0895496458 0.19715704 -0.392590255
v 0.110126674 0.134496883 -0.392590255
v 0.242886409 0.267256618 -0.392590255
v 0.180226251 0.287833631 -0.392590255
v 0.178227171 0.317180485 -0.380546451
v 0.0940743461 0.283308953 -0.380546451
v 0.115572728 0.261810571 -0.392590255
v 0.0602027886 0.199156106 -0.380546451
v 0.259785444 0.290397525 -0.380546451
v 0.309859902 0.185547784 -0.380546451
v 0.281357944 0.186701939 -0.392590255
v 0.0869857594 0.117597826 -0.380546451
v 0.190681338 0.0960253701 -0.392590255
v 0.191835493 0.067523405 -0.380546451
v 0.263639748 0.113743551 -0.392590255
v 0.286797971 0.0905853286 -0.380546451
v 0.252696872 0.283308953 -0.146739155
v 0.252696872 0.283308953 -0.255543023
v 0.281726837 0.203997687 -0.255543023
v 0.281726837 0.203997687 -0.146739155
v 0.17338562 0.312338889 -0.146739155
v 0.17338562 0.312338889 -0.255543023
v 0.0940743461 0.283308953 -0.146739155
v 0.0940743461 0.283308953 -0.255543023
v 0.252696902 0.12468639 -0.255543023
v 0.252696902 0.12468639 -0.146739155
v 0.17338562 0.0956564322 -0.255543023
v 0.17338562 0.0956564322 -0.146739155
v 0.252696902 0.12468639 -0.146739155
v 0.252696902 0.12468639 -0.255543023
v 0.0940743461 0.12468639 -0.255543023
v 0.0940743461 0.12468639 -0.146739155
v 0.0650443658 0.203997701 -0.255543023
v 0.0650443658 0.203997701 -0.146739155
v 0.0940743461 0.283308953 -0.255543023
v 0.0940743461 0.283308953 -0.146739155
v 0.17338562 0.312338889 -0.146739155
v 0.252696872 0.283308953 -0.146739155
v 0.236647427 0.267259508 -0.103574485
v 0.17338562 0.290414959 -0.103574485
v 0.259802848 0.203997701 -0.103574485
v 0.281726837 0.203997687 -0.146739155
v 0.236647427 0.140735865 -0.103574485
v 0.252696902 0.12468639 -0.146739155
v 0.17338559 0.203997687 -0.0792673454
v 0.110123783 0.267259538 -0.103574485
v 0.0940743461 0.283308953 -0.146739155
v 0.110123783 0.267259538 -0.103574485
v 0.0869683176 0.203997687 -0.103574485
v 0.0650443658 0.203997701 -0.146739155
v 0.0940743461 0.283308953 -0.146739155
v 0.0940743461 0.12468639 -0.146739155
v 0.110123783 0.140735865 -0.103574485
v 0.17338562 0.0956564322 -0.146739155
v 0.17338562 0.117580391 -0.103574485
v 0.17338559 0.203997687 -0.0792673454
v 0.236647427 0.140735865 -0.103574485
v 0.252696902 0.12468639 -0.146739155
v -0 0.32966873 0.702070534
v 0.169070929 0.331320792 0.648900867
v 0.14231655 0.265271366 0.628824174
v -0 0.251521736 0.6678738
v 0.159006521 0.226309255 0.559491813
v 0.272995412 0.325538337 0.548261344
v 0.180073187 0.42095688 0.640580893
v 0.288369358 0.422600746 0.542526424
v 0.296179861 0.322274864 0.456205457
v 0.174449399 0.213455349 0.46007517
v -0 0.195808604 0.577174842
v -0 0.172121763 0.460799664
v 0.311829358 0.424341202 0.449583203
v 0.155993089 0.516054273 0.614285827
v -0 0.521573424 0.66144377
v 0.126114398 0.592765272 0.577084899
v 0.138379395 0.640090823 0.516742289
v -0 0.677215815 0.52722615
v -0 0.612986922 0.605541766
v 0.251230687 0.526816487 0.526248634
v 0.152286902 0.663096011 0.424608499
v 0.272764027 0.537199795 0.435004592
v -0 0.421839297 0.694767773
v -0.138379395 0.640090823 0.516742289
v -0.126114398 0.592765272 0.577084899
v -0.152286902 0.663096011 0.424608499
v -0 0.706458271 0.422983855
v -0.155993089 0.516054273 0.614285827
v -0.180073187 0.42095688 0.640580893
v -0.169070929 0.331320792 0.648900867
v -0.14231655 0.265271366 0.628824174
v -0.159006521 0.226309255 0.559491813
v -0.174449399 0.213455349 0.46007517
v -0.288369358 0.422600746 0.542526424
v -0.251230687 0.526816487 0.526248634
v -0.311829358 0.424341202 0.449583203
v -0.296179861 0.322274864 0.456205457
v -0.272995412 0.325538337 0.548261344
v -0.272764027 0.537199795 0.435004592
v -0 0.311978072 0.216626137
v 0.201283634 0.324540585 0.263063788
v 0.207479849 0.421260893 0.244401932
v -0 0.420628548 0.190386176
v 0.310114294 0.42347008 0.352517694
v 0.298851758 0.327482611 0.362834603
v 0.180314854 0.526677132 0.24419345
v 0.270975024 0.530770063 0.344155252
v 0.152025774 0.650783837 0.339445263
v 0.146361575 0.608991027 0.27640599
v -0 0.537269711 0.195813954
v -0 0.636638761 0.248750836
v 0.272764027 0.537199795 0.435004592
v 0.152286902 0.663096011 0.424608499
v -0 0.692983687 0.327264935
v -0 0.706458271 0.422983855
v 0.179264858 0.224614576 0.367296368
v 0.170694768 0.2554138 0.301102102
v -0 0.183587074 0.356058866
v -0 0.226992711 0.273507357
v 0.296179861 0.322274864 0.456205457
v 0.174449399 0.213455349 0.46007517
v -0 0.172121763 0.460799664
v 0.311829358 0.424341202 0.449583203
v -0 0.420628548 0.190386176
v -0.207479849 0.421260893 0.244401932
v -0.201283634 0.324540585 0.263063788
v -0 0.311978072 0.216626137
v -0.170694768 0.2554138 0.301102102
v -0 0.226992711 0.273507357
v -0.180314854 0.526677132 0.24419345
v -0 0.537269711 0.195813954
v -0 0.636638761 0.248750836
v -0.146361575 0.608991027 0.27640599
v -0.152025774 0.650783837 0.339445263
v -0 0.692983687 0.327264935
v -0.152286902 0.663096011 0.424608499
v -0 0.706458271 0.422983855
v -0 0.183587074 0.356058866
v -0.179264858 0.224614576 0.367296368
v -0 0.172121763 0.460799664
v -0.174449399 0.213455349 0.46007517
v -0.296179861 0.322274864 0.456205457
v -0.298851758 0.327482611 0.362834603
v -0.311829358 0.424341202 0.449583203
v -0.310114294 0.42347008 0.352517694
v -0.272764027 0.537199795 0.435004592
v -0.270975024 0.530770063 0.344155252
v 0.293112993 0.695537984 0.417159706
v 0.189850837 0.723356903 0.417167574
v 0.19000797 0.702464879 0.338389993
v 0.288700551 0.680243671 0.338389993
v 0.129998535 0.66397649 0.338389993
v 0.121487893 0.675172865 0.417155147
v 0.106579341 0.619533777 0.417151749
v 0.118090153 0.619533777 0.338389993
v 0.310921878 0.59731245 0.338389993
v 0.320932597 0.591714323 0.417153478
v 0.272747695 0.52316463 0.417164266
v 0.27243343 0.542556942 0.338389993
v 0.217483118 0.508256793 0.417170852
v 0.217483118 0.530648589 0.338389993
v 0.27243343 0.542556942 0.338389993
v 0.217483118 0.619533777 0.307134718
v 0.217483118 0.530648589 0.338389993
v 0.118090153 0.619533777 0.338389993
v 0.129998535 0.66397649 0.338389993
v 0.19000797 0.702464879 0.338389993
v 0.288700551 0.680243671 0.338389993
v 0.310921878 0.59731245 0.338389993
v 0.274957627 0.677008331 0.44057858
v 0.196446002 0.698045492 0.44057858
v 0.189850837 0.723356903 0.417167574
v 0.293112993 0.695537984 0.417159706
v 0.121487893 0.675172865 0.417155147
v 0.144608364 0.66160804 0.44057858
v 0.106579341 0.619533777 0.417151749
v 0.133334622 0.619533777 0.44057858
v 0.217483118 0.53538537 0.44057858
v 0.259557366 0.546659052 0.44057858
v 0.272747695 0.52316463 0.417164266
v 0.217483118 0.508256793 0.417170852
v 0.320932597 0.591714323 0.417153478
v 0.295994759 0.598496675 0.44057858
v 0.135123342 0.42753309 0.654681563
v 0.149213925 0.327074081 0.65623945
v 0.0881899968 0.338596195 0.734506667
v 0.0781358331 0.428152412 0.730917513
v 0.0744634718 0.474778652 0.65846175
v -0 0.491593003 0.662262321
v -0 0.432021022 0.753283978
v 0.0907995701 0.27006188 0.662454188
v -0 0.337248057 0.758375049
v -0 0.252816141 0.668173671
v -0.0744634718 0.474778652 0.65846175
v -0.0781358331 0.428152412 0.730917513
v -0.0881899968 0.338596195 0.734506667
v -0.135123342 0.42753309 0.654681563
v -0.149213925 0.327074081 0.65623945
v -0.0907995701 0.27006188 0.662454188
v 0.042352695 0.576408982 -0.30157423
v -0 0.593747914 -0.29231596
v -0 0.552603662 -0.346909136
v 0.0620086566 0.539048612 -0.321523041
v -0 0.589926958 -0.224061579
v 0.0620086566 0.564540923 -0.237616554
v -0 0.535333872 -0.182917207
v 0.042352695 0.517994821 -0.192175522
v -0 0.467079461 -0.186738238
v 0.0620086566 0.480634481 -0.212124243
v 0.0907869712 0.509841561 -0.26682362
v -0 0.484349281 -0.350730121
v 0.042352695 0.501688242 -0.341471821
v -0 0.552603662 -0.346909136
v 0.0620086566 0.539048612 -0.321523041
v 0.0907869712 0.509841561 -0.26682362
v 0.0620086566 0.4551422 -0.29603073
v 0.0620086566 0.480634481 -0.212124243
v 0.042352695 0.44327414 -0.232073069
v -0 0.425935119 -0.241331324
v -0 0.429756165 -0.30958572
v -0 0.467079461 -0.186738238
v -0.0620086566 0.539048612 -0.321523041
v -0 0.552603662 -0.346909136
v -0.042352695 0.576408982 -0.30157423
v -0 0.593747914 -0.29231596
v -0.0907869712 0.509841561 -0.26682362
v -0.0620086566 0.564540923 -0.237616554
v -0.0620086566 0.480634481 -0.212124243
v -0.042352695 0.517994821 -0.192175522
v -0 0.467079461 -0.186738238
v -0 0.535333872 -0.182917207
v -0 0.589926958 -0.224061579
v -0 0.552603662 -0.346909136
v -0.042352695 0.501688242 -0.341471821
v -0 0.484349281 -0.350730121
v -0.0620086566 0.539048612 -0.321523041
v -0.0620086566 0.4551422 -0.29603073
v -0 0.429756165 -0.30958572
v -0 0.425935119 -0.241331324
v -0.042352695 0.44327414 -0.232073069
v -0 0.467079461 -0.186738238
v -0.0620086566 0.480634481 -0.212124243
v -0.0907869712 0.509841561 -0.26682362
v -0.254512966 0.285098255 0.319903553
v -0.254512966 0.285098255 0.54331392
v -0.306532562 0.271159619 0.543313861
v -0.306532562 0.271159619 0.319903523
v -0.358552128 0.181059077 0.543313861
v -0.358552128 0.181059077 0.319903523
v -0.306532562 0.090958558 0.543313861
v -0.306532562 0.090958558 0.319903523
v -0.254512966 0.0770199597 0.54331392
v -0.254512966 0.0770199597 0.319903553
v -0.32051295 0.181059077 0.259857386
v -0.28268826 0.246573344 0.245855272
v -0.28268826 0.115544818 0.245855272
v -0.244863585 0.105409712 0.236136198
v -0.244863585 0.256708413 0.236136198
v -0.244863585 0.181059077 0.211952686
v -0.207038954 0.115544818 0.221438035
v -0.174281791 0.181059077 0.204365551
v -0.207038954 0.246573344 0.221438035
v -0.202493459 0.271159619 0.319903553
v -0.202493459 0.271159619 0.54331392
v -0.254512966 0.285098255 0.54331392
v -0.254512966 0.285098255 0.319903553
v -0.150473863 0.181059077 0.319903553
v -0.150473863 0.181059077 0.54331392
v -0.202493459 0.0909585133 0.319903553
v -0.202493459 0.0909585133 0.54331392
v -0.254512966 0.0770199597 0.319903553
v -0.254512966 0.0770199597 0.54331392
v -0.244863585 0.105409712 0.236136198
v -0.207038954 0.115544818 0.221438035
v -0.174281791 0.181059077 0.204365551
v -0.207038954 0.246573344 0.221438035
v -0.244863585 0.256708413 0.236136198
v -0.366676092 0.181059077 0.626726568
v -0.310594529 0.0839230344 0.626726568
v -0.306532562 0.090958558 0.543313861
v -0.358552128 0.181059077 0.543313861
v -0.254512966 0.0688960329 0.626726568
v -0.254512966 0.0770199597 0.54331392
v -0.310594529 0.309371859 0.626726568
v -0.306532562 0.271159619 0.543313861
v -0.254512966 0.285098255 0.54331392
v -0.254512966 0.329221874 0.626726568
v -0.198431492 0.0839229971 0.626726568
v -0.202493459 0.0909585133 0.54331392
v -0.254512966 0.0770199597 0.54331392
v -0.254512966 0.0688960329 0.626726568
v -0.150473863 0.181059077 0.54331392
v -0.142349944 0.181059077 0.626726568
v -0.202493459 0.271159619 0.54331392
v -0.198431492 0.309371859 0.626726568
v -0.254512966 0.329221874 0.626726568
v -0.254512966 0.285098255 0.54331392
v -0.293512106 0.290278524 0.664141536
v -0.334460825 0.183018759 0.664141536
v -0.366676092 0.181059077 0.626726568
v -0.310594529 0.309371859 0.626726568
v -0.254512966 0.329221874 0.626726568
v -0.254512966 0.305978775 0.664141536
v -0.21551387 0.290278524 0.664141536
v -0.198431492 0.309371859 0.626726568
v -0.142349944 0.181059077 0.626726568
v -0.174565196 0.183018744 0.664141595
v -0.198431492 0.0839229971 0.626726568
v -0.214579269 0.104007229 0.664141536
v -0.254512966 0.0688960329 0.626726568
v -0.254512966 0.0918368474 0.664141536
v -0.294446737 0.104007229 0.664141536
v -0.310594529 0.0839230344 0.626726568
v -0.178227171 0.317180485 -0.380546451
v -0.0940743461 0.283308953 -0.380546451
v -0.0940743461 0.283308953 -0.306563169
v -0.178227171 0.317180485 -0.306563169
v -0.0940743461 0.283308953 -0.255543023
v -0.17338562 0.312338889 -0.255543023
v -0.252696872 0.283308953 -0.255543023
v -0.259785444 0.290397525 -0.306563169
v -0.309859902 0.185547784 -0.306563169
v -0.281726837 0.203997687 -0.255543023
v -0.286797971 0.0905853286 -0.306563169
v -0.286797971 0.0905853286 -0.380546451
v -0.309859902 0.185547784 -0.380546451
v -0.252696902 0.12468639 -0.255543023
v -0.259785444 0.290397525 -0.380546451
v -0.0940743461 0.283308953 -0.380546451
v -0.0602027886 0.199156106 -0.380546451
v -0.0602027886 0.199156106 -0.306563169
v -0.0940743461 0.283308953 -0.306563169
v -0.0650443658 0.203997701 -0.255543023
v -0.0940743461 0.12468639 -0.255543023
v -0.0869857594 0.117597826 -0.306563169
v -0.0940743461 0.283308953 -0.255543023
v -0.17338562 0.0956564322 -0.255543023
v -0.191835493 0.067523405 -0.306563169
v -0.0869857594 0.117597826 -0.380546451
v -0.191835493 0.067523405 -0.380546451
v -0.286797971 0.0905853286 -0.306563169
v -0.286797971 0.0905853286 -0.380546451
v -0.252696902 0.12468639 -0.255543023
v -0.0895496458 0.19715704 -0.392590255
v -0.115572728 0.261810571 -0.392590255
v -0.180226251 0.287833631 -0.392590255
v -0.0940743461 0.283308953 -0.380546451
v -0.0602027886 0.199156106 -0.380546451
v -0.178227171 0.317180485 -0.380546451
v -0.110126674 0.134496883 -0.392590255
v -0.0869857594 0.117597826 -0.380546451
v -0.190681338 0.0960253701 -0.392590255
v -0.281357944 0.186701939 -0.392590255
v -0.263639748 0.113743551 -0.392590255
v -0.286797971 0.0905853286 -0.380546451
v -0.309859902 0.185547784 -0.380546451
v -0.242886409 0.267256618 -0.392590255
v -0.259785444 0.290397525 -0.380546451
v -0.191835493 0.067523405 -0.380546451
v -0.252696902 0.12468639 -0.146739155
v -0.252696902 0.12468639 -0.255543023
v -0.281726837 0.203997687 -0.255543023
v -0.281726837 0.203997687 -0.146739155
v -0.252696872 0.283308953 -0.255543023
v -0.252696872 0.283308953 -0.146739155
v -0.17338562 0.312338889 -0.255543023
v -0.17338562 0.312338889 -0.146739155
v -0.0940743461 0.283308953 -0.255543023
v -0.0940743461 0.283308953 -0.146739155
v -0.17338562 0.0956564322 -0.146739155
v -0.17338562 0.0956564322 -0.255543023
v -0.252696902 0.12468639 -0.255543023
v -0.252696902 0.12468639 -0.146739155
v -0.0940743461 0.12468639 -0.146739155
v -0.0940743461 0.12468639 -0.255543023
v -0.0650443658 0.203997701 -0.146739155
v -0.0650443658 0.203997701 -0.255543023
v -0.0940743461 0.283308953 -0.146739155
v -0.0940743461 0.283308953 -0.255543023
v -0.17338562 0.312338889 -0.146739155
v -0.0940743461 0.283308953 -0.146739155
v -0.110123783 0.267259538 -0.103574485
v -0.17338562 0.290414959 -0.103574485
v -0.17338559 0.203997687 -0.0792673454
v -0.236647427 0.267259508 -0.103574485
v -0.259802848 0.203997701 -0.103574485
v -0.236647427 0.140735865 -0.103574485
v -0.252696902 0.12468639 -0.146739155
v -0.281726837 0.203997687 -0.146739155
v -0.252696872 0.283308953 -0.146739155
v -0.0940743461 0.283308953 -0.146739155
v -0.0650443658 0.203997701 -0.146739155
v -0.0869683176 0.203997687 -0.103574485
v -0.110123783 0.267259538 -0.103574485
v -0.17338559 0.203997687 -0.0792673454
v -0.110123783 0.140735865 -0.103574485
v -0.17338562 0.117580391 -0.103574485
v -0.0940743461 0.12468639 -0.146739155
v -0.17338562 0.0956564322 -0.146739155
v -0.236647427 0.140735865 -0.103574485
v -0.252696902 0.12468639 -0.146739155
v -0.293112993 0.695537984 0.417159706
v -0.320932597 0.591714323 0.417153478
v -0.310921878 0.59731245 0.338389993
v -0.288700551 0.680243671 0.338389993
v -0.272747695 0.52316463 0.417164266
v -0.27243343 0.542556942 0.338389993
v -0.217483118 0.508256793 0.417170852
v -0.217483118 0.530648589 0.338389993
v -0.189850837 0.723356903 0.417167574
v -0.19000797 0.702464879 0.338389993
v -0.121487893 0.675172865 0.417155147
v -0.129998535 0.66397649 0.338389993
v -0.106579341 0.619533777 0.417151749
v -0.118090153 0.619533777 0.338389993
v -0.27243343 0.542556942 0.338389993
v -0.217483118 0.530648589 0.338389993
v -0.217483118 0.619533777 0.307134718
v -0.118090153 0.619533777 0.338389993
v -0.129998535 0.66397649 0.338389993
v -0.19000797 0.702464879 0.338389993
v -0.288700551 0.680243671 0.338389993
v -0.310921878 0.59731245 0.338389993
v -0.274957627 0.677008331 0.44057858
v -0.295994759 0.598496675 0.44057858
v -0.320932597 0.591714323 0.417153478
v -0.293112993 0.695537984 0.417159706
v -0.259557366 0.546659052 0.44057858
v -0.272747695 0.52316463 0.417164266
v -0.217483118 0.53538537 0.44057858
v -0.217483118 0.508256793 0.417170852
v -0.133334622 0.619533777 0.44057858
v -0.144608364 0.66160804 0.44057858
v -0.106579341 0.619533777 0.417151749
v -0.121487893 0.675172865 0.417155147
v -0.196446002 0.698045492 0.44057858
v -0.189850837 0.723356903 0.417167574
vt 0.944483995 0.334205002
vt 0.925638974 0.420565009
vt 0.981178999 0.430610001
vt 0.981013 0.340757996
vt 0.866008997 0.354828
vt 0.946788013 0.126706004
vt 0.980606973 0.120342001
vt 0.98051703 0.0717500001
vt 0.929772973 0.0803849995
vt 0.872861981 0.161326006
vt 0.761749029 0.178513005
vt 0.880581975 0.0604869984
vt 0.768841028 0.0633459985
vt 0.88657999 0.0127590001
vt 0.764416993 0.0145070003
vt 0.762103975 0.327188998
vt 0.643467009 0.1074
vt 0.696120977 0.0867260024
vt 0.643208027 0.0809909999
vt 0.646164 0.382126004
vt 0.704194009 0.402604997
vt 0.64645499 0.411734998
vt 0.769780993 0.405611008
vt 0.875249982 0.425909013
vt 0.767839015 0.417089999
vt 0.881790996 0.437175989
vt 0.981178999 0.430610001
vt 0.925638974 0.420565009
vt 0.944483995 0.334205002
vt 0.981013 0.340757996
vt 0.866008997 0.354828
vt 0.980606973 0.120342001
vt 0.946788013 0.126706004
vt 0.98051703 0.0717500001
vt 0.929772973 0.0803849995
vt 0.872861981 0.161326006
vt 0.762103975 0.327188998
vt 0.875249982 0.425909013
vt 0.769780993 0.405611008
vt 0.767839015 0.417089999
vt 0.881790996 0.437175989
vt 0.761749029 0.178513005
vt 0.643467009 0.1074
vt 0.696120977 0.0867260024
vt 0.643208027 0.0809909999
vt 0.646164 0.382126004
vt 0.704194009 0.402604997
vt 0.64645499 0.411734998
vt 0.768841028 0.0633459985
vt 0.880581975 0.0604869984
vt 0.764416993 0.0145070003
vt 0.88657999 0.0127590001
vt 0.167738006 0.543304026
vt 0.0587100014 0.543304026
vt 0.0587100014 0.550105989
vt 0.167738006 0.550105989
vt 0.167738006 0.499332994
vt 0.0587100014 0.499332994
vt 0.167738006 0.455363005
vt 0.0587100014 0.455363005
vt 0.167738006 0.448561013
vt 0.0587100014 0.448561013
vt 0.203875005 0.531305015
vt 0.197042003 0.499332994
vt 0.203875005 0.467361987
vt 0.208618999 0.46241501
vt 0.208618999 0.536252022
vt 0.220421001 0.499332994
vt 0.215792 0.467361987
vt 0.224123001 0.499332994
vt 0.215792 0.531305015
vt 0.167738006 0.410818011
vt 0.0587100014 0.410818011
vt 0.0587100014 0.404015988
vt 0.167738006 0.404015988
vt 0.0587100014 0.360044986
vt 0.167738006 0.360044986
vt 0.0587100014 0.316073
vt 0.167738006 0.316073
vt 0.0587100014 0.309271008
vt 0.167738006 0.309271008
vt 0.208618999 0.323127002
vt 0.215792 0.328072011
vt 0.224123001 0.360044986
vt 0.215792 0.392017007
vt 0.208618999 0.396963
vt 0.0587100014 0.499332994
vt 0.0587100014 0.455363005
vt 0.0180029999 0.451929003
vt 0.0180029999 0.499332994
vt 0.0587100014 0.448561013
vt 0.0180029999 0.444595993
vt 0.0587100014 0.543304026
vt 0.0180029999 0.561953008
vt 0.0180029999 0.571640015
vt 0.0587100014 0.550105989
vt 0.0180029999 0.305307001
vt 0.0587100014 0.309271008
vt 0.0587100014 0.316073
vt 0.0180029999 0.312640011
vt 0.0180029999 0.360044986
vt 0.0587100014 0.360044986
vt 0.0180029999 0.422663003
vt 0.0587100014 0.404015988
vt 0.0587100014 0.410818011
vt 0.0180029999 0.432350993
vt 0.312189013 0.212006003
vt 0.310416013 0.182843
vt 0.213320002 0.145775005
vt 0.196034998 0.161238998
vt 0.178066 0.110471003
vt 0.199107006 0.110471003
vt 0.213320002 0.0751679987
vt 0.196034998 0.0597039983
vt 0.312189013 0.0089370003
vt 0.310416013 0.0380989984
vt 0.400121003 0.0597039983
vt 0.381940007 0.0743220001
vt 0.413724005 0.110471003
vt 0.392957002 0.110471003
vt 0.381940007 0.146621004
vt 0.400121003 0.161238998
vt 0.163537994 0.275173485
vt 0.163537994 0.236398995
vt 0.126047 0.236398995
vt 0.126047 0.275173485
vt 0.126047 0.180835992
vt 0.163537994 0.180835992
vt 0.126047 0.154965997
vt 0.163537994 0.154965997
vt 0.100190997 0.236386999
vt 0.100190997 0.275165021
vt 0.100190997 0.197519004
vt 0.100190997 0.293087006
vt 0.126047 0.293087006
vt 0.100190997 0.179405004
vt 0.163537994 0.293087006
vt 0.126047 0.144133002
vt 0.126047 0.126010999
vt 0.163537994 0.126010999
vt 0.163537994 0.144133002
vt 0.163537994 0.0871400014
vt 0.126047 0.0871400014
vt 0.163537994 0.0316740014
vt 0.126047 0.0316740014
vt 0.100190997 0.0483744964
vt 0.100190997 0.0304530002
vt 0.126047 0.00601400016
vt 0.100190997 0.0871530026
vt 0.100190997 0.126019508
vt 0.163537994 0.00601400016
vt 0.100190997 0.144133002
vt 0.598077536 0.132338494
vt 0.614593029 0.0987489969
vt 0.508044004 0.0999339968
vt 0.525302529 0.133148
vt 0.514468491 0.145849004
vt 0.562054992 0.165499002
vt 0.561861992 0.148245007
vt 0.609192014 0.144795507
vt 0.492004007 0.102618001
vt 0.513293028 0.0402045026
vt 0.524399519 0.0519824997
vt 0.630688012 0.101075001
vt 0.597174525 0.0511735007
vt 0.608016491 0.0391504988
vt 0.560540974 0.0294109993
vt 0.560334027 0.0108249998
vt 0.0450539999 0.236386999
vt 0.100190997 0.236386999
vt 0.100190997 0.197519004
vt 0.0450539999 0.197519004
vt 0.0450539999 0.275165021
vt 0.100190997 0.275165021
vt 0.0450539999 0.293087006
vt 0.100190997 0.293087006
vt 0.100190997 0.179405004
vt 0.0450539999 0.179406002
vt 0.100190997 0.0483744964
vt 0.0450539999 0.0483744964
vt 0.0450539999 0.0304530002
vt 0.100190997 0.0304530002
vt 0.100190997 0.0871530026
vt 0.0450539999 0.0871530026
vt 0.100190997 0.126019508
vt 0.0450539999 0.126019508
vt 0.100190997 0.144133002
vt 0.0450539999 0.144133002
vt 0.0450539999 0.275165021
vt 0.0450539999 0.236386999
vt 0.0231800005 0.236358002
vt 0.0231800005 0.267289013
vt 0.0231800005 0.205356002
vt 0.0450539999 0.197519004
vt 0.0231800005 0.190908
vt 0.0450539999 0.179406002
vt 0.0108620003 0.236246005
vt 0.0231800005 0.281585008
vt 0.0450539999 0.293087006
vt 0.0231800005 0.132631004
vt 0.0231800005 0.118182495
vt 0.0450539999 0.126019508
vt 0.0450539999 0.144133002
vt 0.0450539999 0.0871530026
vt 0.0231800005 0.0871810019
vt 0.0450539999 0.0483744964
vt 0.0231800005 0.0562499985
vt 0.0108620003 0.087292999
vt 0.0231800005 0.0419550017
vt 0.0450539999 0.0304530002
vt 0.312539995 0.690154016
vt 0.421303988 0.697270036
vt 0.409536481 0.655693531
vt 0.312539995 0.640807986
vt 0.430904001 0.618837476
vt 0.504179001 0.688423991
vt 0.429037511 0.751470447
vt 0.515222013 0.754859984
vt 0.567829013 0.670702994
vt 0.467561483 0.567313015
vt 0.312539995 0.595861018
vt 0.312554002 0.53746599
vt 0.581794977 0.763276994
vt 0.418741524 0.815520525
vt 0.312539995 0.823203027
vt 0.403788 0.871663511
vt 0.418706477 0.913752496
vt 0.312539995 0.93787998
vt 0.312539995 0.88874501
vt 0.497072011 0.83148402
vt 0.447697997 0.968301475
vt 0.553982973 0.865454972
vt 0.312554002 0.752110004
vt 0.206386998 0.913743973
vt 0.221305504 0.871654987
vt 0.177395999 0.968292952
vt 0.312539995 0.995760977
vt 0.206351995 0.815512538
vt 0.196056992 0.75146246
vt 0.203790009 0.697261989
vt 0.215557009 0.655685544
vt 0.194189996 0.618829489
vt 0.157532498 0.567304492
vt 0.109871998 0.754851997
vt 0.128022999 0.831475973
vt 0.0432990007 0.763269007
vt 0.0572660007 0.670695007
vt 0.120915003 0.688416004
vt 0.0711110011 0.865445971
vt 0.984669983 0.736678004
vt 0.891542017 0.746292472
vt 0.891481042 0.787328005
vt 0.984669983 0.787118971
vt 0.825513005 0.786381006
vt 0.829339027 0.740863025
vt 0.901408017 0.832995534
vt 0.838459015 0.839164972
vt 0.896618962 0.909363508
vt 0.911665976 0.87391001
vt 0.984669983 0.839753985
vt 0.984669983 0.894933999
vt 0.79401201 0.858362019
vt 0.871106029 0.948325038
vt 0.984669983 0.942018986
vt 0.984669983 0.988272011
vt 0.88251853 0.678952515
vt 0.899538994 0.710987508
vt 0.984669983 0.644239008
vt 0.984669983 0.687654972
vt 0.785623014 0.718729019
vt 0.859037995 0.634996533
vt 0.984669983 0.595773995
vt 0.773149014 0.784478009
vt 0.984669983 0.787118971
vt 0.891481042 0.787328005
vt 0.891542017 0.746292472
vt 0.984669983 0.736678004
vt 0.899538994 0.710987508
vt 0.984669983 0.687654972
vt 0.901408017 0.832995534
vt 0.984669983 0.839753985
vt 0.984669983 0.894933999
vt 0.911665976 0.87391001
vt 0.896618962 0.909363508
vt 0.984669983 0.942018986
vt 0.871106029 0.948325038
vt 0.984669983 0.988272011
vt 0.984669983 0.644239008
vt 0.88251853 0.678952515
vt 0.984669983 0.595773995
vt 0.859037995 0.634996533
vt 0.785623014 0.718729019
vt 0.829339027 0.740863025
vt 0.773149014 0.784478009
vt 0.825513005 0.786381006
vt 0.79401201 0.858362019
vt 0.838459015 0.839164972
vt 0.590512991 0.73377794
vt 0.590512991 0.78790772
vt 0.672630012 0.790709674
vt 0.672630012 0.729575396
vt 0.672630012 0.884330988
vt 0.590512991 0.881528974
vt 0.590512991 0.921074986
vt 0.672630012 0.921074986
vt 0.672630012 0.665924013
vt 0.590512991 0.664521992
vt 0.590512991 0.605202973
vt 0.672630012 0.610807002
vt 0.590512991 0.565904975
vt 0.672630012 0.565904975
vt 0.853712022 0.472454011
vt 0.794377983 0.481772006
vt 0.834675014 0.442245007
vt 0.750178993 0.436711013
vt 0.735325992 0.461872995
vt 0.74456203 0.506193995
vt 0.798524022 0.541056037
vt 0.846002996 0.514251471
vt 0.920740008 0.581064999
vt 0.876299024 0.554808974
vt 0.861888528 0.563069463
vt 0.920407057 0.597535491
vt 0.853353024 0.510645986
vt 0.869781971 0.515102029
vt 0.871958971 0.479151994
vt 0.883853018 0.49128601
vt 0.959421992 0.492044985
vt 0.973011971 0.516138017
vt 0.989530027 0.511677027
vt 0.971726 0.479984999
vt 0.979860485 0.564000964
vt 0.965698957 0.555706024
vt 0.601927161 0.415254682
vt 0.625925004 0.298887014
vt 0.534393013 0.320405483
vt 0.526409507 0.406972528
vt 0.5398525 0.476054847
vt 0.449984998 0.495505005
vt 0.450002015 0.415645003
vt 0.556883991 0.228613496
vt 0.449984998 0.317387015
vt 0.450002015 0.207335994
vt 0.360134482 0.476153344
vt 0.373577505 0.407071471
vt 0.365594 0.320505023
vt 0.298058867 0.415353686
vt 0.274062008 0.298985988
vt 0.343102992 0.228713006
vt 0.742617011 0.720461965
vt 0.685428023 0.720589995
vt 0.685428023 0.759045005
vt 0.769158483 0.720185995
vt 0.685428023 0.637049019
vt 0.769158483 0.63686198
vt 0.685428023 0.553133488
vt 0.742617011 0.553005219
vt 0.685428023 0.513870001
vt 0.769158483 0.552729964
vt 0.808017015 0.63645798
vt 0.685428023 0.719782472
vt 0.742617011 0.719910264
vt 0.685428023 0.759045005
vt 0.769158483 0.720185995
vt 0.808017015 0.63645798
vt 0.769158483 0.636053979
vt 0.769158483 0.552729964
vt 0.742617011 0.552453518
vt 0.685428023 0.552325487
vt 0.685428023 0.635865986
vt 0.685428023 0.513870001
vt 0.769158483 0.720185995
vt 0.685428023 0.759045005
vt 0.742617011 0.720461965
vt 0.685428023 0.720589995
vt 0.808017015 0.63645798
vt 0.769158483 0.63686198
vt 0.769158483 0.552729964
vt 0.742617011 0.553005219
vt 0.685428023 0.513870001
vt 0.685428023 0.553133488
vt 0.685428023 0.637049019
vt 0.685428023 0.759045005
vt 0.742617011 0.719910264
vt 0.685428023 0.719782472
vt 0.769158483 0.720185995
vt 0.769158483 0.636053979
vt 0.685428023 0.635865986
vt 0.685428023 0.552325487
vt 0.742617011 0.552453518
vt 0.685428023 0.513870001
vt 0.769158483 0.552729964
vt 0.808017015 0.63645798
vt 0.167738006 0.550105989
vt 0.0587100014 0.550105989
vt 0.0587100014 0.543304026
vt 0.167738006 0.543304026
vt 0.0587100014 0.499332994
vt 0.167738006 0.499332994
vt 0.0587100014 0.455363005
vt 0.167738006 0.455363005
vt 0.0587100014 0.448561013
vt 0.167738006 0.448561013
vt 0.197042003 0.499332994
vt 0.203875005 0.531305015
vt 0.203875005 0.467361987
vt 0.208618999 0.46241501
vt 0.208618999 0.536252022
vt 0.220421001 0.499332994
vt 0.215792 0.467361987
vt 0.224123001 0.499332994
vt 0.215792 0.531305015
vt 0.167738006 0.404015988
vt 0.0587100014 0.404015988
vt 0.0587100014 0.410818011
vt 0.167738006 0.410818011
vt 0.167738006 0.360044986
vt 0.0587100014 0.360044986
vt 0.167738006 0.316073
vt 0.0587100014 0.316073
vt 0.167738006 0.309271008
vt 0.0587100014 0.309271008
vt 0.208618999 0.323127002
vt 0.215792 0.328072011
vt 0.224123001 0.360044986
vt 0.215792 0.392017007
vt 0.208618999 0.396963
vt 0.0180029999 0.499332994
vt 0.0180029999 0.451929003
vt 0.0587100014 0.455363005
vt 0.0587100014 0.499332994
vt 0.0180029999 0.444595993
vt 0.0587100014 0.448561013
vt 0.0180029999 0.561953008
vt 0.0587100014 0.543304026
vt 0.0587100014 0.550105989
vt 0.0180029999 0.571640015
vt 0.0180029999 0.312640011
vt 0.0587100014 0.316073
vt 0.0587100014 0.309271008
vt 0.0180029999 0.305307001
vt 0.0587100014 0.360044986
vt 0.0180029999 0.360044986
vt 0.0587100014 0.404015988
vt 0.0180029999 0.422663003
vt 0.0180029999 0.432350993
vt 0.0587100014 0.410818011
vt 0.213320002 0.145775005
vt 0.310416013 0.182843
vt 0.312189013 0.212006003
vt 0.196034998 0.161238998
vt 0.178066 0.110471003
vt 0.199107006 0.110471003
vt 0.213320002 0.0751679987
vt 0.196034998 0.0597039983
vt 0.312189013 0.0089370003
vt 0.310416013 0.0380989984
vt 0.400121003 0.0597039983
vt 0.381940007 0.0743220001
vt 0.413724005 0.110471003
vt 0.392957002 0.110471003
vt 0.381940007 0.146621004
vt 0.400121003 0.161238998
vt 0.163537994 0.275173485
vt 0.163537994 0.293087006
vt 0.126047 0.293087006
vt 0.126047 0.275173485
vt 0.100190997 0.293087006
vt 0.100190997 0.275165021
vt 0.100190997 0.236386999
vt 0.126047 0.236398995
vt 0.126047 0.180835992
vt 0.100190997 0.197519004
vt 0.126047 0.154965997
vt 0.163537994 0.154965997
vt 0.163537994 0.180835992
vt 0.100190997 0.179405004
vt 0.163537994 0.236398995
vt 0.163537994 0.144133002
vt 0.163537994 0.126010999
vt 0.126047 0.126010999
vt 0.126047 0.144133002
vt 0.100190997 0.126019508
vt 0.100190997 0.0871530026
vt 0.126047 0.0871400014
vt 0.100190997 0.144133002
vt 0.100190997 0.0483744964
vt 0.126047 0.0316740014
vt 0.163537994 0.0871400014
vt 0.163537994 0.0316740014
vt 0.126047 0.00601400016
vt 0.163537994 0.00601400016
vt 0.100190997 0.0304530002
vt 0.598077536 0.132338494
vt 0.561861992 0.148245007
vt 0.525302529 0.133148
vt 0.562054992 0.165499002
vt 0.609192014 0.144795507
vt 0.514468491 0.145849004
vt 0.614593029 0.0987489969
vt 0.630688012 0.101075001
vt 0.597174525 0.0511735007
vt 0.524399519 0.0519824997
vt 0.560540974 0.0294109993
vt 0.560334027 0.0108249998
vt 0.513293028 0.0402045026
vt 0.508044004 0.0999339968
vt 0.492004007 0.102618001
vt 0.608016491 0.0391504988
vt 0.0450539999 0.179406002
vt 0.100190997 0.179405004
vt 0.100190997 0.197519004
vt 0.0450539999 0.197519004
vt 0.100190997 0.236386999
vt 0.0450539999 0.236386999
vt 0.100190997 0.275165021
vt 0.0450539999 0.275165021
vt 0.100190997 0.293087006
vt 0.0450539999 0.293087006
vt 0.0450539999 0.0483744964
vt 0.100190997 0.0483744964
vt 0.100190997 0.0304530002
vt 0.0450539999 0.0304530002
vt 0.0450539999 0.0871530026
vt 0.100190997 0.0871530026
vt 0.0450539999 0.126019508
vt 0.100190997 0.126019508
vt 0.0450539999 0.144133002
vt 0.100190997 0.144133002
vt 0.0450539999 0.275165021
vt 0.0450539999 0.293087006
vt 0.0231800005 0.281585008
vt 0.0231800005 0.267289013
vt 0.0108620003 0.236246005
vt 0.0231800005 0.236358002
vt 0.0231800005 0.205356002
vt 0.0231800005 0.190908
vt 0.0450539999 0.179406002
vt 0.0450539999 0.197519004
vt 0.0450539999 0.236386999
vt 0.0450539999 0.144133002
vt 0.0450539999 0.126019508
vt 0.0231800005 0.118182495
vt 0.0231800005 0.132631004
vt 0.0108620003 0.087292999
vt 0.0231800005 0.0871810019
vt 0.0231800005 0.0562499985
vt 0.0450539999 0.0871530026
vt 0.0450539999 0.0483744964
vt 0.0231800005 0.0419550017
vt 0.0450539999 0.0304530002
vt 0.590512991 0.73377794
vt 0.590512991 0.664521992
vt 0.672630012 0.665924013
vt 0.672630012 0.729575396
vt 0.590512991 0.605202973
vt 0.672630012 0.610807002
vt 0.590512991 0.565904975
vt 0.672630012 0.565904975
vt 0.590512991 0.78790772
vt 0.672630012 0.790709674
vt 0.590512991 0.881528974
vt 0.672630012 0.884330988
vt 0.590512991 0.921074986
vt 0.672630012 0.921074986
vt 0.853712022 0.472454011
vt 0.834675014 0.442245007
vt 0.794377983 0.481772006
vt 0.750178993 0.436711013
vt 0.735325992 0.461872995
vt 0.74456203 0.506193995
vt 0.798524022 0.541056037
vt 0.846002996 0.514251471
vt 0.920740008 0.581064999
vt 0.965698957 0.555706024
vt 0.979860485 0.564000964
vt 0.920407057 0.597535491
vt 0.973011971 0.516138017
vt 0.989530027 0.511677027
vt 0.959421992 0.492044985
vt 0.971726 0.479984999
vt 0.883853018 0.49128601
vt 0.869781971 0.515102029
vt 0.871958971 0.479151994
vt 0.853353024 0.510645986
vt 0.876299024 0.554808974
vt 0.861888528 0.563069463
vn 0.409395307 0.904883027 0.116542697
vn 0.393831939 0.356887907 0.84706986
vn -0 0.374203533 0.927346587
vn -0 0.99214679 0.125078961
vn 0.928656995 0.361491084 0.0831889585
vn 0.393532574 0.775639534 -0.493472934
vn -0 0.848303318 -0.529510617
vn -0 0.434103847 -0.900862813
vn 0.387507588 0.429114223 -0.815903664
vn 0.930166781 0.365703493 -0.032414265
vn 0.988554299 -0.137769639 -0.0614814833
vn 0.387507588 0.429114223 -0.815903664
vn 0.366279274 -0.366821468 -0.855149984
vn -0 0.434103847 -0.900862813
vn -0 -0.369415671 -0.929264247
vn 0.368725657 -0.468970805 0.80256325
vn -0 -0.855514944 -0.517778039
vn 0.366279274 -0.366821468 -0.855149984
vn -0 -0.369415671 -0.929264247
vn -0 -0.998386085 0.0567911118
vn -0 -0.864895225 0.50195235
vn -0 -0.473247439 0.880929589
vn -0 -0.864895225 0.50195235
vn 0.393831939 0.356887907 0.84706986
vn -0 -0.473247439 0.880929589
vn -0 0.374203533 0.927346587
vn -0 0.374203533 0.927346587
vn -0.393832028 0.356887966 0.84706986
vn -0.409395337 0.904882967 0.11654269
vn -0 0.99214679 0.125078961
vn -0.928657055 0.361490965 0.0831889585
vn -0 0.848303318 -0.529510617
vn -0.393532485 0.775639474 -0.493472993
vn -0 0.434103847 -0.900862813
vn -0.387507647 0.429114282 -0.815903664
vn -0.930166781 0.365703464 -0.0324142762
vn -0.368725628 -0.468970776 0.80256331
vn -0.393832028 0.356887966 0.84706986
vn -0.986745954 -0.106337778 0.122575156
vn -0 -0.473247439 0.880929589
vn -0 0.374203533 0.927346587
vn -0.988554299 -0.137769639 -0.0614814907
vn -0 -0.855514944 -0.517778039
vn -0.366279274 -0.366821438 -0.855149984
vn -0 -0.369415671 -0.929264247
vn -0 -0.998386085 0.0567911118
vn -0.986745954 -0.106337778 0.122575156
vn -0 -0.473247439 0.880929589
vn -0.366279274 -0.366821438 -0.855149984
vn -0.387507647 0.429114282 -0.815903664
vn -0 -0.369415671 -0.929264247
vn -0 0.434103847 -0.900862813
vn 0.496427059 0.854345858 -0.15379636
vn 0.492640287 0.843723953 0.21315597
vn 0.00477766339 0.977006793 0.213154703
vn 0.00225730729 0.991789162 -0.12786366
vn 0.982502043 0 -0.18625167
vn 0.977006733 -0.0047776713 0.213154837
vn 0.496427238 -0.854345798 -0.153796285
vn 0.484364927 -0.848501861 0.213155344
vn 0.00225775479 -0.991789162 -0.127863601
vn -0.00477745617 -0.977006912 0.213154301
vn 0.466906279 0.62451154 -0.626086116
vn 0.795318782 1.34884644E-07 -0.606191456
vn 0.46690619 -0.6245116 -0.626086116
vn 0.120974876 -0.787438512 -0.604405224
vn 0.12097501 0.787438333 -0.604405463
vn 0.31491828 0 -0.949118793
vn -0.307868391 -0.763524652 -0.5676682
vn -0.893922091 -1.41132631E-07 -0.448222339
vn -0.307868242 0.763524771 -0.56766808
vn 0.00225730729 0.991789162 -0.12786366
vn 0.00477766339 0.977006793 0.213154703
vn -0.484366447 0.848501265 0.213154152
vn -0.498144805 0.861101985 -0.10176035
vn -0.977006972 0.00477727409 0.213153869
vn -0.996919751 -1.0526702E-07 -0.0784283206
vn -0.492640406 -0.84372431 0.213154063
vn -0.49814412 -0.861102402 -0.101760305
vn -0.00477745617 -0.977006912 0.213154301
vn 0.00225775479 -0.991789162 -0.127863601
vn 0.120974876 -0.787438512 -0.604405224
vn -0.307868391 -0.763524652 -0.5676682
vn -0.893922091 -1.41132631E-07 -0.448222339
vn -0.307868242 0.763524771 -0.56766808
vn 0.12097501 0.787438333 -0.604405463
vn 0.975484788 -0.00639277836 -0.219974175
vn 0.482206196 -0.84799099 -0.219973817
vn 0.485460997 -0.830754995 0.272348672
vn 0.941366971 -0.001227231 0.337382197
vn -0.00639193738 -0.975484848 -0.219973698
vn 3.76259237E-07 -0.971442521 0.23727493
vn 0.457369894 0.604621828 -0.652108252
vn 0.586360574 0.763164341 0.271590531
vn -0 0.971441686 0.237278432
vn -7.17595924E-07 0.651437342 -0.758702397
vn 3.76259237E-07 -0.971442521 0.23727493
vn -0.00639193738 -0.975484848 -0.219973698
vn -0.493278265 -0.84159857 -0.219973505
vn -0.48546046 -0.830755055 0.272349179
vn -0.94136709 -0.00122719561 0.33738181
vn -0.975504875 0 -0.21997799
vn -0.586360753 0.763164222 0.27159071
vn -0.457370758 0.60462153 -0.652108014
vn -7.17595924E-07 0.651437342 -0.758702397
vn -0 0.971441686 0.237278432
vn 0.941366971 -0.001227231 0.337382197
vn 0.248276919 0.00168854429 0.968687594
vn 0.221844211 0.281319022 0.933619142
vn 0.586360574 0.763164341 0.271590531
vn -0 0.971441686 0.237278432
vn -0 0.64498812 0.764192641
vn -0.289632112 0.367281884 0.883864939
vn -0.586360753 0.763164222 0.27159071
vn -0.94136709 -0.00122719561 0.33738181
vn -0.268308282 0.00182474358 0.963331342
vn -0.48546046 -0.830755055 0.272349179
vn -0.251223564 -0.429280043 0.867528319
vn 3.76259237E-07 -0.971442521 0.23727493
vn 3.05984997E-07 -0.674575329 0.738206029
vn 0.194442168 -0.332252085 0.922930539
vn 0.485460997 -0.830754995 0.272348672
vn -0.0423949435 0.969037652 -0.243246138
vn 0.682877123 0.682917714 -0.259426773
vn 0.703579843 0.705858529 0.0820923522
vn -0.0257775113 0.998929262 0.0384164676
vn 0.976043403 0.080704987 0.202054486
vn 0.964040399 0.126585513 -0.233671159
vn 0.66735661 -0.66735661 0.330560595
vn 0.674865544 -0.674865365 -0.29851836
vn 0.690112352 0.699110746 0.187053695
vn -0.0418347344 0.995165944 0.0888515413
vn 0.893008292 0.121609226 0.43329832
vn -0.70710665 0.707106948 0
vn -0.707099378 0.70709914 0.00461153593
vn 0.526703298 -0.526703 0.66720885
vn -0.682668805 0.682668805 -0.260627359
vn -0.707099378 0.70709914 0.00461153593
vn -0.998929262 0.0257775784 0.0384164378
vn -0.969037652 0.042395059 -0.243246138
vn -0.682668805 0.682668805 -0.260627359
vn -0.682917774 -0.682877183 -0.259426534
vn -0.705858529 -0.703579843 0.0820922405
vn -0.126585439 -0.964040339 -0.233671278
vn -0.0807049349 -0.976043463 0.202054366
vn -0.121608995 -0.893008411 0.433298022
vn 0.526703298 -0.526703 0.66720885
vn 0.66735661 -0.66735661 0.330560595
vn -0.699110925 -0.690112293 0.187053576
vn -0.995165944 0.0418350846 0.0888514072
vn 0.674865544 -0.674865365 -0.29851836
vn -0.70710665 0.707106948 0
vn -0.119198166 0.00435385341 -0.992860913
vn -0.0568856373 -0.0614152998 -0.996489942
vn 0.0623365752 0.0577387474 -0.996383667
vn -0.00435428601 0.119197696 -0.992860973
vn -0.0423949435 0.969037652 -0.243246138
vn -0.682668805 0.682668805 -0.260627359
vn -0.173756808 0.173757166 -0.969338477
vn -0.969037652 0.042395059 -0.243246138
vn 0.682877123 0.682917714 -0.259426773
vn 0.964040399 0.126585513 -0.233671159
vn 0.110326529 0.0176704973 -0.993738294
vn -0.682917774 -0.682877183 -0.259426534
vn -0.0176701881 -0.110325933 -0.993738353
vn -0.126585439 -0.964040339 -0.233671278
vn 0.163977847 -0.163977847 -0.972739697
vn 0.674865544 -0.674865365 -0.29851836
vn 0.658326328 0.66953826 0.343983859
vn 0.669538498 0.658326149 -0.34398371
vn 1 1.82925518E-07 0
vn 1 1.82925518E-07 0
vn 1.26640757E-07 1 0
vn 1.26640757E-07 1 0
vn -0.669537961 0.658326328 0.343984663
vn -0.658325553 0.669538558 -0.343984663
vn 0.658326864 -0.669538319 -0.343982995
vn 0.669538736 -0.658326387 0.343982786
vn -0 -1 0
vn -0 -1 0
vn 0.669538736 -0.658326387 0.343982786
vn 0.658326864 -0.669538319 -0.343982995
vn -0.6695382 -0.658326626 -0.343983471
vn -0.658326745 -0.66953814 0.343983501
vn -1 0 0
vn -1 0 0
vn -0.658325553 0.669538558 -0.343984663
vn -0.669537961 0.658326328 0.343984663
vn -0 0.891586959 0.452849507
vn 0.617171228 0.634448349 0.465376198
vn 0.397695243 0.40781194 0.821905077
vn 1.09335872E-07 0.718008757 0.696034014
vn 0.718008697 0 0.696034193
vn 0.891586661 0 0.452850044
vn 0.407812178 -0.397694528 0.821905255
vn 0.634448588 -0.617170751 0.465376526
vn -0 0 1
vn -0.407811821 0.397695363 0.821905077
vn -0.634448171 0.617171824 0.465375721
vn -0.407811821 0.397695363 0.821905077
vn -0.718008697 0 0.696034133
vn -0.8915869 1.0744489E-07 0.452849627
vn -0.634448171 0.617171824 0.465375721
vn -0.617171407 -0.63444829 0.465376109
vn -0.397694945 -0.40781185 0.821905255
vn -0 -0.891586661 0.452850044
vn -0 -0.718008578 0.696034253
vn -0 0 1
vn 0.407812178 -0.397694528 0.821905255
vn 0.634448588 -0.617170751 0.465376526
vn -0 -0.138578087 0.990351498
vn 0.481669307 -0.195551798 0.854256511
vn 0.380972981 -0.625902712 0.680518508
vn -0 -0.66815573 0.744021416
vn 0.415199876 -0.84311223 0.341717362
vn 0.839921176 -0.363194138 0.403264761
vn 0.482105613 0.176943079 0.858059049
vn 0.893094242 0.135152042 0.429088086
vn 0.904982924 -0.40839693 0.119238958
vn 0.434330046 -0.898956001 0.05688072
vn -0 -0.933549643 0.358448267
vn -0 -0.999147117 0.0412916541
vn 0.984783173 0.125539154 0.120175108
vn 0.427607536 0.416342884 0.802377999
vn -0 0.414370835 0.910108089
vn 0.373235524 0.604181707 0.70403105
vn 0.458328754 0.78640306 0.414131671
vn -0 0.889776707 0.456396103
vn -0 0.649534285 0.760332286
vn 0.784332633 0.47285524 0.401534885
vn 0.5090307 0.857092977 0.0792420581
vn 0.869679213 0.482123524 0.105900683
vn -0 0.202525303 0.979277015
vn -0.458328813 0.78640306 0.414131612
vn -0.373235554 0.604181767 0.70403105
vn -0.509030759 0.857092977 0.0792420357
vn -0 0.997442007 0.071480073
vn -0.427607596 0.416342825 0.802377999
vn -0.482105732 0.176942989 0.858058989
vn -0.481669307 -0.195551828 0.854256511
vn -0.380973071 -0.625902712 0.680518508
vn -0.415199876 -0.84311223 0.341717362
vn -0.434330046 -0.898956001 0.0568807051
vn -0.893094301 0.135152012 0.429087967
vn -0.784332633 0.472855181 0.401535004
vn -0.984783173 0.125539154 0.120175093
vn -0.904982924 -0.40839693 0.119238921
vn -0.839921236 -0.363194048 0.403264612
vn -0.869679272 0.482123524 0.10590063
vn -0 -0.384640932 -0.923066258
vn 0.433525741 -0.372264117 -0.820655167
vn 0.471328855 -0.0381327979 -0.881132782
vn -0 -0.0904276893 -0.995903015
vn 0.961939096 0.10836111 -0.250860542
vn 0.898497403 -0.387751698 -0.205793738
vn 0.449112236 0.272528529 -0.850897372
vn 0.859271228 0.446944088 -0.248784959
vn 0.495680183 0.809120536 -0.31563431
vn 0.401930392 0.596626997 -0.694613636
vn -0 0.24563624 -0.96936208
vn -0 0.638966501 -0.769234478
vn 0.869679213 0.482123524 0.105900683
vn 0.5090307 0.857092977 0.0792420581
vn -0 0.927223325 -0.374508858
vn -0 0.997442007 0.071480073
vn 0.429882079 -0.868503988 -0.246783659
vn 0.349906027 -0.696660221 -0.626282871
vn -0 -0.959020972 -0.28333506
vn -0 -0.733769536 -0.679398537
vn 0.904982924 -0.40839693 0.119238958
vn 0.434330046 -0.898956001 0.05688072
vn -0 -0.999147117 0.0412916541
vn 0.984783173 0.125539154 0.120175108
vn -0 -0.0904276893 -0.995903015
vn -0.471328914 -0.0381328389 -0.881132782
vn -0.433525801 -0.372264087 -0.820655107
vn -0 -0.384640932 -0.923066258
vn -0.349906027 -0.696660221 -0.626282871
vn -0 -0.733769536 -0.679398537
vn -0.449112236 0.272528529 -0.850897372
vn -0 0.24563624 -0.96936208
vn -0 0.638966501 -0.769234478
vn -0.401930422 0.596626937 -0.694613755
vn -0.495680243 0.809120536 -0.31563431
vn -0 0.927223325 -0.374508858
vn -0.509030759 0.857092977 0.0792420357
vn -0 0.997442007 0.071480073
vn -0 -0.959020972 -0.28333506
vn -0.429882139 -0.868503988 -0.246783659
vn -0 -0.999147117 0.0412916541
vn -0.434330046 -0.898956001 0.0568807051
vn -0.904982924 -0.40839693 0.119238921
vn -0.898497403 -0.387751698 -0.205793664
vn -0.984783173 0.125539154 0.120175093
vn -0.961939096 0.108361103 -0.250860542
vn -0.869679272 0.482123524 0.10590063
vn -0.859271288 0.446944088 -0.24878493
vn 0.668250918 0.742863655 0.0399294831
vn -0.106173344 0.994247735 0.0140954629
vn -0.109104104 0.874972105 -0.471720397
vn 0.633825362 0.639387488 -0.435257524
vn -0.543213248 0.292573839 -0.786968827
vn -0.799130201 0.45134303 0.397089988
vn -0.897416294 0.240450844 0.369901747
vn -0.468425453 -0.0682157725 -0.880865574
vn 0.904402554 -0.0992387682 -0.414979219
vn 0.98605144 -0.131612778 0.101885408
vn 0.466548473 -0.786634505 0.404399097
vn 0.303027809 -0.534948468 -0.788672447
vn 0.238875687 -0.878388703 0.41397059
vn -0.0491095297 -0.483697295 -0.873856544
vn 0.303027809 -0.534948468 -0.788672447
vn -0.0826876983 -0.0871469602 -0.992757857
vn -0.0491095297 -0.483697295 -0.873856544
vn -0.468425453 -0.0682157725 -0.880865574
vn -0.543213248 0.292573839 -0.786968827
vn -0.109104104 0.874972105 -0.471720397
vn 0.633825362 0.639387488 -0.435257524
vn 0.904402554 -0.0992387682 -0.414979219
vn 0.328790605 0.326546073 0.886151433
vn -0.0267232955 0.255393416 0.966467857
vn -0.106173344 0.994247735 0.0140954629
vn 0.668250918 0.742863655 0.0399294831
vn -0.799130201 0.45134303 0.397089988
vn -0.0892351195 0.0484103747 0.99483341
vn -0.897416294 0.240450844 0.369901747
vn -0.0716604739 0.0192012992 0.997244239
vn 0.0228235442 -0.0847399905 0.996141672
vn 0.0530961193 -0.0864613876 0.994839311
vn 0.466548473 -0.786634505 0.404399097
vn 0.238875687 -0.878388703 0.41397059
vn 0.98605144 -0.131612778 0.101885408
vn 0.256666124 -0.0263217445 0.966141641
vn 0.801579475 0.528695345 0.27919811
vn 0.885641694 -0.308653653 0.346946329
vn 0.496779978 -0.283693701 0.820199728
vn 0.497039109 0.396144956 0.772024155
vn 0.29305473 0.806946099 0.512793243
vn -0 0.955841959 0.293881148
vn 1.23696481E-07 0.359934986 0.932977378
vn 0.277977049 -0.694922864 0.663182497
vn 1.41216233E-07 -0.260700583 0.96541971
vn -0 -0.940211773 0.340590388
vn -0.29305473 0.806946099 0.512793183
vn -0.49703902 0.396144867 0.772024214
vn -0.496779889 -0.283693671 0.820199728
vn -0.801579475 0.528695345 0.27919814
vn -0.885641634 -0.308653742 0.346946329
vn -0.277977049 -0.694922924 0.663182437
vn 0.593810558 0.779546022 -0.199241102
vn -0 0.996029913 -0.0890195817
vn -2.55667601E-07 0.471016288 -0.882124484
vn 0.836693168 0.257962257 -0.483114839
vn -0 0.886064291 0.463562399
vn 0.707106531 0.623756588 0.333058596
vn -0 0.4801054 0.877210796
vn 0.593810558 0.268084645 0.758630157
vn -0 -0.471015513 0.882124901
vn 0.83669281 -0.257962465 0.483115375
vn 1 0 2.93651368E-07
vn -0 -0.480105907 -0.877210557
vn 0.593811095 -0.268085092 -0.758629501
vn -2.55667601E-07 0.471016288 -0.882124484
vn 0.836693168 0.257962257 -0.483114839
vn 1 0 2.93651368E-07
vn 0.707106888 -0.623756349 -0.333058417
vn 0.83669281 -0.257962465 0.483115375
vn 0.593810797 -0.779545844 0.199240983
vn -0 -0.996029913 0.0890190154
vn -0 -0.886064649 -0.463561684
vn -0 -0.471015513 0.882124901
vn -0.836693168 0.257962257 -0.483114839
vn -2.55667601E-07 0.471016288 -0.882124484
vn -0.593810558 0.779546022 -0.19924131
vn -0 0.996029913 -0.0890195817
vn -1 0 2.46032215E-07
vn -0.707106471 0.623756707 0.333058596
vn -0.83669275 -0.257962525 0.483115435
vn -0.59381038 0.268084615 0.758630216
vn -0 -0.471015513 0.882124901
vn -0 0.4801054 0.877210796
vn -0 0.886064291 0.463562399
vn -2.55667601E-07 0.471016288 -0.882124484
vn -0.593811095 -0.268085092 -0.758629501
vn -0 -0.480105907 -0.877210557
vn -0.836693168 0.257962257 -0.483114839
vn -0.707106829 -0.623756349 -0.333058357
vn -0 -0.886064649 -0.463561684
vn -0 -0.996029913 0.0890190154
vn -0.593810797 -0.779545844 0.199240938
vn -0 -0.471015513 0.882124901
vn -0.83669275 -0.257962525 0.483115435
vn -1 0 2.46032215E-07
vn -0.0022572556 0.991789162 -0.127863646
vn -0.00477748225 0.977006793 0.213154629
vn -0.492640376 0.843723953 0.213155642
vn -0.496427 0.854345918 -0.153796345
vn -0.977006733 -0.00477768295 0.213154912
vn -0.982502043 0 -0.186251685
vn -0.484365106 -0.848501742 0.213155419
vn -0.496427178 -0.854345858 -0.153796285
vn 0.00477719447 -0.977006912 0.213154227
vn -0.00225769728 -0.991789162 -0.127863616
vn -0.795318782 0 -0.606191456
vn -0.46690622 0.62451154 -0.626086116
vn -0.466906071 -0.624511659 -0.626086175
vn -0.120974764 -0.787438512 -0.604405224
vn -0.120975047 0.787438273 -0.604405522
vn -0.31491828 0 -0.949118793
vn 0.307868302 -0.763524592 -0.567668259
vn 0.893922091 0 -0.448222339
vn 0.307868302 0.763524771 -0.56766808
vn 0.498144805 0.861101985 -0.10176035
vn 0.484366447 0.848501265 0.213154256
vn -0.00477748225 0.977006793 0.213154629
vn -0.0022572556 0.991789162 -0.127863646
vn 0.996919751 0 -0.0784283206
vn 0.977006972 0.00477734255 0.213153943
vn 0.49814415 -0.861102343 -0.101760298
vn 0.492640704 -0.843724251 0.213153869
vn -0.00225769728 -0.991789162 -0.127863616
vn 0.00477719447 -0.977006912 0.213154227
vn -0.120974764 -0.787438512 -0.604405224
vn 0.307868302 -0.763524592 -0.567668259
vn 0.893922091 0 -0.448222339
vn 0.307868302 0.763524771 -0.56766808
vn -0.120975047 0.787438273 -0.604405522
vn -0.94136703 -0.0012272771 0.337382048
vn -0.485460997 -0.830754995 0.272348613
vn -0.482206255 -0.84799099 -0.219973952
vn -0.975484729 -0.00639280817 -0.219974265
vn -2.24045266E-07 -0.97144258 0.23727493
vn 0.00639187032 -0.975484848 -0.219973728
vn -0.586360514 0.763164282 0.271590739
vn -0.457369745 0.604621947 -0.652108371
vn 5.96501707E-07 0.651437342 -0.758702397
vn -0 0.971441686 0.237278447
vn 0.485460699 -0.830754995 0.272349089
vn 0.493277907 -0.841598749 -0.219973683
vn 0.00639187032 -0.975484848 -0.219973728
vn -2.24045266E-07 -0.97144258 0.23727493
vn 0.975504875 0 -0.21997799
vn 0.94136703 -0.0012272445 0.337382048
vn 0.457370669 0.60462147 -0.652108073
vn 0.586360812 0.763164163 0.27159062
vn -0 0.971441686 0.237278447
vn 5.96501707E-07 0.651437342 -0.758702397
vn -0.221844345 0.281318903 0.933619142
vn -0.248277023 0.0016885238 0.968687594
vn -0.94136703 -0.0012272771 0.337382048
vn -0.586360514 0.763164282 0.271590739
vn -0 0.971441686 0.237278447
vn -0 0.64498812 0.764192641
vn 0.289632022 0.367281765 0.883865058
vn 0.586360812 0.763164163 0.27159062
vn 0.94136703 -0.0012272445 0.337382048
vn 0.268308133 0.00182473054 0.963331401
vn 0.485460699 -0.830754995 0.272349089
vn 0.251223743 -0.429280013 0.86752826
vn -2.24045266E-07 -0.97144258 0.23727493
vn -0 -0.674575388 0.738205969
vn -0.194442198 -0.332251996 0.922930598
vn -0.485460997 -0.830754995 0.272348613
vn 0.042394992 0.969037652 -0.243246138
vn 0.682668746 0.682668805 -0.260627389
vn 0.707099378 0.70709914 0.00461157644
vn 0.0257775113 0.998929262 0.0384164304
vn 0.70710665 0.707106948 0
vn 0.0418347344 0.995165944 0.088851437
vn -0.690112233 0.699110806 0.187053889
vn -0.703579783 0.705858588 0.0820924044
vn -0.976043403 0.0807049796 0.202054501
vn -0.893008351 0.121609159 0.43329823
vn -0.667356789 -0.667356491 0.330560535
vn -0.674865544 -0.674865365 -0.29851836
vn -0.964040399 0.126585528 -0.233671159
vn -0.526703417 -0.52670294 0.667208791
vn -0.682876945 0.682917833 -0.259426922
vn 0.682668746 0.682668805 -0.260627389
vn 0.969037652 0.042395059 -0.243246138
vn 0.998929262 0.0257775728 0.0384164378
vn 0.707099378 0.70709914 0.00461157644
vn 0.995165944 0.0418350846 0.0888514072
vn 0.699110985 -0.690112233 0.187053576
vn 0.705858588 -0.703579783 0.082092233
vn 0.70710665 0.707106948 0
vn 0.121609025 -0.893008351 0.433298111
vn 0.0807049274 -0.976043403 0.202054396
vn 0.682917655 -0.682877243 -0.259426534
vn 0.126585454 -0.964040399 -0.233671248
vn -0.667356789 -0.667356491 0.330560535
vn -0.674865544 -0.674865365 -0.29851836
vn -0.526703417 -0.52670294 0.667208791
vn 0.119198263 0.00435385061 -0.992860913
vn 0.17375657 0.173757166 -0.969338477
vn 0.00435445504 0.119197682 -0.992860973
vn 0.682668746 0.682668805 -0.260627389
vn 0.969037652 0.042395059 -0.243246138
vn 0.042394992 0.969037652 -0.243246138
vn 0.0568856373 -0.0614153147 -0.996489942
vn 0.682917655 -0.682877243 -0.259426534
vn 0.0176705569 -0.110325933 -0.993738353
vn -0.110326216 0.0176705103 -0.993738353
vn -0.163977847 -0.163977847 -0.972739697
vn -0.674865544 -0.674865365 -0.29851836
vn -0.964040399 0.126585528 -0.233671159
vn -0.0623364411 0.05773874 -0.996383667
vn -0.682876945 0.682917833 -0.259426922
vn 0.126585454 -0.964040399 -0.233671248
vn -0.669538677 -0.658326447 0.343982935
vn -0.658326805 -0.66953826 -0.343983114
vn -1 1.82925518E-07 0
vn -1 1.82925518E-07 0
vn -0.669538379 0.658326387 -0.343983531
vn -0.658326507 0.6695382 0.34398368
vn -1.26640757E-07 1 0
vn -1.26640757E-07 1 0
vn 0.658325672 0.669538677 -0.343984455
vn 0.669537783 0.658326387 0.343984663
vn -0 -1 0
vn -0 -1 0
vn -0.658326805 -0.66953826 -0.343983114
vn -0.669538677 -0.658326447 0.343982935
vn 0.658326745 -0.6695382 0.343983412
vn 0.66953814 -0.658326745 -0.343983501
vn 1 0 0
vn 1 0 0
vn 0.669537783 0.658326387 0.343984663
vn 0.658325672 0.669538677 -0.343984455
vn -1.36748042E-07 0.8915869 0.452849686
vn 0.634448111 0.617171764 0.465375751
vn 0.407811821 0.397695363 0.821905077
vn -1.53070204E-07 0.718008697 0.696034133
vn -0 0 1
vn -0.397695243 0.40781194 0.821905077
vn -0.718008697 0 0.696034193
vn -0.407812178 -0.397694528 0.821905255
vn -0.634448588 -0.617170751 0.465376437
vn -0.891586721 0 0.452850014
vn -0.617171288 0.634448349 0.465376079
vn 0.634448111 0.617171764 0.465375751
vn 0.89158684 1.07444883E-07 0.452849716
vn 0.718008637 0 0.696034253
vn 0.407811821 0.397695363 0.821905077
vn -0 0 1
vn 0.397694945 -0.40781191 0.821905255
vn -0 -0.718008578 0.696034253
vn 0.617171288 -0.634448171 0.465376288
vn -0 -0.891586661 0.452850044
vn -0.407812178 -0.397694528 0.821905255
vn -0.634448588 -0.617170751 0.465376437
vn -0.668250918 0.742863655 0.0399294831
vn -0.98605144 -0.131612808 0.101885483
vn -0.904402554 -0.099238798 -0.41497916
vn -0.633825362 0.639387429 -0.435257614
vn -0.466548771 -0.786634624 0.40439859
vn -0.303027749 -0.534948468 -0.788672507
vn -0.238875881 -0.878388643 0.41397059
vn 0.049109567 -0.483697265 -0.873856485
vn 0.106173292 0.994247735 0.0140955122
vn 0.109104075 0.874972105 -0.471720338
vn 0.799130201 0.45134303 0.397089928
vn 0.543213308 0.292573869 -0.786968768
vn 0.897416294 0.240450844 0.369901836
vn 0.468425333 -0.0682157949 -0.880865693
vn -0.303027749 -0.534948468 -0.788672507
vn 0.049109567 -0.483697265 -0.873856485
vn 0.0826877877 -0.0871469304 -0.992757857
vn 0.468425333 -0.0682157949 -0.880865693
vn 0.543213308 0.292573869 -0.786968768
vn 0.109104075 0.874972105 -0.471720338
vn -0.633825362 0.639387429 -0.435257614
vn -0.904402554 -0.099238798 -0.41497916
vn -0.328790843 0.326546133 0.886151373
vn -0.256666273 -0.0263217427 0.966141582
vn -0.98605144 -0.131612808 0.101885483
vn -0.668250918 0.742863655 0.0399294831
vn -0.0530959181 -0.0864614248 0.994839311
vn -0.466548771 -0.786634624 0.40439859
vn -0.0228236523 -0.0847400799 0.996141672
vn -0.238875881 -0.878388643 0.41397059
vn 0.0716605037 0.0192013253 0.997244239
vn 0.0892353356 0.0484104045 0.99483335
vn 0.897416294 0.240450844 0.369901836
vn 0.799130201 0.45134303 0.397089928
vn 0.0267230943 0.255393445 0.966467857
vn 0.106173292 0.994247735 0.0140955122
g wp_010_023_201_Mesh_0
f 3/3/3 2/2/2 1/1/1
f 4/4/4 3/3/3 1/1/1
f 1/1/1 2/2/2 5/5/5
f 1/1/1 6/6/6 4/4/4
f 6/6/6 7/7/7 4/4/4
f 8/8/8 7/7/7 6/6/6
f 9/9/9 8/8/8 6/6/6
f 6/6/6 10/10/10 9/9/9
f 10/10/10 6/6/6 1/1/1
f 5/5/5 10/10/10 1/1/1
f 11/11/11 10/10/10 5/5/5
f 10/10/10 11/11/11 12/12/12
f 11/11/11 13/13/13 12/12/12
f 12/12/12 13/13/13 14/14/14
f 13/13/13 15/15/15 14/14/14
f 16/16/16 11/11/11 5/5/5
f 17/17/17 11/11/11 16/16/16
f 18/18/18 11/11/11 17/17/17
f 18/18/18 17/17/17 19/19/19
f 20/20/20 17/17/17 16/16/16
f 20/20/20 16/16/16 21/21/21
f 21/21/21 22/22/22 20/20/20
f 23/23/23 16/16/16 5/5/5
f 24/24/24 23/23/23 5/5/5
f 25/25/25 23/23/23 24/24/24
f 26/26/26 25/25/25 24/24/24
f 29/29/29 28/28/28 27/27/27
f 30/30/30 29/29/29 27/27/27
f 28/28/28 29/29/29 31/31/31
f 30/30/30 32/32/32 29/29/29
f 32/32/32 33/33/33 29/29/29
f 31/31/31 29/29/29 33/33/33
f 33/33/33 32/32/32 34/34/34
f 35/35/35 33/33/33 34/34/34
f 35/35/35 36/36/36 33/33/33
f 36/36/36 31/31/31 33/33/33
f 37/37/37 31/31/31 36/36/36
f 31/31/31 37/37/37 38/38/38
f 37/37/37 39/39/39 38/38/38
f 38/38/38 39/39/39 40/40/40
f 41/41/41 38/38/38 40/40/40
f 42/42/42 37/37/37 36/36/36
f 37/37/37 42/42/42 43/43/43
f 43/43/43 42/42/42 44/44/44
f 43/43/43 44/44/44 45/45/45
f 46/46/46 37/37/37 43/43/43
f 37/37/37 46/46/46 47/47/47
f 47/47/47 46/46/46 48/48/48
f 49/49/49 42/42/42 36/36/36
f 50/50/50 49/49/49 36/36/36
f 51/51/51 49/49/49 50/50/50
f 52/52/52 51/51/51 50/50/50
f 55/55/55 54/54/54 53/53/53
f 56/56/56 55/55/55 53/53/53
f 57/57/57 53/53/53 54/54/54
f 58/58/58 57/57/57 54/54/54
f 57/57/57 58/58/58 59/59/59
f 58/58/58 60/60/60 59/59/59
f 59/59/59 60/60/60 61/61/61
f 60/60/60 62/62/62 61/61/61
f 63/63/63 53/53/53 57/57/57
f 53/53/53 63/63/63 56/56/56
f 64/64/64 63/63/63 57/57/57
f 57/57/57 59/59/59 64/64/64
f 59/59/59 65/65/65 64/64/64
f 59/59/59 61/61/61 65/65/65
f 61/61/61 66/66/66 65/65/65
f 63/63/63 67/67/67 56/56/56
f 68/68/68 65/65/65 66/66/66
f 68/68/68 64/64/64 65/65/65
f 68/68/68 63/63/63 64/64/64
f 68/68/68 67/67/67 63/63/63
f 69/69/69 68/68/68 66/66/66
f 69/69/69 70/70/70 68/68/68
f 68/68/68 71/71/71 67/67/67
f 68/68/68 70/70/70 71/71/71
f 74/74/74 73/73/73 72/72/72
f 75/75/75 74/74/74 72/72/72
f 76/76/76 74/74/74 75/75/75
f 77/77/77 76/76/76 75/75/75
f 78/78/78 76/76/76 77/77/77
f 79/79/79 78/78/78 77/77/77
f 80/80/80 78/78/78 79/79/79
f 81/81/81 80/80/80 79/79/79
f 81/81/81 79/79/79 82/82/82
f 79/79/79 83/83/83 82/82/82
f 79/79/79 77/77/77 83/83/83
f 77/77/77 84/84/84 83/83/83
f 77/77/77 75/75/75 84/84/84
f 75/75/75 85/85/85 84/84/84
f 86/86/86 85/85/85 75/75/75
f 72/72/72 86/86/86 75/75/75
f 89/89/89 88/88/88 87/87/87
f 90/90/90 89/89/89 87/87/87
f 91/91/91 88/88/88 89/89/89
f 92/92/92 91/91/91 89/89/89
f 90/90/90 87/87/87 93/93/93
f 94/94/94 90/90/90 93/93/93
f 94/94/94 93/93/93 95/95/95
f 93/93/93 96/96/96 95/95/95
f 99/99/99 98/98/98 97/97/97
f 100/100/100 99/99/99 97/97/97
f 100/100/100 101/101/101 99/99/99
f 101/101/101 102/102/102 99/99/99
f 101/101/101 103/103/103 102/102/102
f 103/103/103 104/104/104 102/102/102
f 105/105/105 104/104/104 103/103/103
f 106/106/106 105/105/105 103/103/103
f 109/109/109 108/108/108 107/107/107
f 110/110/110 109/109/109 107/107/107
f 109/109/109 110/110/110 111/111/111
f 112/112/112 109/109/109 111/111/111
f 112/112/112 111/111/111 113/113/113
f 113/113/113 109/109/109 112/112/112
f 109/109/109 113/113/113 108/108/108
f 111/111/111 114/114/114 113/113/113
f 114/114/114 115/115/115 113/113/113
f 115/115/115 116/116/116 113/113/113
f 113/113/113 116/116/116 108/108/108
f 115/115/115 117/117/117 116/116/116
f 117/117/117 118/118/118 116/116/116
f 118/118/118 117/117/117 119/119/119
f 120/120/120 118/118/118 119/119/119
f 120/120/120 119/119/119 121/121/121
f 107/107/107 108/108/108 121/121/121
f 116/116/116 118/118/118 121/121/121
f 108/108/108 116/116/116 121/121/121
f 118/118/118 120/120/120 121/121/121
f 119/119/119 122/122/122 121/121/121
f 122/122/122 107/107/107 121/121/121
f 125/125/125 124/124/124 123/123/123
f 126/126/126 125/125/125 123/123/123
f 124/124/124 125/125/125 127/127/127
f 128/128/128 124/124/124 127/127/127
f 128/128/128 127/127/127 129/129/129
f 130/130/130 128/128/128 129/129/129
f 125/125/125 126/126/126 131/131/131
f 125/125/125 131/131/131 127/127/127
f 126/126/126 132/132/132 131/131/131
f 131/131/131 133/133/133 127/127/127
f 127/127/127 133/133/133 129/129/129
f 134/134/134 132/132/132 126/126/126
f 135/135/135 134/134/134 126/126/126
f 133/133/133 136/136/136 129/129/129
f 137/137/137 135/135/135 126/126/126
f 123/123/123 137/137/137 126/126/126
f 140/140/140 139/139/139 138/138/138
f 141/141/141 140/140/140 138/138/138
f 140/140/140 142/142/142 139/139/139
f 142/142/142 143/143/143 139/139/139
f 142/142/142 144/144/144 143/143/143
f 144/144/144 145/145/145 143/143/143
f 145/145/145 146/146/146 143/143/143
f 147/147/147 146/146/146 145/145/145
f 148/148/148 147/147/147 145/145/145
f 146/146/146 149/149/149 143/143/143
f 143/143/143 149/149/149 139/139/139
f 149/149/149 150/150/150 139/139/139
f 139/139/139 150/150/150 138/138/138
f 151/151/151 148/148/148 145/145/145
f 144/144/144 151/151/151 145/145/145
f 150/150/150 152/152/152 138/138/138
f 155/155/155 154/154/154 153/153/153
f 156/156/156 155/155/155 153/153/153
f 156/156/156 157/157/157 155/155/155
f 158/158/158 157/157/157 156/156/156
f 159/159/159 158/158/158 156/156/156
f 153/153/153 159/159/159 156/156/156
f 159/159/159 153/153/153 160/160/160
f 158/158/158 159/159/159 160/160/160
f 157/157/157 161/161/161 155/155/155
f 161/161/161 162/162/162 155/155/155
f 162/162/162 163/163/163 155/155/155
f 164/164/164 160/160/160 153/153/153
f 154/154/154 164/164/164 153/153/153
f 164/164/164 154/154/154 165/165/165
f 165/165/165 154/154/154 155/155/155
f 163/163/163 165/165/165 155/155/155
f 166/166/166 164/164/164 165/165/165
f 166/166/166 165/165/165 167/167/167
f 165/165/165 163/163/163 167/167/167
f 168/168/168 166/166/166 167/167/167
f 168/168/168 167/167/167 163/163/163
f 162/162/162 168/168/168 163/163/163
f 171/171/171 170/170/170 169/169/169
f 172/172/172 171/171/171 169/169/169
f 173/173/173 169/169/169 170/170/170
f 174/174/174 173/173/173 170/170/170
f 175/175/175 173/173/173 174/174/174
f 176/176/176 175/175/175 174/174/174
f 171/171/171 172/172/172 177/177/177
f 172/172/172 178/178/178 177/177/177
f 181/181/181 180/180/180 179/179/179
f 182/182/182 181/181/181 179/179/179
f 179/179/179 180/180/180 183/183/183
f 180/180/180 184/184/184 183/183/183
f 183/183/183 184/184/184 185/185/185
f 184/184/184 186/186/186 185/185/185
f 185/185/185 186/186/186 187/187/187
f 186/186/186 188/188/188 187/187/187
f 191/191/191 190/190/190 189/189/189
f 192/192/192 191/191/191 189/189/189
f 190/190/190 191/191/191 193/193/193
f 194/194/194 190/190/190 193/193/193
f 194/194/194 193/193/193 195/195/195
f 196/196/196 194/194/194 195/195/195
f 192/192/192 197/197/197 191/191/191
f 193/193/193 197/197/197 195/195/195
f 193/193/193 191/191/191 197/197/197
f 192/192/192 198/198/198 197/197/197
f 199/199/199 198/198/198 192/192/192
f 189/189/189 199/199/199 192/192/192
f 202/202/202 201/201/201 200/200/200
f 203/203/203 202/202/202 200/200/200
f 202/202/202 204/204/204 201/201/201
f 204/204/204 205/205/205 201/201/201
f 204/204/204 206/206/206 205/205/205
f 206/206/206 207/207/207 205/205/205
f 201/201/201 208/208/208 200/200/200
f 201/201/201 205/205/205 208/208/208
f 207/207/207 208/208/208 205/205/205
f 207/207/207 209/209/209 208/208/208
f 210/210/210 209/209/209 207/207/207
f 206/206/206 210/210/210 207/207/207
f 213/213/213 212/212/212 211/211/211
f 214/214/214 213/213/213 211/211/211
f 212/212/212 213/213/213 215/215/215
f 216/216/216 212/212/212 215/215/215
f 212/212/212 216/216/216 217/217/217
f 212/212/212 217/217/217 211/211/211
f 216/216/216 218/218/218 217/217/217
f 219/219/219 216/216/216 215/215/215
f 216/216/216 219/219/219 218/218/218
f 220/220/220 219/219/219 215/215/215
f 220/220/220 215/215/215 221/221/221
f 213/213/213 214/214/214 221/221/221
f 215/215/215 213/213/213 221/221/221
f 222/222/222 220/220/220 221/221/221
f 219/219/219 223/223/223 218/218/218
f 217/217/217 218/218/218 224/224/224
f 217/217/217 224/224/224 225/225/225
f 225/225/225 224/224/224 226/226/226
f 227/227/227 226/226/226 224/224/224
f 226/226/226 227/227/227 228/228/228
f 229/229/229 226/226/226 228/228/228
f 229/229/229 225/225/225 226/226/226
f 230/230/230 227/227/227 224/224/224
f 218/218/218 230/230/230 224/224/224
f 218/218/218 223/223/223 230/230/230
f 227/227/227 230/230/230 231/231/231
f 227/227/227 231/231/231 228/228/228
f 230/230/230 232/232/232 231/231/231
f 223/223/223 232/232/232 230/230/230
f 233/233/233 217/217/217 225/225/225
f 228/228/228 234/234/234 229/229/229
f 234/234/234 235/235/235 229/229/229
f 229/229/229 235/235/235 225/225/225
f 234/234/234 228/228/228 236/236/236
f 228/228/228 237/237/237 236/236/236
f 231/231/231 237/237/237 228/228/228
f 235/235/235 238/238/238 225/225/225
f 225/225/225 238/238/238 239/239/239
f 233/233/233 225/225/225 239/239/239
f 211/211/211 233/233/233 239/239/239
f 240/240/240 211/211/211 239/239/239
f 211/211/211 240/240/240 214/214/214
f 240/240/240 241/241/241 214/214/214
f 241/241/241 242/242/242 214/214/214
f 242/242/242 221/221/221 214/214/214
f 221/221/221 242/242/242 222/222/222
f 242/242/242 243/243/243 222/222/222
f 217/217/217 233/233/233 211/211/211
f 239/239/239 238/238/238 244/244/244
f 238/238/238 245/245/245 244/244/244
f 238/238/238 235/235/235 245/245/245
f 244/244/244 245/245/245 246/246/246
f 244/244/244 246/246/246 247/247/247
f 248/248/248 244/244/244 247/247/247
f 239/239/239 244/244/244 248/248/248
f 240/240/240 239/239/239 248/248/248
f 241/241/241 240/240/240 248/248/248
f 242/242/242 241/241/241 248/248/248
f 248/248/248 247/247/247 243/243/243
f 242/242/242 248/248/248 243/243/243
f 245/245/245 249/249/249 246/246/246
f 236/236/236 249/249/249 245/245/245
f 234/234/234 236/236/236 245/245/245
f 235/235/235 234/234/234 245/245/245
f 252/252/252 251/251/251 250/250/250
f 253/253/253 252/252/252 250/250/250
f 252/252/252 254/254/254 251/251/251
f 254/254/254 255/255/255 251/251/251
f 252/252/252 256/256/256 254/254/254
f 256/256/256 257/257/257 254/254/254
f 257/257/257 256/256/256 258/258/258
f 256/256/256 259/259/259 258/258/258
f 259/259/259 256/256/256 260/260/260
f 252/252/252 253/253/253 260/260/260
f 256/256/256 252/252/252 260/260/260
f 261/261/261 259/259/259 260/260/260
f 262/262/262 257/257/257 258/258/258
f 254/254/254 257/257/257 262/262/262
f 263/263/263 262/262/262 258/258/258
f 263/263/263 258/258/258 264/264/264
f 259/259/259 261/261/261 264/264/264
f 258/258/258 259/259/259 264/264/264
f 265/265/265 263/263/263 264/264/264
f 251/251/251 255/255/255 266/266/266
f 267/267/267 251/251/251 266/266/266
f 267/267/267 266/266/266 268/268/268
f 269/269/269 267/267/267 268/268/268
f 266/266/266 255/255/255 270/270/270
f 271/271/271 266/266/266 270/270/270
f 266/266/266 271/271/271 268/268/268
f 271/271/271 272/272/272 268/268/268
f 267/267/267 269/269/269 250/250/250
f 251/251/251 267/267/267 250/250/250
f 270/270/270 255/255/255 273/273/273
f 255/255/255 254/254/254 273/273/273
f 273/273/273 254/254/254 262/262/262
f 276/276/276 275/275/275 274/274/274
f 277/277/277 276/276/276 274/274/274
f 276/276/276 277/277/277 278/278/278
f 277/277/277 279/279/279 278/278/278
f 275/275/275 280/280/280 274/274/274
f 280/280/280 281/281/281 274/274/274
f 281/281/281 280/280/280 282/282/282
f 280/280/280 283/283/283 282/282/282
f 283/283/283 284/284/284 282/282/282
f 284/284/284 285/285/285 282/282/282
f 285/285/285 284/284/284 286/286/286
f 287/287/287 285/285/285 286/286/286
f 279/279/279 288/288/288 278/278/278
f 288/288/288 289/289/289 278/278/278
f 276/276/276 278/278/278 289/289/289
f 289/289/289 288/288/288 290/290/290
f 291/291/291 289/289/289 290/290/290
f 291/291/291 292/292/292 289/289/289
f 292/292/292 293/293/293 289/289/289
f 293/293/293 292/292/292 294/294/294
f 295/295/295 293/293/293 294/294/294
f 295/295/295 294/294/294 296/296/296
f 286/286/286 284/284/284 296/296/296
f 297/297/297 295/295/295 296/296/296
f 284/284/284 283/283/283 297/297/297
f 284/284/284 297/297/297 296/296/296
f 293/293/293 276/276/276 289/289/289
f 293/293/293 295/295/295 275/275/275
f 276/276/276 293/293/293 275/275/275
f 275/275/275 295/295/295 297/297/297
f 280/280/280 275/275/275 297/297/297
f 283/283/283 280/280/280 297/297/297
f 300/300/300 299/299/299 298/298/298
f 301/301/301 300/300/300 298/298/298
f 300/300/300 302/302/302 299/299/299
f 302/302/302 303/303/303 299/299/299
f 304/304/304 303/303/303 302/302/302
f 305/305/305 304/304/304 302/302/302
f 301/301/301 298/298/298 306/306/306
f 298/298/298 307/307/307 306/306/306
f 306/306/306 307/307/307 308/308/308
f 309/309/309 306/306/306 308/308/308
f 309/309/309 308/308/308 310/310/310
f 311/311/311 309/309/309 310/310/310
f 314/314/314 313/313/313 312/312/312
f 314/314/314 315/315/315 313/313/313
f 316/316/316 313/313/313 315/315/315
f 317/317/317 313/313/313 316/316/316
f 318/318/318 313/313/313 317/317/317
f 319/319/319 313/313/313 318/318/318
f 319/319/319 312/312/312 313/313/313
f 322/322/322 321/321/321 320/320/320
f 323/323/323 322/322/322 320/320/320
f 322/322/322 324/324/324 321/321/321
f 324/324/324 325/325/325 321/321/321
f 324/324/324 326/326/326 325/325/325
f 326/326/326 327/327/327 325/325/325
f 327/327/327 328/328/328 325/325/325
f 328/328/328 329/329/329 325/325/325
f 330/330/330 329/329/329 328/328/328
f 331/331/331 330/330/330 328/328/328
f 330/330/330 332/332/332 329/329/329
f 323/323/323 320/320/320 332/332/332
f 332/332/332 333/333/333 329/329/329
f 325/325/325 329/329/329 333/333/333
f 321/321/321 325/325/325 333/333/333
f 320/320/320 333/333/333 332/332/332
f 321/321/321 333/333/333 320/320/320
f 336/336/336 335/335/335 334/334/334
f 337/337/337 336/336/336 334/334/334
f 337/337/337 334/334/334 338/338/338
f 337/337/337 338/338/338 339/339/339
f 340/340/340 337/337/337 339/339/339
f 336/336/336 337/337/337 340/340/340
f 336/336/336 341/341/341 335/335/335
f 341/341/341 336/336/336 342/342/342
f 342/342/342 336/336/336 340/340/340
f 343/343/343 341/341/341 342/342/342
f 340/340/340 339/339/339 344/344/344
f 345/345/345 340/340/340 344/344/344
f 342/342/342 340/340/340 345/345/345
f 343/343/343 342/342/342 346/346/346
f 346/346/346 342/342/342 345/345/345
f 346/346/346 345/345/345 347/347/347
f 345/345/345 344/344/344 347/347/347
f 348/348/348 346/346/346 347/347/347
f 348/348/348 349/349/349 346/346/346
f 349/349/349 343/343/343 346/346/346
f 352/352/352 351/351/351 350/350/350
f 350/350/350 353/353/353 352/352/352
f 350/350/350 351/351/351 354/354/354
f 355/355/355 350/350/350 354/354/354
f 350/350/350 355/355/355 353/353/353
f 355/355/355 354/354/354 356/356/356
f 357/357/357 355/355/355 356/356/356
f 357/357/357 356/356/356 358/358/358
f 357/357/357 358/358/358 359/359/359
f 357/357/357 359/359/359 360/360/360
f 355/355/355 357/357/357 360/360/360
f 355/355/355 360/360/360 353/353/353
f 363/363/363 362/362/362 361/361/361
f 362/362/362 363/363/363 364/364/364
f 362/362/362 364/364/364 365/365/365
f 366/366/366 362/362/362 365/365/365
f 366/366/366 365/365/365 367/367/367
f 368/368/368 366/366/366 367/367/367
f 366/366/366 368/368/368 369/369/369
f 370/370/370 366/366/366 369/369/369
f 362/362/362 366/366/366 370/370/370
f 361/361/361 362/362/362 370/370/370
f 368/368/368 367/367/367 371/371/371
f 369/369/369 368/368/368 371/371/371
f 374/374/374 373/373/373 372/372/372
f 374/374/374 375/375/375 373/373/373
f 374/374/374 372/372/372 376/376/376
f 377/377/377 374/374/374 376/376/376
f 374/374/374 377/377/377 375/375/375
f 377/377/377 376/376/376 378/378/378
f 379/379/379 377/377/377 378/378/378
f 379/379/379 378/378/378 380/380/380
f 379/379/379 380/380/380 381/381/381
f 379/379/379 381/381/381 382/382/382
f 377/377/377 379/379/379 382/382/382
f 377/377/377 382/382/382 375/375/375
f 385/385/385 384/384/384 383/383/383
f 384/384/384 386/386/386 383/383/383
f 387/387/387 384/384/384 385/385/385
f 384/384/384 387/387/387 386/386/386
f 388/388/388 387/387/387 385/385/385
f 388/388/388 389/389/389 387/387/387
f 389/389/389 390/390/390 387/387/387
f 391/391/391 390/390/390 389/389/389
f 390/390/390 391/391/391 392/392/392
f 390/390/390 392/392/392 393/393/393
f 387/387/387 390/390/390 393/393/393
f 387/387/387 393/393/393 386/386/386
f 396/396/396 395/395/395 394/394/394
f 397/397/397 396/396/396 394/394/394
f 398/398/398 396/396/396 397/397/397
f 399/399/399 398/398/398 397/397/397
f 398/398/398 399/399/399 400/400/400
f 399/399/399 401/401/401 400/400/400
f 402/402/402 400/400/400 401/401/401
f 403/403/403 402/402/402 401/401/401
f 399/399/399 397/397/397 404/404/404
f 397/397/397 405/405/405 404/404/404
f 405/405/405 397/397/397 394/394/394
f 406/406/406 401/401/401 399/399/399
f 404/404/404 406/406/406 399/399/399
f 401/401/401 406/406/406 403/403/403
f 406/406/406 407/407/407 403/403/403
f 408/408/408 405/405/405 394/394/394
f 406/406/406 409/409/409 407/407/407
f 406/406/406 404/404/404 409/409/409
f 405/405/405 409/409/409 404/404/404
f 405/405/405 408/408/408 409/409/409
f 409/409/409 410/410/410 407/407/407
f 409/409/409 411/411/411 410/410/410
f 412/412/412 409/409/409 408/408/408
f 412/412/412 411/411/411 409/409/409
f 415/415/415 414/414/414 413/413/413
f 416/416/416 415/415/415 413/413/413
f 417/417/417 413/413/413 414/414/414
f 418/418/418 417/417/417 414/414/414
f 419/419/419 417/417/417 418/418/418
f 420/420/420 419/419/419 418/418/418
f 419/419/419 420/420/420 421/421/421
f 420/420/420 422/422/422 421/421/421
f 421/421/421 423/423/423 419/419/419
f 423/423/423 424/424/424 419/419/419
f 425/425/425 417/417/417 419/419/419
f 424/424/424 425/425/425 419/419/419
f 426/426/426 413/413/413 417/417/417
f 425/425/425 426/426/426 417/417/417
f 427/427/427 416/416/416 413/413/413
f 426/426/426 427/427/427 413/413/413
f 430/430/430 429/429/429 428/428/428
f 431/431/431 430/430/430 428/428/428
f 429/429/429 430/430/430 432/432/432
f 430/430/430 433/433/433 432/432/432
f 431/431/431 428/428/428 434/434/434
f 435/435/435 431/431/431 434/434/434
f 436/436/436 435/435/435 434/434/434
f 437/437/437 436/436/436 434/434/434
f 440/440/440 439/439/439 438/438/438
f 441/441/441 440/440/440 438/438/438
f 439/439/439 442/442/442 438/438/438
f 442/442/442 443/443/443 438/438/438
f 442/442/442 444/444/444 443/443/443
f 444/444/444 445/445/445 443/443/443
f 445/445/445 444/444/444 446/446/446
f 444/444/444 447/447/447 446/446/446
f 450/450/450 449/449/449 448/448/448
f 451/451/451 450/450/450 448/448/448
f 452/452/452 451/451/451 448/448/448
f 453/453/453 452/452/452 448/448/448
f 452/452/452 453/453/453 454/454/454
f 448/448/448 454/454/454 453/453/453
f 455/455/455 452/452/452 454/454/454
f 455/455/455 454/454/454 456/456/456
f 454/454/454 457/457/457 456/456/456
f 448/448/448 449/449/449 457/457/457
f 454/454/454 448/448/448 457/457/457
f 456/456/456 457/457/457 458/458/458
f 457/457/457 459/459/459 458/458/458
f 457/457/457 449/449/449 459/459/459
f 460/460/460 458/458/458 459/459/459
f 461/461/461 460/460/460 459/459/459
f 460/460/460 461/461/461 462/462/462
f 462/462/462 449/449/449 450/450/450
f 449/449/449 462/462/462 459/459/459
f 461/461/461 459/459/459 462/462/462
f 463/463/463 460/460/460 462/462/462
f 463/463/463 462/462/462 450/450/450
f 466/466/466 465/465/465 464/464/464
f 467/467/467 466/466/466 464/464/464
f 466/466/466 467/467/467 468/468/468
f 467/467/467 469/469/469 468/468/468
f 470/470/470 469/469/469 467/467/467
f 471/471/471 470/470/470 467/467/467
f 471/471/471 472/472/472 470/470/470
f 472/472/472 473/473/473 470/470/470
f 472/472/472 474/474/474 473/473/473
f 474/474/474 472/472/472 475/475/475
f 472/472/472 476/476/476 475/475/475
f 472/472/472 471/471/471 476/476/476
f 474/474/474 477/477/477 473/473/473
f 471/471/471 478/478/478 476/476/476
f 478/478/478 471/471/471 467/467/467
f 464/464/464 478/478/478 467/467/467
f 481/481/481 480/480/480 479/479/479
f 482/482/482 481/481/481 479/479/479
f 481/481/481 482/482/482 483/483/483
f 481/481/481 483/483/483 484/484/484
f 485/485/485 481/481/481 484/484/484
f 481/481/481 485/485/485 480/480/480
f 482/482/482 486/486/486 483/483/483
f 485/485/485 484/484/484 487/487/487
f 488/488/488 485/485/485 487/487/487
f 485/485/485 488/488/488 489/489/489
f 485/485/485 489/489/489 480/480/480
f 488/488/488 490/490/490 489/489/489
f 488/488/488 491/491/491 490/490/490
f 491/491/491 492/492/492 490/490/490
f 488/488/488 487/487/487 493/493/493
f 491/491/491 488/488/488 493/493/493
f 496/496/496 495/495/495 494/494/494
f 495/495/495 497/497/497 494/494/494
f 497/497/497 498/498/498 494/494/494
f 495/495/495 496/496/496 499/499/499
f 497/497/497 495/495/495 499/499/499
f 500/500/500 494/494/494 498/498/498
f 494/494/494 500/500/500 496/496/496
f 501/501/501 500/500/500 498/498/498
f 502/502/502 500/500/500 501/501/501
f 502/502/502 503/503/503 500/500/500
f 503/503/503 502/502/502 504/504/504
f 503/503/503 504/504/504 505/505/505
f 506/506/506 503/503/503 505/505/505
f 507/507/507 503/503/503 506/506/506
f 503/503/503 507/507/507 500/500/500
f 500/500/500 507/507/507 496/496/496
f 508/508/508 507/507/507 506/506/506
f 496/496/496 507/507/507 508/508/508
f 499/499/499 496/496/496 508/508/508
f 504/504/504 502/502/502 509/509/509
f 505/505/505 504/504/504 509/509/509
f 509/509/509 502/502/502 501/501/501
f 512/512/512 511/511/511 510/510/510
f 513/513/513 512/512/512 510/510/510
f 512/512/512 513/513/513 514/514/514
f 513/513/513 515/515/515 514/514/514
f 516/516/516 514/514/514 515/515/515
f 517/517/517 516/516/516 515/515/515
f 518/518/518 516/516/516 517/517/517
f 519/519/519 518/518/518 517/517/517
f 522/522/522 521/521/521 520/520/520
f 523/523/523 522/522/522 520/520/520
f 520/520/520 521/521/521 524/524/524
f 521/521/521 525/525/525 524/524/524
f 524/524/524 525/525/525 526/526/526
f 525/525/525 527/527/527 526/526/526
f 526/526/526 527/527/527 528/528/528
f 527/527/527 529/529/529 528/528/528
f 532/532/532 531/531/531 530/530/530
f 533/533/533 532/532/532 530/530/530
f 533/533/533 534/534/534 532/532/532
f 533/533/533 535/535/535 534/534/534
f 536/536/536 534/534/534 535/535/535
f 536/536/536 537/537/537 534/534/534
f 537/537/537 536/536/536 538/538/538
f 536/536/536 539/539/539 538/538/538
f 536/536/536 535/535/535 539/539/539
f 535/535/535 540/540/540 539/539/539
f 540/540/540 535/535/535 533/533/533
f 530/530/530 540/540/540 533/533/533
f 543/543/543 542/542/542 541/541/541
f 544/544/544 543/543/543 541/541/541
f 543/543/543 544/544/544 545/545/545
f 543/543/543 545/545/545 546/546/546
f 543/543/543 546/546/546 542/542/542
f 547/547/547 546/546/546 545/545/545
f 546/546/546 547/547/547 548/548/548
f 546/546/546 548/548/548 542/542/542
f 547/547/547 549/549/549 548/548/548
f 547/547/547 550/550/550 549/549/549
f 547/547/547 545/545/545 550/550/550
f 550/550/550 551/551/551 549/549/549
f 554/554/554 553/553/553 552/552/552
f 555/555/555 554/554/554 552/552/552
f 556/556/556 553/553/553 554/554/554
f 557/557/557 556/556/556 554/554/554
f 558/558/558 556/556/556 557/557/557
f 559/559/559 558/558/558 557/557/557
f 555/555/555 552/552/552 560/560/560
f 561/561/561 555/555/555 560/560/560
f 561/561/561 560/560/560 562/562/562
f 563/563/563 561/561/561 562/562/562
f 563/563/563 562/562/562 564/564/564
f 565/565/565 563/563/563 564/564/564
f 568/568/568 567/567/567 566/566/566
f 569/569/569 567/567/567 568/568/568
f 568/568/568 570/570/570 569/569/569
f 568/568/568 571/571/571 570/570/570
f 568/568/568 572/572/572 571/571/571
f 568/568/568 573/573/573 572/572/572
f 566/566/566 573/573/573 568/568/568
f 576/576/576 575/575/575 574/574/574
f 577/577/577 576/576/576 574/574/574
f 578/578/578 575/575/575 576/576/576
f 579/579/579 578/578/578 576/576/576
f 580/580/580 578/578/578 579/579/579
f 581/581/581 580/580/580 579/579/579
f 580/580/580 582/582/582 578/578/578
f 582/582/582 583/583/583 578/578/578
f 578/578/578 583/583/583 575/575/575
f 583/583/583 582/582/582 584/584/584
f 585/585/585 583/583/583 584/584/584
f 583/583/583 586/586/586 575/575/575
f 575/575/575 586/586/586 574/574/574
f 586/586/586 583/583/583 585/585/585
f 574/574/574 586/586/586 587/587/587
f 577/577/577 574/574/574 587/587/587
f 587/587/587 586/586/586 585/585/585
