g wp_010_023_001_Mesh
v 0.499859393 -0.060508851 -0.0932093784
v 0.479986995 -0.0197929796 -0.0599630587
v 0.465434968 -0.0202089809 -0.0643540248
v 0.479397357 -0.066292882 -0.100901924
v 0.506863475 -0.065819189 -0.0670304
v 0.483655453 -0.0293099787 -0.0467800386
v 0.486948729 -0.0806788653 -0.0504695587
v 0.468669981 -0.0407709777 -0.037405055
v 0.461338997 0.016817756 -0.021519782
v 0.470699757 0.0144197559 -0.020125784
v 0.472520351 0.00477825198 -0.0165376551
v 0.461395264 -0.00173950009 -0.0145507809
v 0.460806996 0.0173499994 -0.00840603095
v 0.513088465 -0.127392501 -0.0540570803
v 0.536446989 -0.112529993 -0.0760295838
v 0.527511954 -0.111394458 -0.114033051
v 0.545084953 -0.155318484 -0.0815056115
v 0.539525986 -0.155504972 -0.112679057
v 0.535259247 -0.167114481 -0.0893571228
v 0.527384996 -0.15956898 -0.118150041
v 0.503938496 -0.120384999 -0.124253042
v 0.532504022 -0.162283972 -0.0647870973
v 0.479397357 -0.066292882 -0.100901924
v 0.465434968 -0.0202089809 -0.0643540248
v 0.452294141 -0.0282814782 -0.059386529
v 0.462755769 -0.0773368627 -0.0902358443
v 0.451738805 0.0124599105 -0.0204411261
v 0.461338997 0.016817756 -0.021519782
v 0.460806996 0.0173499994 -0.00840603095
v 0.452871114 0.00257628318 -0.0168111864
v 0.461395264 -0.00173950009 -0.0145507809
v 0.484185666 -0.132955551 -0.108158313
v 0.503938496 -0.120384999 -0.124253042
v 0.514690101 -0.166120976 -0.106299952
v 0.489765912 -0.13645418 -0.0738424733
v 0.519535363 -0.167323992 -0.0792557523
v 0.535259247 -0.167114481 -0.0893571228
v 0.532504022 -0.162283972 -0.0647870973
v 0.527384996 -0.15956898 -0.118150041
v 0.467189461 -0.084442459 -0.0651829392
v 0.454993337 -0.0383147262 -0.0460442901
v 0.513088465 -0.127392501 -0.0540570803
v 0.486948729 -0.0806788653 -0.0504695587
v 0.468669981 -0.0407709777 -0.037405055
v 0.499859393 -0.060508851 0.0932093635
v 0.479397357 -0.066292882 0.100901909
v 0.465434968 -0.0202089809 0.0643540099
v 0.479986995 -0.0197929796 0.0599630401
v 0.506863475 -0.065819189 0.0670303777
v 0.483655453 -0.0293099787 0.0467800163
v 0.486948729 -0.0806788653 0.0504695401
v 0.468669981 -0.0407709777 0.0374050364
v 0.461338997 0.016817756 0.0215197634
v 0.470699757 0.0144197559 0.0201257654
v 0.472520351 0.00477825198 0.0165376365
v 0.461395264 -0.00173950009 0.0145507623
v 0.460806996 0.0173499994 0.00840601232
v 0.513088465 -0.127392501 0.0540570617
v 0.536446989 -0.112529993 0.0760295689
v 0.527511954 -0.111394458 0.114033028
v 0.545084953 -0.155318484 0.0815055892
v 0.539525986 -0.155504972 0.112679042
v 0.535259247 -0.167114481 0.0893571079
v 0.527384996 -0.15956898 0.118150018
v 0.503938496 -0.120384999 0.12425302
v 0.532504022 -0.162283972 0.0647870749
v 0.479397357 -0.066292882 0.100901909
v 0.462755769 -0.0773368627 0.0902358219
v 0.452294141 -0.0282814782 0.0593865104
v 0.465434968 -0.0202089809 0.0643540099
v 0.451738805 0.0124599105 0.0204411075
v 0.461338997 0.016817756 0.0215197634
v 0.460806996 0.0173499994 0.00840601232
v 0.452871114 0.00257628318 0.0168111678
v 0.461395264 -0.00173950009 0.0145507623
v 0.484185666 -0.132955551 0.10815829
v 0.503938496 -0.120384999 0.12425302
v 0.514690101 -0.166120976 0.106299929
v 0.489765912 -0.13645418 0.073842451
v 0.519535363 -0.167323992 0.0792557299
v 0.535259247 -0.167114481 0.0893571079
v 0.532504022 -0.162283972 0.0647870749
v 0.527384996 -0.15956898 0.118150018
v 0.467189461 -0.084442459 0.0651829243
v 0.454993337 -0.0383147262 0.0460442714
v 0.513088465 -0.127392501 0.0540570617
v 0.486948729 -0.0806788653 0.0504695401
v 0.468669981 -0.0407709777 0.0374050364
v 0.545926988 0.0268300697 -0.0845430344
v 0.554395139 0.052413065 -0.0599949881
v 0.547597468 0.0587132685 -0.0924090147
v 0.548075497 0.0826202482 -0.0778630599
v 0.548119485 0.0888617486 -0.0532043055
v 0.545814514 0.0708585456 -0.0313500017
v 0.545926988 0.0268300697 -0.0845430344
v 0.547597468 0.0587132685 -0.0924090147
v 0.539102972 0.0552120768 -0.0635029748
v 0.548075497 0.0826202482 -0.0778630599
v 0.548119485 0.0888617486 -0.0532043055
v 0.545814514 0.0708585456 -0.0313500017
v 0.545926988 0.0268300697 -0.0845430344
v 0.547062457 -0.01651421 -0.0901714414
v 0.589505017 -0.01955585 -0.0831942931
v 0.589324951 0.0235710684 -0.0765060335
v 0.589455962 0.0459030718 -0.0550840087
v 0.626603007 0.0167680588 -0.042373009
v 0.617545307 -0.0223954283 -0.05738483
v 0.601202726 -0.0407864563 -0.0640840307
v 0.611927032 0.0474140495 -0.0264790095
v 0.632189989 -0.0218219403 -0.0220630299
v 0.633399963 -0.0154399499 -9.99999994E-09
v 0.642901003 -0.0293209497 -1.99999999E-08
v 0.627351999 -0.0344169475 -0.0285420418
v 0.619392991 -0.0477159284 -0.0244540647
v 0.639078975 -0.0395499468 -1.99999999E-08
v 0.630200982 -0.0473579504 -1.99999999E-08
v 0.617769003 -0.0515629463 -0.0122460602
v 0.618618965 -0.0492709465 -1.99999999E-08
v 0.609667003 -0.05159593 -0.0420330577
v 0.609400988 -0.057512898 -0.0182770304
v 0.58949405 -0.0543719381 -0.0625400767
v 0.589466035 -0.0653389171 -0.0291750617
v 0.547753215 -0.0540847369 -0.0717830658
v 0.547292769 -0.0679084733 -0.0372100733
v 0.609444022 -0.0582939461 -1.99999999E-08
v 0.589491963 -0.0693509728 -1.99999999E-08
v 0.546636701 -0.0719269961 -1.99999999E-08
v 0.554395139 0.052413065 -0.0599949881
v 0.545814514 0.0708585456 -0.0313500017
v 0.589492917 0.0619330406 -0.0298680197
v 0.58950299 0.0669810474 0
v 0.54714334 0.0729310438 0
v 0.613209546 0.0487252176 0
v 0.629716694 0.0187450796 -9.99999994E-09
v 0.545814514 0.0708585456 -0.0313500017
v 0.54714334 0.0729310438 0
v 0.503904581 0.0547703318 0
v 0.503904521 0.0417269282 -0.0510572381
v 0.475885004 4.51999995E-06 -0.0149350259
v 0.503904521 -0.0084776096 -0.0716819242
v 0.503904521 0.0417269282 -0.0510572381
v 0.475885004 0.0172802694 -4.99999997E-09
v 0.503904521 -0.0418742895 -0.0525342785
v 0.545926988 0.0268300697 -0.0845430344
v 0.547062457 -0.01651421 -0.0901714414
v 0.547753215 -0.0540847369 -0.0717830658
v 0.547292769 -0.0679084733 -0.0372100733
v 0.503904581 -0.0585553981 -1.99999999E-08
v 0.475885004 -0.0172137301 -9.99999994E-09
v 0.546636701 -0.0719269961 -1.99999999E-08
v 0.539102972 0.0552120768 -0.0635029748
v 0.545814514 0.0708585456 -0.0313500017
v 0.503904581 0.0547703318 0
v 0.545926988 0.0268300381 0.0845430195
v 0.547597468 0.0587132387 0.0924090147
v 0.554395139 0.0524130464 0.0599949881
v 0.548075497 0.0826202258 0.0778630674
v 0.548119485 0.0888617337 0.0532043166
v 0.545814514 0.0708585382 0.0313500129
v 0.545926988 0.0268300381 0.0845430195
v 0.539102972 0.0552120581 0.0635029748
v 0.547597468 0.0587132387 0.0924090147
v 0.548075497 0.0826202258 0.0778630674
v 0.548119485 0.0888617337 0.0532043166
v 0.545814514 0.0708585382 0.0313500129
v 0.545926988 0.0268300381 0.0845430195
v 0.589324951 0.0235710498 0.0765060261
v 0.589505017 -0.0195558704 0.0831942856
v 0.554395139 0.0524130464 0.0599949881
v 0.547062457 -0.0165142398 0.0901714191
v 0.547753215 -0.0540847592 0.0717830285
v 0.58949405 -0.0543719567 0.0625400469
v 0.589466035 -0.065338932 0.0291750226
v 0.609400988 -0.0575129054 0.0182769895
v 0.609667003 -0.0515959412 0.0420330167
v 0.617769003 -0.0515629463 0.0122460192
v 0.619392991 -0.0477159396 0.0244540218
v 0.630200982 -0.0473579504 -1.99999999E-08
v 0.639078975 -0.0395499468 -1.99999999E-08
v 0.627351999 -0.0344169587 0.028542012
v 0.618618965 -0.0492709465 -1.99999999E-08
v 0.617545307 -0.0223954506 0.0573848002
v 0.547292769 -0.0679084882 0.0372100286
v 0.601202726 -0.0407864712 0.0640840009
v 0.609444022 -0.0582939461 -1.99999999E-08
v 0.589491963 -0.0693509728 -1.99999999E-08
v 0.546636701 -0.0719269961 -1.99999999E-08
v 0.632189989 -0.0218219496 0.0220630113
v 0.626603007 0.0167680494 0.0423729979
v 0.633399963 -0.0154399499 -9.99999994E-09
v 0.589455962 0.0459030457 0.0550840087
v 0.611927032 0.0474140495 0.0264790002
v 0.589492977 0.0619330294 0.0298679918
v 0.58950299 0.0669810474 0
v 0.613209546 0.0487252176 0
v 0.629716694 0.0187450796 -9.99999994E-09
v 0.545814514 0.0708585382 0.0313500129
v 0.554395139 0.0524130464 0.0599949881
v 0.54714334 0.0729310438 0
v 0.632189989 -0.0218219496 0.0220630113
v 0.633399963 -0.0154399499 -9.99999994E-09
v 0.642901003 -0.0293209497 -1.99999999E-08
v 0.627351999 -0.0344169587 0.028542012
v 0.639078975 -0.0395499468 -1.99999999E-08
v 0.545814514 0.0708585382 0.0313500129
v 0.503904581 0.0547703318 0
v 0.54714334 0.0729310438 0
v 0.503904521 0.0417269096 0.051057227
v 0.475885004 3.37649981E-05 0.014935012
v 0.503904521 0.0417269096 0.051057227
v 0.504348874 -0.00936920941 0.071710363
v 0.475885004 0.0172802694 -4.99999997E-09
v 0.503904521 -0.0418743081 0.0525342487
v 0.475885004 -0.0172137301 -9.99999994E-09
v 0.547753215 -0.0540847592 0.0717830285
v 0.545926988 0.0268300381 0.0845430195
v 0.547062457 -0.0165142398 0.0901714191
v 0.547292769 -0.0679084882 0.0372100286
v 0.503904581 -0.0585553981 -1.99999999E-08
v 0.546636701 -0.0719269961 -1.99999999E-08
v 0.539102972 0.0552120581 0.0635029748
v 0.545814514 0.0708585382 0.0313500129
v 0.503904581 0.0547703318 0
v 0.554395139 0.0524130464 0.0599949881
v 0.589492977 0.0619330294 0.0298679918
v 0.589455962 0.0459030457 0.0550840087
v 0.589324951 0.0235710498 0.0765060261
v 0.415680915 4.04999992E-06 -0.0898759216
v 0.415680915 -0.0778319389 -0.044936955
v 0.446437895 -0.0502119772 -0.0289909542
v 0.446437895 4.04999992E-06 -0.0579839088
v 0.415680915 -0.0279863179 -0.0161582716
v 0.415680915 4.03000013E-06 -0.0323192552
v 0.384923935 -0.0502119921 -0.0289909542
v 0.384923935 4.04000002E-06 -0.0579839088
v 0.415680915 -0.0279863179 -0.0161582716
v 0.415680915 4.03000013E-06 -0.0323192552
v 0.415680915 -0.0778319389 -0.044936955
v 0.415680915 -0.0778320134 0.0449370891
v 0.446437895 -0.0502120107 0.0289911143
v 0.446437895 -0.0502119772 -0.0289909542
v 0.415680915 -0.0279863179 0.0161584429
v 0.415680915 -0.0279863179 -0.0161582716
v 0.384923935 -0.0502119921 -0.0289909542
v 0.384923935 -0.0502120182 0.0289911143
v 0.415680915 -0.0279863179 -0.0161582716
v 0.415680915 -0.0279863179 0.0161584429
v 0.415680915 0.077839978 0.0449371375
v 0.415680915 0.0778400525 -0.0449368805
v 0.446437895 0.0502210185 -0.0289908927
v 0.446437895 0.0502209999 0.028991133
v 0.415680915 0.0279946793 -0.0161582511
v 0.415680915 0.0279946793 0.0161584616
v 0.384923935 0.0502210073 -0.0289909039
v 0.384923935 0.0502209887 0.0289911423
v 0.415680915 0.0279946793 -0.0161582511
v 0.415680915 0.0279946793 0.0161584616
v 0.415680915 0.0778400525 -0.0449368805
v 0.415680915 4.04999992E-06 -0.0898759216
v 0.446437895 4.04999992E-06 -0.0579839088
v 0.446437895 0.0502210185 -0.0289908927
v 0.415680915 4.03000013E-06 -0.0323192552
v 0.415680915 0.0279946793 -0.0161582511
v 0.384923935 0.0502210073 -0.0289909039
v 0.384923935 4.04000002E-06 -0.0579839088
v 0.415680915 0.0279946793 -0.0161582511
v 0.415680915 4.03000013E-06 -0.0323192552
v 0.446437895 -0.0502120107 0.0289911143
v 0.415680915 -0.0778320134 0.0449370891
v 0.415680915 3.97999975E-06 0.0898761377
v 0.446437895 3.99999999E-06 0.0579841062
v 0.415680915 -0.0279863179 0.0161584429
v 0.415680915 3.99999999E-06 0.0323194638
v 0.384923935 -0.0502120182 0.0289911143
v 0.384923935 3.9900001E-06 0.0579841062
v 0.415680915 -0.0279863179 0.0161584429
v 0.415680915 3.99999999E-06 0.0323194638
v 0.446437895 0.0502209999 0.028991133
v 0.446437895 3.99999999E-06 0.0579841062
v 0.415680915 3.97999975E-06 0.0898761377
v 0.415680915 0.077839978 0.0449371375
v 0.415680915 0.0279946793 0.0161584616
v 0.415680915 3.99999999E-06 0.0323194638
v 0.384923935 3.9900001E-06 0.0579841062
v 0.384923935 0.0502209887 0.0289911423
v 0.415680915 3.99999999E-06 0.0323194638
v 0.415680915 0.0279946793 0.0161584616
v 0.225969002 0.0172509793 9.99999994E-09
v 0.475885004 0.0172802694 -4.99999997E-09
v 0.475885004 3.37649981E-05 0.014935012
v 0.225969002 4.47999992E-06 0.014935012
v 0.475885004 -0.0172137301 -9.99999994E-09
v 0.225969002 -0.0172430202 0
v 0.475885004 4.51999995E-06 -0.0149350259
v 0.225969002 4.47999992E-06 -0.014935012
v 0.475885004 -0.0172137301 -9.99999994E-09
v 0.225969002 -0.0172430202 0
v 0.224410981 0.01058398 9.99999994E-09
v 0.225969002 0.0172509793 9.99999994E-09
v 0.225969002 4.47999992E-06 0.014935012
v 0.224410981 4.47999992E-06 0.00916102156
v 0.225969002 -0.0172430202 0
v 0.224410981 -0.01057602 0
v 0.216683 0.01058398 9.99999994E-09
v 0.216683 4.47999992E-06 0.00916102156
v 0.216683 -0.01057602 0
v 0.225969002 4.47999992E-06 -0.014935012
v 0.224410981 4.47999992E-06 -0.00916101225
v 0.225969002 -0.0172430202 0
v 0.224410981 -0.01057602 0
v 0.216683 4.47999992E-06 -0.009161002
v 0.216683 -0.01057602 0
v -0.195377693 0.0203166697 0.0203144886
v -0.195377693 3.67999996E-06 0.0287284888
v -0.21810168 3.67999996E-06 0.0143654896
v -0.195377693 -0.020309329 0.0203144886
v -0.21810168 0.0143666798 1.46999992E-06
v -0.221454695 3.67999996E-06 1.48000004E-06
v -0.21810168 -0.0143603198 1.48000004E-06
v -0.195377693 -0.02872332 1.48000004E-06
v -0.195377693 -0.020309329 -0.0203115288
v -0.21810168 3.67999996E-06 -0.0143615287
v -0.21810168 0.0143666798 1.46999992E-06
v -0.195377693 3.66999984E-06 -0.0287245288
v -0.195377693 0.0203166697 -0.0203115381
v -0.195377693 0.0287306812 1.48000004E-06
v -0.195377693 0.0287306812 1.48000004E-06
v -0.195377693 0.0203166697 0.0203144886
v -0.21810168 0.0143666798 1.46999992E-06
v -0.17265369 0.0143666696 1.48999993E-06
v -0.17265369 3.66999984E-06 0.0143654989
v -0.195377693 3.67999996E-06 0.0287284888
v -0.195377693 0.0203166697 0.0203144886
v -0.195377693 -0.020309329 0.0203144886
v -0.17265369 -0.0143603301 1.48000004E-06
v -0.195377693 -0.02872332 1.48000004E-06
v -0.195377693 -0.020309329 -0.0203115288
v -0.169300705 3.66999984E-06 1.48999993E-06
v -0.17265369 0.0143666696 1.48999993E-06
v -0.17265369 3.67999996E-06 -0.0143615194
v -0.17265369 0.0143666696 1.48999993E-06
v -0.195377693 3.66999984E-06 -0.0287245288
v -0.195377693 0.0203166697 -0.0203115381
v -0.195377693 0.0287306812 1.48000004E-06
v 0.195377693 0.0203166697 0.0203144923
v 0.21810168 3.67999996E-06 0.0143654915
v 0.195377693 3.67999996E-06 0.0287284944
v 0.195377693 -0.020309329 0.0203144923
v 0.21810168 0.0143666798 1.47268213E-06
v 0.221454695 3.67999996E-06 1.48000004E-06
v 0.21810168 -0.0143603198 1.48000004E-06
v 0.195377693 -0.02872332 1.48000004E-06
v 0.195377693 -0.020309329 -0.0203115344
v 0.21810168 3.67999996E-06 -0.0143615315
v 0.21810168 0.0143666798 1.47268213E-06
v 0.195377693 3.66999984E-06 -0.0287245344
v 0.195377693 0.0203166697 -0.0203115437
v 0.195377693 0.0287306812 1.48000004E-06
v 0.195377693 0.0287306812 1.48000004E-06
v 0.21810168 0.0143666798 1.47268213E-06
v 0.195377693 0.0203166697 0.0203144923
v 0.17265369 0.0143666696 1.48999993E-06
v 0.17265369 3.66999984E-06 0.0143655008
v 0.195377693 0.0203166697 0.0203144923
v 0.195377693 3.67999996E-06 0.0287284944
v 0.195377693 -0.020309329 0.0203144923
v 0.17265369 -0.0143603301 1.48000004E-06
v 0.195377693 -0.02872332 1.48000004E-06
v 0.195377693 -0.020309329 -0.0203115344
v 0.169300705 3.66999984E-06 1.48999993E-06
v 0.17265369 0.0143666696 1.48999993E-06
v 0.17265369 3.67999996E-06 -0.0143615222
v 0.17265369 0.0143666696 1.48999993E-06
v 0.195377693 3.66999984E-06 -0.0287245344
v 0.195377693 0.0203166697 -0.0203115437
v 0.195377693 0.0287306812 1.48000004E-06
v -0.0881685838 -0.0109420093 0.0133328885
v -0.111262761 -0.0109420205 0.0266666487
v -0.111262769 0.00195746007 0.0363531373
v -0.0797797441 0.00195747009 0.0181759894
v -0.142746076 0.00195747986 0.0181759894
v -0.134357303 -0.0109420093 0.0133328885
v -0.0955870599 1.50300002E-05 0.00904932991
v -0.111262701 1.50400001E-05 0.0181001499
v -0.126938432 1.50400001E-05 0.00904933922
v -0.111262761 0.0109813297 0.0266666487
v -0.0881685838 0.0109813297 0.0133328885
v -0.134357303 0.0109813297 0.0133328885
v -0.111262701 1.50400001E-05 0.0181001499
v -0.0955870599 1.50300002E-05 0.00904932991
v -0.126938432 1.50400001E-05 0.00904933922
v -0.0881685838 -0.0109420093 -0.0133328093
v -0.0881685838 -0.0109420093 0.0133328885
v -0.0797797441 0.00195747009 0.0181759894
v -0.0797797441 0.00195747986 -0.0181759093
v -0.0955870599 1.50400001E-05 -0.00904925913
v -0.0955870599 1.50300002E-05 0.00904932991
v -0.0881685838 0.0109813297 -0.0133328093
v -0.0881685838 0.0109813297 0.0133328885
v -0.0955870599 1.50400001E-05 -0.00904925913
v -0.0955870599 1.50300002E-05 0.00904932991
v -0.134357303 -0.0109420093 0.0133328885
v -0.134357303 -0.010942 -0.0133328289
v -0.142746076 0.00195748988 -0.0181759298
v -0.142746076 0.00195747986 0.0181759894
v -0.126938432 1.50400001E-05 0.00904933922
v -0.126938432 1.50400001E-05 -0.00904926937
v -0.134357303 0.01098134 -0.0133328289
v -0.134357303 0.0109813297 0.0133328885
v -0.126938432 1.50400001E-05 -0.00904926937
v -0.126938432 1.50400001E-05 0.00904933922
v -0.0881685838 -0.0109420093 -0.0133328093
v -0.0797797441 0.00195747986 -0.0181759093
v -0.111262746 0.00195748988 -0.0363530591
v -0.111262761 -0.010942 -0.0266665686
v -0.134357303 -0.010942 -0.0133328289
v -0.142746076 0.00195748988 -0.0181759298
v -0.0955870599 1.50400001E-05 -0.00904925913
v -0.111262701 1.50400001E-05 -0.0181000698
v -0.126938432 1.50400001E-05 -0.00904926937
v -0.0881685838 0.0109813297 -0.0133328093
v -0.111262761 0.01098134 -0.0266665686
v -0.134357303 0.01098134 -0.0133328289
v -0.0955870599 1.50400001E-05 -0.00904925913
v -0.111262701 1.50400001E-05 -0.0181000698
v -0.126938432 1.50400001E-05 -0.00904926937
v 0.0881685838 -0.0109420093 0.0133328913
v 0.0797797441 0.00195747009 0.0181759913
v 0.111262769 0.00195746007 0.0363531448
v 0.111262761 -0.0109420205 0.0266666524
v 0.142746076 0.00195747986 0.0181759913
v 0.134357303 -0.0109420093 0.0133328913
v 0.0955870599 1.50300002E-05 0.00904933177
v 0.111262701 1.50400001E-05 0.0181001518
v 0.126938432 1.50400001E-05 0.00904934108
v 0.111262761 0.0109813297 0.0266666524
v 0.0881685838 0.0109813297 0.0133328913
v 0.134357303 0.0109813297 0.0133328913
v 0.111262701 1.50400001E-05 0.0181001518
v 0.0955870599 1.50300002E-05 0.00904933177
v 0.126938432 1.50400001E-05 0.00904934108
v 0.0881685838 -0.0109420093 -0.0133328112
v 0.0797797441 0.00195747986 -0.0181759112
v 0.0797797441 0.00195747009 0.0181759913
v 0.0881685838 -0.0109420093 0.0133328913
v 0.0955870599 1.50400001E-05 -0.00904926192
v 0.0955870599 1.50300002E-05 0.00904933177
v 0.0881685838 0.0109813297 -0.0133328112
v 0.0881685838 0.0109813297 0.0133328913
v 0.0955870599 1.50400001E-05 -0.00904926192
v 0.0955870599 1.50300002E-05 0.00904933177
v 0.134357303 -0.0109420093 0.0133328913
v 0.142746076 0.00195747986 0.0181759913
v 0.142746076 0.00195748988 -0.0181759316
v 0.134357303 -0.010942 -0.0133328317
v 0.126938432 1.50400001E-05 0.00904934108
v 0.126938432 1.50400001E-05 -0.00904927216
v 0.134357303 0.01098134 -0.0133328317
v 0.134357303 0.0109813297 0.0133328913
v 0.126938432 1.50400001E-05 -0.00904927216
v 0.126938432 1.50400001E-05 0.00904934108
v 0.0881685838 -0.0109420093 -0.0133328112
v 0.111262761 -0.010942 -0.0266665742
v 0.111262746 0.00195748988 -0.0363530628
v 0.0797797441 0.00195747986 -0.0181759112
v 0.134357303 -0.010942 -0.0133328317
v 0.142746076 0.00195748988 -0.0181759316
v 0.0955870599 1.50400001E-05 -0.00904926192
v 0.111262701 1.50400001E-05 -0.0181000717
v 0.126938432 1.50400001E-05 -0.00904927216
v 0.0881685838 0.0109813297 -0.0133328112
v 0.111262761 0.01098134 -0.0266665742
v 0.134357303 0.01098134 -0.0133328317
v 0.0955870599 1.50400001E-05 -0.00904926192
v 0.111262701 1.50400001E-05 -0.0181000717
v 0.126938432 1.50400001E-05 -0.00904927216
v -0.407457978 0.0172510091 1.98999987E-06
v -0.407457978 4.00999988E-06 -0.0149350185
v -0.227490991 3.97999975E-06 -0.0149349887
v -0.227490991 0.0172509793 2.02000001E-06
v -0.407457978 4.00999988E-06 0.0149379987
v -0.227490991 3.97999975E-06 0.0149380285
v -0.407457978 -0.0172429886 1.98999987E-06
v -0.227490991 -0.0172430202 2.02000001E-06
v -0.227490991 -0.0172430202 2.02000001E-06
v -0.407457978 -0.0172429886 1.98999987E-06
v -0.227490991 0.0172509793 2.02000001E-06
v -0.227490991 3.97999975E-06 -0.0149349887
v -0.225933 3.97999975E-06 -0.00916098896
v -0.225933 0.01058398 2.02000001E-06
v -0.227490991 3.97999975E-06 0.0149380285
v -0.225933 3.97999975E-06 0.0091640288
v -0.227490991 -0.0172430202 2.02000001E-06
v -0.225933 -0.01057602 2.02000001E-06
v -0.225933 -0.01057602 2.02000001E-06
v -0.227490991 -0.0172430202 2.02000001E-06
v -0.225933 0.01058398 2.02000001E-06
v -0.225933 3.97999975E-06 -0.00916098896
v -0.21820499 3.97999975E-06 -0.00916098896
v -0.21820499 0.01058398 2.02000001E-06
v -0.225933 3.97999975E-06 0.0091640288
v -0.21820499 3.97999975E-06 0.0091640288
v -0.225933 -0.01057602 2.02000001E-06
v -0.21820499 -0.01057602 2.02000001E-06
v -0.21820499 -0.01057602 2.02000001E-06
v -0.225933 -0.01057602 2.02000001E-06
v -0.407457978 4.00999988E-06 -0.0149350185
v -0.407457978 0.0172510091 1.98999987E-06
v -0.408588976 0.0132680088 1.98999987E-06
v -0.408588976 4.00999988E-06 -0.0114850197
v -0.408588976 4.00999988E-06 0.0114889992
v -0.407457978 4.00999988E-06 0.0149379987
v -0.408588976 -0.0132599901 1.98999987E-06
v -0.407457978 -0.0172429886 1.98999987E-06
v -0.407457978 -0.0172429886 1.98999987E-06
v -0.408588976 -0.0132599901 1.98999987E-06
v -0.408588976 4.00999988E-06 -0.0114850197
v -0.408588976 0.0132680088 1.98999987E-06
v -0.421635985 0.0132680088 1.98999987E-06
v -0.421635985 4.00999988E-06 -0.0114850197
v -0.421635985 4.00999988E-06 0.0114889992
v -0.408588976 4.00999988E-06 0.0114889992
v -0.421635985 -0.0132599901 1.98999987E-06
v -0.408588976 -0.0132599901 1.98999987E-06
v -0.408588976 -0.0132599901 1.98999987E-06
v -0.421635985 -0.0132599901 1.98999987E-06
v -0.485764176 0.0190922897 0
v -0.453818798 0.0382037982 1.99999999E-08
v -0.453818798 0.0190922488 0.0331020914
v -0.485764176 0.00953652989 0.0165510494
v -0.421873391 0.0190922786 9.99999994E-09
v -0.421873391 0.00953651965 0.0165510587
v -0.485764176 -0.00957497954 0.0165510383
v -0.485764176 0.00953652989 0.0165510494
v -0.453818798 0.0190922488 0.0331020914
v -0.453818798 -0.0191307701 0.0331020765
v -0.421873391 0.00953651965 0.0165510587
v -0.421873391 -0.00957498979 0.0165510587
v -0.490706205 -1.92099997E-05 -1.99999999E-08
v -0.485764176 0.0190922897 0
v -0.416931301 -1.92299995E-05 0
v -0.421873391 0.0190922786 9.99999994E-09
v -0.485764176 -0.0191307291 -2.99999989E-08
v -0.453818798 -0.0191307701 0.0331020765
v -0.453818798 -0.0382422395 -2.99999989E-08
v -0.490706205 -1.92099997E-05 -1.99999999E-08
v -0.416931301 -1.92299995E-05 0
v -0.421873391 -0.0191307403 -1.99999999E-08
v -0.453818798 -0.0382422395 -2.99999989E-08
v -0.453818798 -0.0191307701 0.0331020765
v -0.485764176 0.0190922897 0
v -0.485764176 0.00953654014 -0.0165510681
v -0.453818798 0.019092299 -0.0331020989
v -0.453818798 0.0382037982 1.99999999E-08
v -0.421873391 0.0190922786 9.99999994E-09
v -0.421873391 0.00953652989 -0.0165510587
v -0.490706205 -1.92099997E-05 -1.99999999E-08
v -0.416931301 -1.92299995E-05 0
v -0.485764176 -0.00957495999 -0.0165510792
v -0.453818798 -0.0191307198 -0.03310211
v -0.453818798 0.019092299 -0.0331020989
v -0.485764176 0.00953654014 -0.0165510681
v -0.421873391 0.00953652989 -0.0165510587
v -0.421873391 -0.00957497954 -0.0165510587
v -0.490706205 -1.92099997E-05 -1.99999999E-08
v -0.416931301 -1.92299995E-05 0
v -0.485764176 -0.0191307291 -2.99999989E-08
v -0.453818798 -0.0382422395 -2.99999989E-08
v -0.453818798 -0.0191307198 -0.03310211
v -0.485764176 -0.00957495999 -0.0165510792
v -0.490706205 -1.92099997E-05 -1.99999999E-08
v -0.421873391 -0.00957497954 -0.0165510587
v -0.421873391 -0.0191307403 -1.99999999E-08
v -0.416931301 -1.92299995E-05 0
v -0.453818798 -0.0382422395 -2.99999989E-08
v -0.421873391 -0.0191307403 -1.99999999E-08
v -0.421873391 -0.00957497954 -0.0165510587
v -0.453818798 -0.0191307198 -0.03310211
vt 0.92260915 0.787374079
vt 0.88815099 0.875220001
vt 0.911202013 0.885744989
vt 0.958432138 0.795437396
vt 0.87379396 0.784821451
vt 0.85787046 0.866262019
vt 0.819269001 0.786700726
vt 0.819269001 0.861750007
vt 0.853593767 0.967664719
vt 0.847673774 0.955664277
vt 0.837819219 0.942460239
vt 0.819269001 0.938214719
vt 0.819269001 0.973492026
vt 0.820241809 0.691702008
vt 0.875109494 0.691516459
vt 0.937327981 0.685881972
vt 0.864647329 0.621624887
vt 0.917434216 0.61427182
vt 0.873137474 0.593163729
vt 0.938878 0.60225302
vt 0.979625523 0.681476474
vt 0.821944237 0.616722405
vt 0.654260755 0.796661913
vt 0.702630997 0.89182198
vt 0.730132222 0.875409603
vt 0.698435962 0.785662472
vt 0.770620584 0.955115199
vt 0.761906743 0.970268965
vt 0.797164023 0.973097026
vt 0.783513367 0.940176964
vt 0.797164023 0.933493733
vt 0.686520576 0.682538033
vt 0.631981492 0.675183535
vt 0.709133863 0.613545716
vt 0.746605396 0.685682178
vt 0.757044852 0.617290437
vt 0.746355534 0.583977759
vt 0.797164023 0.614144981
vt 0.682860196 0.593629956
vt 0.750648737 0.779664099
vt 0.765266538 0.862038612
vt 0.797164023 0.68345201
vt 0.797164023 0.777945876
vt 0.797164023 0.855714977
vt 0.92260915 0.787374079
vt 0.958432138 0.795437396
vt 0.911202013 0.885744989
vt 0.88815099 0.875220001
vt 0.87379396 0.784821451
vt 0.85787046 0.866262019
vt 0.819269001 0.786700726
vt 0.819269001 0.861750007
vt 0.853593767 0.967664719
vt 0.847673774 0.955664277
vt 0.837819219 0.942460239
vt 0.819269001 0.938214719
vt 0.819269001 0.973492026
vt 0.820241809 0.691702008
vt 0.875109494 0.691516459
vt 0.937327981 0.685881972
vt 0.864647329 0.621624887
vt 0.917434216 0.61427182
vt 0.873137474 0.593163729
vt 0.938878 0.60225302
vt 0.979625523 0.681476474
vt 0.821944237 0.616722405
vt 0.654260755 0.796661913
vt 0.698435962 0.785662472
vt 0.730132222 0.875409603
vt 0.702630997 0.89182198
vt 0.770620584 0.955115199
vt 0.761906743 0.970268965
vt 0.797164023 0.973097026
vt 0.783513367 0.940176964
vt 0.797164023 0.933493733
vt 0.686520576 0.682538033
vt 0.631981492 0.675183535
vt 0.709133863 0.613545716
vt 0.746605396 0.685682178
vt 0.757044852 0.617290437
vt 0.746355534 0.583977759
vt 0.797164023 0.614144981
vt 0.682860196 0.593629956
vt 0.750648737 0.779664099
vt 0.765266538 0.862038612
vt 0.797164023 0.68345201
vt 0.797164023 0.777945876
vt 0.797164023 0.855714977
vt 0.435220987 0.70559901
vt 0.501353025 0.70559901
vt 0.464617997 0.655093014
vt 0.511967003 0.621104002
vt 0.564884007 0.641532004
vt 0.594716012 0.70559901
vt 0.416527987 0.741953015
vt 0.457165986 0.792289019
vt 0.495000988 0.741953015
vt 0.505343974 0.805239022
vt 0.548509002 0.790611982
vt 0.572907984 0.741953015
vt 0.228938997 0.335799009
vt 0.234614 0.261992007
vt 0.178301603 0.238769576
vt 0.151409492 0.2991243
vt 0.112627 0.305620998
vt 0.0898643583 0.267606616
vt 0.123864003 0.211417004
vt 0.156651646 0.191729009
vt 0.0531839989 0.312146991
vt 0.0750420019 0.18434
vt 0.0234370008 0.183584005
vt 0.0378089994 0.151030004
vt 0.0926840007 0.168635994
vt 0.108228996 0.141316995
vt 0.050942 0.132248998
vt 0.0691379979 0.114387996
vt 0.102802001 0.117955998
vt 0.0890169963 0.101466
vt 0.140985996 0.157691002
vt 0.123966999 0.118993998
vt 0.161797002 0.166210994
vt 0.147553995 0.121510997
vt 0.235455006 0.179876
vt 0.231854007 0.110863999
vt 0.110775001 0.0883599967
vt 0.128827006 0.0795570016
vt 0.222880006 0.0471340008
vt 0.150277004 0.378719985
vt 0.073958002 0.432437986
vt 0.0538860001 0.341850013
vt 0.0212479997 0.343142003
vt 0.019839 0.436390996
vt 0.0236089993 0.309448004
vt 0.0234370008 0.273865014
vt 0.0696429983 0.436616004
vt 0.0215520002 0.439058006
vt 0.0245859995 0.515173972
vt 0.0757500008 0.511373997
vt 0.465070009 0.218633994
vt 0.341446012 0.210601002
vt 0.402049005 0.286078006
vt 0.497590989 0.257299006
vt 0.36391899 0.135139003
vt 0.275352001 0.275478005
vt 0.262849003 0.222698003
vt 0.295376986 0.100883998
vt 0.348949999 0.0452639982
vt 0.442580014 0.0700139999
vt 0.499520004 0.175790995
vt 0.409408987 0.00355300005
vt 0.337579995 0.33792901
vt 0.395568997 0.387356997
vt 0.471747011 0.329766005
vt 0.435220987 0.70559901
vt 0.464617997 0.655093014
vt 0.501353025 0.70559901
vt 0.511967003 0.621104002
vt 0.564884007 0.641532004
vt 0.594716012 0.70559901
vt 0.416527987 0.741953015
vt 0.495000988 0.741953015
vt 0.457165986 0.792289019
vt 0.505343974 0.805239022
vt 0.548509002 0.790611982
vt 0.572907984 0.741953015
vt 0.228938997 0.335799009
vt 0.151409492 0.2991243
vt 0.178301603 0.238769576
vt 0.150277004 0.378719985
vt 0.234614 0.261992007
vt 0.235455006 0.179876
vt 0.161797002 0.166210994
vt 0.147553995 0.121510997
vt 0.123966999 0.118993998
vt 0.140985996 0.157691002
vt 0.102802001 0.117955998
vt 0.108228996 0.141316995
vt 0.0691379979 0.114387996
vt 0.050942 0.132248998
vt 0.0926840007 0.168635994
vt 0.0890169963 0.101466
vt 0.123864003 0.211417004
vt 0.231854007 0.110863999
vt 0.156651646 0.191729009
vt 0.110775001 0.0883599967
vt 0.128827006 0.0795570016
vt 0.222880006 0.0471340008
vt 0.0750420019 0.18434
vt 0.0898643583 0.267606616
vt 0.0234370008 0.183584005
vt 0.112627 0.305620998
vt 0.0531839989 0.312146991
vt 0.0541890003 0.341764987
vt 0.0212479997 0.343142003
vt 0.0236089993 0.309448004
vt 0.0234370008 0.273865014
vt 0.073958002 0.432437986
vt 0.150277004 0.378719985
vt 0.019839 0.436390996
vt 0.0732410029 0.0740329996
vt 0.0196959991 0.0715299994
vt 0.038908001 0.0394919999
vt 0.0926299989 0.0585229993
vt 0.0499400012 0.0238930006
vt 0.0696429983 0.436616004
vt 0.0245859995 0.515173972
vt 0.0215520002 0.439058006
vt 0.0757500008 0.511373997
vt 0.465070009 0.218633994
vt 0.402049005 0.286078006
vt 0.341446012 0.210601002
vt 0.497590989 0.257299006
vt 0.36391899 0.135139003
vt 0.499520004 0.175790995
vt 0.295376986 0.100883998
vt 0.275352001 0.275478005
vt 0.262849003 0.222698003
vt 0.348949999 0.0452639982
vt 0.442580014 0.0700139999
vt 0.409408987 0.00355300005
vt 0.337579995 0.33792901
vt 0.395568997 0.387356997
vt 0.471747011 0.329046011
vt 0.973499358 0.508374453
vt 0.877411366 0.471419394
vt 0.935849309 0.435275435
vt 0.960439324 0.422641397
vt 0.756258011 0.216865003
vt 0.613566995 0.215461999
vt 0.635742009 0.314990014
vt 0.754621029 0.309246004
vt 0.677634001 0.388348013
vt 0.753382981 0.385464013
vt 0.641762018 0.115982004
vt 0.758171022 0.124514997
vt 0.681002021 0.048227001
vt 0.759663999 0.0483749993
vt 0.598666012 0.216495007
vt 0.541324973 0.214923993
vt 0.578957021 0.316783011
vt 0.628746986 0.316015005
vt 0.631431997 0.392379999
vt 0.671076 0.392379999
vt 0.635141015 0.115769997
vt 0.563771009 0.104066998
vt 0.679328024 0.0447660014
vt 0.654612005 0.0228819996
vt 0.961052775 0.213861257
vt 0.914232492 0.220267519
vt 0.905619502 0.285039574
vt 0.949108005 0.303303778
vt 0.840328991 0.388879001
vt 0.875795007 0.388879001
vt 0.906556666 0.149507388
vt 0.956430316 0.13136372
vt 0.845870972 0.0473649986
vt 0.87498498 0.0320889987
vt 0.901669979 0.219788
vt 0.759299994 0.216839999
vt 0.757376015 0.309175014
vt 0.87511301 0.317815989
vt 0.756146014 0.385464013
vt 0.831632972 0.388455003
vt 0.876975 0.120231003
vt 0.761141002 0.124514997
vt 0.836651981 0.0470639989
vt 0.762492001 0.0482320003
vt 0.635742009 0.314990014
vt 0.613566995 0.215461999
vt 0.756258011 0.216865003
vt 0.754621029 0.309246004
vt 0.677634001 0.388348013
vt 0.753382981 0.385464013
vt 0.641762018 0.115982004
vt 0.758171022 0.124514997
vt 0.681002021 0.048227001
vt 0.759663999 0.0483749993
vt 0.87511301 0.317815989
vt 0.757376015 0.309175014
vt 0.759299994 0.216839999
vt 0.901669979 0.219788
vt 0.831632972 0.388455003
vt 0.756146014 0.385464013
vt 0.761141002 0.124514997
vt 0.876975 0.120231003
vt 0.762492001 0.0482320003
vt 0.836651981 0.0470639989
vt 0.109674998 0.564987004
vt 0.109682001 0.97823602
vt 0.151494995 0.978235006
vt 0.151486993 0.564985991
vt 0.193579003 0.978235006
vt 0.193571001 0.564985991
vt 0.0678939968 0.978236973
vt 0.0678870007 0.564988017
vt 0.0258319993 0.978237987
vt 0.0258249994 0.564988017
vt 0.109678 0.555809021
vt 0.109674998 0.564987004
vt 0.151486993 0.564985991
vt 0.147527993 0.555809021
vt 0.193571001 0.564985991
vt 0.180129007 0.555808008
vt 0.109678 0.543488026
vt 0.146408007 0.543487012
vt 0.177690998 0.543487012
vt 0.0678870007 0.564988017
vt 0.0718280002 0.555809021
vt 0.0258249994 0.564988017
vt 0.0392270014 0.555809975
vt 0.0729489997 0.543488979
vt 0.0416640006 0.543488979
vt 0.447705775 0.948570073
vt 0.427525014 0.899004996
vt 0.472644389 0.909021854
vt 0.445504993 0.863187015
vt 0.493991613 0.930305243
vt 0.494060993 0.908770978
vt 0.493523002 0.886741996
vt 0.490998 0.843492985
vt 0.540368974 0.863187015
vt 0.516179025 0.908773005
vt 0.494244009 0.930558026
vt 0.558349013 0.908764005
vt 0.539932013 0.955370009
vt 0.494865 0.974045992
vt 0.972680986 0.953981996
vt 0.93325901 0.939785004
vt 0.947109997 0.986936986
vt 0.976445973 0.907101989
vt 0.60919857 0.92781198
vt 0.564273 0.919894993
vt 0.585330665 0.965882897
vt 0.584867001 0.879212022
vt 0.630271018 0.904031992
vt 0.631623983 0.860782981
vt 0.67711699 0.880477011
vt 0.630809009 0.926060975
vt 0.630934417 0.94779402
vt 0.652926981 0.929885983
vt 0.630993009 0.947848022
vt 0.695097029 0.926065028
vt 0.67711103 0.971650004
vt 0.631613016 0.991335988
vt 0.447705775 0.948570073
vt 0.472644389 0.909021854
vt 0.427525014 0.899004996
vt 0.445504993 0.863187015
vt 0.493991613 0.930305243
vt 0.494060993 0.908770978
vt 0.493523002 0.886741996
vt 0.490998 0.843492985
vt 0.540368974 0.863187015
vt 0.516179025 0.908773005
vt 0.494244009 0.930558026
vt 0.558349013 0.908764005
vt 0.539932013 0.955370009
vt 0.494865 0.974045992
vt 0.972680986 0.953981996
vt 0.947109997 0.986936986
vt 0.93325901 0.939785004
vt 0.976445973 0.907101989
vt 0.60919857 0.92781198
vt 0.585330665 0.965882897
vt 0.564273 0.919894993
vt 0.584867001 0.879212022
vt 0.630271018 0.904031992
vt 0.631623983 0.860782981
vt 0.67711699 0.880477011
vt 0.630809009 0.926060975
vt 0.630934417 0.94779402
vt 0.652926981 0.929885983
vt 0.630993009 0.947848022
vt 0.695097029 0.926065028
vt 0.67711103 0.971650004
vt 0.631613016 0.991335988
vt 0.282384992 0.459443986
vt 0.354514003 0.459367007
vt 0.354936987 0.506596982
vt 0.278726012 0.509645998
vt 0.432413012 0.510684013
vt 0.427044004 0.460404009
vt 0.289460987 0.431490004
vt 0.354422003 0.431490004
vt 0.418956012 0.431490004
vt 0.355747014 0.541954994
vt 0.287149996 0.546633005
vt 0.425179988 0.549650013
vt 0.356642008 0.586802006
vt 0.300327986 0.587382019
vt 0.410151988 0.587487996
vt 0.275285989 0.457522988
vt 0.244681001 0.453509986
vt 0.231408998 0.511116982
vt 0.274100006 0.508976996
vt 0.28529799 0.432000011
vt 0.261238992 0.433530003
vt 0.280896008 0.548287988
vt 0.245774001 0.551174998
vt 0.296671003 0.589088023
vt 0.273059994 0.596302986
vt 0.465939999 0.452605993
vt 0.429998994 0.458642006
vt 0.438266993 0.510191023
vt 0.472261012 0.514966011
vt 0.445661992 0.429212987
vt 0.421292007 0.431971997
vt 0.426548988 0.550199986
vt 0.461950004 0.561206996
vt 0.413852006 0.58672601
vt 0.430445999 0.593019009
vt 0.282384992 0.459443986
vt 0.278726012 0.509645998
vt 0.354936987 0.506596982
vt 0.354514003 0.459367007
vt 0.427044004 0.460404009
vt 0.432413012 0.510684013
vt 0.289460987 0.431490004
vt 0.354422003 0.431490004
vt 0.418956012 0.431490004
vt 0.287149996 0.546633005
vt 0.355747014 0.541954994
vt 0.425179988 0.549650013
vt 0.300327986 0.587382019
vt 0.356642008 0.586802006
vt 0.410151988 0.587487996
vt 0.282384992 0.459443986
vt 0.278726012 0.509645998
vt 0.354936987 0.506596982
vt 0.354514003 0.459367007
vt 0.432413012 0.510684013
vt 0.427044004 0.460404009
vt 0.289460987 0.431490004
vt 0.354422003 0.431490004
vt 0.418956012 0.431490004
vt 0.355747014 0.541954994
vt 0.287149996 0.546633005
vt 0.425179988 0.549650013
vt 0.356642008 0.586802006
vt 0.300327986 0.587382019
vt 0.410151988 0.587487996
vt 0.275285989 0.457522988
vt 0.274100006 0.508976996
vt 0.231408998 0.511116982
vt 0.244681001 0.453509986
vt 0.28529799 0.432000011
vt 0.261238992 0.433530003
vt 0.280896008 0.548287988
vt 0.245774001 0.551174998
vt 0.296671003 0.589088023
vt 0.273059994 0.596302986
vt 0.465939999 0.452605993
vt 0.472261012 0.514966011
vt 0.438266993 0.510191023
vt 0.429998994 0.458642006
vt 0.445661992 0.429212987
vt 0.421292007 0.431971997
vt 0.426548988 0.550199986
vt 0.461950004 0.561206996
vt 0.413852006 0.58672601
vt 0.430445999 0.593019009
vt 0.282384992 0.459443986
vt 0.354514003 0.459367007
vt 0.354936987 0.506596982
vt 0.278726012 0.509645998
vt 0.427044004 0.460404009
vt 0.432413012 0.510684013
vt 0.289460987 0.431490004
vt 0.354422003 0.431490004
vt 0.418956012 0.431490004
vt 0.287149996 0.546633005
vt 0.355747014 0.541954994
vt 0.425179988 0.549650013
vt 0.300327986 0.587382019
vt 0.356642008 0.586802006
vt 0.410151988 0.587487996
vt 0.296250999 0.946934998
vt 0.337085992 0.947166979
vt 0.338712007 0.646116018
vt 0.298260987 0.645887017
vt 0.255304992 0.946702003
vt 0.257946014 0.645658016
vt 0.214111 0.946469009
vt 0.215818003 0.645419002
vt 0.379505008 0.646353006
vt 0.379505008 0.947402
vt 0.298260987 0.645887017
vt 0.338712007 0.646116018
vt 0.336686999 0.636798978
vt 0.298927009 0.636584997
vt 0.257946014 0.645658016
vt 0.260895997 0.63636899
vt 0.215818003 0.645419002
vt 0.228256002 0.636183977
vt 0.368948013 0.63698101
vt 0.379505008 0.646353006
vt 0.298927009 0.636584997
vt 0.336686999 0.636798978
vt 0.335597992 0.624521017
vt 0.298969001 0.62431401
vt 0.260895997 0.63636899
vt 0.262109995 0.624104023
vt 0.228256002 0.636183977
vt 0.230807006 0.623926997
vt 0.366652995 0.62469703
vt 0.368948013 0.63698101
vt 0.337085992 0.947166979
vt 0.296250999 0.946934998
vt 0.296021014 0.952566028
vt 0.335483015 0.952789009
vt 0.25661701 0.952342987
vt 0.255304992 0.946702003
vt 0.220153004 0.95213598
vt 0.214111 0.946469009
vt 0.379505008 0.947402
vt 0.371621996 0.952995002
vt 0.335483015 0.952789009
vt 0.296021014 0.952566028
vt 0.29589799 0.973764002
vt 0.331847012 0.973968029
vt 0.259860009 0.973559022
vt 0.25661701 0.952342987
vt 0.226537004 0.973371029
vt 0.220153004 0.95213598
vt 0.371621996 0.952995002
vt 0.364820004 0.974155009
vt 0.537675023 0.531454027
vt 0.572206974 0.544483006
vt 0.576219976 0.509498
vt 0.539681017 0.513961017
vt 0.604403019 0.540380001
vt 0.606409013 0.522888005
vt 0.541302979 0.474382997
vt 0.541459978 0.496677011
vt 0.578363001 0.505904019
vt 0.577445984 0.464237988
vt 0.613430977 0.496683002
vt 0.613430977 0.474144012
vt 0.521296978 0.485229999
vt 0.527522981 0.512395024
vt 0.633593976 0.485237986
vt 0.627366006 0.513607025
vt 0.527342021 0.456088006
vt 0.577445984 0.460298985
vt 0.577449977 0.418841988
vt 0.521296978 0.485229999
vt 0.633593976 0.485237986
vt 0.627883017 0.456016004
vt 0.593833983 0.421972007
vt 0.577445984 0.460298985
vt 0.785742998 0.520520985
vt 0.773039997 0.504876018
vt 0.735382974 0.51623702
vt 0.735019982 0.55339998
vt 0.685929 0.518131971
vt 0.700945973 0.505626023
vt 0.792648017 0.492309004
vt 0.680383027 0.489621013
vt 0.773189008 0.482950002
vt 0.737468004 0.471962988
vt 0.736285985 0.510358989
vt 0.772494018 0.501601994
vt 0.700783014 0.501281023
vt 0.700343013 0.482248008
vt 0.792590976 0.493535995
vt 0.682265997 0.489596993
vt 0.787101984 0.463797987
vt 0.738012016 0.428530008
vt 0.737700999 0.466412991
vt 0.774122 0.478868008
vt 0.792648017 0.492309004
vt 0.700399995 0.481020987
vt 0.687287986 0.461407989
vt 0.680383027 0.489621013
vt 0.736288011 0.429370999
vt 0.689391971 0.460581005
vt 0.698656976 0.474229008
vt 0.734610021 0.463786006
vn 0.588266432 0.611683965 -0.528947413
vn 0.594070673 0.667497575 -0.448917508
vn -0.240377098 0.618105054 -0.748441637
vn -0.260971546 0.384414554 -0.88550514
vn 0.840664327 0.403793871 0.36087957
vn 0.878525376 0.157110974 0.451120049
vn 0.0735689625 -0.146558821 0.986462414
vn 0.0840552822 -0.377723306 0.922095358
vn -0.167664915 0.768619597 -0.617343009
vn 0.619324625 0.689885795 -0.374826044
vn 0.894200027 -0.0351220369 0.446287751
vn 0.0811613873 -0.506415188 0.858461738
vn -0.0354706384 0.404283822 0.913945496
vn 0.0989452749 -0.0976068079 0.990294278
vn 0.896537006 0.376044571 0.234119371
vn 0.711140335 0.422088176 -0.562246382
vn 0.994340539 0.106216729 0.00220936327
vn 0.846824706 0.103368491 -0.521730602
vn 0.444282264 -0.894181609 -0.055249732
vn 0.184534505 -0.234967113 -0.954325676
vn -0.147332147 0.155420244 -0.976799786
vn 0.27935493 -0.381134212 0.881304502
vn -0.260971546 0.384414554 -0.88550514
vn -0.240377098 0.618105054 -0.748441637
vn -0.908578694 0.162768155 -0.384696335
vn -0.908437371 -0.105686791 -0.404440165
vn -0.829182267 0.429205686 -0.358104944
vn -0.167664915 0.768619597 -0.617343009
vn -0.0354706384 0.404283822 0.913945496
vn -0.885079384 -0.267646462 0.380788475
vn 0.0811613873 -0.506415188 0.858461738
vn -0.848115921 -0.386183023 -0.362714857
vn -0.147332147 0.155420244 -0.976799786
vn -0.62378633 -0.758055508 -0.190374553
vn -0.771193206 -0.515420973 0.373633713
vn -0.595197618 -0.774104834 0.215641901
vn 0.444282264 -0.894181609 -0.055249732
vn 0.27935493 -0.381134212 0.881304502
vn 0.184534505 -0.234967113 -0.954325676
vn -0.825824738 -0.397717208 0.399793208
vn -0.855729938 -0.354345441 0.377048522
vn 0.0989452749 -0.0976068079 0.990294278
vn 0.0735689625 -0.146558821 0.986462414
vn 0.0840552822 -0.377723306 0.922095358
vn 0.588266313 0.611684084 0.528947413
vn -0.260971636 0.384414375 0.88550514
vn -0.240377113 0.618105233 0.748441517
vn 0.594070494 0.667497694 0.448917598
vn 0.840664268 0.403793842 -0.36087963
vn 0.878525376 0.157110855 -0.451120079
vn 0.0735689625 -0.146558911 -0.986462414
vn 0.0840551704 -0.37772283 -0.922095597
vn -0.167664781 0.768619835 0.61734283
vn 0.619324744 0.689885616 0.374826193
vn 0.894200027 -0.035122674 -0.446287721
vn 0.0811612383 -0.506414652 -0.858462036
vn -0.0354706049 0.404283941 -0.913945496
vn 0.0989453644 -0.097607106 -0.990294278
vn 0.896537066 0.376044542 -0.234119296
vn 0.711140335 0.422088176 0.562246382
vn 0.994340539 0.106216833 -0.00220928132
vn 0.846824646 0.103368372 0.521730721
vn 0.444282442 -0.89418149 0.055249583
vn 0.184534252 -0.234967262 0.954325676
vn -0.147332281 0.155420139 0.976799786
vn 0.279355139 -0.381134063 -0.881304443
vn -0.260971636 0.384414375 0.88550514
vn -0.908437312 -0.105686896 0.404440254
vn -0.908578694 0.162768289 0.384696364
vn -0.240377113 0.618105233 0.748441517
vn -0.829182208 0.429206103 0.358104795
vn -0.167664781 0.768619835 0.61734283
vn -0.0354706049 0.404283941 -0.913945496
vn -0.885079384 -0.267646223 -0.380788624
vn 0.0811612383 -0.506414652 -0.858462036
vn -0.848115861 -0.386182994 0.362714916
vn -0.147332281 0.155420139 0.976799786
vn -0.623786449 -0.758055389 0.190374479
vn -0.771193206 -0.515421093 -0.373633713
vn -0.595197797 -0.774104834 -0.215641797
vn 0.444282442 -0.89418149 0.055249583
vn 0.279355139 -0.381134063 -0.881304443
vn 0.184534252 -0.234967262 0.954325676
vn -0.825824618 -0.397717148 -0.399793386
vn -0.855730057 -0.354345083 -0.377048641
vn 0.0989453644 -0.097607106 -0.990294278
vn 0.0735689625 -0.146558911 -0.986462414
vn 0.0840551704 -0.37772283 -0.922095597
vn 0.968861401 -0.105971679 -0.223780096
vn 0.995521963 0.056537047 -0.0757605731
vn 0.978259087 -0.0101993876 -0.207135737
vn 0.983856618 0.139589354 -0.111986428
vn 0.984543562 0.153960466 0.0834877715
vn 0.969707489 0.12822625 0.207907006
vn -0.958588064 -0.0198664945 -0.284102499
vn -0.959407508 0.068018809 -0.273698151
vn -0.977830589 0.151545212 -0.144503906
vn -0.960138559 0.235077858 -0.151236087
vn -0.967336118 0.252569675 0.0216638129
vn -0.968563259 0.232240587 0.0891603082
vn -0.185975134 0.328508377 -0.926010489
vn -0.142990693 -0.158029333 -0.977026284
vn 0.371407479 -0.114039414 -0.921439886
vn 0.436610579 0.352317065 -0.827794552
vn 0.405957311 0.69119823 -0.597865939
vn 0.85041362 0.267738909 -0.452893525
vn 0.785955489 -0.0915567651 -0.611466587
vn 0.6100896 -0.440770566 -0.658416331
vn 0.730398774 0.626281738 -0.272559583
vn 0.954212606 -0.0250838939 -0.298075765
vn 0.981256008 0.192708775 0
vn 0.999851525 -0.0172346812 -1.03693864E-07
vn 0.813069403 -0.418787539 -0.404394865
vn 0.716314316 -0.615760684 -0.328226507
vn 0.883586168 -0.468268573 0
vn 0.673870742 -0.738849223 0
vn 0.540976226 -0.83897084 -0.0589289181
vn 0.500122786 -0.865954459 0
vn 0.608051062 -0.713292778 -0.34855029
vn 0.492841363 -0.85699445 -0.150558919
vn 0.208613604 -0.831370413 -0.51507628
vn 0.187174514 -0.957385063 -0.219953269
vn -0.119634524 -0.76011622 -0.638679028
vn -0.105709866 -0.960273087 -0.258265436
vn 0.498277307 -0.867017746 -1.62135592E-07
vn 0.173175499 -0.984890997 -2.11581067E-07
vn -0.0670469776 -0.997749805 -2.25961131E-07
vn 0.226337016 0.751538038 -0.619646788
vn -0.201087505 0.949049473 -0.242629319
vn 0.328708738 0.881935954 -0.337845415
vn 0.33082065 0.943693638 0
vn -0.132705063 0.991155565 1.63585298E-07
vn 0.767582238 0.640950441 0
vn 0.95978421 0.28073892 0
vn -0.201087505 0.949049473 -0.242629319
vn -0.132705063 0.991155565 1.63585298E-07
vn -0.64529562 0.763932943 1.22047425E-07
vn -0.702578902 0.522509813 -0.483080119
vn -0.234436899 0.00568541745 -0.972114682
vn -0.705705941 -0.0207963809 -0.70819962
vn -0.702578902 0.522509813 -0.483080119
vn -0.247957096 0.968770921 -0.000458757568
vn -0.672562301 -0.590649009 -0.445862949
vn -0.185975134 0.328508377 -0.926010489
vn -0.142990693 -0.158029333 -0.977026284
vn -0.119634524 -0.76011622 -0.638679028
vn -0.105709866 -0.960273087 -0.258265436
vn -0.631324768 -0.775518537 -1.01693686E-07
vn -0.267209619 -0.963638306 0.000454146793
vn -0.0670469776 -0.997749805 -2.25961131E-07
vn -0.461880296 0.679687083 -0.569817424
vn -0.201087505 0.949049473 -0.242629319
vn -0.64529562 0.763932943 1.22047425E-07
vn 0.968861282 -0.105973154 0.223780036
vn 0.978259027 -0.0102001829 0.207135782
vn 0.995521963 0.0565363057 0.0757606402
vn 0.983856559 0.139589831 0.111986421
vn 0.984543562 0.153960153 -0.0834877864
vn 0.969707727 0.128224686 -0.207906961
vn -0.958588123 -0.0198656712 0.284102499
vn -0.977830529 0.15154551 0.144503996
vn -0.959407508 0.068018429 0.273698241
vn -0.9601385 0.235078067 0.151236162
vn -0.96733588 0.252570897 -0.0216638558
vn -0.96856308 0.232241347 -0.0891603827
vn -0.182797566 0.335000098 0.924315989
vn 0.441469371 0.343601078 0.828880608
vn 0.371407598 -0.11403998 0.921439767
vn 0.20179525 0.75668031 0.621863008
vn -0.141449332 -0.156264514 0.977534413
vn -0.117684074 -0.761397541 0.637514114
vn 0.208613694 -0.831370473 0.51507616
vn 0.187175006 -0.957385063 0.219953284
vn 0.492841184 -0.856994569 0.150558665
vn 0.608052075 -0.713291705 0.348550677
vn 0.540977776 -0.838969827 0.0589287877
vn 0.716313958 -0.61576122 0.328226149
vn 0.673870742 -0.738849223 0
vn 0.883586168 -0.468268573 0
vn 0.813069582 -0.41878733 0.404394686
vn 0.500122786 -0.865954459 0
vn 0.785955429 -0.0915569812 0.611466527
vn -0.105709992 -0.960273147 0.258265197
vn 0.610089719 -0.440771073 0.658415854
vn 0.498277307 -0.867017746 -1.62135592E-07
vn 0.173175499 -0.984890997 -2.11581067E-07
vn -0.0670469776 -0.997749805 -2.25961131E-07
vn 0.954212606 -0.0250839517 0.298075736
vn 0.850413561 0.26773876 0.452893764
vn 0.981256008 0.192708775 0
vn 0.435041517 0.679857731 0.590366244
vn 0.730398774 0.626281679 0.272559822
vn 0.336173147 0.883293569 0.326772243
vn 0.33082065 0.943693638 0
vn 0.767582238 0.640950441 0
vn 0.95978421 0.28073892 0
vn -0.192477316 0.949334085 0.248429701
vn 0.20179525 0.75668031 0.621863008
vn -0.132705063 0.991155565 1.63585298E-07
vn 0.954212606 -0.0250839517 0.298075736
vn 0.981256008 0.192708775 0
vn 0.999851525 -0.0172346812 -1.03693864E-07
vn 0.813069582 -0.41878733 0.404394686
vn 0.883586168 -0.468268573 0
vn -0.192477316 0.949334085 0.248429701
vn -0.64529562 0.763932943 1.22047425E-07
vn -0.132705063 0.991155565 1.63585298E-07
vn -0.704105437 0.517134905 0.486628205
vn -0.23454766 0.00608483283 0.972085595
vn -0.704105437 0.517134905 0.486628205
vn -0.704014242 -0.0241605975 0.709774673
vn -0.247957096 0.968770921 -0.000458757568
vn -0.673335969 -0.591749847 0.443227798
vn -0.267209619 -0.963638306 0.000454146793
vn -0.117684074 -0.761397541 0.637514114
vn -0.182797566 0.335000098 0.924315989
vn -0.141449332 -0.156264514 0.977534413
vn -0.105709992 -0.960273147 0.258265197
vn -0.631324768 -0.775518537 -1.01693686E-07
vn -0.0670469776 -0.997749805 -2.25961131E-07
vn -0.461880624 0.679686368 0.569818079
vn -0.192477316 0.949334085 0.248429701
vn -0.64529562 0.763932943 1.22047425E-07
vn 0.20179525 0.75668031 0.621863008
vn 0.336173147 0.883293569 0.326772243
vn 0.435041517 0.679857731 0.590366244
vn 0.441469371 0.343601078 0.828880608
vn -0 4.63087162E-07 -1
vn -1.20807627E-07 -0.86602211 -0.500005662
vn 0.913390577 -0.352544904 -0.203543097
vn 0.913391113 -3.84662741E-07 -0.407083124
vn -1.25411518E-07 0.86602062 0.500008285
vn -0 0 1
vn -0.913390577 -0.352544874 -0.203543007
vn -0.913391173 -7.52601068E-07 -0.407083094
vn -1.25411518E-07 0.86602062 0.500008285
vn -0 0 1
vn -1.20807627E-07 -0.86602211 -0.500005662
vn -1.81211504E-07 -0.866022706 0.500004709
vn 0.913390517 -0.352545232 0.203542709
vn 0.913390577 -0.352544904 -0.203543097
vn -0 0.866021097 -0.50000751
vn -1.25411518E-07 0.86602062 0.500008285
vn -0.913390577 -0.352544874 -0.203543007
vn -0.913390636 -0.352544963 0.203542665
vn -1.25411518E-07 0.86602062 0.500008285
vn -0 0.866021097 -0.50000751
vn 1.20806916E-07 0.866018116 0.500012636
vn 1.20807016E-07 0.866018414 -0.50001204
vn 0.913388729 0.352548629 -0.20354487
vn 0.91338861 0.352548659 0.203545123
vn 1.67214225E-07 -0.866015971 0.500016451
vn 2.50821273E-07 -0.866015732 -0.500016749
vn -0.913388729 0.352548599 -0.203545019
vn -0.91338861 0.352548689 0.203545213
vn 1.67214225E-07 -0.866015971 0.500016451
vn 2.50821273E-07 -0.866015732 -0.500016749
vn 1.20807016E-07 0.866018414 -0.50001204
vn -0 4.63087162E-07 -1
vn 0.913391113 -3.84662741E-07 -0.407083124
vn 0.913388729 0.352548629 -0.20354487
vn -0 0 1
vn 1.67214225E-07 -0.866015971 0.500016451
vn -0.913388729 0.352548599 -0.203545019
vn -0.913391173 -7.52601068E-07 -0.407083094
vn 1.67214225E-07 -0.866015971 0.500016451
vn -0 0 1
vn 0.913390517 -0.352545232 0.203542709
vn -1.81211504E-07 -0.866022706 0.500004709
vn -0 0 1
vn 0.913391173 -7.3587654E-07 0.407083094
vn -0 0.866021097 -0.50000751
vn -0 6.37480241E-07 -1
vn -0.913390636 -0.352544963 0.203542665
vn -0.913391173 -8.69672363E-07 0.407083094
vn -0 0.866021097 -0.50000751
vn -0 6.37480241E-07 -1
vn 0.91338861 0.352548659 0.203545123
vn 0.913391173 -7.3587654E-07 0.407083094
vn -0 0 1
vn 1.20806916E-07 0.866018116 0.500012636
vn 2.50821273E-07 -0.866015732 -0.500016749
vn -0 6.37480241E-07 -1
vn -0.913391173 -8.69672363E-07 0.407083094
vn -0.91338861 0.352548689 0.203545213
vn -0 6.37480241E-07 -1
vn 2.50821273E-07 -0.866015732 -0.500016749
vn -8.79497966E-05 0.999999881 -0.000489448546
vn -0.247957096 0.968770921 -0.000458757568
vn -0.23454766 0.00608483283 0.972085595
vn -0 -4.91584324E-05 1
vn -0.267209619 -0.963638306 0.000454146793
vn 8.79201179E-05 -0.999999881 0.000489568745
vn -0.234436899 0.00568541745 -0.972114682
vn -0 1.12684084E-07 -1
vn -0.267209619 -0.963638306 0.000454146793
vn 8.79201179E-05 -0.999999881 0.000489568745
vn -0.77670151 0.629868925 0
vn -0.973767161 0.227546677 0
vn -0.965464413 -2.20168045E-06 0.260534912
vn -0.714612007 2.51608685E-06 0.699521065
vn -0.973769784 -0.22753568 -1.45775687E-07
vn -0.77671802 -0.62984848 -1.44186785E-07
vn -3.57815395E-07 1 0
vn -0 0 1
vn -3.36767499E-07 -1 0
vn -0.965464532 -1.25233078E-06 -0.260534674
vn -0.714612782 3.26855775E-06 -0.69952023
vn -0.973769784 -0.22753568 -1.45775687E-07
vn -0.77671802 -0.62984848 -1.44186785E-07
vn -6.01425825E-07 0 -1
vn -3.36767499E-07 -1 0
vn -0 0.707115114 0.707098424
vn -1.5137239E-07 0 1
vn -0.732752502 2.34259505E-06 0.680495203
vn -2.30547997E-07 -0.707106888 0.70710665
vn -0.732753932 0.680493712 -2.56666453E-06
vn -1 -9.27147312E-07 3.23312918E-07
vn -0.732752442 -0.680495262 -2.34259414E-06
vn -1.79754636E-07 -1 0
vn -0 -0.707091928 -0.707121611
vn -0.732748747 1.99632404E-06 -0.680499256
vn -0.732753932 0.680493712 -2.56666453E-06
vn 1.22988155E-07 -3.68964464E-07 -1
vn 2.59377856E-07 0.707099736 -0.707113862
vn 1.60834219E-07 1 0
vn 1.60834219E-07 1 0
vn -0 0.707115114 0.707098424
vn -0.732753932 0.680493712 -2.56666453E-06
vn 0.732754052 0.680493534 -2.22036851E-06
vn 0.732752442 2.07778112E-06 0.680495262
vn -1.5137239E-07 0 1
vn -0 0.707115114 0.707098424
vn -2.30547997E-07 -0.707106888 0.70710665
vn 0.732752204 -0.680495501 -2.56666931E-06
vn -1.79754636E-07 -1 0
vn -0 -0.707091928 -0.707121611
vn 1 -3.32822026E-07 3.04294417E-07
vn 0.732754052 0.680493534 -2.22036851E-06
vn 0.732748926 2.24077189E-06 -0.680499077
vn 0.732754052 0.680493534 -2.22036851E-06
vn 1.22988155E-07 -3.68964464E-07 -1
vn 2.59377856E-07 0.707099736 -0.707113862
vn 1.60834219E-07 1 0
vn -0 0.707115054 0.707098484
vn 0.732752502 2.54629867E-06 0.680495203
vn 1.98676275E-07 0 1
vn 2.01729506E-07 -0.707106829 0.707106769
vn 0.732753932 0.680493712 -2.50555354E-06
vn 1 -4.65950905E-07 2.9003067E-07
vn 0.732752502 -0.680495262 -2.36296432E-06
vn 1.89215314E-07 -1 0
vn -0 -0.707091808 -0.70712173
vn 0.732748866 1.89447087E-06 -0.680499196
vn 0.732753932 0.680493712 -2.50555354E-06
vn -2.17594405E-07 -1.04066885E-07 -1
vn -2.8819764E-07 0.707099855 -0.707113743
vn -2.0813836E-07 1 0
vn -2.0813836E-07 1 0
vn 0.732753932 0.680493712 -2.50555354E-06
vn -0 0.707115054 0.707098484
vn -0.732754111 0.680493534 -2.15925752E-06
vn -0.732752502 2.2611141E-06 0.680495262
vn -0 0.707115054 0.707098484
vn 1.98676275E-07 0 1
vn 2.01729506E-07 -0.707106829 0.707106769
vn -0.732752621 -0.680495083 -2.56666954E-06
vn 1.89215314E-07 -1 0
vn -0 -0.707091808 -0.70712173
vn -1 -2.90030556E-07 3.09048971E-07
vn -0.732754111 0.680493534 -2.15925752E-06
vn -0.732749045 2.48521883E-06 -0.680499017
vn -0.732754111 0.680493534 -2.15925752E-06
vn -2.17594405E-07 -1.04066885E-07 -1
vn -2.8819764E-07 0.707099855 -0.707113743
vn -2.0813836E-07 1 0
vn 0.421929389 -0.873289645 0.243599728
vn 1.32958803E-06 -0.873292327 0.487196565
vn -8.69436576E-07 -0.0248489957 0.999691188
vn 0.8657552 -0.0248481315 0.499850452
vn -0.865752637 -0.024848232 0.499854952
vn -0.421926618 -0.873289883 0.243603721
vn -0.866022825 -3.54557596E-05 -0.50000447
vn -1.48904542E-06 -3.50670198E-05 -1
vn 0.866018295 -3.51874405E-05 -0.500012338
vn 1.52681457E-06 0.959741294 0.280885458
vn 0.243257821 0.95974052 0.140441418
vn -0.24325639 0.959740281 0.140445486
vn -1.48904542E-06 -3.50670198E-05 -1
vn -0.866022825 -3.54557596E-05 -0.50000447
vn 0.866018295 -3.51874405E-05 -0.500012338
vn 0.421929359 -0.873289526 -0.243600324
vn 0.421929389 -0.873289645 0.243599728
vn 0.8657552 -0.0248481315 0.499850452
vn 0.86575526 -0.0248482563 -0.499850363
vn -0.866022825 -3.51430572E-05 0.50000453
vn -0.866022825 -3.54557596E-05 -0.50000447
vn 0.243257776 0.959740639 -0.140440747
vn 0.243257821 0.95974052 0.140441418
vn -0.866022825 -3.51430572E-05 0.50000453
vn -0.866022825 -3.54557596E-05 -0.50000447
vn -0.421926618 -0.873289883 0.243603721
vn -0.421926856 -0.873289526 -0.24360466
vn -0.865752518 -0.02484826 -0.499855131
vn -0.865752637 -0.024848232 0.499854952
vn 0.866018295 -3.51874405E-05 -0.500012338
vn 0.866018295 -3.52916868E-05 0.500012279
vn -0.243256375 0.959740341 -0.140444875
vn -0.24325639 0.959740281 0.140445486
vn 0.866018295 -3.52916868E-05 0.500012279
vn 0.866018295 -3.51874405E-05 -0.500012338
vn 0.421929359 -0.873289526 -0.243600324
vn 0.86575526 -0.0248482563 -0.499850363
vn -0 -0.0248488821 -0.999691188
vn 1.35174741E-06 -0.87329179 -0.487197489
vn -0.421926856 -0.873289526 -0.24360466
vn -0.865752518 -0.02484826 -0.499855131
vn -0.866022825 -3.51430572E-05 0.50000453
vn -1.7570743E-06 -3.53797368E-05 1
vn 0.866018295 -3.52916868E-05 0.500012279
vn 0.243257776 0.959740639 -0.140440747
vn 1.6217474E-06 0.959741533 -0.280884832
vn -0.243256375 0.959740341 -0.140444875
vn -0.866022825 -3.51430572E-05 0.50000453
vn -1.7570743E-06 -3.53797368E-05 1
vn 0.866018295 -3.52916868E-05 0.500012279
vn -0.421929479 -0.873289585 0.243599787
vn -0.86575526 -0.024848111 0.499850363
vn 8.4528557E-07 -0.0248490609 0.999691188
vn -1.33697438E-06 -0.873292387 0.487196565
vn 0.865752697 -0.0248482786 0.499854833
vn 0.421926647 -0.873289883 0.243603572
vn 0.866022885 -3.54110816E-05 -0.500004292
vn 1.48904587E-06 -3.50223563E-05 -1
vn -0.866018295 -3.50980918E-05 -0.500012279
vn -1.56636906E-06 0.959741294 0.280885518
vn -0.243257761 0.959740579 0.140441358
vn 0.24325636 0.959740281 0.140445381
vn 1.48904587E-06 -3.50223563E-05 -1
vn 0.866022885 -3.54110816E-05 -0.500004292
vn -0.866018295 -3.50980918E-05 -0.500012279
vn -0.421929419 -0.873289526 -0.24360019
vn -0.86575532 -0.0248481967 -0.499850303
vn -0.86575526 -0.024848111 0.499850363
vn -0.421929479 -0.873289585 0.243599787
vn 0.866022825 -3.49643524E-05 0.50000453
vn 0.866022885 -3.54110816E-05 -0.500004292
vn -0.243257657 0.959740639 -0.140440628
vn -0.243257761 0.959740579 0.140441358
vn 0.866022825 -3.49643524E-05 0.50000453
vn 0.866022885 -3.54110816E-05 -0.500004292
vn 0.421926647 -0.873289883 0.243603572
vn 0.865752697 -0.0248482786 0.499854833
vn 0.865752578 -0.0248482283 -0.499855012
vn 0.421926796 -0.873289526 -0.243604511
vn -0.866018295 -3.50980918E-05 -0.500012279
vn -0.866018355 -3.52023453E-05 0.500012219
vn 0.24325636 0.9597404 -0.14044477
vn 0.24325636 0.959740281 0.140445381
vn -0.866018355 -3.52023453E-05 0.500012219
vn -0.866018295 -3.50980918E-05 -0.500012279
vn -0.421929419 -0.873289526 -0.24360019
vn -1.3591341E-06 -0.87329185 -0.487197459
vn -0 -0.0248488579 -0.999691188
vn -0.86575532 -0.0248481967 -0.499850303
vn 0.421926796 -0.873289526 -0.243604511
vn 0.865752578 -0.0248482283 -0.499855012
vn 0.866022825 -3.49643524E-05 0.50000453
vn 1.86130774E-06 -3.51712697E-05 1
vn -0.866018355 -3.52023453E-05 0.500012219
vn -0.243257657 0.959740639 -0.140440628
vn -1.61383639E-06 0.959741533 -0.280884653
vn 0.24325636 0.9597404 -0.14044477
vn 0.866022825 -3.49643524E-05 0.50000453
vn 1.86130774E-06 -3.51712697E-05 1
vn -0.866018355 -3.52023453E-05 0.500012219
vn 1.6630274E-07 1 0
vn 1.63227213E-07 0 -1
vn 1.63227213E-07 -1.17361324E-07 -1
vn 1.66302712E-07 1 0
vn -1.68988151E-07 1.17361317E-07 1
vn -1.68988166E-07 0 1
vn -1.72954799E-07 -1 0
vn -1.72954827E-07 -1 0
vn -1.72954827E-07 -1 0
vn -1.72954799E-07 -1 0
vn 0.973765612 0.227553472 -5.59949513E-06
vn 0.965470731 0 -0.260511577
vn 0.965470731 0 -0.260511637
vn 0.973765612 0.227553427 2.68135113E-06
vn 0.965467989 0 0.26052171
vn 0.965467989 0 0.26052171
vn 0.973765612 -0.227553472 -5.55090901E-06
vn 0.973765612 -0.227553457 2.74160607E-06
vn 0.973765612 -0.227553457 2.74160607E-06
vn 0.973765612 -0.227553472 -5.55090901E-06
vn -0 1 0
vn -0 0 -1
vn -0 0 -1
vn -0 1 0
vn -0 0 1
vn -0 0 1
vn -0 -1 0
vn -0 -1 0
vn -0 -1 0
vn -0 -1 0
vn -0.950236082 -1.49577502E-07 -0.311530858
vn -0.961972713 0.273145527 -6.33658783E-06
vn -0.961972713 0.273145556 0
vn -0.950236082 -1.43994868E-07 -0.311530858
vn -0.950220942 0 0.311577022
vn -0.950220942 0 0.311576992
vn -0.961972713 -0.273145586 -1.37056162E-07
vn -0.961972713 -0.273145556 -6.44459578E-06
vn -0.961972713 -0.273145556 -6.44459578E-06
vn -0.961972713 -0.273145586 -1.37056162E-07
vn -0 0 -1
vn -0 1 0
vn -0 1 0
vn -0 0 -1
vn -0 0 1
vn -0 0 1
vn -0 -1 0
vn -0 -1 0
vn -0 -1 0
vn -0 -1 0
vn -0.569884181 0.821725011 4.31561148E-07
vn 1.83416603E-07 1 5.61713307E-07
vn -0 0.499998987 0.866025984
vn -0.569883525 0.410861343 0.711635888
vn 0.569882989 0.821725905 4.73324064E-07
vn 0.569882512 0.410862863 0.711635828
vn -0.569883764 -0.410862595 0.711634994
vn -0.569883525 0.410861343 0.711635888
vn -0 0.499998987 0.866025984
vn -2.52197708E-07 -0.500000715 0.866025031
vn 0.569882512 0.410862863 0.711635828
vn 0.56988281 -0.4108634 0.711635411
vn -1 -1.11872723E-07 0
vn -0.569884181 0.821725011 4.31561148E-07
vn 1 3.63586736E-07 0
vn 0.569882989 0.821725905 4.73324064E-07
vn -0.569884062 -0.82172507 -6.34648359E-07
vn -2.52197708E-07 -0.500000715 0.866025031
vn -1.94879973E-07 -1 -6.53421068E-07
vn -1 -1.11872723E-07 0
vn 1 3.63586736E-07 0
vn 0.569882751 -0.821726024 -7.07529523E-07
vn -1.94879973E-07 -1 -6.53421068E-07
vn -2.52197708E-07 -0.500000715 0.866025031
vn -0.569884181 0.821725011 4.31561148E-07
vn -0.569883466 0.410862744 -0.711635172
vn 3.09515201E-07 0.500000477 -0.86602509
vn 1.83416603E-07 1 5.61713307E-07
vn 0.569882989 0.821725905 4.73324064E-07
vn 0.569883049 0.41086334 -0.711635232
vn -1 -1.11872723E-07 0
vn 1 3.63586736E-07 0
vn -0.569883406 -0.410862207 -0.71163553
vn 1.26098797E-07 -0.499999642 -0.866025627
vn 3.09515201E-07 0.500000477 -0.86602509
vn -0.569883466 0.410862744 -0.711635172
vn 0.569883049 0.41086334 -0.711635232
vn 0.569882929 -0.410862446 -0.711635768
vn -1 -1.11872723E-07 0
vn 1 3.63586736E-07 0
vn -0.569884062 -0.82172507 -6.34648359E-07
vn -1.94879973E-07 -1 -6.53421068E-07
vn 1.26098797E-07 -0.499999642 -0.866025627
vn -0.569883406 -0.410862207 -0.71163553
vn -1 -1.11872723E-07 0
vn 0.569882929 -0.410862446 -0.711635768
vn 0.569882751 -0.821726024 -7.07529523E-07
vn 1 3.63586736E-07 0
vn -1.94879973E-07 -1 -6.53421068E-07
vn 0.569882751 -0.821726024 -7.07529523E-07
vn 0.569882929 -0.410862446 -0.711635768
vn 1.26098797E-07 -0.499999642 -0.866025627
g wp_010_023_001_Mesh_0
f 3/3/3 2/2/2 1/1/1
f 4/4/4 3/3/3 1/1/1
f 1/1/1 2/2/2 5/5/5
f 2/2/2 6/6/6 5/5/5
f 5/5/5 6/6/6 7/7/7
f 6/6/6 8/8/8 7/7/7
f 3/3/3 9/9/9 2/2/2
f 9/9/9 10/10/10 2/2/2
f 11/11/11 6/6/6 2/2/2
f 10/10/10 11/11/11 2/2/2
f 6/6/6 11/11/11 8/8/8
f 11/11/11 12/12/12 8/8/8
f 13/13/13 11/11/11 10/10/10
f 13/13/13 10/10/10 9/9/9
f 12/12/12 11/11/11 13/13/13
f 7/7/7 14/14/14 5/5/5
f 14/14/14 15/15/15 5/5/5
f 5/5/5 15/15/15 16/16/16
f 1/1/1 5/5/5 16/16/16
f 1/1/1 16/16/16 4/4/4
f 15/15/15 17/17/17 16/16/16
f 17/17/17 18/18/18 16/16/16
f 17/17/17 19/19/19 18/18/18
f 18/18/18 20/20/20 16/16/16
f 19/19/19 20/20/20 18/18/18
f 20/20/20 21/21/21 16/16/16
f 17/17/17 22/22/22 19/19/19
f 15/15/15 22/22/22 17/17/17
f 15/15/15 14/14/14 22/22/22
f 16/16/16 21/21/21 4/4/4
f 25/25/25 24/24/24 23/23/23
f 26/26/26 25/25/25 23/23/23
f 25/25/25 27/27/27 24/24/24
f 27/27/27 28/28/28 24/24/24
f 29/29/29 28/28/28 27/27/27
f 29/29/29 27/27/27 30/30/30
f 30/30/30 31/31/31 29/29/29
f 26/26/26 23/23/23 32/32/32
f 23/23/23 33/33/33 32/32/32
f 32/32/32 33/33/33 34/34/34
f 32/32/32 34/34/34 35/35/35
f 34/34/34 36/36/36 35/35/35
f 36/36/36 34/34/34 37/37/37
f 37/37/37 38/38/38 36/36/36
f 35/35/35 36/36/36 38/38/38
f 34/34/34 39/39/39 37/37/37
f 33/33/33 39/39/39 34/34/34
f 32/32/32 35/35/35 40/40/40
f 26/26/26 32/32/32 40/40/40
f 26/26/26 40/40/40 25/25/25
f 40/40/40 41/41/41 25/25/25
f 41/41/41 30/30/30 27/27/27
f 25/25/25 41/41/41 27/27/27
f 40/40/40 35/35/35 42/42/42
f 35/35/35 38/38/38 42/42/42
f 43/43/43 40/40/40 42/42/42
f 40/40/40 43/43/43 41/41/41
f 43/43/43 44/44/44 41/41/41
f 44/44/44 31/31/31 30/30/30
f 41/41/41 44/44/44 30/30/30
f 47/47/47 46/46/46 45/45/45
f 48/48/48 47/47/47 45/45/45
f 48/48/48 45/45/45 49/49/49
f 50/50/50 48/48/48 49/49/49
f 50/50/50 49/49/49 51/51/51
f 52/52/52 50/50/50 51/51/51
f 53/53/53 47/47/47 48/48/48
f 54/54/54 53/53/53 48/48/48
f 55/55/55 54/54/54 48/48/48
f 50/50/50 55/55/55 48/48/48
f 55/55/55 50/50/50 52/52/52
f 56/56/56 55/55/55 52/52/52
f 55/55/55 57/57/57 54/54/54
f 54/54/54 57/57/57 53/53/53
f 55/55/55 56/56/56 57/57/57
f 58/58/58 51/51/51 49/49/49
f 59/59/59 58/58/58 49/49/49
f 49/49/49 45/45/45 60/60/60
f 59/59/59 49/49/49 60/60/60
f 60/60/60 45/45/45 46/46/46
f 61/61/61 59/59/59 60/60/60
f 62/62/62 61/61/61 60/60/60
f 63/63/63 61/61/61 62/62/62
f 64/64/64 62/62/62 60/60/60
f 64/64/64 63/63/63 62/62/62
f 65/65/65 64/64/64 60/60/60
f 66/66/66 61/61/61 63/63/63
f 66/66/66 59/59/59 61/61/61
f 58/58/58 59/59/59 66/66/66
f 65/65/65 60/60/60 46/46/46
f 69/69/69 68/68/68 67/67/67
f 70/70/70 69/69/69 67/67/67
f 71/71/71 69/69/69 70/70/70
f 72/72/72 71/71/71 70/70/70
f 72/72/72 73/73/73 71/71/71
f 71/71/71 73/73/73 74/74/74
f 75/75/75 74/74/74 73/73/73
f 67/67/67 68/68/68 76/76/76
f 77/77/77 67/67/67 76/76/76
f 77/77/77 76/76/76 78/78/78
f 78/78/78 76/76/76 79/79/79
f 80/80/80 78/78/78 79/79/79
f 78/78/78 80/80/80 81/81/81
f 82/82/82 81/81/81 80/80/80
f 80/80/80 79/79/79 82/82/82
f 83/83/83 78/78/78 81/81/81
f 83/83/83 77/77/77 78/78/78
f 76/76/76 68/68/68 84/84/84
f 79/79/79 76/76/76 84/84/84
f 84/84/84 68/68/68 69/69/69
f 85/85/85 84/84/84 69/69/69
f 85/85/85 69/69/69 71/71/71
f 74/74/74 85/85/85 71/71/71
f 79/79/79 84/84/84 86/86/86
f 82/82/82 79/79/79 86/86/86
f 84/84/84 87/87/87 86/86/86
f 87/87/87 84/84/84 85/85/85
f 88/88/88 87/87/87 85/85/85
f 88/88/88 85/85/85 74/74/74
f 75/75/75 88/88/88 74/74/74
f 91/91/91 90/90/90 89/89/89
f 91/91/91 92/92/92 90/90/90
f 92/92/92 93/93/93 90/90/90
f 93/93/93 94/94/94 90/90/90
f 97/97/97 96/96/96 95/95/95
f 96/96/96 97/97/97 98/98/98
f 99/99/99 98/98/98 97/97/97
f 100/100/100 99/99/99 97/97/97
f 103/103/103 102/102/102 101/101/101
f 104/104/104 103/103/103 101/101/101
f 105/105/105 104/104/104 101/101/101
f 105/105/105 106/106/106 104/104/104
f 107/107/107 104/104/104 106/106/106
f 103/103/103 104/104/104 107/107/107
f 108/108/108 103/103/103 107/107/107
f 106/106/106 105/105/105 109/109/109
f 107/107/107 106/106/106 110/110/110
f 106/106/106 111/111/111 110/110/110
f 111/111/111 112/112/112 110/110/110
f 113/113/113 110/110/110 112/112/112
f 110/110/110 113/113/113 107/107/107
f 113/113/113 114/114/114 107/107/107
f 113/113/113 115/115/115 114/114/114
f 115/115/115 113/113/113 112/112/112
f 115/115/115 116/116/116 114/114/114
f 117/117/117 114/114/114 116/116/116
f 118/118/118 117/117/117 116/116/116
f 114/114/114 117/117/117 119/119/119
f 114/114/114 119/119/119 107/107/107
f 108/108/108 107/107/107 119/119/119
f 117/117/117 120/120/120 119/119/119
f 119/119/119 120/120/120 121/121/121
f 108/108/108 119/119/119 121/121/121
f 120/120/120 122/122/122 121/121/121
f 121/121/121 122/122/122 123/123/123
f 123/123/123 103/103/103 121/121/121
f 122/122/122 124/124/124 123/123/123
f 125/125/125 120/120/120 117/117/117
f 118/118/118 125/125/125 117/117/117
f 126/126/126 122/122/122 120/120/120
f 125/125/125 126/126/126 120/120/120
f 127/127/127 124/124/124 122/122/122
f 126/126/126 127/127/127 122/122/122
f 102/102/102 103/103/103 123/123/123
f 103/103/103 108/108/108 121/121/121
f 129/129/129 105/105/105 128/128/128
f 130/130/130 105/105/105 129/129/129
f 131/131/131 130/130/130 129/129/129
f 132/132/132 131/131/131 129/129/129
f 109/109/109 130/130/130 131/131/131
f 109/109/109 105/105/105 130/130/130
f 133/133/133 109/109/109 131/131/131
f 134/134/134 109/109/109 133/133/133
f 106/106/106 109/109/109 134/134/134
f 134/134/134 111/111/111 106/106/106
f 128/128/128 105/105/105 101/101/101
f 137/137/137 136/136/136 135/135/135
f 138/138/138 137/137/137 135/135/135
f 141/141/141 140/140/140 139/139/139
f 142/142/142 141/141/141 139/139/139
f 139/139/139 140/140/140 143/143/143
f 141/141/141 144/144/144 140/140/140
f 140/140/140 144/144/144 145/145/145
f 140/140/140 145/145/145 146/146/146
f 143/143/143 140/140/140 146/146/146
f 143/143/143 146/146/146 147/147/147
f 148/148/148 143/143/143 147/147/147
f 143/143/143 148/148/148 149/149/149
f 139/139/139 143/143/143 149/149/149
f 148/148/148 147/147/147 150/150/150
f 151/151/151 144/144/144 141/141/141
f 151/151/151 141/141/141 152/152/152
f 153/153/153 141/141/141 142/142/142
f 156/156/156 155/155/155 154/154/154
f 157/157/157 155/155/155 156/156/156
f 158/158/158 157/157/157 156/156/156
f 159/159/159 158/158/158 156/156/156
f 162/162/162 161/161/161 160/160/160
f 161/161/161 162/162/162 163/163/163
f 163/163/163 164/164/164 161/161/161
f 164/164/164 165/165/165 161/161/161
f 168/168/168 167/167/167 166/166/166
f 167/167/167 169/169/169 166/166/166
f 170/170/170 168/168/168 166/166/166
f 170/170/170 171/171/171 168/168/168
f 168/168/168 171/171/171 172/172/172
f 173/173/173 172/172/172 171/171/171
f 173/173/173 174/174/174 172/172/172
f 174/174/174 175/175/175 172/172/172
f 174/174/174 176/176/176 175/175/175
f 176/176/176 177/177/177 175/175/175
f 177/177/177 176/176/176 178/178/178
f 178/178/178 179/179/179 177/177/177
f 179/179/179 180/180/180 177/177/177
f 176/176/176 181/181/181 178/178/178
f 177/177/177 180/180/180 182/182/182
f 175/175/175 177/177/177 182/182/182
f 168/168/168 182/182/182 167/167/167
f 183/183/183 173/173/173 171/171/171
f 184/184/184 175/175/175 182/182/182
f 184/184/184 172/172/172 175/175/175
f 185/185/185 181/181/181 176/176/176
f 174/174/174 185/185/185 176/176/176
f 186/186/186 185/185/185 174/174/174
f 173/173/173 186/186/186 174/174/174
f 187/187/187 186/186/186 173/173/173
f 183/183/183 187/187/187 173/173/173
f 180/180/180 188/188/188 182/182/182
f 189/189/189 182/182/182 188/188/188
f 190/190/190 189/189/189 188/188/188
f 167/167/167 182/182/182 189/189/189
f 189/189/189 191/191/191 167/167/167
f 191/191/191 189/189/189 192/192/192
f 192/192/192 193/193/193 191/191/191
f 192/192/192 194/194/194 193/193/193
f 192/192/192 195/195/195 194/194/194
f 192/192/192 196/196/196 195/195/195
f 196/196/196 189/189/189 190/190/190
f 189/189/189 196/196/196 192/192/192
f 197/197/197 193/193/193 194/194/194
f 193/193/193 197/197/197 198/198/198
f 194/194/194 199/199/199 197/197/197
f 202/202/202 201/201/201 200/200/200
f 200/200/200 203/203/203 202/202/202
f 203/203/203 204/204/204 202/202/202
f 207/207/207 206/206/206 205/205/205
f 206/206/206 208/208/208 205/205/205
f 211/211/211 210/210/210 209/209/209
f 210/210/210 212/212/212 209/209/209
f 211/211/211 209/209/209 213/213/213
f 213/213/213 209/209/209 214/214/214
f 211/211/211 213/213/213 215/215/215
f 216/216/216 210/210/210 211/211/211
f 216/216/216 211/211/211 217/217/217
f 217/217/217 211/211/211 215/215/215
f 215/215/215 213/213/213 218/218/218
f 213/213/213 219/219/219 218/218/218
f 219/219/219 213/213/213 214/214/214
f 218/218/218 219/219/219 220/220/220
f 221/221/221 210/210/210 216/216/216
f 210/210/210 221/221/221 222/222/222
f 223/223/223 212/212/212 210/210/210
f 226/226/226 225/225/225 224/224/224
f 226/226/226 224/224/224 227/227/227
f 230/230/230 229/229/229 228/228/228
f 231/231/231 230/230/230 228/228/228
f 232/232/232 230/230/230 231/231/231
f 233/233/233 232/232/232 231/231/231
f 228/228/228 229/229/229 234/234/234
f 235/235/235 228/228/228 234/234/234
f 235/235/235 234/234/234 236/236/236
f 237/237/237 235/235/235 236/236/236
f 240/240/240 239/239/239 238/238/238
f 241/241/241 240/240/240 238/238/238
f 242/242/242 240/240/240 241/241/241
f 243/243/243 242/242/242 241/241/241
f 238/238/238 239/239/239 244/244/244
f 239/239/239 245/245/245 244/244/244
f 244/244/244 245/245/245 246/246/246
f 245/245/245 247/247/247 246/246/246
f 250/250/250 249/249/249 248/248/248
f 251/251/251 250/250/250 248/248/248
f 252/252/252 250/250/250 251/251/251
f 253/253/253 252/252/252 251/251/251
f 248/248/248 249/249/249 254/254/254
f 255/255/255 248/248/248 254/254/254
f 255/255/255 254/254/254 256/256/256
f 257/257/257 255/255/255 256/256/256
f 260/260/260 259/259/259 258/258/258
f 261/261/261 260/260/260 258/258/258
f 262/262/262 260/260/260 261/261/261
f 263/263/263 262/262/262 261/261/261
f 258/258/258 259/259/259 264/264/264
f 259/259/259 265/265/265 264/264/264
f 264/264/264 265/265/265 266/266/266
f 265/265/265 267/267/267 266/266/266
f 270/270/270 269/269/269 268/268/268
f 271/271/271 270/270/270 268/268/268
f 271/271/271 268/268/268 272/272/272
f 273/273/273 271/271/271 272/272/272
f 274/274/274 269/269/269 270/270/270
f 275/275/275 274/274/274 270/270/270
f 276/276/276 274/274/274 275/275/275
f 277/277/277 276/276/276 275/275/275
f 280/280/280 279/279/279 278/278/278
f 281/281/281 280/280/280 278/278/278
f 278/278/278 279/279/279 282/282/282
f 279/279/279 283/283/283 282/282/282
f 284/284/284 280/280/280 281/281/281
f 285/285/285 284/284/284 281/281/281
f 286/286/286 284/284/284 285/285/285
f 287/287/287 286/286/286 285/285/285
f 290/290/290 289/289/289 288/288/288
f 291/291/291 290/290/290 288/288/288
f 292/292/292 290/290/290 291/291/291
f 293/293/293 292/292/292 291/291/291
f 288/288/288 289/289/289 294/294/294
f 295/295/295 288/288/288 294/294/294
f 295/295/295 294/294/294 296/296/296
f 297/297/297 295/295/295 296/296/296
f 300/300/300 299/299/299 298/298/298
f 301/301/301 300/300/300 298/298/298
f 302/302/302 300/300/300 301/301/301
f 303/303/303 302/302/302 301/301/301
f 301/301/301 298/298/298 304/304/304
f 305/305/305 301/301/301 304/304/304
f 303/303/303 301/301/301 305/305/305
f 306/306/306 303/303/303 305/305/305
f 298/298/298 299/299/299 307/307/307
f 308/308/308 298/298/298 307/307/307
f 304/304/304 298/298/298 308/308/308
f 308/308/308 307/307/307 309/309/309
f 310/310/310 308/308/308 309/309/309
f 311/311/311 304/304/304 308/308/308
f 311/311/311 308/308/308 310/310/310
f 312/312/312 311/311/311 310/310/310
f 315/315/315 314/314/314 313/313/313
f 316/316/316 314/314/314 315/315/315
f 317/317/317 315/315/315 313/313/313
f 315/315/315 317/317/317 318/318/318
f 319/319/319 315/315/315 318/318/318
f 319/319/319 316/316/316 315/315/315
f 320/320/320 316/316/316 319/319/319
f 321/321/321 320/320/320 319/319/319
f 322/322/322 319/319/319 318/318/318
f 322/322/322 321/321/321 319/319/319
f 323/323/323 322/322/322 318/318/318
f 324/324/324 321/321/321 322/322/322
f 322/322/322 325/325/325 324/324/324
f 322/322/322 323/323/323 325/325/325
f 323/323/323 326/326/326 325/325/325
f 329/329/329 328/328/328 327/327/327
f 327/327/327 328/328/328 330/330/330
f 333/333/333 332/332/332 331/331/331
f 331/331/331 332/332/332 334/334/334
f 335/335/335 331/331/331 334/334/334
f 335/335/335 334/334/334 336/336/336
f 335/335/335 336/336/336 337/337/337
f 331/331/331 335/335/335 338/338/338
f 339/339/339 331/331/331 338/338/338
f 339/339/339 333/333/333 331/331/331
f 335/335/335 340/340/340 338/338/338
f 340/340/340 335/335/335 337/337/337
f 340/340/340 341/341/341 338/338/338
f 340/340/340 337/337/337 342/342/342
f 342/342/342 343/343/343 340/340/340
f 340/340/340 343/343/343 341/341/341
f 343/343/343 344/344/344 341/341/341
f 347/347/347 346/346/346 345/345/345
f 347/347/347 348/348/348 346/346/346
f 346/346/346 349/349/349 345/345/345
f 349/349/349 346/346/346 350/350/350
f 346/346/346 351/351/351 350/350/350
f 348/348/348 351/351/351 346/346/346
f 348/348/348 352/352/352 351/351/351
f 352/352/352 353/353/353 351/351/351
f 351/351/351 354/354/354 350/350/350
f 353/353/353 354/354/354 351/351/351
f 354/354/354 355/355/355 350/350/350
f 353/353/353 356/356/356 354/354/354
f 357/357/357 354/354/354 356/356/356
f 355/355/355 354/354/354 357/357/357
f 358/358/358 355/355/355 357/357/357
f 361/361/361 360/360/360 359/359/359
f 361/361/361 359/359/359 362/362/362
f 365/365/365 364/364/364 363/363/363
f 365/365/365 363/363/363 366/366/366
f 363/363/363 367/367/367 366/366/366
f 366/366/366 367/367/367 368/368/368
f 368/368/368 367/367/367 369/369/369
f 367/367/367 363/363/363 370/370/370
f 363/363/363 371/371/371 370/370/370
f 364/364/364 371/371/371 363/363/363
f 372/372/372 367/367/367 370/370/370
f 367/367/367 372/372/372 369/369/369
f 373/373/373 372/372/372 370/370/370
f 369/369/369 372/372/372 374/374/374
f 375/375/375 374/374/374 372/372/372
f 375/375/375 372/372/372 373/373/373
f 376/376/376 375/375/375 373/373/373
f 379/379/379 378/378/378 377/377/377
f 380/380/380 379/379/379 377/377/377
f 379/379/379 381/381/381 378/378/378
f 381/381/381 382/382/382 378/378/378
f 377/377/377 378/378/378 383/383/383
f 378/378/378 384/384/384 383/383/383
f 378/378/378 382/382/382 384/384/384
f 382/382/382 385/385/385 384/384/384
f 386/386/386 379/379/379 380/380/380
f 379/379/379 386/386/386 381/381/381
f 387/387/387 386/386/386 380/380/380
f 386/386/386 388/388/388 381/381/381
f 389/389/389 386/386/386 387/387/387
f 386/386/386 389/389/389 388/388/388
f 390/390/390 389/389/389 387/387/387
f 389/389/389 391/391/391 388/388/388
f 394/394/394 393/393/393 392/392/392
f 395/395/395 394/394/394 392/392/392
f 392/392/392 393/393/393 396/396/396
f 393/393/393 397/397/397 396/396/396
f 395/395/395 398/398/398 394/394/394
f 398/398/398 399/399/399 394/394/394
f 398/398/398 400/400/400 399/399/399
f 400/400/400 401/401/401 399/399/399
f 404/404/404 403/403/403 402/402/402
f 405/405/405 404/404/404 402/402/402
f 402/402/402 403/403/403 406/406/406
f 403/403/403 407/407/407 406/406/406
f 408/408/408 404/404/404 405/405/405
f 409/409/409 408/408/408 405/405/405
f 410/410/410 408/408/408 409/409/409
f 411/411/411 410/410/410 409/409/409
f 414/414/414 413/413/413 412/412/412
f 415/415/415 414/414/414 412/412/412
f 414/414/414 415/415/415 416/416/416
f 417/417/417 414/414/414 416/416/416
f 415/415/415 412/412/412 418/418/418
f 419/419/419 415/415/415 418/418/418
f 415/415/415 419/419/419 420/420/420
f 416/416/416 415/415/415 420/420/420
f 421/421/421 413/413/413 414/414/414
f 422/422/422 421/421/421 414/414/414
f 422/422/422 414/414/414 417/417/417
f 423/423/423 422/422/422 417/417/417
f 424/424/424 421/421/421 422/422/422
f 425/425/425 424/424/424 422/422/422
f 425/425/425 422/422/422 423/423/423
f 426/426/426 425/425/425 423/423/423
f 429/429/429 428/428/428 427/427/427
f 430/430/430 429/429/429 427/427/427
f 431/431/431 429/429/429 430/430/430
f 432/432/432 431/431/431 430/430/430
f 430/430/430 427/427/427 433/433/433
f 434/434/434 430/430/430 433/433/433
f 432/432/432 430/430/430 434/434/434
f 435/435/435 432/432/432 434/434/434
f 429/429/429 436/436/436 428/428/428
f 436/436/436 429/429/429 431/431/431
f 436/436/436 437/437/437 428/428/428
f 438/438/438 436/436/436 431/431/431
f 436/436/436 439/439/439 437/437/437
f 439/439/439 436/436/436 438/438/438
f 439/439/439 440/440/440 437/437/437
f 441/441/441 439/439/439 438/438/438
f 444/444/444 443/443/443 442/442/442
f 445/445/445 444/444/444 442/442/442
f 445/445/445 442/442/442 446/446/446
f 447/447/447 445/445/445 446/446/446
f 448/448/448 443/443/443 444/444/444
f 449/449/449 448/448/448 444/444/444
f 450/450/450 448/448/448 449/449/449
f 451/451/451 450/450/450 449/449/449
f 454/454/454 453/453/453 452/452/452
f 455/455/455 454/454/454 452/452/452
f 455/455/455 452/452/452 456/456/456
f 457/457/457 455/455/455 456/456/456
f 454/454/454 458/458/458 453/453/453
f 458/458/458 459/459/459 453/453/453
f 458/458/458 460/460/460 459/459/459
f 460/460/460 461/461/461 459/459/459
f 464/464/464 463/463/463 462/462/462
f 465/465/465 464/464/464 462/462/462
f 463/463/463 464/464/464 466/466/466
f 464/464/464 467/467/467 466/466/466
f 462/462/462 463/463/463 468/468/468
f 463/463/463 469/469/469 468/468/468
f 463/463/463 466/466/466 470/470/470
f 469/469/469 463/463/463 470/470/470
f 465/465/465 471/471/471 464/464/464
f 471/471/471 472/472/472 464/464/464
f 464/464/464 472/472/472 467/467/467
f 472/472/472 473/473/473 467/467/467
f 471/471/471 474/474/474 472/472/472
f 474/474/474 475/475/475 472/472/472
f 472/472/472 475/475/475 473/473/473
f 475/475/475 476/476/476 473/473/473
f 479/479/479 478/478/478 477/477/477
f 480/480/480 479/479/479 477/477/477
f 480/480/480 477/477/477 481/481/481
f 482/482/482 480/480/480 481/481/481
f 482/482/482 481/481/481 483/483/483
f 484/484/484 482/482/482 483/483/483
f 479/479/479 485/485/485 478/478/478
f 485/485/485 486/486/486 478/478/478
f 489/489/489 488/488/488 487/487/487
f 490/490/490 489/489/489 487/487/487
f 490/490/490 487/487/487 491/491/491
f 492/492/492 490/490/490 491/491/491
f 492/492/492 491/491/491 493/493/493
f 494/494/494 492/492/492 493/493/493
f 489/489/489 495/495/495 488/488/488
f 495/495/495 496/496/496 488/488/488
f 499/499/499 498/498/498 497/497/497
f 500/500/500 499/499/499 497/497/497
f 500/500/500 497/497/497 501/501/501
f 502/502/502 500/500/500 501/501/501
f 502/502/502 501/501/501 503/503/503
f 504/504/504 502/502/502 503/503/503
f 499/499/499 505/505/505 498/498/498
f 505/505/505 506/506/506 498/498/498
f 509/509/509 508/508/508 507/507/507
f 510/510/510 509/509/509 507/507/507
f 509/509/509 511/511/511 508/508/508
f 511/511/511 512/512/512 508/508/508
f 511/511/511 513/513/513 512/512/512
f 513/513/513 514/514/514 512/512/512
f 510/510/510 507/507/507 515/515/515
f 516/516/516 510/510/510 515/515/515
f 519/519/519 518/518/518 517/517/517
f 520/520/520 519/519/519 517/517/517
f 519/519/519 521/521/521 518/518/518
f 521/521/521 522/522/522 518/518/518
f 521/521/521 523/523/523 522/522/522
f 523/523/523 524/524/524 522/522/522
f 520/520/520 517/517/517 525/525/525
f 526/526/526 520/520/520 525/525/525
f 529/529/529 528/528/528 527/527/527
f 530/530/530 529/529/529 527/527/527
f 531/531/531 528/528/528 529/529/529
f 532/532/532 531/531/531 529/529/529
f 535/535/535 534/534/534 533/533/533
f 536/536/536 535/535/535 533/533/533
f 537/537/537 535/535/535 536/536/536
f 538/538/538 537/537/537 536/536/536
f 534/534/534 539/539/539 533/533/533
f 540/540/540 539/539/539 534/534/534
f 538/538/538 541/541/541 537/537/537
f 537/537/537 541/541/541 542/542/542
f 544/544/544 533/533/533 543/543/543
f 545/545/545 544/544/544 543/543/543
f 533/533/533 546/546/546 543/543/543
f 548/548/548 547/547/547 538/538/538
f 548/548/548 538/538/538 549/549/549
f 538/538/538 550/550/550 549/549/549
f 553/553/553 552/552/552 551/551/551
f 554/554/554 553/553/553 551/551/551
f 554/554/554 555/555/555 553/553/553
f 555/555/555 556/556/556 553/553/553
f 557/557/557 551/551/551 552/552/552
f 558/558/558 556/556/556 555/555/555
f 561/561/561 560/560/560 559/559/559
f 562/562/562 561/561/561 559/559/559
f 561/561/561 563/563/563 560/560/560
f 563/563/563 564/564/564 560/560/560
f 565/565/565 562/562/562 559/559/559
f 566/566/566 564/564/564 563/563/563
f 569/569/569 568/568/568 567/567/567
f 570/570/570 569/569/569 567/567/567
f 571/571/571 570/570/570 567/567/567
f 574/574/574 573/573/573 572/572/572
f 577/577/577 576/576/576 575/575/575
f 578/578/578 577/577/577 575/575/575
f 168/168/168 184/184/184 182/182/182
f 184/184/184 168/168/168 172/172/172
