g wp_013_007_002_Mesh_a
v -0.012189202 0.0273924079 -0.266695708
v -1.26626555E-16 0.0483003445 -0.2653386
v -3.36733018E-17 0.0330388248 -0.101270787
v -0.0121892067 0.012235919 -0.103897378
v -0.0121891974 0.0298249293 -0.420598865
v -2.12944956E-16 0.0507081263 -0.420930862
v -0.012189216 0.0229013152 -0.585092723
v -3.08689723E-16 0.0425485931 -0.586690426
v -2.12568569E-16 0.00894173514 -0.420266837
v -1.26864518E-16 0.00648447126 -0.268052816
v -0.012189216 0.00550129684 -0.753779709
v -4.01852521E-16 -0.0121094752 -0.751128137
v -3.06879322E-16 0.00325404038 -0.58349508
v -4.04857079E-16 0.023112068 -0.756431401
v -0.0121891778 -0.0227793641 -0.915387392
v -4.96965189E-16 -0.00616913289 -0.91900748
v -4.92863273E-16 -0.0393895917 -0.911767423
v 0.012189202 0.0273924079 -0.266695708
v 0.0121891974 0.0298249293 -0.420598865
v -1.26864518E-16 0.00648447126 -0.268052816
v -2.12568569E-16 0.00894173514 -0.420266837
v 0.012189216 0.0229013152 -0.585092723
v -3.06879322E-16 0.00325404038 -0.58349508
v 0.012189216 0.00550129684 -0.753779709
v -4.01852521E-16 -0.0121094752 -0.751128137
v 0.0121891778 -0.0227793641 -0.915387392
v -4.92863273E-16 -0.0393895917 -0.911767423
v 0.0121892048 0.012235919 -0.103897378
v -3.66495142E-17 -0.00856699888 -0.106523976
v -5.44994498E-16 -0.0276173204 -1.00378191
v 0.0121891778 -0.0440372415 -1.00273514
v -5.48541766E-16 -0.0456398763 -1.0106554
v -5.4380574E-16 -0.0604598336 -1.00168371
v -5.48541766E-16 -0.0456398763 -1.0106554
v -0.0121891778 -0.0440372415 -1.00273514
v -5.4380574E-16 -0.0604598336 -1.00168371
v -3.66495142E-17 -0.00856699888 -0.106523976
v -0.0121892067 0.012235919 -0.103897378
v -3.36733018E-17 0.0330388248 -0.101270787
v 0.0121892048 0.012235919 -0.103897378
v -3.66495142E-17 -0.00856699888 -0.106523976
v -2.69967664E-16 0.00441858498 -0.477387846
v -2.545631E-16 0.00441858498 -0.446528643
v 0.0136396047 0.0283353608 -0.446528643
v 0.0136396047 0.0283353608 -0.477387846
v -0.0136396047 0.0283353608 -0.446528643
v -0.0136396047 0.0283353608 -0.477387846
v -2.77904416E-16 0.0522521287 -0.477387846
v -2.5834219E-16 0.0522521287 -0.446528643
v -2.77904416E-16 0.0522521287 -0.477387846
v -2.5834219E-16 0.0522521287 -0.446528643
v 0.0130005954 0.0251621511 -0.480354846
v 0.00613754988 0.0137318727 -0.480354846
v 0.00613754988 0.0137318727 -0.442611009
v 0.0130005954 0.0251621511 -0.442611009
v -0.0040600691 0.0118249655 -0.461958259
v -0.014141378 0.0161511805 -0.461958259
v -0.00785212684 0.0193292573 -0.453550279
v -0.0116441902 0.0268335473 -0.461958259
v -0.00785212684 0.0193292573 -0.47036624
v -2.08954809E-16 0.00441858498 -0.369696677
v -1.93550245E-16 0.00441858498 -0.338837504
v 0.0136396047 0.0283353608 -0.338837504
v 0.0136396047 0.0283353608 -0.369696677
v -0.0136396047 0.0283353608 -0.338837504
v -0.0136396047 0.0283353608 -0.369696677
v -2.16891534E-16 0.0522521287 -0.369696677
v -1.97329335E-16 0.0522521287 -0.338837504
v -2.16891534E-16 0.0522521287 -0.369696677
v -1.97329335E-16 0.0522521287 -0.338837504
v 0.0130005954 0.0251621511 -0.372663677
v 0.00613754988 0.0137318727 -0.372663677
v 0.00613754988 0.0137318727 -0.33491984
v 0.0130005954 0.0251621511 -0.33491984
v -0.0040600691 0.0118249655 -0.35426712
v -0.014141378 0.0161511805 -0.35426712
v -0.00785212684 0.0193292573 -0.34585914
v -0.0116441902 0.0268335473 -0.35426712
v -0.00785212684 0.0193292573 -0.362675101
vt 0.452662289 0.817791402
vt 0.397665918 0.817798257
vt 0.395229995 0.990097165
vt 0.45097667 0.989827812
vt 0.455051482 0.655919552
vt 0.399957597 0.655724764
vt 0.455303252 0.48274526
vt 0.402408659 0.482522458
vt 0.510707557 0.65610528
vt 0.508424342 0.817786813
vt 0.454323828 0.304047644
vt 0.504067779 0.304265738
vt 0.508656979 0.482859075
vt 0.404929698 0.303784668
vt 0.455089867 0.131069332
vt 0.407366335 0.131091416
vt 0.503369927 0.130869001
vt 0.342676699 0.817403734
vt 0.344864786 0.655530334
vt 0.286920071 0.817006111
vt 0.289208591 0.655322611
vt 0.349510729 0.482371867
vt 0.296159208 0.482108891
vt 0.355533659 0.303698957
vt 0.305786848 0.303565502
vt 0.359647572 0.130733967
vt 0.311373472 0.130193844
vt 0.339496911 0.989433467
vt 0.283793747 0.988732576
vt 0.408662617 0.0400606319
vt 0.363164306 0.0377996489
vt 0.366086483 0.0234583691
vt 0.318536758 0.033449702
vt 0.451718569 0.0237552449
vt 0.454216719 0.0381173119
vt 0.498957872 0.034086816
vt 0.506694138 0.989521086
vt 0.299714088 0.0641053915
vt 0.250737548 0.0223122239
vt 0.201761127 0.0641053915
vt 0.250737548 0.105898738
vt 0.858163893 0.108494133
vt 0.976590753 0.108494133
vt 0.976590753 0.0588862449
vt 0.858163893 0.0588862449
vt 0.976590753 0.158101752
vt 0.858163893 0.158101752
vt 0.858163893 0.009278588
vt 0.976590753 0.009278588
vt 0.858163893 0.20770961
vt 0.976590753 0.20770961
vt 0.97732079 0.781535745
vt 0.977320969 0.768229306
vt 0.901980102 0.768229306
vt 0.901980102 0.781535745
vt 0.557774425 0.393811345
vt 0.557774425 0.374075651
vt 0.597245932 0.374075651
vt 0.557774425 0.354339361
vt 0.5183025 0.374075651
vt 0.858163893 0.108494133
vt 0.976590753 0.108494133
vt 0.976590753 0.0588862449
vt 0.858163893 0.0588862449
vt 0.976590753 0.158101752
vt 0.858163893 0.158101752
vt 0.858163893 0.009278588
vt 0.976590753 0.009278588
vt 0.858163893 0.20770961
vt 0.976590753 0.20770961
vt 0.97732079 0.781535745
vt 0.977320969 0.768229306
vt 0.901980102 0.768229306
vt 0.901980102 0.781535745
vt 0.557774425 0.393811345
vt 0.557774425 0.374075651
vt 0.597245932 0.374075651
vt 0.557774425 0.354339361
vt 0.5183025 0.374075651
vn -0.999888301 0.0149325728 0.000622619642
vn -0 0.998455763 0.0555528887
vn -0 0.995697856 0.092659153
vn -0.99991864 0.0127028162 0.00115920196
vn -0.999925613 0.0121302241 -0.00127784733
vn -0 0.999872088 -0.0159922112
vn -0.999916613 0.0123691987 -0.00371364877
vn -0 0.9969998 -0.077403985
vn -0 -0.999926984 0.0120846611
vn -0 -0.998465717 -0.0553726144
vn -0.999884427 0.0144747505 -0.00464295456
vn -0 -0.991175413 0.132556766
vn -0 -0.997692704 0.067891106
vn -0 0.98999542 -0.141099662
vn -0.999936342 0.0105063235 -0.00410913257
vn -0 0.98019135 -0.198052868
vn -0 -0.9813779 0.19208695
vn 0.999888301 0.0149325561 0.000622624299
vn 0.999925613 0.0121302139 -0.00127784733
vn -0 -0.998465717 -0.0553726144
vn -0 -0.999926984 0.0120846611
vn 0.999916613 0.0123692257 -0.00371364877
vn -0 -0.997692704 0.067891106
vn 0.999884427 0.0144746304 -0.00464292988
vn -0 -0.991175413 0.132556766
vn 0.999936342 0.010506114 -0.00410908693
vn -0 -0.9813779 0.19208695
vn 0.99991864 0.0127028516 0.00115921523
vn -0 -0.995690465 -0.0927390084
vn 2.99722586E-07 0.960728824 -0.277488887
vn 0.996885061 -0.0731834024 -0.0293990728
vn -1.12267927E-07 -0.0842997953 -0.996440411
vn -0 -0.982711434 0.185143784
vn -1.12267927E-07 -0.0842997953 -0.996440411
vn -0.996885061 -0.0731833577 -0.0293991268
vn -0 -0.982711434 0.185143784
vn -0 -0.995690465 -0.0927390084
vn -0 -0.125266388 0.992123127
vn -0 -0.125266224 0.992123187
vn -0 -0.125266388 0.992123127
vn -0 -0.125266597 0.992123127
vn -0 -1 0
vn -0 -1 0
vn 1 0 0
vn 1 0 0
vn -1 0 0
vn -1 0 0
vn -0 1 0
vn -0 1 0
vn -0 1 0
vn -0 1 0
vn 0.857331574 -0.514764607 0
vn 0.857331574 -0.514764607 0
vn 0.857331574 -0.514764607 0
vn 0.857331574 -0.514764607 0
vn -0.394354224 -0.918958485 0
vn -0.892520428 -0.451006949 0
vn -0.68405056 -0.345663339 0.642333031
vn -0.973747492 0.227631018 0
vn -0.68405056 -0.345663339 -0.64233309
vn -0 -1 0
vn -0 -1 0
vn 1 0 0
vn 1 0 0
vn -1 0 0
vn -1 0 0
vn -0 1 0
vn -0 1 0
vn -0 1 0
vn -0 1 0
vn 0.857331395 -0.514764845 0
vn 0.857331395 -0.514764845 0
vn 0.857331395 -0.514764845 0
vn 0.857331395 -0.514764845 0
vn -0.394354701 -0.918958306 0
vn -0.892520249 -0.451007336 0
vn -0.684051454 -0.345663667 0.642331958
vn -0.973747611 0.227630422 0
vn -0.684050322 -0.345664114 -0.642332792
g wp_013_007_002_Mesh_a_0
f 3/3/3 2/2/2 1/1/1
f 4/4/4 3/3/3 1/1/1
f 1/1/1 2/2/2 5/5/5
f 2/2/2 6/6/6 5/5/5
f 5/5/5 6/6/6 7/7/7
f 6/6/6 8/8/8 7/7/7
f 5/5/5 9/9/9 1/1/1
f 9/9/9 10/10/10 1/1/1
f 1/1/1 10/10/10 4/4/4
f 7/7/7 8/8/8 11/11/11
f 11/11/11 12/12/12 7/7/7
f 12/12/12 13/13/13 7/7/7
f 13/13/13 9/9/9 5/5/5
f 7/7/7 13/13/13 5/5/5
f 8/8/8 14/14/14 11/11/11
f 11/11/11 14/14/14 15/15/15
f 14/14/14 16/16/16 15/15/15
f 17/17/17 12/12/12 11/11/11
f 15/15/15 17/17/17 11/11/11
f 6/6/6 2/2/2 18/18/18
f 19/19/19 6/6/6 18/18/18
f 8/8/8 6/6/6 19/19/19
f 18/18/18 20/20/20 19/19/19
f 20/20/20 21/21/21 19/19/19
f 19/19/19 21/21/21 22/22/22
f 14/14/14 8/8/8 22/22/22
f 22/22/22 8/8/8 19/19/19
f 21/21/21 23/23/23 22/22/22
f 24/24/24 14/14/14 22/22/22
f 22/22/22 23/23/23 24/24/24
f 16/16/16 14/14/14 24/24/24
f 23/23/23 25/25/25 24/24/24
f 24/24/24 25/25/25 26/26/26
f 26/26/26 16/16/16 24/24/24
f 25/25/25 27/27/27 26/26/26
f 18/18/18 2/2/2 28/28/28
f 2/2/2 3/3/3 28/28/28
f 29/29/29 20/20/20 18/18/18
f 28/28/28 29/29/29 18/18/18
f 30/30/30 16/16/16 26/26/26
f 31/31/31 30/30/30 26/26/26
f 26/26/26 27/27/27 31/31/31
f 31/31/31 32/32/32 30/30/30
f 31/31/31 33/33/33 32/32/32
f 27/27/27 33/33/33 31/31/31
f 35/35/35 30/30/30 34/34/34
f 35/35/35 34/34/34 36/36/36
f 35/35/35 36/36/36 15/15/15
f 36/36/36 17/17/17 15/15/15
f 16/16/16 30/30/30 35/35/35
f 15/15/15 16/16/16 35/35/35
f 10/10/10 37/37/37 4/4/4
f 40/40/40 39/39/39 38/38/38
f 38/38/38 41/41/41 40/40/40
f 44/44/44 43/43/43 42/42/42
f 45/45/45 44/44/44 42/42/42
f 43/43/43 46/46/46 42/42/42
f 46/46/46 47/47/47 42/42/42
f 44/44/44 45/45/45 48/48/48
f 49/49/49 44/44/44 48/48/48
f 47/47/47 46/46/46 50/50/50
f 46/46/46 51/51/51 50/50/50
f 54/54/54 53/53/53 52/52/52
f 55/55/55 54/54/54 52/52/52
f 58/58/58 57/57/57 56/56/56
f 59/59/59 57/57/57 58/58/58
f 60/60/60 57/57/57 59/59/59
f 56/56/56 57/57/57 60/60/60
f 63/63/63 62/62/62 61/61/61
f 64/64/64 63/63/63 61/61/61
f 62/62/62 65/65/65 61/61/61
f 65/65/65 66/66/66 61/61/61
f 63/63/63 64/64/64 67/67/67
f 68/68/68 63/63/63 67/67/67
f 66/66/66 65/65/65 69/69/69
f 65/65/65 70/70/70 69/69/69
f 73/73/73 72/72/72 71/71/71
f 74/74/74 73/73/73 71/71/71
f 77/77/77 76/76/76 75/75/75
f 78/78/78 76/76/76 77/77/77
f 79/79/79 76/76/76 78/78/78
f 75/75/75 76/76/76 79/79/79
