g md_home_tr
v 2.33359861 -6.50030279 47.8845291
v 2.33359861 -6.50030279 -47.8845291
v 2.33359861 -0.718361795 -47.8845291
v 2.33360839 -0.718361795 47.8845291
v 6.83718252 -1.75088859 13.8073874
v 4.88233852 2.08938718 13.8073874
v 4.88233852 2.08938718 18.4915161
v 6.83718252 -1.75088859 18.4915161
v 6.91029787 2.63154769 13.5994368
v 4.8092041 6.75913048 13.5994368
v 4.8092041 6.75913048 18.6339989
v 6.91029787 2.63154769 18.6339989
v 6.8157177 -1.70872557 -2.38742924
v 4.90380383 2.0472095 -2.38742924
v 4.90380383 2.0472095 2.19382501
v 6.8157177 -1.70872557 2.19382501
v 6.87226057 2.7062645 -2.55567336
v 4.84724092 6.68439436 -2.55567336
v 4.84724092 6.68439436 2.29659939
v 6.87226057 2.7062645 2.29659939
v -7.06923342 -6.48784876 -47.8845291
v 2.33359861 -6.48784876 -47.8845291
v 2.33359861 -6.48784876 47.8845291
v -7.06924295 -6.48784876 47.8845291
vt 0.87928766 0.761991143
vt 0.92680335 0.761991143
vt 0.926803291 0.741663158
vt 0.87928766 0.741663158
vt 0.869252264 0.670342445
vt 0.869252264 0.730254769
vt 0.929164588 0.730254769
vt 0.929164588 0.670342445
vt 0.869252264 0.670342445
vt 0.869252264 0.730254769
vt 0.929164588 0.730254769
vt 0.929164588 0.670342445
vt 0.869252264 0.670342445
vt 0.869252264 0.730254769
vt 0.929164588 0.730254769
vt 0.929164588 0.670342445
vt 0.869252264 0.670342445
vt 0.869252264 0.730254769
vt 0.929164588 0.730254769
vt 0.929164588 0.670342445
vt 0.87928766 0.741663158
vt 0.87928766 0.79678303
vt 0.926803291 0.79678303
vt 0.926803291 0.741663158
vn -1 1.44474461E-06 0
vn -1 1.44474461E-06 0
vn -1 1.44474461E-06 0
vn -1 1.44474461E-06 0
vn -0.891181707 -0.453646451 0
vn -0.891181707 -0.453646451 0
vn -0.891181707 -0.453646451 0
vn -0.891181707 -0.453646451 0
vn -0.891182244 -0.453645498 0
vn -0.891182244 -0.453645498 0
vn -0.891182244 -0.453645498 0
vn -0.891182244 -0.453645498 0
vn -0.891181707 -0.453646451 0
vn -0.891181707 -0.453646451 0
vn -0.891181707 -0.453646451 0
vn -0.891181707 -0.453646451 0
vn -0.891182125 -0.453645706 0
vn -0.891182125 -0.453645706 0
vn -0.891182125 -0.453645706 0
vn -0.891182125 -0.453645706 0
vn -0 1 0
vn -0 1 0
vn -0 1 0
vn -0 1 0
g md_home_tr_0
f 3/3/3 2/2/2 1/1/1
f 4/4/4 3/3/3 1/1/1
f 7/7/7 6/6/6 5/5/5
f 8/8/8 7/7/7 5/5/5
f 11/11/11 10/10/10 9/9/9
f 12/12/12 11/11/11 9/9/9
f 15/15/15 14/14/14 13/13/13
f 16/16/16 15/15/15 13/13/13
f 19/19/19 18/18/18 17/17/17
f 20/20/20 19/19/19 17/17/17
f 23/23/23 22/22/22 21/21/21
f 24/24/24 23/23/23 21/21/21
