g mesh_flag_s
v 4.43385363 42.694046 -46.7492256
v 4.43385363 44.694046 -46.7492256
v 4.39849854 44.694046 -46.713871
v 4.39849854 42.694046 -46.713871
v 4.43385363 44.694046 -46.7492256
v 4.46920919 44.694046 -46.713871
v 4.43385363 44.694046 -46.6785164
v 4.39849854 44.694046 -46.713871
v 4.46920919 44.694046 -46.713871
v 4.46920919 42.694046 -46.713871
v 4.43385363 42.694046 -46.6785164
v 4.43385363 44.694046 -46.6785164
v 4.46920919 42.694046 -46.713871
v 4.43385363 42.694046 -46.7492256
v 4.39849854 42.694046 -46.713871
v 4.43385363 42.694046 -46.6785164
v 4.39849854 42.694046 -46.713871
v 4.39849854 44.694046 -46.713871
v 4.43385363 44.694046 -46.6785164
v 4.43385363 42.694046 -46.6785164
v 4.46920919 42.694046 -46.713871
v 4.46920919 44.694046 -46.713871
v 4.43385363 44.694046 -46.7492256
v 4.43385363 42.694046 -46.7492256
v 4.43385363 43.4919777 -46.713871
v 4.43385363 44.6919746 -46.713871
v 3.83385372 44.5719757 -46.713871
v 3.83385372 43.6119766 -46.713871
v 3.23385358 44.4519768 -46.713871
v 3.23385358 43.7319756 -46.713871
v 2.63385367 44.3319778 -46.713871
v 2.63385367 43.8519783 -46.713871
v 2.03385377 44.2119751 -46.713871
v 2.03385377 43.9719772 -46.713871
v 1.43385386 44.0919762 -46.713871
v 4.43385363 44.6919746 -46.713871
v 4.43385363 43.4919777 -46.713871
v 3.83385372 43.6119766 -46.713871
v 3.83385372 44.5719757 -46.713871
v 3.23385358 43.7319756 -46.713871
v 3.23385358 44.4519768 -46.713871
v 2.63385367 43.8519783 -46.713871
v 2.63385367 44.3319778 -46.713871
v 2.03385377 43.9719772 -46.713871
v 2.03385377 44.2119751 -46.713871
v 1.43385386 44.0919762 -46.713871
v -4.3830781 42.694046 -46.7492256
v -4.3830781 44.694046 -46.7492256
v -4.41843367 44.694046 -46.713871
v -4.41843367 42.694046 -46.713871
v -4.3830781 44.694046 -46.7492256
v -4.34772301 44.694046 -46.713871
v -4.3830781 44.694046 -46.6785164
v -4.41843367 44.694046 -46.713871
v -4.34772301 44.694046 -46.713871
v -4.34772301 42.694046 -46.713871
v -4.3830781 42.694046 -46.6785164
v -4.3830781 44.694046 -46.6785164
v -4.34772301 42.694046 -46.713871
v -4.3830781 42.694046 -46.7492256
v -4.41843367 42.694046 -46.713871
v -4.3830781 42.694046 -46.6785164
v -4.41843367 42.694046 -46.713871
v -4.41843367 44.694046 -46.713871
v -4.3830781 44.694046 -46.6785164
v -4.3830781 42.694046 -46.6785164
v -4.34772301 42.694046 -46.713871
v -4.34772301 44.694046 -46.713871
v -4.3830781 44.694046 -46.7492256
v -4.3830781 42.694046 -46.7492256
v -4.3830781 43.4919777 -46.713871
v -4.3830781 44.6919746 -46.713871
v -4.983078 44.5719757 -46.713871
v -4.983078 43.6119766 -46.713871
v -5.58307838 44.4519768 -46.713871
v -5.58307838 43.7319756 -46.713871
v -6.18307829 44.3319778 -46.713871
v -6.18307829 43.8519783 -46.713871
v -6.78307867 44.2119751 -46.713871
v -6.78307867 43.9719772 -46.713871
v -7.38307858 44.0919762 -46.713871
v -4.3830781 44.6919746 -46.713871
v -4.3830781 43.4919777 -46.713871
v -4.983078 43.6119766 -46.713871
v -4.983078 44.5719757 -46.713871
v -5.58307838 43.7319756 -46.713871
v -5.58307838 44.4519768 -46.713871
v -6.18307829 43.8519783 -46.713871
v -6.18307829 44.3319778 -46.713871
v -6.78307867 43.9719772 -46.713871
v -6.78307867 44.2119751 -46.713871
v -7.38307858 44.0919762 -46.713871
v -4.3830781 42.694046 -35.7492294
v -4.3830781 44.694046 -35.7492294
v -4.41843367 44.694046 -35.713871
v -4.41843367 42.694046 -35.713871
v -4.3830781 44.694046 -35.7492294
v -4.34772301 44.694046 -35.713871
v -4.3830781 44.694046 -35.6785164
v -4.41843367 44.694046 -35.713871
v -4.34772301 44.694046 -35.713871
v -4.34772301 42.694046 -35.713871
v -4.3830781 42.694046 -35.6785164
v -4.3830781 44.694046 -35.6785164
v -4.34772301 42.694046 -35.713871
v -4.3830781 42.694046 -35.7492294
v -4.41843367 42.694046 -35.713871
v -4.3830781 42.694046 -35.6785164
v -4.41843367 42.694046 -35.713871
v -4.41843367 44.694046 -35.713871
v -4.3830781 44.694046 -35.6785164
v -4.3830781 42.694046 -35.6785164
v -4.34772301 42.694046 -35.713871
v -4.34772301 44.694046 -35.713871
v -4.3830781 44.694046 -35.7492294
v -4.3830781 42.694046 -35.7492294
v -4.3830781 43.4919777 -35.713871
v -4.3830781 44.6919746 -35.713871
v -4.983078 44.5719757 -35.713871
v -4.983078 43.6119766 -35.713871
v -5.58307838 44.4519768 -35.713871
v -5.58307838 43.7319756 -35.713871
v -6.18307829 44.3319778 -35.713871
v -6.18307829 43.8519783 -35.713871
v -6.78307867 44.2119751 -35.713871
v -6.78307867 43.9719772 -35.713871
v -7.38307858 44.0919762 -35.713871
v -4.3830781 44.6919746 -35.713871
v -4.3830781 43.4919777 -35.713871
v -4.983078 43.6119766 -35.713871
v -4.983078 44.5719757 -35.713871
v -5.58307838 43.7319756 -35.713871
v -5.58307838 44.4519768 -35.713871
v -6.18307829 43.8519783 -35.713871
v -6.18307829 44.3319778 -35.713871
v -6.78307867 43.9719772 -35.713871
v -6.78307867 44.2119751 -35.713871
v -7.38307858 44.0919762 -35.713871
v 4.43385363 42.694046 -35.7492294
v 4.43385363 44.694046 -35.7492294
v 4.39849854 44.694046 -35.713871
v 4.39849854 42.694046 -35.713871
v 4.43385363 44.694046 -35.7492294
v 4.46920919 44.694046 -35.713871
v 4.43385363 44.694046 -35.6785164
v 4.39849854 44.694046 -35.713871
v 4.46920919 44.694046 -35.713871
v 4.46920919 42.694046 -35.713871
v 4.43385363 42.694046 -35.6785164
v 4.43385363 44.694046 -35.6785164
v 4.46920919 42.694046 -35.713871
v 4.43385363 42.694046 -35.7492294
v 4.39849854 42.694046 -35.713871
v 4.43385363 42.694046 -35.6785164
v 4.39849854 42.694046 -35.713871
v 4.39849854 44.694046 -35.713871
v 4.43385363 44.694046 -35.6785164
v 4.43385363 42.694046 -35.6785164
v 4.46920919 42.694046 -35.713871
v 4.46920919 44.694046 -35.713871
v 4.43385363 44.694046 -35.7492294
v 4.43385363 42.694046 -35.7492294
v 4.43385363 43.4919777 -35.713871
v 4.43385363 44.6919746 -35.713871
v 3.83385372 44.5719757 -35.713871
v 3.83385372 43.6119766 -35.713871
v 3.23385358 44.4519768 -35.713871
v 3.23385358 43.7319756 -35.713871
v 2.63385367 44.3319778 -35.713871
v 2.63385367 43.8519783 -35.713871
v 2.03385377 44.2119751 -35.713871
v 2.03385377 43.9719772 -35.713871
v 1.43385386 44.0919762 -35.713871
v 4.43385363 44.6919746 -35.713871
v 4.43385363 43.4919777 -35.713871
v 3.83385372 43.6119766 -35.713871
v 3.83385372 44.5719757 -35.713871
v 3.23385358 43.7319756 -35.713871
v 3.23385358 44.4519768 -35.713871
v 2.63385367 43.8519783 -35.713871
v 2.63385367 44.3319778 -35.713871
v 2.03385377 43.9719772 -35.713871
v 2.03385377 44.2119751 -35.713871
v 1.43385386 44.0919762 -35.713871
v 4.43385363 42.694046 -23.8492279
v 4.43385363 44.694046 -23.8492279
v 4.39849854 44.694046 -23.8138714
v 4.39849854 42.694046 -23.8138714
v 4.43385363 44.694046 -23.8492279
v 4.46920919 44.694046 -23.8138714
v 4.43385363 44.694046 -23.7785149
v 4.39849854 44.694046 -23.8138714
v 4.46920919 44.694046 -23.8138714
v 4.46920919 42.694046 -23.8138714
v 4.43385363 42.694046 -23.7785149
v 4.43385363 44.694046 -23.7785149
v 4.46920919 42.694046 -23.8138714
v 4.43385363 42.694046 -23.8492279
v 4.39849854 42.694046 -23.8138714
v 4.43385363 42.694046 -23.7785149
v 4.39849854 42.694046 -23.8138714
v 4.39849854 44.694046 -23.8138714
v 4.43385363 44.694046 -23.7785149
v 4.43385363 42.694046 -23.7785149
v 4.46920919 42.694046 -23.8138714
v 4.46920919 44.694046 -23.8138714
v 4.43385363 44.694046 -23.8492279
v 4.43385363 42.694046 -23.8492279
v 4.43385363 43.4919777 -23.8138714
v 4.43385363 44.6919746 -23.8138714
v 3.83385372 44.5719757 -23.8138714
v 3.83385372 43.6119766 -23.8138714
v 3.23385358 44.4519768 -23.8138714
v 3.23385358 43.7319756 -23.8138714
v 2.63385367 44.3319778 -23.8138714
v 2.63385367 43.8519783 -23.8138714
v 2.03385377 44.2119751 -23.8138714
v 2.03385377 43.9719772 -23.8138714
v 1.43385386 44.0919762 -23.8138714
v 4.43385363 44.6919746 -23.8138714
v 4.43385363 43.4919777 -23.8138714
v 3.83385372 43.6119766 -23.8138714
v 3.83385372 44.5719757 -23.8138714
v 3.23385358 43.7319756 -23.8138714
v 3.23385358 44.4519768 -23.8138714
v 2.63385367 43.8519783 -23.8138714
v 2.63385367 44.3319778 -23.8138714
v 2.03385377 43.9719772 -23.8138714
v 2.03385377 44.2119751 -23.8138714
v 1.43385386 44.0919762 -23.8138714
v -4.3830781 42.694046 -23.8492279
v -4.3830781 44.694046 -23.8492279
v -4.41843367 44.694046 -23.8138714
v -4.41843367 42.694046 -23.8138714
v -4.3830781 44.694046 -23.8492279
v -4.34772301 44.694046 -23.8138714
v -4.3830781 44.694046 -23.7785149
v -4.41843367 44.694046 -23.8138714
v -4.34772301 44.694046 -23.8138714
v -4.34772301 42.694046 -23.8138714
v -4.3830781 42.694046 -23.7785149
v -4.3830781 44.694046 -23.7785149
v -4.34772301 42.694046 -23.8138714
v -4.3830781 42.694046 -23.8492279
v -4.41843367 42.694046 -23.8138714
v -4.3830781 42.694046 -23.7785149
v -4.41843367 42.694046 -23.8138714
v -4.41843367 44.694046 -23.8138714
v -4.3830781 44.694046 -23.7785149
v -4.3830781 42.694046 -23.7785149
v -4.34772301 42.694046 -23.8138714
v -4.34772301 44.694046 -23.8138714
v -4.3830781 44.694046 -23.8492279
v -4.3830781 42.694046 -23.8492279
v -4.3830781 43.4919777 -23.8138714
v -4.3830781 44.6919746 -23.8138714
v -4.983078 44.5719757 -23.8138714
v -4.983078 43.6119766 -23.8138714
v -5.58307838 44.4519768 -23.8138714
v -5.58307838 43.7319756 -23.8138714
v -6.18307829 44.3319778 -23.8138714
v -6.18307829 43.8519783 -23.8138714
v -6.78307867 44.2119751 -23.8138714
v -6.78307867 43.9719772 -23.8138714
v -7.38307858 44.0919762 -23.8138714
v -4.3830781 44.6919746 -23.8138714
v -4.3830781 43.4919777 -23.8138714
v -4.983078 43.6119766 -23.8138714
v -4.983078 44.5719757 -23.8138714
v -5.58307838 43.7319756 -23.8138714
v -5.58307838 44.4519768 -23.8138714
v -6.18307829 43.8519783 -23.8138714
v -6.18307829 44.3319778 -23.8138714
v -6.78307867 43.9719772 -23.8138714
v -6.78307867 44.2119751 -23.8138714
v -7.38307858 44.0919762 -23.8138714
v -4.3830781 42.694046 -11.9492283
v -4.3830781 44.694046 -11.9492283
v -4.41843367 44.694046 -11.9138718
v -4.41843367 42.694046 -11.9138718
v -4.3830781 44.694046 -11.9492283
v -4.34772301 44.694046 -11.9138718
v -4.3830781 44.694046 -11.8785152
v -4.41843367 44.694046 -11.9138718
v -4.34772301 44.694046 -11.9138718
v -4.34772301 42.694046 -11.9138718
v -4.3830781 42.694046 -11.8785152
v -4.3830781 44.694046 -11.8785152
v -4.34772301 42.694046 -11.9138718
v -4.3830781 42.694046 -11.9492283
v -4.41843367 42.694046 -11.9138718
v -4.3830781 42.694046 -11.8785152
v -4.41843367 42.694046 -11.9138718
v -4.41843367 44.694046 -11.9138718
v -4.3830781 44.694046 -11.8785152
v -4.3830781 42.694046 -11.8785152
v -4.34772301 42.694046 -11.9138718
v -4.34772301 44.694046 -11.9138718
v -4.3830781 44.694046 -11.9492283
v -4.3830781 42.694046 -11.9492283
v -4.3830781 43.4919777 -11.9138718
v -4.3830781 44.6919746 -11.9138718
v -4.983078 44.5719757 -11.9138718
v -4.983078 43.6119766 -11.9138718
v -5.58307838 44.4519768 -11.9138718
v -5.58307838 43.7319756 -11.9138718
v -6.18307829 44.3319778 -11.9138718
v -6.18307829 43.8519783 -11.9138718
v -6.78307867 44.2119751 -11.9138718
v -6.78307867 43.9719772 -11.9138718
v -7.38307858 44.0919762 -11.9138718
v -4.3830781 44.6919746 -11.9138718
v -4.3830781 43.4919777 -11.9138718
v -4.983078 43.6119766 -11.9138718
v -4.983078 44.5719757 -11.9138718
v -5.58307838 43.7319756 -11.9138718
v -5.58307838 44.4519768 -11.9138718
v -6.18307829 43.8519783 -11.9138718
v -6.18307829 44.3319778 -11.9138718
v -6.78307867 43.9719772 -11.9138718
v -6.78307867 44.2119751 -11.9138718
v -7.38307858 44.0919762 -11.9138718
v 4.43385363 42.694046 -11.9492283
v 4.43385363 44.694046 -11.9492283
v 4.39849854 44.694046 -11.9138718
v 4.39849854 42.694046 -11.9138718
v 4.43385363 44.694046 -11.9492283
v 4.46920919 44.694046 -11.9138718
v 4.43385363 44.694046 -11.8785152
v 4.39849854 44.694046 -11.9138718
v 4.46920919 44.694046 -11.9138718
v 4.46920919 42.694046 -11.9138718
v 4.43385363 42.694046 -11.8785152
v 4.43385363 44.694046 -11.8785152
v 4.46920919 42.694046 -11.9138718
v 4.43385363 42.694046 -11.9492283
v 4.39849854 42.694046 -11.9138718
v 4.43385363 42.694046 -11.8785152
v 4.39849854 42.694046 -11.9138718
v 4.39849854 44.694046 -11.9138718
v 4.43385363 44.694046 -11.8785152
v 4.43385363 42.694046 -11.8785152
v 4.46920919 42.694046 -11.9138718
v 4.46920919 44.694046 -11.9138718
v 4.43385363 44.694046 -11.9492283
v 4.43385363 42.694046 -11.9492283
v 4.43385363 43.4919777 -11.9138718
v 4.43385363 44.6919746 -11.9138718
v 3.83385372 44.5719757 -11.9138718
v 3.83385372 43.6119766 -11.9138718
v 3.23385358 44.4519768 -11.9138718
v 3.23385358 43.7319756 -11.9138718
v 2.63385367 44.3319778 -11.9138718
v 2.63385367 43.8519783 -11.9138718
v 2.03385377 44.2119751 -11.9138718
v 2.03385377 43.9719772 -11.9138718
v 1.43385386 44.0919762 -11.9138718
v 4.43385363 44.6919746 -11.9138718
v 4.43385363 43.4919777 -11.9138718
v 3.83385372 43.6119766 -11.9138718
v 3.83385372 44.5719757 -11.9138718
v 3.23385358 43.7319756 -11.9138718
v 3.23385358 44.4519768 -11.9138718
v 2.63385367 43.8519783 -11.9138718
v 2.63385367 44.3319778 -11.9138718
v 2.03385377 43.9719772 -11.9138718
v 2.03385377 44.2119751 -11.9138718
v 1.43385386 44.0919762 -11.9138718
v 4.43385363 42.694046 11.850771
v 4.43385363 44.694046 11.850771
v 4.39849854 44.694046 11.8861275
v 4.39849854 42.694046 11.8861275
v 4.43385363 44.694046 11.850771
v 4.46920919 44.694046 11.8861275
v 4.43385363 44.694046 11.921484
v 4.39849854 44.694046 11.8861275
v 4.46920919 44.694046 11.8861275
v 4.46920919 42.694046 11.8861275
v 4.43385363 42.694046 11.921484
v 4.43385363 44.694046 11.921484
v 4.46920919 42.694046 11.8861275
v 4.43385363 42.694046 11.850771
v 4.39849854 42.694046 11.8861275
v 4.43385363 42.694046 11.921484
v 4.39849854 42.694046 11.8861275
v 4.39849854 44.694046 11.8861275
v 4.43385363 44.694046 11.921484
v 4.43385363 42.694046 11.921484
v 4.46920919 42.694046 11.8861275
v 4.46920919 44.694046 11.8861275
v 4.43385363 44.694046 11.850771
v 4.43385363 42.694046 11.850771
v 4.43385363 43.4919777 11.8861275
v 4.43385363 44.6919746 11.8861275
v 3.83385372 44.5719757 11.8861275
v 3.83385372 43.6119766 11.8861275
v 3.23385358 44.4519768 11.8861275
v 3.23385358 43.7319756 11.8861275
v 2.63385367 44.3319778 11.8861275
v 2.63385367 43.8519783 11.8861275
v 2.03385377 44.2119751 11.8861275
v 2.03385377 43.9719772 11.8861275
v 1.43385386 44.0919762 11.8861275
v 4.43385363 44.6919746 11.8861275
v 4.43385363 43.4919777 11.8861275
v 3.83385372 43.6119766 11.8861275
v 3.83385372 44.5719757 11.8861275
v 3.23385358 43.7319756 11.8861275
v 3.23385358 44.4519768 11.8861275
v 2.63385367 43.8519783 11.8861275
v 2.63385367 44.3319778 11.8861275
v 2.03385377 43.9719772 11.8861275
v 2.03385377 44.2119751 11.8861275
v 1.43385386 44.0919762 11.8861275
v -4.3830781 42.694046 11.850771
v -4.3830781 44.694046 11.850771
v -4.41843367 44.694046 11.8861275
v -4.41843367 42.694046 11.8861275
v -4.3830781 44.694046 11.850771
v -4.34772301 44.694046 11.8861275
v -4.3830781 44.694046 11.921484
v -4.41843367 44.694046 11.8861275
v -4.34772301 44.694046 11.8861275
v -4.34772301 42.694046 11.8861275
v -4.3830781 42.694046 11.921484
v -4.3830781 44.694046 11.921484
v -4.34772301 42.694046 11.8861275
v -4.3830781 42.694046 11.850771
v -4.41843367 42.694046 11.8861275
v -4.3830781 42.694046 11.921484
v -4.41843367 42.694046 11.8861275
v -4.41843367 44.694046 11.8861275
v -4.3830781 44.694046 11.921484
v -4.3830781 42.694046 11.921484
v -4.34772301 42.694046 11.8861275
v -4.34772301 44.694046 11.8861275
v -4.3830781 44.694046 11.850771
v -4.3830781 42.694046 11.850771
v -4.3830781 43.4919777 11.8861275
v -4.3830781 44.6919746 11.8861275
v -4.983078 44.5719757 11.8861275
v -4.983078 43.6119766 11.8861275
v -5.58307838 44.4519768 11.8861275
v -5.58307838 43.7319756 11.8861275
v -6.18307829 44.3319778 11.8861275
v -6.18307829 43.8519783 11.8861275
v -6.78307867 44.2119751 11.8861275
v -6.78307867 43.9719772 11.8861275
v -7.38307858 44.0919762 11.8861275
v -4.3830781 44.6919746 11.8861275
v -4.3830781 43.4919777 11.8861275
v -4.983078 43.6119766 11.8861275
v -4.983078 44.5719757 11.8861275
v -5.58307838 43.7319756 11.8861275
v -5.58307838 44.4519768 11.8861275
v -6.18307829 43.8519783 11.8861275
v -6.18307829 44.3319778 11.8861275
v -6.78307867 43.9719772 11.8861275
v -6.78307867 44.2119751 11.8861275
v -7.38307858 44.0919762 11.8861275
v -4.3830781 42.694046 23.7507706
v -4.3830781 44.694046 23.7507706
v -4.41843367 44.694046 23.7861271
v -4.41843367 42.694046 23.7861271
v -4.3830781 44.694046 23.7507706
v -4.34772301 44.694046 23.7861271
v -4.3830781 44.694046 23.8214836
v -4.41843367 44.694046 23.7861271
v -4.34772301 44.694046 23.7861271
v -4.34772301 42.694046 23.7861271
v -4.3830781 42.694046 23.8214836
v -4.3830781 44.694046 23.8214836
v -4.34772301 42.694046 23.7861271
v -4.3830781 42.694046 23.7507706
v -4.41843367 42.694046 23.7861271
v -4.3830781 42.694046 23.8214836
v -4.41843367 42.694046 23.7861271
v -4.41843367 44.694046 23.7861271
v -4.3830781 44.694046 23.8214836
v -4.3830781 42.694046 23.8214836
v -4.34772301 42.694046 23.7861271
v -4.34772301 44.694046 23.7861271
v -4.3830781 44.694046 23.7507706
v -4.3830781 42.694046 23.7507706
v -4.3830781 43.4919777 23.7861271
v -4.3830781 44.6919746 23.7861271
v -4.983078 44.5719757 23.7861271
v -4.983078 43.6119766 23.7861271
v -5.58307838 44.4519768 23.7861271
v -5.58307838 43.7319756 23.7861271
v -6.18307829 44.3319778 23.7861271
v -6.18307829 43.8519783 23.7861271
v -6.78307867 44.2119751 23.7861271
v -6.78307867 43.9719772 23.7861271
v -7.38307858 44.0919762 23.7861271
v -4.3830781 44.6919746 23.7861271
v -4.3830781 43.4919777 23.7861271
v -4.983078 43.6119766 23.7861271
v -4.983078 44.5719757 23.7861271
v -5.58307838 43.7319756 23.7861271
v -5.58307838 44.4519768 23.7861271
v -6.18307829 43.8519783 23.7861271
v -6.18307829 44.3319778 23.7861271
v -6.78307867 43.9719772 23.7861271
v -6.78307867 44.2119751 23.7861271
v -7.38307858 44.0919762 23.7861271
v 4.43385363 42.694046 23.7507706
v 4.43385363 44.694046 23.7507706
v 4.39849854 44.694046 23.7861271
v 4.39849854 42.694046 23.7861271
v 4.43385363 44.694046 23.7507706
v 4.46920919 44.694046 23.7861271
v 4.43385363 44.694046 23.8214836
v 4.39849854 44.694046 23.7861271
v 4.46920919 44.694046 23.7861271
v 4.46920919 42.694046 23.7861271
v 4.43385363 42.694046 23.8214836
v 4.43385363 44.694046 23.8214836
v 4.46920919 42.694046 23.7861271
v 4.43385363 42.694046 23.7507706
v 4.39849854 42.694046 23.7861271
v 4.43385363 42.694046 23.8214836
v 4.39849854 42.694046 23.7861271
v 4.39849854 44.694046 23.7861271
v 4.43385363 44.694046 23.8214836
v 4.43385363 42.694046 23.8214836
v 4.46920919 42.694046 23.7861271
v 4.46920919 44.694046 23.7861271
v 4.43385363 44.694046 23.7507706
v 4.43385363 42.694046 23.7507706
v 4.43385363 43.4919777 23.7861271
v 4.43385363 44.6919746 23.7861271
v 3.83385372 44.5719757 23.7861271
v 3.83385372 43.6119766 23.7861271
v 3.23385358 44.4519768 23.7861271
v 3.23385358 43.7319756 23.7861271
v 2.63385367 44.3319778 23.7861271
v 2.63385367 43.8519783 23.7861271
v 2.03385377 44.2119751 23.7861271
v 2.03385377 43.9719772 23.7861271
v 1.43385386 44.0919762 23.7861271
v 4.43385363 44.6919746 23.7861271
v 4.43385363 43.4919777 23.7861271
v 3.83385372 43.6119766 23.7861271
v 3.83385372 44.5719757 23.7861271
v 3.23385358 43.7319756 23.7861271
v 3.23385358 44.4519768 23.7861271
v 2.63385367 43.8519783 23.7861271
v 2.63385367 44.3319778 23.7861271
v 2.03385377 43.9719772 23.7861271
v 2.03385377 44.2119751 23.7861271
v 1.43385386 44.0919762 23.7861271
v 4.43385363 42.694046 35.6507721
v 4.43385363 44.694046 35.6507721
v 4.39849854 44.694046 35.6861267
v 4.39849854 42.694046 35.6861267
v 4.43385363 44.694046 35.6507721
v 4.46920919 44.694046 35.6861267
v 4.43385363 44.694046 35.7214851
v 4.39849854 44.694046 35.6861267
v 4.46920919 44.694046 35.6861267
v 4.46920919 42.694046 35.6861267
v 4.43385363 42.694046 35.7214851
v 4.43385363 44.694046 35.7214851
v 4.46920919 42.694046 35.6861267
v 4.43385363 42.694046 35.6507721
v 4.39849854 42.694046 35.6861267
v 4.43385363 42.694046 35.7214851
v 4.39849854 42.694046 35.6861267
v 4.39849854 44.694046 35.6861267
v 4.43385363 44.694046 35.7214851
v 4.43385363 42.694046 35.7214851
v 4.46920919 42.694046 35.6861267
v 4.46920919 44.694046 35.6861267
v 4.43385363 44.694046 35.6507721
v 4.43385363 42.694046 35.6507721
v 4.43385363 43.4919777 35.6861267
v 4.43385363 44.6919746 35.6861267
v 3.83385372 44.5719757 35.6861267
v 3.83385372 43.6119766 35.6861267
v 3.23385358 44.4519768 35.6861267
v 3.23385358 43.7319756 35.6861267
v 2.63385367 44.3319778 35.6861267
v 2.63385367 43.8519783 35.6861267
v 2.03385377 44.2119751 35.6861267
v 2.03385377 43.9719772 35.6861267
v 1.43385386 44.0919762 35.6861267
v 4.43385363 44.6919746 35.6861267
v 4.43385363 43.4919777 35.6861267
v 3.83385372 43.6119766 35.6861267
v 3.83385372 44.5719757 35.6861267
v 3.23385358 43.7319756 35.6861267
v 3.23385358 44.4519768 35.6861267
v 2.63385367 43.8519783 35.6861267
v 2.63385367 44.3319778 35.6861267
v 2.03385377 43.9719772 35.6861267
v 2.03385377 44.2119751 35.6861267
v 1.43385386 44.0919762 35.6861267
v -4.3830781 42.694046 35.6507721
v -4.3830781 44.694046 35.6507721
v -4.41843367 44.694046 35.6861267
v -4.41843367 42.694046 35.6861267
v -4.3830781 44.694046 35.6507721
v -4.34772301 44.694046 35.6861267
v -4.3830781 44.694046 35.7214851
v -4.41843367 44.694046 35.6861267
v -4.34772301 44.694046 35.6861267
v -4.34772301 42.694046 35.6861267
v -4.3830781 42.694046 35.7214851
v -4.3830781 44.694046 35.7214851
v -4.34772301 42.694046 35.6861267
v -4.3830781 42.694046 35.6507721
v -4.41843367 42.694046 35.6861267
v -4.3830781 42.694046 35.7214851
v -4.41843367 42.694046 35.6861267
v -4.41843367 44.694046 35.6861267
v -4.3830781 44.694046 35.7214851
v -4.3830781 42.694046 35.7214851
v -4.34772301 42.694046 35.6861267
v -4.34772301 44.694046 35.6861267
v -4.3830781 44.694046 35.6507721
v -4.3830781 42.694046 35.6507721
v -4.3830781 43.4919777 35.6861267
v -4.3830781 44.6919746 35.6861267
v -4.983078 44.5719757 35.6861267
v -4.983078 43.6119766 35.6861267
v -5.58307838 44.4519768 35.6861267
v -5.58307838 43.7319756 35.6861267
v -6.18307829 44.3319778 35.6861267
v -6.18307829 43.8519783 35.6861267
v -6.78307867 44.2119751 35.6861267
v -6.78307867 43.9719772 35.6861267
v -7.38307858 44.0919762 35.6861267
v -4.3830781 44.6919746 35.6861267
v -4.3830781 43.4919777 35.6861267
v -4.983078 43.6119766 35.6861267
v -4.983078 44.5719757 35.6861267
v -5.58307838 43.7319756 35.6861267
v -5.58307838 44.4519768 35.6861267
v -6.18307829 43.8519783 35.6861267
v -6.18307829 44.3319778 35.6861267
v -6.78307867 43.9719772 35.6861267
v -6.78307867 44.2119751 35.6861267
v -7.38307858 44.0919762 35.6861267
v -4.3830781 42.694046 46.6507721
v -4.3830781 44.694046 46.6507721
v -4.41843367 44.694046 46.6861267
v -4.41843367 42.694046 46.6861267
v -4.3830781 44.694046 46.6507721
v -4.34772301 44.694046 46.6861267
v -4.3830781 44.694046 46.7214851
v -4.41843367 44.694046 46.6861267
v -4.34772301 44.694046 46.6861267
v -4.34772301 42.694046 46.6861267
v -4.3830781 42.694046 46.7214851
v -4.3830781 44.694046 46.7214851
v -4.34772301 42.694046 46.6861267
v -4.3830781 42.694046 46.6507721
v -4.41843367 42.694046 46.6861267
v -4.3830781 42.694046 46.7214851
v -4.41843367 42.694046 46.6861267
v -4.41843367 44.694046 46.6861267
v -4.3830781 44.694046 46.7214851
v -4.3830781 42.694046 46.7214851
v -4.34772301 42.694046 46.6861267
v -4.34772301 44.694046 46.6861267
v -4.3830781 44.694046 46.6507721
v -4.3830781 42.694046 46.6507721
v -4.3830781 43.4919777 46.6861267
v -4.3830781 44.6919746 46.6861267
v -4.983078 44.5719757 46.6861267
v -4.983078 43.6119766 46.6861267
v -5.58307838 44.4519768 46.6861267
v -5.58307838 43.7319756 46.6861267
v -6.18307829 44.3319778 46.6861267
v -6.18307829 43.8519783 46.6861267
v -6.78307867 44.2119751 46.6861267
v -6.78307867 43.9719772 46.6861267
v -7.38307858 44.0919762 46.6861267
v -4.3830781 44.6919746 46.6861267
v -4.3830781 43.4919777 46.6861267
v -4.983078 43.6119766 46.6861267
v -4.983078 44.5719757 46.6861267
v -5.58307838 43.7319756 46.6861267
v -5.58307838 44.4519768 46.6861267
v -6.18307829 43.8519783 46.6861267
v -6.18307829 44.3319778 46.6861267
v -6.78307867 43.9719772 46.6861267
v -6.78307867 44.2119751 46.6861267
v -7.38307858 44.0919762 46.6861267
v 4.43385363 42.694046 46.6507721
v 4.43385363 44.694046 46.6507721
v 4.39849854 44.694046 46.6861267
v 4.39849854 42.694046 46.6861267
v 4.43385363 44.694046 46.6507721
v 4.46920919 44.694046 46.6861267
v 4.43385363 44.694046 46.7214851
v 4.39849854 44.694046 46.6861267
v 4.46920919 44.694046 46.6861267
v 4.46920919 42.694046 46.6861267
v 4.43385363 42.694046 46.7214851
v 4.43385363 44.694046 46.7214851
v 4.46920919 42.694046 46.6861267
v 4.43385363 42.694046 46.6507721
v 4.39849854 42.694046 46.6861267
v 4.43385363 42.694046 46.7214851
v 4.39849854 42.694046 46.6861267
v 4.39849854 44.694046 46.6861267
v 4.43385363 44.694046 46.7214851
v 4.43385363 42.694046 46.7214851
v 4.46920919 42.694046 46.6861267
v 4.46920919 44.694046 46.6861267
v 4.43385363 44.694046 46.6507721
v 4.43385363 42.694046 46.6507721
v 4.43385363 43.4919777 46.6861267
v 4.43385363 44.6919746 46.6861267
v 3.83385372 44.5719757 46.6861267
v 3.83385372 43.6119766 46.6861267
v 3.23385358 44.4519768 46.6861267
v 3.23385358 43.7319756 46.6861267
v 2.63385367 44.3319778 46.6861267
v 2.63385367 43.8519783 46.6861267
v 2.03385377 44.2119751 46.6861267
v 2.03385377 43.9719772 46.6861267
v 1.43385386 44.0919762 46.6861267
v 4.43385363 44.6919746 46.6861267
v 4.43385363 43.4919777 46.6861267
v 3.83385372 43.6119766 46.6861267
v 3.83385372 44.5719757 46.6861267
v 3.23385358 43.7319756 46.6861267
v 3.23385358 44.4519768 46.6861267
v 2.63385367 43.8519783 46.6861267
v 2.63385367 44.3319778 46.6861267
v 2.03385377 43.9719772 46.6861267
v 2.03385377 44.2119751 46.6861267
v 1.43385386 44.0919762 46.6861267
vt 0.902259648 0.400893033
vt 0.902259648 0.531202555
vt 0.902259648 0.531202555
vt 0.902259648 0.400893033
vt 0.902259648 0.531202555
vt 0.905517578 0.531202555
vt 0.905517578 0.531202555
vt 0.902259648 0.531202555
vt 0.905517578 0.531202555
vt 0.905517578 0.400893033
vt 0.905517578 0.400893033
vt 0.905517578 0.531202555
vt 0.905517578 0.400893033
vt 0.902259648 0.400893033
vt 0.902259648 0.400893033
vt 0.905517578 0.400893033
vt 0.902259648 0.400893033
vt 0.902259648 0.531202555
vt 0.905517578 0.531202555
vt 0.905517578 0.400893033
vt 0.905517578 0.400893033
vt 0.905517578 0.531202555
vt 0.902259648 0.531202555
vt 0.902259648 0.400893033
vt 0.465024322 0.813583076
vt 0.465024322 0.861961067
vt 0.487717807 0.857576728
vt 0.487717807 0.817967415
vt 0.510411382 0.852554739
vt 0.510411382 0.822989404
vt 0.533105016 0.847779572
vt 0.533105016 0.827764571
vt 0.555798411 0.842973292
vt 0.555798411 0.832570851
vt 0.578492224 0.837575793
vt 0.465024322 0.861961067
vt 0.465024322 0.813583076
vt 0.487717807 0.817967415
vt 0.487717807 0.857576728
vt 0.510411382 0.822989404
vt 0.510411382 0.852554739
vt 0.533105016 0.827764571
vt 0.533105016 0.847779572
vt 0.555798411 0.832570851
vt 0.555798411 0.842973292
vt 0.578492224 0.837575793
vt 0.902259648 0.400893033
vt 0.902259648 0.531202555
vt 0.902259648 0.531202555
vt 0.902259648 0.400893033
vt 0.902259648 0.531202555
vt 0.905517578 0.531202555
vt 0.905517578 0.531202555
vt 0.902259648 0.531202555
vt 0.905517578 0.531202555
vt 0.905517578 0.400893033
vt 0.905517578 0.400893033
vt 0.905517578 0.531202555
vt 0.905517578 0.400893033
vt 0.902259648 0.400893033
vt 0.902259648 0.400893033
vt 0.905517578 0.400893033
vt 0.902259648 0.400893033
vt 0.902259648 0.531202555
vt 0.905517578 0.531202555
vt 0.905517578 0.400893033
vt 0.905517578 0.400893033
vt 0.905517578 0.531202555
vt 0.902259648 0.531202555
vt 0.902259648 0.400893033
vt 0.465024322 0.813583076
vt 0.465024322 0.861961067
vt 0.487717807 0.857576728
vt 0.487717807 0.817967415
vt 0.510411382 0.852554739
vt 0.510411382 0.822989404
vt 0.533105016 0.847779572
vt 0.533105016 0.827764571
vt 0.555798411 0.842973292
vt 0.555798411 0.832570851
vt 0.578492224 0.837575793
vt 0.465024322 0.861961067
vt 0.465024322 0.813583076
vt 0.487717807 0.817967415
vt 0.487717807 0.857576728
vt 0.510411382 0.822989404
vt 0.510411382 0.852554739
vt 0.533105016 0.827764571
vt 0.533105016 0.847779572
vt 0.555798411 0.832570851
vt 0.555798411 0.842973292
vt 0.578492224 0.837575793
vt 0.902259648 0.400893033
vt 0.902259648 0.531202555
vt 0.902259648 0.531202555
vt 0.902259648 0.400893033
vt 0.902259648 0.531202555
vt 0.905517578 0.531202555
vt 0.905517578 0.531202555
vt 0.902259648 0.531202555
vt 0.905517578 0.531202555
vt 0.905517578 0.400893033
vt 0.905517578 0.400893033
vt 0.905517578 0.531202555
vt 0.905517578 0.400893033
vt 0.902259648 0.400893033
vt 0.902259648 0.400893033
vt 0.905517578 0.400893033
vt 0.902259648 0.400893033
vt 0.902259648 0.531202555
vt 0.905517578 0.531202555
vt 0.905517578 0.400893033
vt 0.905517578 0.400893033
vt 0.905517578 0.531202555
vt 0.902259648 0.531202555
vt 0.902259648 0.400893033
vt 0.465024322 0.813583076
vt 0.465024322 0.861961067
vt 0.487717807 0.857576728
vt 0.487717807 0.817967415
vt 0.510411382 0.852554739
vt 0.510411382 0.822989404
vt 0.533105016 0.847779572
vt 0.533105016 0.827764571
vt 0.555798411 0.842973292
vt 0.555798411 0.832570851
vt 0.578492224 0.837575793
vt 0.465024322 0.861961067
vt 0.465024322 0.813583076
vt 0.487717807 0.817967415
vt 0.487717807 0.857576728
vt 0.510411382 0.822989404
vt 0.510411382 0.852554739
vt 0.533105016 0.827764571
vt 0.533105016 0.847779572
vt 0.555798411 0.832570851
vt 0.555798411 0.842973292
vt 0.578492224 0.837575793
vt 0.902259648 0.400893033
vt 0.902259648 0.531202555
vt 0.902259648 0.531202555
vt 0.902259648 0.400893033
vt 0.902259648 0.531202555
vt 0.905517578 0.531202555
vt 0.905517578 0.531202555
vt 0.902259648 0.531202555
vt 0.905517578 0.531202555
vt 0.905517578 0.400893033
vt 0.905517578 0.400893033
vt 0.905517578 0.531202555
vt 0.905517578 0.400893033
vt 0.902259648 0.400893033
vt 0.902259648 0.400893033
vt 0.905517578 0.400893033
vt 0.902259648 0.400893033
vt 0.902259648 0.531202555
vt 0.905517578 0.531202555
vt 0.905517578 0.400893033
vt 0.905517578 0.400893033
vt 0.905517578 0.531202555
vt 0.902259648 0.531202555
vt 0.902259648 0.400893033
vt 0.465024322 0.813583076
vt 0.465024322 0.861961067
vt 0.487717807 0.857576728
vt 0.487717807 0.817967415
vt 0.510411382 0.852554739
vt 0.510411382 0.822989404
vt 0.533105016 0.847779572
vt 0.533105016 0.827764571
vt 0.555798411 0.842973292
vt 0.555798411 0.832570851
vt 0.578492224 0.837575793
vt 0.465024322 0.861961067
vt 0.465024322 0.813583076
vt 0.487717807 0.817967415
vt 0.487717807 0.857576728
vt 0.510411382 0.822989404
vt 0.510411382 0.852554739
vt 0.533105016 0.827764571
vt 0.533105016 0.847779572
vt 0.555798411 0.832570851
vt 0.555798411 0.842973292
vt 0.578492224 0.837575793
vt 0.902259648 0.400893033
vt 0.902259648 0.531202555
vt 0.902259648 0.531202555
vt 0.902259648 0.400893033
vt 0.902259648 0.531202555
vt 0.905517578 0.531202555
vt 0.905517578 0.531202555
vt 0.902259648 0.531202555
vt 0.905517578 0.531202555
vt 0.905517578 0.400893033
vt 0.905517578 0.400893033
vt 0.905517578 0.531202555
vt 0.905517578 0.400893033
vt 0.902259648 0.400893033
vt 0.902259648 0.400893033
vt 0.905517578 0.400893033
vt 0.902259648 0.400893033
vt 0.902259648 0.531202555
vt 0.905517578 0.531202555
vt 0.905517578 0.400893033
vt 0.905517578 0.400893033
vt 0.905517578 0.531202555
vt 0.902259648 0.531202555
vt 0.902259648 0.400893033
vt 0.465024322 0.813583076
vt 0.465024322 0.861961067
vt 0.487717807 0.857576728
vt 0.487717807 0.817967415
vt 0.510411382 0.852554739
vt 0.510411382 0.822989404
vt 0.533105016 0.847779572
vt 0.533105016 0.827764571
vt 0.555798411 0.842973292
vt 0.555798411 0.832570851
vt 0.578492224 0.837575793
vt 0.465024322 0.861961067
vt 0.465024322 0.813583076
vt 0.487717807 0.817967415
vt 0.487717807 0.857576728
vt 0.510411382 0.822989404
vt 0.510411382 0.852554739
vt 0.533105016 0.827764571
vt 0.533105016 0.847779572
vt 0.555798411 0.832570851
vt 0.555798411 0.842973292
vt 0.578492224 0.837575793
vt 0.902259648 0.400893033
vt 0.902259648 0.531202555
vt 0.902259648 0.531202555
vt 0.902259648 0.400893033
vt 0.902259648 0.531202555
vt 0.905517578 0.531202555
vt 0.905517578 0.531202555
vt 0.902259648 0.531202555
vt 0.905517578 0.531202555
vt 0.905517578 0.400893033
vt 0.905517578 0.400893033
vt 0.905517578 0.531202555
vt 0.905517578 0.400893033
vt 0.902259648 0.400893033
vt 0.902259648 0.400893033
vt 0.905517578 0.400893033
vt 0.902259648 0.400893033
vt 0.902259648 0.531202555
vt 0.905517578 0.531202555
vt 0.905517578 0.400893033
vt 0.905517578 0.400893033
vt 0.905517578 0.531202555
vt 0.902259648 0.531202555
vt 0.902259648 0.400893033
vt 0.465024322 0.813583076
vt 0.465024322 0.861961067
vt 0.487717807 0.857576728
vt 0.487717807 0.817967415
vt 0.510411382 0.852554739
vt 0.510411382 0.822989404
vt 0.533105016 0.847779572
vt 0.533105016 0.827764571
vt 0.555798411 0.842973292
vt 0.555798411 0.832570851
vt 0.578492224 0.837575793
vt 0.465024322 0.861961067
vt 0.465024322 0.813583076
vt 0.487717807 0.817967415
vt 0.487717807 0.857576728
vt 0.510411382 0.822989404
vt 0.510411382 0.852554739
vt 0.533105016 0.827764571
vt 0.533105016 0.847779572
vt 0.555798411 0.832570851
vt 0.555798411 0.842973292
vt 0.578492224 0.837575793
vt 0.902259648 0.400893033
vt 0.902259648 0.531202555
vt 0.902259648 0.531202555
vt 0.902259648 0.400893033
vt 0.902259648 0.531202555
vt 0.905517578 0.531202555
vt 0.905517578 0.531202555
vt 0.902259648 0.531202555
vt 0.905517578 0.531202555
vt 0.905517578 0.400893033
vt 0.905517578 0.400893033
vt 0.905517578 0.531202555
vt 0.905517578 0.400893033
vt 0.902259648 0.400893033
vt 0.902259648 0.400893033
vt 0.905517578 0.400893033
vt 0.902259648 0.400893033
vt 0.902259648 0.531202555
vt 0.905517578 0.531202555
vt 0.905517578 0.400893033
vt 0.905517578 0.400893033
vt 0.905517578 0.531202555
vt 0.902259648 0.531202555
vt 0.902259648 0.400893033
vt 0.465024322 0.813583076
vt 0.465024322 0.861961067
vt 0.487717807 0.857576728
vt 0.487717807 0.817967415
vt 0.510411382 0.852554739
vt 0.510411382 0.822989404
vt 0.533105016 0.847779572
vt 0.533105016 0.827764571
vt 0.555798411 0.842973292
vt 0.555798411 0.832570851
vt 0.578492224 0.837575793
vt 0.465024322 0.861961067
vt 0.465024322 0.813583076
vt 0.487717807 0.817967415
vt 0.487717807 0.857576728
vt 0.510411382 0.822989404
vt 0.510411382 0.852554739
vt 0.533105016 0.827764571
vt 0.533105016 0.847779572
vt 0.555798411 0.832570851
vt 0.555798411 0.842973292
vt 0.578492224 0.837575793
vt 0.902259648 0.400893033
vt 0.902259648 0.531202555
vt 0.902259648 0.531202555
vt 0.902259648 0.400893033
vt 0.902259648 0.531202555
vt 0.905517578 0.531202555
vt 0.905517578 0.531202555
vt 0.902259648 0.531202555
vt 0.905517578 0.531202555
vt 0.905517578 0.400893033
vt 0.905517578 0.400893033
vt 0.905517578 0.531202555
vt 0.905517578 0.400893033
vt 0.902259648 0.400893033
vt 0.902259648 0.400893033
vt 0.905517578 0.400893033
vt 0.902259648 0.400893033
vt 0.902259648 0.531202555
vt 0.905517578 0.531202555
vt 0.905517578 0.400893033
vt 0.905517578 0.400893033
vt 0.905517578 0.531202555
vt 0.902259648 0.531202555
vt 0.902259648 0.400893033
vt 0.465024322 0.813583076
vt 0.465024322 0.861961067
vt 0.487717807 0.857576728
vt 0.487717807 0.817967415
vt 0.510411382 0.852554739
vt 0.510411382 0.822989404
vt 0.533105016 0.847779572
vt 0.533105016 0.827764571
vt 0.555798411 0.842973292
vt 0.555798411 0.832570851
vt 0.578492224 0.837575793
vt 0.465024322 0.861961067
vt 0.465024322 0.813583076
vt 0.487717807 0.817967415
vt 0.487717807 0.857576728
vt 0.510411382 0.822989404
vt 0.510411382 0.852554739
vt 0.533105016 0.827764571
vt 0.533105016 0.847779572
vt 0.555798411 0.832570851
vt 0.555798411 0.842973292
vt 0.578492224 0.837575793
vt 0.902259648 0.347233474
vt 0.902259648 0.477542996
vt 0.902259648 0.477542996
vt 0.902259648 0.347233474
vt 0.902259648 0.477542996
vt 0.905517578 0.477542996
vt 0.905517578 0.477542996
vt 0.902259648 0.477542996
vt 0.905517578 0.477542996
vt 0.905517578 0.347233474
vt 0.905517578 0.347233474
vt 0.905517578 0.477542996
vt 0.905517578 0.347233474
vt 0.902259648 0.347233474
vt 0.902259648 0.347233474
vt 0.905517578 0.347233474
vt 0.902259648 0.347233474
vt 0.902259648 0.477542996
vt 0.905517578 0.477542996
vt 0.905517578 0.347233474
vt 0.905517578 0.347233474
vt 0.905517578 0.477542996
vt 0.902259648 0.477542996
vt 0.902259648 0.347233474
vt 0.465024322 0.759923518
vt 0.465024322 0.808301508
vt 0.487717807 0.80391717
vt 0.487717807 0.764307857
vt 0.510411382 0.79889518
vt 0.510411382 0.769329846
vt 0.533105016 0.794120014
vt 0.533105016 0.774105012
vt 0.555798411 0.789313734
vt 0.555798411 0.778911293
vt 0.578492224 0.783916235
vt 0.465024322 0.808301508
vt 0.465024322 0.759923518
vt 0.487717807 0.764307857
vt 0.487717807 0.80391717
vt 0.510411382 0.769329846
vt 0.510411382 0.79889518
vt 0.533105016 0.774105012
vt 0.533105016 0.794120014
vt 0.555798411 0.778911293
vt 0.555798411 0.789313734
vt 0.578492224 0.783916235
vt 0.902259648 0.347233474
vt 0.902259648 0.477542996
vt 0.902259648 0.477542996
vt 0.902259648 0.347233474
vt 0.902259648 0.477542996
vt 0.905517578 0.477542996
vt 0.905517578 0.477542996
vt 0.902259648 0.477542996
vt 0.905517578 0.477542996
vt 0.905517578 0.347233474
vt 0.905517578 0.347233474
vt 0.905517578 0.477542996
vt 0.905517578 0.347233474
vt 0.902259648 0.347233474
vt 0.902259648 0.347233474
vt 0.905517578 0.347233474
vt 0.902259648 0.347233474
vt 0.902259648 0.477542996
vt 0.905517578 0.477542996
vt 0.905517578 0.347233474
vt 0.905517578 0.347233474
vt 0.905517578 0.477542996
vt 0.902259648 0.477542996
vt 0.902259648 0.347233474
vt 0.465024322 0.759923518
vt 0.465024322 0.808301508
vt 0.487717807 0.80391717
vt 0.487717807 0.764307857
vt 0.510411382 0.79889518
vt 0.510411382 0.769329846
vt 0.533105016 0.794120014
vt 0.533105016 0.774105012
vt 0.555798411 0.789313734
vt 0.555798411 0.778911293
vt 0.578492224 0.783916235
vt 0.465024322 0.808301508
vt 0.465024322 0.759923518
vt 0.487717807 0.764307857
vt 0.487717807 0.80391717
vt 0.510411382 0.769329846
vt 0.510411382 0.79889518
vt 0.533105016 0.774105012
vt 0.533105016 0.794120014
vt 0.555798411 0.778911293
vt 0.555798411 0.789313734
vt 0.578492224 0.783916235
vt 0.902259648 0.347233474
vt 0.902259648 0.477542996
vt 0.902259648 0.477542996
vt 0.902259648 0.347233474
vt 0.902259648 0.477542996
vt 0.905517578 0.477542996
vt 0.905517578 0.477542996
vt 0.902259648 0.477542996
vt 0.905517578 0.477542996
vt 0.905517578 0.347233474
vt 0.905517578 0.347233474
vt 0.905517578 0.477542996
vt 0.905517578 0.347233474
vt 0.902259648 0.347233474
vt 0.902259648 0.347233474
vt 0.905517578 0.347233474
vt 0.902259648 0.347233474
vt 0.902259648 0.477542996
vt 0.905517578 0.477542996
vt 0.905517578 0.347233474
vt 0.905517578 0.347233474
vt 0.905517578 0.477542996
vt 0.902259648 0.477542996
vt 0.902259648 0.347233474
vt 0.465024322 0.759923518
vt 0.465024322 0.808301508
vt 0.487717807 0.80391717
vt 0.487717807 0.764307857
vt 0.510411382 0.79889518
vt 0.510411382 0.769329846
vt 0.533105016 0.794120014
vt 0.533105016 0.774105012
vt 0.555798411 0.789313734
vt 0.555798411 0.778911293
vt 0.578492224 0.783916235
vt 0.465024322 0.808301508
vt 0.465024322 0.759923518
vt 0.487717807 0.764307857
vt 0.487717807 0.80391717
vt 0.510411382 0.769329846
vt 0.510411382 0.79889518
vt 0.533105016 0.774105012
vt 0.533105016 0.794120014
vt 0.555798411 0.778911293
vt 0.555798411 0.789313734
vt 0.578492224 0.783916235
vt 0.902259648 0.347233474
vt 0.902259648 0.477542996
vt 0.902259648 0.477542996
vt 0.902259648 0.347233474
vt 0.902259648 0.477542996
vt 0.905517578 0.477542996
vt 0.905517578 0.477542996
vt 0.902259648 0.477542996
vt 0.905517578 0.477542996
vt 0.905517578 0.347233474
vt 0.905517578 0.347233474
vt 0.905517578 0.477542996
vt 0.905517578 0.347233474
vt 0.902259648 0.347233474
vt 0.902259648 0.347233474
vt 0.905517578 0.347233474
vt 0.902259648 0.347233474
vt 0.902259648 0.477542996
vt 0.905517578 0.477542996
vt 0.905517578 0.347233474
vt 0.905517578 0.347233474
vt 0.905517578 0.477542996
vt 0.902259648 0.477542996
vt 0.902259648 0.347233474
vt 0.465024322 0.759923518
vt 0.465024322 0.808301508
vt 0.487717807 0.80391717
vt 0.487717807 0.764307857
vt 0.510411382 0.79889518
vt 0.510411382 0.769329846
vt 0.533105016 0.794120014
vt 0.533105016 0.774105012
vt 0.555798411 0.789313734
vt 0.555798411 0.778911293
vt 0.578492224 0.783916235
vt 0.465024322 0.808301508
vt 0.465024322 0.759923518
vt 0.487717807 0.764307857
vt 0.487717807 0.80391717
vt 0.510411382 0.769329846
vt 0.510411382 0.79889518
vt 0.533105016 0.774105012
vt 0.533105016 0.794120014
vt 0.555798411 0.778911293
vt 0.555798411 0.789313734
vt 0.578492224 0.783916235
vt 0.902259648 0.347233474
vt 0.902259648 0.477542996
vt 0.902259648 0.477542996
vt 0.902259648 0.347233474
vt 0.902259648 0.477542996
vt 0.905517578 0.477542996
vt 0.905517578 0.477542996
vt 0.902259648 0.477542996
vt 0.905517578 0.477542996
vt 0.905517578 0.347233474
vt 0.905517578 0.347233474
vt 0.905517578 0.477542996
vt 0.905517578 0.347233474
vt 0.902259648 0.347233474
vt 0.902259648 0.347233474
vt 0.905517578 0.347233474
vt 0.902259648 0.347233474
vt 0.902259648 0.477542996
vt 0.905517578 0.477542996
vt 0.905517578 0.347233474
vt 0.905517578 0.347233474
vt 0.905517578 0.477542996
vt 0.902259648 0.477542996
vt 0.902259648 0.347233474
vt 0.465024322 0.759923518
vt 0.465024322 0.808301508
vt 0.487717807 0.80391717
vt 0.487717807 0.764307857
vt 0.510411382 0.79889518
vt 0.510411382 0.769329846
vt 0.533105016 0.794120014
vt 0.533105016 0.774105012
vt 0.555798411 0.789313734
vt 0.555798411 0.778911293
vt 0.578492224 0.783916235
vt 0.465024322 0.808301508
vt 0.465024322 0.759923518
vt 0.487717807 0.764307857
vt 0.487717807 0.80391717
vt 0.510411382 0.769329846
vt 0.510411382 0.79889518
vt 0.533105016 0.774105012
vt 0.533105016 0.794120014
vt 0.555798411 0.778911293
vt 0.555798411 0.789313734
vt 0.578492224 0.783916235
vt 0.902259648 0.347233474
vt 0.902259648 0.477542996
vt 0.902259648 0.477542996
vt 0.902259648 0.347233474
vt 0.902259648 0.477542996
vt 0.905517578 0.477542996
vt 0.905517578 0.477542996
vt 0.902259648 0.477542996
vt 0.905517578 0.477542996
vt 0.905517578 0.347233474
vt 0.905517578 0.347233474
vt 0.905517578 0.477542996
vt 0.905517578 0.347233474
vt 0.902259648 0.347233474
vt 0.902259648 0.347233474
vt 0.905517578 0.347233474
vt 0.902259648 0.347233474
vt 0.902259648 0.477542996
vt 0.905517578 0.477542996
vt 0.905517578 0.347233474
vt 0.905517578 0.347233474
vt 0.905517578 0.477542996
vt 0.902259648 0.477542996
vt 0.902259648 0.347233474
vt 0.465024322 0.759923518
vt 0.465024322 0.808301508
vt 0.487717807 0.80391717
vt 0.487717807 0.764307857
vt 0.510411382 0.79889518
vt 0.510411382 0.769329846
vt 0.533105016 0.794120014
vt 0.533105016 0.774105012
vt 0.555798411 0.789313734
vt 0.555798411 0.778911293
vt 0.578492224 0.783916235
vt 0.465024322 0.808301508
vt 0.465024322 0.759923518
vt 0.487717807 0.764307857
vt 0.487717807 0.80391717
vt 0.510411382 0.769329846
vt 0.510411382 0.79889518
vt 0.533105016 0.774105012
vt 0.533105016 0.794120014
vt 0.555798411 0.778911293
vt 0.555798411 0.789313734
vt 0.578492224 0.783916235
vt 0.902259648 0.347233474
vt 0.902259648 0.477542996
vt 0.902259648 0.477542996
vt 0.902259648 0.347233474
vt 0.902259648 0.477542996
vt 0.905517578 0.477542996
vt 0.905517578 0.477542996
vt 0.902259648 0.477542996
vt 0.905517578 0.477542996
vt 0.905517578 0.347233474
vt 0.905517578 0.347233474
vt 0.905517578 0.477542996
vt 0.905517578 0.347233474
vt 0.902259648 0.347233474
vt 0.902259648 0.347233474
vt 0.905517578 0.347233474
vt 0.902259648 0.347233474
vt 0.902259648 0.477542996
vt 0.905517578 0.477542996
vt 0.905517578 0.347233474
vt 0.905517578 0.347233474
vt 0.905517578 0.477542996
vt 0.902259648 0.477542996
vt 0.902259648 0.347233474
vt 0.465024322 0.759923518
vt 0.465024322 0.808301508
vt 0.487717807 0.80391717
vt 0.487717807 0.764307857
vt 0.510411382 0.79889518
vt 0.510411382 0.769329846
vt 0.533105016 0.794120014
vt 0.533105016 0.774105012
vt 0.555798411 0.789313734
vt 0.555798411 0.778911293
vt 0.578492224 0.783916235
vt 0.465024322 0.808301508
vt 0.465024322 0.759923518
vt 0.487717807 0.764307857
vt 0.487717807 0.80391717
vt 0.510411382 0.769329846
vt 0.510411382 0.79889518
vt 0.533105016 0.774105012
vt 0.533105016 0.794120014
vt 0.555798411 0.778911293
vt 0.555798411 0.789313734
vt 0.578492224 0.783916235
vt 0.902259648 0.347233474
vt 0.902259648 0.477542996
vt 0.902259648 0.477542996
vt 0.902259648 0.347233474
vt 0.902259648 0.477542996
vt 0.905517578 0.477542996
vt 0.905517578 0.477542996
vt 0.902259648 0.477542996
vt 0.905517578 0.477542996
vt 0.905517578 0.347233474
vt 0.905517578 0.347233474
vt 0.905517578 0.477542996
vt 0.905517578 0.347233474
vt 0.902259648 0.347233474
vt 0.902259648 0.347233474
vt 0.905517578 0.347233474
vt 0.902259648 0.347233474
vt 0.902259648 0.477542996
vt 0.905517578 0.477542996
vt 0.905517578 0.347233474
vt 0.905517578 0.347233474
vt 0.905517578 0.477542996
vt 0.902259648 0.477542996
vt 0.902259648 0.347233474
vt 0.465024322 0.759923518
vt 0.465024322 0.808301508
vt 0.487717807 0.80391717
vt 0.487717807 0.764307857
vt 0.510411382 0.79889518
vt 0.510411382 0.769329846
vt 0.533105016 0.794120014
vt 0.533105016 0.774105012
vt 0.555798411 0.789313734
vt 0.555798411 0.778911293
vt 0.578492224 0.783916235
vt 0.465024322 0.808301508
vt 0.465024322 0.759923518
vt 0.487717807 0.764307857
vt 0.487717807 0.80391717
vt 0.510411382 0.769329846
vt 0.510411382 0.79889518
vt 0.533105016 0.774105012
vt 0.533105016 0.794120014
vt 0.555798411 0.778911293
vt 0.555798411 0.789313734
vt 0.578492224 0.783916235
vn -0.707117021 0 -0.707096577
vn -0.707117021 0 -0.707096577
vn -0.707117021 0 -0.707096577
vn -0.707117021 0 -0.707096577
vn -0 1 0
vn -0 1 0
vn -0 1 0
vn -0 1 0
vn 0.70711416 0 0.707099438
vn 0.70711416 0 0.707099438
vn 0.70711416 0 0.707099438
vn 0.70711416 0 0.707099438
vn -0 -1 0
vn -0 -1 0
vn -0 -1 0
vn -0 -1 0
vn -0.707117021 0 0.707096577
vn -0.707117021 0 0.707096577
vn -0.707117021 0 0.707096577
vn -0.707117021 0 0.707096577
vn 0.70711416 0 -0.707099438
vn 0.70711416 0 -0.707099438
vn 0.70711416 0 -0.707099438
vn 0.70711416 0 -0.707099438
vn 9.64503852E-06 0 -1
vn 9.64503852E-06 0 -1
vn 6.01266402E-06 0 -1
vn 6.01266402E-06 0 -1
vn 3.09749612E-06 0 -1
vn 3.09749612E-06 0 -1
vn 5.92110928E-06 0 -1
vn 5.92110928E-06 0 -1
vn -0 0 -1
vn -0 0 -1
vn -0 0 -1
vn -9.64503852E-06 0 1
vn -9.64503852E-06 0 1
vn -6.01266402E-06 0 1
vn -6.01266402E-06 0 1
vn -3.09749612E-06 0 1
vn -3.09749612E-06 0 1
vn -5.92110928E-06 0 1
vn -5.92110928E-06 0 1
vn -0 0 1
vn -0 0 1
vn -0 0 1
vn -0.70711416 0 -0.707099438
vn -0.70711416 0 -0.707099438
vn -0.70711416 0 -0.707099438
vn -0.70711416 0 -0.707099438
vn -0 1 0
vn -0 1 0
vn -0 1 0
vn -0 1 0
vn 0.707117021 0 0.707096577
vn 0.707117021 0 0.707096577
vn 0.707117021 0 0.707096577
vn 0.707117021 0 0.707096577
vn -0 -1 0
vn -0 -1 0
vn -0 -1 0
vn -0 -1 0
vn -0.70711416 0 0.707099438
vn -0.70711416 0 0.707099438
vn -0.70711416 0 0.707099438
vn -0.70711416 0 0.707099438
vn 0.707117021 0 -0.707096577
vn 0.707117021 0 -0.707096577
vn 0.707117021 0 -0.707096577
vn 0.707117021 0 -0.707096577
vn 9.64503852E-06 0 -1
vn 9.64503852E-06 0 -1
vn 6.01267084E-06 0 -1
vn 6.01267084E-06 0 -1
vn 3.09750249E-06 0 -1
vn 3.09750249E-06 0 -1
vn 5.92110928E-06 0 -1
vn 5.92110928E-06 0 -1
vn -0 0 -1
vn -0 0 -1
vn -0 0 -1
vn -9.64503852E-06 0 1
vn -9.64503852E-06 0 1
vn -6.01267084E-06 0 1
vn -6.01267084E-06 0 1
vn -3.09750249E-06 0 1
vn -3.09750249E-06 0 1
vn -5.92110928E-06 0 1
vn -5.92110928E-06 0 1
vn -0 0 1
vn -0 0 1
vn -0 0 1
vn -0.70711416 0 -0.707099438
vn -0.70711416 0 -0.707099438
vn -0.70711416 0 -0.707099438
vn -0.70711416 0 -0.707099438
vn -0 1 0
vn -0 1 0
vn -0 1 0
vn -0 1 0
vn 0.707117021 0 0.707096577
vn 0.707117021 0 0.707096577
vn 0.707117021 0 0.707096577
vn 0.707117021 0 0.707096577
vn -0 -1 0
vn -0 -1 0
vn -0 -1 0
vn -0 -1 0
vn -0.70711416 0 0.707099438
vn -0.70711416 0 0.707099438
vn -0.70711416 0 0.707099438
vn -0.70711416 0 0.707099438
vn 0.707117021 0 -0.707096577
vn 0.707117021 0 -0.707096577
vn 0.707117021 0 -0.707096577
vn 0.707117021 0 -0.707096577
vn 4.82251926E-06 0 -1
vn 4.82251926E-06 0 -1
vn 3.00633542E-06 0 -1
vn 3.00633542E-06 0 -1
vn 3.09750249E-06 0 -1
vn 3.09750249E-06 0 -1
vn 5.92110928E-06 0 -1
vn 5.92110928E-06 0 -1
vn -0 0 -1
vn -0 0 -1
vn -0 0 -1
vn -4.82251926E-06 0 1
vn -4.82251926E-06 0 1
vn -3.00633542E-06 0 1
vn -3.00633542E-06 0 1
vn -3.09750249E-06 0 1
vn -3.09750249E-06 0 1
vn -5.92110928E-06 0 1
vn -5.92110928E-06 0 1
vn -0 0 1
vn -0 0 1
vn -0 0 1
vn -0.707117021 0 -0.707096577
vn -0.707117021 0 -0.707096577
vn -0.707117021 0 -0.707096577
vn -0.707117021 0 -0.707096577
vn -0 1 0
vn -0 1 0
vn -0 1 0
vn -0 1 0
vn 0.70711416 0 0.707099438
vn 0.70711416 0 0.707099438
vn 0.70711416 0 0.707099438
vn 0.70711416 0 0.707099438
vn -0 -1 0
vn -0 -1 0
vn -0 -1 0
vn -0 -1 0
vn -0.707117021 0 0.707096577
vn -0.707117021 0 0.707096577
vn -0.707117021 0 0.707096577
vn -0.707117021 0 0.707096577
vn 0.70711416 0 -0.707099438
vn 0.70711416 0 -0.707099438
vn 0.70711416 0 -0.707099438
vn 0.70711416 0 -0.707099438
vn 4.82251926E-06 0 -1
vn 4.82251926E-06 0 -1
vn 3.00633201E-06 0 -1
vn 3.00633201E-06 0 -1
vn 3.09749612E-06 0 -1
vn 3.09749612E-06 0 -1
vn 5.92110928E-06 0 -1
vn 5.92110928E-06 0 -1
vn -0 0 -1
vn -0 0 -1
vn -0 0 -1
vn -4.82251926E-06 0 1
vn -4.82251926E-06 0 1
vn -3.00633201E-06 0 1
vn -3.00633201E-06 0 1
vn -3.09749612E-06 0 1
vn -3.09749612E-06 0 1
vn -5.92110928E-06 0 1
vn -5.92110928E-06 0 1
vn -0 0 1
vn -0 0 1
vn -0 0 1
vn -0.707117021 0 -0.707096577
vn -0.707117021 0 -0.707096577
vn -0.707117021 0 -0.707096577
vn -0.707117021 0 -0.707096577
vn -0 1 0
vn -0 1 0
vn -0 1 0
vn -0 1 0
vn 0.70711416 0 0.707099438
vn 0.70711416 0 0.707099438
vn 0.70711416 0 0.707099438
vn 0.70711416 0 0.707099438
vn -0 -1 0
vn -0 -1 0
vn -0 -1 0
vn -0 -1 0
vn -0.707117021 0 0.707096577
vn -0.707117021 0 0.707096577
vn -0.707117021 0 0.707096577
vn -0.707117021 0 0.707096577
vn 0.70711416 0 -0.707099438
vn 0.70711416 0 -0.707099438
vn 0.70711416 0 -0.707099438
vn 0.70711416 0 -0.707099438
vn -0 0 -1
vn -0 0 -1
vn -1.16754825E-06 0 -1
vn -1.16754825E-06 0 -1
vn -1.9939439E-06 0 -1
vn -1.9939439E-06 0 -1
vn -0 0 -1
vn -0 0 -1
vn -0 0 -1
vn -0 0 -1
vn -0 0 -1
vn -0 0 1
vn -0 0 1
vn 1.16754825E-06 0 1
vn 1.16754825E-06 0 1
vn 1.9939439E-06 0 1
vn 1.9939439E-06 0 1
vn -0 0 1
vn -0 0 1
vn -0 0 1
vn -0 0 1
vn -0 0 1
vn -0.70711416 0 -0.707099438
vn -0.70711416 0 -0.707099438
vn -0.70711416 0 -0.707099438
vn -0.70711416 0 -0.707099438
vn -0 1 0
vn -0 1 0
vn -0 1 0
vn -0 1 0
vn 0.707117021 0 0.707096577
vn 0.707117021 0 0.707096577
vn 0.707117021 0 0.707096577
vn 0.707117021 0 0.707096577
vn -0 -1 0
vn -0 -1 0
vn -0 -1 0
vn -0 -1 0
vn -0.70711416 0 0.707099438
vn -0.70711416 0 0.707099438
vn -0.70711416 0 0.707099438
vn -0.70711416 0 0.707099438
vn 0.707117021 0 -0.707096577
vn 0.707117021 0 -0.707096577
vn 0.707117021 0 -0.707096577
vn 0.707117021 0 -0.707096577
vn -0 0 -1
vn -0 0 -1
vn -1.1675495E-06 0 -1
vn -1.1675495E-06 0 -1
vn -1.99394776E-06 0 -1
vn -1.99394776E-06 0 -1
vn -0 0 -1
vn -0 0 -1
vn -0 0 -1
vn -0 0 -1
vn -0 0 -1
vn -0 0 1
vn -0 0 1
vn 1.1675495E-06 0 1
vn 1.1675495E-06 0 1
vn 1.99394776E-06 0 1
vn 1.99394776E-06 0 1
vn -0 0 1
vn -0 0 1
vn -0 0 1
vn -0 0 1
vn -0 0 1
vn -0.70711416 0 -0.707099438
vn -0.70711416 0 -0.707099438
vn -0.70711416 0 -0.707099438
vn -0.70711416 0 -0.707099438
vn -0 1 0
vn -0 1 0
vn -0 1 0
vn -0 1 0
vn 0.707117021 0 0.707096577
vn 0.707117021 0 0.707096577
vn 0.707117021 0 0.707096577
vn 0.707117021 0 0.707096577
vn -0 -1 0
vn -0 -1 0
vn -0 -1 0
vn -0 -1 0
vn -0.70711416 0 0.707099438
vn -0.70711416 0 0.707099438
vn -0.70711416 0 0.707099438
vn -0.70711416 0 0.707099438
vn 0.707117021 0 -0.707096577
vn 0.707117021 0 -0.707096577
vn 0.707117021 0 -0.707096577
vn 0.707117021 0 -0.707096577
vn -0 0 -1
vn -0 0 -1
vn -0 0 -1
vn -0 0 -1
vn 7.74375621E-07 0 -1
vn 7.74375621E-07 0 -1
vn 1.48027732E-06 0 -1
vn 1.48027732E-06 0 -1
vn -0 0 -1
vn -0 0 -1
vn -0 0 -1
vn -0 0 1
vn -0 0 1
vn -0 0 1
vn -0 0 1
vn -7.74375621E-07 0 1
vn -7.74375621E-07 0 1
vn -1.48027732E-06 0 1
vn -1.48027732E-06 0 1
vn -0 0 1
vn -0 0 1
vn -0 0 1
vn -0.707117021 0 -0.707096577
vn -0.707117021 0 -0.707096577
vn -0.707117021 0 -0.707096577
vn -0.707117021 0 -0.707096577
vn -0 1 0
vn -0 1 0
vn -0 1 0
vn -0 1 0
vn 0.70711416 0 0.707099438
vn 0.70711416 0 0.707099438
vn 0.70711416 0 0.707099438
vn 0.70711416 0 0.707099438
vn -0 -1 0
vn -0 -1 0
vn -0 -1 0
vn -0 -1 0
vn -0.707117021 0 0.707096577
vn -0.707117021 0 0.707096577
vn -0.707117021 0 0.707096577
vn -0.707117021 0 0.707096577
vn 0.70711416 0 -0.707099438
vn 0.70711416 0 -0.707099438
vn 0.70711416 0 -0.707099438
vn 0.70711416 0 -0.707099438
vn -0 0 -1
vn -0 0 -1
vn -0 0 -1
vn -0 0 -1
vn 7.7437403E-07 0 -1
vn 7.7437403E-07 0 -1
vn 1.48027732E-06 0 -1
vn 1.48027732E-06 0 -1
vn -0 0 -1
vn -0 0 -1
vn -0 0 -1
vn -0 0 1
vn -0 0 1
vn -0 0 1
vn -0 0 1
vn -7.7437403E-07 0 1
vn -7.7437403E-07 0 1
vn -1.48027732E-06 0 1
vn -1.48027732E-06 0 1
vn -0 0 1
vn -0 0 1
vn -0 0 1
vn -0.707117021 0 -0.707096577
vn -0.707117021 0 -0.707096577
vn -0.707117021 0 -0.707096577
vn -0.707117021 0 -0.707096577
vn -0 1 0
vn -0 1 0
vn -0 1 0
vn -0 1 0
vn 0.70711416 0 0.707099438
vn 0.70711416 0 0.707099438
vn 0.70711416 0 0.707099438
vn 0.70711416 0 0.707099438
vn -0 -1 0
vn -0 -1 0
vn -0 -1 0
vn -0 -1 0
vn -0.707117021 0 0.707096577
vn -0.707117021 0 0.707096577
vn -0.707117021 0 0.707096577
vn -0.707117021 0 0.707096577
vn 0.70711416 0 -0.707099438
vn 0.70711416 0 -0.707099438
vn 0.70711416 0 -0.707099438
vn 0.70711416 0 -0.707099438
vn -0 0 -1
vn -0 0 -1
vn -0 0 -1
vn -0 0 -1
vn 7.7437403E-07 0 -1
vn 7.7437403E-07 0 -1
vn 1.48027732E-06 0 -1
vn 1.48027732E-06 0 -1
vn -0 0 -1
vn -0 0 -1
vn -0 0 -1
vn -0 0 1
vn -0 0 1
vn -0 0 1
vn -0 0 1
vn -7.7437403E-07 0 1
vn -7.7437403E-07 0 1
vn -1.48027732E-06 0 1
vn -1.48027732E-06 0 1
vn -0 0 1
vn -0 0 1
vn -0 0 1
vn -0.70711416 0 -0.707099438
vn -0.70711416 0 -0.707099438
vn -0.70711416 0 -0.707099438
vn -0.70711416 0 -0.707099438
vn -0 1 0
vn -0 1 0
vn -0 1 0
vn -0 1 0
vn 0.707117021 0 0.707096577
vn 0.707117021 0 0.707096577
vn 0.707117021 0 0.707096577
vn 0.707117021 0 0.707096577
vn -0 -1 0
vn -0 -1 0
vn -0 -1 0
vn -0 -1 0
vn -0.70711416 0 0.707099438
vn -0.70711416 0 0.707099438
vn -0.70711416 0 0.707099438
vn -0.70711416 0 0.707099438
vn 0.707117021 0 -0.707096577
vn 0.707117021 0 -0.707096577
vn 0.707117021 0 -0.707096577
vn 0.707117021 0 -0.707096577
vn -0 0 -1
vn -0 0 -1
vn -0 0 -1
vn -0 0 -1
vn 7.74375621E-07 0 -1
vn 7.74375621E-07 0 -1
vn 1.48027732E-06 0 -1
vn 1.48027732E-06 0 -1
vn -0 0 -1
vn -0 0 -1
vn -0 0 -1
vn -0 0 1
vn -0 0 1
vn -0 0 1
vn -0 0 1
vn -7.74375621E-07 0 1
vn -7.74375621E-07 0 1
vn -1.48027732E-06 0 1
vn -1.48027732E-06 0 1
vn -0 0 1
vn -0 0 1
vn -0 0 1
vn -0.70711416 0 -0.707099438
vn -0.70711416 0 -0.707099438
vn -0.70711416 0 -0.707099438
vn -0.70711416 0 -0.707099438
vn -0 1 0
vn -0 1 0
vn -0 1 0
vn -0 1 0
vn 0.707117021 0 0.707096577
vn 0.707117021 0 0.707096577
vn 0.707117021 0 0.707096577
vn 0.707117021 0 0.707096577
vn -0 -1 0
vn -0 -1 0
vn -0 -1 0
vn -0 -1 0
vn -0.70711416 0 0.707099438
vn -0.70711416 0 0.707099438
vn -0.70711416 0 0.707099438
vn -0.70711416 0 0.707099438
vn 0.707117021 0 -0.707096577
vn 0.707117021 0 -0.707096577
vn 0.707117021 0 -0.707096577
vn 0.707117021 0 -0.707096577
vn -0 0 -1
vn -0 0 -1
vn -1.1675495E-06 0 -1
vn -1.1675495E-06 0 -1
vn -1.99394776E-06 0 -1
vn -1.99394776E-06 0 -1
vn -0 0 -1
vn -0 0 -1
vn -0 0 -1
vn -0 0 -1
vn -0 0 -1
vn -0 0 1
vn -0 0 1
vn 1.1675495E-06 0 1
vn 1.1675495E-06 0 1
vn 1.99394776E-06 0 1
vn 1.99394776E-06 0 1
vn -0 0 1
vn -0 0 1
vn -0 0 1
vn -0 0 1
vn -0 0 1
vn -0.707117021 0 -0.707096577
vn -0.707117021 0 -0.707096577
vn -0.707117021 0 -0.707096577
vn -0.707117021 0 -0.707096577
vn -0 1 0
vn -0 1 0
vn -0 1 0
vn -0 1 0
vn 0.70711416 0 0.707099438
vn 0.70711416 0 0.707099438
vn 0.70711416 0 0.707099438
vn 0.70711416 0 0.707099438
vn -0 -1 0
vn -0 -1 0
vn -0 -1 0
vn -0 -1 0
vn -0.707117021 0 0.707096577
vn -0.707117021 0 0.707096577
vn -0.707117021 0 0.707096577
vn -0.707117021 0 0.707096577
vn 0.70711416 0 -0.707099438
vn 0.70711416 0 -0.707099438
vn 0.70711416 0 -0.707099438
vn 0.70711416 0 -0.707099438
vn -0 0 -1
vn -0 0 -1
vn -1.16754825E-06 0 -1
vn -1.16754825E-06 0 -1
vn -1.9939439E-06 0 -1
vn -1.9939439E-06 0 -1
vn -0 0 -1
vn -0 0 -1
vn -0 0 -1
vn -0 0 -1
vn -0 0 -1
vn -0 0 1
vn -0 0 1
vn 1.16754825E-06 0 1
vn 1.16754825E-06 0 1
vn 1.9939439E-06 0 1
vn 1.9939439E-06 0 1
vn -0 0 1
vn -0 0 1
vn -0 0 1
vn -0 0 1
vn -0 0 1
vn -0.707117021 0 -0.707096577
vn -0.707117021 0 -0.707096577
vn -0.707117021 0 -0.707096577
vn -0.707117021 0 -0.707096577
vn -0 1 0
vn -0 1 0
vn -0 1 0
vn -0 1 0
vn 0.70711416 0 0.707099438
vn 0.70711416 0 0.707099438
vn 0.70711416 0 0.707099438
vn 0.70711416 0 0.707099438
vn -0 -1 0
vn -0 -1 0
vn -0 -1 0
vn -0 -1 0
vn -0.707117021 0 0.707096577
vn -0.707117021 0 0.707096577
vn -0.707117021 0 0.707096577
vn -0.707117021 0 0.707096577
vn 0.70711416 0 -0.707099438
vn 0.70711416 0 -0.707099438
vn 0.70711416 0 -0.707099438
vn 0.70711416 0 -0.707099438
vn 4.82251926E-06 0 -1
vn 4.82251926E-06 0 -1
vn 3.00633201E-06 0 -1
vn 3.00633201E-06 0 -1
vn 3.09749612E-06 0 -1
vn 3.09749612E-06 0 -1
vn 5.92110928E-06 0 -1
vn 5.92110928E-06 0 -1
vn -0 0 -1
vn -0 0 -1
vn -0 0 -1
vn -4.82251926E-06 0 1
vn -4.82251926E-06 0 1
vn -3.00633201E-06 0 1
vn -3.00633201E-06 0 1
vn -3.09749612E-06 0 1
vn -3.09749612E-06 0 1
vn -5.92110928E-06 0 1
vn -5.92110928E-06 0 1
vn -0 0 1
vn -0 0 1
vn -0 0 1
vn -0.70711416 0 -0.707099438
vn -0.70711416 0 -0.707099438
vn -0.70711416 0 -0.707099438
vn -0.70711416 0 -0.707099438
vn -0 1 0
vn -0 1 0
vn -0 1 0
vn -0 1 0
vn 0.707117021 0 0.707096577
vn 0.707117021 0 0.707096577
vn 0.707117021 0 0.707096577
vn 0.707117021 0 0.707096577
vn -0 -1 0
vn -0 -1 0
vn -0 -1 0
vn -0 -1 0
vn -0.70711416 0 0.707099438
vn -0.70711416 0 0.707099438
vn -0.70711416 0 0.707099438
vn -0.70711416 0 0.707099438
vn 0.707117021 0 -0.707096577
vn 0.707117021 0 -0.707096577
vn 0.707117021 0 -0.707096577
vn 0.707117021 0 -0.707096577
vn 4.82251926E-06 0 -1
vn 4.82251926E-06 0 -1
vn 3.00633542E-06 0 -1
vn 3.00633542E-06 0 -1
vn 3.09750249E-06 0 -1
vn 3.09750249E-06 0 -1
vn 5.92110928E-06 0 -1
vn 5.92110928E-06 0 -1
vn -0 0 -1
vn -0 0 -1
vn -0 0 -1
vn -4.82251926E-06 0 1
vn -4.82251926E-06 0 1
vn -3.00633542E-06 0 1
vn -3.00633542E-06 0 1
vn -3.09750249E-06 0 1
vn -3.09750249E-06 0 1
vn -5.92110928E-06 0 1
vn -5.92110928E-06 0 1
vn -0 0 1
vn -0 0 1
vn -0 0 1
vn -0.70711416 0 -0.707099438
vn -0.70711416 0 -0.707099438
vn -0.70711416 0 -0.707099438
vn -0.70711416 0 -0.707099438
vn -0 1 0
vn -0 1 0
vn -0 1 0
vn -0 1 0
vn 0.707117021 0 0.707096577
vn 0.707117021 0 0.707096577
vn 0.707117021 0 0.707096577
vn 0.707117021 0 0.707096577
vn -0 -1 0
vn -0 -1 0
vn -0 -1 0
vn -0 -1 0
vn -0.70711416 0 0.707099438
vn -0.70711416 0 0.707099438
vn -0.70711416 0 0.707099438
vn -0.70711416 0 0.707099438
vn 0.707117021 0 -0.707096577
vn 0.707117021 0 -0.707096577
vn 0.707117021 0 -0.707096577
vn 0.707117021 0 -0.707096577
vn 9.64503852E-06 0 -1
vn 9.64503852E-06 0 -1
vn 6.01267084E-06 0 -1
vn 6.01267084E-06 0 -1
vn 3.09750249E-06 0 -1
vn 3.09750249E-06 0 -1
vn 5.92110928E-06 0 -1
vn 5.92110928E-06 0 -1
vn -0 0 -1
vn -0 0 -1
vn -0 0 -1
vn -9.64503852E-06 0 1
vn -9.64503852E-06 0 1
vn -6.01267084E-06 0 1
vn -6.01267084E-06 0 1
vn -3.09750249E-06 0 1
vn -3.09750249E-06 0 1
vn -5.92110928E-06 0 1
vn -5.92110928E-06 0 1
vn -0 0 1
vn -0 0 1
vn -0 0 1
vn -0.707117021 0 -0.707096577
vn -0.707117021 0 -0.707096577
vn -0.707117021 0 -0.707096577
vn -0.707117021 0 -0.707096577
vn -0 1 0
vn -0 1 0
vn -0 1 0
vn -0 1 0
vn 0.70711416 0 0.707099438
vn 0.70711416 0 0.707099438
vn 0.70711416 0 0.707099438
vn 0.70711416 0 0.707099438
vn -0 -1 0
vn -0 -1 0
vn -0 -1 0
vn -0 -1 0
vn -0.707117021 0 0.707096577
vn -0.707117021 0 0.707096577
vn -0.707117021 0 0.707096577
vn -0.707117021 0 0.707096577
vn 0.70711416 0 -0.707099438
vn 0.70711416 0 -0.707099438
vn 0.70711416 0 -0.707099438
vn 0.70711416 0 -0.707099438
vn 9.64503852E-06 0 -1
vn 9.64503852E-06 0 -1
vn 6.01266402E-06 0 -1
vn 6.01266402E-06 0 -1
vn 3.09749612E-06 0 -1
vn 3.09749612E-06 0 -1
vn 5.92110928E-06 0 -1
vn 5.92110928E-06 0 -1
vn -0 0 -1
vn -0 0 -1
vn -0 0 -1
vn -9.64503852E-06 0 1
vn -9.64503852E-06 0 1
vn -6.01266402E-06 0 1
vn -6.01266402E-06 0 1
vn -3.09749612E-06 0 1
vn -3.09749612E-06 0 1
vn -5.92110928E-06 0 1
vn -5.92110928E-06 0 1
vn -0 0 1
vn -0 0 1
vn -0 0 1
g mesh_flag_s_0
f 3/3/3 2/2/2 1/1/1
f 4/4/4 3/3/3 1/1/1
f 7/7/7 6/6/6 5/5/5
f 8/8/8 7/7/7 5/5/5
f 11/11/11 10/10/10 9/9/9
f 12/12/12 11/11/11 9/9/9
f 15/15/15 14/14/14 13/13/13
f 16/16/16 15/15/15 13/13/13
f 19/19/19 18/18/18 17/17/17
f 20/20/20 19/19/19 17/17/17
f 23/23/23 22/22/22 21/21/21
f 24/24/24 23/23/23 21/21/21
f 27/27/27 26/26/26 25/25/25
f 28/28/28 27/27/27 25/25/25
f 29/29/29 27/27/27 28/28/28
f 30/30/30 29/29/29 28/28/28
f 31/31/31 29/29/29 30/30/30
f 32/32/32 31/31/31 30/30/30
f 33/33/33 31/31/31 32/32/32
f 34/34/34 33/33/33 32/32/32
f 35/35/35 33/33/33 34/34/34
f 38/38/38 37/37/37 36/36/36
f 39/39/39 38/38/38 36/36/36
f 40/40/40 38/38/38 39/39/39
f 41/41/41 40/40/40 39/39/39
f 42/42/42 40/40/40 41/41/41
f 43/43/43 42/42/42 41/41/41
f 44/44/44 42/42/42 43/43/43
f 45/45/45 44/44/44 43/43/43
f 46/46/46 44/44/44 45/45/45
f 49/49/49 48/48/48 47/47/47
f 50/50/50 49/49/49 47/47/47
f 53/53/53 52/52/52 51/51/51
f 54/54/54 53/53/53 51/51/51
f 57/57/57 56/56/56 55/55/55
f 58/58/58 57/57/57 55/55/55
f 61/61/61 60/60/60 59/59/59
f 62/62/62 61/61/61 59/59/59
f 65/65/65 64/64/64 63/63/63
f 66/66/66 65/65/65 63/63/63
f 69/69/69 68/68/68 67/67/67
f 70/70/70 69/69/69 67/67/67
f 73/73/73 72/72/72 71/71/71
f 74/74/74 73/73/73 71/71/71
f 75/75/75 73/73/73 74/74/74
f 76/76/76 75/75/75 74/74/74
f 77/77/77 75/75/75 76/76/76
f 78/78/78 77/77/77 76/76/76
f 79/79/79 77/77/77 78/78/78
f 80/80/80 79/79/79 78/78/78
f 81/81/81 79/79/79 80/80/80
f 84/84/84 83/83/83 82/82/82
f 85/85/85 84/84/84 82/82/82
f 86/86/86 84/84/84 85/85/85
f 87/87/87 86/86/86 85/85/85
f 88/88/88 86/86/86 87/87/87
f 89/89/89 88/88/88 87/87/87
f 90/90/90 88/88/88 89/89/89
f 91/91/91 90/90/90 89/89/89
f 92/92/92 90/90/90 91/91/91
f 95/95/95 94/94/94 93/93/93
f 96/96/96 95/95/95 93/93/93
f 99/99/99 98/98/98 97/97/97
f 100/100/100 99/99/99 97/97/97
f 103/103/103 102/102/102 101/101/101
f 104/104/104 103/103/103 101/101/101
f 107/107/107 106/106/106 105/105/105
f 108/108/108 107/107/107 105/105/105
f 111/111/111 110/110/110 109/109/109
f 112/112/112 111/111/111 109/109/109
f 115/115/115 114/114/114 113/113/113
f 116/116/116 115/115/115 113/113/113
f 119/119/119 118/118/118 117/117/117
f 120/120/120 119/119/119 117/117/117
f 121/121/121 119/119/119 120/120/120
f 122/122/122 121/121/121 120/120/120
f 123/123/123 121/121/121 122/122/122
f 124/124/124 123/123/123 122/122/122
f 125/125/125 123/123/123 124/124/124
f 126/126/126 125/125/125 124/124/124
f 127/127/127 125/125/125 126/126/126
f 130/130/130 129/129/129 128/128/128
f 131/131/131 130/130/130 128/128/128
f 132/132/132 130/130/130 131/131/131
f 133/133/133 132/132/132 131/131/131
f 134/134/134 132/132/132 133/133/133
f 135/135/135 134/134/134 133/133/133
f 136/136/136 134/134/134 135/135/135
f 137/137/137 136/136/136 135/135/135
f 138/138/138 136/136/136 137/137/137
f 141/141/141 140/140/140 139/139/139
f 142/142/142 141/141/141 139/139/139
f 145/145/145 144/144/144 143/143/143
f 146/146/146 145/145/145 143/143/143
f 149/149/149 148/148/148 147/147/147
f 150/150/150 149/149/149 147/147/147
f 153/153/153 152/152/152 151/151/151
f 154/154/154 153/153/153 151/151/151
f 157/157/157 156/156/156 155/155/155
f 158/158/158 157/157/157 155/155/155
f 161/161/161 160/160/160 159/159/159
f 162/162/162 161/161/161 159/159/159
f 165/165/165 164/164/164 163/163/163
f 166/166/166 165/165/165 163/163/163
f 167/167/167 165/165/165 166/166/166
f 168/168/168 167/167/167 166/166/166
f 169/169/169 167/167/167 168/168/168
f 170/170/170 169/169/169 168/168/168
f 171/171/171 169/169/169 170/170/170
f 172/172/172 171/171/171 170/170/170
f 173/173/173 171/171/171 172/172/172
f 176/176/176 175/175/175 174/174/174
f 177/177/177 176/176/176 174/174/174
f 178/178/178 176/176/176 177/177/177
f 179/179/179 178/178/178 177/177/177
f 180/180/180 178/178/178 179/179/179
f 181/181/181 180/180/180 179/179/179
f 182/182/182 180/180/180 181/181/181
f 183/183/183 182/182/182 181/181/181
f 184/184/184 182/182/182 183/183/183
f 187/187/187 186/186/186 185/185/185
f 188/188/188 187/187/187 185/185/185
f 191/191/191 190/190/190 189/189/189
f 192/192/192 191/191/191 189/189/189
f 195/195/195 194/194/194 193/193/193
f 196/196/196 195/195/195 193/193/193
f 199/199/199 198/198/198 197/197/197
f 200/200/200 199/199/199 197/197/197
f 203/203/203 202/202/202 201/201/201
f 204/204/204 203/203/203 201/201/201
f 207/207/207 206/206/206 205/205/205
f 208/208/208 207/207/207 205/205/205
f 211/211/211 210/210/210 209/209/209
f 212/212/212 211/211/211 209/209/209
f 213/213/213 211/211/211 212/212/212
f 214/214/214 213/213/213 212/212/212
f 215/215/215 213/213/213 214/214/214
f 216/216/216 215/215/215 214/214/214
f 217/217/217 215/215/215 216/216/216
f 218/218/218 217/217/217 216/216/216
f 219/219/219 217/217/217 218/218/218
f 222/222/222 221/221/221 220/220/220
f 223/223/223 222/222/222 220/220/220
f 224/224/224 222/222/222 223/223/223
f 225/225/225 224/224/224 223/223/223
f 226/226/226 224/224/224 225/225/225
f 227/227/227 226/226/226 225/225/225
f 228/228/228 226/226/226 227/227/227
f 229/229/229 228/228/228 227/227/227
f 230/230/230 228/228/228 229/229/229
f 233/233/233 232/232/232 231/231/231
f 234/234/234 233/233/233 231/231/231
f 237/237/237 236/236/236 235/235/235
f 238/238/238 237/237/237 235/235/235
f 241/241/241 240/240/240 239/239/239
f 242/242/242 241/241/241 239/239/239
f 245/245/245 244/244/244 243/243/243
f 246/246/246 245/245/245 243/243/243
f 249/249/249 248/248/248 247/247/247
f 250/250/250 249/249/249 247/247/247
f 253/253/253 252/252/252 251/251/251
f 254/254/254 253/253/253 251/251/251
f 257/257/257 256/256/256 255/255/255
f 258/258/258 257/257/257 255/255/255
f 259/259/259 257/257/257 258/258/258
f 260/260/260 259/259/259 258/258/258
f 261/261/261 259/259/259 260/260/260
f 262/262/262 261/261/261 260/260/260
f 263/263/263 261/261/261 262/262/262
f 264/264/264 263/263/263 262/262/262
f 265/265/265 263/263/263 264/264/264
f 268/268/268 267/267/267 266/266/266
f 269/269/269 268/268/268 266/266/266
f 270/270/270 268/268/268 269/269/269
f 271/271/271 270/270/270 269/269/269
f 272/272/272 270/270/270 271/271/271
f 273/273/273 272/272/272 271/271/271
f 274/274/274 272/272/272 273/273/273
f 275/275/275 274/274/274 273/273/273
f 276/276/276 274/274/274 275/275/275
f 279/279/279 278/278/278 277/277/277
f 280/280/280 279/279/279 277/277/277
f 283/283/283 282/282/282 281/281/281
f 284/284/284 283/283/283 281/281/281
f 287/287/287 286/286/286 285/285/285
f 288/288/288 287/287/287 285/285/285
f 291/291/291 290/290/290 289/289/289
f 292/292/292 291/291/291 289/289/289
f 295/295/295 294/294/294 293/293/293
f 296/296/296 295/295/295 293/293/293
f 299/299/299 298/298/298 297/297/297
f 300/300/300 299/299/299 297/297/297
f 303/303/303 302/302/302 301/301/301
f 304/304/304 303/303/303 301/301/301
f 305/305/305 303/303/303 304/304/304
f 306/306/306 305/305/305 304/304/304
f 307/307/307 305/305/305 306/306/306
f 308/308/308 307/307/307 306/306/306
f 309/309/309 307/307/307 308/308/308
f 310/310/310 309/309/309 308/308/308
f 311/311/311 309/309/309 310/310/310
f 314/314/314 313/313/313 312/312/312
f 315/315/315 314/314/314 312/312/312
f 316/316/316 314/314/314 315/315/315
f 317/317/317 316/316/316 315/315/315
f 318/318/318 316/316/316 317/317/317
f 319/319/319 318/318/318 317/317/317
f 320/320/320 318/318/318 319/319/319
f 321/321/321 320/320/320 319/319/319
f 322/322/322 320/320/320 321/321/321
f 325/325/325 324/324/324 323/323/323
f 326/326/326 325/325/325 323/323/323
f 329/329/329 328/328/328 327/327/327
f 330/330/330 329/329/329 327/327/327
f 333/333/333 332/332/332 331/331/331
f 334/334/334 333/333/333 331/331/331
f 337/337/337 336/336/336 335/335/335
f 338/338/338 337/337/337 335/335/335
f 341/341/341 340/340/340 339/339/339
f 342/342/342 341/341/341 339/339/339
f 345/345/345 344/344/344 343/343/343
f 346/346/346 345/345/345 343/343/343
f 349/349/349 348/348/348 347/347/347
f 350/350/350 349/349/349 347/347/347
f 351/351/351 349/349/349 350/350/350
f 352/352/352 351/351/351 350/350/350
f 353/353/353 351/351/351 352/352/352
f 354/354/354 353/353/353 352/352/352
f 355/355/355 353/353/353 354/354/354
f 356/356/356 355/355/355 354/354/354
f 357/357/357 355/355/355 356/356/356
f 360/360/360 359/359/359 358/358/358
f 361/361/361 360/360/360 358/358/358
f 362/362/362 360/360/360 361/361/361
f 363/363/363 362/362/362 361/361/361
f 364/364/364 362/362/362 363/363/363
f 365/365/365 364/364/364 363/363/363
f 366/366/366 364/364/364 365/365/365
f 367/367/367 366/366/366 365/365/365
f 368/368/368 366/366/366 367/367/367
f 371/371/371 370/370/370 369/369/369
f 372/372/372 371/371/371 369/369/369
f 375/375/375 374/374/374 373/373/373
f 376/376/376 375/375/375 373/373/373
f 379/379/379 378/378/378 377/377/377
f 380/380/380 379/379/379 377/377/377
f 383/383/383 382/382/382 381/381/381
f 384/384/384 383/383/383 381/381/381
f 387/387/387 386/386/386 385/385/385
f 388/388/388 387/387/387 385/385/385
f 391/391/391 390/390/390 389/389/389
f 392/392/392 391/391/391 389/389/389
f 395/395/395 394/394/394 393/393/393
f 396/396/396 395/395/395 393/393/393
f 397/397/397 395/395/395 396/396/396
f 398/398/398 397/397/397 396/396/396
f 399/399/399 397/397/397 398/398/398
f 400/400/400 399/399/399 398/398/398
f 401/401/401 399/399/399 400/400/400
f 402/402/402 401/401/401 400/400/400
f 403/403/403 401/401/401 402/402/402
f 406/406/406 405/405/405 404/404/404
f 407/407/407 406/406/406 404/404/404
f 408/408/408 406/406/406 407/407/407
f 409/409/409 408/408/408 407/407/407
f 410/410/410 408/408/408 409/409/409
f 411/411/411 410/410/410 409/409/409
f 412/412/412 410/410/410 411/411/411
f 413/413/413 412/412/412 411/411/411
f 414/414/414 412/412/412 413/413/413
f 417/417/417 416/416/416 415/415/415
f 418/418/418 417/417/417 415/415/415
f 421/421/421 420/420/420 419/419/419
f 422/422/422 421/421/421 419/419/419
f 425/425/425 424/424/424 423/423/423
f 426/426/426 425/425/425 423/423/423
f 429/429/429 428/428/428 427/427/427
f 430/430/430 429/429/429 427/427/427
f 433/433/433 432/432/432 431/431/431
f 434/434/434 433/433/433 431/431/431
f 437/437/437 436/436/436 435/435/435
f 438/438/438 437/437/437 435/435/435
f 441/441/441 440/440/440 439/439/439
f 442/442/442 441/441/441 439/439/439
f 443/443/443 441/441/441 442/442/442
f 444/444/444 443/443/443 442/442/442
f 445/445/445 443/443/443 444/444/444
f 446/446/446 445/445/445 444/444/444
f 447/447/447 445/445/445 446/446/446
f 448/448/448 447/447/447 446/446/446
f 449/449/449 447/447/447 448/448/448
f 452/452/452 451/451/451 450/450/450
f 453/453/453 452/452/452 450/450/450
f 454/454/454 452/452/452 453/453/453
f 455/455/455 454/454/454 453/453/453
f 456/456/456 454/454/454 455/455/455
f 457/457/457 456/456/456 455/455/455
f 458/458/458 456/456/456 457/457/457
f 459/459/459 458/458/458 457/457/457
f 460/460/460 458/458/458 459/459/459
f 463/463/463 462/462/462 461/461/461
f 464/464/464 463/463/463 461/461/461
f 467/467/467 466/466/466 465/465/465
f 468/468/468 467/467/467 465/465/465
f 471/471/471 470/470/470 469/469/469
f 472/472/472 471/471/471 469/469/469
f 475/475/475 474/474/474 473/473/473
f 476/476/476 475/475/475 473/473/473
f 479/479/479 478/478/478 477/477/477
f 480/480/480 479/479/479 477/477/477
f 483/483/483 482/482/482 481/481/481
f 484/484/484 483/483/483 481/481/481
f 487/487/487 486/486/486 485/485/485
f 488/488/488 487/487/487 485/485/485
f 489/489/489 487/487/487 488/488/488
f 490/490/490 489/489/489 488/488/488
f 491/491/491 489/489/489 490/490/490
f 492/492/492 491/491/491 490/490/490
f 493/493/493 491/491/491 492/492/492
f 494/494/494 493/493/493 492/492/492
f 495/495/495 493/493/493 494/494/494
f 498/498/498 497/497/497 496/496/496
f 499/499/499 498/498/498 496/496/496
f 500/500/500 498/498/498 499/499/499
f 501/501/501 500/500/500 499/499/499
f 502/502/502 500/500/500 501/501/501
f 503/503/503 502/502/502 501/501/501
f 504/504/504 502/502/502 503/503/503
f 505/505/505 504/504/504 503/503/503
f 506/506/506 504/504/504 505/505/505
f 509/509/509 508/508/508 507/507/507
f 510/510/510 509/509/509 507/507/507
f 513/513/513 512/512/512 511/511/511
f 514/514/514 513/513/513 511/511/511
f 517/517/517 516/516/516 515/515/515
f 518/518/518 517/517/517 515/515/515
f 521/521/521 520/520/520 519/519/519
f 522/522/522 521/521/521 519/519/519
f 525/525/525 524/524/524 523/523/523
f 526/526/526 525/525/525 523/523/523
f 529/529/529 528/528/528 527/527/527
f 530/530/530 529/529/529 527/527/527
f 533/533/533 532/532/532 531/531/531
f 534/534/534 533/533/533 531/531/531
f 535/535/535 533/533/533 534/534/534
f 536/536/536 535/535/535 534/534/534
f 537/537/537 535/535/535 536/536/536
f 538/538/538 537/537/537 536/536/536
f 539/539/539 537/537/537 538/538/538
f 540/540/540 539/539/539 538/538/538
f 541/541/541 539/539/539 540/540/540
f 544/544/544 543/543/543 542/542/542
f 545/545/545 544/544/544 542/542/542
f 546/546/546 544/544/544 545/545/545
f 547/547/547 546/546/546 545/545/545
f 548/548/548 546/546/546 547/547/547
f 549/549/549 548/548/548 547/547/547
f 550/550/550 548/548/548 549/549/549
f 551/551/551 550/550/550 549/549/549
f 552/552/552 550/550/550 551/551/551
f 555/555/555 554/554/554 553/553/553
f 556/556/556 555/555/555 553/553/553
f 559/559/559 558/558/558 557/557/557
f 560/560/560 559/559/559 557/557/557
f 563/563/563 562/562/562 561/561/561
f 564/564/564 563/563/563 561/561/561
f 567/567/567 566/566/566 565/565/565
f 568/568/568 567/567/567 565/565/565
f 571/571/571 570/570/570 569/569/569
f 572/572/572 571/571/571 569/569/569
f 575/575/575 574/574/574 573/573/573
f 576/576/576 575/575/575 573/573/573
f 579/579/579 578/578/578 577/577/577
f 580/580/580 579/579/579 577/577/577
f 581/581/581 579/579/579 580/580/580
f 582/582/582 581/581/581 580/580/580
f 583/583/583 581/581/581 582/582/582
f 584/584/584 583/583/583 582/582/582
f 585/585/585 583/583/583 584/584/584
f 586/586/586 585/585/585 584/584/584
f 587/587/587 585/585/585 586/586/586
f 590/590/590 589/589/589 588/588/588
f 591/591/591 590/590/590 588/588/588
f 592/592/592 590/590/590 591/591/591
f 593/593/593 592/592/592 591/591/591
f 594/594/594 592/592/592 593/593/593
f 595/595/595 594/594/594 593/593/593
f 596/596/596 594/594/594 595/595/595
f 597/597/597 596/596/596 595/595/595
f 598/598/598 596/596/596 597/597/597
f 601/601/601 600/600/600 599/599/599
f 602/602/602 601/601/601 599/599/599
f 605/605/605 604/604/604 603/603/603
f 606/606/606 605/605/605 603/603/603
f 609/609/609 608/608/608 607/607/607
f 610/610/610 609/609/609 607/607/607
f 613/613/613 612/612/612 611/611/611
f 614/614/614 613/613/613 611/611/611
f 617/617/617 616/616/616 615/615/615
f 618/618/618 617/617/617 615/615/615
f 621/621/621 620/620/620 619/619/619
f 622/622/622 621/621/621 619/619/619
f 625/625/625 624/624/624 623/623/623
f 626/626/626 625/625/625 623/623/623
f 627/627/627 625/625/625 626/626/626
f 628/628/628 627/627/627 626/626/626
f 629/629/629 627/627/627 628/628/628
f 630/630/630 629/629/629 628/628/628
f 631/631/631 629/629/629 630/630/630
f 632/632/632 631/631/631 630/630/630
f 633/633/633 631/631/631 632/632/632
f 636/636/636 635/635/635 634/634/634
f 637/637/637 636/636/636 634/634/634
f 638/638/638 636/636/636 637/637/637
f 639/639/639 638/638/638 637/637/637
f 640/640/640 638/638/638 639/639/639
f 641/641/641 640/640/640 639/639/639
f 642/642/642 640/640/640 641/641/641
f 643/643/643 642/642/642 641/641/641
f 644/644/644 642/642/642 643/643/643
f 647/647/647 646/646/646 645/645/645
f 648/648/648 647/647/647 645/645/645
f 651/651/651 650/650/650 649/649/649
f 652/652/652 651/651/651 649/649/649
f 655/655/655 654/654/654 653/653/653
f 656/656/656 655/655/655 653/653/653
f 659/659/659 658/658/658 657/657/657
f 660/660/660 659/659/659 657/657/657
f 663/663/663 662/662/662 661/661/661
f 664/664/664 663/663/663 661/661/661
f 667/667/667 666/666/666 665/665/665
f 668/668/668 667/667/667 665/665/665
f 671/671/671 670/670/670 669/669/669
f 672/672/672 671/671/671 669/669/669
f 673/673/673 671/671/671 672/672/672
f 674/674/674 673/673/673 672/672/672
f 675/675/675 673/673/673 674/674/674
f 676/676/676 675/675/675 674/674/674
f 677/677/677 675/675/675 676/676/676
f 678/678/678 677/677/677 676/676/676
f 679/679/679 677/677/677 678/678/678
f 682/682/682 681/681/681 680/680/680
f 683/683/683 682/682/682 680/680/680
f 684/684/684 682/682/682 683/683/683
f 685/685/685 684/684/684 683/683/683
f 686/686/686 684/684/684 685/685/685
f 687/687/687 686/686/686 685/685/685
f 688/688/688 686/686/686 687/687/687
f 689/689/689 688/688/688 687/687/687
f 690/690/690 688/688/688 689/689/689
f 693/693/693 692/692/692 691/691/691
f 694/694/694 693/693/693 691/691/691
f 697/697/697 696/696/696 695/695/695
f 698/698/698 697/697/697 695/695/695
f 701/701/701 700/700/700 699/699/699
f 702/702/702 701/701/701 699/699/699
f 705/705/705 704/704/704 703/703/703
f 706/706/706 705/705/705 703/703/703
f 709/709/709 708/708/708 707/707/707
f 710/710/710 709/709/709 707/707/707
f 713/713/713 712/712/712 711/711/711
f 714/714/714 713/713/713 711/711/711
f 717/717/717 716/716/716 715/715/715
f 718/718/718 717/717/717 715/715/715
f 719/719/719 717/717/717 718/718/718
f 720/720/720 719/719/719 718/718/718
f 721/721/721 719/719/719 720/720/720
f 722/722/722 721/721/721 720/720/720
f 723/723/723 721/721/721 722/722/722
f 724/724/724 723/723/723 722/722/722
f 725/725/725 723/723/723 724/724/724
f 728/728/728 727/727/727 726/726/726
f 729/729/729 728/728/728 726/726/726
f 730/730/730 728/728/728 729/729/729
f 731/731/731 730/730/730 729/729/729
f 732/732/732 730/730/730 731/731/731
f 733/733/733 732/732/732 731/731/731
f 734/734/734 732/732/732 733/733/733
f 735/735/735 734/734/734 733/733/733
f 736/736/736 734/734/734 735/735/735
