g wp_013_001_001_Mesh
v -0.00637485785 0.0123373112 0.103884503
v -0.0058844476 0.0269522164 0.266760349
v -8.43883838E-17 0.00795520656 0.268052697
v -6.20596159E-17 -0.00843897182 0.106528319
v -1.08012894E-16 0.0104124751 0.420266867
v -0.0058844476 0.0296152588 0.420583874
v -1.35915793E-16 0.00413931254 0.583447278
v -0.00588444714 0.0231684241 0.585069358
v -1.60309813E-16 -0.0110319313 0.751073599
v -0.0058844476 0.00513362279 0.753632665
v -1.95040559E-16 -0.0389253423 0.911951125
v -0.0058844476 -0.0254143849 0.914918184
v -5.47500987E-17 0.0331135951 0.101240687
v -7.78047606E-17 0.0459492244 0.265467972
v -1.03111663E-16 0.0488180406 0.420900881
v -1.30358569E-16 0.0421975404 0.586691439
v -1.59275771E-16 0.0226742551 0.756409347
v -1.89891393E-16 -0.0107541569 0.91813767
v -2.00671978E-16 -0.028675532 0.973646581
v -2.09548037E-16 -0.0594917573 1.00166893
v -8.43883838E-17 0.00795520656 0.268052697
v 0.0058844476 0.0269522164 0.266760349
v 0.00637485785 0.0123373112 0.103884503
v -6.20596159E-17 -0.00843897182 0.106528319
v -1.08012894E-16 0.0104124751 0.420266867
v 0.0058844476 0.0296152588 0.420583874
v -1.35915793E-16 0.00413931254 0.583447278
v 0.00588444714 0.0231684241 0.585069358
v -1.60309813E-16 -0.0110319313 0.751073599
v 0.0058844476 0.00513362279 0.753632665
v -1.95040559E-16 -0.0389253423 0.911951125
v 0.0058844476 -0.0254143849 0.914918184
v -5.47500987E-17 0.0331135951 0.101240687
v -7.78047606E-17 0.0459492244 0.265467972
v -1.03111663E-16 0.0488180406 0.420900881
v -1.30358569E-16 0.0421975404 0.586691439
v -1.59275771E-16 0.0226742551 0.756409347
v -1.89891393E-16 -0.0107541569 0.91813767
v -2.00671978E-16 -0.028675532 0.973646581
v -2.09548037E-16 -0.0594917573 1.00166893
v -0.0179807954 0.045621682 0.0996821001
v -0.0179807954 0.0447362028 0.0926690549
v 1.02374491E-08 0.0521875471 0.0917282403
v 1.02374491E-08 0.0530730151 0.0987412781
v -0.023582017 0.0335454978 0.101206854
v -0.023582017 0.0326600298 0.0941938013
v 1.02374491E-08 0.0530730151 0.0987412781
v 1.02374491E-08 0.0521875471 0.0917282403
v 0.0179808084 0.0447362028 0.0926690549
v 0.0179808121 0.045621682 0.0996821001
v 0.0235820264 0.0326600298 0.0941938013
v 0.0235820264 0.0335454978 0.101206854
v 0.0235820264 0.0335454978 0.101206854
v 0.0235820264 0.0326600298 0.0941938013
v 0.0352914147 0.0270118881 0.0949069411
v 0.0352914147 0.0278973617 0.101919994
v 0.0411668681 0.0113504464 0.0968843624
v 0.0411668681 0.0122359199 0.103897415
v 0.0411668681 0.0122359199 0.103897415
v 0.0411668681 0.0113504464 0.0968843624
v 0.0352914147 -0.00431099162 0.0988617986
v 0.0352914147 -0.00342551782 0.105874844
v 0.0235820264 -0.00995913148 0.0995749384
v 0.0235820264 -0.00907365698 0.106587976
v -0.0352913998 -0.00431099162 0.0988617986
v -0.0411668532 0.0113504464 0.0968843624
v -0.0411668532 0.0122359199 0.103897415
v -0.0352913998 -0.00342551782 0.105874844
v -0.023582017 -0.00907365698 0.106587976
v -0.023582017 -0.00995913148 0.0995749384
v -0.0411668532 0.0122359199 0.103897415
v -0.0411668532 0.0113504464 0.0968843624
v -0.0352913998 0.0270118881 0.0949069411
v -0.0352913998 0.0278973617 0.101919994
v -0.023582017 0.0326600298 0.0941938013
v -0.023582017 0.0335454978 0.101206854
v 1.02374491E-08 -0.0286011789 0.109053545
v 1.02374491E-08 -0.0294866506 0.102040499
v -0.0179807954 -0.02203531 0.101099677
v -0.0179807954 -0.0211498383 0.108112723
v -0.023582017 -0.00995913148 0.0995749384
v -0.023582017 -0.00907365698 0.106587976
v 0.0179808084 -0.0211498383 0.108112723
v 0.0179808084 -0.02203531 0.101099677
v 1.02374491E-08 -0.0294866506 0.102040499
v 1.02374491E-08 -0.0286011789 0.109053545
v 0.0235820264 -0.00907365698 0.106587976
v 0.0235820264 -0.00995913148 0.0995749384
v 1.02374491E-08 -0.0286011789 0.109053545
v 1.02374491E-08 0.0122359199 0.103897415
v 0.0179808084 -0.0211498383 0.108112723
v 0.0235820264 -0.00907365698 0.106587976
v 0.0352914147 -0.00342551782 0.105874844
v 0.0411668681 0.0122359199 0.103897415
v 1.02374491E-08 0.0521875471 0.0917282403
v -0.0179807954 0.0447362028 0.0926690549
v 1.02374491E-08 0.0113504492 0.0968843624
v -0.023582017 0.0326600298 0.0941938013
v -0.0352913998 0.0270118881 0.0949069411
v -0.0411668532 0.0113504464 0.0968843624
v 1.02374491E-08 0.0521875471 0.0917282403
v 1.02374491E-08 0.0113504492 0.0968843624
v 0.0179808084 0.0447362028 0.0926690549
v 0.0235820264 0.0326600298 0.0941938013
v 0.0352914147 0.0270118881 0.0949069411
v 0.0411668681 0.0113504464 0.0968843624
v 1.02374491E-08 -0.0286011789 0.109053545
v -0.0179807954 -0.0211498383 0.108112723
v 1.02374491E-08 0.0122359199 0.103897415
v -0.023582017 -0.00907365698 0.106587976
v -0.0352913998 -0.00342551782 0.105874844
v -0.0411668532 0.0122359199 0.103897415
v 1.02374491E-08 0.0530730151 0.0987412781
v 0.0179808121 0.045621682 0.0996821001
v 1.02374491E-08 0.0122359199 0.103897415
v 0.0235820264 0.0335454978 0.101206854
v 0.0352914147 0.0278973617 0.101919994
v 0.0411668681 0.0122359199 0.103897415
v 1.02374491E-08 0.0530730151 0.0987412781
v 1.02374491E-08 0.0122359199 0.103897415
v -0.0179807954 0.045621682 0.0996821001
v -0.023582017 0.0335454978 0.101206854
v -0.0352913998 0.0278973617 0.101919994
v -0.0411668532 0.0122359199 0.103897415
v 1.02374491E-08 -0.0294866506 0.102040499
v 0.0179808084 -0.02203531 0.101099677
v 1.02374491E-08 0.0113504492 0.0968843624
v 0.0235820264 -0.00995913148 0.0995749384
v 0.0352914147 -0.00431099162 0.0988617986
v 0.0411668681 0.0113504464 0.0968843624
v 1.02374491E-08 -0.0294866506 0.102040499
v 1.02374491E-08 0.0113504492 0.0968843624
v -0.0179807954 -0.02203531 0.101099677
v -0.023582017 -0.00995913148 0.0995749384
v -0.0352913998 -0.00431099162 0.0988617986
v -0.0411668532 0.0113504464 0.0968843624
v -4.42146442E-19 -0.0151466737 -0.127882272
v -0.0121891992 -0.0354556628 -0.129641086
v 0.0121891992 -0.0354557075 -0.12964122
v -8.21459004E-18 -0.0515324585 -0.116979323
v -0.0121891992 -0.00636052946 -0.0103921359
v -2.13045843E-17 -0.0249229502 -0.00634694938
v -8.21459004E-18 -0.0515324585 -0.116979323
v -0.0121891992 -0.0354556628 -0.129641086
v -4.42146442E-19 -0.0151466737 -0.127882272
v -1.39004195E-17 0.0122018894 -0.0144373076
v 0.0121891992 -0.0354557075 -0.12964122
v 0.0121891992 -0.00636052946 -0.0103921359
v -8.21459004E-18 -0.0515324585 -0.116979323
v -2.13045843E-17 -0.0249229502 -0.00634694938
v -0.0121891992 0.0113498466 0.0968796387
v -2.81626974E-17 0.0302298293 0.0944958702
v 0.0121891992 0.0113498466 0.0968796387
v -3.51332624E-17 -0.00753010157 0.0992635638
v -3.51332624E-17 -0.00753010157 0.0992635638
v -3.22394554E-18 -0.0383050591 -0.165493563
v 0.00367179397 -0.0388086438 -0.161579281
v 0.00367179397 -0.0289133731 -0.155905098
v -5.82320314E-19 -0.0257894658 -0.158316821
v -7.324638E-18 -0.0522296578 -0.161718518
v 0.00367179397 -0.0498179235 -0.158594564
v -1.16460545E-17 -0.0594064072 -0.149202883
v 0.00367179397 -0.0554921217 -0.148699269
v 0.00367179397 -0.0525073819 -0.137689978
v -1.28087611E-17 -0.0556312688 -0.135278255
v -1.03408653E-17 -0.0431156754 -0.128101498
v 0.00367179397 -0.0426121019 -0.132015795
v -1.65705142E-18 -0.0220143497 -0.144392222
v 0.00367179397 -0.0259286296 -0.144895807
v 0.00367179397 -0.0316028222 -0.135000527
v -5.71320001E-18 -0.0291910972 -0.131876603
v -9.57993602E-18 -0.0515778437 -0.148195669
v -7.15640601E-18 -0.0474062003 -0.155470639
v -1.02497885E-17 -0.0493834764 -0.140101701
v -8.81048186E-18 -0.0421085209 -0.135930091
v -3.75249989E-18 -0.0298429094 -0.145399392
v -6.11598072E-18 -0.0340145379 -0.138124451
v -3.11762346E-18 -0.0320372842 -0.15349336
v -4.59271273E-18 -0.0393122397 -0.157664984
v -1.03408653E-17 -0.0431156754 -0.128101498
v -5.71320001E-18 -0.0291910972 -0.131876603
v 0.00367179397 -0.0316028222 -0.135000527
v 0.00367179397 -0.0426121019 -0.132015795
v -6.11598072E-18 -0.0340145379 -0.138124451
v -8.81048186E-18 -0.0421085209 -0.135930091
v -0.00367179397 -0.0388086438 -0.161579281
v -3.22394554E-18 -0.0383050591 -0.165493563
v -5.82320314E-19 -0.0257894658 -0.158316821
v -0.00367179397 -0.0289133731 -0.155905098
v -0.00367179397 -0.0498179235 -0.158594564
v -7.324638E-18 -0.0522296578 -0.161718518
v -0.00367179397 -0.0554921217 -0.148699269
v -1.16460545E-17 -0.0594064072 -0.149202883
v -1.28087611E-17 -0.0556312688 -0.135278255
v -0.00367179397 -0.0525073819 -0.137689978
v -0.00367179397 -0.0426121019 -0.132015795
v -1.03408653E-17 -0.0431156754 -0.128101498
v -0.00367179397 -0.0259286296 -0.144895807
v -1.65705142E-18 -0.0220143497 -0.144392222
v -5.71320001E-18 -0.0291910972 -0.131876603
v -0.00367179397 -0.0316028222 -0.135000527
v -6.11598072E-18 -0.0340145379 -0.138124451
v -3.75249989E-18 -0.0298429094 -0.145399392
v -3.11762346E-18 -0.0320372842 -0.15349336
v -4.59271273E-18 -0.0393122397 -0.157664984
v -7.15640601E-18 -0.0474062003 -0.155470639
v -9.57993602E-18 -0.0515778437 -0.148195669
v -1.02497885E-17 -0.0493834764 -0.140101701
v -8.81048186E-18 -0.0421085209 -0.135930091
v -0.00367179397 -0.0426121019 -0.132015795
v -0.00367179397 -0.0316028222 -0.135000527
v -5.71320001E-18 -0.0291910972 -0.131876603
v -1.03408653E-17 -0.0431156754 -0.128101498
v -6.11598072E-18 -0.0340145379 -0.138124451
v -8.81048186E-18 -0.0421085209 -0.135930091
v -1.93715088E-09 -0.0428219326 -0.138268322
v -2.40295828E-09 -0.044202853 -0.12248566
v 0.0107798073 -0.0353321843 -0.129222348
v 0.00553927897 -0.03819957 -0.139551491
v 1.21086541E-09 -0.0223872084 -0.128541693
v 5.96046434E-10 -0.0335772 -0.140834659
v 5.96046434E-10 -0.0335772 -0.140834659
v 1.21086541E-09 -0.0223872084 -0.128541693
v -0.0107798073 -0.0353321843 -0.129222348
v -0.00553927897 -0.03819957 -0.139551491
v -2.40295828E-09 -0.044202853 -0.12248566
v -1.93715088E-09 -0.0428219326 -0.138268322
v 5.96046434E-10 -0.0335772 -0.140834659
v -0.00553927897 -0.03819957 -0.139551491
v 0.00553927897 -0.03819957 -0.139551491
v -1.93715088E-09 -0.0428219326 -0.138268322
v 0.00592560088 -0.0341816209 -0.160115406
v -4.00468686E-10 -0.0348034315 -0.154007733
v -0.00592560088 -0.0341816209 -0.160115406
v 0.00121036998 -0.0335315205 -0.166500941
v -0.00121036998 -0.0335315205 -0.166500941
v -3.72894964E-18 -0.0304491818 -0.196777001
v -5.89757526E-18 -0.0421842411 -0.154759154
v 0.00592560088 -0.0415624306 -0.160866827
v -0.00592560088 -0.0415624306 -0.160866827
v -0.00121036998 -0.0409123302 -0.167252392
v 0.00121036998 -0.0409123302 -0.167252392
v 4.00468686E-10 -0.0378299914 -0.197528422
v -5.89757526E-18 -0.0421842411 -0.154759154
v -0.00592560088 -0.0415624306 -0.160866827
v -0.00592560088 -0.0341816209 -0.160115406
v -4.00468686E-10 -0.0348034315 -0.154007733
v -0.00121036998 -0.0409123302 -0.167252392
v -0.00121036998 -0.0335315205 -0.166500941
v 4.00468686E-10 -0.0378299914 -0.197528422
v -3.72894964E-18 -0.0304491818 -0.196777001
v 0.00592560088 -0.0415624306 -0.160866827
v -5.89757526E-18 -0.0421842411 -0.154759154
v -4.00468686E-10 -0.0348034315 -0.154007733
v 0.00592560088 -0.0341816209 -0.160115406
v 0.00121036998 -0.0409123302 -0.167252392
v 0.00121036998 -0.0335315205 -0.166500941
v 4.00468686E-10 -0.0378299914 -0.197528422
v -3.72894964E-18 -0.0304491818 -0.196777001
v -0.00158835622 -0.0330958366 -0.167954475
v -0.00158835622 -0.0410461612 -0.168763876
v -0.00158835622 -0.0399276912 -0.179749921
v -0.00158835622 -0.0319773667 -0.17894052
v 0.00158835622 -0.0319773667 -0.17894052
v 0.00158835622 -0.0330958366 -0.167954475
v 0.00158835622 -0.0410461612 -0.168763876
v 0.00158835622 -0.0399276912 -0.179749921
v 0.00158835622 -0.0410461612 -0.168763876
v 0.00158835622 -0.0330958366 -0.167954475
v 0.00158835622 -0.0319773667 -0.17894052
v 0.00158835622 -0.0399276912 -0.179749921
v 0.00158835622 -0.0319773667 -0.17894052
v -0.00158835622 -0.0319773667 -0.17894052
v -0.00158835622 -0.0399276912 -0.179749921
v 0.00158835622 -0.0399276912 -0.179749921
v -0.000777755515 -0.0312828906 -0.185761958
v -0.000777755515 -0.0392332152 -0.18657136
v -0.000777755515 -0.0381147489 -0.19755742
v -0.000777755515 -0.0301644225 -0.196748003
v 0.000777755515 -0.0301644225 -0.196748003
v 0.000777755515 -0.0312828906 -0.185761958
v 0.000777755515 -0.0392332152 -0.18657136
v 0.000777755515 -0.0381147489 -0.19755742
v 0.000777755515 -0.0392332152 -0.18657136
v 0.000777755515 -0.0312828906 -0.185761958
v 0.000777755515 -0.0301644225 -0.196748003
v 0.000777755515 -0.0381147489 -0.19755742
v 0.00309380703 -0.0161632001 -0.208914563
v 0.00309380703 -0.0175327808 -0.195462018
v -0.00309380703 -0.0175327808 -0.195462018
v -0.00309380703 -0.0161632001 -0.208914563
v 0.00309380703 -0.0175327808 -0.195462018
v 0.00309380703 -0.0507463738 -0.198843434
v -0.00309380703 -0.0507463738 -0.198843434
v -0.00309380703 -0.0175327808 -0.195462018
v 0.00309380703 -0.0507463738 -0.198843434
v 0.00309380703 -0.0493767932 -0.212295964
v -0.00309380703 -0.0493767932 -0.212295964
v -0.00309380703 -0.0507463738 -0.198843434
v 0.00309380703 -0.0493767932 -0.212295964
v 0.00309380703 -0.0161632001 -0.208914563
v -0.00309380703 -0.0161632001 -0.208914563
v -0.00309380703 -0.0493767932 -0.212295964
v -0.00309380703 -0.0161632001 -0.208914563
v -0.00309380703 -0.0175327808 -0.195462018
v -0.00309380703 -0.0507463738 -0.198843434
v -0.00309380703 -0.0493767932 -0.212295964
v 0.00309380703 -0.0493767932 -0.212295964
v 0.00309380703 -0.0507463738 -0.198843434
v 0.00309380703 -0.0175327808 -0.195462018
v 0.00309380703 -0.0161632001 -0.208914563
v -0.000448554754 -0.0384080932 -0.296490937
v -0.000448554754 -0.00993930921 -0.293592602
v -0.000299100037 -0.0193710271 -0.20095031
v -0.000299100037 -0.0478398129 -0.203848645
v -0.000299100037 -0.0286533348 -0.392306268
v -0.000299100037 -0.000184552671 -0.389407963
v -5.65078844E-05 -0.00993930828 -0.293592602
v -5.65078844E-05 -0.0384080932 -0.296490967
v 9.29465095E-05 -0.0478398129 -0.203848645
v 9.29465095E-05 -0.0193710271 -0.20095031
v 9.29465095E-05 -0.000184552671 -0.389407963
v 9.29465095E-05 -0.0286533348 -0.392306268
v 0.0165683907 -0.103378177 -0.213733599
v -5.53524905E-18 -0.0858870521 -0.21702446
v 0.0242578071 -0.0893388093 -0.222531959
v 0.0420157537 -0.0987689346 -0.237579107
v 0.0363867097 -0.116570011 -0.226423338
v 0.0485156104 -0.111650303 -0.258134216
v 0.0420157537 -0.132205471 -0.24525243
v 0.0420157537 -0.124532066 -0.278688997
v 0.0363867097 -0.142333031 -0.267533332
v 0.0242578071 -0.133962035 -0.293736368
v 0.0165683907 -0.148001269 -0.284938037
v 0.0210078768 -0.155364484 -0.259366632
v -1.09016863E-17 -0.160134315 -0.256377399
v 4.7644863E-18 -0.154517069 -0.280854672
v 0.0165683907 -0.119922519 -0.302534699
v 0.0363867097 -0.10673102 -0.289844841
v 0.0210078768 -0.0936996788 -0.298011363
v 3.91029021E-17 -0.113406844 -0.306618065
v 4.8573915E-17 -0.0889296681 -0.301000714
v -1.97334258E-17 -0.152760372 -0.232370868
v 0.0242578052 -0.147252306 -0.235822827
v 0.0420157537 -0.0910953432 -0.271015793
v 0.0242578052 -0.0760482848 -0.280445695
v 2.34623842E-17 -0.0705406591 -0.283897251
v -1.93641906E-17 -0.134370953 -0.215267628
v 0.0210078768 -0.129601285 -0.218256757
v 0.0363867097 -0.0809677988 -0.248734951
v 0.0210078768 -0.0679364726 -0.256901562
v 1.93230516E-17 -0.0631666929 -0.259890676
v -2.31655769E-17 -0.109893709 -0.209650382
v 0.0165683907 -0.0752995983 -0.231330186
v 8.30741046E-18 -0.068783842 -0.235413566
v -0.0165683907 -0.0752995983 -0.231330186
v -5.53524905E-18 -0.0858870521 -0.21702446
v -0.0242578071 -0.0893388093 -0.222531959
v -0.0373641923 -0.101584822 -0.238523111
v -0.0363867097 -0.0809677988 -0.248734951
v -0.0420157537 -0.0910953432 -0.271015793
v -0.0210078768 -0.0679364726 -0.256901562
v -0.0242578052 -0.0760482848 -0.280445695
v -0.0363867097 -0.10673102 -0.289844841
v -0.0210078768 -0.0936996788 -0.298011363
v -0.0165683907 -0.119922519 -0.302534699
v 4.8573915E-17 -0.0889296681 -0.301000714
v 3.91029021E-17 -0.113406844 -0.306618065
v -0.0242578071 -0.133962035 -0.293736368
v -0.0420157537 -0.124532066 -0.278688997
v -0.0165683907 -0.148001269 -0.284938037
v -0.0363867097 -0.142333031 -0.267533332
v -0.0210078768 -0.155364484 -0.259366632
v 4.7644863E-18 -0.154517069 -0.280854672
v -1.09016863E-17 -0.160134315 -0.256377399
v -0.0420157537 -0.132205471 -0.24525243
v -0.0242578052 -0.147252306 -0.235822827
v -1.97334258E-17 -0.152760372 -0.232370868
v 2.34623842E-17 -0.0705406591 -0.283897251
v -0.0485156104 -0.111650303 -0.258134216
v -0.0363867097 -0.116570011 -0.226423338
v -0.0210078768 -0.129601285 -0.218256757
v -1.93641906E-17 -0.134370953 -0.215267628
v 1.93230516E-17 -0.0631666929 -0.259890676
v -0.0165683907 -0.103378177 -0.213733599
v -2.31655769E-17 -0.109893709 -0.209650382
v 8.30741046E-18 -0.068783842 -0.235413566
v 2.30673541E-17 -0.137413695 -0.299243927
v 2.30673541E-17 -0.137413695 -0.299243927
v -1.12943654E-09 -0.13097629 -0.214473605
v -5.89246651E-10 -0.12975359 -0.200309724
v 0.00463394215 -0.125277117 -0.199763522
v 0.00861283299 -0.122578621 -0.212560475
v 2.09092896E-10 -0.120511711 -0.199181959
v 3.76478848E-10 -0.114180915 -0.210647419
v -3.98589121E-17 -0.12360844 -0.185118884
v 3.76478848E-10 -0.114180915 -0.210647419
v 2.09092896E-10 -0.120511711 -0.199181959
v -0.00463394215 -0.125277117 -0.199763522
v -0.00861283299 -0.122578621 -0.212560475
v -5.89246651E-10 -0.12975359 -0.200309724
v -1.12943654E-09 -0.13097629 -0.214473605
v -3.98589121E-17 -0.12360844 -0.185118884
v -1.28693411E-09 -0.0641062185 -0.255737841
v 0.00981387496 -0.0663165599 -0.246176079
v 0.00528013613 -0.0534957126 -0.240568817
v -6.71415812E-10 -0.050783854 -0.244933531
v 2.38250558E-10 -0.0563824959 -0.235922351
v 4.28978159E-10 -0.0685269609 -0.236614391
v 1.80173818E-17 -0.0451843627 -0.227940172
v 4.28978159E-10 -0.0685269609 -0.236614391
v -0.00981387496 -0.0663165599 -0.246176079
v -0.00528013613 -0.0534957126 -0.240568817
v 2.38250558E-10 -0.0563824959 -0.235922351
v -6.71415812E-10 -0.050783854 -0.244933531
v -1.28693411E-09 -0.0641062185 -0.255737841
v 1.80173818E-17 -0.0451843627 -0.227940172
v 0.0053983354 -0.0459691957 -0.1608527
v -4.52063469E-18 -0.0413144566 -0.153842077
v -0.0053983354 -0.0459691957 -0.1608527
v -9.3172309E-18 -0.0882921964 -0.22574535
v -1.11283346E-17 -0.0497880057 -0.14853178
v 0.0053983354 -0.0540676117 -0.155777514
v -0.0053983354 -0.0540676117 -0.155777514
v -1.22658047E-17 -0.0940134674 -0.222159877
v -0.0053983354 -0.0459691957 -0.1608527
v -4.52063469E-18 -0.0413144566 -0.153842077
v -1.11283346E-17 -0.0497880057 -0.14853178
v -0.0053983354 -0.0540676117 -0.155777514
v -1.22658047E-17 -0.0940134674 -0.222159877
v -9.3172309E-18 -0.0882921964 -0.22574535
v 0.0053983354 -0.0540676117 -0.155777514
v -1.11283346E-17 -0.0497880057 -0.14853178
v -4.52063469E-18 -0.0413144566 -0.153842077
v 0.0053983354 -0.0459691957 -0.1608527
v -1.22658047E-17 -0.0940134674 -0.222159877
v -9.3172309E-18 -0.0882921964 -0.22574535
vt 0.179731593 0.986798108
vt 0.211487904 0.809843421
vt 0.17020981 0.808439314
vt 0.134587184 0.983925641
vt 0.175549179 0.643067896
vt 0.217274457 0.64272362
vt 0.161918402 0.465782464
vt 0.203266293 0.464020222
vt 0.128953025 0.28366676
vt 0.164078861 0.280886531
vt 0.0683440343 0.108883098
vt 0.097701624 0.10565953
vt 0.224875897 0.989670396
vt 0.252766162 0.811247408
vt 0.258999705 0.642379165
vt 0.244614244 0.462257922
vt 0.202192575 0.277869731
vt 0.129556611 0.10216184
vt 0.0906158015 0.0418547876
vt 0.0236557871 0.011410106
vt 0.17020981 0.808439314
vt 0.211487904 0.809843421
vt 0.179731593 0.986798108
vt 0.134587184 0.983925641
vt 0.175549179 0.643067896
vt 0.217274457 0.64272362
vt 0.161918402 0.465782464
vt 0.203266293 0.464020222
vt 0.128953025 0.28366676
vt 0.164078861 0.280886531
vt 0.0683440343 0.108883098
vt 0.097701624 0.10565953
vt 0.224875897 0.989670396
vt 0.252766162 0.811247408
vt 0.258999705 0.642379165
vt 0.244614244 0.462257922
vt 0.202192575 0.277869731
vt 0.129556611 0.10216184
vt 0.0906158015 0.0418547876
vt 0.0236557871 0.011410106
vt 0.739107847 0.938816905
vt 0.744572937 0.940476954
vt 0.722729325 0.958453298
vt 0.717264652 0.956793547
vt 0.755440474 0.9253757
vt 0.760905027 0.927035809
vt 0.717264652 0.956793547
vt 0.722729325 0.958453298
vt 0.744572937 0.940476954
vt 0.739107847 0.938816905
vt 0.760905027 0.927035928
vt 0.755440474 0.9253757
vt 0.755440474 0.9253757
vt 0.760905027 0.927035928
vt 0.744572878 0.940476835
vt 0.739107847 0.938817024
vt 0.722729385 0.958453536
vt 0.717264593 0.956793666
vt 0.717264414 0.956793308
vt 0.722729146 0.958453298
vt 0.744572878 0.940476716
vt 0.739108086 0.938816726
vt 0.760905027 0.927035868
vt 0.755440474 0.9253757
vt 0.744572878 0.940476716
vt 0.722729146 0.958453298
vt 0.717264414 0.956793308
vt 0.739108086 0.938816726
vt 0.755440474 0.9253757
vt 0.760905027 0.927035868
vt 0.717264593 0.956793666
vt 0.722729385 0.958453536
vt 0.744572878 0.940476835
vt 0.739107847 0.938816905
vt 0.760905027 0.927035809
vt 0.755440474 0.9253757
vt 0.717264593 0.956793606
vt 0.722729325 0.958453417
vt 0.744572937 0.940476894
vt 0.739107847 0.938816965
vt 0.760905027 0.927035868
vt 0.755440474 0.9253757
vt 0.739107847 0.938816965
vt 0.744572937 0.940476894
vt 0.722729325 0.958453417
vt 0.717264593 0.956793606
vt 0.755440474 0.9253757
vt 0.760905027 0.927035868
vt 0.533768117 0.982511401
vt 0.533768117 0.786986947
vt 0.704592705 0.946834922
vt 0.75780654 0.889015377
vt 0.869050145 0.861972451
vt 0.924869001 0.786986947
vt 0.533768117 0.982511163
vt 0.704592764 0.946834862
vt 0.533768117 0.786986947
vt 0.75780642 0.889015198
vt 0.869050145 0.861972392
vt 0.924869299 0.786986947
vt 0.533767998 0.982511163
vt 0.533767998 0.786986947
vt 0.704592645 0.946834922
vt 0.75780648 0.889015317
vt 0.869050145 0.861972451
vt 0.924868941 0.786986947
vt 0.533767998 0.982511401
vt 0.704592764 0.946834922
vt 0.533767998 0.786986947
vt 0.75780642 0.889015377
vt 0.869050145 0.861972451
vt 0.924869299 0.786986947
vt 0.533767998 0.982511163
vt 0.704592645 0.946834922
vt 0.533767998 0.786986947
vt 0.75780648 0.889015317
vt 0.869050145 0.861972451
vt 0.924868941 0.786986947
vt 0.533768117 0.982511163
vt 0.533768117 0.786986947
vt 0.704592764 0.946834862
vt 0.75780642 0.889015198
vt 0.869050145 0.861972392
vt 0.924869299 0.786986947
vt 0.533768117 0.982511401
vt 0.704592705 0.946834922
vt 0.533768117 0.786986947
vt 0.75780654 0.889015377
vt 0.869050145 0.861972451
vt 0.924869001 0.786986947
vt 0.533767998 0.982511401
vt 0.533767998 0.786986947
vt 0.704592764 0.946834922
vt 0.75780642 0.889015377
vt 0.869050145 0.861972451
vt 0.924869299 0.786986947
vt 0.252540469 0.119891576
vt 0.200577021 0.161538303
vt 0.30022192 0.162844867
vt 0.248226166 0.205170125
vt 0.611507714 0.172923267
vt 0.535822451 0.172923267
vt 0.535822272 0.343058884
vt 0.611507535 0.353487968
vt 0.687407613 0.343064487
vt 0.687407851 0.172923267
vt 0.763307571 0.353488207
vt 0.763307691 0.172923267
vt 0.838992953 0.343058884
vt 0.838992953 0.172923267
vt 0.611506939 0.00651213527
vt 0.68740797 0.00651213527
vt 0.763308644 0.00651213527
vt 0.838992953 0.00651213527
vt 0.53582263 0.00651213527
vt 0.930807114 0.996183991
vt 0.922180951 0.986307085
vt 0.96538955 0.963864803
vt 0.985457718 0.967799127
vt 0.852021098 0.996933818
vt 0.859889865 0.986899614
vt 0.795250833 0.969608665
vt 0.815005183 0.965295315
vt 0.813820004 0.934149742
vt 0.793752015 0.930215418
vt 0.848402262 0.901830256
vt 0.857028604 0.911707401
vt 0.983958662 0.92840606
vt 0.964204371 0.932719171
vt 0.919319808 0.911114872
vt 0.927188456 0.901080728
vt 0.834759593 0.960982144
vt 0.867758453 0.97686559
vt 0.833888173 0.938084066
vt 0.865654945 0.921584547
vt 0.944449961 0.937032223
vt 0.911451221 0.921148956
vt 0.945321202 0.95993042
vt 0.913554549 0.976429939
vt 0.848402262 0.901830256
vt 0.927188456 0.901080728
vt 0.919319808 0.911114872
vt 0.857028604 0.911707401
vt 0.911451221 0.921148956
vt 0.865654945 0.921584547
vt 0.922180951 0.986307085
vt 0.930807114 0.996183991
vt 0.985457718 0.967799127
vt 0.96538955 0.963864803
vt 0.859889865 0.986899614
vt 0.852021098 0.996933818
vt 0.815005183 0.965295315
vt 0.795250833 0.969608665
vt 0.793752015 0.930215418
vt 0.813820004 0.934149742
vt 0.857028604 0.911707401
vt 0.848402262 0.901830256
vt 0.964204371 0.932719171
vt 0.983958662 0.92840606
vt 0.927188456 0.901080728
vt 0.919319808 0.911114872
vt 0.911451221 0.921148956
vt 0.944449961 0.937032223
vt 0.945321202 0.95993042
vt 0.913554549 0.976429939
vt 0.867758453 0.97686559
vt 0.834759593 0.960982144
vt 0.833888173 0.938084066
vt 0.865654945 0.921584547
vt 0.857028604 0.911707401
vt 0.919319808 0.911114872
vt 0.927188456 0.901080728
vt 0.848402262 0.901830256
vt 0.911451221 0.921148956
vt 0.865654945 0.921584547
vt 0.298199773 0.288510859
vt 0.224728882 0.294287384
vt 0.224352717 0.267752528
vt 0.297772765 0.267275691
vt 0.223040998 0.241150305
vt 0.297345996 0.246424243
vt 0.297345996 0.236827657
vt 0.223040998 0.225510761
vt 0.224352717 0.267871201
vt 0.297772765 0.267510712
vt 0.224728882 0.309560061
vt 0.298199773 0.298010647
vt 0.922360599 0.946562886
vt 0.887478054 0.926423609
vt 0.887478054 0.966702521
vt 0.852595448 0.946562886
vt 0.841648519 0.353097856
vt 0.877188921 0.372752845
vt 0.912729323 0.353097856
vt 0.86929667 0.335444987
vt 0.885081291 0.335444987
vt 0.877188921 0.231249705
vt 0.877188921 0.372752815
vt 0.912729204 0.353097856
vt 0.841648519 0.353097856
vt 0.86929667 0.335444987
vt 0.885081291 0.335444987
vt 0.877188921 0.231249705
vt 0.98408401 0.379706293
vt 0.98408401 0.356840223
vt 0.924981713 0.356840223
vt 0.924981713 0.379706293
vt 0.98408401 0.336303324
vt 0.924981713 0.336303324
vt 0.98408401 0.215085238
vt 0.924981713 0.215085238
vt 0.98408401 0.356840223
vt 0.98408401 0.379706293
vt 0.924981713 0.379706293
vt 0.924981713 0.356840223
vt 0.98408401 0.336303324
vt 0.924981713 0.336303324
vt 0.98408401 0.215085238
vt 0.924981713 0.215085238
vt 0.899527013 0.590876818
vt 0.963189542 0.590876818
vt 0.963189542 0.546891212
vt 0.899527013 0.546891212
vt 0.899527013 0.546891212
vt 0.899527013 0.590876818
vt 0.963189542 0.590876818
vt 0.963189542 0.546891212
vt 0.963189542 0.590876818
vt 0.899527013 0.590876818
vt 0.899527013 0.546891212
vt 0.963189542 0.546891212
vt 0.936144292 0.887563944
vt 0.987304211 0.887563944
vt 0.987304211 0.854526997
vt 0.936144292 0.854526997
vt 0.899527013 0.590876818
vt 0.963189542 0.590876818
vt 0.963189542 0.546891272
vt 0.899527013 0.546891272
vt 0.899527013 0.546891272
vt 0.899527013 0.590876818
vt 0.963189542 0.590876818
vt 0.963189542 0.546891272
vt 0.963189542 0.590876818
vt 0.899527013 0.590876818
vt 0.899527013 0.546891272
vt 0.963189542 0.546891272
vt 0.950401723 0.656303883
vt 0.990579784 0.656303883
vt 0.990579784 0.647111297
vt 0.950401723 0.647111297
vt 0.932016492 0.647111297
vt 0.932016551 0.597512543
vt 0.950401723 0.597512543
vt 0.950401723 0.647111297
vt 0.990579724 0.656303883
vt 0.950401723 0.656303883
vt 0.950401723 0.647111297
vt 0.990579784 0.647111297
vt 0.932016492 0.597512543
vt 0.932016492 0.647111297
vt 0.950401723 0.647111297
vt 0.950401723 0.597512543
vt 0.950401723 0.647111297
vt 0.990579784 0.647111297
vt 0.990579784 0.597512543
vt 0.950401723 0.597512543
vt 0.950401664 0.597512484
vt 0.990579784 0.597512543
vt 0.990579665 0.647111297
vt 0.950401604 0.647111297
vt 0.139433518 0.745780706
vt 0.0310885496 0.745780706
vt 0.0310888849 0.923451066
vt 0.139433175 0.923451066
vt 0.139433175 0.564792395
vt 0.0310888924 0.564792335
vt 0.139433518 0.742248297
vt 0.0310885459 0.742248297
vt 0.0310888886 0.923844099
vt 0.139433175 0.923844039
vt 0.139433175 0.565297961
vt 0.0310888886 0.565297961
vt 0.680395663 0.751488745
vt 0.742717624 0.780712008
vt 0.736883759 0.744067073
vt 0.734324038 0.70971334
vt 0.673576057 0.713507891
vt 0.730204701 0.676950812
vt 0.663579226 0.679071188
vt 0.727128148 0.644490302
vt 0.6660344 0.644413829
vt 0.72306931 0.610804975
vt 0.662184775 0.6067909
vt 0.60464102 0.640791357
vt 0.541969121 0.630081832
vt 0.611496508 0.588463008
vt 0.783054411 0.601686835
vt 0.788310409 0.640378296
vt 0.848428071 0.633586168
vt 0.832604825 0.583660841
vt 0.908363581 0.620197356
vt 0.522860587 0.682817101
vt 0.595271707 0.681005776
vt 0.797905445 0.674855351
vt 0.866560042 0.673282862
vt 0.94007808 0.671803713
vt 0.555688679 0.733705997
vt 0.612965107 0.721265197
vt 0.795497596 0.709961772
vt 0.856895447 0.713843942
vt 0.917999089 0.724645019
vt 0.637716651 0.770583987
vt 0.798271656 0.748432875
vt 0.846013844 0.764916658
vt 0.662148714 0.538654983
vt 0.716856837 0.571143329
vt 0.720229089 0.533251107
vt 0.729810834 0.500882983
vt 0.666817188 0.50038147
vt 0.661883175 0.466593683
vt 0.602149725 0.505618691
vt 0.591006219 0.465005696
vt 0.669493318 0.431225359
vt 0.606881797 0.424493968
vt 0.670655966 0.391592801
vt 0.545387566 0.411577165
vt 0.623970807 0.374006331
vt 0.734803557 0.401171893
vt 0.730833948 0.434747219
vt 0.796292543 0.396738768
vt 0.7920506 0.434895337
vt 0.854064763 0.430424213
vt 0.848718166 0.37694639
vt 0.917714775 0.419856668
vt 0.793276846 0.469872117
vt 0.862717032 0.470955789
vt 0.937723577 0.47328946
vt 0.516125321 0.463488579
vt 0.727503598 0.468713403
vt 0.782975435 0.503152847
vt 0.845350266 0.511172652
vt 0.902646244 0.524380505
vt 0.538963377 0.516432166
vt 0.779027343 0.54133904
vt 0.822877944 0.560437918
vt 0.612990499 0.55679369
vt 0.739205062 0.363049805
vt 0.716278017 0.574224293
vt 0.047785081 0.320388615
vt 0.0691570118 0.292012364
vt 0.0881700739 0.293474466
vt 0.0844788253 0.3213076
vt 0.108410761 0.295030832
vt 0.121172898 0.322226703
vt 0.111928031 0.264368415
vt 0.121172898 0.322226703
vt 0.108410761 0.295030832
vt 0.0881700739 0.293474466
vt 0.0844788253 0.3213076
vt 0.0691570118 0.292012364
vt 0.047785081 0.320388615
vt 0.111928031 0.264368415
vt 0.0173294768 0.24088411
vt 0.0534664318 0.251451254
vt 0.0333301574 0.279547721
vt 0.0118494183 0.277365714
vt 0.0561968237 0.281870991
vt 0.089603126 0.262018383
vt 0.0481795371 0.310926348
vt 0.089603126 0.262018383
vt 0.0534664318 0.251451254
vt 0.0333301574 0.279547721
vt 0.0561968237 0.281870991
vt 0.0118494183 0.277365714
vt 0.0173294768 0.24088411
vt 0.0481795371 0.310926348
vt 0.142559767 0.525679827
vt 0.117292173 0.547148287
vt 0.0888012648 0.526717901
vt 0.100495927 0.333333373
vt 0.115936279 0.547261477
vt 0.141443968 0.525857091
vt 0.08766222 0.526745915
vt 0.101624429 0.333336651
vt 0.0256360769 0.52651906
vt 0.0253323317 0.547490835
vt 0.0751676559 0.547015786
vt 0.0732644796 0.526064992
vt 0.0589141846 0.3331168
vt 0.0252658129 0.333437443
vt 0.0732644796 0.526064992
vt 0.0751676559 0.547015786
vt 0.0253323317 0.547490835
vt 0.0256360769 0.52651906
vt 0.0589141846 0.3331168
vt 0.0252658129 0.333437443
vn -0.999962151 0.00831742771 0.00254123914
vn -0.999966323 0.00810374878 0.00129994098
vn -0.955946684 -0.293005228 0.0177183598
vn -0.956036806 -0.291775614 0.0293358099
vn -0.955803692 -0.293984741 -0.0034994008
vn -0.999977827 0.00665976712 1.74703582E-05
vn -0.952644289 -0.303369552 -0.0208746288
vn -0.999970376 0.00755092781 0.00150218059
vn -0.941631258 -0.333459526 -0.046210438
vn -0.999951303 0.00914081931 0.00371106365
vn -0.929445565 -0.362364054 -0.0694495812
vn -0.999966085 -0.00629506912 0.00530921761
vn -0.956020832 0.292387426 -0.0231038705
vn -0.955907702 0.293296218 -0.0147563769
vn -0.95580703 0.293973923 0.0034940308
vn -0.954263568 0.298109293 0.0226256568
vn -0.947462082 0.316165894 0.0485251658
vn -0.939797819 0.334056735 0.0720142573
vn -0.988328695 0.110227056 0.105149038
vn -0.997900248 -0.00904971175 0.0641343072
vn 0.955946684 -0.293005228 0.0177183598
vn 0.999966323 0.0081037404 0.00129994238
vn 0.999962151 0.0083174184 0.00254124147
vn 0.956036806 -0.291775614 0.0293358099
vn 0.955803692 -0.293984681 -0.00349940266
vn 0.999977827 0.00665979274 1.7470049E-05
vn 0.952644348 -0.303369522 -0.0208746269
vn 0.999970376 0.00755092269 0.00150218175
vn 0.941631258 -0.333459437 -0.0462104157
vn 0.999951303 0.00914087892 0.00371107855
vn 0.929445565 -0.362364054 -0.0694495812
vn 0.999966085 -0.00629502395 0.00530922459
vn 0.956020832 0.292387396 -0.0231038649
vn 0.955907702 0.293296218 -0.0147563722
vn 0.95580703 0.293974012 0.00349403336
vn 0.954263568 0.298109353 0.0226256624
vn 0.947462082 0.316165984 0.0485251807
vn 0.939797819 0.334056884 0.0720142871
vn 0.988328695 0.110227093 0.105149075
vn 0.997900248 -0.00904986449 0.0641342774
vn -0.640776932 0.761679828 -0.0961702242
vn -0.640777051 0.761679769 -0.0961702168
vn -0 0.992123127 -0.125266552
vn -0 0.992123127 -0.125266537
vn -0.908431351 0.414741307 -0.0523655191
vn -0.908431351 0.414741337 -0.0523655266
vn -0 0.992123127 -0.125266537
vn -0 0.992123127 -0.125266552
vn 0.640777051 0.761679649 -0.0961707234
vn 0.640777051 0.761679649 -0.0961707383
vn 0.90843153 0.41474092 -0.0523656383
vn 0.90843153 0.41474089 -0.0523656458
vn 0.437250078 0.892256081 -0.112656638
vn 0.437250048 0.892256081 -0.112656608
vn 0.773757517 0.628491998 -0.0793537796
vn 0.773757517 0.628491998 -0.0793537796
vn 1 0 0
vn 1 -1.19020221E-07 0
vn 1 -1.19020221E-07 0
vn 1 0 0
vn 0.773757935 -0.628491521 0.0793539435
vn 0.773757935 -0.628491521 0.079353936
vn 0.437249601 -0.89225626 0.112657174
vn 0.437249601 -0.89225626 0.112657174
vn -0.773758054 -0.628491461 0.0793539211
vn -1 3.91066209E-07 0
vn -1 3.40057511E-07 0
vn -0.773758054 -0.628491461 0.0793539211
vn -0.43724972 -0.892256141 0.112657152
vn -0.43724966 -0.892256141 0.112657107
vn -1 3.40057511E-07 0
vn -1 3.91066209E-07 0
vn -0.773757577 0.628491998 -0.0793537721
vn -0.773757577 0.628491938 -0.079353787
vn -0.437249899 0.892256081 -0.11265666
vn -0.437249959 0.892256081 -0.11265666
vn -0 -0.992123187 0.125266179
vn -0 -0.992123187 0.125266179
vn -0.640776813 -0.761679888 0.0961702988
vn -0.640776813 -0.761679947 0.0961703062
vn -0.908431411 -0.414741099 0.0523656644
vn -0.908431411 -0.414741099 0.0523656569
vn 0.640776813 -0.761679947 0.0961703062
vn 0.640776873 -0.761679888 0.0961703286
vn -0 -0.992123187 0.125266179
vn -0 -0.992123187 0.125266179
vn 0.90843147 -0.41474098 0.0523656197
vn 0.908431411 -0.414741009 0.052365616
vn -1.28855135E-07 0.125266269 0.992123187
vn -0 0.125266314 0.992123127
vn 4.79253345E-07 0.125266209 0.992123187
vn 4.54070232E-07 0.125266105 0.992123187
vn -2.5313264E-07 0.125266224 0.992123187
vn -0 0.125266179 0.992123187
vn -1.28855149E-07 -0.125266314 -0.992123127
vn -4.31393261E-07 -0.125266224 -0.992123187
vn -0 -0.125266358 -0.992123127
vn -4.72176396E-07 -0.125266105 -0.992123187
vn -1.26196923E-07 -0.125266179 -0.992123187
vn -0 -0.125266477 -0.992123127
vn -1.28855149E-07 -0.125266314 -0.992123127
vn -0 -0.125266358 -0.992123127
vn 2.39626786E-07 -0.125266239 -0.992123187
vn 7.17317903E-07 -0.12526609 -0.992123187
vn 3.44941355E-07 -0.125266194 -0.992123187
vn -0 -0.125266492 -0.992123127
vn -1.28855135E-07 0.125266269 0.992123187
vn -5.51206483E-07 0.125266239 0.992123187
vn -0 0.125266314 0.992123127
vn -2.17981665E-07 0.12526612 0.992123187
vn 2.53132612E-07 0.125266194 0.992123187
vn -0 0.125266194 0.992123187
vn -1.93282659E-07 0.125266492 0.992123127
vn -0 0.125266522 0.992123127
vn -0 0.125266314 0.992123127
vn 4.72176794E-07 0.125266448 0.992123127
vn -0 0.125266194 0.992123187
vn -0 0.125266179 0.992123187
vn -1.93282659E-07 0.125266492 0.992123127
vn -0 0.125266314 0.992123127
vn -4.79253458E-07 0.125266537 0.992123127
vn -9.44352905E-07 0.125266403 0.992123127
vn -0 0.125266194 0.992123187
vn -0 0.125266194 0.992123187
vn 1.93282858E-07 -0.125266522 -0.992123127
vn -6.4741613E-07 -0.125266418 -0.992123127
vn -0 -0.125266358 -0.992123127
vn 1.18044147E-06 -0.125266314 -0.992123127
vn -1.26196937E-07 -0.125266716 -0.992123127
vn -0 -0.125266492 -0.992123127
vn 1.93282858E-07 -0.125266522 -0.992123127
vn -0 -0.125266358 -0.992123127
vn 1.05487845E-06 -0.125266418 -0.992123127
vn -9.44352735E-07 -0.125266314 -0.992123127
vn 2.18375035E-07 -0.125266686 -0.992123127
vn -0 -0.125266477 -0.992123127
vn -4.60568981E-06 0.0862831622 -0.996270657
vn -5.68139239E-06 -0.287352055 -0.957825065
vn -5.68139103E-06 -0.287352115 -0.957825005
vn -5.95640722E-06 -0.618730068 -0.785603642
vn -0.999851584 0.0168944821 -0.00337793026
vn 1.29758035E-07 -0.979667902 0.200626031
vn 2.66258326E-06 -0.971873462 0.235503495
vn -0.999660134 0.0253174957 -0.00621514302
vn 3.18499474E-06 0.971818507 -0.235730439
vn 3.54577111E-07 0.979501486 -0.201436847
vn 0.999660134 0.0253176372 -0.00621516956
vn 0.999851584 0.0168945063 -0.00337793515
vn 2.66258326E-06 -0.971873462 0.235503495
vn 1.29758035E-07 -0.979667902 0.200626031
vn -0.999836862 0.0178018231 -0.00306668831
vn -0 0.986612022 -0.163085312
vn 0.999836862 0.0178017933 -0.00306668505
vn -0 -0.986675918 0.162697881
vn -0 -0.986675918 0.162697881
vn 0.732132494 0.0869184583 -0.675593913
vn 0.961813688 0.0349262394 -0.271467566
vn 0.96181339 0.216653273 -0.167261362
vn 0.732132196 0.539177656 -0.416257024
vn 0.732134581 -0.416254491 -0.539176404
vn 0.961813688 -0.167260751 -0.216652229
vn 0.732132912 -0.675593555 -0.0869182423
vn 0.961813629 -0.271467954 -0.0349243209
vn 0.96181345 -0.21665363 0.167260617
vn 0.732132018 -0.539177656 0.416257352
vn 0.704623282 -0.352976859 0.615559399
vn 0.955691218 -0.146433264 0.25536564
vn 0.732132018 0.675594449 0.0869178772
vn 0.961813509 0.271468163 0.034925621
vn 0.955690563 0.255367607 0.146433815
vn 0.704623163 0.615559757 0.35297659
vn 0.732131898 0.675594628 0.0869178995
vn 0.732132494 0.416257113 0.539177299
vn 0.732132912 0.539176822 -0.416256815
vn 0.704624057 0.352975905 -0.615559101
vn 0.732131958 -0.675594687 -0.0869172066
vn 0.704622626 -0.615560234 -0.352976769
vn 0.732132852 -0.539176822 0.416256875
vn 0.732132912 -0.0869176835 0.675593674
vn 0.704624295 0.185672447 0.684857905
vn 0.704624295 0.185672447 0.684857845
vn 0.955691755 0.0770262778 0.284113169
vn 0.955691755 0.0770262778 0.284113079
vn 0.704622567 -0.18567273 -0.684859633
vn 0.704622626 -0.18567273 -0.684859514
vn -0.961813688 0.0349260196 -0.271467566
vn -0.732132494 0.0869183242 -0.675594032
vn -0.732132256 0.539177716 -0.416256875
vn -0.96181345 0.216653183 -0.167261094
vn -0.961813629 -0.167261139 -0.216652587
vn -0.732134342 -0.416254789 -0.539176404
vn -0.961813509 -0.271468282 -0.0349245407
vn -0.732132614 -0.675593793 -0.0869184881
vn -0.732132018 -0.539177656 0.416257352
vn -0.96181345 -0.21665363 0.167260602
vn -0.955691218 -0.146433264 0.25536564
vn -0.704623282 -0.352976859 0.615559399
vn -0.961813569 0.271468043 0.0349255651
vn -0.732132018 0.675594449 0.0869178772
vn -0.704623163 0.615559757 0.35297659
vn -0.955690622 0.255367517 0.146433741
vn -0.70462209 -0.615560651 -0.352977067
vn -0.73213172 -0.675594926 -0.0869173333
vn -0.732132852 -0.539176822 0.416256875
vn -0.732133329 -0.0869178176 0.675593138
vn -0.732132912 0.416256905 0.539176762
vn -0.732131839 0.675594687 0.0869178623
vn -0.732132912 0.539176822 -0.416256815
vn -0.704624057 0.352975905 -0.615559101
vn -0.955692053 0.0770259947 0.284112066
vn -0.955692053 0.0770259947 0.284112066
vn -0.70462507 0.185672283 0.68485707
vn -0.70462507 0.185672283 0.68485707
vn -0.704622149 -0.185672849 -0.684859991
vn -0.70462209 -0.185672835 -0.684860051
vn -0 -0.995113075 -0.0987417251
vn -0 -0.995113075 -0.0987417325
vn 0.895907342 -0.117067926 -0.428538382
vn 0.895926416 -0.118818112 -0.428016514
vn -1.47957309E-07 0.751351655 -0.659902036
vn -1.30834735E-07 0.751351655 -0.659902036
vn -1.30834735E-07 0.751351655 -0.659902036
vn -1.47957309E-07 0.751351655 -0.659902036
vn -0.895907283 -0.11706724 -0.428538769
vn -0.895926356 -0.118817583 -0.428016812
vn -0 -0.995113075 -0.0987417325
vn -0 -0.995113075 -0.0987417251
vn -0 -0.267484456 -0.963562191
vn -0 -0.267484814 -0.963562071
vn -0 -0.267484784 -0.963562071
vn -0 -0.267485261 -0.963561952
vn -0 0.99485749 0.101284325
vn -0 0.99485749 0.10128478
vn -0 0.99485749 0.10128431
vn -0 0.99485755 0.101284146
vn -0 0.99485755 0.101284146
vn -0 0.99485749 0.101284377
vn -0 -0.99485743 -0.101284929
vn -0 -0.99485749 -0.101284824
vn -0 -0.99485749 -0.101284824
vn -0 -0.99485749 -0.10128466
vn -0 -0.99485749 -0.10128466
vn -0 -0.99485749 -0.101284482
vn -0.719515443 -0.0703394935 0.690905154
vn -0.995387197 -0.0097169131 0.0954461694
vn -0.995387256 -0.00971683953 0.0954454616
vn -0.719515383 -0.0703395009 0.690905154
vn -0.987317324 0.0160798673 -0.157942608
vn -0.987317324 0.0160799101 -0.157943025
vn -0.99921006 0.00402512448 -0.0395364724
vn -0.99921006 0.00402512401 -0.0395364761
vn 0.995387197 -0.00971685443 0.0954461321
vn 0.719515443 -0.0703394264 0.690905213
vn 0.719515443 -0.0703394338 0.690905213
vn 0.995387256 -0.00971678365 0.0954454392
vn 0.987317324 0.0160799026 -0.157942548
vn 0.987317324 0.0160799436 -0.157942981
vn 0.99921006 0.00402516779 -0.0395364724
vn 0.99921006 0.00402516779 -0.0395364761
vn -0.929270864 0.367499441 0.0374144763
vn -0.929270804 -0.367499709 -0.0374145061
vn -0.929270864 -0.367499441 -0.0374144763
vn -0.929270804 0.367499709 0.0374145061
vn 0.929270744 0.367499739 0.0374145135
vn 0.929270864 0.367499471 0.03741448
vn 0.929270744 -0.367499739 -0.0374145135
vn 0.929270864 -0.367499471 -0.03741448
vn 0.929270744 -0.367499739 -0.0374145135
vn 0.929270864 0.367499471 0.03741448
vn 0.929270744 0.367499739 0.0374145135
vn 0.929270864 -0.367499471 -0.03741448
vn -0 0.101283945 -0.99485755
vn -0 0.101283945 -0.99485755
vn -0 0.101283945 -0.99485755
vn -0 0.101283945 -0.99485755
vn -0.981577992 0.190079212 0.0193516202
vn -0.981577933 -0.190079704 -0.0193516724
vn -0.981577873 -0.190079853 -0.0193516836
vn -0.981578052 0.190079138 0.0193516128
vn 0.981577992 0.190079257 0.0193516258
vn 0.981577992 0.190079361 0.019351637
vn 0.981577873 -0.190079823 -0.0193516836
vn 0.981577873 -0.190079972 -0.0193516985
vn 0.981577873 -0.190079823 -0.0193516836
vn 0.981577992 0.190079361 0.019351637
vn 0.981577992 0.190079257 0.0193516258
vn 0.981577873 -0.190079972 -0.0193516985
vn -0 0.99485749 0.101284675
vn -0 0.99485749 0.101284675
vn -0 0.99485749 0.101284675
vn -0 0.99485749 0.101284675
vn -0 -0.101284884 0.99485743
vn -0 -0.101284884 0.99485743
vn -0 -0.101284884 0.99485743
vn -0 -0.101284884 0.99485743
vn -0 -0.99485743 -0.101284951
vn -0 -0.99485743 -0.101284951
vn -0 -0.99485743 -0.101284951
vn -0 -0.99485743 -0.101284951
vn -0 0.101284325 -0.99485749
vn -0 0.101284325 -0.99485749
vn -0 0.101284325 -0.99485749
vn -0 0.101284325 -0.99485749
vn -1 0 0
vn -1 0 0
vn -1 0 0
vn -1 0 0
vn 1 0 0
vn 1 0 0
vn 1 0 0
vn 1 0 0
vn -1 0 0
vn -1 0 0
vn -0.999998689 -0.000162556375 0.00159669353
vn -0.999998689 -0.00016255636 0.00159669307
vn -0.999998808 0.000157173228 -0.00154381699
vn -0.999998808 0.000157173199 -0.00154381699
vn 1 0 0
vn 1 0 0
vn 0.999998689 0.000162555778 -0.00159668981
vn 0.999998689 0.000162555763 -0.00159668992
vn 0.999998808 -0.000157172646 0.00154381432
vn 0.999998808 -0.000157172646 0.00154381432
vn 0.409511119 0.0859086737 0.908251286
vn -0 0.531030118 0.847352982
vn 0.598145902 0.425560474 0.679058015
vn 0.875694215 0.256414652 0.409159094
vn 0.782292068 -0.129685804 0.609262526
vn 1 1.38615405E-06 -1.12264036E-06
vn 0.866024375 -0.423678577 0.265515
vn 0.875694454 -0.256416589 -0.409157276
vn 0.782292128 -0.604843676 -0.148940206
vn 0.598145604 -0.42555961 -0.679058731
vn 0.409514934 -0.779912293 -0.47332263
vn 0.433426678 -0.900456607 0.0363211296
vn -0 -0.998438358 0.0558651499
vn -0 -0.932400942 -0.361425638
vn 0.409515589 -0.085905686 -0.908249557
vn 0.782291412 0.129682526 -0.609264016
vn 0.433426768 0.425300062 -0.794519424
vn -0 0.0812835842 -0.996691048
vn 1.99296409E-07 0.485612035 -0.874174476
vn -0 -0.847352266 0.531031191
vn 0.500001132 -0.733829498 0.459883898
vn 0.866024137 0.423678815 -0.265515387
vn 0.499998689 0.73383075 -0.459884465
vn 1.51610777E-07 0.84735471 -0.531027317
vn -0 -0.485609531 0.874175787
vn 0.433422595 -0.425303042 0.79452014
vn 0.782291412 0.604844153 0.148942024
vn 0.4334234 0.900458276 -0.036318738
vn -1.18810696E-07 0.998438478 -0.0558618382
vn -0 -0.0812797248 0.996691346
vn 0.409514755 0.779912591 0.473322392
vn -1.58292579E-07 0.932401955 0.361423045
vn -0.447932601 0.752296567 0.483121365
vn -0 0.531030118 0.847352982
vn -0.659474254 0.402821481 0.634687722
vn -0.870688081 0.255390614 0.420330673
vn -0.807024777 0.558012784 0.193216562
vn -0.879296303 0.417692393 -0.22884734
vn -0.433423519 0.900458276 -0.0363186523
vn -0.49999851 0.73383081 -0.459884554
vn -0.782291412 0.12968266 -0.609263897
vn -0.43342647 0.425300181 -0.794519484
vn -0.409516037 -0.0859056488 -0.908249319
vn 1.99296409E-07 0.485612035 -0.874174476
vn -0 0.0812835842 -0.996691048
vn -0.598145902 -0.425559789 -0.679058433
vn -0.875694573 -0.256416559 -0.409157246
vn -0.409514785 -0.779912472 -0.473322541
vn -0.782292008 -0.604843795 -0.148940235
vn -0.433426648 -0.900456607 0.0363211371
vn -0 -0.932400942 -0.361425638
vn -0 -0.998438358 0.0558651499
vn -0.874578536 -0.401224434 0.272270739
vn -0.500000954 -0.733829618 0.459883869
vn -0 -0.847352266 0.531031191
vn 1.51610777E-07 0.84735471 -0.531027317
vn -0.999173343 0.0245408043 0.0324097015
vn -0.799830616 -0.0865349993 0.593955159
vn -0.433422476 -0.425303131 0.79452014
vn -0 -0.485609531 0.874175787
vn -1.18810696E-07 0.998438478 -0.0558618382
vn -0.434675515 0.100636385 0.894946635
vn -0 -0.0812797248 0.996691346
vn -1.58292579E-07 0.932401955 0.361423045
vn 1.20095294E-07 -0.531029046 -0.847353578
vn 1.20095294E-07 -0.531029046 -0.847353578
vn 2.39176927E-07 -0.996294618 0.086005941
vn 1.68944624E-07 -0.988226295 0.152999341
vn 0.951702356 -0.118690394 0.283152252
vn 0.956411123 -0.0842452198 0.279607952
vn 1.26233857E-07 0.905811727 0.423680544
vn 1.95111653E-07 0.875415206 0.483371794
vn -0 0.0294539053 0.999566138
vn 1.95111653E-07 0.875415206 0.483371794
vn 1.26233857E-07 0.905811727 0.423680544
vn -0.951702416 -0.118690312 0.283152252
vn -0.956411183 -0.0842450634 0.279607594
vn 1.68944624E-07 -0.988226295 0.152999341
vn 2.39176927E-07 -0.996294618 0.086005941
vn -0 0.0294539053 0.999566138
vn -0 0.640931249 -0.767598331
vn 0.935696483 0.349172294 -0.0505050421
vn 0.930508375 0.366267622 -0.00148699176
vn -0 0.722776294 -0.69108206
vn -0 -0.199265912 0.979945481
vn -0 -0.0764520466 0.997073233
vn -1.24300897E-07 0.718348682 0.695683181
vn -0 -0.0764520466 0.997073233
vn -0.935696781 0.349171698 -0.0505040661
vn -0.930508554 0.366267115 -0.00148623518
vn -0 -0.199265912 0.979945481
vn -0 0.722776294 -0.69108206
vn -0 0.640931249 -0.767598331
vn -1.24300897E-07 0.718348682 0.695683181
vn -0 0.837297916 -0.546747029
vn -0 0.833090603 -0.553136587
vn -0 0.837297916 -0.546747029
vn -0 0.837600589 -0.546283185
vn -0 -0.861028969 0.508555889
vn -0 -0.857114434 0.51512605
vn -0 -0.857114434 0.51512605
vn -0 -0.856829107 0.515600502
vn -0.999899864 0.00751466909 0.011991038
vn -0.841613054 0.286798328 0.457639724
vn -0.841613054 0.286798328 0.457639784
vn -0.999899864 0.00751449494 0.0119907595
vn -0.997580469 -0.0369179845 -0.0589094721
vn -0.997580469 -0.0369179845 -0.0589094721
vn 0.999899864 0.00751452614 0.0119908154
vn 0.841612935 0.286798418 0.457639873
vn 0.841612935 0.286798447 0.457639962
vn 0.999899864 0.00751470309 0.0119910939
vn 0.997580469 -0.036917977 -0.0589094609
vn 0.997580469 -0.036917977 -0.0589094572
g wp_013_001_001_Mesh_0
f 3/3/3 2/2/2 1/1/1
f 4/4/4 3/3/3 1/1/1
f 2/2/2 3/3/3 5/5/5
f 6/6/6 2/2/2 5/5/5
f 6/6/6 5/5/5 7/7/7
f 8/8/8 6/6/6 7/7/7
f 8/8/8 7/7/7 9/9/9
f 10/10/10 8/8/8 9/9/9
f 10/10/10 9/9/9 11/11/11
f 12/12/12 10/10/10 11/11/11
f 1/1/1 2/2/2 13/13/13
f 2/2/2 14/14/14 13/13/13
f 2/2/2 6/6/6 14/14/14
f 6/6/6 15/15/15 14/14/14
f 6/6/6 8/8/8 15/15/15
f 8/8/8 16/16/16 15/15/15
f 8/8/8 10/10/10 16/16/16
f 10/10/10 17/17/17 16/16/16
f 10/10/10 12/12/12 17/17/17
f 12/12/12 18/18/18 17/17/17
f 12/12/12 19/19/19 18/18/18
f 12/12/12 20/20/20 19/19/19
f 12/12/12 11/11/11 20/20/20
f 23/23/23 22/22/22 21/21/21
f 24/24/24 23/23/23 21/21/21
f 21/21/21 22/22/22 25/25/25
f 22/22/22 26/26/26 25/25/25
f 25/25/25 26/26/26 27/27/27
f 26/26/26 28/28/28 27/27/27
f 27/27/27 28/28/28 29/29/29
f 28/28/28 30/30/30 29/29/29
f 29/29/29 30/30/30 31/31/31
f 30/30/30 32/32/32 31/31/31
f 22/22/22 23/23/23 33/33/33
f 34/34/34 22/22/22 33/33/33
f 26/26/26 22/22/22 34/34/34
f 35/35/35 26/26/26 34/34/34
f 28/28/28 26/26/26 35/35/35
f 30/30/30 28/28/28 36/36/36
f 36/36/36 28/28/28 35/35/35
f 37/37/37 30/30/30 36/36/36
f 32/32/32 30/30/30 37/37/37
f 38/38/38 32/32/32 37/37/37
f 39/39/39 32/32/32 38/38/38
f 40/40/40 32/32/32 39/39/39
f 40/40/40 31/31/31 32/32/32
f 43/43/43 42/42/42 41/41/41
f 44/44/44 43/43/43 41/41/41
f 41/41/41 42/42/42 45/45/45
f 42/42/42 46/46/46 45/45/45
f 49/49/49 48/48/48 47/47/47
f 50/50/50 49/49/49 47/47/47
f 51/51/51 49/49/49 50/50/50
f 52/52/52 51/51/51 50/50/50
f 55/55/55 54/54/54 53/53/53
f 56/56/56 55/55/55 53/53/53
f 57/57/57 55/55/55 56/56/56
f 58/58/58 57/57/57 56/56/56
f 61/61/61 60/60/60 59/59/59
f 62/62/62 61/61/61 59/59/59
f 63/63/63 61/61/61 62/62/62
f 64/64/64 63/63/63 62/62/62
f 67/67/67 66/66/66 65/65/65
f 68/68/68 67/67/67 65/65/65
f 68/68/68 65/65/65 69/69/69
f 65/65/65 70/70/70 69/69/69
f 73/73/73 72/72/72 71/71/71
f 74/74/74 73/73/73 71/71/71
f 75/75/75 73/73/73 74/74/74
f 76/76/76 75/75/75 74/74/74
f 79/79/79 78/78/78 77/77/77
f 80/80/80 79/79/79 77/77/77
f 81/81/81 79/79/79 80/80/80
f 82/82/82 81/81/81 80/80/80
f 85/85/85 84/84/84 83/83/83
f 86/86/86 85/85/85 83/83/83
f 83/83/83 84/84/84 87/87/87
f 84/84/84 88/88/88 87/87/87
f 91/91/91 90/90/90 89/89/89
f 92/92/92 90/90/90 91/91/91
f 92/92/92 93/93/93 90/90/90
f 90/90/90 93/93/93 94/94/94
f 97/97/97 96/96/96 95/95/95
f 97/97/97 98/98/98 96/96/96
f 99/99/99 98/98/98 97/97/97
f 99/99/99 97/97/97 100/100/100
f 103/103/103 102/102/102 101/101/101
f 104/104/104 102/102/102 103/103/103
f 104/104/104 105/105/105 102/102/102
f 102/102/102 105/105/105 106/106/106
f 109/109/109 108/108/108 107/107/107
f 109/109/109 110/110/110 108/108/108
f 109/109/109 111/111/111 110/110/110
f 111/111/111 109/109/109 112/112/112
f 115/115/115 114/114/114 113/113/113
f 115/115/115 116/116/116 114/114/114
f 117/117/117 116/116/116 115/115/115
f 117/117/117 115/115/115 118/118/118
f 121/121/121 120/120/120 119/119/119
f 122/122/122 120/120/120 121/121/121
f 122/122/122 123/123/123 120/120/120
f 120/120/120 123/123/123 124/124/124
f 127/127/127 126/126/126 125/125/125
f 127/127/127 128/128/128 126/126/126
f 129/129/129 128/128/128 127/127/127
f 129/129/129 127/127/127 130/130/130
f 133/133/133 132/132/132 131/131/131
f 134/134/134 132/132/132 133/133/133
f 135/135/135 132/132/132 134/134/134
f 132/132/132 135/135/135 136/136/136
f 139/139/139 138/138/138 137/137/137
f 140/140/140 138/138/138 139/139/139
f 143/143/143 142/142/142 141/141/141
f 144/144/144 143/143/143 141/141/141
f 144/144/144 141/141/141 145/145/145
f 141/141/141 146/146/146 145/145/145
f 145/145/145 146/146/146 147/147/147
f 146/146/146 148/148/148 147/147/147
f 147/147/147 148/148/148 149/149/149
f 148/148/148 150/150/150 149/149/149
f 141/141/141 151/151/151 146/146/146
f 141/141/141 142/142/142 151/151/151
f 151/151/151 152/152/152 146/146/146
f 146/146/146 152/152/152 148/148/148
f 152/152/152 153/153/153 148/148/148
f 148/148/148 153/153/153 154/154/154
f 150/150/150 148/148/148 154/154/154
f 142/142/142 155/155/155 151/151/151
f 158/158/158 157/157/157 156/156/156
f 159/159/159 158/158/158 156/156/156
f 156/156/156 157/157/157 160/160/160
f 157/157/157 161/161/161 160/160/160
f 160/160/160 161/161/161 162/162/162
f 161/161/161 163/163/163 162/162/162
f 163/163/163 164/164/164 162/162/162
f 164/164/164 165/165/165 162/162/162
f 165/165/165 164/164/164 166/166/166
f 164/164/164 167/167/167 166/166/166
f 158/158/158 159/159/159 168/168/168
f 169/169/169 158/158/158 168/168/168
f 170/170/170 169/169/169 168/168/168
f 171/171/171 170/170/170 168/168/168
f 163/163/163 161/161/161 172/172/172
f 161/161/161 173/173/173 172/172/172
f 174/174/174 164/164/164 163/163/163
f 172/172/172 174/174/174 163/163/163
f 164/164/164 174/174/174 175/175/175
f 167/167/167 164/164/164 175/175/175
f 169/169/169 170/170/170 176/176/176
f 170/170/170 177/177/177 176/176/176
f 176/176/176 178/178/178 169/169/169
f 178/178/178 158/158/158 169/169/169
f 158/158/158 178/178/178 179/179/179
f 157/157/157 158/158/158 179/179/179
f 157/157/157 179/179/179 173/173/173
f 161/161/161 157/157/157 173/173/173
f 182/182/182 181/181/181 180/180/180
f 183/183/183 182/182/182 180/180/180
f 184/184/184 182/182/182 183/183/183
f 185/185/185 184/184/184 183/183/183
f 188/188/188 187/187/187 186/186/186
f 189/189/189 188/188/188 186/186/186
f 186/186/186 187/187/187 190/190/190
f 187/187/187 191/191/191 190/190/190
f 190/190/190 191/191/191 192/192/192
f 191/191/191 193/193/193 192/192/192
f 193/193/193 194/194/194 192/192/192
f 194/194/194 195/195/195 192/192/192
f 195/195/195 194/194/194 196/196/196
f 194/194/194 197/197/197 196/196/196
f 188/188/188 189/189/189 198/198/198
f 199/199/199 188/188/188 198/198/198
f 200/200/200 199/199/199 198/198/198
f 201/201/201 200/200/200 198/198/198
f 202/202/202 201/201/201 198/198/198
f 203/203/203 202/202/202 198/198/198
f 198/198/198 189/189/189 204/204/204
f 203/203/203 198/198/198 204/204/204
f 204/204/204 189/189/189 186/186/186
f 205/205/205 204/204/204 186/186/186
f 205/205/205 186/186/186 190/190/190
f 206/206/206 205/205/205 190/190/190
f 206/206/206 190/190/190 192/192/192
f 207/207/207 206/206/206 192/192/192
f 207/207/207 192/192/192 208/208/208
f 192/192/192 195/195/195 208/208/208
f 208/208/208 195/195/195 196/196/196
f 209/209/209 208/208/208 196/196/196
f 212/212/212 211/211/211 210/210/210
f 213/213/213 212/212/212 210/210/210
f 210/210/210 211/211/211 214/214/214
f 215/215/215 210/210/210 214/214/214
f 218/218/218 217/217/217 216/216/216
f 219/219/219 218/218/218 216/216/216
f 220/220/220 218/218/218 219/219/219
f 221/221/221 220/220/220 219/219/219
f 224/224/224 223/223/223 222/222/222
f 225/225/225 224/224/224 222/222/222
f 226/226/226 224/224/224 225/225/225
f 227/227/227 226/226/226 225/225/225
f 230/230/230 229/229/229 228/228/228
f 229/229/229 230/230/230 231/231/231
f 234/234/234 233/233/233 232/232/232
f 234/234/234 232/232/232 235/235/235
f 236/236/236 234/234/234 235/235/235
f 236/236/236 235/235/235 237/237/237
f 240/240/240 239/239/239 238/238/238
f 240/240/240 241/241/241 239/239/239
f 241/241/241 242/242/242 239/239/239
f 241/241/241 243/243/243 242/242/242
f 246/246/246 245/245/245 244/244/244
f 247/247/247 246/246/246 244/244/244
f 248/248/248 245/245/245 246/246/246
f 249/249/249 248/248/248 246/246/246
f 250/250/250 248/248/248 249/249/249
f 251/251/251 250/250/250 249/249/249
f 254/254/254 253/253/253 252/252/252
f 255/255/255 254/254/254 252/252/252
f 255/255/255 252/252/252 256/256/256
f 257/257/257 255/255/255 256/256/256
f 257/257/257 256/256/256 258/258/258
f 259/259/259 257/257/257 258/258/258
f 262/262/262 261/261/261 260/260/260
f 263/263/263 262/262/262 260/260/260
f 263/263/263 260/260/260 264/264/264
f 260/260/260 265/265/265 264/264/264
f 261/261/261 262/262/262 266/266/266
f 262/262/262 267/267/267 266/266/266
f 270/270/270 269/269/269 268/268/268
f 271/271/271 270/270/270 268/268/268
f 274/274/274 273/273/273 272/272/272
f 275/275/275 274/274/274 272/272/272
f 278/278/278 277/277/277 276/276/276
f 279/279/279 278/278/278 276/276/276
f 279/279/279 276/276/276 280/280/280
f 276/276/276 281/281/281 280/280/280
f 277/277/277 278/278/278 282/282/282
f 278/278/278 283/283/283 282/282/282
f 286/286/286 285/285/285 284/284/284
f 287/287/287 286/286/286 284/284/284
f 290/290/290 289/289/289 288/288/288
f 291/291/291 290/290/290 288/288/288
f 294/294/294 293/293/293 292/292/292
f 295/295/295 294/294/294 292/292/292
f 298/298/298 297/297/297 296/296/296
f 299/299/299 298/298/298 296/296/296
f 302/302/302 301/301/301 300/300/300
f 303/303/303 302/302/302 300/300/300
f 306/306/306 305/305/305 304/304/304
f 307/307/307 306/306/306 304/304/304
f 310/310/310 309/309/309 308/308/308
f 311/311/311 310/310/310 308/308/308
f 314/314/314 313/313/313 312/312/312
f 315/315/315 314/314/314 312/312/312
f 312/312/312 313/313/313 316/316/316
f 313/313/313 317/317/317 316/316/316
f 320/320/320 319/319/319 318/318/318
f 321/321/321 320/320/320 318/318/318
f 318/318/318 319/319/319 322/322/322
f 319/319/319 323/323/323 322/322/322
f 326/326/326 325/325/325 324/324/324
f 327/327/327 326/326/326 324/324/324
f 328/328/328 327/327/327 324/324/324
f 329/329/329 327/327/327 328/328/328
f 330/330/330 329/329/329 328/328/328
f 331/331/331 329/329/329 330/330/330
f 332/332/332 331/331/331 330/330/330
f 333/333/333 331/331/331 332/332/332
f 334/334/334 333/333/333 332/332/332
f 334/334/334 332/332/332 335/335/335
f 334/334/334 335/335/335 336/336/336
f 337/337/337 334/334/334 336/336/336
f 333/333/333 338/338/338 331/331/331
f 338/338/338 339/339/339 331/331/331
f 331/331/331 339/339/339 329/329/329
f 338/338/338 340/340/340 339/339/339
f 338/338/338 341/341/341 340/340/340
f 341/341/341 342/342/342 340/340/340
f 336/336/336 335/335/335 343/343/343
f 335/335/335 344/344/344 343/343/343
f 332/332/332 330/330/330 344/344/344
f 335/335/335 332/332/332 344/344/344
f 339/339/339 345/345/345 329/329/329
f 339/339/339 340/340/340 345/345/345
f 340/340/340 346/346/346 345/345/345
f 340/340/340 342/342/342 346/346/346
f 342/342/342 347/347/347 346/346/346
f 343/343/343 344/344/344 348/348/348
f 344/344/344 349/349/349 348/348/348
f 344/344/344 330/330/330 349/349/349
f 330/330/330 328/328/328 349/349/349
f 345/345/345 346/346/346 350/350/350
f 345/345/345 350/350/350 327/327/327
f 329/329/329 345/345/345 327/327/327
f 346/346/346 351/351/351 350/350/350
f 346/346/346 347/347/347 351/351/351
f 347/347/347 352/352/352 351/351/351
f 349/349/349 324/324/324 348/348/348
f 349/349/349 328/328/328 324/324/324
f 324/324/324 353/353/353 348/348/348
f 327/327/327 350/350/350 326/326/326
f 350/350/350 354/354/354 326/326/326
f 350/350/350 351/351/351 354/354/354
f 351/351/351 352/352/352 354/354/354
f 352/352/352 355/355/355 354/354/354
f 355/355/355 325/325/325 354/354/354
f 353/353/353 324/324/324 325/325/325
f 326/326/326 354/354/354 325/325/325
f 358/358/358 357/357/357 356/356/356
f 359/359/359 358/358/358 356/356/356
f 360/360/360 359/359/359 356/356/356
f 360/360/360 361/361/361 359/359/359
f 361/361/361 360/360/360 362/362/362
f 362/362/362 360/360/360 356/356/356
f 363/363/363 361/361/361 362/362/362
f 364/364/364 361/361/361 363/363/363
f 365/365/365 364/364/364 363/363/363
f 366/366/366 364/364/364 365/365/365
f 366/366/366 365/365/365 367/367/367
f 368/368/368 366/366/366 367/367/367
f 366/366/366 369/369/369 364/364/364
f 369/369/369 370/370/370 364/364/364
f 364/364/364 370/370/370 361/361/361
f 369/369/369 371/371/371 370/370/370
f 371/371/371 372/372/372 370/370/370
f 371/371/371 373/373/373 372/372/372
f 371/371/371 374/374/374 373/373/373
f 374/374/374 375/375/375 373/373/373
f 372/372/372 373/373/373 376/376/376
f 373/373/373 377/377/377 376/376/376
f 373/373/373 375/375/375 377/377/377
f 375/375/375 378/378/378 377/377/377
f 365/365/365 363/363/363 379/379/379
f 367/367/367 365/365/365 379/379/379
f 372/372/372 376/376/376 380/380/380
f 370/370/370 372/372/372 380/380/380
f 370/370/370 380/380/380 361/361/361
f 376/376/376 377/377/377 381/381/381
f 377/377/377 382/382/382 381/381/381
f 377/377/377 378/378/378 382/382/382
f 378/378/378 383/383/383 382/382/382
f 379/379/379 363/363/363 384/384/384
f 363/363/363 362/362/362 384/384/384
f 361/361/361 380/380/380 359/359/359
f 376/376/376 381/381/381 359/359/359
f 380/380/380 376/376/376 359/359/359
f 381/381/381 382/382/382 385/385/385
f 382/382/382 383/383/383 385/385/385
f 381/381/381 385/385/385 359/359/359
f 383/383/383 386/386/386 385/385/385
f 384/384/384 362/362/362 387/387/387
f 362/362/362 356/356/356 387/387/387
f 385/385/385 358/358/358 359/359/359
f 358/358/358 385/385/385 357/357/357
f 387/387/387 356/356/356 357/357/357
f 385/385/385 386/386/386 357/357/357
f 369/369/369 366/366/366 388/388/388
f 388/388/388 366/366/366 368/368/368
f 388/388/388 371/371/371 369/369/369
f 374/374/374 371/371/371 388/388/388
f 338/338/338 389/389/389 341/341/341
f 338/338/338 333/333/333 389/389/389
f 389/389/389 333/333/333 334/334/334
f 334/334/334 337/337/337 389/389/389
f 392/392/392 391/391/391 390/390/390
f 393/393/393 392/392/392 390/390/390
f 394/394/394 392/392/392 393/393/393
f 395/395/395 394/394/394 393/393/393
f 392/392/392 396/396/396 391/391/391
f 394/394/394 396/396/396 392/392/392
f 399/399/399 398/398/398 397/397/397
f 400/400/400 399/399/399 397/397/397
f 401/401/401 399/399/399 400/400/400
f 402/402/402 401/401/401 400/400/400
f 399/399/399 403/403/403 398/398/398
f 401/401/401 403/403/403 399/399/399
f 406/406/406 405/405/405 404/404/404
f 407/407/407 406/406/406 404/404/404
f 406/406/406 408/408/408 405/405/405
f 408/408/408 409/409/409 405/405/405
f 410/410/410 406/406/406 407/407/407
f 410/410/410 408/408/408 406/406/406
f 413/413/413 412/412/412 411/411/411
f 414/414/414 413/413/413 411/411/411
f 413/413/413 415/415/415 412/412/412
f 415/415/415 416/416/416 412/412/412
f 417/417/417 413/413/413 414/414/414
f 417/417/417 415/415/415 413/413/413
f 420/420/420 419/419/419 418/418/418
f 418/418/418 421/421/421 420/420/420
f 424/424/424 423/423/423 422/422/422
f 424/424/424 425/425/425 423/423/423
f 428/428/428 427/427/427 426/426/426
f 429/429/429 428/428/428 426/426/426
f 429/429/429 426/426/426 430/430/430
f 426/426/426 431/431/431 430/430/430
f 434/434/434 433/433/433 432/432/432
f 435/435/435 434/434/434 432/432/432
f 432/432/432 436/436/436 435/435/435
f 436/436/436 437/437/437 435/435/435
