g md_sign_board
v 6.46561527 34.1501923 -1.73245561
v 6.46561527 35.2376022 -1.73245561
v 5.79691219 35.2376022 -3.34684801
v 5.79691219 34.1501923 -3.34684801
v 4.73315907 35.2376022 -4.73315763
v 4.73315907 34.1501923 -4.73315763
v 3.3468492 35.2376022 -5.79691076
v 3.3468492 34.1501923 -5.79691076
v 1.73245704 35.2376022 -6.46561432
v 1.73245704 34.1501923 -6.46561432
v 8.07889592E-07 35.2376022 -6.69369745
v 8.07889592E-07 34.1501923 -6.69369745
v -1.73245561 35.2376022 -6.46561575
v -1.73245561 34.1501923 -6.46561575
v -3.34684849 35.2376022 -5.79691267
v -3.34684849 34.1501923 -5.79691267
v -4.73315907 35.2376022 -4.73316002
v -4.73315907 34.1501923 -4.73316002
v -5.79691267 35.2376022 -3.34684968
v -5.79691267 34.1501923 -3.34684968
v -6.46561623 35.2376022 -1.73245704
v -6.46561623 34.1501923 -1.73245704
v -6.69369936 35.2376022 -3.85724661E-07
v -6.69369936 34.1501923 -3.85724661E-07
v -6.4656167 35.2376022 1.73245645
v -6.4656167 34.1501923 1.73245645
v -5.79691315 35.2376022 3.3468492
v -5.79691315 34.1501923 3.3468492
v -4.7331605 35.2376022 4.73316002
v -4.7331605 34.1501923 4.73316002
v -3.34685016 35.2376022 5.79691315
v -3.34685016 34.1501923 5.79691315
v -1.73245704 35.2376022 6.46561766
v -1.73245704 34.1501923 6.46561766
v -1.89549581E-07 35.2376022 6.69369984
v -1.89549581E-07 34.1501923 6.69369984
v 1.7324568 35.2376022 6.46561766
v 1.7324568 34.1501923 6.46561766
v 3.34684992 35.2376022 5.79691458
v 3.34684992 34.1501923 5.79691458
v 4.73316097 35.2376022 4.73316097
v 4.73316097 34.1501923 4.73316097
v 5.79691458 35.2376022 3.3468504
v 5.79691458 34.1501923 3.3468504
v 6.46561861 35.2376022 1.73245728
v 6.46561861 34.1501923 1.73245728
v 6.69370079 35.2376022 1.32510021E-08
v 6.69370079 34.1501923 1.32510021E-08
v 6.46561527 35.2376022 -1.73245561
v 6.46561527 34.1501923 -1.73245561
vt 0.465640485 0.968787014
vt 0.465640485 0.994562805
vt 0.487762511 0.994562805
vt 0.487762511 0.968787014
vt 0.509884953 0.994562805
vt 0.509884953 0.968787014
vt 0.532007337 0.994562805
vt 0.532007337 0.968787014
vt 0.55412966 0.994562805
vt 0.55412966 0.968787014
vt 0.576251745 0.994562805
vt 0.576251745 0.968787014
vt 0.59837389 0.994562805
vt 0.59837389 0.968787014
vt 0.620496154 0.994562805
vt 0.620496154 0.968787014
vt 0.642618656 0.994562805
vt 0.642618656 0.968787014
vt 0.664740801 0.994562805
vt 0.664740801 0.968787014
vt 0.686863005 0.994562805
vt 0.686863005 0.968787014
vt 0.708985209 0.994562805
vt 0.708985209 0.968787014
vt 0.731107593 0.994562805
vt 0.731107593 0.968787014
vt 0.753229737 0.994562805
vt 0.753229737 0.968787014
vt 0.77535224 0.994562805
vt 0.77535224 0.968787014
vt 0.797474384 0.994562805
vt 0.797474384 0.968787014
vt 0.819596767 0.994562805
vt 0.819596767 0.968787014
vt 0.841719031 0.994562805
vt 0.841719031 0.968787014
vt 0.863841534 0.994562805
vt 0.863841534 0.968787014
vt 0.885963917 0.994562805
vt 0.885963917 0.968787014
vt 0.9080863 0.994562805
vt 0.9080863 0.968787014
vt 0.930208325 0.994562805
vt 0.930208325 0.968787014
vt 0.952330828 0.994562805
vt 0.952330828 0.968787014
vt 0.974452972 0.994562805
vt 0.974452972 0.968787014
vt 0.996575475 0.994562805
vt 0.996575475 0.968787014
vn 0.965925574 0 -0.258820117
vn 0.965925574 0 -0.258820117
vn 0.866025448 0 -0.499999851
vn 0.866025448 0 -0.499999851
vn 0.707106888 0 -0.707106709
vn 0.707106888 0 -0.707106709
vn 0.49999997 0 -0.866025448
vn 0.49999997 0 -0.866025448
vn 0.258819401 0 -0.965925694
vn 0.258819401 0 -0.965925694
vn 4.08385574E-07 0 -1
vn 4.08385574E-07 0 -1
vn -0.258818954 0 -0.965925813
vn -0.258818954 0 -0.965925813
vn -0.499999851 0 -0.866025448
vn -0.499999851 0 -0.866025448
vn -0.707106888 0 -0.707106709
vn -0.707106888 0 -0.707106709
vn -0.866025507 0 -0.499999791
vn -0.866025507 0 -0.499999791
vn -0.965925753 0 -0.258819222
vn -0.965925753 0 -0.258819222
vn -1 0 -2.06255038E-07
vn -1 0 -2.06255038E-07
vn -0.965925813 0 0.258819044
vn -0.965925813 0 0.258819044
vn -0.866025567 0 0.499999762
vn -0.866025567 0 0.499999762
vn -0.707107365 0 0.707106233
vn -0.707107365 0 0.707106233
vn -0.500000477 0 0.86602509
vn -0.500000477 0 0.86602509
vn -0.258818924 0 0.965925872
vn -0.258818924 0 0.965925872
vn -0 0 1
vn -0 0 1
vn 0.258818656 0 0.965925932
vn 0.258818656 0 0.965925932
vn 0.499999851 0 0.866025448
vn 0.499999851 0 0.866025448
vn 0.707106948 0 0.70710659
vn 0.707106948 0 0.70710659
vn 0.866025448 0 0.499999851
vn 0.866025448 0 0.499999851
vn 0.965925694 0 0.258819371
vn 0.965925694 0 0.258819371
vn 1 0 -1.03952573E-06
vn 1 0 -1.03952573E-06
vn 0.965925574 0 -0.258820117
vn 0.965925574 0 -0.258820117
g md_sign_board_0
f 3/3/3 2/2/2 1/1/1
f 4/4/4 3/3/3 1/1/1
f 5/5/5 3/3/3 4/4/4
f 6/6/6 5/5/5 4/4/4
f 7/7/7 5/5/5 6/6/6
f 8/8/8 7/7/7 6/6/6
f 9/9/9 7/7/7 8/8/8
f 10/10/10 9/9/9 8/8/8
f 11/11/11 9/9/9 10/10/10
f 12/12/12 11/11/11 10/10/10
f 13/13/13 11/11/11 12/12/12
f 14/14/14 13/13/13 12/12/12
f 15/15/15 13/13/13 14/14/14
f 16/16/16 15/15/15 14/14/14
f 17/17/17 15/15/15 16/16/16
f 18/18/18 17/17/17 16/16/16
f 19/19/19 17/17/17 18/18/18
f 20/20/20 19/19/19 18/18/18
f 21/21/21 19/19/19 20/20/20
f 22/22/22 21/21/21 20/20/20
f 23/23/23 21/21/21 22/22/22
f 24/24/24 23/23/23 22/22/22
f 25/25/25 23/23/23 24/24/24
f 26/26/26 25/25/25 24/24/24
f 27/27/27 25/25/25 26/26/26
f 28/28/28 27/27/27 26/26/26
f 29/29/29 27/27/27 28/28/28
f 30/30/30 29/29/29 28/28/28
f 31/31/31 29/29/29 30/30/30
f 32/32/32 31/31/31 30/30/30
f 33/33/33 31/31/31 32/32/32
f 34/34/34 33/33/33 32/32/32
f 35/35/35 33/33/33 34/34/34
f 36/36/36 35/35/35 34/34/34
f 37/37/37 35/35/35 36/36/36
f 38/38/38 37/37/37 36/36/36
f 39/39/39 37/37/37 38/38/38
f 40/40/40 39/39/39 38/38/38
f 41/41/41 39/39/39 40/40/40
f 42/42/42 41/41/41 40/40/40
f 43/43/43 41/41/41 42/42/42
f 44/44/44 43/43/43 42/42/42
f 45/45/45 43/43/43 44/44/44
f 46/46/46 45/45/45 44/44/44
f 47/47/47 45/45/45 46/46/46
f 48/48/48 47/47/47 46/46/46
f 49/49/49 47/47/47 48/48/48
f 50/50/50 49/49/49 48/48/48
