g fd_md_00301_ad_b
v 22.5193081 -1 -3.56670165
v 21.684103 -1 -7.04558563
v 21.684103 1 -7.04558563
v 22.5193081 1 -3.56670165
v 20.3149624 1 -10.3509846
v 20.3149624 -1 -10.3509846
v 18.4456024 1 -13.4015074
v 18.4456024 -1 -13.4015074
v 16.1220512 1 -16.1220398
v 16.1220512 -1 -16.1220398
v 13.4015179 1 -18.4455948
v 13.4015179 -1 -18.4455948
v 10.350996 1 -20.3149586
v 10.350996 -1 -20.3149586
v 7.04559565 1 -21.6840992
v 7.04559565 -1 -21.6840992
v 3.56671381 1 -22.5193062
v 3.56671381 -1 -22.5193062
v 4.88281239E-06 1 -22.8000145
v 4.88281239E-06 -1 -22.8000145
v 4.88281239E-06 -1 -22.8000145
v -3.56670403 -1 -22.5193062
v -3.56670403 1 -22.5193062
v 4.88281239E-06 1 -22.8000145
v -7.04558563 1 -21.6841011
v -7.04558563 -1 -21.6841011
v -10.3509808 1 -20.3149605
v -10.3509808 -1 -20.3149605
v -13.4015083 1 -18.4455986
v -13.4015083 -1 -18.4455986
v -16.122036 1 -16.1220474
v -16.122036 -1 -16.1220474
v -18.445591 1 -13.401515
v -18.445591 -1 -13.401515
v -20.3149548 1 -10.3509922
v -20.3149548 -1 -10.3509922
v -21.6840954 1 -7.04559565
v -21.6840954 -1 -7.04559565
v -22.5193005 1 -3.56671143
v -22.5193005 -1 -3.56671143
v -22.800005 1 -4.88281239E-06
v -22.800005 -1 -4.88281239E-06
v -22.5193005 1 3.56670403
v -22.5193005 -1 3.56670403
v -21.6840954 1 7.04558563
v -21.6840954 -1 7.04558563
v -20.3149548 1 10.3509808
v -20.3149548 -1 10.3509808
v -18.4455948 1 13.4015036
v -18.4455948 -1 13.4015036
v -16.1220398 1 16.122036
v -16.1220398 -1 16.122036
v -13.4015083 1 18.445591
v -13.4015083 -1 18.445591
v -10.3509912 1 20.3149509
v -10.3509912 -1 20.3149509
v -7.04559088 1 21.6840916
v -7.04559088 -1 21.6840916
v -3.5667088 1 22.5192966
v -3.5667088 -1 22.5192966
v -0 1 22.800005
v -0 -1 22.800005
v -0 -1 22.800005
v 3.56670403 -1 22.5192966
v 3.56670403 1 22.5192966
v -0 1 22.800005
v 7.04558563 1 21.6840916
v 7.04558563 -1 21.6840916
v 10.3509808 1 20.3149548
v 10.3509808 -1 20.3149548
v 13.4015036 1 18.4455948
v 13.4015036 -1 18.4455948
v 16.122036 1 16.1220398
v 16.122036 -1 16.1220398
v 18.445591 1 13.4015036
v 18.445591 -1 13.4015036
v 20.3149509 1 10.3509865
v 20.3149509 -1 10.3509865
v 21.6840897 1 7.04558802
v 21.6840897 -1 7.04558802
v 22.5192947 1 3.56670642
v 22.5192947 -1 3.56670642
v 22.7999992 1 0
v 22.7999992 -1 0
vt 0.700219274 0.929141581
vt 0.674014091 0.929141581
vt 0.674014091 0.954758346
vt 0.700219274 0.954758346
vt 0.647809565 0.954758346
vt 0.647809565 0.929141581
vt 0.621604621 0.954758346
vt 0.621604621 0.929141581
vt 0.595399797 0.954758346
vt 0.595399797 0.929141581
vt 0.569195211 0.954758346
vt 0.569195211 0.929141581
vt 0.542990446 0.954758346
vt 0.542990446 0.929141581
vt 0.516785264 0.954758346
vt 0.516785264 0.929141581
vt 0.490580559 0.954758346
vt 0.490580559 0.929141581
vt 0.464375734 0.954758346
vt 0.464375734 0.929141581
vt 0.988769174 0.968159974
vt 0.962564468 0.968159974
vt 0.962564468 0.993776798
vt 0.988769174 0.993776798
vt 0.936359823 0.993776798
vt 0.936359823 0.968159974
vt 0.910154819 0.993776798
vt 0.910154819 0.968159974
vt 0.883950055 0.993776798
vt 0.883950055 0.968159974
vt 0.85774523 0.993776798
vt 0.85774523 0.968159974
vt 0.831540406 0.993776798
vt 0.831540406 0.968159974
vt 0.805335581 0.993776798
vt 0.805335581 0.968159974
vt 0.779130697 0.993776798
vt 0.779130697 0.968159974
vt 0.752925932 0.993776798
vt 0.752925932 0.968159974
vt 0.726721287 0.993776798
vt 0.726721287 0.968159974
vt 0.700516403 0.993776798
vt 0.700516403 0.968159974
vt 0.674311757 0.993776798
vt 0.674311757 0.968159974
vt 0.648106992 0.993776798
vt 0.648106992 0.968159974
vt 0.621902168 0.993776798
vt 0.621902168 0.968159974
vt 0.595697343 0.993776798
vt 0.595697343 0.968159974
vt 0.56949234 0.993776798
vt 0.56949234 0.968159974
vt 0.543287516 0.993776798
vt 0.543287516 0.968159974
vt 0.51708281 0.993776798
vt 0.51708281 0.968159974
vt 0.490878016 0.993776798
vt 0.490878016 0.968159974
vt 0.464673251 0.993776798
vt 0.464673251 0.968159974
vt 0.988471746 0.929141581
vt 0.962266922 0.929141581
vt 0.962266922 0.954758346
vt 0.988471746 0.954758346
vt 0.936061978 0.954758346
vt 0.936061978 0.929141581
vt 0.909857035 0.954758346
vt 0.909857035 0.929141581
vt 0.883652687 0.954758346
vt 0.883652687 0.929141581
vt 0.857447803 0.954758346
vt 0.857447803 0.929141581
vt 0.8312428 0.954758346
vt 0.8312428 0.929141581
vt 0.805038214 0.954758346
vt 0.805038214 0.929141581
vt 0.77883321 0.954758346
vt 0.77883321 0.929141581
vt 0.752628565 0.954758346
vt 0.752628565 0.929141581
vt 0.726423264 0.954758346
vt 0.726423264 0.929141581
vn -0.987688661 0 0.156432375
vn -0.95105654 0 0.309016764
vn -0.95105654 0 0.309016764
vn -0.987688661 0 0.156432375
vn -0.891006708 0 0.453990191
vn -0.891006708 0 0.453990191
vn -0.809017301 0 0.587784827
vn -0.809017301 0 0.587784827
vn -0.707106948 0 0.70710659
vn -0.707106948 0 0.70710659
vn -0.587785244 0 0.809017003
vn -0.587785244 0 0.809017003
vn -0.4539904 0 0.891006589
vn -0.4539904 0 0.891006589
vn -0.309017181 0 0.95105648
vn -0.309017181 0 0.95105648
vn -0.156434968 0 0.987688243
vn -0.156434968 0 0.987688243
vn -0 0 1
vn -0 0 1
vn -0 0 1
vn 0.156434506 0 0.987688303
vn 0.156434506 0 0.987688303
vn -0 0 1
vn 0.309016973 0 0.95105654
vn 0.309016973 0 0.95105654
vn 0.453990191 0 0.891006708
vn 0.453990191 0 0.891006708
vn 0.587785006 0 0.809017181
vn 0.587785006 0 0.809017181
vn 0.707106948 0 0.70710665
vn 0.707106948 0 0.70710665
vn 0.809016764 0 0.587785542
vn 0.809016764 0 0.587785542
vn 0.891006351 0 0.453990817
vn 0.891006351 0 0.453990817
vn 0.95105654 0 0.309016883
vn 0.95105654 0 0.309016883
vn 0.987688422 0 0.156433985
vn 0.987688422 0 0.156433985
vn 1 0 0
vn 1 0 0
vn 0.987688422 0 -0.156433955
vn 0.987688422 0 -0.156433955
vn 0.95105654 0 -0.309017032
vn 0.95105654 0 -0.309017032
vn 0.891006589 0 -0.4539904
vn 0.891006589 0 -0.4539904
vn 0.809017122 0 -0.587785125
vn 0.809017122 0 -0.587785125
vn 0.707106888 0 -0.707106709
vn 0.707106888 0 -0.707106709
vn 0.587785482 0 -0.809016883
vn 0.587785482 0 -0.809016883
vn 0.4539904 0 -0.891006589
vn 0.4539904 0 -0.891006589
vn 0.309016764 0 -0.95105654
vn 0.309016764 0 -0.95105654
vn 0.156434506 0 -0.987688303
vn 0.156434506 0 -0.987688303
vn -0 0 -1
vn -0 0 -1
vn -0 0 -1
vn -0.15643464 0 -0.987688303
vn -0.15643464 0 -0.987688303
vn -0 0 -1
vn -0.309016377 0 -0.951056719
vn -0.309016377 0 -0.951056719
vn -0.453989953 0 -0.891006768
vn -0.453989953 0 -0.891006768
vn -0.587785125 0 -0.809017062
vn -0.587785125 0 -0.809017062
vn -0.707107127 0 -0.707106471
vn -0.707107127 0 -0.707106471
vn -0.809017062 0 -0.587785125
vn -0.809017062 0 -0.587785125
vn -0.891006649 0 -0.45399031
vn -0.891006649 0 -0.45399031
vn -0.9510566 0 -0.309016645
vn -0.9510566 0 -0.309016645
vn -0.987688363 0 -0.156434342
vn -0.987688363 0 -0.156434342
vn -1 0 -2.05681454E-06
vn -1 0 -2.05681454E-06
g fd_md_00301_ad_b_0
f 3/3/3 2/2/2 1/1/1
f 4/4/4 3/3/3 1/1/1
f 3/3/3 5/5/5 2/2/2
f 5/5/5 6/6/6 2/2/2
f 5/5/5 7/7/7 6/6/6
f 7/7/7 8/8/8 6/6/6
f 7/7/7 9/9/9 8/8/8
f 9/9/9 10/10/10 8/8/8
f 9/9/9 11/11/11 10/10/10
f 11/11/11 12/12/12 10/10/10
f 11/11/11 13/13/13 12/12/12
f 13/13/13 14/14/14 12/12/12
f 13/13/13 15/15/15 14/14/14
f 15/15/15 16/16/16 14/14/14
f 15/15/15 17/17/17 16/16/16
f 17/17/17 18/18/18 16/16/16
f 17/17/17 19/19/19 18/18/18
f 19/19/19 20/20/20 18/18/18
f 23/23/23 22/22/22 21/21/21
f 24/24/24 23/23/23 21/21/21
f 23/23/23 25/25/25 22/22/22
f 25/25/25 26/26/26 22/22/22
f 25/25/25 27/27/27 26/26/26
f 27/27/27 28/28/28 26/26/26
f 27/27/27 29/29/29 28/28/28
f 29/29/29 30/30/30 28/28/28
f 29/29/29 31/31/31 30/30/30
f 31/31/31 32/32/32 30/30/30
f 31/31/31 33/33/33 32/32/32
f 33/33/33 34/34/34 32/32/32
f 33/33/33 35/35/35 34/34/34
f 35/35/35 36/36/36 34/34/34
f 35/35/35 37/37/37 36/36/36
f 37/37/37 38/38/38 36/36/36
f 37/37/37 39/39/39 38/38/38
f 39/39/39 40/40/40 38/38/38
f 39/39/39 41/41/41 40/40/40
f 41/41/41 42/42/42 40/40/40
f 41/41/41 43/43/43 42/42/42
f 43/43/43 44/44/44 42/42/42
f 43/43/43 45/45/45 44/44/44
f 45/45/45 46/46/46 44/44/44
f 45/45/45 47/47/47 46/46/46
f 47/47/47 48/48/48 46/46/46
f 47/47/47 49/49/49 48/48/48
f 49/49/49 50/50/50 48/48/48
f 49/49/49 51/51/51 50/50/50
f 51/51/51 52/52/52 50/50/50
f 51/51/51 53/53/53 52/52/52
f 53/53/53 54/54/54 52/52/52
f 53/53/53 55/55/55 54/54/54
f 55/55/55 56/56/56 54/54/54
f 55/55/55 57/57/57 56/56/56
f 57/57/57 58/58/58 56/56/56
f 57/57/57 59/59/59 58/58/58
f 59/59/59 60/60/60 58/58/58
f 59/59/59 61/61/61 60/60/60
f 61/61/61 62/62/62 60/60/60
f 65/65/65 64/64/64 63/63/63
f 66/66/66 65/65/65 63/63/63
f 65/65/65 67/67/67 64/64/64
f 67/67/67 68/68/68 64/64/64
f 67/67/67 69/69/69 68/68/68
f 69/69/69 70/70/70 68/68/68
f 69/69/69 71/71/71 70/70/70
f 71/71/71 72/72/72 70/70/70
f 71/71/71 73/73/73 72/72/72
f 73/73/73 74/74/74 72/72/72
f 73/73/73 75/75/75 74/74/74
f 75/75/75 76/76/76 74/74/74
f 75/75/75 77/77/77 76/76/76
f 77/77/77 78/78/78 76/76/76
f 77/77/77 79/79/79 78/78/78
f 79/79/79 80/80/80 78/78/78
f 79/79/79 81/81/81 80/80/80
f 81/81/81 82/82/82 80/80/80
f 81/81/81 83/83/83 82/82/82
f 83/83/83 84/84/84 82/82/82
f 83/83/83 4/4/4 84/84/84
f 4/4/4 1/1/1 84/84/84
