g wp_013_004_002_Mesh_b
v -0.00601497618 0.0439624973 -0.27016899
v -0.00457506161 0.0517469198 -0.275189102
v -0.00974473916 0.055651702 -0.272935122
v -0.00856641773 0.0479934774 -0.265511215
v -0.00457506161 0.0581098348 -0.267836809
v -0.00601495709 0.0520244204 -0.260853529
v 0.000144863123 0.042292852 -0.272098154
v 0.000144863123 0.0284230709 -0.260094821
v 0.00630466454 0.0300927348 -0.258165538
v 0.00630460726 0.0439625271 -0.27016899
v -0.00601490028 0.0300927348 -0.258165538
v 0.000703086844 0.0495952405 -0.279771239
v 0.00885610562 0.0341236591 -0.253507823
v 0.00885612424 0.0202538017 -0.241504356
v 0.00630462635 0.016222829 -0.246162072
v 0.00885606743 0.0479934886 -0.265511245
v 0.0051545715 0.0517468825 -0.275189102
v 0.010034427 0.0564396083 -0.272024691
v 0.0001448822 0.0145531744 -0.248091355
v 0.00630464545 0.00235305773 -0.23415862
v 0.000144863123 0.000683336228 -0.236087978
v -0.00601490028 0.0162228588 -0.246162072
v -0.00856637955 0.0341236778 -0.253507823
v -0.00856637955 0.0202538017 -0.241504326
v -0.00601490028 0.0381546207 -0.248850137
v -0.00601488119 0.0242847633 -0.236846656
v -0.00601490028 0.00235305773 -0.234158665
v 0.000144767764 -0.0131864259 -0.224084511
v -0.00601501437 -0.0115167424 -0.222155228
v -0.00856637955 0.00638400996 -0.229500949
v -0.00856645592 -0.0074857804 -0.217497513
v -0.00601490028 0.0104149627 -0.224843234
v -0.00601501437 -0.00345484726 -0.212839812
v 0.0001448822 0.0259544365 -0.234917372
v 0.000144863123 0.0120846368 -0.222913921
v 0.00630466454 0.0242847446 -0.236846626
v 0.00630466454 0.0104149533 -0.224843234
v 0.000144767764 -0.0270562358 -0.212081105
v 0.00630453089 -0.0253865626 -0.210151836
v 0.0063045118 -0.0115167713 -0.222155198
v -0.00601501437 -0.0253865328 -0.210151806
v 0.00630462635 0.0381546021 -0.248850092
v 0.00885610562 0.0341236591 -0.253507823
v 0.00885612424 0.0202538017 -0.241504356
v 0.0001448822 0.0398243144 -0.246920854
v 0.00630458817 0.0520244204 -0.260853559
v 0.000144805905 0.0536940955 -0.258924246
v 0.00885599107 -0.0213556103 -0.205494076
v 0.00878362264 -0.0352727734 -0.193545416
v 0.00623215968 -0.0393037461 -0.198203146
v 0.00885601062 -0.00748579018 -0.217497498
v 0.00885610562 0.00638395315 -0.229500949
v 0.0051545715 0.0581097975 -0.267836779
v 0.010034427 0.0564396083 -0.272024691
v 0.00885606743 0.0479934886 -0.265511245
v -0.000413246133 0.0623357743 -0.265049875
v 0.00631429674 0.0642396733 -0.271360844
v 0.00876749028 0.0606908202 -0.275489181
v 0.0051545524 0.0645529553 -0.279842436
v -5.09643542E-05 0.0656639114 -0.269643128
v -0.0057264897 0.0642227158 -0.271244079
v -0.00457498524 0.0645529926 -0.279842436
v -0.00822284725 0.0595851876 -0.276574463
v 0.000289783464 0.0655900761 -0.280740023
v -0.00822284725 0.0595851876 -0.276574463
v -0.00572645152 0.0559948906 -0.280751288
v -0.00457498524 0.0645529926 -0.279842436
v 0.000289783464 0.0655900761 -0.280740023
v 0.000638618483 0.0546243861 -0.282406956
v 0.0051545524 0.0645529553 -0.279842436
v 0.00631429674 0.0561129376 -0.280751139
v 0.00876749028 0.0606908202 -0.275489181
v 0.00630453089 -0.00345485681 -0.212839782
v 0.00885610562 0.00638395315 -0.229500949
v 0.00885601062 -0.00748579018 -0.217497498
v 0.000144748687 -0.00178520195 -0.210910529
v 0.000144767764 -0.015654983 -0.198907122
v -0.00601497618 -0.0173246469 -0.20083639
v 0.00630458817 -0.0173246562 -0.200836405
v 7.23819394E-05 -0.0295721237 -0.186958402
v 0.00623217318 -0.0312418137 -0.1888877
v 0.00885599107 -0.0213556103 -0.205494076
v 0.00878362264 -0.0352727734 -0.193545416
v -0.00856647454 -0.0213556103 -0.205494076
v -0.0086388588 -0.0352727771 -0.193545416
v -0.00608739862 -0.0393037349 -0.198203117
v -0.00608739723 -0.0312418174 -0.1888877
v 7.23799676E-05 -0.04097341 -0.2001324
v -0 -0.0444990918 -0.149950996
v -4.76837148E-09 -0.0434839055 -0.122823149
v 0.0107798101 -0.0353321917 -0.129222348
v 0.00379693997 -0.0413306504 -0.150830537
v 4.76837148E-09 -0.0254930798 -0.127817392
v -0 -0.0381622091 -0.151710138
v -0 -0.0381622091 -0.151710138
v 4.76837148E-09 -0.0254930798 -0.127817392
v -0.0107798101 -0.0353321694 -0.129222348
v -0.00379693997 -0.0413306504 -0.150830537
v -4.76837148E-09 -0.0434839055 -0.122823149
v -0 -0.0444990918 -0.149950996
v -0 -0.0381622091 -0.151710138
v -0.00379693997 -0.0413306504 -0.150830537
v 0.00379693997 -0.0413306504 -0.150830537
v -0 -0.0444990918 -0.149950996
v -3.98217031E-18 -0.0325168893 -0.118956655
v -1.95602655E-18 -0.0159721691 -0.168745786
v 0.00477324007 -0.0219956301 -0.167062432
v 0.00477324007 -0.0350129865 -0.127888396
v -8.87589695E-18 -0.0724771991 -0.152954653
v 0.00477324007 -0.0664537251 -0.154637963
v -6.84975403E-18 -0.0559324883 -0.202743739
v 0.00477324007 -0.0534363799 -0.193812042
v -0.00477324007 -0.0534363799 -0.193812042
v -0.00477324007 -0.0664537251 -0.154637963
v -8.87589695E-18 -0.0724771991 -0.152954653
v -6.84975403E-18 -0.0559324883 -0.202743739
v -0.00477324007 -0.0219956301 -0.167062432
v -1.95602655E-18 -0.0159721691 -0.168745786
v -0.00477324007 -0.0350129865 -0.127888396
v -3.98217031E-18 -0.0325168893 -0.118956655
v -6.23838484E-18 -0.0509402789 -0.184880316
v -7.40057897E-18 -0.0604303107 -0.156321317
v -0.00477324007 -0.0664537251 -0.154637963
v -0.00477324007 -0.0534363799 -0.193812042
v -3.43134763E-18 -0.0280190799 -0.165379122
v -0.00477324007 -0.0219956301 -0.167062432
v -4.59354115E-18 -0.0375091098 -0.136820123
v -0.00477324007 -0.0350129865 -0.127888396
v 0.00477324007 -0.0350129865 -0.127888396
v 0.00477324007 -0.0219956301 -0.167062432
v -3.43134763E-18 -0.0280190799 -0.165379122
v -4.59354115E-18 -0.0375091098 -0.136820123
v 0.00477324007 -0.0664537251 -0.154637963
v -7.40057897E-18 -0.0604303107 -0.156321317
v 0.00477324007 -0.0534363799 -0.193812042
v -6.23838484E-18 -0.0509402789 -0.184880316
v 7.23819394E-05 -0.0295721237 -0.186958402
v 0.000746809994 -0.0352614187 -0.177259415
v -0.00471689971 -0.0381743982 -0.182883278
v -0.00608739723 -0.0312418174 -0.1888877
v -0.00958971027 -0.0428439789 -0.186182916
v -0.0086388588 -0.0352727771 -0.193545416
v -0.00471689971 -0.0461640283 -0.192115143
v -0.00608739862 -0.0393037349 -0.198203117
v -0.00616450002 -0.0448661596 -0.173851222
v -0.0109212697 -0.0503497384 -0.179956034
v -0.00586875016 -0.056308277 -0.186585143
v -0.0109212697 -0.0503497384 -0.179956034
v -0.000457299961 -0.0515035465 -0.196026966
v 7.23799676E-05 -0.04097341 -0.2001324
v 0.00500640972 -0.0461640283 -0.192115143
v 0.00623215968 -0.0393037461 -0.198203146
v 0.00987922028 -0.0437606908 -0.18724218
v 0.00878362264 -0.0352727734 -0.193545416
v 0.00500640972 -0.0381743982 -0.182883278
v 0.00623217318 -0.0312418137 -0.1888877
v 0.00617321022 -0.056308277 -0.186585143
v 0.0112027293 -0.0508457869 -0.180503666
v 0.00646896008 -0.0448661596 -0.173851222
v 0.0112027293 -0.0508457869 -0.180503666
v 0.000746809994 -0.0352614187 -0.177259415
v 7.23819394E-05 -0.0295721237 -0.186958402
v -0.000446149992 -0.0570618175 -0.187366843
v 0.000791499973 -0.0439872593 -0.172931194
v 0.000144759993 -0.058789026 -0.179531306
v 0.000144759993 -0.0566426776 -0.174955189
v 0.0112027293 -0.0508457869 -0.180503666
v 0.000144759993 -0.0524220392 -0.172174275
v -0.0109212697 -0.0503497384 -0.179956034
v 0.000144759993 -0.0566426776 -0.174955189
v 0.000144759993 -0.0524220392 -0.172174275
v -0.00586875016 -0.056308277 -0.186585143
v 0.000144759993 -0.058789026 -0.179531306
v -0.000446149992 -0.0570618175 -0.187366843
v -0.000457299961 -0.0515035465 -0.196026966
v 0.000791499973 -0.0439872593 -0.172931194
v 6.78513219E-18 0.0554048084 -0.303093374
v 0.0052618999 0.0587744787 -0.29919973
v 0.0052618999 0.0725026429 -0.303759664
v 8.92438463E-18 0.0728731304 -0.308895588
v 5.77490272E-18 0.0471556596 -0.286638618
v 0.0052618999 0.0522915572 -0.286268145
v 6.48547072E-18 0.052957885 -0.269170284
v 0.0052618999 0.0568514913 -0.272539943
v 8.50059684E-18 0.0694126412 -0.260921061
v 0.0052618999 0.0697830692 -0.266057014
v 1.06398505E-17 0.0868809745 -0.266723365
v 0.0052618999 0.0835112482 -0.270616889
v 1.16500821E-17 0.0951301455 -0.28317818
v 0.0052618999 0.0899942443 -0.283548594
v 1.09395157E-17 0.089327924 -0.300646424
v 0.0052618999 0.0854343325 -0.297276735
v 9.81451451E-18 0.080141589 -0.274510562
v 8.59133442E-18 0.0701535717 -0.271192998
v 1.03921414E-17 0.0848582759 -0.283919036
v 9.9858567E-18 0.0815407038 -0.293907017
v 8.83364622E-18 0.0721322 -0.298623741
v 7.61046778E-18 0.0621441863 -0.295306146
v 7.03283184E-18 0.0574274287 -0.285897702
v 7.4391289E-18 0.0607451014 -0.275909632
v -0.0052618999 0.0587744787 -0.29919973
v 6.78513219E-18 0.0554048084 -0.303093374
v 8.92438463E-18 0.0728731304 -0.308895588
v -0.0052618999 0.0725026429 -0.303759664
v -0.0052618999 0.0522915572 -0.286268145
v 5.77490272E-18 0.0471556596 -0.286638618
v -0.0052618999 0.0568514913 -0.272539943
v 6.48547072E-18 0.052957885 -0.269170284
v -0.0052618999 0.0697830692 -0.266057014
v 8.50059684E-18 0.0694126412 -0.260921061
v -0.0052618999 0.0835112482 -0.270616889
v 1.06398505E-17 0.0868809745 -0.266723365
v -0.0052618999 0.0899942443 -0.283548594
v 1.16500821E-17 0.0951301455 -0.28317818
v -0.0052618999 0.0854343325 -0.297276735
v 1.09395157E-17 0.089327924 -0.300646424
v 8.83364622E-18 0.0721322 -0.298623741
v 9.9858567E-18 0.0815407038 -0.293907017
v 7.61046778E-18 0.0621441863 -0.295306146
v 7.03283184E-18 0.0574274287 -0.285897702
v 7.4391289E-18 0.0607451014 -0.275909632
v 8.59133442E-18 0.0701535717 -0.271192998
v 9.81451451E-18 0.080141589 -0.274510562
v 1.03921414E-17 0.0848582759 -0.283919036
v -0.039195545 0.142616153 -0.318846136
v -0.0301158987 0.14170523 -0.341726333
v -0.025960004 0.152801737 -0.300739527
v -0.00364481728 0.162076414 -0.305513144
v 0.00543483254 0.161165476 -0.3283934
v -0.00780071458 0.150979891 -0.346499979
v -0.039195545 0.142616153 -0.318846136
v -0.0174436048 0.11654605 -0.313749492
v -0.0119059859 0.111729234 -0.327358246
v -0.0301158987 0.14170523 -0.341726333
v -0.0065884334 0.0920885354 -0.2976138
v -0.00658842828 0.0877016783 -0.303829283
v -0.00780071458 0.150979891 -0.346499979
v 0.00313495658 0.113300942 -0.330577642
v -0.025960004 0.152801737 -0.300739527
v -0.00794028305 0.122934565 -0.303360164
v -0 0.094281964 -0.294506073
v 3.45075901E-09 0.0855082572 -0.306937009
v -0.00780071458 0.150979891 -0.346499979
v 0.00313495658 0.113300942 -0.330577642
v 0.0126382839 0.119689472 -0.320188314
v 0.00543483254 0.161165476 -0.3283934
v 0.00710067153 0.12450628 -0.30657956
v -0.00364481728 0.162076414 -0.305513144
v -0.00794028305 0.122934565 -0.303360164
v -0.025960004 0.152801737 -0.300739527
v -0 0.094281964 -0.294506073
v 0.00658842968 0.0920885429 -0.2976138
v 0.00658843154 0.0877016783 -0.303829283
v 3.45075901E-09 0.0855082572 -0.306937009
v -0.00658842828 0.0877016783 -0.303829283
v -0.00987981074 0.0796115398 -0.300445169
v -5.17465315E-09 0.076322332 -0.305105418
v 3.45075901E-09 0.0855082572 -0.306937009
v -0.00987980887 0.086189948 -0.291124642
v -0.0065884334 0.0920885354 -0.2976138
v -0 0.094281964 -0.294506073
v 1.39710454E-18 0.0894791409 -0.286464393
v 9.19730377E-18 0.0751016885 -0.290280402
v 3.45075901E-09 0.0855082572 -0.306937009
v -5.17465315E-09 0.076322332 -0.305105418
v 0.00987980608 0.0796115324 -0.300445169
v 0.00658843154 0.0877016783 -0.303829283
v 0.00658842968 0.0920885429 -0.2976138
v 0.00987981353 0.0861899331 -0.291124642
v 1.39710454E-18 0.0894791409 -0.286464393
v -0 0.094281964 -0.294506073
v 9.19730377E-18 0.0751016885 -0.290280402
v 0.00615976844 0.0320700034 -0.304504991
v 0.00486165984 0.0388516895 -0.310844958
v 0.000602049986 0.0356880687 -0.315192431
v -3.95160082E-09 0.030059576 -0.30607602
v -0.00486165984 0.0388516895 -0.310844958
v -0.00615977403 0.0320700034 -0.304504991
v 0.0087112328 0.0369235948 -0.300712168
v 0.00871124025 0.0256293602 -0.286259085
v 0.00615978241 0.0304829702 -0.282466263
v 0.00615977682 0.0417771935 -0.296919376
v 0.00615977403 0.0207757521 -0.290051877
v 0.00973446015 0.0438551195 -0.308675736
v 2.77788621E-12 0.0324934088 -0.280895233
v -2.59915821E-14 0.0211990941 -0.26644206
v 0.00615978101 0.0191886555 -0.26801309
v 2.74623342E-13 0.043787621 -0.295348346
v -0.00628551003 0.0421634205 -0.316952944
v 0.000779839989 0.0401850231 -0.318475544
v 5.71777018E-18 0.0466891378 -0.320874393
v -0.00973446015 0.0429755487 -0.309363186
v -0.0087112328 0.0369235948 -0.300712168
v -0.00486165984 0.0465181582 -0.304854095
v -0.00615977077 0.0417771935 -0.296919376
v 0.00486165984 0.0465181582 -0.304854095
v 0.00871123932 0.0143350465 -0.271805882
v -6.30911745E-14 0.00990485121 -0.251988888
v 0.00615978241 0.00789441634 -0.253559917
v -0.000602049986 0.0512730666 -0.303013742
v 4.4647909E-13 -0.001389532 -0.237535834
v 0.0061597717 -0.00339996233 -0.239106879
v 1.21467847E-09 -0.0126837706 -0.223082647
v 0.00615977822 -0.0146942073 -0.224653676
v 7.91390675E-15 -0.0239780303 -0.208629504
v 0.00615977915 -0.0259884596 -0.210200548
v 0.00871122535 -0.00825355481 -0.242899686
v 0.00871123094 -0.0195478108 -0.228446484
v 0.00615976332 -0.0131071405 -0.246692479
v 0.00615976099 -0.0244014096 -0.232239276
v 0.00615977403 -0.00181278819 -0.261145532
v -3.95126687E-09 -0.00382321118 -0.262716562
v -3.95176958E-09 -0.0151175568 -0.248263523
v -0.00615977915 -0.00181277865 -0.261145532
v -0.00615976844 -0.0131071294 -0.246692494
v 0.00871124025 0.00304081175 -0.25735274
v -0.00615977868 0.00948146265 -0.275598705
v -0.00871123932 0.0143350707 -0.271805912
v -0.00871124025 0.00304082525 -0.25735274
v -0.00615977589 0.0191886723 -0.26801309
v -0.00615977636 0.00789442565 -0.253559917
v -0.00615977682 0.0304829758 -0.282466263
v 2.77788621E-12 0.0324934088 -0.280895233
v -2.59915821E-14 0.0211990941 -0.26644206
v -0.00871124025 0.025629364 -0.286259085
v -3.95130328E-09 0.00747102546 -0.277169704
v -0.00871122535 -0.00825353805 -0.242899686
v -0.00615976611 -0.00339995045 -0.239106879
v -0.00615977915 0.0207757559 -0.290051877
v 2.74623342E-13 0.043787621 -0.295348346
v -6.30911745E-14 0.00990485121 -0.251988888
v -3.95410771E-09 0.0187653229 -0.291622907
v -0.00871124025 -0.0195477903 -0.228446484
v -0.00615977403 -0.0146941924 -0.224653676
v -0.00871123653 -0.0308420602 -0.213993356
v -0.00615977403 -0.0259884596 -0.210200548
v 1.21467847E-09 -0.0126837706 -0.223082647
v 7.91390675E-15 -0.0239780303 -0.208629504
v -0.00874850061 -0.0420707501 -0.199488953
v -0.00623001205 -0.0469350554 -0.20329012
v -0.00615977636 -0.0356956609 -0.217786148
v -0.00616412796 -0.037227951 -0.195704624
v -0.00486165984 -0.0524902083 -0.195991725
v -0.00973446015 -0.0480883494 -0.190811127
v -0.000602059998 -0.0584839806 -0.198800176
v -8.39600762E-05 -0.048971422 -0.2048814
v -3.95133615E-09 -0.0377060883 -0.219357193
v 0.00486165984 -0.0524902083 -0.195991725
v -0.00601351028 -0.0613774396 -0.188608989
v 0.00602845009 -0.0613774396 -0.188608989
v -0.000590910029 -0.0622675866 -0.189230636
v -7.64806149E-18 -0.0624511614 -0.181209117
v 0.00608938327 -0.0469869748 -0.203330666
v 0.00615977077 -0.0356956609 -0.217786148
v -0.00486165984 -0.0428700373 -0.188474104
v 9.21429273E-06 -0.0352435 -0.19415389
v 0.000602049986 -0.0389270782 -0.183517665
v 0.00973446015 -0.0491921604 -0.191673711
v 0.00867375825 -0.0421441719 -0.199546337
v 0.00871123653 -0.0308420602 -0.213993356
v 0.00486165984 -0.0428700373 -0.188474104
v 0.00615527341 -0.0372798704 -0.195745185
v 9.21429273E-06 -0.0352435 -0.19415389
v 0.0063242102 -0.0476941466 -0.178321019
v 0.0110579794 -0.0548445769 -0.183695272
v 0.000602049986 -0.0389270782 -0.183517665
v 0.000646739965 -0.0466543175 -0.177587792
v -6.70919412E-18 -0.0547847301 -0.175218254
v -7.28205557E-18 -0.0594624989 -0.177132919
v 0.0110579794 -0.0548445769 -0.183695272
v 0.0110579794 -0.0548445769 -0.183695272
v -0.00601351028 -0.0613774396 -0.188608989
v -0.000590910029 -0.0622675866 -0.189230636
v -0.000602059998 -0.0584839806 -0.198800176
v -7.64806149E-18 -0.0624511614 -0.181209117
v -7.28205557E-18 -0.0594624989 -0.177132919
v -0.0110660298 -0.0542522073 -0.183253527
v -0.00630926015 -0.0476941466 -0.178321019
v -6.70919412E-18 -0.0547847301 -0.175218254
v 0.000646739965 -0.0466543175 -0.177587792
v -0.0110660298 -0.0542522073 -0.183253527
v -0.0110660298 -0.0542522073 -0.183253527
v 0.000779839989 0.0401850231 -0.318475544
v 0.00628757989 0.0421634577 -0.316952974
v 5.71777018E-18 0.0466891378 -0.320874393
v 6.29062998E-18 0.0513668917 -0.318959713
v 0.00843640044 0.0472078808 -0.313070953
v 6.65662886E-18 0.0543555021 -0.314883471
v 0.0062103495 0.0517059416 -0.309609324
v -0.000764309953 0.0536501221 -0.308113068
v 0.00615977263 0.00948144495 -0.275598705
v -0.0061597852 -0.0244013947 -0.232239276
v -1.52987951E-08 -0.0264118277 -0.233810306
v 4.4647909E-13 -0.001389532 -0.237535834
v -0.0084392 0.0466613695 -0.313491523
v 6.29062998E-18 0.0513668917 -0.318959713
v -0.00620828988 0.0517059416 -0.309609324
v 6.65662886E-18 0.0543555021 -0.314883471
v -0.000602049986 0.0512730666 -0.303013742
v -0.000764309953 0.0536501221 -0.308113068
v 4.52475529E-18 0.0369474292 -0.339018017
v 0.0052618999 0.0410047807 -0.335847467
v 0.0052618999 0.053595718 -0.342969596
v 6.48679214E-18 0.0529686771 -0.348080516
v 3.92215173E-18 0.0320268013 -0.321281195
v 0.0052618999 0.0371377096 -0.321908265
v 5.03197996E-18 0.0410892367 -0.305259973
v 0.0052618999 0.0442597903 -0.309317291
v 7.20410951E-18 0.0588260219 -0.300339252
v 0.0052618999 0.0581989624 -0.305450261
v 9.1661538E-18 0.0748473257 -0.309401691
v 0.0052618999 0.070789896 -0.3125723
v 9.76875984E-18 0.0797679797 -0.327138603
v 0.0052618999 0.0746569932 -0.326511532
v 8.6589341E-18 0.0707055628 -0.343159795
v 0.0052618999 0.0675349683 -0.339102477
v 8.17237902E-18 0.0667325407 -0.31574285
v 7.05052441E-18 0.0575718991 -0.31056118
v 8.51693862E-18 0.0695460811 -0.325884402
v 7.88235957E-18 0.0643643513 -0.33504501
v 6.64037517E-18 0.0542227775 -0.337858588
v 5.5185338E-18 0.0450622514 -0.332676828
v 5.17396634E-18 0.0422486402 -0.322535306
v 5.80854002E-18 0.047430329 -0.313374698
v -0.0052618999 0.0410047807 -0.335847467
v 4.52475529E-18 0.0369474292 -0.339018017
v 6.48679214E-18 0.0529686771 -0.348080516
v -0.0052618999 0.053595718 -0.342969596
v -0.0052618999 0.0371377096 -0.321908265
v 3.92215173E-18 0.0320268013 -0.321281195
v -0.0052618999 0.0442597903 -0.309317291
v 5.03197996E-18 0.0410892367 -0.305259973
v -0.0052618999 0.0581989624 -0.305450261
v 7.20410951E-18 0.0588260219 -0.300339252
v -0.0052618999 0.070789896 -0.3125723
v 9.1661538E-18 0.0748473257 -0.309401691
v -0.0052618999 0.0746569932 -0.326511532
v 9.76875984E-18 0.0797679797 -0.327138603
v -0.0052618999 0.0675349683 -0.339102477
v 8.6589341E-18 0.0707055628 -0.343159795
v 6.64037517E-18 0.0542227775 -0.337858588
v 7.88235957E-18 0.0643643513 -0.33504501
v 5.5185338E-18 0.0450622514 -0.332676828
v 5.17396634E-18 0.0422486402 -0.322535306
v 5.80854002E-18 0.047430329 -0.313374698
v 7.05052441E-18 0.0575718991 -0.31056118
v 8.17237902E-18 0.0667325407 -0.31574285
v 8.51693862E-18 0.0695460811 -0.325884402
v -0.0391955264 0.119483083 -0.371295512
v -0.0301158931 0.114176363 -0.393570423
v -0.0259599909 0.132969648 -0.355493397
v -0.00364482449 0.141149476 -0.361966193
v 0.00543481391 0.135842741 -0.384241134
v -0.00780072669 0.122356184 -0.400043249
v -0.0391955264 0.119483083 -0.371295512
v -0.0163602568 0.0971320122 -0.35821113
v -0.0146247614 0.0886692628 -0.371034265
v -0.0301158931 0.114176363 -0.393570423
v -0.00658842735 0.0739992186 -0.340716541
v -0.00658842269 0.0684959516 -0.34596923
v -0.00780072669 0.122356184 -0.400043249
v -0.000667168584 0.0872566476 -0.377534509
v -0.0259599909 0.132969648 -0.355493397
v -0.00413814513 0.104182161 -0.351888239
v -0 0.0767508522 -0.338090211
v 3.4507559E-09 0.0657443255 -0.34859556
v -0.00780072669 0.122356184 -0.400043249
v -0.000667168584 0.0872566476 -0.377534509
v 0.0115549322 0.0943067893 -0.371211618
v 0.00543481391 0.135842741 -0.384241134
v 0.0098194452 0.102769554 -0.358388484
v -0.00364482449 0.141149476 -0.361966193
v -0.00413814513 0.104182161 -0.351888239
v -0.0259599909 0.132969648 -0.355493397
v -0 0.0767508522 -0.338090211
v 0.00658842362 0.0739992186 -0.340716541
v 0.00658842549 0.068495959 -0.34596923
v 3.4507559E-09 0.0657443255 -0.34859556
v -0.00658842269 0.0684959516 -0.34596923
v -0.00987981819 0.0612103976 -0.341088325
v -5.17465626E-09 0.0570841208 -0.345026702
v 3.4507559E-09 0.0657443255 -0.34859556
v -0.00987981632 0.0694629401 -0.333211601
v -0.00658842735 0.0739992186 -0.340716541
v -0 0.0767508522 -0.338090211
v 1.39710516E-18 0.0735892057 -0.329273224
v 7.19428013E-18 0.0587457605 -0.330244601
v 3.4507559E-09 0.0657443255 -0.34859556
v -5.17465626E-09 0.0570841208 -0.345026702
v 0.0098798126 0.0612103865 -0.341088325
v 0.00658842549 0.068495959 -0.34596923
v 0.00658842362 0.0739992186 -0.340716541
v 0.00987982098 0.0694629326 -0.333211601
v 1.39710516E-18 0.0735892057 -0.329273224
v -0 0.0767508522 -0.338090211
v 7.19428013E-18 0.0587457605 -0.330244601
v 0.0631631911 0.0122359591 0.103897378
v 0.0407116301 -0.0164587442 0.107520416
v 0.0407116599 0.0409305915 0.100274354
v 0.0201570895 -0.00776244979 0.106422402
v 0.0201571397 0.0322342478 0.101372354
v 1.4984717E-18 0.0122359497 0.103897378
v -0.0201571099 0.0322342999 0.101372354
v 0.0289224852 0.0526268929 0.0987975374
v -0.0289224852 0.0526269078 0.0987975374
v -9.99999994E-09 0.0749015957 0.0959850848
v -0.0631631911 0.0122359199 0.103897378
v -0.0407116413 0.040930599 0.100274354
v -0.0407116674 -0.0164587144 0.107520416
v -0.0201571099 0.0322342999 0.101372354
v -0.0201571491 -0.00776238972 0.106422402
v 1.4984717E-18 0.0122359497 0.103897378
v 0.0201570895 -0.00776244979 0.106422402
v 0.0289224908 -0.0281550493 0.108997211
v -0.0289224945 -0.0281550083 0.108997211
v 9.99999994E-09 -0.0504297391 0.111809641
v 9.99999994E-09 -0.0513416268 0.104587324
v -0.0289224945 -0.0290669203 0.101774879
v -0.0289224945 -0.0281550083 0.108997211
v 9.99999994E-09 -0.0504297391 0.111809641
v -0.0201571491 -0.00776238972 0.106422402
v -0.0201571491 -0.00867429934 0.099200055
v -0.0407116674 -0.0173706152 0.100298069
v -0.0631631911 0.0113240192 0.0966750532
v -0.0631631911 0.0122359199 0.103897378
v -0.0407116674 -0.0164587144 0.107520416
v -0.0201571491 -0.00776238972 0.106422402
v -0.0201571491 -0.00867429934 0.099200055
v 0.0631631911 0.0113240397 0.0966750309
v 0.0407116301 -0.0173706543 0.100298077
v 0.0407116301 -0.0164587442 0.107520416
v 0.0631631911 0.0122359591 0.103897378
v 0.0201570895 -0.00776244979 0.106422402
v 0.0201570895 -0.00867434964 0.0992000774
v 0.0289224908 -0.0290669482 0.101774879
v 9.99999994E-09 -0.0513416268 0.104587324
v 9.99999994E-09 -0.0504297391 0.111809641
v 0.0289224908 -0.0281550493 0.108997211
v 0.0201570895 -0.00776244979 0.106422402
v 0.0201570895 -0.00867434964 0.0992000774
v -0.0631631911 0.0113240192 0.0966750532
v -0.0407116413 0.0400186963 0.0930519924
v -0.0407116413 0.040930599 0.100274354
v -0.0631631911 0.0122359199 0.103897378
v -0.0201571099 0.0322342999 0.101372354
v -0.0201571099 0.0313223787 0.0941500068
v -0.0289224852 0.0517150015 0.0915751979
v -9.99999994E-09 0.0739896819 0.0887627602
v -9.99999994E-09 0.0749015957 0.0959850848
v -0.0289224852 0.0526269078 0.0987975374
v -0.0201571099 0.0322342999 0.101372354
v -0.0201571099 0.0313223787 0.0941500068
v 9.99999994E-09 -0.0513416268 0.104587324
v 0.0289224908 -0.0290669482 0.101774879
v 0.0201570895 -0.00867434964 0.0992000774
v 1.38679487E-18 0.0113240397 0.0966750309
v -0.0289224945 -0.0290669203 0.101774879
v -0.0201571491 -0.00867429934 0.099200055
v -0.0201571099 0.0313223787 0.0941500068
v -0.0407116413 0.0400186963 0.0930519924
v -0.0407116674 -0.0173706152 0.100298069
v -0.0631631911 0.0113240192 0.0966750532
v 0.0407116301 -0.0173706543 0.100298077
v 0.0631631911 0.0113240397 0.0966750309
v 0.0407116599 0.0400186852 0.0930519924
v 0.0201571397 0.0313223489 0.0941500068
v 0.0201570895 -0.00867434964 0.0992000774
v -9.99999994E-09 0.0739896819 0.0887627602
v 0.0289224852 0.0517149828 0.0915751979
v 1.38679487E-18 0.0113240397 0.0966750309
v -0.0201571099 0.0313223787 0.0941500068
v -0.0289224852 0.0517150015 0.0915751979
v 0.0289224852 0.0517149828 0.0915751979
v 0.0289224852 0.0526268929 0.0987975374
v -9.99999994E-09 0.0749015957 0.0959850848
v -9.99999994E-09 0.0739896819 0.0887627602
v 0.0201571397 0.0313223489 0.0941500068
v 0.0201571397 0.0322342478 0.101372354
v 0.0631631911 0.0113240397 0.0966750309
v 0.0631631911 0.0122359591 0.103897378
v 0.0407116599 0.0409305915 0.100274354
v 0.0407116599 0.0400186852 0.0930519924
v 0.0201571397 0.0322342478 0.101372354
v 0.0201571397 0.0313223489 0.0941500068
v -4.42146442E-19 -0.0151466737 -0.127882272
v -0.0121891992 -0.0354556628 -0.129641086
v 0.0121891992 -0.0354557075 -0.12964122
v -8.21459004E-18 -0.0515324585 -0.116979323
v -0.0121891992 -0.00636052946 -0.0103921359
v -2.13045843E-17 -0.0249229502 -0.00634694938
v -8.21459004E-18 -0.0515324585 -0.116979323
v -0.0121891992 -0.0354556628 -0.129641086
v -4.42146442E-19 -0.0151466737 -0.127882272
v -1.39004195E-17 0.0122018894 -0.0144373076
v 0.0121891992 -0.0354557075 -0.12964122
v 0.0121891992 -0.00636052946 -0.0103921359
v -8.21459004E-18 -0.0515324585 -0.116979323
v -2.13045843E-17 -0.0249229502 -0.00634694938
v -0.0121891992 0.0113498466 0.0968796387
v -2.81626974E-17 0.0302298293 0.0944958702
v 0.0121891992 0.0113498466 0.0968796387
v -3.51332624E-17 -0.00753010157 0.0992635638
v -3.51332624E-17 -0.00753010157 0.0992635638
vt 0.682965994 0.413964987
vt 0.682648003 0.392529011
vt 0.652999997 0.389100999
vt 0.653617978 0.416099012
vt 0.624199986 0.397554994
vt 0.624318004 0.41881299
vt 0.713663995 0.411704987
vt 0.714393973 0.45529899
vt 0.744231999 0.452951998
vt 0.742691994 0.409000993
vt 0.683848023 0.457634985
vt 0.711156011 0.388004988
vt 0.774079978 0.450536996
vt 0.773277998 0.494729996
vt 0.744001985 0.496910006
vt 0.771784008 0.405553997
vt 0.739015996 0.387811989
vt 0.765201986 0.378805995
vt 0.714784026 0.499044001
vt 0.744026005 0.540763021
vt 0.714254022 0.542985022
vt 0.683669984 0.501408994
vt 0.653850019 0.459975988
vt 0.653060019 0.50384599
vt 0.623192012 0.462352008
vt 0.623030007 0.506183028
vt 0.683749974 0.54528302
vt 0.715076029 0.586758018
vt 0.684058011 0.589182019
vt 0.653778017 0.54766202
vt 0.653551996 0.591690004
vt 0.623236001 0.550136983
vt 0.623625994 0.594107985
vt 0.592483997 0.508427978
vt 0.592191994 0.55252701
vt 0.56269598 0.510619998
vt 0.563023984 0.554691017
vt 0.715053976 0.630721986
vt 0.744780004 0.628399014
vt 0.744231999 0.584580004
vt 0.684617996 0.633122027
vt 0.562705994 0.466488004
vt 0.533428013 0.46853599
vt 0.532898009 0.512928009
vt 0.591988027 0.464547992
vt 0.564207971 0.422481
vt 0.594107985 0.420978993
vt 0.774546027 0.62598902
vt 0.774778008 0.669723988
vt 0.745585978 0.672185004
vt 0.773465991 0.582332015
vt 0.77382803 0.538452029
vt 0.567081988 0.400927991
vt 0.539637983 0.396618009
vt 0.53432399 0.423393011
vt 0.597060025 0.397092998
vt 0.56734997 0.385248005
vt 0.546014011 0.382216007
vt 0.565774024 0.367547005
vt 0.593182027 0.385538012
vt 0.615429997 0.382970005
vt 0.610668004 0.364861995
vt 0.639919996 0.376015007
vt 0.587365985 0.363243997
vt 0.659151971 0.374572992
vt 0.681111991 0.377065003
vt 0.678067982 0.359102011
vt 0.699288011 0.354369015
vt 0.706863999 0.376511008
vt 0.722652018 0.355520993
vt 0.728734016 0.373236001
vt 0.752067983 0.365841001
vt 0.563437998 0.598719001
vt 0.533789992 0.556939006
vt 0.533671975 0.601101995
vt 0.593172014 0.596445024
vt 0.593262017 0.64053297
vt 0.624246001 0.638113022
vt 0.564131975 0.642700016
vt 0.594254017 0.684458017
vt 0.564391971 0.686582983
vt 0.534922004 0.644955993
vt 0.534528017 0.688763976
vt 0.654717982 0.635582983
vt 0.654821992 0.679754972
vt 0.685393989 0.677137017
vt 0.624805987 0.682201982
vt 0.716467977 0.67454201
vt 0.0891179964 0.317519993
vt 0.00353524089 0.323955536
vt 0.0152700003 0.29676199
vt 0.0886899978 0.296285003
vt 0.00197228231 0.270204246
vt 0.0882640034 0.275433004
vt 0.0882640034 0.265836507
vt 0.00197232701 0.254122317
vt 0.0152700003 0.296880007
vt 0.0886899978 0.296519995
vt 0.00353527069 0.3400051
vt 0.0891179964 0.327019513
vt 0.922360003 0.946563005
vt 0.887477994 0.926424026
vt 0.887477994 0.966702998
vt 0.852595985 0.946563005
vt 0.797118008 0.49673301
vt 0.980678022 0.533846974
vt 0.961108029 0.540444016
vt 0.816681981 0.511242986
vt 0.797092021 0.595732987
vt 0.816662014 0.589136004
vt 0.980651975 0.632847011
vt 0.961085975 0.618336976
vt 0.961085975 0.618336976
vt 0.816662014 0.589136004
vt 0.797092021 0.595732987
vt 0.980651975 0.632847011
vt 0.961108029 0.540444016
vt 0.980678022 0.533846974
vt 0.816681981 0.511242986
vt 0.797118008 0.49673301
vt 0.941522002 0.603827
vt 0.836232007 0.582539022
vt 0.816662014 0.589136004
vt 0.961085975 0.618336976
vt 0.941537976 0.547040999
vt 0.961108029 0.540444016
vt 0.836247981 0.525753021
vt 0.816681981 0.511242986
vt 0.816681981 0.511242986
vt 0.961108029 0.540444016
vt 0.941537976 0.547040999
vt 0.836247981 0.525753021
vt 0.816662014 0.589136004
vt 0.836232007 0.582539022
vt 0.961085975 0.618336976
vt 0.941522002 0.603827
vt 0.532721996 0.732403994
vt 0.526917994 0.760227978
vt 0.559265971 0.751919985
vt 0.562622011 0.730494022
vt 0.590749979 0.752377987
vt 0.592537999 0.728237987
vt 0.624275982 0.748117983
vt 0.624970019 0.72666198
vt 0.564516008 0.777164996
vt 0.596960008 0.772481024
vt 0.633862019 0.773756027
vt 0.596960008 0.772481024
vt 0.656592011 0.751645982
vt 0.656105995 0.723945022
vt 0.687521994 0.74239701
vt 0.686699986 0.721212983
vt 0.718190014 0.742339015
vt 0.717760026 0.718276978
vt 0.752708018 0.737478971
vt 0.748462021 0.71619302
vt 0.694746017 0.768290997
vt 0.72676003 0.762337029
vt 0.763300002 0.762288988
vt 0.72676003 0.762337029
vt 0.785318017 0.740306973
vt 0.778312027 0.712988973
vt 0.67473799 0.775368989
vt 0.783577979 0.765241981
vt 0.711763978 0.786807001
vt 0.735282004 0.788920999
vt 0.72676003 0.762337029
vt 0.756614029 0.783710003
vt 0.596960008 0.772481024
vt 0.604358017 0.799135983
vt 0.580947995 0.796790004
vt 0.633862019 0.773756027
vt 0.625989974 0.794106007
vt 0.652924001 0.777166009
vt 0.656592011 0.751645982
vt 0.542717993 0.783897996
vt 0.986057997 0.691278994
vt 0.964861989 0.690228999
vt 0.947528005 0.661594987
vt 0.964002013 0.654843986
vt 0.950125992 0.724840999
vt 0.936626017 0.716605008
vt 0.877255976 0.73586899
vt 0.879357994 0.725272
vt 0.810133994 0.717903972
vt 0.826605976 0.711152971
vt 0.788075984 0.681469023
vt 0.809271991 0.682519019
vt 0.824007988 0.647907019
vt 0.83750999 0.65614301
vt 0.896878004 0.636879027
vt 0.894778013 0.647476017
vt 0.830465972 0.683569014
vt 0.843078017 0.70440203
vt 0.851011992 0.664379001
vt 0.892678022 0.658074021
vt 0.931056023 0.668345988
vt 0.943668008 0.689179003
vt 0.923124015 0.708369017
vt 0.881457984 0.714673996
vt 0.964861989 0.690228999
vt 0.986057997 0.691278994
vt 0.964002013 0.654843986
vt 0.947528005 0.661594987
vt 0.936626017 0.716605008
vt 0.950125992 0.724840999
vt 0.879357994 0.725272
vt 0.877255976 0.73586899
vt 0.826605976 0.711152971
vt 0.810133994 0.717903972
vt 0.809271991 0.682519019
vt 0.788075984 0.681469023
vt 0.83750999 0.65614301
vt 0.824007988 0.647907019
vt 0.894778013 0.647476017
vt 0.896878004 0.636879027
vt 0.931056023 0.668345988
vt 0.892678022 0.658074021
vt 0.943668008 0.689179003
vt 0.923124015 0.708369017
vt 0.881457984 0.714673996
vt 0.843078017 0.70440203
vt 0.830465972 0.683569014
vt 0.851011992 0.664379001
vt 0.0531900004 0.533441007
vt 0.115014002 0.510415018
vt 0.0173599999 0.522755027
vt 0.00713799987 0.502529979
vt 0.0689600036 0.479501992
vt 0.104791999 0.490188986
vt 0.118384004 0.803689003
vt 0.0795999989 0.835250974
vt 0.0305240005 0.828634977
vt 0.0475319996 0.789460003
vt 0.0584320016 0.866340995
vt 0.0319500007 0.864664018
vt 0.00888799969 0.785916984
vt 0.00523799984 0.829482973
vt 0.148509994 0.815823972
vt 0.100008003 0.842583001
vt 0.0707340017 0.868270993
vt 0.0193240009 0.864808023
vt 0.150976002 0.79063499
vt 0.150897995 0.745971978
vt 0.126039997 0.745866001
vt 0.110480003 0.790134013
vt 0.0779620036 0.742440999
vt 0.0339480005 0.777622998
vt 0.054866001 0.737806022
vt 0.00190599996 0.765679002
vt 0.0823559985 0.707553029
vt 0.0953200012 0.708136976
vt 0.122344002 0.707503021
vt 0.134936005 0.706717014
vt 0.0319500007 0.864664018
vt 0.0284020007 0.874282002
vt 0.011802 0.875352979
vt 0.0193240009 0.864808023
vt 0.0577780008 0.875895977
vt 0.0584320016 0.866340995
vt 0.0707340017 0.868270993
vt 0.0731739998 0.878611028
vt 0.0397859998 0.889934003
vt 0.134936005 0.706717014
vt 0.139423996 0.696196973
vt 0.123438001 0.698036015
vt 0.122344002 0.707503021
vt 0.0953200012 0.708136976
vt 0.0935819969 0.698400021
vt 0.0771880001 0.696587026
vt 0.0823559985 0.707553029
vt 0.107837997 0.683283985
vt 0.682965994 0.413964987
vt 0.682648003 0.392529011
vt 0.652999997 0.389100999
vt 0.653617978 0.416099012
vt 0.624199986 0.397554994
vt 0.624318004 0.41881299
vt 0.713663995 0.411704987
vt 0.714393973 0.45529899
vt 0.744231999 0.452951998
vt 0.742691994 0.409000993
vt 0.683848023 0.457634985
vt 0.711156011 0.388004988
vt 0.774079978 0.450536996
vt 0.773277998 0.494729996
vt 0.744001985 0.496910006
vt 0.771784008 0.405553997
vt 0.615429997 0.382970005
vt 0.639919996 0.376015007
vt 0.610668004 0.364861995
vt 0.597060025 0.397092998
vt 0.594107985 0.420978993
vt 0.567081988 0.400927991
vt 0.564207971 0.422481
vt 0.739015996 0.387811989
vt 0.714784026 0.499044001
vt 0.77382803 0.538452029
vt 0.744026005 0.540763021
vt 0.765201986 0.378805995
vt 0.773465991 0.582332015
vt 0.744231999 0.584580004
vt 0.774546027 0.62598902
vt 0.744780004 0.628399014
vt 0.774778008 0.669723988
vt 0.745585978 0.672185004
vt 0.715076029 0.586758018
vt 0.715053976 0.630721986
vt 0.684058011 0.589182019
vt 0.684617996 0.633122027
vt 0.683749974 0.54528302
vt 0.653778017 0.54766202
vt 0.653551996 0.591690004
vt 0.623236001 0.550136983
vt 0.623625994 0.594107985
vt 0.714254022 0.542985022
vt 0.623030007 0.506183028
vt 0.592483997 0.508427978
vt 0.592191994 0.55252701
vt 0.56269598 0.510619998
vt 0.563023984 0.554691017
vt 0.562705994 0.466488004
vt 0.533428013 0.46853599
vt 0.532898009 0.512928009
vt 0.591988027 0.464547992
vt 0.653060019 0.50384599
vt 0.593172014 0.596445024
vt 0.563437998 0.598719001
vt 0.623192012 0.462352008
vt 0.53432399 0.423393011
vt 0.533789992 0.556939006
vt 0.653850019 0.459975988
vt 0.593262017 0.64053297
vt 0.564131975 0.642700016
vt 0.594254017 0.684458017
vt 0.564391971 0.686582983
vt 0.534922004 0.644955993
vt 0.534528017 0.688763976
vt 0.592537999 0.728237987
vt 0.624970019 0.72666198
vt 0.624805987 0.682201982
vt 0.562622011 0.730494022
vt 0.624275982 0.748117983
vt 0.590749979 0.752377987
vt 0.656592011 0.751645982
vt 0.656105995 0.723945022
vt 0.654821992 0.679754972
vt 0.687521994 0.74239701
vt 0.633862019 0.773756027
vt 0.694746017 0.768290997
vt 0.67473799 0.775368989
vt 0.711763978 0.786807001
vt 0.686699986 0.721212983
vt 0.685393989 0.677137017
vt 0.559265971 0.751919985
vt 0.532721996 0.732403994
vt 0.526917994 0.760227978
vt 0.718190014 0.742339015
vt 0.717760026 0.718276978
vt 0.716467977 0.67454201
vt 0.752708018 0.737478971
vt 0.748462021 0.71619302
vt 0.778312027 0.712988973
vt 0.763300002 0.762288988
vt 0.72676003 0.762337029
vt 0.785318017 0.740306973
vt 0.783577979 0.765241981
vt 0.756614029 0.783710003
vt 0.735282004 0.788920999
vt 0.72676003 0.762337029
vt 0.72676003 0.762337029
vt 0.633862019 0.773756027
vt 0.652924001 0.777166009
vt 0.656592011 0.751645982
vt 0.625989974 0.794106007
vt 0.604358017 0.799135983
vt 0.596960008 0.772481024
vt 0.564516008 0.777164996
vt 0.580947995 0.796790004
vt 0.542717993 0.783897996
vt 0.596960008 0.772481024
vt 0.596960008 0.772481024
vt 0.659151971 0.374572992
vt 0.681111991 0.377065003
vt 0.678067982 0.359102011
vt 0.699288011 0.354369015
vt 0.706863999 0.376511008
vt 0.722652018 0.355520993
vt 0.728734016 0.373236001
vt 0.752067983 0.365841001
vt 0.683669984 0.501408994
vt 0.624246001 0.638113022
vt 0.654717982 0.635582983
vt 0.533671975 0.601101995
vt 0.593182027 0.385538012
vt 0.587365985 0.363243997
vt 0.56734997 0.385248005
vt 0.565774024 0.367547005
vt 0.539637983 0.396618009
vt 0.546014011 0.382216007
vt 0.986057997 0.691278994
vt 0.964861989 0.690228999
vt 0.947528005 0.661594987
vt 0.964002013 0.654843986
vt 0.950125992 0.724840999
vt 0.936626017 0.716605008
vt 0.877255976 0.73586899
vt 0.879357994 0.725272
vt 0.810133994 0.717903972
vt 0.826605976 0.711152971
vt 0.788075984 0.681469023
vt 0.809271991 0.682519019
vt 0.824007988 0.647907019
vt 0.83750999 0.65614301
vt 0.896878004 0.636879027
vt 0.894778013 0.647476017
vt 0.830465972 0.683569014
vt 0.843078017 0.70440203
vt 0.851011992 0.664379001
vt 0.892678022 0.658074021
vt 0.931056023 0.668345988
vt 0.943668008 0.689179003
vt 0.923124015 0.708369017
vt 0.881457984 0.714673996
vt 0.964861989 0.690228999
vt 0.986057997 0.691278994
vt 0.964002013 0.654843986
vt 0.947528005 0.661594987
vt 0.936626017 0.716605008
vt 0.950125992 0.724840999
vt 0.879357994 0.725272
vt 0.877255976 0.73586899
vt 0.826605976 0.711152971
vt 0.810133994 0.717903972
vt 0.809271991 0.682519019
vt 0.788075984 0.681469023
vt 0.83750999 0.65614301
vt 0.824007988 0.647907019
vt 0.894778013 0.647476017
vt 0.896878004 0.636879027
vt 0.931056023 0.668345988
vt 0.892678022 0.658074021
vt 0.943668008 0.689179003
vt 0.923124015 0.708369017
vt 0.881457984 0.714673996
vt 0.843078017 0.70440203
vt 0.830465972 0.683569014
vt 0.851011992 0.664379001
vt 0.08495754 0.477951109
vt 0.133662075 0.459809542
vt 0.056727726 0.469531804
vt 0.0486744083 0.453598022
vt 0.0973806232 0.435457289
vt 0.125608742 0.443876594
vt 0.108014002 0.636276007
vt 0.0730660036 0.66485399
vt 0.0286619999 0.65891999
vt 0.0438899994 0.623477995
vt 0.0540440008 0.692988992
vt 0.0300939996 0.691498995
vt 0.00892999955 0.620312989
vt 0.00579999993 0.659711003
vt 0.135304004 0.647220016
vt 0.0915480033 0.67146498
vt 0.0651779994 0.694720984
vt 0.0186759997 0.691640019
vt 0.145618007 0.627313018
vt 0.145372003 0.586925983
vt 0.122893997 0.586854994
vt 0.108995996 0.626900017
vt 0.0794039965 0.583804011
vt 0.0397420004 0.615661979
vt 0.0585019998 0.579635024
vt 0.0107199997 0.604892015
vt 0.0832419991 0.552251995
vt 0.0949679986 0.552766979
vt 0.119401999 0.552168012
vt 0.130784005 0.551445007
vt 0.0300939996 0.691498995
vt 0.0269220006 0.700199008
vt 0.0119160004 0.701183021
vt 0.0186759997 0.691640019
vt 0.0534919985 0.701629996
vt 0.0540440008 0.692988992
vt 0.0651779994 0.694720984
vt 0.0674239993 0.704069018
vt 0.0372780003 0.714340985
vt 0.130784005 0.551445007
vt 0.134801999 0.541927993
vt 0.120353997 0.543605983
vt 0.119401999 0.552168012
vt 0.0949679986 0.552766979
vt 0.0933559984 0.543964028
vt 0.0785259977 0.542340994
vt 0.0832419991 0.552251995
vt 0.106190003 0.530282021
vt 0.975582004 0.840489984
vt 0.864500999 0.768941522
vt 0.864500999 0.912037492
vt 0.762805998 0.790624976
vt 0.762805998 0.890353978
vt 0.66307801 0.840489984
vt 0.563350022 0.890353978
vt 0.806172967 0.941200972
vt 0.51998198 0.941201508
vt 0.66307801 0.996740997
vt 0.975582004 0.840489984
vt 0.864500999 0.768941522
vt 0.864500999 0.912037492
vt 0.762805998 0.790624976
vt 0.762805998 0.890353978
vt 0.66307801 0.840489984
vt 0.563350022 0.890353978
vt 0.519983053 0.941201508
vt 0.806172967 0.941201508
vt 0.66307801 0.996740997
vt 0.936474025 0.487378001
vt 0.936474025 0.328342021
vt 0.87135601 0.328342021
vt 0.87135601 0.487378001
vt 0.87135601 0.225841001
vt 0.936474025 0.225841001
vt 0.936788023 0.328346014
vt 0.936788023 0.487360001
vt 0.871670008 0.487360001
vt 0.871670008 0.328346014
vt 0.871670008 0.225838006
vt 0.936788023 0.225838006
vt 0.87135601 0.487360001
vt 0.87135601 0.328346997
vt 0.936788023 0.328346997
vt 0.936788023 0.487360001
vt 0.936788023 0.225841001
vt 0.87135601 0.225841001
vt 0.87104398 0.328336
vt 0.87104398 0.487378001
vt 0.936474025 0.487378001
vt 0.936474025 0.328336
vt 0.936474025 0.225838006
vt 0.87104398 0.225838006
vt 0.936788023 0.487360001
vt 0.936788023 0.328345507
vt 0.871670008 0.328345507
vt 0.871670008 0.487360001
vt 0.871670008 0.225838006
vt 0.936788023 0.225838006
vt 0.936474025 0.328354478
vt 0.936474025 0.487378001
vt 0.87135601 0.487378001
vt 0.87135601 0.328354478
vt 0.87135601 0.225841001
vt 0.936474025 0.225841001
vt 0.66307801 0.996740997
vt 0.519983053 0.941201508
vt 0.563350022 0.890353978
vt 0.66307801 0.840489984
vt 0.806172967 0.941201508
vt 0.762805998 0.890353978
vt 0.762805998 0.790624976
vt 0.864500999 0.768941522
vt 0.864500999 0.912037492
vt 0.975582004 0.840489984
vt 0.864500999 0.768941522
vt 0.975582004 0.840489984
vt 0.864500999 0.912037492
vt 0.762805998 0.890353978
vt 0.762805998 0.790624976
vt 0.66307801 0.996740997
vt 0.806172967 0.941200972
vt 0.66307801 0.840489984
vt 0.563350022 0.890353978
vt 0.51998198 0.941201508
vt 0.87104398 0.328345507
vt 0.936474025 0.328345507
vt 0.936474025 0.487378001
vt 0.87104398 0.487378001
vt 0.87104398 0.225838006
vt 0.936474025 0.225838006
vt 0.87135601 0.487360001
vt 0.936788023 0.487360001
vt 0.936788023 0.328346997
vt 0.87135601 0.328346997
vt 0.936788023 0.225841001
vt 0.87135601 0.225841001
vt 0.0585368872 0.350178272
vt 0.00657343864 0.391824961
vt 0.106218338 0.393131554
vt 0.0542225838 0.435456812
vt 0.611507714 0.172923267
vt 0.535822451 0.172923267
vt 0.535822272 0.343058884
vt 0.611507535 0.353487968
vt 0.687407613 0.343064487
vt 0.687407851 0.172923267
vt 0.763307571 0.353488207
vt 0.763307691 0.172923267
vt 0.838992953 0.343058884
vt 0.838992953 0.172923267
vt 0.611506939 0.00651213527
vt 0.68740797 0.00651213527
vt 0.763308644 0.00651213527
vt 0.838992953 0.00651213527
vt 0.53582263 0.00651213527
vn -0.699080944 -0.454373568 -0.552114725
vn -0.677491903 -0.496299624 -0.542854965
vn -0.99960345 0.0114505319 -0.0257250462
vn -0.999774277 0.0199428145 -0.00732268812
vn -0.728744805 0.434139043 0.529579341
vn -0.713587046 0.472269803 0.517450154
vn -0.00675750477 -0.639532447 -0.768734396
vn -5.20551112E-07 -0.654398382 -0.756150007
vn 0.707106113 -0.462729335 -0.53467983
vn 0.713056266 -0.44782269 -0.539449275
vn -0.707105458 -0.462731272 -0.534678936
vn 0.0159977954 -0.641708732 -0.766781569
vn 1 2.00663703E-06 0
vn 1 -5.58332715E-07 -7.55638268E-07
vn 0.707105756 -0.462730169 -0.534679651
vn 0.999869943 0.00619055377 -0.0148897097
vn 0.730219901 -0.466152161 -0.499480784
vn 0.999896049 0.0139900418 0.00348550943
vn -0 -0.654397786 -0.756150484
vn 0.707107723 -0.462731063 -0.534676194
vn 1.36015524E-06 -0.654398918 -0.756149411
vn -0.707107365 -0.462728769 -0.534678578
vn -1 -1.08727943E-06 1.31816898E-06
vn -1 7.22054892E-07 7.47242836E-07
vn -0.707105756 0.462729484 0.534680128
vn -0.707105458 0.462730736 0.534679413
vn -0.707107365 -0.462727934 -0.534679353
vn -1.07468918E-06 -0.654399216 -0.756149292
vn -0.707107961 -0.462728024 -0.534678578
vn -1 1.71698184E-06 -2.13258386E-06
vn -1 2.22914059E-06 -1.25100564E-06
vn -0.707106471 0.462731481 0.534677446
vn -0.707107484 0.462730497 0.534677088
vn -6.2130357E-07 0.654398918 0.756149411
vn 7.80828543E-07 0.65439862 0.756149769
vn 0.707107842 0.462729216 0.534677625
vn 0.707107306 0.462727606 0.53467977
vn 0.000478736154 -0.652905762 -0.757438958
vn 0.707588077 -0.462416887 -0.534312308
vn 0.707107186 -0.462731242 -0.53467685
vn -0.707104623 -0.460615933 -0.536503494
vn 0.707106948 0.462730706 0.534677446
vn 1 2.00663703E-06 0
vn 1 -5.58332715E-07 -7.55638268E-07
vn -2.77068096E-07 0.654398799 0.75614965
vn 0.698484182 0.479000092 0.531675339
vn 0.00675202766 0.668912768 0.743310273
vn 0.999997914 -0.00117943855 0.00165309885
vn 0.999946833 0.00116711541 0.0102479318
vn 0.717013061 -0.44097954 -0.53984195
vn 1 -3.24505618E-06 4.78572304E-07
vn 1 -4.51285723E-06 -1.67920277E-07
vn 0.679037571 0.460045218 0.572072029
vn 0.999896049 0.0139900418 0.00348550943
vn 0.999869943 0.00619055377 -0.0148897097
vn -0.0150460554 0.666902602 0.744992971
vn 0.568516493 0.756914139 0.322288781
vn 0.923047185 0.300348669 -0.240363434
vn 0.507665157 0.592234075 -0.625727534
vn 0.021507483 0.966457844 0.255923063
vn -0.659775198 0.690511703 0.296463072
vn -0.51321739 0.699757934 -0.496937484
vn -0.913975358 0.296604425 -0.276902229
vn 0.00493645668 0.999976695 -0.0047192811
vn -0.913975358 0.296604425 -0.276902229
vn -0.568321049 -0.209021747 -0.795814753
vn -0.51321739 0.699757934 -0.496937484
vn -0.0061875321 0.147853598 -0.98898989
vn -0.0152767897 -0.113670334 -0.99340111
vn 0.507665157 0.592234075 -0.625727534
vn 0.661439657 -0.197421849 -0.723548353
vn 0.923047185 0.300348669 -0.240363434
vn 0.707104564 0.462729692 0.534681499
vn 1 -4.51285723E-06 -1.67920277E-07
vn 1 -3.24505618E-06 4.78572304E-07
vn -7.89224259E-07 0.654398263 0.756150007
vn 0.000480934978 0.652905107 0.757439494
vn -0.706625104 0.46304214 0.535044789
vn 0.707103133 0.460620373 0.536501527
vn -0.00927905925 0.685529053 0.727986038
vn 0.733896315 0.453577876 0.505631626
vn 0.999997914 -0.00117943855 0.00165309885
vn 0.999946833 0.00116711541 0.0102479318
vn -0.999997914 0.00180683995 -0.000926346751
vn -0.999952793 -0.00949212722 -0.00206430722
vn -0.733690917 -0.432943881 -0.523695707
vn -0.71902293 0.466136187 0.51548332
vn 0.00636193436 -0.617444575 -0.786588669
vn -7.20899266E-07 -0.999999523 -0.000977985444
vn -9.51652908E-07 -0.999536335 0.0304482281
vn 0.958456039 -0.0760110319 -0.274926066
vn 0.949323356 -0.0840695426 -0.302848905
vn 3.24732383E-07 0.878356934 -0.47800535
vn 3.27531723E-07 0.86269933 -0.505717158
vn 3.27531723E-07 0.86269933 -0.505717158
vn 3.24732383E-07 0.878356934 -0.47800535
vn -0.958456039 -0.0760103762 -0.274926245
vn -0.949323356 -0.0840696692 -0.302848846
vn -9.51652908E-07 -0.999536335 0.0304482281
vn -7.20899266E-07 -0.999999523 -0.000977985444
vn 3.27531723E-07 0.86269933 -0.505717158
vn -0.949323356 -0.0840696692 -0.302848846
vn 0.949323356 -0.0840695426 -0.302848905
vn -7.20899266E-07 -0.999999523 -0.000977985444
vn 0.889140487 0.123172566 0.440746725
vn 0.794934571 0.584306598 -0.163293675
vn 0.794934571 0.584306657 -0.163293526
vn 0.889140487 0.123173214 0.440746546
vn 0.794935346 -0.584306061 0.163291752
vn 0.794935346 -0.584305406 0.163294107
vn 0.889140427 -0.123173788 -0.440746605
vn 0.889140427 -0.123172767 -0.440746844
vn -0.889140427 -0.123172663 -0.440746933
vn -0.794935405 -0.584305346 0.163294181
vn -0.794935405 -0.584306002 0.163291827
vn -0.889140427 -0.123173617 -0.440746605
vn -0.794934571 0.584306657 -0.163293526
vn -0.794934571 0.584306598 -0.163293675
vn -0.889140487 0.123173214 0.440746546
vn -0.889140487 0.123172566 0.440746725
vn -0.889139891 0.123173729 0.440747619
vn -0.794934034 0.584307253 -0.163293689
vn -0.794934094 0.584307015 -0.163294494
vn -0.889139891 0.12317276 0.440747887
vn -0.794935048 -0.584305823 0.163294211
vn -0.794935048 -0.584306419 0.16329217
vn -0.889140546 -0.123172604 -0.440746665
vn -0.889140546 -0.123173609 -0.440746397
vn 0.889140666 -0.123174421 -0.44074592
vn 0.794934988 -0.584306479 0.163292125
vn 0.794934988 -0.584305882 0.163294151
vn 0.889140666 -0.123173416 -0.440746099
vn 0.794934332 0.584306777 -0.163293943
vn 0.794934392 0.584306955 -0.163293153
vn 0.889139891 0.12317276 0.440747887
vn 0.889139891 0.123173729 0.440747619
vn -0.00927905925 0.685529053 0.727986038
vn 0.0173105337 0.754296541 0.656305611
vn -0.727135658 0.527923226 0.438828975
vn -0.71902293 0.466136187 0.51548332
vn -0.996335864 0.0686630979 -0.050992772
vn -0.999952793 -0.00949212722 -0.00206430722
vn -0.780650437 -0.330246061 -0.530586898
vn -0.733690917 -0.432943881 -0.523695707
vn -0.651696265 0.189967304 0.734305382
vn -0.860988975 0.406433791 0.305793345
vn -0.827059388 -0.217854261 -0.518181682
vn -0.861738026 -0.224557474 -0.45495218
vn -0.0149627095 -0.547927558 -0.836391926
vn 0.00636193436 -0.617444575 -0.786588669
vn 0.728399992 -0.357670069 -0.584384739
vn 0.717013061 -0.44097954 -0.53984195
vn 0.99520272 0.0525892377 -0.082498312
vn 0.999946833 0.00116711541 0.0102479318
vn 0.778860569 0.488992155 0.392763138
vn 0.733896315 0.453577876 0.505631626
vn 0.648300111 -0.706609786 -0.28356573
vn 0.8474437 -0.274104834 -0.454649031
vn 0.709694326 0.157151058 0.686758757
vn 0.876161695 0.40791136 0.25680536
vn 0.0173105337 0.754296541 0.656305611
vn -0.00927905925 0.685529053 0.727986038
vn -0.00291204173 -0.911440015 -0.41142258
vn 0.00374812167 0.294840783 0.955539048
vn 0.0055337185 -0.975808442 0.218557239
vn 0.607874036 -0.592784584 0.52829504
vn 0.586987078 -0.60752821 0.535122097
vn -0.0063524046 -0.340458691 0.940238059
vn -0.587027431 -0.603127956 0.540032804
vn -0.608395457 -0.604019225 0.514796734
vn -0.0063524046 -0.340458691 0.940238059
vn -0.460463494 -0.887361109 0.0237386264
vn 0.0055337185 -0.975808442 0.218557239
vn -0.00291204173 -0.911440015 -0.41142258
vn -0.0149627095 -0.547927558 -0.836391926
vn 0.00374812167 0.294840783 0.955539048
vn 0.699416697 -0.467708975 -0.540430009
vn 0.955634832 -0.192757443 -0.222725525
vn 0.955634594 0.0211916417 -0.293791443
vn 0.69941622 0.0514209419 -0.712862432
vn 0.69941473 -0.712863922 -0.0514204018
vn 0.955634475 -0.293792009 -0.0211914256
vn 0.699414968 -0.540430844 0.467710704
vn 0.955634415 -0.222727358 0.192757338
vn 0.699415147 -0.0514195561 0.712863624
vn 0.955634475 -0.0211926941 0.29379189
vn 0.699414492 0.467713833 0.540428638
vn 0.955634356 0.192757249 0.222727746
vn 0.699414968 0.712863684 0.0514197126
vn 0.955634534 0.293791503 0.0211934485
vn 0.699415028 0.540429056 -0.467712581
vn 0.955634475 0.222725898 -0.192758679
vn 0.699418843 -0.467709213 -0.540427089
vn 0.699418247 0.0514193363 -0.712860525
vn 0.69941783 -0.712860823 -0.0514215901
vn 0.69941783 -0.540427804 0.467709929
vn 0.699416757 -0.0514200293 0.712862015
vn 0.699415207 0.467709899 0.540431082
vn 0.699415028 0.712863684 0.0514198579
vn 0.699415803 0.540428996 -0.467711538
vn -0.955634773 -0.192757532 -0.222725749
vn -0.699416935 -0.467708796 -0.54042989
vn -0.699417055 0.0514202304 -0.712861657
vn -0.955634892 0.0211910214 -0.293790549
vn -0.955634475 -0.29379198 -0.0211913735
vn -0.699415028 -0.712863684 -0.0514203161
vn -0.955634832 -0.222726837 0.192756012
vn -0.699415863 -0.540430605 0.467709631
vn -0.955634892 -0.0211920161 0.293790549
vn -0.699416041 -0.0514188483 0.71286279
vn -0.955634415 0.192757159 0.222727582
vn -0.699414492 0.467713833 0.540428638
vn -0.955634534 0.293791473 0.0211933404
vn -0.699414968 0.712863684 0.0514197126
vn -0.955634832 0.222725466 -0.192757532
vn -0.699415863 0.540428877 -0.467711508
vn -0.699416339 -0.0514200069 0.712862313
vn -0.699418068 -0.540427566 0.46770978
vn -0.699414968 0.467710167 0.540431261
vn -0.699415326 0.712863386 0.0514198467
vn -0.699415505 0.540429115 -0.467711836
vn -0.699417293 0.0514194332 -0.712861538
vn -0.699418545 -0.467709392 -0.540427208
vn -0.699418128 -0.712860465 -0.0514217727
vn -0.412107676 0.88915199 -0.198937297
vn -0.412106931 0.889152348 -0.198937312
vn -0.412107944 0.88915199 -0.198936686
vn -0.412107438 0.88915211 -0.198937193
vn -0.412106514 0.889152408 -0.198937744
vn -0.412103862 0.889153659 -0.198937699
vn -0.772327006 -0.574597657 0.270829499
vn -0.836674452 -0.474681377 0.273227781
vn -0.463446647 -0.598291636 -0.653654575
vn -0.443948269 -0.594029129 -0.670849681
vn -0.906278729 -0.138287812 0.399418861
vn -0.65557164 -0.596813083 -0.462644517
vn 0.450485915 -0.234658599 -0.861392915
vn 0.420233965 -0.364513814 -0.830983222
vn -0.216745898 -0.200328425 0.955452681
vn -0.188738599 -0.0579108074 0.980318367
vn -0.14514412 0.249536052 0.95742619
vn 0.257980585 -0.646673381 -0.717815816
vn 0.450485915 -0.234658599 -0.861392915
vn 0.420233965 -0.364513814 -0.830983222
vn 0.974102557 -0.00598483114 -0.22602728
vn 0.97729522 0.131509244 -0.166130632
vn 0.732870221 0.175117046 0.657446027
vn 0.653487563 0.158435687 0.7401703
vn -0.188738599 -0.0579108074 0.980318367
vn -0.216745898 -0.200328425 0.955452681
vn -0.14514412 0.249536052 0.95742619
vn 0.784080625 0.143238381 0.603904247
vn 0.929395139 -0.299120218 -0.21622172
vn 0.257980585 -0.646673381 -0.717815816
vn -0.791533053 0.067977719 -0.607333839
vn -0.855767667 -0.410279363 -0.315170616
vn -2.71523561E-07 -0.69518286 -0.71883291
vn 4.57134234E-07 -0.195541456 -0.980695426
vn -0.855766714 0.159527555 0.492152661
vn -0.791533411 0.595016956 0.139390439
vn 1.24079065E-06 0.858536422 0.512752593
vn 8.43664679E-07 0.444430351 0.895813406
vn -0 -0.817000866 0.576636493
vn 4.57134234E-07 -0.195541456 -0.980695426
vn -2.71523561E-07 -0.69518286 -0.71883291
vn 0.855767429 -0.410279363 -0.315171301
vn 0.79153347 0.0679773763 -0.607333362
vn 0.791533649 0.595016479 0.139390871
vn 0.855767131 0.159527287 0.492152035
vn 8.43664679E-07 0.444430351 0.895813406
vn 1.24079065E-06 0.858536422 0.512752593
vn -0 -0.817000866 0.576636493
vn 0.714821041 -0.539926291 -0.44442153
vn 0.735256791 -0.546166003 -0.40137285
vn 0.0119589614 -0.771944106 -0.635577917
vn -0.00751249772 -0.775537252 -0.631257176
vn -0.68453908 -0.585474968 -0.434310108
vn -0.700322151 -0.550888121 -0.453950644
vn 0.99978745 0.0066685481 -0.0195087027
vn 1 -3.86216016E-07 -4.78572019E-07
vn 0.707106709 0.557165921 0.435391903
vn 0.700958133 0.570717752 0.427713662
vn 0.707106531 -0.55716604 -0.435392141
vn 0.999734938 0.0228009671 -0.00319246156
vn 7.72432429E-07 0.787951589 0.6157372
vn -3.1065133E-07 0.787952065 0.615736604
vn 0.707107127 0.55716604 0.435391307
vn 0.00721186073 0.796731174 0.604290783
vn -0.676040828 -0.317835391 -0.664792895
vn 0.0152786309 -0.470503807 -0.882265687
vn -0.0821601748 0.1216406 -0.989167988
vn -0.999746442 -0.00153759029 -0.0224673618
vn -0.999789417 0.0172526147 -0.0111097498
vn -0.733623683 0.518734157 0.438988835
vn -0.715481997 0.559157968 0.418841004
vn 0.682728827 0.559604406 0.469812989
vn 1 -7.38847177E-07 -5.24749339E-07
vn -1.09148182E-07 0.7879498 0.615739524
vn 0.70710665 0.557164669 0.435393751
vn -0.0117914472 0.792978823 0.609135091
vn 6.21303514E-07 0.787949979 0.615739167
vn 0.707107663 0.557164013 0.435392916
vn 8.31204261E-07 0.787952542 0.615735948
vn 0.707106888 0.557166636 0.435390949
vn 0.00127661601 0.788564384 0.614950895
vn 0.708078504 0.556388497 0.434806526
vn 1 -1.87231228E-06 -1.10827455E-06
vn 1 -5.37344874E-07 -7.85027282E-07
vn 0.707105458 -0.557166159 -0.43539384
vn 0.707105875 -0.557166934 -0.435392022
vn 0.707107127 -0.557164788 -0.435392886
vn -8.56392717E-07 -0.787950099 -0.615739048
vn 5.70928933E-07 -0.787950218 -0.615738928
vn -0.707107842 -0.557164192 -0.435392529
vn -0.707106531 -0.557165146 -0.435393393
vn 1 2.09900477E-07 6.80077562E-07
vn -0.707107484 -0.557165802 -0.435390949
vn -1 2.43484038E-07 2.68672039E-07
vn -1 1.03270997E-06 1.29718455E-06
vn -0.707106948 0.5571661 0.435391307
vn -0.707106531 0.557164729 0.43539381
vn -0.707106352 0.557166398 0.435392022
vn 7.72432429E-07 0.787951589 0.6157372
vn -3.1065133E-07 0.787952065 0.615736604
vn -1 5.70927966E-07 2.01503994E-07
vn -1.73797184E-06 -0.787952125 -0.615736485
vn -1 -7.30451916E-07 -6.08709968E-07
vn -0.707107008 0.557164609 0.435393184
vn -0.707107842 -0.557165027 -0.435391337
vn 0.00721186073 0.796731174 0.604290783
vn -1.09148182E-07 0.7879498 0.615739524
vn -4.53384132E-07 -0.787951529 -0.615737259
vn -1 7.47244485E-07 2.09900136E-07
vn -0.707105756 0.557167351 0.435391665
vn -0.999999166 0.00124708714 -0.000321147847
vn -0.706376016 0.558618844 0.434715867
vn 8.31204261E-07 0.787952542 0.615735948
vn 0.00127661601 0.788564384 0.614950895
vn -0.999976575 -0.00643217051 0.00233765901
vn -0.736009359 -0.526007891 -0.426152408
vn -0.707586884 -0.556777179 -0.435109228
vn -0.716168642 0.561443627 0.414588362
vn -0.781688869 -0.425419718 -0.456048906
vn -0.996156096 0.0596363917 -0.0641608238
vn -0.0866713002 -0.673107922 -0.734447896
vn -0.0735801235 -0.764842033 -0.640002012
vn -0.000778298476 -0.788564384 -0.61495167
vn 0.75815022 -0.430744529 -0.48955828
vn -0.827060103 -0.313704818 -0.46643424
vn 0.648299456 -0.748034656 -0.141957685
vn -0.00291157374 -0.973678291 -0.227907911
vn 0.00553332176 -0.915332794 0.402660221
vn 0.712396801 -0.556967556 -0.426940322
vn 0.706381023 -0.558613658 -0.434714347
vn -0.72587949 0.605453432 0.326381743
vn -0.00455688778 0.816159904 0.577808142
vn 0.0169831868 0.867668808 0.496852517
vn 0.995399773 0.0345067941 -0.0893786177
vn 0.999968469 0.000718041847 0.00790625624
vn 0.999998689 -0.00162992242 2.1238824E-05
vn 0.779473841 0.554810584 0.290870816
vn 0.735916018 0.542651951 0.404915273
vn -0.00455688778 0.816159904 0.577808142
vn 0.709694266 0.286654681 0.643555045
vn 0.876161575 0.449782878 0.173309654
vn 0.0169831868 0.867668808 0.496852517
vn 0.00374772795 0.473597974 0.880733132
vn -0.00635145232 -0.152722701 0.988248706
vn 0.607874036 -0.479761153 0.632707179
vn 0.586987078 -0.4929111 0.642249763
vn 0.847442627 -0.356645703 -0.393249094
vn -0.460461706 -0.866122901 0.194437906
vn -0.00291157374 -0.973678291 -0.227907911
vn -0.0866713002 -0.673107922 -0.734447896
vn 0.00553332176 -0.915332794 0.402660221
vn -0.608394325 -0.493389904 0.621629059
vn -0.587025583 -0.487646788 0.646220982
vn -0.651694536 0.328027248 0.683880329
vn -0.00635145232 -0.152722701 0.988248706
vn 0.00374772795 0.473597974 0.880733132
vn -0.860988081 0.457782745 0.221663058
vn -0.861739397 -0.308085293 -0.403098702
vn 0.0152786309 -0.470503807 -0.882265687
vn 0.7385391 -0.224465296 -0.63574779
vn -0.0821601748 0.1216406 -0.989167988
vn 0.651071489 0.46246928 -0.601853907
vn 0.825545192 0.335311472 -0.453917801
vn 0.0855879337 0.927884281 -0.362912446
vn 0.676305652 0.720808864 0.151806623
vn -0.0147949494 0.964006782 0.265465796
vn 0.707106352 -0.557166636 -0.435391724
vn -0.707107186 -0.55716604 -0.435391217
vn 1.42731963E-07 -0.787952185 -0.615736425
vn 6.21303514E-07 0.787949979 0.615739167
vn -0.825967491 0.363797188 -0.430615067
vn -0.650819063 0.471368104 -0.595186234
vn -0.739022374 0.670512259 0.0652620718
vn 0.0855879337 0.927884281 -0.362912446
vn -0.0117914472 0.792978823 0.609135091
vn -0.0147949494 0.964006782 0.265465796
vn 0.69941318 -0.563164711 -0.440075725
vn 0.955634356 -0.232096285 -0.181367815
vn 0.955634058 -0.0358710885 -0.29236418
vn 0.699413359 -0.0870357305 -0.709398091
vn 0.69941318 -0.70939827 0.0870364457
vn 0.955634534 -0.29236266 0.0358709469
vn 0.699414432 -0.4400765 0.563162625
vn 0.955634415 -0.181368575 0.23209551
vn 0.699418783 0.0870351717 0.709392846
vn 0.95563525 0.0358693749 0.292360574
vn 0.699421048 0.563157916 0.440072
vn 0.955634952 0.232094511 0.181366831
vn 0.699418426 0.709393322 -0.0870343521
vn 0.955635011 0.292361438 -0.035868343
vn 0.699414015 0.440077275 -0.563162625
vn 0.955634475 0.181367785 -0.232095927
vn 0.699413419 -0.563162684 -0.44007796
vn 0.699413538 -0.0870363638 -0.709397852
vn 0.699415624 -0.709396243 0.0870333612
vn 0.69941926 -0.440073669 0.56315887
vn 0.699421823 0.0870352983 0.709389865
vn 0.699420214 0.563158929 0.44007206
vn 0.699416459 0.709395289 -0.0870340765
vn 0.699413896 0.4400765 -0.563163221
vn -0.955634475 -0.232096151 -0.181367576
vn -0.69941318 -0.563164711 -0.440075725
vn -0.699413359 -0.0870357305 -0.709398091
vn -0.955634117 -0.0358708873 -0.292364061
vn -0.955634177 -0.292363614 0.0358715653
vn -0.699412644 -0.709398627 0.0870368481
vn -0.955634058 -0.181369588 0.23209621
vn -0.699414015 -0.440077156 0.563162744
vn -0.955635071 0.035869386 0.292361021
vn -0.699418783 0.0870351717 0.709392846
vn -0.955634952 0.232094392 0.18136701
vn -0.699421048 0.563157916 0.44007203
vn -0.955634952 0.292361498 -0.0358685888
vn -0.699418008 0.70939368 -0.0870344788
vn -0.955634296 0.181368068 -0.23209627
vn -0.699413478 0.440077543 -0.563162863
vn -0.699421942 0.0870356783 0.709389687
vn -0.699420154 -0.440073073 0.563158214
vn -0.699420035 0.563158929 0.440072417
vn -0.699417353 0.709394515 -0.0870335698
vn -0.699415088 0.440075725 -0.563162446
vn -0.699414253 -0.0870363489 -0.709397137
vn -0.699413478 -0.563162863 -0.440077692
vn -0.699415863 -0.709395945 0.0870330036
vn -0.41210717 0.834088445 -0.366693586
vn -0.412107021 0.834088624 -0.366693318
vn -0.412106663 0.834088981 -0.366692841
vn -0.41210714 0.834088624 -0.366693079
vn -0.412107497 0.834088326 -0.366693497
vn -0.412106305 0.834088564 -0.366694242
vn -0.760717869 -0.489588261 0.426159263
vn -0.799941421 -0.324588269 0.504713953
vn -0.579645216 -0.698601902 -0.419483989
vn -0.488100171 -0.717024267 -0.497628868
vn -0.857531548 0.0324336812 0.513407886
vn -0.748171747 -0.611986518 -0.256342769
vn 0.397237867 -0.428416729 -0.811579466
vn 0.293778926 -0.573845983 -0.764457166
vn -0.166728228 0.012179588 0.985927701
vn -0.0313195772 0.195543662 0.980194747
vn -0.00811064709 0.450554222 0.892712235
vn 0.129236102 -0.795918286 -0.591449142
vn 0.397237867 -0.428416729 -0.811579466
vn 0.293778926 -0.573845983 -0.764457166
vn 0.936264098 -0.126331672 -0.327795476
vn 0.967413843 0.0667178109 -0.244252443
vn 0.826470613 0.267613977 0.495307028
vn 0.699984848 0.298388958 0.648833692
vn -0.0313195772 0.195543662 0.980194747
vn -0.166728228 0.012179588 0.985927701
vn -0.00811064709 0.450554222 0.892712235
vn 0.859578371 0.191544309 0.473746538
vn 0.877349794 -0.413854033 -0.242862359
vn 0.129236102 -0.795918286 -0.591449142
vn -0.79153204 -0.0504334532 -0.609043121
vn -0.855767488 -0.463362932 -0.230123535
vn -0 -0.820771754 -0.57125622
vn 3.26523974E-07 -0.381014824 -0.924568951
vn -0.855767548 0.251453519 0.452142626
vn -0.791532815 0.610730052 0.0220124517
vn 5.44207523E-07 0.941310823 0.337540984
vn 3.97589787E-07 0.608861804 0.79327631
vn -0 -0.690444291 0.723385632
vn 3.26523974E-07 -0.381014824 -0.924568951
vn -0 -0.820771754 -0.57125622
vn 0.85576719 -0.463363469 -0.23012346
vn 0.791532338 -0.0504333153 -0.609042704
vn 0.791533172 0.610729694 0.022012312
vn 0.855767846 0.251452893 0.452142537
vn 3.97589787E-07 0.608861804 0.79327631
vn 5.44207523E-07 0.941310823 0.337540984
vn -0 -0.690444291 0.723385632
vn -8.81189862E-07 0.125266984 0.992123067
vn 3.57860273E-07 0.125266984 0.992123067
vn -4.13760375E-07 0.125267014 0.992123067
vn 6.77185028E-07 0.125267118 0.992123067
vn -0 0.125267223 0.992123008
vn 1.17358049E-07 0.125267118 0.992123067
vn -2.27933214E-07 0.125267297 0.992123008
vn 1.17973364E-07 0.12526758 0.992123008
vn -0 0.12526764 0.992123008
vn -0 0.125267684 0.992123008
vn -0 0.125267044 0.992123067
vn -3.96717013E-07 0.125267014 0.992123067
vn 1.45193582E-07 0.125267059 0.992123067
vn -2.27933214E-07 0.125267297 0.992123008
vn 4.53672413E-07 0.125267074 0.992123067
vn 1.17358049E-07 0.125267118 0.992123067
vn 6.77185028E-07 0.125267118 0.992123067
vn 2.87717455E-07 0.125266999 0.992123067
vn 1.98358322E-07 0.125266954 0.992123067
vn -0 0.125266731 0.992123127
vn -5.40672204E-07 -0.992123127 0.125266373
vn -0.905474901 -0.421056807 0.053163249
vn -0.905475199 -0.421056271 0.0531631932
vn -5.7671781E-07 -0.992123127 0.125266373
vn -0.919852316 0.389174938 -0.0491381735
vn -0.919852316 0.389174938 -0.0491381809
vn -0.424399346 -0.898342788 0.113425925
vn -1 9.73208785E-07 -1.98246241E-07
vn -1 7.20895457E-07 -1.66707082E-07
vn -0.424399316 -0.898342848 0.113425933
vn 0.392265797 -0.912606299 0.115226999
vn 0.392265707 -0.912606299 0.115226999
vn 1 -7.56939016E-07 3.37919232E-07
vn 0.424401373 -0.898341715 0.113426819
vn 0.424401462 -0.898341715 0.113426819
vn 1 7.56939016E-07 1.4417887E-07
vn -0.392265141 -0.912606597 0.115227312
vn -0.392265111 -0.912606597 0.115227312
vn 0.905475199 -0.421056211 0.0531623885
vn -5.40672204E-07 -0.992123127 0.125266373
vn -5.7671781E-07 -0.992123127 0.125266373
vn 0.90547502 -0.421056718 0.0531624593
vn 0.919851065 0.389178008 -0.0491380468
vn 0.919851005 0.389178008 -0.0491380468
vn -1 9.73208785E-07 -1.98246241E-07
vn -0.424398959 0.898342848 -0.113426521
vn -0.424399137 0.898342848 -0.113426521
vn -1 7.20895457E-07 -1.66707082E-07
vn 0.392265916 0.91260612 -0.115228057
vn 0.392265886 0.91260612 -0.115228057
vn -0.905475438 0.421055675 -0.0531631261
vn 2.88358137E-07 0.992123008 -0.125267565
vn 2.88358535E-07 0.992123008 -0.125267565
vn -0.905475438 0.421055734 -0.0531631447
vn -0.919851959 -0.389175802 0.0491387658
vn -0.919851899 -0.389175832 0.0491387695
vn -0 -0.125267327 -0.992123008
vn -0 -0.125267342 -0.992123008
vn -0 -0.125267282 -0.992123008
vn -0 -0.125267297 -0.992123008
vn -0 -0.125267327 -0.992123008
vn -0 -0.125267342 -0.992123008
vn -0 -0.125267282 -0.992123008
vn -0 -0.125267327 -0.992123008
vn -0 -0.125267327 -0.992123008
vn -0 -0.125267327 -0.992123008
vn -0 -0.125267252 -0.992123008
vn -0 -0.125267252 -0.992123008
vn -0 -0.125267252 -0.992123008
vn -0 -0.125267267 -0.992123008
vn -0 -0.125267282 -0.992123008
vn -0 -0.125267252 -0.992123008
vn -0 -0.125267252 -0.992123008
vn -0 -0.125267297 -0.992123008
vn -0 -0.125267282 -0.992123008
vn -0 -0.125267252 -0.992123008
vn 0.905475259 0.421056032 -0.0531635396
vn 0.905474961 0.421056658 -0.0531636216
vn 2.88358535E-07 0.992123008 -0.125267565
vn 2.88358137E-07 0.992123008 -0.125267565
vn 0.919852436 -0.389174759 0.0491377749
vn 0.919852436 -0.3891747 0.0491377637
vn 1 -7.56939016E-07 3.37919232E-07
vn 1 7.56939016E-07 1.4417887E-07
vn 0.424398899 0.898342967 -0.113426253
vn 0.424398661 0.898343086 -0.113426253
vn -0.39226687 0.912605941 -0.115226306
vn -0.39226684 0.912605941 -0.115226291
vn -4.60568981E-06 0.0862831622 -0.996270657
vn -5.68139239E-06 -0.287352055 -0.957825065
vn -5.68139103E-06 -0.287352115 -0.957825005
vn -5.95640722E-06 -0.618730068 -0.785603642
vn -0.999851584 0.0168944821 -0.00337793026
vn 1.29758035E-07 -0.979667902 0.200626031
vn 2.66258326E-06 -0.971873462 0.235503495
vn -0.999660134 0.0253174957 -0.00621514302
vn 3.18499474E-06 0.971818507 -0.235730439
vn 3.54577111E-07 0.979501486 -0.201436847
vn 0.999660134 0.0253176372 -0.00621516956
vn 0.999851584 0.0168945063 -0.00337793515
vn 2.66258326E-06 -0.971873462 0.235503495
vn 1.29758035E-07 -0.979667902 0.200626031
vn -0.999836862 0.0178018231 -0.00306668831
vn -0 0.986612022 -0.163085312
vn 0.999836862 0.0178017933 -0.00306668505
vn -0 -0.986675918 0.162697881
vn -0 -0.986675918 0.162697881
g wp_013_004_002_Mesh_b_0
f 3/3/3 2/2/2 1/1/1
f 4/4/4 3/3/3 1/1/1
f 3/3/3 4/4/4 5/5/5
f 4/4/4 6/6/6 5/5/5
f 1/1/1 2/2/2 7/7/7
f 1/1/1 7/7/7 8/8/8
f 8/8/8 7/7/7 9/9/9
f 7/7/7 10/10/10 9/9/9
f 11/11/11 1/1/1 8/8/8
f 2/2/2 12/12/12 7/7/7
f 7/7/7 12/12/12 10/10/10
f 9/9/9 10/10/10 13/13/13
f 9/9/9 13/13/13 14/14/14
f 15/15/15 9/9/9 14/14/14
f 10/10/10 16/16/16 13/13/13
f 16/16/16 10/10/10 17/17/17
f 12/12/12 17/17/17 10/10/10
f 18/18/18 16/16/16 17/17/17
f 11/11/11 8/8/8 19/19/19
f 19/19/19 8/8/8 9/9/9
f 15/15/15 19/19/19 9/9/9
f 19/19/19 15/15/15 20/20/20
f 21/21/21 19/19/19 20/20/20
f 22/22/22 19/19/19 21/21/21
f 22/22/22 11/11/11 19/19/19
f 23/23/23 11/11/11 22/22/22
f 24/24/24 23/23/23 22/22/22
f 25/25/25 23/23/23 24/24/24
f 26/26/26 25/25/25 24/24/24
f 27/27/27 22/22/22 21/21/21
f 27/27/27 21/21/21 28/28/28
f 28/28/28 21/21/21 20/20/20
f 29/29/29 27/27/27 28/28/28
f 30/30/30 27/27/27 29/29/29
f 26/26/26 24/24/24 30/30/30
f 30/30/30 24/24/24 22/22/22
f 27/27/27 30/30/30 22/22/22
f 31/31/31 30/30/30 29/29/29
f 32/32/32 30/30/30 31/31/31
f 32/32/32 26/26/26 30/30/30
f 33/33/33 32/32/32 31/31/31
f 34/34/34 26/26/26 32/32/32
f 26/26/26 34/34/34 25/25/25
f 35/35/35 34/34/34 32/32/32
f 36/36/36 34/34/34 35/35/35
f 37/37/37 36/36/36 35/35/35
f 29/29/29 28/28/28 38/38/38
f 38/38/38 28/28/28 39/39/39
f 28/28/28 40/40/40 39/39/39
f 41/41/41 29/29/29 38/38/38
f 36/36/36 42/42/42 34/34/34
f 43/43/43 42/42/42 36/36/36
f 44/44/44 43/43/43 36/36/36
f 42/42/42 45/45/45 34/34/34
f 42/42/42 46/46/46 45/45/45
f 42/42/42 43/43/43 46/46/46
f 46/46/46 47/47/47 45/45/45
f 45/45/45 47/47/47 25/25/25
f 34/34/34 45/45/45 25/25/25
f 47/47/47 6/6/6 25/25/25
f 39/39/39 40/40/40 48/48/48
f 39/39/39 48/48/48 49/49/49
f 50/50/50 39/39/39 49/49/49
f 40/40/40 51/51/51 48/48/48
f 40/40/40 20/20/20 51/51/51
f 20/20/20 52/52/52 51/51/51
f 46/46/46 53/53/53 47/47/47
f 54/54/54 53/53/53 46/46/46
f 55/55/55 54/54/54 46/46/46
f 43/43/43 55/55/55 46/46/46
f 53/53/53 56/56/56 47/47/47
f 47/47/47 56/56/56 6/6/6
f 25/25/25 6/6/6 23/23/23
f 6/6/6 4/4/4 23/23/23
f 20/20/20 15/15/15 52/52/52
f 15/15/15 14/14/14 52/52/52
f 57/57/57 53/53/53 54/54/54
f 57/57/57 56/56/56 53/53/53
f 57/57/57 54/54/54 58/58/58
f 58/58/58 59/59/59 57/57/57
f 23/23/23 4/4/4 1/1/1
f 11/11/11 23/23/23 1/1/1
f 57/57/57 60/60/60 56/56/56
f 61/61/61 56/56/56 60/60/60
f 60/60/60 62/62/62 61/61/61
f 61/61/61 62/62/62 63/63/63
f 61/61/61 63/63/63 3/3/3
f 61/61/61 3/3/3 5/5/5
f 61/61/61 5/5/5 56/56/56
f 56/56/56 5/5/5 6/6/6
f 60/60/60 64/64/64 62/62/62
f 57/57/57 64/64/64 60/60/60
f 57/57/57 59/59/59 64/64/64
f 66/66/66 3/3/3 65/65/65
f 66/66/66 2/2/2 3/3/3
f 65/65/65 67/67/67 66/66/66
f 68/68/68 66/66/66 67/67/67
f 68/68/68 69/69/69 66/66/66
f 69/69/69 68/68/68 70/70/70
f 69/69/69 70/70/70 71/71/71
f 71/71/71 70/70/70 72/72/72
f 71/71/71 72/72/72 18/18/18
f 71/71/71 18/18/18 17/17/17
f 71/71/71 12/12/12 69/69/69
f 71/71/71 17/17/17 12/12/12
f 12/12/12 66/66/66 69/69/69
f 12/12/12 2/2/2 66/66/66
f 74/74/74 37/37/37 73/73/73
f 75/75/75 74/74/74 73/73/73
f 73/73/73 37/37/37 76/76/76
f 73/73/73 76/76/76 77/77/77
f 77/77/77 76/76/76 78/78/78
f 76/76/76 33/33/33 78/78/78
f 79/79/79 73/73/73 77/77/77
f 79/79/79 77/77/77 80/80/80
f 80/80/80 77/77/77 78/78/78
f 81/81/81 79/79/79 80/80/80
f 82/82/82 79/79/79 81/81/81
f 82/82/82 75/75/75 73/73/73
f 79/79/79 82/82/82 73/73/73
f 83/83/83 82/82/82 81/81/81
f 37/37/37 35/35/35 76/76/76
f 78/78/78 33/33/33 84/84/84
f 78/78/78 84/84/84 85/85/85
f 85/85/85 84/84/84 86/86/86
f 84/84/84 41/41/41 86/86/86
f 87/87/87 78/78/78 85/85/85
f 87/87/87 80/80/80 78/78/78
f 86/86/86 41/41/41 88/88/88
f 41/41/41 38/38/38 88/88/88
f 33/33/33 31/31/31 84/84/84
f 88/88/88 38/38/38 39/39/39
f 50/50/50 88/88/88 39/39/39
f 84/84/84 31/31/31 29/29/29
f 41/41/41 84/84/84 29/29/29
f 76/76/76 35/35/35 32/32/32
f 33/33/33 76/76/76 32/32/32
f 40/40/40 28/28/28 20/20/20
f 74/74/74 44/44/44 36/36/36
f 37/37/37 74/74/74 36/36/36
f 91/91/91 90/90/90 89/89/89
f 92/92/92 91/91/91 89/89/89
f 93/93/93 91/91/91 92/92/92
f 94/94/94 93/93/93 92/92/92
f 97/97/97 96/96/96 95/95/95
f 98/98/98 97/97/97 95/95/95
f 99/99/99 97/97/97 98/98/98
f 100/100/100 99/99/99 98/98/98
f 103/103/103 102/102/102 101/101/101
f 102/102/102 103/103/103 104/104/104
f 107/107/107 106/106/106 105/105/105
f 108/108/108 107/107/107 105/105/105
f 108/108/108 105/105/105 109/109/109
f 110/110/110 108/108/108 109/109/109
f 110/110/110 109/109/109 111/111/111
f 112/112/112 110/110/110 111/111/111
f 112/112/112 111/111/111 106/106/106
f 107/107/107 112/112/112 106/106/106
f 115/115/115 114/114/114 113/113/113
f 116/116/116 115/115/115 113/113/113
f 116/116/116 113/113/113 117/117/117
f 118/118/118 116/116/116 117/117/117
f 118/118/118 117/117/117 119/119/119
f 120/120/120 118/118/118 119/119/119
f 120/120/120 119/119/119 114/114/114
f 115/115/115 120/120/120 114/114/114
f 123/123/123 122/122/122 121/121/121
f 124/124/124 123/123/123 121/121/121
f 124/124/124 121/121/121 125/125/125
f 126/126/126 124/124/124 125/125/125
f 126/126/126 125/125/125 127/127/127
f 128/128/128 126/126/126 127/127/127
f 128/128/128 127/127/127 122/122/122
f 123/123/123 128/128/128 122/122/122
f 131/131/131 130/130/130 129/129/129
f 132/132/132 131/131/131 129/129/129
f 132/132/132 129/129/129 133/133/133
f 134/134/134 132/132/132 133/133/133
f 134/134/134 133/133/133 135/135/135
f 136/136/136 134/134/134 135/135/135
f 136/136/136 135/135/135 130/130/130
f 131/131/131 136/136/136 130/130/130
f 139/139/139 138/138/138 137/137/137
f 140/140/140 139/139/139 137/137/137
f 139/139/139 140/140/140 141/141/141
f 140/140/140 142/142/142 141/141/141
f 141/141/141 142/142/142 143/143/143
f 142/142/142 144/144/144 143/143/143
f 141/141/141 145/145/145 139/139/139
f 145/145/145 138/138/138 139/139/139
f 141/141/141 146/146/146 145/145/145
f 147/147/147 141/141/141 143/143/143
f 147/147/147 148/148/148 141/141/141
f 143/143/143 144/144/144 149/149/149
f 149/149/149 147/147/147 143/143/143
f 144/144/144 150/150/150 149/149/149
f 151/151/151 149/149/149 150/150/150
f 152/152/152 151/151/151 150/150/150
f 151/151/151 152/152/152 153/153/153
f 152/152/152 154/154/154 153/153/153
f 153/153/153 154/154/154 155/155/155
f 154/154/154 156/156/156 155/155/155
f 157/157/157 151/151/151 153/153/153
f 157/157/157 149/149/149 151/151/151
f 157/157/157 153/153/153 158/158/158
f 153/153/153 155/155/155 159/159/159
f 153/153/153 159/159/159 160/160/160
f 155/155/155 156/156/156 161/161/161
f 161/161/161 159/159/159 155/155/155
f 156/156/156 162/162/162 161/161/161
f 157/157/157 163/163/163 149/149/149
f 161/161/161 164/164/164 159/159/159
f 157/157/157 165/165/165 163/163/163
f 157/157/157 166/166/166 165/165/165
f 157/157/157 167/167/167 166/166/166
f 166/166/166 167/167/167 159/159/159
f 166/166/166 159/159/159 168/168/168
f 164/164/164 168/168/168 159/159/159
f 170/170/170 145/145/145 169/169/169
f 170/170/170 171/171/171 145/145/145
f 172/172/172 170/170/170 169/169/169
f 172/172/172 173/173/173 170/170/170
f 174/174/174 173/173/173 172/172/172
f 175/175/175 174/174/174 172/172/172
f 145/145/145 171/171/171 176/176/176
f 145/145/145 176/176/176 138/138/138
f 179/179/179 178/178/178 177/177/177
f 180/180/180 179/179/179 177/177/177
f 177/177/177 178/178/178 181/181/181
f 178/178/178 182/182/182 181/181/181
f 181/181/181 182/182/182 183/183/183
f 182/182/182 184/184/184 183/183/183
f 183/183/183 184/184/184 185/185/185
f 184/184/184 186/186/186 185/185/185
f 185/185/185 186/186/186 187/187/187
f 186/186/186 188/188/188 187/187/187
f 187/187/187 188/188/188 189/189/189
f 188/188/188 190/190/190 189/189/189
f 189/189/189 190/190/190 191/191/191
f 190/190/190 192/192/192 191/191/191
f 192/192/192 179/179/179 180/180/180
f 191/191/191 192/192/192 180/180/180
f 188/188/188 186/186/186 193/193/193
f 186/186/186 194/194/194 193/193/193
f 186/186/186 184/184/184 194/194/194
f 188/188/188 193/193/193 195/195/195
f 190/190/190 188/188/188 195/195/195
f 190/190/190 195/195/195 196/196/196
f 192/192/192 190/190/190 196/196/196
f 192/192/192 196/196/196 197/197/197
f 179/179/179 192/192/192 197/197/197
f 179/179/179 197/197/197 198/198/198
f 178/178/178 179/179/179 198/198/198
f 178/178/178 198/198/198 199/199/199
f 182/182/182 178/178/178 199/199/199
f 182/182/182 199/199/199 200/200/200
f 184/184/184 182/182/182 200/200/200
f 184/184/184 200/200/200 194/194/194
f 203/203/203 202/202/202 201/201/201
f 204/204/204 203/203/203 201/201/201
f 201/201/201 202/202/202 205/205/205
f 202/202/202 206/206/206 205/205/205
f 205/205/205 206/206/206 207/207/207
f 206/206/206 208/208/208 207/207/207
f 207/207/207 208/208/208 209/209/209
f 208/208/208 210/210/210 209/209/209
f 209/209/209 210/210/210 211/211/211
f 210/210/210 212/212/212 211/211/211
f 211/211/211 212/212/212 213/213/213
f 212/212/212 214/214/214 213/213/213
f 213/213/213 214/214/214 215/215/215
f 214/214/214 216/216/216 215/215/215
f 216/216/216 203/203/203 204/204/204
f 215/215/215 216/216/216 204/204/204
f 215/215/215 204/204/204 217/217/217
f 218/218/218 215/215/215 217/217/217
f 213/213/213 215/215/215 218/218/218
f 217/217/217 204/204/204 219/219/219
f 204/204/204 201/201/201 219/219/219
f 219/219/219 201/201/201 220/220/220
f 201/201/201 205/205/205 220/220/220
f 220/220/220 205/205/205 221/221/221
f 205/205/205 207/207/207 221/221/221
f 221/221/221 207/207/207 222/222/222
f 207/207/207 209/209/209 222/222/222
f 222/222/222 209/209/209 223/223/223
f 209/209/209 211/211/211 223/223/223
f 223/223/223 211/211/211 224/224/224
f 211/211/211 213/213/213 224/224/224
f 224/224/224 213/213/213 218/218/218
f 227/227/227 226/226/226 225/225/225
f 228/228/228 226/226/226 227/227/227
f 229/229/229 226/226/226 228/228/228
f 230/230/230 226/226/226 229/229/229
f 233/233/233 232/232/232 231/231/231
f 234/234/234 233/233/233 231/231/231
f 235/235/235 232/232/232 233/233/233
f 236/236/236 235/235/235 233/233/233
f 234/234/234 237/237/237 233/233/233
f 237/237/237 238/238/238 233/233/233
f 231/231/231 232/232/232 239/239/239
f 232/232/232 240/240/240 239/239/239
f 240/240/240 232/232/232 235/235/235
f 241/241/241 240/240/240 235/235/235
f 233/233/233 238/238/238 242/242/242
f 236/236/236 233/233/233 242/242/242
f 245/245/245 244/244/244 243/243/243
f 246/246/246 245/245/245 243/243/243
f 247/247/247 245/245/245 246/246/246
f 248/248/248 247/247/247 246/246/246
f 249/249/249 247/247/247 248/248/248
f 250/250/250 249/249/249 248/248/248
f 247/247/247 249/249/249 251/251/251
f 252/252/252 247/247/247 251/251/251
f 253/253/253 245/245/245 247/247/247
f 252/252/252 253/253/253 247/247/247
f 244/244/244 245/245/245 253/253/253
f 254/254/254 244/244/244 253/253/253
f 257/257/257 256/256/256 255/255/255
f 258/258/258 257/257/257 255/255/255
f 255/255/255 256/256/256 259/259/259
f 260/260/260 255/255/255 259/259/259
f 260/260/260 259/259/259 261/261/261
f 259/259/259 262/262/262 261/261/261
f 256/256/256 257/257/257 263/263/263
f 262/262/262 259/259/259 263/263/263
f 256/256/256 263/263/263 259/259/259
f 266/266/266 265/265/265 264/264/264
f 267/267/267 266/266/266 264/264/264
f 267/267/267 268/268/268 266/266/266
f 268/268/268 269/269/269 266/266/266
f 270/270/270 269/269/269 268/268/268
f 271/271/271 270/270/270 268/268/268
f 265/265/265 266/266/266 272/272/272
f 269/269/269 272/272/272 266/266/266
f 269/269/269 270/270/270 272/272/272
f 275/275/275 274/274/274 273/273/273
f 276/276/276 275/275/275 273/273/273
f 275/275/275 276/276/276 277/277/277
f 276/276/276 278/278/278 277/277/277
f 273/273/273 274/274/274 279/279/279
f 273/273/273 279/279/279 280/280/280
f 280/280/280 279/279/279 281/281/281
f 279/279/279 282/282/282 281/281/281
f 283/283/283 273/273/273 280/280/280
f 274/274/274 284/284/284 279/279/279
f 279/279/279 284/284/284 282/282/282
f 281/281/281 282/282/282 285/285/285
f 281/281/281 285/285/285 286/286/286
f 287/287/287 281/281/281 286/286/286
f 282/282/282 288/288/288 285/285/285
f 289/289/289 275/275/275 277/277/277
f 289/289/289 290/290/290 275/275/275
f 289/289/289 291/291/291 290/290/290
f 292/292/292 277/277/277 278/278/278
f 289/289/289 277/277/277 292/292/292
f 293/293/293 292/292/292 278/278/278
f 292/292/292 293/293/293 294/294/294
f 293/293/293 295/295/295 294/294/294
f 284/284/284 296/296/296 282/282/282
f 282/282/282 296/296/296 288/288/288
f 287/287/287 297/297/297 281/281/281
f 283/283/283 280/280/280 297/297/297
f 297/297/297 280/280/280 281/281/281
f 287/287/287 286/286/286 298/298/298
f 299/299/299 287/287/287 298/298/298
f 296/296/296 300/300/300 288/288/288
f 299/299/299 298/298/298 301/301/301
f 302/302/302 299/299/299 301/301/301
f 302/302/302 301/301/301 303/303/303
f 304/304/304 302/302/302 303/303/303
f 304/304/304 303/303/303 305/305/305
f 306/306/306 304/304/304 305/305/305
f 307/307/307 302/302/302 304/304/304
f 308/308/308 307/307/307 304/304/304
f 309/309/309 307/307/307 308/308/308
f 310/310/310 309/309/309 308/308/308
f 309/309/309 311/311/311 307/307/307
f 312/312/312 311/311/311 309/309/309
f 313/313/313 312/312/312 309/309/309
f 314/314/314 312/312/312 313/313/313
f 315/315/315 314/314/314 313/313/313
f 311/311/311 316/316/316 307/307/307
f 307/307/307 316/316/316 302/302/302
f 314/314/314 317/317/317 312/312/312
f 318/318/318 317/317/317 314/314/314
f 319/319/319 318/318/318 314/314/314
f 320/320/320 318/318/318 319/319/319
f 321/321/321 320/320/320 319/319/319
f 320/320/320 322/322/322 318/318/318
f 323/323/323 322/322/322 320/320/320
f 324/324/324 323/323/323 320/320/320
f 322/322/322 325/325/325 318/318/318
f 318/318/318 325/325/325 317/317/317
f 317/317/317 326/326/326 312/312/312
f 312/312/312 326/326/326 311/311/311
f 327/327/327 319/319/319 314/314/314
f 315/315/315 327/327/327 314/314/314
f 321/321/321 319/319/319 327/327/327
f 328/328/328 321/321/321 327/327/327
f 325/325/325 329/329/329 317/317/317
f 317/317/317 329/329/329 326/326/326
f 323/323/323 330/330/330 322/322/322
f 330/330/330 295/295/295 322/322/322
f 322/322/322 295/295/295 325/325/325
f 331/331/331 324/324/324 320/320/320
f 321/321/321 331/331/331 320/320/320
f 329/329/329 332/332/332 326/326/326
f 329/329/329 278/278/278 332/332/332
f 329/329/329 325/325/325 278/278/278
f 278/278/278 276/276/276 332/332/332
f 332/332/332 276/276/276 273/273/273
f 283/283/283 332/332/332 273/273/273
f 326/326/326 332/332/332 283/283/283
f 295/295/295 293/293/293 325/325/325
f 325/325/325 293/293/293 278/278/278
f 328/328/328 327/327/327 333/333/333
f 334/334/334 328/328/328 333/333/333
f 334/334/334 333/333/333 335/335/335
f 336/336/336 334/334/334 335/335/335
f 337/337/337 334/334/334 336/336/336
f 338/338/338 337/337/337 336/336/336
f 336/336/336 335/335/335 339/339/339
f 339/339/339 335/335/335 340/340/340
f 335/335/335 341/341/341 340/340/340
f 335/335/335 333/333/333 341/341/341
f 342/342/342 336/336/336 339/339/339
f 340/340/340 343/343/343 339/339/339
f 343/343/343 344/344/344 339/339/339
f 342/342/342 339/339/339 344/344/344
f 343/343/343 340/340/340 345/345/345
f 340/340/340 346/346/346 345/345/345
f 340/340/340 341/341/341 346/346/346
f 341/341/341 347/347/347 346/346/346
f 346/346/346 348/348/348 345/345/345
f 345/345/345 349/349/349 343/343/343
f 349/349/349 344/344/344 343/343/343
f 350/350/350 345/345/345 348/348/348
f 350/350/350 351/351/351 345/345/345
f 350/350/350 352/352/352 351/351/351
f 346/346/346 347/347/347 353/353/353
f 353/353/353 348/348/348 346/346/346
f 347/347/347 354/354/354 353/353/353
f 355/355/355 342/342/342 344/344/344
f 342/342/342 355/355/355 356/356/356
f 342/342/342 356/356/356 336/336/336
f 356/356/356 338/338/338 336/336/336
f 355/355/355 357/357/357 356/356/356
f 348/348/348 353/353/353 358/358/358
f 350/350/350 348/348/348 358/358/358
f 353/353/353 359/359/359 358/358/358
f 353/353/353 354/354/354 359/359/359
f 354/354/354 360/360/360 359/359/359
f 354/354/354 310/310/310 360/360/360
f 310/310/310 308/308/308 360/360/360
f 360/360/360 308/308/308 304/304/304
f 306/306/306 360/360/360 304/304/304
f 359/359/359 360/360/360 306/306/306
f 358/358/358 359/359/359 361/361/361
f 359/359/359 362/362/362 361/361/361
f 362/362/362 359/359/359 306/306/306
f 362/362/362 306/306/306 363/363/363
f 306/306/306 305/305/305 363/363/363
f 358/358/358 361/361/361 364/364/364
f 358/358/358 364/364/364 365/365/365
f 362/362/362 363/363/363 366/366/366
f 361/361/361 362/362/362 366/366/366
f 366/366/366 364/364/364 361/361/361
f 366/366/366 367/367/367 364/364/364
f 367/367/367 368/368/368 364/364/364
f 369/369/369 364/364/364 368/368/368
f 369/369/369 370/370/370 364/364/364
f 350/350/350 370/370/370 369/369/369
f 350/350/350 369/369/369 352/352/352
f 350/350/350 358/358/358 371/371/371
f 374/374/374 373/373/373 372/372/372
f 373/373/373 375/375/375 372/372/372
f 372/372/372 375/375/375 376/376/376
f 372/372/372 376/376/376 377/377/377
f 376/376/376 378/378/378 377/377/377
f 376/376/376 379/379/379 378/378/378
f 378/378/378 379/379/379 380/380/380
f 378/378/378 380/380/380 357/357/357
f 378/378/378 357/357/357 355/355/355
f 344/344/344 378/378/378 355/355/355
f 344/344/344 381/381/381 378/378/378
f 349/349/349 382/382/382 344/344/344
f 384/384/384 275/275/275 383/383/383
f 384/384/384 274/274/274 275/275/275
f 383/383/383 385/385/385 384/384/384
f 386/386/386 384/384/384 385/385/385
f 386/386/386 387/387/387 384/384/384
f 387/387/387 386/386/386 388/388/388
f 387/387/387 388/388/388 389/389/389
f 389/389/389 284/284/284 387/387/387
f 284/284/284 384/384/384 387/387/387
f 284/284/284 274/274/274 384/384/384
f 389/389/389 296/296/296 284/284/284
f 389/389/389 300/300/300 296/296/296
f 389/389/389 390/390/390 300/300/300
f 389/389/389 388/388/388 390/390/390
f 316/316/316 299/299/299 302/302/302
f 299/299/299 316/316/316 287/287/287
f 316/316/316 297/297/297 287/287/287
f 391/391/391 297/297/297 316/316/316
f 391/391/391 283/283/283 297/297/297
f 311/311/311 391/391/391 316/316/316
f 326/326/326 391/391/391 311/311/311
f 391/391/391 326/326/326 283/283/283
f 333/333/333 392/392/392 341/341/341
f 341/341/341 392/392/392 347/347/347
f 392/392/392 393/393/393 347/347/347
f 392/392/392 315/315/315 393/393/393
f 392/392/392 333/333/333 315/315/315
f 315/315/315 313/313/313 393/393/393
f 393/393/393 313/313/313 309/309/309
f 310/310/310 393/393/393 309/309/309
f 347/347/347 393/393/393 310/310/310
f 354/354/354 347/347/347 310/310/310
f 333/333/333 327/327/327 315/315/315
f 394/394/394 328/328/328 334/334/334
f 337/337/337 394/394/394 334/334/334
f 328/328/328 394/394/394 321/321/321
f 394/394/394 331/331/331 321/321/321
f 395/395/395 291/291/291 289/289/289
f 395/395/395 396/396/396 291/291/291
f 289/289/289 292/292/292 395/395/395
f 397/397/397 395/395/395 292/292/292
f 397/397/397 396/396/396 395/395/395
f 397/397/397 292/292/292 294/294/294
f 397/397/397 398/398/398 396/396/396
f 397/397/397 294/294/294 399/399/399
f 399/399/399 294/294/294 295/295/295
f 330/330/330 399/399/399 295/295/295
f 397/397/397 399/399/399 400/400/400
f 400/400/400 398/398/398 397/397/397
f 403/403/403 402/402/402 401/401/401
f 404/404/404 403/403/403 401/401/401
f 401/401/401 402/402/402 405/405/405
f 402/402/402 406/406/406 405/405/405
f 405/405/405 406/406/406 407/407/407
f 406/406/406 408/408/408 407/407/407
f 407/407/407 408/408/408 409/409/409
f 408/408/408 410/410/410 409/409/409
f 409/409/409 410/410/410 411/411/411
f 410/410/410 412/412/412 411/411/411
f 411/411/411 412/412/412 413/413/413
f 412/412/412 414/414/414 413/413/413
f 413/413/413 414/414/414 415/415/415
f 414/414/414 416/416/416 415/415/415
f 416/416/416 403/403/403 404/404/404
f 415/415/415 416/416/416 404/404/404
f 412/412/412 410/410/410 417/417/417
f 410/410/410 418/418/418 417/417/417
f 410/410/410 408/408/408 418/418/418
f 412/412/412 417/417/417 419/419/419
f 414/414/414 412/412/412 419/419/419
f 414/414/414 419/419/419 420/420/420
f 416/416/416 414/414/414 420/420/420
f 416/416/416 420/420/420 421/421/421
f 403/403/403 416/416/416 421/421/421
f 403/403/403 421/421/421 422/422/422
f 402/402/402 403/403/403 422/422/422
f 402/402/402 422/422/422 423/423/423
f 406/406/406 402/402/402 423/423/423
f 406/406/406 423/423/423 424/424/424
f 408/408/408 406/406/406 424/424/424
f 408/408/408 424/424/424 418/418/418
f 427/427/427 426/426/426 425/425/425
f 428/428/428 427/427/427 425/425/425
f 425/425/425 426/426/426 429/429/429
f 426/426/426 430/430/430 429/429/429
f 429/429/429 430/430/430 431/431/431
f 430/430/430 432/432/432 431/431/431
f 431/431/431 432/432/432 433/433/433
f 432/432/432 434/434/434 433/433/433
f 433/433/433 434/434/434 435/435/435
f 434/434/434 436/436/436 435/435/435
f 435/435/435 436/436/436 437/437/437
f 436/436/436 438/438/438 437/437/437
f 437/437/437 438/438/438 439/439/439
f 438/438/438 440/440/440 439/439/439
f 440/440/440 427/427/427 428/428/428
f 439/439/439 440/440/440 428/428/428
f 439/439/439 428/428/428 441/441/441
f 442/442/442 439/439/439 441/441/441
f 437/437/437 439/439/439 442/442/442
f 441/441/441 428/428/428 443/443/443
f 428/428/428 425/425/425 443/443/443
f 443/443/443 425/425/425 444/444/444
f 425/425/425 429/429/429 444/444/444
f 444/444/444 429/429/429 445/445/445
f 429/429/429 431/431/431 445/445/445
f 445/445/445 431/431/431 446/446/446
f 431/431/431 433/433/433 446/446/446
f 446/446/446 433/433/433 447/447/447
f 433/433/433 435/435/435 447/447/447
f 447/447/447 435/435/435 448/448/448
f 435/435/435 437/437/437 448/448/448
f 448/448/448 437/437/437 442/442/442
f 451/451/451 450/450/450 449/449/449
f 452/452/452 450/450/450 451/451/451
f 453/453/453 450/450/450 452/452/452
f 454/454/454 450/450/450 453/453/453
f 457/457/457 456/456/456 455/455/455
f 458/458/458 457/457/457 455/455/455
f 459/459/459 456/456/456 457/457/457
f 460/460/460 459/459/459 457/457/457
f 458/458/458 461/461/461 457/457/457
f 461/461/461 462/462/462 457/457/457
f 455/455/455 456/456/456 463/463/463
f 456/456/456 464/464/464 463/463/463
f 464/464/464 456/456/456 459/459/459
f 465/465/465 464/464/464 459/459/459
f 457/457/457 462/462/462 466/466/466
f 460/460/460 457/457/457 466/466/466
f 469/469/469 468/468/468 467/467/467
f 470/470/470 469/469/469 467/467/467
f 471/471/471 469/469/469 470/470/470
f 472/472/472 471/471/471 470/470/470
f 473/473/473 471/471/471 472/472/472
f 474/474/474 473/473/473 472/472/472
f 471/471/471 473/473/473 475/475/475
f 476/476/476 471/471/471 475/475/475
f 477/477/477 469/469/469 471/471/471
f 476/476/476 477/477/477 471/471/471
f 468/468/468 469/469/469 477/477/477
f 478/478/478 468/468/468 477/477/477
f 481/481/481 480/480/480 479/479/479
f 482/482/482 481/481/481 479/479/479
f 479/479/479 480/480/480 483/483/483
f 484/484/484 479/479/479 483/483/483
f 484/484/484 483/483/483 485/485/485
f 483/483/483 486/486/486 485/485/485
f 480/480/480 481/481/481 487/487/487
f 486/486/486 483/483/483 487/487/487
f 480/480/480 487/487/487 483/483/483
f 490/490/490 489/489/489 488/488/488
f 491/491/491 490/490/490 488/488/488
f 491/491/491 492/492/492 490/490/490
f 492/492/492 493/493/493 490/490/490
f 494/494/494 493/493/493 492/492/492
f 495/495/495 494/494/494 492/492/492
f 489/489/489 490/490/490 496/496/496
f 493/493/493 496/496/496 490/490/490
f 493/493/493 494/494/494 496/496/496
f 499/499/499 498/498/498 497/497/497
f 499/499/499 500/500/500 498/498/498
f 501/501/501 500/500/500 499/499/499
f 501/501/501 502/502/502 500/500/500
f 501/501/501 503/503/503 502/502/502
f 501/501/501 504/504/504 503/503/503
f 503/503/503 504/504/504 505/505/505
f 505/505/505 504/504/504 506/506/506
f 509/509/509 508/508/508 507/507/507
f 509/509/509 510/510/510 508/508/508
f 511/511/511 510/510/510 509/509/509
f 511/511/511 512/512/512 510/510/510
f 511/511/511 513/513/513 512/512/512
f 514/514/514 513/513/513 511/511/511
f 514/514/514 511/511/511 515/515/515
f 514/514/514 515/515/515 516/516/516
f 519/519/519 518/518/518 517/517/517
f 520/520/520 519/519/519 517/517/517
f 519/519/519 521/521/521 518/518/518
f 521/521/521 522/522/522 518/518/518
f 525/525/525 524/524/524 523/523/523
f 526/526/526 525/525/525 523/523/523
f 526/526/526 523/523/523 527/527/527
f 523/523/523 528/528/528 527/527/527
f 531/531/531 530/530/530 529/529/529
f 532/532/532 531/531/531 529/529/529
f 531/531/531 533/533/533 530/530/530
f 533/533/533 534/534/534 530/530/530
f 537/537/537 536/536/536 535/535/535
f 538/538/538 537/537/537 535/535/535
f 538/538/538 535/535/535 539/539/539
f 535/535/535 540/540/540 539/539/539
f 543/543/543 542/542/542 541/541/541
f 544/544/544 543/543/543 541/541/541
f 543/543/543 545/545/545 542/542/542
f 545/545/545 546/546/546 542/542/542
f 549/549/549 548/548/548 547/547/547
f 550/550/550 549/549/549 547/547/547
f 550/550/550 547/547/547 551/551/551
f 547/547/547 552/552/552 551/551/551
f 555/555/555 554/554/554 553/553/553
f 553/553/553 556/556/556 555/555/555
f 553/553/553 557/557/557 556/556/556
f 557/557/557 558/558/558 556/556/556
f 558/558/558 559/559/559 556/556/556
f 560/560/560 559/559/559 558/558/558
f 558/558/558 561/561/561 560/560/560
f 561/561/561 562/562/562 560/560/560
f 565/565/565 564/564/564 563/563/563
f 563/563/563 566/566/566 565/565/565
f 563/563/563 567/567/567 566/566/566
f 566/566/566 567/567/567 568/568/568
f 568/568/568 569/569/569 566/566/566
f 567/567/567 570/570/570 568/568/568
f 570/570/570 571/571/571 568/568/568
f 571/571/571 572/572/572 568/568/568
f 575/575/575 574/574/574 573/573/573
f 576/576/576 575/575/575 573/573/573
f 573/573/573 574/574/574 577/577/577
f 574/574/574 578/578/578 577/577/577
f 581/581/581 580/580/580 579/579/579
f 582/582/582 581/581/581 579/579/579
f 581/581/581 582/582/582 583/583/583
f 582/582/582 584/584/584 583/583/583
f 587/587/587 586/586/586 585/585/585
f 588/588/588 586/586/586 587/587/587
f 591/591/591 590/590/590 589/589/589
f 592/592/592 591/591/591 589/589/589
f 592/592/592 589/589/589 593/593/593
f 589/589/589 594/594/594 593/593/593
f 593/593/593 594/594/594 595/595/595
f 594/594/594 596/596/596 595/595/595
f 595/595/595 596/596/596 597/597/597
f 596/596/596 598/598/598 597/597/597
f 589/589/589 599/599/599 594/594/594
f 589/589/589 590/590/590 599/599/599
f 599/599/599 600/600/600 594/594/594
f 594/594/594 600/600/600 596/596/596
f 600/600/600 601/601/601 596/596/596
f 596/596/596 601/601/601 602/602/602
f 598/598/598 596/596/596 602/602/602
f 590/590/590 603/603/603 599/599/599
