g fd_md_00301_cd
v -300 -100 300
v -300 -100 -300
v 300 -100 -300
v 300 -100 300
v -298.199982 190 -300
v -298.199982 190 300
v 301.799988 190 300
v 301.799988 190 -300
vt 0.00573255774 0.133015305
vt 0.00573255774 0.995697498
vt 0.86841476 0.995697498
vt 0.86841476 0.133015305
vt 0.00676429272 0.132616863
vt 0.00676429272 0.993235707
vt 0.867383122 0.993235707
vt 0.867383122 0.132616863
vn -0 1 0
vn -0 1 0
vn -0 1 0
vn -0 1 0
vn -0 -1 0
vn -0 -1 0
vn -0 -1 0
vn -0 -1 0
g fd_md_00301_cd_0
f 3/3/3 2/2/2 1/1/1
f 4/4/4 3/3/3 1/1/1
f 7/7/7 6/6/6 5/5/5
f 8/8/8 7/7/7 5/5/5
