g md_under
v -6.72416363E-08 -10 -3.67635845E-24
v -70.9639435 -10 19.9153728
v -72.2286072 -10 2.85287817E-16
v -63.2370453 -10 40.4623337
v -40.3591156 -10 62.9200783
v -16.8288956 -10 88.5125656
v 16.8288841 -10 88.5125656
v 38.0936699 -10 62.2164536
v 62.4161568 -10 38.2418098
v 68.6934814 -10 22.0984917
v 72.2285767 -10 -1.16022274E-15
v 73.6693573 0 44.2729836
v 44.7159996 0 73.4295197
v 73.6693573 0 44.2729836
v 44.7159996 0 73.4295197
v 21.2673035 0 103.142265
v 21.2673035 0 103.142265
v -21.2673187 0 103.142265
v -21.2673187 0 103.142265
v -49.7021408 0 74.1010895
v 83.0069733 0 26.7035599
v 88.0432816 7.10542693E-16 -1.94301078E-15
v -87.9810791 7.26598072 25.052515
v -91.8663864 7.26598072 1.32532005E-15
v -88.0433121 2.70006236E-15 9.16384723E-16
v -85.3633499 0 24.137373
v -76.8413773 -0.300791621 47.1558723
v -76.7261658 7.26598072 47.2247887
v -87.9810791 7.26598072 25.052515
v -85.3633499 0 24.137373
v -49.7021408 0 74.1010895
v -49.3766289 7.26598072 74.1694489
v -76.7261658 7.26598072 47.2247887
v -76.8413773 -0.300791621 47.1558723
v -21.2673187 0 103.142265
v -22.9117527 7.26598072 103.576363
v -49.3766289 7.26598072 74.1694489
v -49.7021408 0 74.1010895
v 21.2673035 0 103.142265
v 22.9117374 7.26598072 103.576363
v -22.9117527 7.26598072 103.576363
v -21.2673187 0 103.142265
v 44.7159996 0 73.4295197
v 44.0319672 7.26598072 74.4282761
v 22.9117374 7.26598072 103.576363
v 21.2673035 0 103.142265
v 73.8668976 7.26598072 44.3590012
v 44.0319672 7.26598072 74.4282761
v 44.7159996 0 73.4295197
v 73.6693573 0 44.2729836
v 87.3701019 7.26598072 28.1071987
v 73.8668976 7.26598072 44.3590012
v 73.6693573 0 44.2729836
v 83.0069733 0 26.7035599
v 68.6934814 -10 22.0984917
v 83.0069733 0 26.7035599
v 72.2285767 -10 -1.16022274E-15
v 91.8663559 7.26598072 -1.52699108E-15
v 87.3701019 7.26598072 28.1071987
v 88.0432816 7.10542693E-16 -1.94301078E-15
v -49.7021408 0 74.1010895
v -76.8413773 -0.300791621 47.1558723
v -76.8413773 -0.300791621 47.1558723
v -85.3633499 0 24.137373
v -88.0433121 2.70006236E-15 9.16384723E-16
v -85.3633499 0 24.137373
v -6.72416363E-08 -10 -3.67635845E-24
v -72.2286072 -10 2.85287817E-16
v -70.9639435 -10 -19.9153728
v -63.2370453 -10 -40.4623337
v -40.3591156 -10 -62.9200783
v -16.8288956 -10 -88.5125656
v 16.8288841 -10 -88.5125656
v 38.0936699 -10 -62.2164536
v 62.4161568 -10 -38.2418098
v 68.6934814 -10 -22.0984917
v 72.2285767 -10 -1.16022274E-15
v 83.0069733 3.94592713E-15 -26.7035599
v 88.0432816 7.10542693E-16 -1.94301078E-15
v 75.8254395 9.4441768E-15 -46.1453438
v 83.0069733 3.94592713E-15 -26.7035599
v 46.8720779 1.51740633E-14 -75.3018799
v 75.8254395 9.4441768E-15 -46.1453438
v 46.8720779 1.51740633E-14 -75.3018799
v 21.2673035 -3.25443823E-15 -103.142265
v 21.2673035 -3.25443823E-15 -103.142265
v -21.2673187 5.12875824E-15 -103.142265
v -21.2673187 5.12875824E-15 -103.142265
v -47.0147095 9.25860713E-15 -74.1010895
v -47.0147095 9.25860713E-15 -74.1010895
v -74.1539459 -0.300791621 -47.1558723
v -74.1539459 -0.300791621 -47.1558723
v -85.3633499 3.60959406E-15 -24.137373
v -87.9810791 7.26598072 -25.052515
v -85.3633499 3.60959406E-15 -24.137373
v -88.0433121 2.70006236E-15 9.16384723E-16
v -91.8663864 7.26598072 1.32532005E-15
v -70.9639435 -10 -19.9153728
v -72.2286072 -10 2.85287817E-16
v -74.1539459 -0.300791621 -47.1558723
v -85.3633499 3.60959406E-15 -24.137373
v -87.9810791 7.26598072 -25.052515
v -74.0387344 7.26598072 -47.2247887
v -47.0147095 9.25860713E-15 -74.1010895
v -74.1539459 -0.300791621 -47.1558723
v -74.0387344 7.26598072 -47.2247887
v -46.6891975 7.26598072 -74.1694489
v -21.2673187 5.12875824E-15 -103.142265
v -47.0147095 9.25860713E-15 -74.1010895
v -46.6891975 7.26598072 -74.1694489
v -22.9117527 7.26598072 -103.576363
v 21.2673035 -3.25443823E-15 -103.142265
v -21.2673187 5.12875824E-15 -103.142265
v -22.9117527 7.26598072 -103.576363
v 22.9117374 7.26598072 -103.576363
v 46.8720779 1.51740633E-14 -75.3018799
v 21.2673035 -3.25443823E-15 -103.142265
v 22.9117374 7.26598072 -103.576363
v 46.1880455 7.26598072 -76.3006439
v 76.0229797 7.26598072 -46.2313652
v 75.8254395 9.4441768E-15 -46.1453438
v 46.8720779 1.51740633E-14 -75.3018799
v 46.1880455 7.26598072 -76.3006439
v 87.3701019 7.26598072 -28.1071987
v 83.0069733 3.94592713E-15 -26.7035599
v 75.8254395 9.4441768E-15 -46.1453438
v 91.8663559 7.26598072 -1.52699108E-15
v 83.0069733 3.94592713E-15 -26.7035599
v 88.0432816 7.10542693E-16 -1.94301078E-15
v 87.3701019 7.26598072 -28.1071987
v 75.8254395 9.4441768E-15 -46.1453438
v 76.0229797 7.26598072 -46.2313652
vt 0.676028311 0.348357737
vt 0.67602092 0.348355204
vt 0.676020503 0.348357737
vt 0.676022112 0.348352909
vt 0.67602396 0.348350972
vt 0.676026285 0.34834972
vt 0.676031768 0.348349452
vt 0.676034331 0.348350555
vt 0.676036596 0.348352492
vt 0.676038265 0.348354936
vt 0.676039279 0.348357737
vt 0.676037431 0.348351777
vt 0.676034927 0.34834969
vt 0.676037431 0.348351777
vt 0.676034927 0.34834969
vt 0.676032007 0.348348469
vt 0.676032007 0.348348469
vt 0.676025987 0.348348796
vt 0.676025987 0.348348796
vt 0.676023364 0.348350227
vt 0.6760391 0.348354638
vt 0.676040173 0.348357737
vt 0.676019132 0.348354608
vt 0.676018655 0.348357737
vt 0.676019549 0.348357737
vt 0.676020026 0.348354906
vt 0.676021338 0.348352373
vt 0.676020563 0.348351806
vt 0.676019132 0.348354608
vt 0.676020026 0.348354906
vt 0.676023364 0.348350227
vt 0.676022768 0.348349482
vt 0.676020563 0.348351806
vt 0.676021338 0.348352373
vt 0.676025987 0.348348796
vt 0.676025629 0.348347872
vt 0.676022768 0.348349482
vt 0.676023364 0.348350227
vt 0.676032007 0.348348469
vt 0.676032245 0.348347485
vt 0.676025629 0.348347872
vt 0.676025987 0.348348796
vt 0.676034927 0.34834969
vt 0.676035523 0.348348826
vt 0.676032245 0.348347485
vt 0.676032007 0.348348469
vt 0.676038265 0.348351091
vt 0.676035523 0.348348826
vt 0.676034927 0.34834969
vt 0.676037431 0.348351777
vt 0.676040232 0.348354191
vt 0.676038265 0.348351091
vt 0.676037431 0.348351777
vt 0.6760391 0.348354638
vt 0.676038265 0.348354936
vt 0.6760391 0.348354638
vt 0.676039279 0.348357737
vt 0.676041067 0.348357737
vt 0.676040232 0.348354191
vt 0.676040173 0.348357737
vt 0.676023364 0.348350227
vt 0.676021338 0.348352373
vt 0.676021338 0.348352373
vt 0.676020026 0.348354906
vt 0.676019549 0.348357737
vt 0.676020026 0.348354906
vt 0.676028311 0.348357737
vt 0.676020503 0.348357737
vt 0.67602092 0.348355204
vt 0.676022112 0.348352909
vt 0.67602396 0.348350972
vt 0.676026285 0.34834972
vt 0.676031768 0.348349452
vt 0.676034331 0.348350555
vt 0.676036596 0.348352492
vt 0.676038265 0.348354936
vt 0.676039279 0.348357737
vt 0.6760391 0.348354638
vt 0.676040173 0.348357737
vt 0.676037431 0.348351777
vt 0.6760391 0.348354638
vt 0.676034927 0.34834969
vt 0.676037431 0.348351777
vt 0.676034927 0.34834969
vt 0.676032007 0.348348469
vt 0.676032007 0.348348469
vt 0.676025987 0.348348796
vt 0.676025987 0.348348796
vt 0.676023364 0.348350227
vt 0.676023364 0.348350227
vt 0.676021338 0.348352373
vt 0.676021338 0.348352373
vt 0.676020026 0.348354906
vt 0.676019132 0.348354608
vt 0.676020026 0.348354906
vt 0.676019549 0.348357737
vt 0.676018655 0.348357737
vt 0.67602092 0.348355204
vt 0.676020503 0.348357737
vt 0.676021338 0.348352373
vt 0.676020026 0.348354906
vt 0.676019132 0.348354608
vt 0.676020563 0.348351806
vt 0.676023364 0.348350227
vt 0.676021338 0.348352373
vt 0.676020563 0.348351806
vt 0.676022768 0.348349482
vt 0.676025987 0.348348796
vt 0.676023364 0.348350227
vt 0.676022768 0.348349482
vt 0.676025629 0.348347872
vt 0.676032007 0.348348469
vt 0.676025987 0.348348796
vt 0.676025629 0.348347872
vt 0.676032245 0.348347485
vt 0.676034927 0.34834969
vt 0.676032007 0.348348469
vt 0.676032245 0.348347485
vt 0.676035523 0.348348826
vt 0.676038265 0.348351091
vt 0.676037431 0.348351777
vt 0.676034927 0.34834969
vt 0.676035523 0.348348826
vt 0.676040232 0.348354191
vt 0.6760391 0.348354638
vt 0.676037431 0.348351777
vt 0.676041067 0.348357737
vt 0.6760391 0.348354638
vt 0.676040173 0.348357737
vt 0.676040232 0.348354191
vt 0.676037431 0.348351777
vt 0.676038265 0.348351091
vn -0 1 0
vn 0.49130404 0.855722785 -0.162354231
vn 0.517065525 0.85594517 0.00106889976
vn 0.417303324 0.855147183 -0.307540506
vn 0.302534223 0.854439378 -0.422381848
vn 0.158390492 0.853869677 -0.495801389
vn -0.16039969 0.853875101 -0.495145649
vn -0.304246724 0.854448259 -0.421131879
vn -0.41855073 0.855156064 -0.305815846
vn -0.491961122 0.855728269 -0.160322621
vn -0.517065525 0.85594517 -0.00106836599
vn -0.646328628 0.674296856 -0.357187718
vn -0.5992167 0.532538354 -0.597781122
vn -0.593176663 0.545744836 -0.591864944
vn -0.605291605 0.639405906 -0.474112093
vn -0.657101095 0.554427981 -0.510712922
vn -0 0.581886411 -0.813270092
vn -0 0.581886411 -0.813270092
vn 0.581962109 0.598906755 -0.550118983
vn 0.55440408 0.64611423 -0.524568856
vn -0.672665358 0.730543017 -0.117593348
vn -0.681385994 0.731924236 0
vn 0.948881924 0.0495989732 -0.31170994
vn 0.99876678 0.0496465936 0.00030118163
vn 0.699467301 0.714664638 0
vn 0.702334702 0.707579136 -0.0778319091
vn 0.687367737 0.673547029 -0.271771848
vn 0.805058062 0.0494752415 -0.591129124
vn 0.948881924 0.0495989732 -0.31170994
vn 0.687385559 0.673525214 -0.271781027
vn 0.555447459 0.609457195 -0.565720797
vn 0.583004534 0.0493236221 -0.810970306
vn 0.805058062 0.0494752415 -0.591129124
vn 0.565184772 0.591126859 -0.575443566
vn 0.581962109 0.598906755 -0.550118983
vn 0.305593282 0.0492020808 -0.950890064
vn 0.583004534 0.0493236221 -0.810970306
vn 0.55440408 0.64611423 -0.524568856
vn -0 0.581886411 -0.813270092
vn -0.306156367 0.0492023416 -0.950708926
vn -0.000295428879 0.0491562411 -0.998791039
vn -0 0.581886411 -0.813270092
vn -0.605291605 0.639405906 -0.474112093
vn -0.583487213 0.0493239798 -0.810623109
vn -0.306156367 0.0492023416 -0.950708926
vn -0.657101095 0.554427981 -0.510712922
vn -0.805412054 0.0494754612 -0.590646803
vn -0.583487213 0.0493239798 -0.810623109
vn -0.5992167 0.532538354 -0.597781122
vn -0.593176663 0.545744836 -0.591864944
vn -0.949069381 0.0495989546 -0.31113866
vn -0.805412054 0.0494754612 -0.590646803
vn -0.646328628 0.674296856 -0.357187718
vn -0.65751785 0.657034636 -0.368748903
vn -0.491961122 0.855728269 -0.160322621
vn -0.672665358 0.730543017 -0.117593348
vn -0.517065525 0.85594517 -0.00106836599
vn -0.99876678 0.049646426 -0.000300165819
vn -0.949069381 0.0495989546 -0.31113866
vn -0.681385994 0.731924236 0
vn 0.555447459 0.609457195 -0.565720797
vn 0.565184772 0.591126859 -0.575443566
vn 0.687367737 0.673547029 -0.271771848
vn 0.687385559 0.673525214 -0.271781027
vn 0.699467301 0.714664638 0
vn 0.702334702 0.707579136 -0.0778319091
vn -0 1 0
vn 0.517065525 0.85594517 0.00106889976
vn 0.49130404 0.855722785 0.162354231
vn 0.417303324 0.855147183 0.307540506
vn 0.302534223 0.854439378 0.422381848
vn 0.158390492 0.853869677 0.495801389
vn -0.16039969 0.853875101 0.495145649
vn -0.304246724 0.854448259 0.421131879
vn -0.418550789 0.855156064 0.305815846
vn -0.491961122 0.855728269 0.160322621
vn -0.517065525 0.85594517 -0.00106836599
vn -0.672665358 0.730543017 0.117593355
vn -0.681385994 0.731924236 0
vn -0.662611306 0.692370415 0.285603791
vn -0.656764686 0.699431121 0.281879932
vn -0.558316708 0.614830852 0.557014763
vn -0.552108347 0.62584275 0.550905883
vn -0.55284071 0.679060638 0.482953191
vn -0.595507681 0.610885799 0.521717489
vn -0 0.581886411 0.813270092
vn -0 0.581886411 0.813270092
vn 0.620840788 0.565581799 0.542838693
vn 0.582092106 0.631349683 0.51241231
vn 0.59047097 0.538970232 0.60071218
vn 0.5856933 0.549367309 0.595952153
vn 0.690561593 0.641753376 0.33358261
vn 0.69843334 0.630147636 0.339271009
vn 0.948881924 0.0495989732 0.31170994
vn 0.702334702 0.707579076 0.0778318867
vn 0.699467301 0.714664638 0
vn 0.99876678 0.0496465936 0.00030118163
vn 0.49130404 0.855722785 0.162354231
vn 0.517065525 0.85594517 0.00106889976
vn 0.690561593 0.641753376 0.33358261
vn 0.69843334 0.630147636 0.339271009
vn 0.948881924 0.0495989732 0.31170994
vn 0.805058062 0.0494752415 0.591129124
vn 0.59047097 0.538970232 0.60071218
vn 0.5856933 0.549367309 0.595952153
vn 0.805058062 0.0494752415 0.591129124
vn 0.583004534 0.0493236221 0.810970306
vn 0.620840788 0.565581799 0.542838693
vn 0.582092106 0.631349683 0.51241231
vn 0.583004534 0.0493236221 0.810970306
vn 0.305593282 0.0492020808 0.950890064
vn -0 0.581886411 0.813270092
vn -0 0.581886411 0.813270092
vn -0.000295428879 0.0491562411 0.998791039
vn -0.306156367 0.0492023416 0.950708926
vn -0.55284071 0.679060638 0.482953191
vn -0.595507681 0.610885799 0.521717489
vn -0.306156367 0.0492023416 0.950708926
vn -0.583487153 0.0493239798 0.810623169
vn -0.805412054 0.0494754612 0.590646744
vn -0.552108347 0.62584275 0.550905883
vn -0.558316708 0.614830852 0.557014763
vn -0.583487153 0.0493239798 0.810623169
vn -0.949069381 0.0495989546 0.31113866
vn -0.656764686 0.699431121 0.281879932
vn -0.662611306 0.692370415 0.285603791
vn -0.99876678 0.049646426 -0.000300165819
vn -0.672665358 0.730543017 0.117593355
vn -0.681385994 0.731924236 0
vn -0.949069381 0.0495989546 0.31113866
vn -0.662611306 0.692370415 0.285603791
vn -0.805412054 0.0494754612 0.590646744
g md_under_0
f 3/3/3 2/2/2 1/1/1
f 2/2/2 4/4/4 1/1/1
f 4/4/4 5/5/5 1/1/1
f 5/5/5 6/6/6 1/1/1
f 6/6/6 7/7/7 1/1/1
f 7/7/7 8/8/8 1/1/1
f 8/8/8 9/9/9 1/1/1
f 9/9/9 10/10/10 1/1/1
f 10/10/10 11/11/11 1/1/1
f 10/10/10 9/9/9 12/12/12
f 9/9/9 8/8/8 13/13/13
f 14/14/14 9/9/9 13/13/13
f 15/15/15 8/8/8 7/7/7
f 16/16/16 15/15/15 7/7/7
f 17/17/17 7/7/7 6/6/6
f 18/18/18 17/17/17 6/6/6
f 19/19/19 6/6/6 5/5/5
f 20/20/20 19/19/19 5/5/5
f 22/22/22 11/11/11 21/21/21
f 25/25/25 24/24/24 23/23/23
f 26/26/26 25/25/25 23/23/23
f 29/29/29 28/28/28 27/27/27
f 30/30/30 29/29/29 27/27/27
f 33/33/33 32/32/32 31/31/31
f 34/34/34 33/33/33 31/31/31
f 37/37/37 36/36/36 35/35/35
f 38/38/38 37/37/37 35/35/35
f 41/41/41 40/40/40 39/39/39
f 42/42/42 41/41/41 39/39/39
f 45/45/45 44/44/44 43/43/43
f 46/46/46 45/45/45 43/43/43
f 49/49/49 48/48/48 47/47/47
f 50/50/50 49/49/49 47/47/47
f 53/53/53 52/52/52 51/51/51
f 54/54/54 53/53/53 51/51/51
f 54/54/54 55/55/55 53/53/53
f 57/57/57 55/55/55 56/56/56
f 56/56/56 59/59/59 58/58/58
f 60/60/60 56/56/56 58/58/58
f 61/61/61 5/5/5 4/4/4
f 62/62/62 61/61/61 4/4/4
f 63/63/63 4/4/4 2/2/2
f 64/64/64 63/63/63 2/2/2
f 2/2/2 3/3/3 65/65/65
f 66/66/66 2/2/2 65/65/65
f 69/69/69 68/68/68 67/67/67
f 70/70/70 69/69/69 67/67/67
f 71/71/71 70/70/70 67/67/67
f 72/72/72 71/71/71 67/67/67
f 73/73/73 72/72/72 67/67/67
f 74/74/74 73/73/73 67/67/67
f 75/75/75 74/74/74 67/67/67
f 76/76/76 75/75/75 67/67/67
f 77/77/77 76/76/76 67/67/67
f 76/76/76 77/77/77 78/78/78
f 77/77/77 79/79/79 78/78/78
f 75/75/75 76/76/76 80/80/80
f 76/76/76 81/81/81 80/80/80
f 74/74/74 75/75/75 82/82/82
f 75/75/75 83/83/83 82/82/82
f 74/74/74 84/84/84 73/73/73
f 84/84/84 85/85/85 73/73/73
f 73/73/73 86/86/86 72/72/72
f 86/86/86 87/87/87 72/72/72
f 72/72/72 88/88/88 71/71/71
f 88/88/88 89/89/89 71/71/71
f 71/71/71 90/90/90 70/70/70
f 90/90/90 91/91/91 70/70/70
f 70/70/70 92/92/92 69/69/69
f 92/92/92 93/93/93 69/69/69
f 96/96/96 95/95/95 94/94/94
f 97/97/97 96/96/96 94/94/94
f 98/98/98 95/95/95 96/96/96
f 99/99/99 98/98/98 96/96/96
f 102/102/102 101/101/101 100/100/100
f 103/103/103 102/102/102 100/100/100
f 106/106/106 105/105/105 104/104/104
f 107/107/107 106/106/106 104/104/104
f 110/110/110 109/109/109 108/108/108
f 111/111/111 110/110/110 108/108/108
f 114/114/114 113/113/113 112/112/112
f 115/115/115 114/114/114 112/112/112
f 118/118/118 117/117/117 116/116/116
f 119/119/119 118/118/118 116/116/116
f 122/122/122 121/121/121 120/120/120
f 123/123/123 122/122/122 120/120/120
f 126/126/126 125/125/125 124/124/124
f 124/124/124 128/128/128 127/127/127
f 128/128/128 129/129/129 127/127/127
f 132/132/132 131/131/131 130/130/130
