g Weapon
v -0.549068809 0.217474595 0.00787527021
v -0.561732054 0.20904915 0.0151310433
v -0.563540876 0.251194537 0.0180359781
v -0.551269412 0.256462991 0.00822567008
v -0.599223495 0.252482146 0.0281665586
v -0.59841311 0.202793658 0.0211562812
v -0.631675541 0.219234467 0.0216620043
v -0.632965624 0.252283007 0.0253915694
v -0.690997362 0.234553829 0.0423315056
v -0.690997362 0.206735 0.0324470401
v -0.598325193 0.192129925 0.0102270255
v -0.631675482 0.20579797 0.0086443359
v -0.690997303 0.193780482 0.0129099032
v -0.56119591 0.199067086 0.00854888372
v -0.574334741 0.305758029 0.00867134612
v -0.584312916 0.30927211 0.0169739537
v -0.614987612 0.317945808 0.0272256173
v -0.581015408 0.38952288 0.0508232191
v -0.532456398 0.365074903 0.0302583762
v -0.670330703 0.272249252 0.0376230404
v -0.650098026 0.313836485 0.0279126726
v -0.690985858 0.313756138 0.0622581281
v -0.668983281 0.356672287 0.0515978485
v -0.623725891 0.402184606 0.0481651165
v -0.593053818 0.519101322 0.0613936745
v -0.539849222 0.490518481 0.072712861
v -0.690997303 0.441667736 0.0858356282
v -0.690997243 0.561790705 0.10379114
v -0.576993883 0.581899643 0.0422249921
v -0.503949225 0.572042465 0.0748243779
v -0.526059985 0.626058757 0.0567334965
v -0.568533897 0.624788463 0.0134454817
v -0.690997124 0.66553539 0.0733269081
v -0.628292739 0.699964583 0.0214744806
v -0.690997124 0.725969851 0.0226448961
v -0.475151211 0.62434876 0.059823405
v -0.51424402 0.666857421 0.0174707174
v -0.459003747 0.664246142 0.0182328988
v -0.434644759 0.588399708 0.0569168366
v -0.430901289 0.531978607 0.0508060679
v -0.406600326 0.544705808 0.0157208722
v -0.411856949 0.615417898 0.016935043
v -0.44505024 0.457249701 0.0144768581
v -0.467483401 0.449867249 0.0428011753
v -0.516662657 0.366354436 0.0113714561
v -0.753701627 0.699964583 0.0214744918
v -0.813460529 0.624788523 0.0134455236
v -0.805000663 0.581899643 0.0422250442
v -0.855934441 0.626058877 0.0567335486
v -0.878045261 0.572042525 0.0748244524
v -0.788940728 0.519101381 0.061393708
v -0.758268654 0.402184606 0.0481651314
v -0.800979137 0.38952297 0.0508232452
v -0.842145205 0.49051851 0.0727129132
v -0.849538267 0.365075022 0.0302584171
v -0.797681689 0.30927214 0.0169739816
v -0.768324792 0.319699824 0.0272256434
v -0.782771111 0.252482146 0.0272095706
v -0.818453729 0.251194596 0.019950062
v -0.820262671 0.209049195 0.0151310964
v -0.832925856 0.217474625 0.00787531119
v -0.830725133 0.256463051 0.00822569802
v -0.783581555 0.202793688 0.0211562961
v -0.750319123 0.219234467 0.0216620043
v -0.74902904 0.252283007 0.0253915954
v -0.783669412 0.192130044 0.0102270525
v -0.750319064 0.205798075 0.0086443508
v -0.820798695 0.199067086 0.00854892377
v -0.807659805 0.305758059 0.00867137313
v -0.733111799 0.313836515 0.0279126726
v -0.711663961 0.272249252 0.0376230404
v -0.713011205 0.356672287 0.0515978485
v -0.865331888 0.366354465 0.011371511
v -0.914511144 0.449867308 0.0428012609
v -0.936944246 0.45724982 0.0144769261
v -0.951093137 0.531978786 0.0508061498
v -0.97539413 0.544705927 0.0157209411
v -0.947349668 0.588399947 0.0569169186
v -0.970137537 0.615418077 0.0169351101
v -0.906843245 0.624348879 0.0598234944
v -0.92299062 0.664246202 0.0182329528
v -0.867750406 0.666857541 0.0174707584
v -0.690997303 0.259779483 0.0453245305
v -0.690997303 0.369646341 0.0592816919
v -0.554538012 0.262496799 -5.45369403E-08
v -0.552484095 0.224998578 -5.45369403E-08
v -0.549068809 0.217474595 0.00787527021
v -0.551269412 0.256462991 0.00822567008
v -0.576904655 0.309892565 -5.45369403E-08
v -0.574334741 0.305758029 0.00867134612
v -0.520658791 0.368693829 -5.45369403E-08
v -0.516662657 0.366354436 0.0113714561
v -0.450701624 0.457171023 -5.45369403E-08
v -0.44505024 0.457249701 0.0144768581
v -0.413989812 0.541566908 -5.45369403E-08
v -0.406600326 0.544705808 0.0157208722
v -0.56119591 0.199067086 0.00854888372
v -0.565950036 0.205355465 -5.45369403E-08
v -0.598325193 0.192129925 0.0102270255
v -0.601833522 0.198021993 -5.45369403E-08
v -0.631675482 0.20579797 0.0086443359
v -0.633885741 0.211180791 -5.45369403E-08
v -0.690997303 0.193780482 0.0129099032
v -0.690997124 0.199799404 -5.45369403E-08
v -0.419490069 0.611310482 -5.45369403E-08
v -0.411856949 0.615417898 0.016935043
v -0.465401977 0.659543276 -5.45369403E-08
v -0.459003747 0.664246142 0.0182328988
v -0.518840611 0.662934184 -5.45369403E-08
v -0.51424402 0.666857421 0.0174707174
v -0.572468817 0.620513737 -5.45369403E-08
v -0.568533897 0.624788463 0.0134454817
v -0.630558014 0.692115784 -5.45369403E-08
v -0.628292739 0.699964583 0.0214744806
v -0.690997124 0.717168093 -5.45369403E-08
v -0.690997124 0.725969851 0.0226448961
v -0.827456355 0.262496799 -5.45369403E-08
v -0.830725133 0.256463051 0.00822569802
v -0.832925856 0.217474625 0.00787531119
v -0.829510272 0.224998578 -5.45369403E-08
v -0.805089712 0.309892565 -5.45369403E-08
v -0.807659805 0.305758059 0.00867137313
v -0.861335576 0.368693829 -5.45369403E-08
v -0.865331888 0.366354465 0.011371511
v -0.931292772 0.457171023 -5.45369403E-08
v -0.936944246 0.45724982 0.0144769261
v -0.968004405 0.541566908 -5.45369403E-08
v -0.97539413 0.544705927 0.0157209411
v -0.820798695 0.199067086 0.00854892377
v -0.816044271 0.205355465 -5.45369403E-08
v -0.783669412 0.192130044 0.0102270525
v -0.780160785 0.198021993 -5.45369403E-08
v -0.750319064 0.205798075 0.0086443508
v -0.748108685 0.211180791 -5.45369403E-08
v -0.690997303 0.193780482 0.0129099032
v -0.690997124 0.199799404 -5.45369403E-08
v -0.962504268 0.611310482 -5.45369403E-08
v -0.970137537 0.615418077 0.0169351101
v -0.9165923 0.659543276 -5.45369403E-08
v -0.92299062 0.664246202 0.0182329528
v -0.863153756 0.662934184 -5.45369403E-08
v -0.867750406 0.666857541 0.0174707584
v -0.80952549 0.620513737 -5.45369403E-08
v -0.813460529 0.624788523 0.0134455236
v -0.751436353 0.692115784 -5.45369403E-08
v -0.753701627 0.699964583 0.0214744918
v -0.690997124 0.717168093 -5.45369403E-08
v -0.690997124 0.725969851 0.0226448961
v -0.549068809 0.217474595 -0.00787537917
v -0.551269412 0.256462991 -0.00822577905
v -0.563540876 0.251194537 -0.018036088
v -0.561732054 0.20904915 -0.0151311513
v -0.599223495 0.252482146 -0.0281666648
v -0.59841311 0.202793658 -0.0211563911
v -0.631675541 0.219234467 -0.0216620993
v -0.632965624 0.252283007 -0.0253916755
v -0.690997362 0.234553829 -0.0423316136
v -0.690997362 0.206735 -0.0324471332
v -0.598325193 0.192129925 -0.0102271354
v -0.631675482 0.20579797 -0.0086444458
v -0.690997303 0.193780482 -0.0129100122
v -0.56119591 0.199067086 -0.00854899269
v -0.574334741 0.305758029 -0.00867144112
v -0.584312916 0.30927211 -0.0169740636
v -0.614987612 0.317945808 -0.0272257272
v -0.581015408 0.38952288 -0.050823316
v -0.532456398 0.365074903 -0.0302584711
v -0.670330703 0.272249252 -0.0376231372
v -0.650098026 0.313836485 -0.0279127695
v -0.690985858 0.313756138 -0.0622582436
v -0.668983281 0.356672287 -0.0515979566
v -0.623725891 0.402184606 -0.0481652096
v -0.593053818 0.519101322 -0.061393775
v -0.539849222 0.490518481 -0.0727129653
v -0.690997303 0.441667736 -0.0858357251
v -0.690997243 0.561790705 -0.103791252
v -0.576993883 0.581899643 -0.0422251038
v -0.503949225 0.572042465 -0.0748244971
v -0.526059985 0.626058757 -0.0567336082
v -0.568533897 0.624788463 -0.0134455916
v -0.690997124 0.66553539 -0.0733270124
v -0.628292739 0.699964583 -0.0214745738
v -0.690997124 0.725969851 -0.0226449911
v -0.690997303 0.259779483 -0.0453246385
v -0.475151211 0.62434876 -0.0598235205
v -0.51424402 0.666857421 -0.0174708273
v -0.459003747 0.664246142 -0.0182329956
v -0.434644759 0.588399708 -0.0569169447
v -0.430901289 0.531978607 -0.0508061796
v -0.406600326 0.544705808 -0.0157209672
v -0.411856949 0.615417898 -0.0169351511
v -0.44505024 0.457249701 -0.0144769661
v -0.467483401 0.449867249 -0.0428012833
v -0.516662657 0.366354436 -0.0113715511
v -0.711663961 0.272249252 -0.0376231372
v -0.733111799 0.313836515 -0.0279127695
v -0.713011205 0.356672287 -0.0515979566
v -0.758268654 0.402184606 -0.0481652394
v -0.74902904 0.252283007 -0.0253917053
v -0.782771111 0.252482146 -0.0272096656
v -0.750319123 0.219234467 -0.0216620993
v -0.783581555 0.202793688 -0.021156406
v -0.820262671 0.209049195 -0.0151312053
v -0.818453729 0.251194596 -0.0199501719
v -0.832925856 0.217474625 -0.00787542015
v -0.830725133 0.256463051 -0.00822580699
v -0.783669412 0.192130044 -0.0102271484
v -0.750319064 0.205798075 -0.00864445884
v -0.820798695 0.199067086 -0.00854903366
v -0.807659805 0.305758059 -0.00867146906
v -0.797681689 0.30927214 -0.0169740915
v -0.768324792 0.319699824 -0.0272257403
v -0.800979137 0.38952297 -0.0508233532
v -0.849538267 0.365075022 -0.030258527
v -0.842145205 0.49051851 -0.07271301
v -0.788940728 0.519101381 -0.0613937974
v -0.805000663 0.581899643 -0.0422251411
v -0.878045261 0.572042525 -0.0748245418
v -0.855934441 0.626058877 -0.0567336604
v -0.813460529 0.624788523 -0.0134456325
v -0.753701627 0.699964583 -0.0214746017
v -0.914511144 0.449867308 -0.0428013504
v -0.951093137 0.531978786 -0.0508062541
v -0.865331888 0.366354465 -0.011371606
v -0.936944246 0.45724982 -0.0144770211
v -0.97539413 0.544705927 -0.0157210492
v -0.947349668 0.588399947 -0.056917008
v -0.970137537 0.615418077 -0.0169352051
v -0.906843245 0.624348879 -0.0598235838
v -0.867750406 0.666857541 -0.0174708664
v -0.92299062 0.664246202 -0.0182330608
v -0.690997303 0.369646341 -0.0592818074
v -0.554538012 0.262496799 -5.45369403E-08
v -0.551269412 0.256462991 -0.00822577905
v -0.549068809 0.217474595 -0.00787537917
v -0.552484095 0.224998578 -5.45369403E-08
v -0.576904655 0.309892565 -5.45369403E-08
v -0.574334741 0.305758029 -0.00867144112
v -0.520658791 0.368693829 -5.45369403E-08
v -0.516662657 0.366354436 -0.0113715511
v -0.450701624 0.457171023 -5.45369403E-08
v -0.44505024 0.457249701 -0.0144769661
v -0.413989812 0.541566908 -5.45369403E-08
v -0.406600326 0.544705808 -0.0157209672
v -0.56119591 0.199067086 -0.00854899269
v -0.565950036 0.205355465 -5.45369403E-08
v -0.598325193 0.192129925 -0.0102271354
v -0.601833522 0.198021993 -5.45369403E-08
v -0.631675482 0.20579797 -0.0086444458
v -0.633885741 0.211180791 -5.45369403E-08
v -0.690997303 0.193780482 -0.0129100122
v -0.690997124 0.199799404 -5.45369403E-08
v -0.419490069 0.611310482 -5.45369403E-08
v -0.411856949 0.615417898 -0.0169351511
v -0.465401977 0.659543276 -5.45369403E-08
v -0.459003747 0.664246142 -0.0182329956
v -0.518840611 0.662934184 -5.45369403E-08
v -0.51424402 0.666857421 -0.0174708273
v -0.572468817 0.620513737 -5.45369403E-08
v -0.568533897 0.624788463 -0.0134455916
v -0.630558014 0.692115784 -5.45369403E-08
v -0.628292739 0.699964583 -0.0214745738
v -0.690997124 0.717168093 -5.45369403E-08
v -0.690997124 0.725969851 -0.0226449911
v -0.827456355 0.262496799 -5.45369403E-08
v -0.829510272 0.224998578 -5.45369403E-08
v -0.832925856 0.217474625 -0.00787542015
v -0.830725133 0.256463051 -0.00822580699
v -0.805089712 0.309892565 -5.45369403E-08
v -0.807659805 0.305758059 -0.00867146906
v -0.861335576 0.368693829 -5.45369403E-08
v -0.865331888 0.366354465 -0.011371606
v -0.931292772 0.457171023 -5.45369403E-08
v -0.936944246 0.45724982 -0.0144770211
v -0.968004405 0.541566908 -5.45369403E-08
v -0.97539413 0.544705927 -0.0157210492
v -0.820798695 0.199067086 -0.00854903366
v -0.816044271 0.205355465 -5.45369403E-08
v -0.783669412 0.192130044 -0.0102271484
v -0.780160785 0.198021993 -5.45369403E-08
v -0.750319064 0.205798075 -0.00864445884
v -0.748108685 0.211180791 -5.45369403E-08
v -0.690997303 0.193780482 -0.0129100122
v -0.690997124 0.199799404 -5.45369403E-08
v -0.962504268 0.611310482 -5.45369403E-08
v -0.970137537 0.615418077 -0.0169352051
v -0.9165923 0.659543276 -5.45369403E-08
v -0.92299062 0.664246202 -0.0182330608
v -0.863153756 0.662934184 -5.45369403E-08
v -0.867750406 0.666857541 -0.0174708664
v -0.80952549 0.620513737 -5.45369403E-08
v -0.813460529 0.624788523 -0.0134456325
v -0.751436353 0.692115784 -5.45369403E-08
v -0.753701627 0.699964583 -0.0214746017
v -0.690997124 0.717168093 -5.45369403E-08
v -0.690997124 0.725969851 -0.0226449911
vt 0.873094976 0.0246709995
vt 0.867569983 0.0242899992
vt 0.872856021 0.039303001
vt 0.879728019 0.0383509994
vt 0.85709101 0.0448659994
vt 0.854411006 0.0242420007
vt 0.839974999 0.0308030006
vt 0.841403008 0.0474929996
vt 0.811016023 0.0421949998
vt 0.811047018 0.0290079992
vt 0.854795992 0.0187689997
vt 0.839928985 0.0205809996
vt 0.811074018 0.0185410008
vt 0.86720401 0.0204850007
vt 0.883431017 0.0629490018
vt 0.876152992 0.0693970025
vt 0.857869983 0.0785759985
vt 0.879020989 0.122601002
vt 0.910018027 0.104425997
vt 0.823634028 0.0603789985
vt 0.838402987 0.0787729993
vt 0.810952008 0.0828830004
vt 0.825212002 0.104994997
vt 0.853659987 0.129549995
vt 0.86856401 0.197951004
vt 0.900570989 0.182387993
vt 0.810941994 0.156258002
vt 0.81092602 0.217304006
vt 0.876589 0.236947998
vt 0.917882025 0.225612
vt 0.907703996 0.25218001
vt 0.881273985 0.266487002
vt 0.810913026 0.266068995
vt 0.841633022 0.293103993
vt 0.810935974 0.301669002
vt 0.930701017 0.250319988
vt 0.913726985 0.278822005
vt 0.940315008 0.275582999
vt 0.950437009 0.235960007
vt 0.959003985 0.209391996
vt 0.981078029 0.22033
vt 0.967374027 0.255780011
vt 0.970340014 0.160898
vt 0.94641 0.159655005
vt 0.924969018 0.098902002
vt 0.780184984 0.293148011
vt 0.740505993 0.266429991
vt 0.745230973 0.236892
vt 0.714069009 0.252068013
vt 0.703962028 0.225465
vt 0.753301024 0.197907999
vt 0.768234015 0.129519001
vt 0.742861986 0.122620001
vt 0.721336007 0.182322994
vt 0.711871028 0.104502998
vt 0.74563998 0.0693980008
vt 0.76324898 0.0793780014
vt 0.76473999 0.044656001
vt 0.749149978 0.0392320007
vt 0.754006028 0.0238860007
vt 0.748408973 0.0242999997
vt 0.741753995 0.0382240005
vt 0.767467022 0.0238569994
vt 0.782082021 0.0306460001
vt 0.780580997 0.0473719984
vt 0.767157018 0.0182070006
vt 0.782235026 0.0204039998
vt 0.754314005 0.0200369991
vt 0.738309026 0.062981002
vt 0.783024013 0.078730002
vt 0.798334002 0.0603360012
vt 0.796720982 0.104997002
vt 0.696924984 0.0990279987
vt 0.675623 0.159587994
vt 0.651803017 0.160798997
vt 0.662946999 0.209116995
vt 0.640877008 0.219881997
vt 0.671365976 0.235692993
vt 0.654273987 0.255409002
vt 0.691056013 0.250138998
vt 0.681324005 0.275438011
vt 0.707988024 0.278715998
vt 0.810989976 0.0554409996
vt 0.810959995 0.112919003
vt 0.992228985 0.367074013
vt 0.992228985 0.352690011
vt 0.980907023 0.352690011
vt 0.980907023 0.367074013
vt 0.992228985 0.399437994
vt 0.980907023 0.399437994
vt 0.992228985 0.438704997
vt 0.980907023 0.438704997
vt 0.992228985 0.494269013
vt 0.980907023 0.494269013
vt 0.992228985 0.541580021
vt 0.980907023 0.541580021
vt 0.980907023 0.344971001
vt 0.992228985 0.344971001
vt 0.980907023 0.333350986
vt 0.992228985 0.333350986
vt 0.980907023 0.324467987
vt 0.992228985 0.324467987
vt 0.980907023 0.30756101
vt 0.992228985 0.30756101
vt 0.992228985 0.564360023
vt 0.980907023 0.564360023
vt 0.992228985 0.59444201
vt 0.980907023 0.59444201
vt 0.992228985 0.624433994
vt 0.980907023 0.624433994
vt 0.992228985 0.647533
vt 0.980907023 0.647533
vt 0.992228985 0.680231988
vt 0.980907023 0.680231988
vt 0.992228985 0.706094027
vt 0.980907023 0.706094027
vt 0.992228985 0.367074013
vt 0.980907023 0.367074013
vt 0.980907023 0.352690011
vt 0.992228985 0.352690011
vt 0.992228985 0.399437994
vt 0.980907023 0.399437994
vt 0.992228985 0.438704997
vt 0.980907023 0.438704997
vt 0.992228985 0.494269013
vt 0.980907023 0.494269013
vt 0.992228985 0.541580021
vt 0.980907023 0.541580021
vt 0.980907023 0.344971001
vt 0.992228985 0.344971001
vt 0.980907023 0.333350986
vt 0.992228985 0.333350986
vt 0.980907023 0.324467987
vt 0.992228985 0.324467987
vt 0.980907023 0.30756101
vt 0.992228985 0.30756101
vt 0.992228985 0.564360023
vt 0.980907023 0.564360023
vt 0.992228985 0.59444201
vt 0.980907023 0.59444201
vt 0.992228985 0.624433994
vt 0.980907023 0.624433994
vt 0.992228985 0.647533
vt 0.980907023 0.647533
vt 0.992228985 0.680231988
vt 0.980907023 0.680231988
vt 0.992228985 0.706094027
vt 0.980907023 0.706094027
vt 0.873094976 0.0246709995
vt 0.879728019 0.0383509994
vt 0.872856021 0.039303001
vt 0.867569983 0.0242899992
vt 0.85709101 0.0448659994
vt 0.854411006 0.0242420007
vt 0.839974999 0.0308030006
vt 0.841403008 0.0474929996
vt 0.811016023 0.0421949998
vt 0.811047018 0.0290079992
vt 0.854795992 0.0187689997
vt 0.839928985 0.0205809996
vt 0.811074018 0.0185410008
vt 0.86720401 0.0204850007
vt 0.883431017 0.0629490018
vt 0.876152992 0.0693970025
vt 0.857869983 0.0785759985
vt 0.879020989 0.122601002
vt 0.910018027 0.104425997
vt 0.823634028 0.0603789985
vt 0.838402987 0.0787729993
vt 0.810952008 0.0828830004
vt 0.825212002 0.104994997
vt 0.853659987 0.129549995
vt 0.86856401 0.197951004
vt 0.900570989 0.182387993
vt 0.810941994 0.156258002
vt 0.81092602 0.217304006
vt 0.876589 0.236947998
vt 0.917882025 0.225612
vt 0.907703996 0.25218001
vt 0.881273985 0.266487002
vt 0.810913026 0.266068995
vt 0.841633022 0.293103993
vt 0.810935974 0.301669002
vt 0.810989976 0.0554409996
vt 0.930701017 0.250319988
vt 0.913726985 0.278822005
vt 0.940315008 0.275582999
vt 0.950437009 0.235960007
vt 0.959003985 0.209391996
vt 0.981078029 0.22033
vt 0.967374027 0.255780011
vt 0.970340014 0.160898
vt 0.94641 0.159655005
vt 0.924969018 0.098902002
vt 0.798334002 0.0603360012
vt 0.783024013 0.078730002
vt 0.796720982 0.104997002
vt 0.768234015 0.129519001
vt 0.780580997 0.0473719984
vt 0.76473999 0.044656001
vt 0.782082021 0.0306460001
vt 0.767467022 0.0238569994
vt 0.754006028 0.0238860007
vt 0.749149978 0.0392320007
vt 0.748408973 0.0242999997
vt 0.741753995 0.0382240005
vt 0.767157018 0.0182070006
vt 0.782235026 0.0204039998
vt 0.754314005 0.0200369991
vt 0.738309026 0.062981002
vt 0.74563998 0.0693980008
vt 0.76324898 0.0793780014
vt 0.742861986 0.122620001
vt 0.711871028 0.104502998
vt 0.721336007 0.182322994
vt 0.753301024 0.197907999
vt 0.745230973 0.236892
vt 0.703962028 0.225465
vt 0.714069009 0.252068013
vt 0.740505993 0.266429991
vt 0.780184984 0.293148011
vt 0.675623 0.159587994
vt 0.662946999 0.209116995
vt 0.696924984 0.0990279987
vt 0.651803017 0.160798997
vt 0.640877008 0.219881997
vt 0.671365976 0.235692993
vt 0.654273987 0.255409002
vt 0.691056013 0.250138998
vt 0.707988024 0.278715998
vt 0.681324005 0.275438011
vt 0.810959995 0.112919003
vt 0.992228985 0.367074013
vt 0.980907023 0.367074013
vt 0.980907023 0.352690011
vt 0.992228985 0.352690011
vt 0.992228985 0.399437994
vt 0.980907023 0.399437994
vt 0.992228985 0.438704997
vt 0.980907023 0.438704997
vt 0.992228985 0.494269013
vt 0.980907023 0.494269013
vt 0.992228985 0.541580021
vt 0.980907023 0.541580021
vt 0.980907023 0.344971001
vt 0.992228985 0.344971001
vt 0.980907023 0.333350986
vt 0.992228985 0.333350986
vt 0.980907023 0.324467987
vt 0.992228985 0.324467987
vt 0.980907023 0.30756101
vt 0.992228985 0.30756101
vt 0.992228985 0.564360023
vt 0.980907023 0.564360023
vt 0.992228985 0.59444201
vt 0.980907023 0.59444201
vt 0.992228985 0.624433994
vt 0.980907023 0.624433994
vt 0.992228985 0.647533
vt 0.980907023 0.647533
vt 0.992228985 0.680231988
vt 0.980907023 0.680231988
vt 0.992228985 0.706094027
vt 0.980907023 0.706094027
vt 0.992228985 0.367074013
vt 0.992228985 0.352690011
vt 0.980907023 0.352690011
vt 0.980907023 0.367074013
vt 0.992228985 0.399437994
vt 0.980907023 0.399437994
vt 0.992228985 0.438704997
vt 0.980907023 0.438704997
vt 0.992228985 0.494269013
vt 0.980907023 0.494269013
vt 0.992228985 0.541580021
vt 0.980907023 0.541580021
vt 0.980907023 0.344971001
vt 0.992228985 0.344971001
vt 0.980907023 0.333350986
vt 0.992228985 0.333350986
vt 0.980907023 0.324467987
vt 0.992228985 0.324467987
vt 0.980907023 0.30756101
vt 0.992228985 0.30756101
vt 0.992228985 0.564360023
vt 0.980907023 0.564360023
vt 0.992228985 0.59444201
vt 0.980907023 0.59444201
vt 0.992228985 0.624433994
vt 0.980907023 0.624433994
vt 0.992228985 0.647533
vt 0.980907023 0.647533
vt 0.992228985 0.680231988
vt 0.980907023 0.680231988
vt 0.992228985 0.706094027
vt 0.980907023 0.706094027
vn 0.569096923 -0.106434003 0.815352976
vn 0.398768902 -0.313533902 0.86178875
vn 0.446315169 0.0734130368 0.891859412
vn 0.578508437 0.146631122 0.802388549
vn 0.115980037 -0.0299360119 0.992800295
vn -0.009542997 -0.493095785 0.869922698
vn 0.0495139956 -0.407276005 0.911961973
vn 0.103525013 -0.0657830164 0.992449045
vn -0 -0.18568103 0.982610106
vn -0 -0.623402238 0.78190124
vn -0.0400069915 -0.695344806 0.717561841
vn -0.0703499988 -0.694100976 0.716431975
vn -0 -0.809826076 0.586669981
vn 0.320947975 -0.50929594 0.798504889
vn 0.613749266 -0.142359063 0.776560187
vn 0.383641005 -0.169047967 0.907877922
vn 0.11107301 -0.153680027 0.981858075
vn 0.0432119891 -0.259447932 0.964789808
vn 0.442530185 -0.495502174 0.747425318
vn 0.423859775 -0.0936669484 0.900871456
vn 0.322905898 -0.12821795 0.937705696
vn 0.00475800037 -0.153615996 0.988119125
vn 0.391337872 -0.195271909 0.899290562
vn 0.141964972 -0.216793939 0.965839744
vn 0.0889500082 0.0291970018 0.995608032
vn 0.00750800082 -0.132854015 0.991107166
vn -0 -0.224814892 0.974401474
vn -0 0.0954630002 0.995432973
vn 0.00340500125 0.366811097 0.930289209
vn -0.00884399656 0.0950989649 0.995428503
vn -0.321514964 0.500187993 0.804014981
vn -0.0718630105 0.584028065 0.808546126
vn -0 0.435170949 0.900347829
vn 0.422086 0.431786984 0.797122002
vn -0 0.642575443 0.766222417
vn 0.206843153 0.479149282 0.853013456
vn -0.204021901 0.718404651 0.665033638
vn 0.285124153 0.633980274 0.718869388
vn 0.563297927 0.173213005 0.807893932
vn 0.620094955 -0.201165989 0.758297026
vn 0.847117305 -0.12747404 0.515890181
vn 0.687376916 0.344981015 0.639140964
vn 0.760889173 -0.451825112 0.465727121
vn 0.534154058 -0.416930109 0.735424161
vn 0.646578074 -0.587649047 0.486421049
vn -0.422084957 0.431787968 0.797122002
vn 0.0718630105 0.584028065 0.808546126
vn -0.00340500125 0.366811097 0.930289209
vn 0.321515888 0.500187814 0.804014683
vn 0.00884399656 0.0950989649 0.995428503
vn -0.0889490098 0.0291970074 0.995608151
vn -0.142915055 -0.217879102 0.965455353
vn -0.0415300168 -0.260958076 0.964456439
vn -0.00750800082 -0.132854015 0.991107166
vn -0.44253099 -0.495502025 0.74742502
vn -0.380963117 -0.164083034 0.909914196
vn -0.112585992 -0.168877006 0.979185879
vn -0.0985260308 -0.0319240093 0.99462229
vn -0.446621865 0.0676749796 0.89215976
vn -0.393477142 -0.322486132 0.86091727
vn -0.592013955 -0.12730898 0.795808911
vn -0.643778026 0.16388303 0.747457087
vn 0.00851600338 -0.4862912 0.873755336
vn -0.0552039742 -0.403486818 0.913318634
vn -0.119144998 -0.0635029972 0.990844011
vn 0.0400079899 -0.695345879 0.717560768
vn 0.0703480095 -0.694103122 0.716430068
vn -0.32094717 -0.509297311 0.798504353
vn -0.621992886 -0.129513949 0.772237718
vn -0.31775105 -0.129093036 0.939345121
vn -0.421304882 -0.0979619622 0.901612759
vn -0.388164014 -0.191578001 0.901458025
vn -0.646578968 -0.587648928 0.486419976
vn -0.534155071 -0.416929036 0.735424101
vn -0.760890007 -0.451824933 0.465725958
vn -0.620095193 -0.201165065 0.758297205
vn -0.847117305 -0.12747404 0.515890181
vn -0.563297272 0.173213094 0.807894409
vn -0.687376916 0.344981015 0.639140964
vn -0.206843033 0.479150027 0.853012979
vn -0.285123974 0.63398093 0.718868911
vn 0.20402205 0.718405187 0.665033102
vn -1.49999923E-05 -0.183569923 0.983006597
vn -8.99999759E-06 -0.222025946 0.975040734
vn 0.936267734 0.324028909 -0.135675967
vn 0.866829932 -0.116273999 -0.484856933
vn 0.739681721 -0.297614843 -0.603569686
vn 0.951964855 0.166650936 -0.256885976
vn 0.888815999 -0.252252012 -0.382589996
vn 0.959510565 -0.0081809964 -0.281553894
vn 0.702291906 -0.604482889 -0.376013964
vn 0.707659423 -0.602770567 -0.368626773
vn 0.808483541 -0.496434301 -0.316081226
vn 0.823374152 -0.469608098 -0.318627059
vn 0.90253967 -0.189682946 -0.386577815
vn 0.90809232 -0.116468042 -0.402248144
vn 0.386650026 -0.625331998 -0.677836001
vn 0.385951996 -0.637263 -0.667035937
vn -0.0305019878 -0.863242626 -0.503866792
vn -0.135879964 -0.8753407 -0.464020818
vn -0.143276066 -0.859086335 -0.491368175
vn -0.0625880212 -0.86113137 -0.504515171
vn -9.99999884E-07 -0.898605824 -0.438756943
vn 1.00000022E-06 -0.906337261 -0.422555119
vn 0.815424562 0.357431829 -0.455329806
vn 0.810011327 0.375546128 -0.450385183
vn 0.347148985 0.869734943 -0.350782961
vn 0.420436025 0.833477974 -0.358536005
vn -0.36819303 0.922716022 -0.114145018
vn -0.227758095 0.960611403 -0.15922308
vn 0.188207984 0.920889914 -0.341378957
vn -0.00321000116 0.955956399 -0.293491125
vn 0.572214961 0.746945024 -0.338589966
vn 0.535789132 0.77407217 -0.337257028
vn -0 0.930781901 -0.365574926
vn -0 0.932069242 -0.362280041
vn -0.936264098 0.324028045 -0.135702997
vn -0.951958477 0.166651905 -0.256908834
vn -0.739673972 -0.297609001 -0.603582025
vn -0.866816223 -0.116275035 -0.484881163
vn -0.888809919 -0.252246022 -0.382607967
vn -0.95950377 -0.00818299688 -0.281576902
vn -0.702289402 -0.60448128 -0.376021177
vn -0.707657993 -0.602768004 -0.368633956
vn -0.808483303 -0.496434212 -0.31608212
vn -0.823374629 -0.469606817 -0.318627864
vn -0.902538121 -0.189684018 -0.386581063
vn -0.90809077 -0.116466977 -0.402251929
vn -0.386649072 -0.625327051 -0.677841067
vn -0.385944992 -0.63726294 -0.66703999
vn 0.0304989964 -0.863246799 -0.503859878
vn 0.135885015 -0.875346124 -0.464009017
vn 0.143279105 -0.859092593 -0.491356283
vn 0.0625840127 -0.861136317 -0.504507184
vn -9.99999884E-07 -0.898605824 -0.438756943
vn 1.00000022E-06 -0.906337261 -0.422555119
vn -0.815423012 0.357430041 -0.455334038
vn -0.810008764 0.375545889 -0.450389892
vn -0.347147793 0.869733453 -0.350787789
vn -0.420434952 0.833476841 -0.358539939
vn 0.368194103 0.922715306 -0.11414703
vn 0.227757022 0.960610986 -0.159227014
vn -0.188209012 0.920888186 -0.34138304
vn 0.00321299955 0.955955803 -0.293492973
vn -0.572214603 0.746944547 -0.338591754
vn -0.535789192 0.774071157 -0.337259114
vn -0 0.930781901 -0.365574926
vn -0 0.932069242 -0.362280041
vn 0.569096923 -0.106434003 -0.815352976
vn 0.578508437 0.146631122 -0.802388549
vn 0.446315169 0.0734130368 -0.891859412
vn 0.398768902 -0.313533902 -0.86178875
vn 0.115980037 -0.0299360119 -0.992800295
vn -0.009542997 -0.493095785 -0.869922698
vn 0.0495139956 -0.407276005 -0.911961973
vn 0.103525013 -0.0657830164 -0.992449045
vn -0 -0.18568103 -0.982610106
vn -0 -0.623402238 -0.78190124
vn -0.0400069915 -0.695344806 -0.717561841
vn -0.0703499988 -0.694100976 -0.716431975
vn -0 -0.809826076 -0.586669981
vn 0.320948869 -0.509295821 -0.798504651
vn 0.613749266 -0.142359063 -0.776560187
vn 0.383641005 -0.169047967 -0.907877922
vn 0.11107301 -0.153680027 -0.981858075
vn 0.0432119891 -0.259447932 -0.964789808
vn 0.442530185 -0.495502174 -0.747425318
vn 0.423859775 -0.0936669484 -0.900871456
vn 0.322905898 -0.12821795 -0.937705696
vn 0.00475800037 -0.153615996 -0.988119125
vn 0.391337872 -0.195271909 -0.899290562
vn 0.141964972 -0.216793939 -0.965839744
vn 0.0889500082 0.0291970018 -0.995608032
vn 0.00750800036 -0.132854998 -0.991107047
vn -0 -0.224814892 -0.974401474
vn -0 0.0954630002 -0.995432973
vn 0.00340500125 0.366811097 -0.930289209
vn -0.00884399656 0.0950989649 -0.995428503
vn -0.321514964 0.500187993 -0.804014981
vn -0.0718630105 0.584028065 -0.808546126
vn -0 0.435170949 -0.900347829
vn 0.422086 0.431786984 -0.797122002
vn -0 0.642575443 -0.766222417
vn -1.49999923E-05 -0.183569923 -0.983006597
vn 0.206843153 0.479149282 -0.853013456
vn -0.204021901 0.718404651 -0.665033638
vn 0.285124153 0.633980274 -0.718869388
vn 0.563297927 0.173213005 -0.807893932
vn 0.620094955 -0.201165989 -0.758297026
vn 0.847117305 -0.12747404 -0.515890181
vn 0.687376916 0.344981015 -0.639140964
vn 0.760889173 -0.451825112 -0.465727121
vn 0.534154058 -0.416930109 -0.735424161
vn 0.646578074 -0.587649047 -0.486421049
vn -0.421304882 -0.0979619622 -0.901612759
vn -0.31775105 -0.129093036 -0.939345121
vn -0.388164014 -0.191578001 -0.901458025
vn -0.142915055 -0.217879102 -0.965455353
vn -0.119144998 -0.0635029972 -0.990844011
vn -0.0985260308 -0.0319240093 -0.99462229
vn -0.0552039742 -0.403486818 -0.913318634
vn 0.00851600338 -0.4862912 -0.873755336
vn -0.393477142 -0.322486132 -0.86091727
vn -0.446621865 0.0676749796 -0.89215976
vn -0.592013955 -0.12730898 -0.795808911
vn -0.643778026 0.16388303 -0.747457087
vn 0.0400079899 -0.695345879 -0.717560768
vn 0.0703480095 -0.694103122 -0.716430068
vn -0.32094717 -0.509297311 -0.798504353
vn -0.621992886 -0.129513949 -0.772237718
vn -0.380963117 -0.164083034 -0.909914196
vn -0.112585992 -0.168877006 -0.979185879
vn -0.0415300168 -0.260958076 -0.964456439
vn -0.44253099 -0.495502025 -0.74742502
vn -0.00750800082 -0.132854015 -0.991107166
vn -0.0889490098 0.0291970074 -0.995608151
vn -0.00340400101 0.366811097 -0.930289209
vn 0.00884399656 0.0950989649 -0.995428503
vn 0.321515888 0.500187814 -0.804014683
vn 0.0718630105 0.584028065 -0.808546126
vn -0.422084957 0.431787968 -0.797122002
vn -0.534155071 -0.416929036 -0.735424101
vn -0.620095193 -0.201165065 -0.758297205
vn -0.646578968 -0.587648928 -0.486419976
vn -0.760890007 -0.451824933 -0.465725958
vn -0.847117305 -0.12747404 -0.515890181
vn -0.563297272 0.173213094 -0.807894409
vn -0.687376916 0.344981015 -0.639140964
vn -0.206843033 0.479150027 -0.853012979
vn 0.20402205 0.718405187 -0.665033102
vn -0.285123974 0.63398093 -0.718868911
vn -8.99999759E-06 -0.222025946 -0.975040734
vn 0.936267734 0.324028909 0.135675967
vn 0.951964855 0.166650936 0.256885976
vn 0.739681721 -0.297614843 0.603569686
vn 0.866829932 -0.116273999 0.484856933
vn 0.888815999 -0.252252012 0.382589996
vn 0.959510565 -0.0081809964 0.281553894
vn 0.702291369 -0.604483306 0.376014233
vn 0.707659423 -0.602770567 0.368626773
vn 0.808483541 -0.496434301 0.316081226
vn 0.823374152 -0.469608098 0.318627059
vn 0.90253967 -0.189682946 0.386577815
vn 0.90809232 -0.116468042 0.402248144
vn 0.386650026 -0.625331998 0.677836001
vn 0.385951996 -0.637263 0.667035937
vn -0.0305019878 -0.863242626 0.503866792
vn -0.135879964 -0.8753407 0.464020818
vn -0.143276066 -0.859086335 0.491368175
vn -0.0625880212 -0.86113137 0.504515171
vn -9.99999884E-07 -0.898605824 0.438756943
vn 1.00000022E-06 -0.906337261 0.422555119
vn 0.815424562 0.357431829 0.455329806
vn 0.810011327 0.375546128 0.450385183
vn 0.347148985 0.869734943 0.350782961
vn 0.420436025 0.833477974 0.358536005
vn -0.36819303 0.922716022 0.114145018
vn -0.227758095 0.960611403 0.15922308
vn 0.188207984 0.920889914 0.341378957
vn -0.00321000116 0.955956399 0.293491125
vn 0.572214961 0.746945024 0.338589966
vn 0.535789132 0.77407217 0.337257028
vn -0 0.930781901 0.365574926
vn -0 0.932069242 0.362280041
vn -0.936264098 0.324028045 0.135702997
vn -0.866816223 -0.116275035 0.484881163
vn -0.739673972 -0.297609001 0.603582025
vn -0.951958477 0.166651905 0.256908834
vn -0.888809919 -0.252246022 0.382607967
vn -0.95950377 -0.00818299688 0.281576902
vn -0.702289402 -0.60448128 0.376021177
vn -0.707657993 -0.602768004 0.368633956
vn -0.808483303 -0.496434212 0.31608212
vn -0.823374271 -0.469607204 0.318628132
vn -0.902538121 -0.189684018 0.386581063
vn -0.90809077 -0.116466977 0.402251929
vn -0.386649072 -0.625327051 0.677841067
vn -0.385944992 -0.63726294 0.66703999
vn 0.0304989964 -0.863246799 0.503859878
vn 0.135885015 -0.875346124 0.464009017
vn 0.143279105 -0.859092593 0.491356283
vn 0.0625840127 -0.861136317 0.504507184
vn -9.99999884E-07 -0.898605824 0.438756943
vn 1.00000022E-06 -0.906337261 0.422555119
vn -0.815423012 0.357430041 0.455334038
vn -0.810008764 0.375545889 0.450389892
vn -0.347147942 0.86973381 0.350786954
vn -0.420434952 0.833476841 0.358539939
vn 0.368194103 0.922715306 0.11414703
vn 0.227757022 0.960610986 0.159227014
vn -0.188209012 0.920888186 0.34138304
vn 0.00321199954 0.955955803 0.293492973
vn -0.572214603 0.746944547 0.338591754
vn -0.535789192 0.774071157 0.337259114
vn -0 0.930781901 0.365574926
vn -0 0.932069242 0.362280041
g Weapon_0
f 3/3/3 2/2/2 1/1/1
f 4/4/4 3/3/3 1/1/1
f 3/3/3 5/5/5 2/2/2
f 5/5/5 6/6/6 2/2/2
f 6/6/6 5/5/5 7/7/7
f 5/5/5 8/8/8 7/7/7
f 8/8/8 9/9/9 7/7/7
f 9/9/9 10/10/10 7/7/7
f 6/6/6 7/7/7 11/11/11
f 6/6/6 11/11/11 2/2/2
f 7/7/7 12/12/12 11/11/11
f 13/13/13 12/12/12 7/7/7
f 10/10/10 13/13/13 7/7/7
f 2/2/2 14/14/14 1/1/1
f 11/11/11 14/14/14 2/2/2
f 3/3/3 4/4/4 15/15/15
f 16/16/16 3/3/3 15/15/15
f 5/5/5 3/3/3 16/16/16
f 17/17/17 5/5/5 16/16/16
f 18/18/18 17/17/17 16/16/16
f 19/19/19 18/18/18 16/16/16
f 16/16/16 15/15/15 19/19/19
f 20/20/20 9/9/9 8/8/8
f 21/21/21 8/8/8 5/5/5
f 21/21/21 20/20/20 8/8/8
f 22/22/22 20/20/20 21/21/21
f 23/23/23 22/22/22 21/21/21
f 24/24/24 23/23/23 21/21/21
f 17/17/17 18/18/18 24/24/24
f 21/21/21 17/17/17 24/24/24
f 24/24/24 18/18/18 25/25/25
f 18/18/18 26/26/26 25/25/25
f 26/26/26 18/18/18 19/19/19
f 17/17/17 21/21/21 5/5/5
f 27/27/27 24/24/24 25/25/25
f 27/27/27 23/23/23 24/24/24
f 28/28/28 27/27/27 25/25/25
f 29/29/29 28/28/28 25/25/25
f 25/25/25 30/30/30 29/29/29
f 26/26/26 30/30/30 25/25/25
f 29/29/29 30/30/30 31/31/31
f 31/31/31 32/32/32 29/29/29
f 29/29/29 32/32/32 33/33/33
f 33/33/33 28/28/28 29/29/29
f 32/32/32 34/34/34 33/33/33
f 34/34/34 35/35/35 33/33/33
f 31/31/31 30/30/30 36/36/36
f 37/37/37 31/31/31 36/36/36
f 37/37/37 32/32/32 31/31/31
f 38/38/38 37/37/37 36/36/36
f 36/36/36 30/30/30 39/39/39
f 39/39/39 30/30/30 40/40/40
f 30/30/30 26/26/26 40/40/40
f 40/40/40 41/41/41 39/39/39
f 41/41/41 42/42/42 39/39/39
f 42/42/42 38/38/38 36/36/36
f 39/39/39 42/42/42 36/36/36
f 43/43/43 41/41/41 40/40/40
f 44/44/44 43/43/43 40/40/40
f 40/40/40 26/26/26 44/44/44
f 45/45/45 43/43/43 44/44/44
f 19/19/19 45/45/45 44/44/44
f 44/44/44 26/26/26 19/19/19
f 15/15/15 45/45/45 19/19/19
f 46/46/46 33/33/33 35/35/35
f 46/46/46 47/47/47 33/33/33
f 47/47/47 48/48/48 33/33/33
f 47/47/47 49/49/49 48/48/48
f 50/50/50 48/48/48 49/49/49
f 50/50/50 51/51/51 48/48/48
f 28/28/28 48/48/48 51/51/51
f 33/33/33 48/48/48 28/28/28
f 27/27/27 28/28/28 51/51/51
f 52/52/52 27/27/27 51/51/51
f 53/53/53 52/52/52 51/51/51
f 54/54/54 53/53/53 51/51/51
f 54/54/54 51/51/51 50/50/50
f 53/53/53 54/54/54 55/55/55
f 53/53/53 55/55/55 56/56/56
f 57/57/57 53/53/53 56/56/56
f 53/53/53 57/57/57 52/52/52
f 58/58/58 57/57/57 56/56/56
f 59/59/59 58/58/58 56/56/56
f 58/58/58 59/59/59 60/60/60
f 60/60/60 59/59/59 61/61/61
f 59/59/59 62/62/62 61/61/61
f 63/63/63 58/58/58 60/60/60
f 58/58/58 63/63/63 64/64/64
f 65/65/65 58/58/58 64/64/64
f 9/9/9 65/65/65 64/64/64
f 10/10/10 9/9/9 64/64/64
f 64/64/64 63/63/63 66/66/66
f 66/66/66 63/63/63 60/60/60
f 67/67/67 64/64/64 66/66/66
f 13/13/13 10/10/10 64/64/64
f 67/67/67 13/13/13 64/64/64
f 68/68/68 60/60/60 61/61/61
f 68/68/68 66/66/66 60/60/60
f 59/59/59 56/56/56 69/69/69
f 62/62/62 59/59/59 69/69/69
f 65/65/65 70/70/70 58/58/58
f 71/71/71 70/70/70 65/65/65
f 9/9/9 71/71/71 65/65/65
f 71/71/71 22/22/22 70/70/70
f 22/22/22 72/72/72 70/70/70
f 72/72/72 52/52/52 70/70/70
f 57/57/57 70/70/70 52/52/52
f 70/70/70 57/57/57 58/58/58
f 69/69/69 56/56/56 55/55/55
f 73/73/73 69/69/69 55/55/55
f 73/73/73 55/55/55 74/74/74
f 75/75/75 73/73/73 74/74/74
f 75/75/75 74/74/74 76/76/76
f 54/54/54 76/76/76 74/74/74
f 54/54/54 74/74/74 55/55/55
f 77/77/77 75/75/75 76/76/76
f 77/77/77 76/76/76 78/78/78
f 79/79/79 77/77/77 78/78/78
f 50/50/50 78/78/78 76/76/76
f 50/50/50 76/76/76 54/54/54
f 50/50/50 80/80/80 78/78/78
f 79/79/79 78/78/78 80/80/80
f 81/81/81 79/79/79 80/80/80
f 82/82/82 81/81/81 80/80/80
f 49/49/49 82/82/82 80/80/80
f 50/50/50 49/49/49 80/80/80
f 82/82/82 49/49/49 47/47/47
f 83/83/83 9/9/9 20/20/20
f 20/20/20 22/22/22 83/83/83
f 9/9/9 83/83/83 71/71/71
f 83/83/83 22/22/22 71/71/71
f 23/23/23 84/84/84 22/22/22
f 23/23/23 27/27/27 84/84/84
f 27/27/27 72/72/72 84/84/84
f 84/84/84 72/72/72 22/22/22
f 27/27/27 52/52/52 72/72/72
f 87/87/87 86/86/86 85/85/85
f 88/88/88 87/87/87 85/85/85
f 88/88/88 85/85/85 89/89/89
f 90/90/90 88/88/88 89/89/89
f 90/90/90 89/89/89 91/91/91
f 92/92/92 90/90/90 91/91/91
f 92/92/92 91/91/91 93/93/93
f 94/94/94 92/92/92 93/93/93
f 94/94/94 93/93/93 95/95/95
f 96/96/96 94/94/94 95/95/95
f 86/86/86 87/87/87 97/97/97
f 98/98/98 86/86/86 97/97/97
f 97/97/97 99/99/99 98/98/98
f 99/99/99 100/100/100 98/98/98
f 100/100/100 99/99/99 101/101/101
f 102/102/102 100/100/100 101/101/101
f 102/102/102 101/101/101 103/103/103
f 104/104/104 102/102/102 103/103/103
f 95/95/95 105/105/105 96/96/96
f 105/105/105 106/106/106 96/96/96
f 105/105/105 107/107/107 106/106/106
f 107/107/107 108/108/108 106/106/106
f 107/107/107 109/109/109 108/108/108
f 109/109/109 110/110/110 108/108/108
f 109/109/109 111/111/111 110/110/110
f 111/111/111 112/112/112 110/110/110
f 111/111/111 113/113/113 112/112/112
f 113/113/113 114/114/114 112/112/112
f 113/113/113 115/115/115 114/114/114
f 115/115/115 116/116/116 114/114/114
f 119/119/119 118/118/118 117/117/117
f 120/120/120 119/119/119 117/117/117
f 117/117/117 118/118/118 121/121/121
f 118/118/118 122/122/122 121/121/121
f 121/121/121 122/122/122 123/123/123
f 122/122/122 124/124/124 123/123/123
f 123/123/123 124/124/124 125/125/125
f 124/124/124 126/126/126 125/125/125
f 125/125/125 126/126/126 127/127/127
f 126/126/126 128/128/128 127/127/127
f 119/119/119 120/120/120 129/129/129
f 120/120/120 130/130/130 129/129/129
f 131/131/131 129/129/129 130/130/130
f 132/132/132 131/131/131 130/130/130
f 131/131/131 132/132/132 133/133/133
f 132/132/132 134/134/134 133/133/133
f 133/133/133 134/134/134 135/135/135
f 134/134/134 136/136/136 135/135/135
f 137/137/137 127/127/127 128/128/128
f 138/138/138 137/137/137 128/128/128
f 139/139/139 137/137/137 138/138/138
f 140/140/140 139/139/139 138/138/138
f 141/141/141 139/139/139 140/140/140
f 142/142/142 141/141/141 140/140/140
f 143/143/143 141/141/141 142/142/142
f 144/144/144 143/143/143 142/142/142
f 145/145/145 143/143/143 144/144/144
f 146/146/146 145/145/145 144/144/144
f 147/147/147 145/145/145 146/146/146
f 148/148/148 147/147/147 146/146/146
f 151/151/151 150/150/150 149/149/149
f 152/152/152 151/151/151 149/149/149
f 153/153/153 151/151/151 152/152/152
f 154/154/154 153/153/153 152/152/152
f 153/153/153 154/154/154 155/155/155
f 156/156/156 153/153/153 155/155/155
f 157/157/157 156/156/156 155/155/155
f 158/158/158 157/157/157 155/155/155
f 155/155/155 154/154/154 159/159/159
f 159/159/159 154/154/154 152/152/152
f 160/160/160 155/155/155 159/159/159
f 161/161/161 158/158/158 155/155/155
f 160/160/160 161/161/161 155/155/155
f 162/162/162 152/152/152 149/149/149
f 162/162/162 159/159/159 152/152/152
f 150/150/150 151/151/151 163/163/163
f 151/151/151 164/164/164 163/163/163
f 151/151/151 153/153/153 164/164/164
f 153/153/153 165/165/165 164/164/164
f 165/165/165 166/166/166 164/164/164
f 166/166/166 167/167/167 164/164/164
f 163/163/163 164/164/164 167/167/167
f 157/157/157 168/168/168 156/156/156
f 169/169/169 165/165/165 153/153/153
f 168/168/168 169/169/169 156/156/156
f 168/168/168 170/170/170 169/169/169
f 170/170/170 171/171/171 169/169/169
f 171/171/171 172/172/172 169/169/169
f 165/165/165 169/169/169 172/172/172
f 166/166/166 165/165/165 172/172/172
f 166/166/166 172/172/172 173/173/173
f 174/174/174 166/166/166 173/173/173
f 166/166/166 174/174/174 167/167/167
f 172/172/172 175/175/175 173/173/173
f 171/171/171 175/175/175 172/172/172
f 175/175/175 176/176/176 173/173/173
f 176/176/176 177/177/177 173/173/173
f 178/178/178 173/173/173 177/177/177
f 178/178/178 174/174/174 173/173/173
f 178/178/178 177/177/177 179/179/179
f 180/180/180 179/179/179 177/177/177
f 180/180/180 177/177/177 181/181/181
f 176/176/176 181/181/181 177/177/177
f 182/182/182 180/180/180 181/181/181
f 183/183/183 182/182/182 181/181/181
f 170/170/170 168/168/168 184/184/184
f 157/157/157 184/184/184 168/168/168
f 178/178/178 179/179/179 185/185/185
f 179/179/179 186/186/186 185/185/185
f 180/180/180 186/186/186 179/179/179
f 186/186/186 187/187/187 185/185/185
f 178/178/178 185/185/185 188/188/188
f 178/178/178 188/188/188 189/189/189
f 190/190/190 189/189/189 188/188/188
f 191/191/191 190/190/190 188/188/188
f 191/191/191 188/188/188 185/185/185
f 187/187/187 191/191/191 185/185/185
f 190/190/190 192/192/192 189/189/189
f 192/192/192 193/193/193 189/189/189
f 174/174/174 189/189/189 193/193/193
f 192/192/192 194/194/194 193/193/193
f 194/194/194 167/167/167 193/193/193
f 174/174/174 193/193/193 167/167/167
f 194/194/194 163/163/163 167/167/167
f 184/184/184 157/157/157 195/195/195
f 170/170/170 184/184/184 195/195/195
f 170/170/170 195/195/195 196/196/196
f 197/197/197 170/170/170 196/196/196
f 198/198/198 197/197/197 196/196/196
f 196/196/196 195/195/195 199/199/199
f 196/196/196 199/199/199 200/200/200
f 200/200/200 199/199/199 201/201/201
f 202/202/202 200/200/200 201/201/201
f 199/199/199 157/157/157 201/201/201
f 195/195/195 157/157/157 199/199/199
f 157/157/157 158/158/158 201/201/201
f 200/200/200 202/202/202 203/203/203
f 204/204/204 200/200/200 203/203/203
f 204/204/204 203/203/203 205/205/205
f 206/206/206 204/204/204 205/205/205
f 202/202/202 201/201/201 207/207/207
f 202/202/202 207/207/207 203/203/203
f 201/201/201 208/208/208 207/207/207
f 161/161/161 208/208/208 201/201/201
f 158/158/158 161/161/161 201/201/201
f 203/203/203 209/209/209 205/205/205
f 207/207/207 209/209/209 203/203/203
f 204/204/204 206/206/206 210/210/210
f 211/211/211 204/204/204 210/210/210
f 200/200/200 204/204/204 211/211/211
f 212/212/212 200/200/200 211/211/211
f 213/213/213 212/212/212 211/211/211
f 214/214/214 213/213/213 211/211/211
f 211/211/211 210/210/210 214/214/214
f 215/215/215 213/213/213 214/214/214
f 213/213/213 215/215/215 216/216/216
f 198/198/198 213/213/213 216/216/216
f 212/212/212 213/213/213 198/198/198
f 175/175/175 198/198/198 216/216/216
f 176/176/176 175/175/175 216/216/216
f 217/217/217 176/176/176 216/216/216
f 216/216/216 218/218/218 217/217/217
f 216/216/216 215/215/215 218/218/218
f 217/217/217 218/218/218 219/219/219
f 219/219/219 220/220/220 217/217/217
f 217/217/217 220/220/220 181/181/181
f 217/217/217 181/181/181 176/176/176
f 220/220/220 221/221/221 181/181/181
f 181/181/181 221/221/221 183/183/183
f 222/222/222 215/215/215 214/214/214
f 223/223/223 215/215/215 222/222/222
f 223/223/223 218/218/218 215/215/215
f 214/214/214 224/224/224 222/222/222
f 224/224/224 225/225/225 222/222/222
f 222/222/222 225/225/225 223/223/223
f 225/225/225 226/226/226 223/223/223
f 223/223/223 226/226/226 227/227/227
f 227/227/227 218/218/218 223/223/223
f 226/226/226 228/228/228 227/227/227
f 229/229/229 218/218/218 227/227/227
f 227/227/227 228/228/228 229/229/229
f 219/219/219 218/218/218 229/229/229
f 230/230/230 219/219/219 229/229/229
f 219/219/219 230/230/230 220/220/220
f 231/231/231 230/230/230 229/229/229
f 228/228/228 231/231/231 229/229/229
f 210/210/210 224/224/224 214/214/214
f 156/156/156 169/169/169 153/153/153
f 175/175/175 171/171/171 232/232/232
f 197/197/197 175/175/175 232/232/232
f 232/232/232 171/171/171 170/170/170
f 197/197/197 232/232/232 170/170/170
f 198/198/198 175/175/175 197/197/197
f 196/196/196 212/212/212 198/198/198
f 212/212/212 196/196/196 200/200/200
f 235/235/235 234/234/234 233/233/233
f 236/236/236 235/235/235 233/233/233
f 233/233/233 234/234/234 237/237/237
f 234/234/234 238/238/238 237/237/237
f 237/237/237 238/238/238 239/239/239
f 238/238/238 240/240/240 239/239/239
f 239/239/239 240/240/240 241/241/241
f 240/240/240 242/242/242 241/241/241
f 241/241/241 242/242/242 243/243/243
f 242/242/242 244/244/244 243/243/243
f 235/235/235 236/236/236 245/245/245
f 236/236/236 246/246/246 245/245/245
f 247/247/247 245/245/245 246/246/246
f 248/248/248 247/247/247 246/246/246
f 247/247/247 248/248/248 249/249/249
f 248/248/248 250/250/250 249/249/249
f 249/249/249 250/250/250 251/251/251
f 250/250/250 252/252/252 251/251/251
f 253/253/253 243/243/243 244/244/244
f 254/254/254 253/253/253 244/244/244
f 255/255/255 253/253/253 254/254/254
f 256/256/256 255/255/255 254/254/254
f 257/257/257 255/255/255 256/256/256
f 258/258/258 257/257/257 256/256/256
f 259/259/259 257/257/257 258/258/258
f 260/260/260 259/259/259 258/258/258
f 261/261/261 259/259/259 260/260/260
f 262/262/262 261/261/261 260/260/260
f 263/263/263 261/261/261 262/262/262
f 264/264/264 263/263/263 262/262/262
f 267/267/267 266/266/266 265/265/265
f 268/268/268 267/267/267 265/265/265
f 268/268/268 265/265/265 269/269/269
f 270/270/270 268/268/268 269/269/269
f 270/270/270 269/269/269 271/271/271
f 272/272/272 270/270/270 271/271/271
f 272/272/272 271/271/271 273/273/273
f 274/274/274 272/272/272 273/273/273
f 274/274/274 273/273/273 275/275/275
f 276/276/276 274/274/274 275/275/275
f 266/266/266 267/267/267 277/277/277
f 278/278/278 266/266/266 277/277/277
f 277/277/277 279/279/279 278/278/278
f 279/279/279 280/280/280 278/278/278
f 280/280/280 279/279/279 281/281/281
f 282/282/282 280/280/280 281/281/281
f 282/282/282 281/281/281 283/283/283
f 284/284/284 282/282/282 283/283/283
f 275/275/275 285/285/285 276/276/276
f 285/285/285 286/286/286 276/276/276
f 285/285/285 287/287/287 286/286/286
f 287/287/287 288/288/288 286/286/286
f 287/287/287 289/289/289 288/288/288
f 289/289/289 290/290/290 288/288/288
f 289/289/289 291/291/291 290/290/290
f 291/291/291 292/292/292 290/290/290
f 291/291/291 293/293/293 292/292/292
f 293/293/293 294/294/294 292/292/292
f 293/293/293 295/295/295 294/294/294
f 295/295/295 296/296/296 294/294/294
f 174/174/174 178/178/178 189/189/189
