g wp_010_007_001_Mesh
v 0.544225633 0.0561772771 -0.107492633
v 0.544225633 0.030488627 -0.0957897753
v 0.575743377 0.0384673476 -0.0854565576
v 0.570272982 0.0635653511 -0.0979243815
v 0.518178225 0.0635653511 -0.0979243815
v 0.51270777 0.0384673625 -0.0854565427
v 0.506089628 0.0794844031 -0.0773076639
v 0.499652654 0.0577297285 -0.0605099089
v 0.588798523 0.0577297062 -0.0605099387
v 0.582361579 0.0794844031 -0.0773076639
v 0.518178225 0.0954034701 -0.0566909239
v 0.51270777 0.0769920871 -0.0355632864
v 0.499652654 0.0577297285 -0.0605099089
v 0.506089628 0.0794844031 -0.0773076639
v 0.544225633 0.102791525 -0.0471226722
v 0.544225633 0.0849708244 -0.0252300538
v 0.570272982 0.0954034701 -0.0566909239
v 0.575743437 0.0769920796 -0.0355633087
v 0.582361579 0.0794844031 -0.0773076639
v 0.588798523 0.0577297062 -0.0605099387
v 0.544225633 0.0561772771 -0.107492633
v 0.544225633 0.0787857026 -0.1045857
v 0.518178225 0.0635653511 -0.0979243815
v 0.522207797 0.0922420993 -0.0871584117
v 0.506089628 0.0794844031 -0.0773076639
v 0.544225633 0.096911706 -0.0907640234
v 0.506089628 0.0794844031 -0.0773076639
v 0.522207797 0.0922420993 -0.0871584117
v 0.518178225 0.0954034701 -0.0566909239
v 0.544225633 0.105698436 -0.0697310939
v 0.544225633 0.102791525 -0.0471226722
v 0.544225633 0.096911706 -0.0907640234
v 0.544225633 0.102791525 -0.0471226722
v 0.544225633 0.105698436 -0.0697310939
v 0.570272982 0.0954034701 -0.0566909239
v 0.56624341 0.0922420993 -0.0871584117
v 0.582361579 0.0794844031 -0.0773076639
v 0.544225633 0.096911706 -0.0907640234
v 0.582361579 0.0794844031 -0.0773076639
v 0.56624341 0.0922420993 -0.0871584117
v 0.570272982 0.0635653511 -0.0979243815
v 0.544225633 0.0787857026 -0.1045857
v 0.544225633 0.0561772771 -0.107492633
v 0.544225633 0.096911706 -0.0907640234
v 0.544225633 0.0829465091 -0.0278517567
v 0.54138267 0.0853544697 -0.0197692532
v 0.52212292 0.0822005346 -0.023853926
v 0.523595273 0.0795681104 -0.0322271287
v 0.530900776 0.0847726613 -0.0185626261
v 0.544225633 0.0829465091 -0.0278517567
v 0.564855933 0.0795681104 -0.0322271287
v 0.566328287 0.0822005346 -0.023853926
v 0.547068536 0.0853544697 -0.0197692532
v 0.55755043 0.0847726613 -0.0185626261
v 0.579958379 0.0703381225 -0.0441808403
v 0.585486293 0.0577297434 -0.0605099313
v 0.593355298 0.0570660532 -0.0564055108
v 0.588194668 0.0688367635 -0.0411612839
v 0.593954742 0.0625239164 -0.0473769046
v 0.579958379 0.0703381225 -0.0441808403
v 0.585351646 0.0718461871 -0.0372637846
v 0.571252584 0.0804629698 -0.0261042342
v 0.564855933 0.0795681104 -0.0322271287
v 0.580629885 0.0766290352 -0.0291094054
v 0.579958379 0.0451213457 -0.0768390149
v 0.564855933 0.0358913764 -0.0887927413
v 0.571252584 0.0301940106 -0.0912074074
v 0.585351646 0.038810771 -0.0800478533
v 0.580629885 0.0321315527 -0.0867379531
v 0.579958379 0.0451213457 -0.0768390149
v 0.588194668 0.041820202 -0.0761503503
v 0.593355298 0.053590931 -0.0609061383
v 0.585486293 0.0577297434 -0.0605099313
v 0.593954742 0.0462366752 -0.0684704632
v 0.544225633 0.0325129591 -0.0931680873
v 0.523595273 0.0358913764 -0.0887927413
v 0.52212292 0.0284564495 -0.0934577137
v 0.54138267 0.0253024995 -0.0975423828
v 0.530900776 0.0239879359 -0.0972847342
v 0.544225633 0.0325129591 -0.0931680873
v 0.547068536 0.0253024995 -0.0975423828
v 0.566328287 0.0284564495 -0.0934577137
v 0.564855933 0.0358913764 -0.0887927413
v 0.55755043 0.0239879359 -0.0972847342
v 0.508492827 0.0451213457 -0.0768390149
v 0.502964914 0.0577297434 -0.0605099313
v 0.495095938 0.053590931 -0.0609061383
v 0.500256538 0.041820202 -0.0761503503
v 0.494496435 0.0462366752 -0.0684704632
v 0.508492827 0.0451213457 -0.0768390149
v 0.503099561 0.038810771 -0.0800478533
v 0.517198622 0.0301940106 -0.0912074074
v 0.523595273 0.0358913764 -0.0887927413
v 0.507821321 0.0321315527 -0.0867379531
v 0.508492827 0.0703381225 -0.0441808403
v 0.523595273 0.0795681104 -0.0322271287
v 0.517198622 0.0804629698 -0.0261042342
v 0.503099561 0.0718461871 -0.0372637846
v 0.507821321 0.0766290352 -0.0291094054
v 0.508492827 0.0703381225 -0.0441808403
v 0.500256538 0.0688367635 -0.0411612839
v 0.495095938 0.0570660532 -0.0564055108
v 0.502964914 0.0577297434 -0.0605099313
v 0.494496435 0.0625239164 -0.0473769046
v 0.544225633 0.0561772808 0.107492626
v 0.570272982 0.0635653511 0.097924374
v 0.575743377 0.0384673551 0.0854565576
v 0.544225633 0.0304886308 0.0957897753
v 0.518178225 0.0635653511 0.097924374
v 0.51270777 0.03846737 0.0854565352
v 0.506089628 0.0794844106 0.0773076564
v 0.499652654 0.0577297322 0.0605099052
v 0.588798523 0.0577297099 0.0605099313
v 0.582361579 0.0794844106 0.0773076564
v 0.518178225 0.0954034775 0.0566909201
v 0.506089628 0.0794844106 0.0773076564
v 0.499652654 0.0577297322 0.0605099052
v 0.51270777 0.0769920945 0.0355632789
v 0.544225633 0.102791533 0.0471226685
v 0.544225633 0.0849708319 0.0252300501
v 0.570272982 0.0954034775 0.0566909201
v 0.575743437 0.0769920796 0.035563305
v 0.582361579 0.0794844106 0.0773076564
v 0.588798523 0.0577297099 0.0605099313
v 0.544225633 0.0561772808 0.107492626
v 0.518178225 0.0635653511 0.097924374
v 0.544225633 0.07878571 0.104585692
v 0.522207797 0.0922421068 0.0871584043
v 0.506089628 0.0794844106 0.0773076564
v 0.544225633 0.0969117135 0.0907640159
v 0.506089628 0.0794844106 0.0773076564
v 0.518178225 0.0954034775 0.0566909201
v 0.522207797 0.0922421068 0.0871584043
v 0.544225633 0.105698451 0.0697310865
v 0.544225633 0.102791533 0.0471226685
v 0.544225633 0.0969117135 0.0907640159
v 0.544225633 0.102791533 0.0471226685
v 0.570272982 0.0954034775 0.0566909201
v 0.544225633 0.105698451 0.0697310865
v 0.56624341 0.0922421068 0.0871584043
v 0.582361579 0.0794844106 0.0773076564
v 0.544225633 0.0969117135 0.0907640159
v 0.582361579 0.0794844106 0.0773076564
v 0.570272982 0.0635653511 0.097924374
v 0.56624341 0.0922421068 0.0871584043
v 0.544225633 0.07878571 0.104585692
v 0.544225633 0.0561772808 0.107492626
v 0.544225633 0.0969117135 0.0907640159
v 0.544225633 0.0829465091 0.0278517567
v 0.523595273 0.0795681104 0.0322271287
v 0.52212292 0.0822005346 0.023853926
v 0.54138267 0.0853544697 0.0197692532
v 0.530900776 0.0847726613 0.0185626261
v 0.544225633 0.0829465091 0.0278517567
v 0.547068536 0.0853544697 0.0197692532
v 0.566328287 0.0822005346 0.023853926
v 0.564855933 0.0795681104 0.0322271287
v 0.55755043 0.0847726613 0.0185626261
v 0.579958379 0.0703381225 0.0441808403
v 0.588194668 0.0688367635 0.0411612839
v 0.593355298 0.0570660532 0.0564055108
v 0.585486293 0.0577297434 0.0605099313
v 0.593954742 0.0625239164 0.0473769046
v 0.579958379 0.0703381225 0.0441808403
v 0.564855933 0.0795681104 0.0322271287
v 0.571252584 0.0804629698 0.0261042342
v 0.585351646 0.0718461871 0.0372637846
v 0.580629885 0.0766290352 0.0291094054
v 0.579958379 0.0451213457 0.0768390149
v 0.585351646 0.038810771 0.0800478533
v 0.571252584 0.0301940106 0.0912074074
v 0.564855933 0.0358913764 0.0887927413
v 0.580629885 0.0321315527 0.0867379531
v 0.579958379 0.0451213457 0.0768390149
v 0.585486293 0.0577297434 0.0605099313
v 0.593355298 0.053590931 0.0609061383
v 0.588194668 0.041820202 0.0761503503
v 0.593954742 0.0462366752 0.0684704632
v 0.544225633 0.0325129591 0.0931680873
v 0.54138267 0.0253024995 0.0975423828
v 0.52212292 0.0284564495 0.0934577137
v 0.523595273 0.0358913764 0.0887927413
v 0.530900776 0.0239879359 0.0972847342
v 0.544225633 0.0325129591 0.0931680873
v 0.564855933 0.0358913764 0.0887927413
v 0.566328287 0.0284564495 0.0934577137
v 0.547068536 0.0253024995 0.0975423828
v 0.55755043 0.0239879359 0.0972847342
v 0.508492827 0.0451213457 0.0768390149
v 0.500256538 0.041820202 0.0761503503
v 0.495095938 0.053590931 0.0609061383
v 0.502964914 0.0577297434 0.0605099313
v 0.494496435 0.0462366752 0.0684704632
v 0.508492827 0.0451213457 0.0768390149
v 0.523595273 0.0358913764 0.0887927413
v 0.517198622 0.0301940106 0.0912074074
v 0.503099561 0.038810771 0.0800478533
v 0.507821321 0.0321315527 0.0867379531
v 0.508492827 0.0703381225 0.0441808403
v 0.503099561 0.0718461871 0.0372637846
v 0.517198622 0.0804629698 0.0261042342
v 0.523595273 0.0795681104 0.0322271287
v 0.507821321 0.0766290352 0.0291094054
v 0.508492827 0.0703381225 0.0441808403
v 0.502964914 0.0577297434 0.0605099313
v 0.495095938 0.0570660532 0.0564055108
v 0.500256538 0.0688367635 0.0411612839
v 0.494496435 0.0625239164 0.0473769046
v 0.485677242 -0.000359890721 0.0665571317
v 0.466472119 0.000185395736 -5.96046434E-10
v 0.492890149 0.0509045124 0.0576070435
v 0.479964674 0.0573342368 -5.96046434E-10
v 0.544126987 0.0111473519 0.0970950127
v 0.544225633 0.062169563 0.072057046
v 0.544147193 0.0809935331 0.0397872813
v 0.544046402 0.085874334 -6.40749953E-10
v 0.543523252 -0.0396326594 0.0871433169
v 0.492121726 -0.0375433676 0.0622769445
v 0.541716754 -0.0678825751 0.0431093872
v 0.481485695 -0.0506244078 0.000248638273
v 0.54072845 -0.0730752647 -5.96046434E-10
v 0.492890149 0.0509045124 -0.0576070473
v 0.485677242 -0.000359891419 -0.0665571317
v 0.544126987 0.0111473519 -0.0970950127
v 0.544225633 0.062169563 -0.072057046
v 0.544147193 0.0809935331 -0.0397872813
v 0.541716754 -0.0678825751 -0.0431093872
v 0.492121726 -0.0375433676 -0.061779663
v 0.543523252 -0.0396326594 -0.0871433169
v 0.544225633 0.062169563 0.072057046
v 0.601321101 0.0511403084 0.0559633784
v 0.544126987 0.0111473519 0.0970950127
v 0.544147193 0.0809935331 0.0397872813
v 0.612635553 0.0597240813 -5.96046434E-10
v 0.544046402 0.085874334 -6.40749953E-10
v 0.631808102 -0.0149706369 -5.96046434E-10
v 0.609269917 -0.0101116728 0.0661791116
v 0.543523252 -0.0396326594 0.0871433169
v 0.597554445 -0.0450484082 0.0602834597
v 0.541716754 -0.0678825751 0.0431093872
v 0.606133044 -0.0593689606 -5.96046434E-10
v 0.54072845 -0.0730752647 -5.96046434E-10
v 0.544147193 0.0809935331 -0.0397872813
v 0.601321101 0.0511403084 -0.0559633784
v 0.544225633 0.062169563 -0.072057046
v 0.544126987 0.0111473519 -0.0970950127
v 0.541716754 -0.0678825751 -0.0431093872
v 0.597554445 -0.0450484082 -0.0602834597
v 0.543523252 -0.0396326594 -0.0871433169
v 0.609269917 -0.0101116728 -0.0661791116
v 0.149755761 0.000146267514 0.0188749973
v 0.145461053 0.0175842997 0.0145803103
v 0.157574043 0.000146267907 -1.36469902E-09
v 0.151500419 0.0175843015 -3.61485375E-09
v 0.151500434 -0.0172917731 -8.91908325E-09
v 0.145461082 -0.0172917731 0.0145803159
v 0.130880743 0.0175842922 0.0206196755
v 0.130880758 0.000146255727 0.0266932808
v 0.130880758 -0.0172917824 0.0206196737
v 0.130880773 -0.0263301134 4.82316631E-09
v 0.130880743 0.0266226213 -3.32178107E-09
v 0.112005763 0.000146239443 0.0188750066
v 0.116300419 0.017584281 0.0145803224
v 0.116300456 -0.0172917955 0.0145803075
v 0.110261098 -0.0172918011 -4.33790781E-10
v 0.110261053 0.0175842717 1.29677282E-08
v 0.104187466 0.00014622818 1.34724978E-08
v 0.145461082 -0.0172917806 -0.014580315
v 0.151500434 -0.0172917731 -8.91908325E-09
v 0.149755731 0.000146256658 -0.0188750159
v 0.157574043 0.000146267907 -1.36469902E-09
v 0.145461038 0.0175842922 -0.0145803289
v 0.151500419 0.0175843015 -3.61485375E-09
v 0.130880713 0.017584281 -0.0206196811
v 0.130880728 0.000146240389 -0.0266932808
v 0.130880758 -0.0172917936 -0.0206196737
v 0.130880773 -0.0263301134 4.82316631E-09
v 0.130880743 0.0266226213 -3.32178107E-09
v 0.11200574 0.000146228587 -0.018874988
v 0.116300412 0.0175842736 -0.0145803047
v 0.116300456 -0.0172918011 -0.0145803094
v 0.110261098 -0.0172918011 -4.33790781E-10
v 0.110261053 0.0175842717 1.29677282E-08
v 0.104187466 0.00014622818 1.34724978E-08
v 0.335172355 0.0118181603 -1.8161328E-09
v 0.335172355 -5.62871572E-09 0.0118181594
v 0.288850158 5.09247799E-09 0.0118181594
v 0.288850158 0.0118181603 -1.8161328E-09
v 0.288850158 -0.0118181584 5.98463634E-09
v 0.335172355 -0.0118181584 -4.73655692E-09
v 0.379414201 0.0147663699 -2.09931716E-09
v 0.379414201 -8.54353921E-09 0.0147663662
v 0.379414201 -0.0147663672 -8.17483592E-09
v 0.335172355 -0.0118181584 -4.73655692E-09
v 0.335172355 2.65230482E-09 -0.0118181603
v 0.288850158 -8.06888867E-09 -0.0118181603
v 0.288850158 -0.0118181584 5.98463634E-09
v 0.379414201 -0.0147663672 -8.17483592E-09
v 0.379414201 4.22985158E-09 -0.0147663699
v 0.335172355 0.0118181603 -1.8161328E-09
v 0.288850158 0.0118181603 -1.8161328E-09
v 0.379414201 0.0147663699 -2.09931716E-09
v 0.427319646 0.0185151137 -2.37335285E-09
v 0.427319646 3.01787284E-09 -0.0185151137
v 0.47154364 -1.42441676E-08 -0.0212180465
v 0.47154364 0.0212180465 -2.78796786E-09
v 0.47154364 -0.0212180428 8.83597728E-09
v 0.427319646 -0.01851511 -6.02491346E-09
v 0.427319646 -0.01851511 -6.02491346E-09
v 0.427319646 -9.03195296E-09 0.0185151119
v 0.47154364 7.00406577E-09 0.0212180428
v 0.47154364 -0.0212180428 8.83597728E-09
v 0.427319646 0.0185151137 -2.37335285E-09
v 0.47154364 0.0212180465 -2.78796786E-09
v 0.253305733 -1.40560426E-08 -0.0209594555
v 0.253305733 -0.0209594537 9.3025454E-09
v 0.288850158 -0.0118181584 5.98463634E-09
v 0.288850158 -8.06888867E-09 -0.0118181603
v 0.253305733 0.0209594574 -2.17973617E-09
v 0.253305733 -1.40560426E-08 -0.0209594555
v 0.288850158 -8.06888867E-09 -0.0118181603
v 0.288850158 0.0118181603 -1.8161328E-09
v 0.23305352 0.0133799706 -2.04753348E-09
v 0.23305352 -9.36292022E-09 -0.0133799696
v 0.253305733 -0.0209594537 9.3025454E-09
v 0.23305352 -0.0133799678 6.92445834E-09
v 0.253305733 -0.0209594537 9.3025454E-09
v 0.253305733 6.93323354E-09 0.0209594537
v 0.288850158 5.09247799E-09 0.0118181594
v 0.288850158 -0.0118181584 5.98463634E-09
v 0.23305352 -0.0133799678 6.92445834E-09
v 0.23305352 5.67808911E-09 0.0133799678
v 0.253305733 0.0209594574 -2.17973617E-09
v 0.288850158 0.0118181603 -1.8161328E-09
v 0.23305352 0.0133799706 -2.04753348E-09
v 0.41253525 0.0160921477 -2.38418574E-09
v 0.41253525 -9.75675629E-09 0.016092144
v 0.384438157 -4.84069629E-09 0.0105106505
v 0.384438157 0.0105106533 -1.7145434E-09
v 0.384438157 -0.0105106505 -4.24507363E-09
v 0.41253525 -0.0160921458 -9.6834194E-09
v 0.41253525 -0.0160921458 -9.6834194E-09
v 0.41253525 4.8417097E-09 -0.0160921495
v 0.384438157 2.45735809E-09 -0.0105106514
v 0.384438157 -0.0105106505 -4.24507363E-09
v 0.41253525 0.0160921477 -2.38418574E-09
v 0.384438157 0.0105106533 -1.7145434E-09
v 0.427319646 0.0185151137 -2.37335285E-09
v 0.427319646 -9.03195296E-09 0.0185151119
v 0.415698469 -5.47779111E-09 0.011556657
v 0.415698469 0.0115566598 -1.78913595E-09
v 0.427319646 -0.01851511 -6.02491346E-09
v 0.415698469 -0.011556657 -4.6449391E-09
v 0.427319646 -0.01851511 -6.02491346E-09
v 0.427319646 3.01787284E-09 -0.0185151137
v 0.415698469 2.61999444E-09 -0.0115566589
v 0.415698469 -0.011556657 -4.6449391E-09
v 0.427319646 0.0185151137 -2.37335285E-09
v 0.415698469 0.0115566598 -1.78913595E-09
v 0.379414201 0.0147663699 -2.09931716E-09
v 0.379414201 4.22985158E-09 -0.0147663699
v 0.384438157 2.45735809E-09 -0.0105106514
v 0.384438157 0.0105106533 -1.7145434E-09
v 0.379414201 -0.0147663672 -8.17483592E-09
v 0.384438157 -0.0105106505 -4.24507363E-09
v 0.379414201 -0.0147663672 -8.17483592E-09
v 0.379414201 -8.54353921E-09 0.0147663662
v 0.384438157 -4.84069629E-09 0.0105106505
v 0.384438157 -0.0105106505 -4.24507363E-09
v 0.379414201 0.0147663699 -2.09931716E-09
v 0.384438157 0.0105106533 -1.7145434E-09
v 0.41253525 0.0160921477 -2.38418574E-09
v 0.41253525 4.8417097E-09 -0.0160921495
v 0.415698469 2.61999444E-09 -0.0115566589
v 0.415698469 0.0115566598 -1.78913595E-09
v 0.41253525 -0.0160921458 -9.6834194E-09
v 0.415698469 -0.011556657 -4.6449391E-09
v 0.41253525 -0.0160921458 -9.6834194E-09
v 0.41253525 -9.75675629E-09 0.016092144
v 0.415698469 -5.47779111E-09 0.011556657
v 0.415698469 -0.011556657 -4.6449391E-09
v 0.41253525 0.0160921477 -2.38418574E-09
v 0.415698469 0.0115566598 -1.78913595E-09
v 0.221439973 -0.0149034513 7.60324159E-09
v 0.23305352 -0.0133799678 6.92445834E-09
v 0.23305352 -9.36292022E-09 -0.0133799696
v 0.221439973 -1.03872226E-08 -0.0149034522
v 0.221439973 0.0149034532 -2.03528105E-09
v 0.23305352 0.0133799706 -2.04753348E-09
v 0.211050674 1.19209287E-09 -1.45180745E-09
v 0.221439973 -0.0149034513 7.60324159E-09
v 0.221439973 6.01135453E-09 0.0149034513
v 0.23305352 5.67808911E-09 0.0133799678
v 0.23305352 -0.0133799678 6.92445834E-09
v 0.211050674 1.19209287E-09 -1.45180745E-09
v 0.221439973 0.0149034532 -2.03528105E-09
v 0.23305352 0.0133799706 -2.04753348E-09
v 0.198245898 0.00616181502 -1.45180745E-09
v 0.174267739 0.00616181502 -1.45180745E-09
v 0.167621508 0.0120575028 -1.45180745E-09
v 0.204892129 0.0120575028 -1.45180745E-09
v 0.174267739 -0.00616181502 -1.45180745E-09
v 0.167621508 -0.0120575028 -1.45180745E-09
v 0.198245898 -0.00616181502 -1.45180745E-09
v 0.204892129 -0.0120575028 -1.45180745E-09
v 0.222196847 0 -0.00616181595
v 0.198218688 0 -0.00616181595
v 0.191572458 0 -0.0120575046
v 0.228843078 0 -0.0120575046
v 0.198218688 0 0.00616181362
v 0.191572458 0 0.0120575018
v 0.222196847 0 0.00616181362
v 0.228843078 0 0.0120575018
v 0.174352959 0 -0.00616181595
v 0.150374815 0 -0.00616181595
v 0.143728584 0 -0.0120575046
v 0.180999205 0 -0.0120575046
v 0.180999205 0 0.0120575018
v 0.174352959 0 0.00616181362
v 0.150374815 0 0.00616181362
v 0.143728584 0 0.0120575018
v -0.149755761 0.000146267514 0.0188749973
v -0.157574043 0.000146267907 -1.36469902E-09
v -0.145461053 0.0175842997 0.0145803103
v -0.151500419 0.0175843015 -3.61485375E-09
v -0.151500434 -0.0172917731 -8.91908325E-09
v -0.145461082 -0.0172917731 0.0145803159
v -0.130880743 0.0175842922 0.0206196755
v -0.130880758 0.000146255727 0.0266932808
v -0.130880758 -0.0172917824 0.0206196737
v -0.130880773 -0.0263301134 4.82316631E-09
v -0.130880743 0.0266226213 -3.32178107E-09
v -0.112005763 0.000146239443 0.0188750066
v -0.116300419 0.017584281 0.0145803224
v -0.116300456 -0.0172917955 0.0145803075
v -0.110261098 -0.0172918011 -4.33790781E-10
v -0.110261053 0.0175842717 1.29677282E-08
v -0.104187466 0.00014622818 1.34724978E-08
v -0.145461082 -0.0172917806 -0.014580315
v -0.149755731 0.000146256658 -0.0188750159
v -0.151500434 -0.0172917731 -8.91908325E-09
v -0.157574043 0.000146267907 -1.36469902E-09
v -0.145461038 0.0175842922 -0.0145803289
v -0.151500419 0.0175843015 -3.61485375E-09
v -0.130880713 0.017584281 -0.0206196811
v -0.130880728 0.000146240389 -0.0266932808
v -0.130880758 -0.0172917936 -0.0206196737
v -0.130880773 -0.0263301134 4.82316631E-09
v -0.130880743 0.0266226213 -3.32178107E-09
v -0.11200574 0.000146228587 -0.018874988
v -0.116300412 0.0175842736 -0.0145803047
v -0.116300456 -0.0172918011 -0.0145803094
v -0.110261098 -0.0172918011 -4.33790781E-10
v -0.110261053 0.0175842717 1.29677282E-08
v -0.104187466 0.00014622818 1.34724978E-08
v -0.427319646 0.0185151137 -2.37335285E-09
v -0.47154364 0.0212180447 -2.78796786E-09
v -0.47154364 -1.54362603E-08 -0.0212180465
v -0.427319646 1.82577986E-09 -0.0185151137
v -0.47154364 -0.0212180447 8.83597728E-09
v -0.427319646 -0.0185151119 -6.02491346E-09
v -0.427319646 -0.0185151119 -6.02491346E-09
v -0.47154364 -0.0212180447 8.83597728E-09
v -0.47154364 5.81197268E-09 0.0212180428
v -0.427319646 -1.02240456E-08 0.0185151119
v -0.427319646 0.0185151137 -2.37335285E-09
v -0.47154364 0.0212180447 -2.78796786E-09
v -0.253305733 -1.52481352E-08 -0.0209594555
v -0.288850158 -9.26098132E-09 -0.0118181603
v -0.288850158 -0.0118181594 5.98463634E-09
v -0.253305733 -0.0209594555 9.3025454E-09
v -0.253305733 0.0209594555 -2.17973617E-09
v -0.288850158 0.0118181594 -1.8161328E-09
v -0.288850158 -9.26098132E-09 -0.0118181603
v -0.253305733 -1.52481352E-08 -0.0209594555
v -0.23305352 0.0133799696 -2.04753348E-09
v -0.23305352 -1.05550129E-08 -0.0133799696
v -0.253305733 -0.0209594555 9.3025454E-09
v -0.23305352 -0.0133799696 6.92445834E-09
v -0.253305733 -0.0209594555 9.3025454E-09
v -0.288850158 -0.0118181594 5.98463634E-09
v -0.288850158 3.9003849E-09 0.0118181594
v -0.253305733 5.7411409E-09 0.0209594537
v -0.23305352 -0.0133799696 6.92445834E-09
v -0.23305352 4.48599602E-09 0.0133799678
v -0.253305733 0.0209594555 -2.17973617E-09
v -0.288850158 0.0118181594 -1.8161328E-09
v -0.23305352 0.0133799696 -2.04753348E-09
v -0.41253525 0.0160921458 -2.38418574E-09
v -0.384438157 0.0105106514 -1.7145434E-09
v -0.384438157 -6.03278894E-09 0.0105106505
v -0.41253525 -1.09488498E-08 0.016092144
v -0.384438157 -0.0105106514 -4.24507363E-09
v -0.41253525 -0.0160921458 -9.6834194E-09
v -0.41253525 -0.0160921458 -9.6834194E-09
v -0.384438157 -0.0105106514 -4.24507363E-09
v -0.384438157 1.26526511E-09 -0.0105106514
v -0.41253525 3.64961683E-09 -0.0160921495
v -0.41253525 0.0160921458 -2.38418574E-09
v -0.384438157 0.0105106514 -1.7145434E-09
v -0.427319646 0.0185151137 -2.37335285E-09
v -0.415698469 0.0115566589 -1.78913595E-09
v -0.415698469 -6.66988376E-09 0.011556657
v -0.427319646 -1.02240456E-08 0.0185151119
v -0.427319646 -0.0185151119 -6.02491346E-09
v -0.415698469 -0.0115566589 -4.6449391E-09
v -0.427319646 -0.0185151119 -6.02491346E-09
v -0.415698469 -0.0115566589 -4.6449391E-09
v -0.415698469 1.42790157E-09 -0.0115566589
v -0.427319646 1.82577986E-09 -0.0185151137
v -0.427319646 0.0185151137 -2.37335285E-09
v -0.415698469 0.0115566589 -1.78913595E-09
v -0.379414201 0.0147663681 -2.09931716E-09
v -0.384438157 0.0105106514 -1.7145434E-09
v -0.384438157 1.26526511E-09 -0.0105106514
v -0.379414201 3.03775893E-09 -0.0147663699
v -0.379414201 -0.0147663681 -8.17483592E-09
v -0.384438157 -0.0105106514 -4.24507363E-09
v -0.379414201 -0.0147663681 -8.17483592E-09
v -0.384438157 -0.0105106514 -4.24507363E-09
v -0.384438157 -6.03278894E-09 0.0105106505
v -0.379414201 -9.73563274E-09 0.0147663662
v -0.379414201 0.0147663681 -2.09931716E-09
v -0.384438157 0.0105106514 -1.7145434E-09
v -0.41253525 0.0160921458 -2.38418574E-09
v -0.415698469 0.0115566589 -1.78913595E-09
v -0.415698469 1.42790157E-09 -0.0115566589
v -0.41253525 3.64961683E-09 -0.0160921495
v -0.41253525 -0.0160921458 -9.6834194E-09
v -0.415698469 -0.0115566589 -4.6449391E-09
v -0.41253525 -0.0160921458 -9.6834194E-09
v -0.415698469 -0.0115566589 -4.6449391E-09
v -0.415698469 -6.66988376E-09 0.011556657
v -0.41253525 -1.09488498E-08 0.016092144
v -0.41253525 0.0160921458 -2.38418574E-09
v -0.415698469 0.0115566589 -1.78913595E-09
v -0.335172355 0.0118181594 -1.8161328E-09
v -0.335172355 -6.82080881E-09 0.0118181594
v -0.379414201 -9.73563274E-09 0.0147663662
v -0.379414201 0.0147663681 -2.09931716E-09
v -0.335172355 -0.0118181594 -4.73655692E-09
v -0.379414201 -0.0147663681 -8.17483592E-09
v -0.288850158 0.0118181594 -1.8161328E-09
v -0.288850158 3.9003849E-09 0.0118181594
v -0.288850158 -0.0118181594 5.98463634E-09
v -0.335172355 -0.0118181594 -4.73655692E-09
v -0.335172355 1.46021195E-09 -0.0118181603
v -0.379414201 3.03775893E-09 -0.0147663699
v -0.379414201 -0.0147663681 -8.17483592E-09
v -0.288850158 -0.0118181594 5.98463634E-09
v -0.288850158 -9.26098132E-09 -0.0118181603
v -0.335172355 0.0118181594 -1.8161328E-09
v -0.288850158 0.0118181594 -1.8161328E-09
v -0.379414201 0.0147663681 -2.09931716E-09
v -0.221439973 -0.0149034522 7.60324159E-09
v -0.221439973 -1.15793153E-08 -0.0149034522
v -0.23305352 -1.05550129E-08 -0.0133799696
v -0.23305352 -0.0133799696 6.92445834E-09
v -0.221439973 0.0149034522 -2.03528105E-09
v -0.23305352 0.0133799696 -2.04753348E-09
v -0.211050674 0 -1.45180745E-09
v -0.221439973 -0.0149034522 7.60324159E-09
v -0.23305352 -0.0133799696 6.92445834E-09
v -0.23305352 4.48599602E-09 0.0133799678
v -0.221439973 4.81926188E-09 0.0149034513
v -0.211050674 0 -1.45180745E-09
v -0.221439973 0.0149034522 -2.03528105E-09
v -0.23305352 0.0133799696 -2.04753348E-09
v -0.198245898 0.00616181502 -1.45180745E-09
v -0.204892129 0.0120575028 -1.45180745E-09
v -0.167621508 0.0120575028 -1.45180745E-09
v -0.174267739 0.00616181502 -1.45180745E-09
v -0.174267739 -0.00616181502 -1.45180745E-09
v -0.167621508 -0.0120575028 -1.45180745E-09
v -0.198245898 -0.00616181502 -1.45180745E-09
v -0.204892129 -0.0120575028 -1.45180745E-09
v -0.222196847 0 -0.00616181595
v -0.228843078 0 -0.0120575046
v -0.191572458 0 -0.0120575046
v -0.198218688 0 -0.00616181595
v -0.198218688 0 0.00616181362
v -0.191572458 0 0.0120575018
v -0.222196847 0 0.00616181362
v -0.228843078 0 0.0120575018
v -0.174352959 0 -0.00616181595
v -0.180999205 0 -0.0120575046
v -0.143728584 0 -0.0120575046
v -0.150374815 0 -0.00616181595
v -0.180999205 0 0.0120575018
v -0.174352959 0 0.00616181362
v -0.150374815 0 0.00616181362
v -0.143728584 0 0.0120575018
v -0.507576108 0 -0.0479025915
v -0.507576108 0.0338722467 -0.0338722467
v -0.541448295 -7.52115047E-18 -0.0338722467
v -0.541448295 0.0338722467 0
v -0.507576108 0.0479025915 0
v -0.507576108 -0.0338722467 -0.0338722467
v -0.541448295 -0.0338722505 0
v -0.507576108 -0.047902599 0
v -0.473703802 7.52115047E-18 -0.0338722467
v -0.473703802 0.0338722467 0
v -0.473703802 -0.0338722505 0
v -0.555478692 -1.06365137E-17 0
v -0.459673494 1.06365137E-17 0
v -0.507576108 0.0479025915 0
v -0.507576108 0.0338722467 0.0338722467
v -0.541448295 0.0338722467 0
v -0.541448295 -7.52115047E-18 0.0338722467
v -0.507576108 0 0.047902599
v -0.507576108 -0.0338722505 0.0338722505
v -0.541448295 -0.0338722505 0
v -0.507576108 -0.047902599 0
v -0.473703802 0.0338722467 0
v -0.473703802 7.52115047E-18 0.0338722467
v -0.473703802 -0.0338722505 0
v -0.555478692 -1.06365137E-17 0
v -0.459673494 1.06365137E-17 0
vt 0.581416249 0.141125679
vt 0.417097569 0.141125619
vt 0.417097569 0.0794567466
vt 0.581416488 0.0794566274
vt 0.581416368 0.202794492
vt 0.417097569 0.202794611
vt 0.581416368 0.264463544
vt 0.417097628 0.264463544
vt 0.417097569 0.0177879333
vt 0.581416607 0.0177879333
vt 0.581416368 0.202794492
vt 0.417097598 0.202794641
vt 0.417097628 0.264463544
vt 0.581416488 0.264463544
vt 0.581416249 0.141125679
vt 0.417097569 0.141125679
vt 0.581416488 0.0794566274
vt 0.417097569 0.0794567466
vt 0.581416607 0.0177879333
vt 0.417097569 0.0177879333
vt 0.624934435 0.986240864
vt 0.624934435 0.915835083
vt 0.852488756 0.933436632
vt 0.817286015 0.819659412
vt 0.958097398 0.819659412
vt 0.624934435 0.819659412
vt 0.958097398 0.819659412
vt 0.817286015 0.819659412
vt 0.852488756 0.933436632
vt 0.624934435 0.915835202
vt 0.624934435 0.986240804
vt 0.624934435 0.819659412
vt 0.624934077 0.986240804
vt 0.624934077 0.915835202
vt 0.852488935 0.933436632
vt 0.817286134 0.819659412
vt 0.958097219 0.819659412
vt 0.624934077 0.819659412
vt 0.958097219 0.819659412
vt 0.817286134 0.819659412
vt 0.852488935 0.933436632
vt 0.624934077 0.915835083
vt 0.624934077 0.986240923
vt 0.624934077 0.819659412
vt 0.844979942 0.949250758
vt 0.84974575 0.977255166
vt 0.983703136 0.977255166
vt 0.988470197 0.949250877
vt 0.916724741 0.988313377
vt 0.988470435 0.949250758
vt 0.844979763 0.949250758
vt 0.849746943 0.977255166
vt 0.98370409 0.977255046
vt 0.916725099 0.988313258
vt 0.988470078 0.949250758
vt 0.844979584 0.949250758
vt 0.849746585 0.977255166
vt 0.983703852 0.977255046
vt 0.91672498 0.988313258
vt 0.844979763 0.949250758
vt 0.84974581 0.977255046
vt 0.983703375 0.977255046
vt 0.988470197 0.949250758
vt 0.916724861 0.988313258
vt 0.988469839 0.949250758
vt 0.844979405 0.949250758
vt 0.849746227 0.977255166
vt 0.983703732 0.977255046
vt 0.916724741 0.988313258
vt 0.844979405 0.949250638
vt 0.84974575 0.977255166
vt 0.983703256 0.977255166
vt 0.988470078 0.949250758
vt 0.916724503 0.988313258
vt 0.98846972 0.949250877
vt 0.844979405 0.949250758
vt 0.849746525 0.977255046
vt 0.983703732 0.977255046
vt 0.916724861 0.988313258
vt 0.844979405 0.949250758
vt 0.849745631 0.977255046
vt 0.98370266 0.977255046
vt 0.988469839 0.949250877
vt 0.916724503 0.988313258
vt 0.988470078 0.949250877
vt 0.844979525 0.949250877
vt 0.849746406 0.977255285
vt 0.983703852 0.977255285
vt 0.916724861 0.988313377
vt 0.844979525 0.949250877
vt 0.849745631 0.977255166
vt 0.983703256 0.977255166
vt 0.988470078 0.949250877
vt 0.916724622 0.988313377
vt 0.988470197 0.949250877
vt 0.844979703 0.949250877
vt 0.849746585 0.977255166
vt 0.983703852 0.977255166
vt 0.91672498 0.988313377
vt 0.844979584 0.949250758
vt 0.84974581 0.977255285
vt 0.983703136 0.977255285
vt 0.988470197 0.949250877
vt 0.916724622 0.988313377
vt 0.581416249 0.141125679
vt 0.581416488 0.0794566274
vt 0.417097569 0.0794567466
vt 0.417097569 0.141125619
vt 0.581416368 0.202794492
vt 0.417097569 0.202794611
vt 0.581416368 0.264463544
vt 0.417097628 0.264463544
vt 0.417097569 0.0177879333
vt 0.581416607 0.0177879333
vt 0.581416368 0.202794492
vt 0.581416488 0.264463544
vt 0.417097628 0.264463544
vt 0.417097598 0.202794641
vt 0.581416249 0.141125679
vt 0.417097569 0.141125679
vt 0.581416488 0.0794566274
vt 0.417097569 0.0794567466
vt 0.581416607 0.0177879333
vt 0.417097569 0.0177879333
vt 0.624934435 0.986240864
vt 0.852488756 0.933436632
vt 0.624934435 0.915835083
vt 0.817286015 0.819659412
vt 0.958097398 0.819659412
vt 0.624934435 0.819659412
vt 0.958097398 0.819659412
vt 0.852488756 0.933436632
vt 0.817286015 0.819659412
vt 0.624934435 0.915835202
vt 0.624934435 0.986240804
vt 0.624934435 0.819659412
vt 0.624934077 0.986240804
vt 0.852488935 0.933436632
vt 0.624934077 0.915835202
vt 0.817286134 0.819659412
vt 0.958097219 0.819659412
vt 0.624934077 0.819659412
vt 0.958097219 0.819659412
vt 0.852488935 0.933436632
vt 0.817286134 0.819659412
vt 0.624934077 0.915835083
vt 0.624934077 0.986240923
vt 0.624934077 0.819659412
vt 0.844979942 0.949250758
vt 0.988470197 0.949250877
vt 0.983703136 0.977255166
vt 0.84974575 0.977255166
vt 0.916724741 0.988313377
vt 0.988470435 0.949250758
vt 0.98370409 0.977255046
vt 0.849746943 0.977255166
vt 0.844979763 0.949250758
vt 0.916725099 0.988313258
vt 0.988470078 0.949250758
vt 0.983703852 0.977255046
vt 0.849746585 0.977255166
vt 0.844979584 0.949250758
vt 0.91672498 0.988313258
vt 0.844979763 0.949250758
vt 0.988470197 0.949250758
vt 0.983703375 0.977255046
vt 0.84974581 0.977255046
vt 0.916724861 0.988313258
vt 0.988469839 0.949250758
vt 0.983703732 0.977255046
vt 0.849746227 0.977255166
vt 0.844979405 0.949250758
vt 0.916724741 0.988313258
vt 0.844979405 0.949250638
vt 0.988470078 0.949250758
vt 0.983703256 0.977255166
vt 0.84974575 0.977255166
vt 0.916724503 0.988313258
vt 0.98846972 0.949250877
vt 0.983703732 0.977255046
vt 0.849746525 0.977255046
vt 0.844979405 0.949250758
vt 0.916724861 0.988313258
vt 0.844979405 0.949250758
vt 0.988469839 0.949250877
vt 0.98370266 0.977255046
vt 0.849745631 0.977255046
vt 0.916724503 0.988313258
vt 0.988470078 0.949250877
vt 0.983703852 0.977255285
vt 0.849746406 0.977255285
vt 0.844979525 0.949250877
vt 0.916724861 0.988313377
vt 0.844979525 0.949250877
vt 0.988470078 0.949250877
vt 0.983703256 0.977255166
vt 0.849745631 0.977255166
vt 0.916724622 0.988313377
vt 0.988470197 0.949250877
vt 0.983703852 0.977255166
vt 0.849746585 0.977255166
vt 0.844979703 0.949250877
vt 0.91672498 0.988313377
vt 0.844979584 0.949250758
vt 0.988470197 0.949250877
vt 0.983703136 0.977255285
vt 0.84974581 0.977255285
vt 0.916724622 0.988313377
vt 0.175316542 0.610478997
vt 0.297702223 0.61141783
vt 0.18498823 0.662940502
vt 0.297695905 0.668717802
vt 0.0580123961 0.631940842
vt 0.115514308 0.696943521
vt 0.219700843 0.717727661
vt 0.297694236 0.729163289
vt 0.0873189867 0.558077812
vt 0.181940168 0.572415948
vt 0.213440448 0.512010336
vt 0.297696263 0.560543537
vt 0.29769519 0.505068779
vt 0.410407513 0.662941933
vt 0.420079798 0.610478997
vt 0.537385345 0.631940246
vt 0.479881555 0.696946084
vt 0.375688463 0.717729032
vt 0.381947905 0.512010574
vt 0.413455039 0.572415709
vt 0.508072257 0.558075607
vt 0.105086587 0.954709589
vt 0.199969262 0.897319555
vt 0.0338188112 0.881901801
vt 0.224067837 0.982090116
vt 0.29666391 0.904756904
vt 0.29666391 0.991380036
vt 0.29666391 0.849352002
vt 0.185193568 0.851376176
vt 0.0659054816 0.799187779
vt 0.192328602 0.816775024
vt 0.181420475 0.748910189
vt 0.29666391 0.806863308
vt 0.29666391 0.737317264
vt 0.369259983 0.982090116
vt 0.393358558 0.897319555
vt 0.488241225 0.954709589
vt 0.559509039 0.881901801
vt 0.411907464 0.748910189
vt 0.400999278 0.816775024
vt 0.527422309 0.799187839
vt 0.408134311 0.851376176
vt 0.35149157 0.38448441
vt 0.35201183 0.413975209
vt 0.387809932 0.38448444
vt 0.377141088 0.413975239
vt 0.377141058 0.354993671
vt 0.35201183 0.354993671
vt 0.297523826 0.413975239
vt 0.294232547 0.38448444
vt 0.297523946 0.354993641
vt 0.297523975 0.339708209
vt 0.297523826 0.429260671
vt 0.233682007 0.38448438
vt 0.248208091 0.413975149
vt 0.24820812 0.354993671
vt 0.227780968 0.354993582
vt 0.227780864 0.413975179
vt 0.207237825 0.38448441
vt 0.35201183 0.354993671
vt 0.377141058 0.354993671
vt 0.351491332 0.38448447
vt 0.387809932 0.38448444
vt 0.35201177 0.413975239
vt 0.377141088 0.413975239
vt 0.297523797 0.413975149
vt 0.294232368 0.38448441
vt 0.297523946 0.354993641
vt 0.297523975 0.339708209
vt 0.297523826 0.429260671
vt 0.233681947 0.38448441
vt 0.248208031 0.413975179
vt 0.24820821 0.354993582
vt 0.227780968 0.354993582
vt 0.227780864 0.413975179
vt 0.207237825 0.38448441
vt 0.597725034 0.180305228
vt 0.795202255 0.180305138
vt 0.795202255 0.00248008966
vt 0.597725034 0.00248011947
vt 0.992679715 0.00248011947
vt 0.992679477 0.180305168
vt 0.597725034 0.350144267
vt 0.795202255 0.350144237
vt 0.992679715 0.350144267
vt 0.992679477 0.180305168
vt 0.795202255 0.180305138
vt 0.795202255 0.00248008966
vt 0.992679715 0.00248011947
vt 0.992679715 0.350144267
vt 0.795202255 0.350144237
vt 0.597725034 0.180305228
vt 0.597725034 0.00248011947
vt 0.597725034 0.350144267
vt 0.597725034 0.534047246
vt 0.795202255 0.534047246
vt 0.795202374 0.703817666
vt 0.597725034 0.703817606
vt 0.992679715 0.703817725
vt 0.992679477 0.534047127
vt 0.992679477 0.534047127
vt 0.795202255 0.534047246
vt 0.795202374 0.703817666
vt 0.992679715 0.703817725
vt 0.597725034 0.534047246
vt 0.597725034 0.703817606
vt 0.206409454 0.319777489
vt 0.403886676 0.319777429
vt 0.403886914 0.18332687
vt 0.206409454 0.1833269
vt 0.00893223286 0.18332687
vt 0.206409454 0.18332684
vt 0.206409454 0.319777429
vt 0.00893199444 0.319777489
vt 0.00893199444 0.105581053
vt 0.206409454 0.10558106
vt 0.403886676 0.1833269
vt 0.403886676 0.105581097
vt 0.403886676 0.1833269
vt 0.206409454 0.183326855
vt 0.206409454 0.319777429
vt 0.403886914 0.319777459
vt 0.403886676 0.105581097
vt 0.206409454 0.10558106
vt 0.00893199444 0.18332684
vt 0.00893223286 0.319777459
vt 0.00893199444 0.105581053
vt 0.597725034 0.477291822
vt 0.795202374 0.477291822
vt 0.795202255 0.369430661
vt 0.597724795 0.369430661
vt 0.992679715 0.369430661
vt 0.992679715 0.477291822
vt 0.992679715 0.477291822
vt 0.795202374 0.477291822
vt 0.795202255 0.369430661
vt 0.992679715 0.369430661
vt 0.597725034 0.477291822
vt 0.597724795 0.369430661
vt 0.597725034 0.534047246
vt 0.795202255 0.534047246
vt 0.795202255 0.489435077
vt 0.597724795 0.489435077
vt 0.992679477 0.534047127
vt 0.992679715 0.489435077
vt 0.992679477 0.534047127
vt 0.795202255 0.534047246
vt 0.795202255 0.489435077
vt 0.992679715 0.489435077
vt 0.597725034 0.534047246
vt 0.597724795 0.489435077
vt 0.597725034 0.350144267
vt 0.795202255 0.350144237
vt 0.795202255 0.369430661
vt 0.597724795 0.369430661
vt 0.992679715 0.350144267
vt 0.992679715 0.369430661
vt 0.992679715 0.350144267
vt 0.795202255 0.350144237
vt 0.795202255 0.369430661
vt 0.992679715 0.369430661
vt 0.597725034 0.350144267
vt 0.597724795 0.369430661
vt 0.597725034 0.477291822
vt 0.795202374 0.477291822
vt 0.795202255 0.489435077
vt 0.597724795 0.489435077
vt 0.992679715 0.477291822
vt 0.992679715 0.489435077
vt 0.992679715 0.477291822
vt 0.795202374 0.477291822
vt 0.795202255 0.489435077
vt 0.992679715 0.489435077
vt 0.597725034 0.477291822
vt 0.597724795 0.489435077
vt 0.403886676 0.060998112
vt 0.403886676 0.105581097
vt 0.206409454 0.10558106
vt 0.206409454 0.0609981269
vt 0.00893211365 0.060998112
vt 0.00893199444 0.105581053
vt 0.206409335 0.00520172575
vt 0.403886676 0.060998112
vt 0.206409454 0.0609981269
vt 0.206409454 0.10558106
vt 0.403886676 0.105581097
vt 0.206409335 0.00520172575
vt 0.00893211365 0.060998112
vt 0.00893199444 0.105581053
vt 0.542087555 0.393417001
vt 0.542087615 0.473866493
vt 0.581648946 0.496165365
vt 0.581648827 0.371118188
vt 0.459393203 0.473866493
vt 0.419831723 0.496165365
vt 0.459393024 0.393417001
vt 0.419831753 0.371118188
vt 0.542087495 0.393417001
vt 0.542087555 0.473866493
vt 0.581648886 0.496165365
vt 0.581648886 0.371118188
vt 0.459393203 0.473866493
vt 0.419831723 0.496165365
vt 0.459393173 0.393417001
vt 0.419831753 0.371118158
vt 0.542087495 0.393417001
vt 0.542087555 0.473866493
vt 0.581648886 0.496165365
vt 0.581648886 0.371118188
vt 0.419831753 0.371118158
vt 0.459393173 0.393417001
vt 0.459393203 0.473866493
vt 0.419831723 0.496165365
vt 0.35149157 0.38448441
vt 0.387809932 0.38448444
vt 0.35201183 0.413975209
vt 0.377141088 0.413975239
vt 0.377141058 0.354993671
vt 0.35201183 0.354993671
vt 0.297523826 0.413975239
vt 0.294232547 0.38448444
vt 0.297523946 0.354993641
vt 0.297523975 0.339708209
vt 0.297523826 0.429260671
vt 0.233682007 0.38448438
vt 0.248208091 0.413975149
vt 0.24820812 0.354993671
vt 0.227780968 0.354993582
vt 0.227780864 0.413975179
vt 0.207237825 0.38448441
vt 0.35201183 0.354993671
vt 0.351491332 0.38448447
vt 0.377141058 0.354993671
vt 0.387809932 0.38448444
vt 0.35201177 0.413975239
vt 0.377141088 0.413975239
vt 0.297523797 0.413975149
vt 0.294232368 0.38448441
vt 0.297523946 0.354993641
vt 0.297523975 0.339708209
vt 0.297523826 0.429260671
vt 0.233681947 0.38448441
vt 0.248208031 0.413975179
vt 0.24820821 0.354993582
vt 0.227780968 0.354993582
vt 0.227780864 0.413975179
vt 0.207237825 0.38448441
vt 0.597725034 0.534047246
vt 0.597725034 0.703817606
vt 0.795202374 0.703817666
vt 0.795202255 0.534047246
vt 0.992679715 0.703817725
vt 0.992679477 0.534047127
vt 0.992679477 0.534047127
vt 0.992679715 0.703817725
vt 0.795202374 0.703817666
vt 0.795202255 0.534047246
vt 0.597725034 0.534047246
vt 0.597725034 0.703817606
vt 0.206409454 0.319777489
vt 0.206409454 0.1833269
vt 0.403886914 0.18332687
vt 0.403886676 0.319777429
vt 0.00893223286 0.18332687
vt 0.00893199444 0.319777489
vt 0.206409454 0.319777429
vt 0.206409454 0.18332684
vt 0.00893199444 0.105581053
vt 0.206409454 0.10558106
vt 0.403886676 0.1833269
vt 0.403886676 0.105581097
vt 0.403886676 0.1833269
vt 0.403886914 0.319777459
vt 0.206409454 0.319777429
vt 0.206409454 0.183326855
vt 0.403886676 0.105581097
vt 0.206409454 0.10558106
vt 0.00893199444 0.18332684
vt 0.00893223286 0.319777459
vt 0.00893199444 0.105581053
vt 0.597725034 0.477291822
vt 0.597724795 0.369430661
vt 0.795202255 0.369430661
vt 0.795202374 0.477291822
vt 0.992679715 0.369430661
vt 0.992679715 0.477291822
vt 0.992679715 0.477291822
vt 0.992679715 0.369430661
vt 0.795202255 0.369430661
vt 0.795202374 0.477291822
vt 0.597725034 0.477291822
vt 0.597724795 0.369430661
vt 0.597725034 0.534047246
vt 0.597724795 0.489435077
vt 0.795202255 0.489435077
vt 0.795202255 0.534047246
vt 0.992679477 0.534047127
vt 0.992679715 0.489435077
vt 0.992679477 0.534047127
vt 0.992679715 0.489435077
vt 0.795202255 0.489435077
vt 0.795202255 0.534047246
vt 0.597725034 0.534047246
vt 0.597724795 0.489435077
vt 0.597725034 0.350144267
vt 0.597724795 0.369430661
vt 0.795202255 0.369430661
vt 0.795202255 0.350144237
vt 0.992679715 0.350144267
vt 0.992679715 0.369430661
vt 0.992679715 0.350144267
vt 0.992679715 0.369430661
vt 0.795202255 0.369430661
vt 0.795202255 0.350144237
vt 0.597725034 0.350144267
vt 0.597724795 0.369430661
vt 0.597725034 0.477291822
vt 0.597724795 0.489435077
vt 0.795202255 0.489435077
vt 0.795202374 0.477291822
vt 0.992679715 0.477291822
vt 0.992679715 0.489435077
vt 0.992679715 0.477291822
vt 0.992679715 0.489435077
vt 0.795202255 0.489435077
vt 0.795202374 0.477291822
vt 0.597725034 0.477291822
vt 0.597724795 0.489435077
vt 0.597725034 0.180305228
vt 0.795202255 0.180305138
vt 0.795202255 0.350144237
vt 0.597725034 0.350144267
vt 0.992679477 0.180305168
vt 0.992679715 0.350144267
vt 0.597725034 0.00248011947
vt 0.795202255 0.00248008966
vt 0.992679715 0.00248011947
vt 0.992679477 0.180305168
vt 0.795202255 0.180305138
vt 0.795202255 0.350144237
vt 0.992679715 0.350144267
vt 0.992679715 0.00248011947
vt 0.795202255 0.00248008966
vt 0.597725034 0.180305228
vt 0.597725034 0.00248011947
vt 0.597725034 0.350144267
vt 0.403886676 0.060998112
vt 0.206409454 0.0609981269
vt 0.206409454 0.10558106
vt 0.403886676 0.105581097
vt 0.00893211365 0.060998112
vt 0.00893199444 0.105581053
vt 0.206409335 0.00520172575
vt 0.403886676 0.060998112
vt 0.403886676 0.105581097
vt 0.206409454 0.10558106
vt 0.206409454 0.0609981269
vt 0.206409335 0.00520172575
vt 0.00893211365 0.060998112
vt 0.00893199444 0.105581053
vt 0.542087555 0.393417001
vt 0.581648827 0.371118188
vt 0.581648946 0.496165365
vt 0.542087615 0.473866493
vt 0.459393203 0.473866493
vt 0.419831723 0.496165365
vt 0.459393024 0.393417001
vt 0.419831753 0.371118188
vt 0.542087495 0.393417001
vt 0.581648886 0.371118188
vt 0.581648886 0.496165365
vt 0.542087555 0.473866493
vt 0.459393203 0.473866493
vt 0.419831723 0.496165365
vt 0.459393173 0.393417001
vt 0.419831753 0.371118158
vt 0.542087495 0.393417001
vt 0.581648886 0.371118188
vt 0.581648886 0.496165365
vt 0.542087555 0.473866493
vt 0.419831753 0.371118158
vt 0.459393173 0.393417001
vt 0.459393203 0.473866493
vt 0.419831723 0.496165365
vt 0.123595484 0.445572287
vt 0.123595484 0.480659813
vt 0.0534203947 0.445572287
vt 0.0534203947 0.480659813
vt 0.123595484 0.495193541
vt 0.123595484 0.410484761
vt 0.0534203947 0.410484761
vt 0.123595484 0.395951033
vt 0.193770647 0.445572287
vt 0.193770647 0.480659813
vt 0.193770647 0.410484761
vt 0.0243529081 0.445572287
vt 0.222838044 0.445572287
vt 0.123595484 0.495193541
vt 0.123595484 0.480659813
vt 0.0534203947 0.480659813
vt 0.0534203947 0.445572287
vt 0.123595484 0.445572287
vt 0.123595484 0.410484761
vt 0.0534203947 0.410484761
vt 0.123595484 0.395951033
vt 0.193770647 0.480659813
vt 0.193770647 0.445572287
vt 0.193770647 0.410484761
vt 0.0243529081 0.445572287
vt 0.222838044 0.445572287
vn -1.26366089E-07 -0.286471546 -0.958088756
vn -1.96623304E-07 -0.392250985 -0.919858277
vn 0.685016751 -0.222359896 -0.693763733
vn 0.652988553 -0.0953917131 -0.751336396
vn -0.652988553 -0.0953916609 -0.751336396
vn -0.685017288 -0.222359717 -0.693763375
vn -0.933414519 0.283993244 -0.219283208
vn -0.967802823 0.199230358 -0.15383403
vn 0.967802942 0.199229702 -0.153834462
vn 0.933414638 0.283992887 -0.219283193
vn -0.652988851 0.702766597 0.282355696
vn -0.685017169 0.614947021 0.390629649
vn -0.967802823 0.199230358 -0.15383403
vn -0.933414519 0.283993244 -0.219283208
vn 1.579577E-07 0.854456306 0.519523263
vn 1.57298714E-07 0.790710032 0.612190843
vn 0.652988791 0.702766478 0.282355934
vn 0.685017586 0.614946604 0.390629888
vn 0.933414638 0.283992887 -0.219283193
vn 0.967802942 0.199229702 -0.153834462
vn -1.26366089E-07 -0.286471546 -0.958088756
vn -0 0.361079842 -0.932534873
vn -0.652988553 -0.0953916609 -0.751336396
vn -0.517432153 0.677313328 -0.522982538
vn -0.933414519 0.283993244 -0.219283208
vn -1.51260267E-07 0.791508675 -0.611157954
vn -0.933414519 0.283993244 -0.219283208
vn -0.517432153 0.677313328 -0.522982538
vn -0.652988851 0.702766597 0.282355696
vn -0 0.99354589 -0.113430597
vn 1.579577E-07 0.854456306 0.519523263
vn -1.51260267E-07 0.791508675 -0.611157954
vn 1.579577E-07 0.854456306 0.519523263
vn -0 0.99354589 -0.113430597
vn 0.652988791 0.702766478 0.282355934
vn 0.517431855 0.677313626 -0.522982299
vn 0.933414638 0.283992887 -0.219283193
vn -1.51260267E-07 0.791508675 -0.611157954
vn 0.933414638 0.283992887 -0.219283193
vn 0.517431855 0.677313626 -0.522982299
vn 0.652988553 -0.0953917131 -0.751336396
vn -0 0.361079842 -0.932534873
vn -1.26366089E-07 -0.286471546 -0.958088756
vn -1.51260267E-07 0.791508675 -0.611157954
vn -0.0885064751 0.945664227 -0.312867075
vn -0.0885064229 0.945664227 -0.312866986
vn -0.0885064378 0.945664227 -0.312866986
vn -0.08850649 0.945664227 -0.312867105
vn -0.0885054693 0.945665061 -0.312864691
vn 0.0885063708 0.945664287 -0.312866926
vn 0.0885063782 0.945664287 -0.312866896
vn 0.0885063559 0.945664346 -0.312866837
vn 0.0885063559 0.945664346 -0.312866837
vn 0.0885054246 0.94566524 -0.312864304
vn 0.330313683 0.797882199 -0.504258692
vn 0.330313683 0.797882199 -0.504258752
vn 0.330313474 0.797882378 -0.504258513
vn 0.330313474 0.797882438 -0.504258513
vn 0.330308169 0.797887444 -0.504254162
vn 0.241806433 0.891572833 -0.382919669
vn 0.241806433 0.891572833 -0.382919848
vn 0.241806433 0.891572833 -0.382919818
vn 0.241806448 0.891572893 -0.382919639
vn 0.241806954 0.891570747 -0.382924289
vn 0.241806597 0.596011102 -0.765702546
vn 0.241806611 0.596011102 -0.765702486
vn 0.241806597 0.596010745 -0.765702784
vn 0.241806582 0.596010745 -0.765702784
vn 0.241806328 0.596003652 -0.765708387
vn 0.330310971 0.689701855 -0.644364834
vn 0.33031103 0.689701617 -0.644365013
vn 0.33031103 0.689701617 -0.644365013
vn 0.330311 0.689701855 -0.644364834
vn 0.330312431 0.689696848 -0.644369364
vn -0.0885064751 0.541916728 -0.835758865
vn -0.0885064751 0.541916788 -0.835758865
vn -0.0885064825 0.541916966 -0.835758746
vn -0.0885064751 0.541916966 -0.835758686
vn -0.0885060057 0.541921675 -0.835755706
vn 0.0885066614 0.541915953 -0.835759342
vn 0.088506639 0.541916072 -0.835759223
vn 0.0885066465 0.541916132 -0.835759223
vn 0.0885066465 0.541915953 -0.835759342
vn 0.0885060355 0.541920185 -0.83575666
vn -0.330311596 0.689700961 -0.644365549
vn -0.330311596 0.689700961 -0.644365549
vn -0.330311805 0.689700365 -0.644365966
vn -0.330311805 0.689700305 -0.644365966
vn -0.330318063 0.689685225 -0.644378901
vn -0.241806597 0.596011043 -0.765702486
vn -0.241806522 0.596011043 -0.765702546
vn -0.241806522 0.596011102 -0.765702546
vn -0.241806597 0.596011043 -0.765702486
vn -0.241804749 0.596010745 -0.76570344
vn -0.241806895 0.891572475 -0.382920355
vn -0.241806895 0.891572475 -0.382920355
vn -0.241806924 0.891572416 -0.382920444
vn -0.24180688 0.891572416 -0.382920444
vn -0.241807356 0.891571164 -0.382923037
vn -0.330311596 0.797885299 -0.504255235
vn -0.330311805 0.797884941 -0.504255652
vn -0.330311805 0.797884881 -0.504255712
vn -0.330311567 0.797885239 -0.504255295
vn -0.330317438 0.797875285 -0.504267216
vn -1.7901867E-07 -0.286471248 0.958088815
vn 0.652988553 -0.0953915939 0.751336396
vn 0.685016692 -0.222359672 0.693763852
vn -2.16285713E-07 -0.392250538 0.919858396
vn -0.652988613 -0.0953912959 0.751336455
vn -0.685017169 -0.222359478 0.693763435
vn -0.933414578 0.283993095 0.219283208
vn -0.967802823 0.199230343 0.15383406
vn 0.967802942 0.199229717 0.153834492
vn 0.933414936 0.283991992 0.219283298
vn -0.652988672 0.702766597 -0.282355905
vn -0.933414578 0.283993095 0.219283208
vn -0.967802823 0.199230343 0.15383406
vn -0.685017288 0.614946902 -0.390629739
vn -1.12325445E-07 0.854456246 -0.519523323
vn -0 0.790710151 -0.612190723
vn 0.652988791 0.702766538 -0.282355815
vn 0.685017586 0.614946723 -0.39062956
vn 0.933414936 0.283991992 0.219283298
vn 0.967802942 0.199229717 0.153834492
vn -1.7901867E-07 -0.286471248 0.958088815
vn -0.652988613 -0.0953912959 0.751336455
vn -0 0.361080319 0.932534754
vn -0.517431498 0.677313924 0.522982299
vn -0.933414578 0.283993095 0.219283208
vn -0 0.791509032 0.611157477
vn -0.933414578 0.283993095 0.219283208
vn -0.652988672 0.702766597 -0.282355905
vn -0.517431498 0.677313924 0.522982299
vn -2.90376647E-07 0.99354589 0.113430537
vn -1.12325445E-07 0.854456246 -0.519523323
vn -0 0.791509032 0.611157477
vn -1.12325445E-07 0.854456246 -0.519523323
vn 0.652988791 0.702766538 -0.282355815
vn -2.90376647E-07 0.99354589 0.113430537
vn 0.517432272 0.677312911 0.522982776
vn 0.933414936 0.283991992 0.219283298
vn -0 0.791509032 0.611157477
vn 0.933414936 0.283991992 0.219283298
vn 0.652988553 -0.0953915939 0.751336396
vn 0.517432272 0.677312911 0.522982776
vn -0 0.361080319 0.932534754
vn -1.7901867E-07 -0.286471248 0.958088815
vn -0 0.791509032 0.611157477
vn -0.0885063708 0.945664287 0.312866926
vn -0.0885063782 0.945664287 0.312866896
vn -0.0885063559 0.945664346 0.312866837
vn -0.0885063559 0.945664346 0.312866837
vn -0.0885054246 0.94566524 0.312864304
vn 0.0885063112 0.945664406 0.312866449
vn 0.0885062739 0.945664465 0.31286639
vn 0.0885062739 0.945664465 0.31286642
vn 0.0885062963 0.945664406 0.312866449
vn 0.0885054693 0.945665061 0.312864691
vn 0.330312163 0.797884524 0.50425607
vn 0.330312103 0.797884464 0.504256129
vn 0.330312163 0.797884464 0.504256189
vn 0.330312163 0.797884524 0.50425607
vn 0.330311686 0.797883213 0.504258513
vn 0.241806448 0.891572893 0.382919639
vn 0.241806448 0.891572893 0.382919639
vn 0.241806477 0.891572833 0.382919788
vn 0.241806462 0.891572833 0.382919788
vn 0.241807356 0.891571164 0.382923037
vn 0.241806492 0.596011758 0.765702069
vn 0.241806448 0.596011519 0.765702248
vn 0.241806448 0.596011519 0.765702248
vn 0.241806448 0.596011758 0.765702009
vn 0.241806328 0.596003652 0.765708387
vn 0.330311567 0.689700961 0.644365489
vn 0.330311537 0.689700961 0.644365489
vn 0.330311626 0.689700782 0.644365668
vn 0.330311656 0.689700723 0.644365728
vn 0.330313116 0.689696729 0.644369245
vn -0.0885066018 0.541916728 0.835758865
vn -0.0885065868 0.541916847 0.835758746
vn -0.0885065868 0.541916907 0.835758686
vn -0.0885066018 0.541916728 0.835758805
vn -0.0885060206 0.541920424 0.83575654
vn 0.0885065347 0.541915953 0.835759401
vn 0.0885065347 0.541915953 0.835759401
vn 0.0885065123 0.541916192 0.835759223
vn 0.0885065123 0.541916192 0.835759163
vn 0.0885060057 0.541921675 0.835755706
vn -0.330311835 0.689699948 0.644366384
vn -0.330311984 0.689699352 0.64436698
vn -0.330312014 0.689699411 0.64436692
vn -0.330311805 0.689699888 0.644366443
vn -0.330317467 0.689685464 0.644379139
vn -0.241806597 0.596011043 0.765702486
vn -0.241806597 0.596011043 0.765702486
vn -0.241806552 0.596011102 0.765702546
vn -0.241806522 0.596011102 0.765702546
vn -0.241804749 0.596010745 0.76570344
vn -0.241807312 0.891572058 0.38292107
vn -0.241807267 0.891571999 0.382921159
vn -0.241807267 0.891571999 0.382921159
vn -0.241807342 0.891571999 0.38292107
vn -0.241806939 0.891570807 0.382924289
vn -0.330311447 0.797885239 0.504255414
vn -0.330311447 0.797885239 0.504255354
vn -0.330311775 0.797884703 0.50425601
vn -0.330311745 0.797884703 0.50425601
vn -0.330319703 0.79787153 0.504271746
vn -0.777387202 0.0248024836 0.628533185
vn -0.999964118 -0.00846439414 -0.000348016416
vn -0.682350457 0.522334754 0.511433661
vn -0.795457125 0.606009841 0
vn 0.0216558687 0.111050449 0.993578792
vn 0.0118457573 0.628601313 0.777637541
vn -0.012308931 0.962741852 0.270141989
vn -0.0178049169 0.999841511 0
vn -0.018395165 -0.500836432 0.865346432
vn -0.659045041 -0.565866828 0.49543342
vn -0.0649848804 -0.944533885 0.321920186
vn -0.748091102 -0.663595557 0.000719090516
vn -0.0724216253 -0.997374058 -0.000155256435
vn -0.682350457 0.522334635 -0.511433661
vn -0.777173638 0.0226285309 -0.628879249
vn 0.0216558706 0.111050501 -0.993578792
vn 0.0118457396 0.628601134 -0.777637601
vn -0.0123089533 0.962741852 -0.2701419
vn -0.0661342517 -0.9442904 -0.322400302
vn -0.660263181 -0.567526996 -0.491899967
vn -0.0199922193 -0.501060665 -0.865181208
vn 0.0118457573 0.628601313 0.777637541
vn 0.685808063 0.498966873 0.529810727
vn 0.0216558687 0.111050449 0.993578792
vn -0.012308931 0.962741852 0.270141989
vn 0.798301756 0.602257669 0
vn -0.0178049169 0.999841511 0
vn 0.997645319 -0.0685847551 0
vn 0.754631996 -0.00495862029 0.656129539
vn -0.018395165 -0.500836432 0.865346432
vn 0.542986333 -0.673702419 0.501289129
vn -0.0649848804 -0.944533885 0.321920186
vn 0.594871521 -0.803820789 0
vn -0.0724216253 -0.997374058 -0.000155256435
vn -0.0123089533 0.962741852 -0.2701419
vn 0.685807943 0.498966902 -0.529810727
vn 0.0118457396 0.628601134 -0.777637601
vn 0.0216558706 0.111050501 -0.993578792
vn -0.0661342517 -0.9442904 -0.322400302
vn 0.542986274 -0.673702538 -0.501289129
vn -0.0199922193 -0.501060665 -0.865181208
vn 0.754631937 -0.00495865103 -0.656129599
vn 0.715191007 0.00970955845 0.698861659
vn 0.55285871 0.644184053 0.528558552
vn 0.999821603 -0.0188894253 -5.5496298E-07
vn 0.754155874 0.656695366 -3.72516524E-07
vn 0.774407029 -0.632687747 -2.20597542E-07
vn 0.533269465 -0.656694651 0.533269048
vn -2.90628464E-07 0.632688284 0.774406552
vn 0.0109370016 0.00919609703 0.999897897
vn 0.0171833634 -0.644183159 0.76467818
vn 7.12820963E-07 -1 2.37030278E-07
vn -5.25964765E-07 1 -2.45680923E-07
vn -0.714767396 -0.00919709262 0.69930172
vn -0.552859604 0.64418298 0.528558969
vn -0.547587633 -0.632688761 0.54758817
vn -0.754155457 -0.656695843 0
vn -0.75415647 0.65669477 0
vn -1 -1.11091481E-06 5.799115E-07
vn 0.533269286 -0.656694889 -0.533268869
vn 0.774407029 -0.632687747 -2.20597542E-07
vn 0.715190411 0.00970951188 -0.698862255
vn 0.999821603 -0.0188894253 -5.5496298E-07
vn 0.552858651 0.644183278 -0.528559506
vn 0.754155874 0.656695366 -3.72516524E-07
vn -1.24655139E-06 0.632688046 -0.774406791
vn 0.0109359613 0.00919613708 -0.999897897
vn 0.017183451 -0.644183576 -0.764677882
vn 7.12820963E-07 -1 2.37030278E-07
vn -5.25964765E-07 1 -2.45680923E-07
vn -0.714768469 -0.00919767376 -0.699300706
vn -0.552860081 0.64418304 -0.528558254
vn -0.547587395 -0.632689357 -0.547587574
vn -0.754155457 -0.656695843 0
vn -0.75415647 0.65669477 0
vn -1 -1.11091481E-06 5.799115E-07
vn -0.0349806026 0.99938798 2.36782682E-07
vn -0.0349805728 0 0.99938798
vn -0 1.10902462E-07 1
vn -0 1 0
vn -0 -1 3.32707486E-07
vn -0.0349806249 -0.99938798 -1.57855155E-07
vn -0.0664909184 0.997787058 4.77859771E-07
vn -0.0664909333 1.59286685E-07 0.997787058
vn -0.0664909631 -0.997787058 -4.24764409E-07
vn -0.0349806249 -0.99938798 -1.57855155E-07
vn -0.0349806584 2.10473544E-07 -0.99938798
vn -0 0 -1
vn -0 -1 3.32707486E-07
vn -0.0664909631 -0.997787058 -4.24764409E-07
vn -0.0664909929 3.1857337E-07 -0.997787058
vn -0.0349806026 0.99938798 2.36782682E-07
vn -0 1 0
vn -0.0664909184 0.997787058 4.77859771E-07
vn -0.0610052459 0.998137474 1.34260944E-07
vn -0.0610051863 2.34956744E-07 -0.998137474
vn -0.0610051937 0 -0.998137474
vn -0.0610052422 0.998137474 1.41845732E-07
vn -0.0610052496 -0.998137474 0
vn -0.0610052459 -0.998137474 -3.02087273E-07
vn -0.0610052459 -0.998137474 -3.02087273E-07
vn -0.0610053279 3.02087273E-07 0.998137474
vn -0.0610053204 6.38306062E-07 0.998137474
vn -0.0610052496 -0.998137474 0
vn -0.0610052459 0.998137474 1.34260944E-07
vn -0.0610052422 0.998137474 1.41845732E-07
vn 0.0290818736 -4.12503852E-07 -0.999577045
vn 0.0290819127 -0.999577045 3.37503025E-07
vn 0.249074191 -0.968484402 5.89637409E-07
vn 0.24907437 -5.44280908E-07 -0.968484342
vn 0.0290819164 0.999577045 -4.50004251E-07
vn 0.0290818736 -4.12503852E-07 -0.999577045
vn 0.24907437 -5.44280908E-07 -0.968484342
vn 0.249074459 0.968484342 -5.44280965E-07
vn -0.350511312 0.936558485 -4.93624214E-07
vn -0.350511521 -2.11553299E-07 -0.936558425
vn 0.0290819127 -0.999577045 3.37503025E-07
vn -0.350511193 -0.936558545 0
vn 0.0290819127 -0.999577045 3.37503025E-07
vn 0.0290819518 0 0.999577045
vn 0.24907434 0 0.968484402
vn 0.249074191 -0.968484402 5.89637409E-07
vn -0.350511193 -0.936558545 0
vn -0.350511402 2.82071198E-07 0.936558425
vn 0.0290819164 0.999577045 -4.50004251E-07
vn 0.249074459 0.968484342 -5.44280965E-07
vn -0.350511312 0.936558485 -4.93624214E-07
vn -0.194842994 0.980834424 5.24129746E-07
vn -0.194843069 1.09193741E-06 0.980834424
vn -0.194843069 1.13499527E-06 0.980834424
vn -0.194843009 0.980834424 6.22416508E-07
vn -0.194843143 -0.980834424 -2.56289326E-07
vn -0.194843128 -0.980834424 -3.4942002E-07
vn -0.194843128 -0.980834424 -3.4942002E-07
vn -0.194843173 -5.24130144E-07 -0.980834424
vn -0.194843173 -5.49191441E-07 -0.980834424
vn -0.194843143 -0.980834424 -2.56289326E-07
vn -0.194842994 0.980834424 5.24129746E-07
vn -0.194843009 0.980834424 6.22416508E-07
vn -0.513722897 0.857956171 1.17159118E-06
vn -0.513722241 -1.41567079E-06 0.857956588
vn -0.513722122 -1.32579123E-06 0.857956648
vn -0.513722956 0.857956171 1.2956616E-06
vn -0.513721287 -0.857957184 0
vn -0.513721287 -0.857957184 0
vn -0.513721287 -0.857957184 0
vn -0.513722122 -1.07395852E-06 -0.857956648
vn -0.513722122 -1.05460833E-06 -0.857956648
vn -0.513721287 -0.857957184 0
vn -0.513722897 0.857956171 1.17159118E-06
vn -0.513722956 0.857956171 1.2956616E-06
vn 0.646354914 0.763036966 3.59405021E-07
vn 0.646356225 4.1168264E-06 -0.763035834
vn 0.646356225 3.99205555E-06 -0.763035774
vn 0.646354854 0.763036966 4.20215827E-07
vn 0.646356463 -0.763035595 -4.24751903E-07
vn 0.646356463 -0.763035595 -1.75090165E-07
vn 0.646356463 -0.763035595 -4.24751903E-07
vn 0.646355927 -1.86237367E-06 0.763036072
vn 0.646355927 -1.61082983E-06 0.763036072
vn 0.646356463 -0.763035595 -1.75090165E-07
vn 0.646354914 0.763036966 3.59405021E-07
vn 0.646354854 0.763036966 4.20215827E-07
vn 0.820218682 0.572050095 -4.09478986E-07
vn 0.820217907 1.61743969E-06 -0.572051227
vn 0.820217907 1.46008279E-06 -0.572051167
vn 0.820218742 0.572050035 -1.4244732E-07
vn 0.820217729 -0.572051525 -1.84265247E-07
vn 0.820217729 -0.572051525 2.31476562E-07
vn 0.820217729 -0.572051525 -1.84265247E-07
vn 0.820217729 -4.01289026E-06 0.572051466
vn 0.820217788 -3.68582096E-06 0.572051346
vn 0.820217729 -0.572051525 2.31476562E-07
vn 0.820218682 0.572050095 -4.09478986E-07
vn 0.820218742 0.572050035 -1.4244732E-07
vn -0.227237493 -0.973839343 1.00851241E-06
vn 0.130067036 -0.991505206 1.08196264E-06
vn 0.130067021 -1.29835519E-06 -0.991505206
vn -0.227237448 -9.25997711E-07 -0.973839402
vn -0.227237567 0.973839343 -6.60117394E-07
vn 0.13006714 0.991505206 -9.52128005E-07
vn -1 8.23943992E-07 0
vn -0.227237493 -0.973839343 1.00851241E-06
vn -0.227237493 8.43482951E-07 0.973839343
vn 0.130067021 4.76063548E-07 0.991505206
vn 0.130067036 -0.991505206 1.08196264E-06
vn -1 8.23943992E-07 0
vn -0.227237567 0.973839343 -6.60117394E-07
vn 0.13006714 0.991505206 -9.52128005E-07
vn -0 0 1
vn -0 0 1
vn -0 0 1
vn -0 0 1
vn -0 0 1
vn -0 0 1
vn -0 0 1
vn -0 0 1
vn -0 1 0
vn -0 1 0
vn -0 1 0
vn -0 1 0
vn -0 1 0
vn -0 1 0
vn -0 1 0
vn -0 1 0
vn -0 1 0
vn -0 1 0
vn -0 1 0
vn -0 1 0
vn -0 1 0
vn -0 1 0
vn -0 1 0
vn -0 1 0
vn -0.715191007 0.00970939919 0.698861659
vn -0.999821603 -0.0188895669 -5.35142817E-07
vn -0.55285871 0.644184053 0.528558493
vn -0.754156053 0.656695306 -3.57311819E-07
vn -0.774407029 -0.632687747 -2.20597542E-07
vn -0.533269286 -0.656694651 0.533269048
vn 3.0463471E-07 0.632688403 0.774406493
vn -0.0109370435 0.00919619296 0.999897897
vn -0.017183356 -0.644183159 0.764678299
vn -6.60916498E-07 -1 3.06236188E-07
vn 5.25964765E-07 1 -1.903162E-07
vn 0.714767456 -0.00919713825 0.69930166
vn 0.552859664 0.644182861 0.528559089
vn 0.547587633 -0.632688642 0.547588229
vn 0.754155517 -0.656695783 0
vn 0.75415659 0.656694591 1.06433276E-07
vn 1 -1.14235581E-06 6.07859079E-07
vn -0.533269405 -0.656694829 -0.533268929
vn -0.715190411 0.00970952585 -0.698862255
vn -0.774407029 -0.632687747 -2.20597542E-07
vn -0.999821603 -0.0188895669 -5.35142817E-07
vn -0.55285871 0.644183338 -0.528559446
vn -0.754156053 0.656695306 -3.57311819E-07
vn 1.21503717E-06 0.632688046 -0.774406731
vn -0.0109359613 0.00919616316 -0.999897897
vn -0.0171833988 -0.644183636 -0.764677763
vn -6.60916498E-07 -1 3.06236188E-07
vn 5.25964765E-07 1 -1.903162E-07
vn 0.71476841 -0.00919744093 -0.699300706
vn 0.552860022 0.644183159 -0.528558254
vn 0.547587454 -0.632689238 -0.547587693
vn 0.754155517 -0.656695783 0
vn 0.75415659 0.656694591 1.06433276E-07
vn 1 -1.14235581E-06 6.07859079E-07
vn 0.0610052124 0.998137474 -1.00695701E-07
vn 0.0610052086 0.998137474 -1.06384292E-07
vn 0.0610051863 0 -0.998137474
vn 0.0610051863 3.02087273E-07 -0.998137474
vn 0.0610052608 -0.998137474 2.12768711E-07
vn 0.0610052533 -0.998137474 0
vn 0.0610052533 -0.998137474 0
vn 0.0610052608 -0.998137474 2.12768711E-07
vn 0.0610053279 6.0284475E-07 0.998137474
vn 0.0610053316 2.68522058E-07 0.998137474
vn 0.0610052124 0.998137474 -1.00695701E-07
vn 0.0610052086 0.998137474 -1.06384292E-07
vn -0.029081909 -2.81252653E-07 -0.999577045
vn -0.24907437 -3.62853854E-07 -0.968484342
vn -0.24907437 -0.968484342 4.5356731E-07
vn -0.0290819146 -0.999577045 4.5000408E-07
vn -0.0290818736 0.999577045 -5.06254707E-07
vn -0.24907434 0.968484342 -6.8035115E-07
vn -0.24907437 -3.62853854E-07 -0.968484342
vn -0.029081909 -2.81252653E-07 -0.999577045
vn 0.350511283 0.936558545 -3.17329835E-07
vn 0.350511521 0 -0.936558425
vn -0.0290819146 -0.999577045 4.5000408E-07
vn 0.350511312 -0.936558485 3.52588728E-07
vn -0.0290819146 -0.999577045 4.5000408E-07
vn -0.24907437 -0.968484342 4.5356731E-07
vn -0.24907434 1.81426969E-07 0.968484402
vn -0.0290819164 1.68751569E-07 0.999577045
vn 0.350511312 -0.936558485 3.52588728E-07
vn 0.350511432 2.82071085E-07 0.936558425
vn -0.0290818736 0.999577045 -5.06254707E-07
vn -0.24907434 0.968484342 -6.8035115E-07
vn 0.350511283 0.936558545 -3.17329835E-07
vn 0.194842994 0.980834424 6.55162182E-07
vn 0.194843009 0.980834424 6.95641916E-07
vn 0.194843084 1.39128497E-06 0.980834424
vn 0.194843069 1.26664759E-06 0.980834424
vn 0.194843128 -0.980834424 -4.02740369E-07
vn 0.194843113 -0.980834424 -5.24130144E-07
vn 0.194843113 -0.980834424 -5.24130144E-07
vn 0.194843128 -0.980834424 -4.02740369E-07
vn 0.194843173 -5.12578708E-07 -0.980834424
vn 0.194843218 -4.80452627E-07 -0.980834424
vn 0.194842994 0.980834424 6.55162182E-07
vn 0.194843009 0.980834424 6.95641916E-07
vn 0.513721824 0.857956767 1.31803881E-06
vn 0.513721824 0.857956827 1.44631883E-06
vn 0.513722181 -3.61579538E-07 0.857956588
vn 0.513722181 -4.39346195E-07 0.857956588
vn 0.513722181 -0.857956588 -3.90529948E-07
vn 0.513722122 -0.857956648 -4.82106145E-07
vn 0.513722181 -0.857956588 -3.90529948E-07
vn 0.513722122 -0.857956648 -4.82106145E-07
vn 0.513722122 4.21843339E-07 -0.857956648
vn 0.513722122 3.90530346E-07 -0.857956648
vn 0.513721824 0.857956767 1.31803881E-06
vn 0.513721824 0.857956827 1.44631883E-06
vn -0.646355629 0.763036251 -1.3069274E-07
vn -0.646355629 0.763036251 0
vn -0.646356225 4.48230594E-06 -0.763035834
vn -0.646356165 4.50890229E-06 -0.763035834
vn -0.646356642 -0.763035417 0
vn -0.646356583 -0.763035536 2.80144491E-07
vn -0.646356642 -0.763035417 0
vn -0.646356583 -0.763035536 2.80144491E-07
vn -0.646355927 -2.10108101E-06 0.763036072
vn -0.646355927 -2.38514463E-06 0.763036072
vn -0.646355629 0.763036251 -1.3069274E-07
vn -0.646355629 0.763036251 0
vn -0.820220292 0.57204777 -4.09479128E-07
vn -0.820220232 0.572047889 -1.24641446E-07
vn -0.820217907 -6.41011752E-07 -0.572051227
vn -0.820217907 -4.70900062E-07 -0.572051227
vn -0.820217788 -0.572051406 4.09478304E-07
vn -0.820217788 -0.572051466 8.36876836E-07
vn -0.820217788 -0.572051406 4.09478304E-07
vn -0.820217788 -0.572051466 8.36876836E-07
vn -0.820217729 -3.89948627E-06 0.572051525
vn -0.820217729 -4.21762388E-06 0.572051466
vn -0.820220292 0.57204777 -4.09479128E-07
vn -0.820220232 0.572047889 -1.24641446E-07
vn 0.0349806063 0.99938798 2.10473502E-07
vn 0.0349805765 0 0.99938798
vn 0.0664909258 1.06191095E-07 0.997787058
vn 0.0664909109 0.997787058 3.71668648E-07
vn 0.0349806249 -0.99938798 -2.10473544E-07
vn 0.0664909631 -0.997787058 -4.77859885E-07
vn -0 1 0
vn -0 1.10902462E-07 1
vn -0 -1 2.21804981E-07
vn 0.0349806249 -0.99938798 -2.10473544E-07
vn 0.0349806622 2.36782725E-07 -0.99938798
vn 0.066490978 3.71668818E-07 -0.997787058
vn 0.0664909631 -0.997787058 -4.77859885E-07
vn -0 -1 2.21804981E-07
vn -0 0 -1
vn 0.0349806063 0.99938798 2.10473502E-07
vn -0 1 0
vn 0.0664909109 0.997787058 3.71668648E-07
vn 0.227237314 -0.973839402 1.14603631E-06
vn 0.227237448 -1.21021537E-06 -0.973839402
vn -0.130067036 -1.81769803E-06 -0.991505206
vn -0.130066931 -0.991505206 1.29835462E-06
vn 0.227237388 0.973839402 -4.40078225E-07
vn -0.13006717 0.991505206 -6.49178332E-07
vn 1 1.07329572E-06 0
vn 0.227237314 -0.973839402 1.14603631E-06
vn -0.130066931 -0.991505206 1.29835462E-06
vn -0.130067036 2.16392493E-07 0.991505206
vn 0.227237344 6.60116939E-07 0.973839402
vn 1 1.07329572E-06 0
vn 0.227237388 0.973839402 -4.40078225E-07
vn -0.13006717 0.991505206 -6.49178332E-07
vn -0 0 1
vn -0 0 1
vn -0 0 1
vn -0 0 1
vn -0 0 1
vn -0 0 1
vn -0 0 1
vn -0 0 1
vn -0 1 0
vn -0 1 0
vn -0 1 0
vn -0 1 0
vn -0 1 0
vn -0 1 0
vn -0 1 0
vn -0 1 0
vn -0 1 0
vn -0 1 0
vn -0 1 0
vn -0 1 0
vn -0 1 0
vn -0 1 0
vn -0 1 0
vn -0 1 0
vn -0 0 -1
vn -1.23431931E-07 0.707106829 -0.707106769
vn -0.707106888 0 -0.707106709
vn -0.707106769 0.707106769 0
vn -0 1 0
vn -0 -0.707106829 -0.707106769
vn -0.707106888 -0.707106709 0
vn -0 -1 0
vn 0.70710659 0 -0.707106948
vn 0.707106531 0.707107067 0
vn 0.707106531 -0.707107067 0
vn -1 0 0
vn 1 0 0
vn -0 1 0
vn -1.10439103E-07 0.707106829 0.707106769
vn -0.707106769 0.707106769 0
vn -0.707106888 2.01389E-07 0.707106709
vn -0 0 1
vn -1.62410444E-07 -0.707106769 0.707106829
vn -0.707106888 -0.707106709 0
vn -0 -1 0
vn 0.707106531 0.707107067 0
vn 0.70710659 -1.75403301E-07 0.707106948
vn 0.707106531 -0.707107067 0
vn -1 0 0
vn 1 0 0
g wp_010_007_001_Mesh_0
f 3/3/3 2/2/2 1/1/1
f 4/4/4 3/3/3 1/1/1
f 1/1/1 2/2/2 5/5/5
f 2/2/2 6/6/6 5/5/5
f 5/5/5 6/6/6 7/7/7
f 6/6/6 8/8/8 7/7/7
f 9/9/9 3/3/3 4/4/4
f 10/10/10 9/9/9 4/4/4
f 13/13/13 12/12/12 11/11/11
f 14/14/14 13/13/13 11/11/11
f 11/11/11 12/12/12 15/15/15
f 12/12/12 16/16/16 15/15/15
f 15/15/15 16/16/16 17/17/17
f 16/16/16 18/18/18 17/17/17
f 17/17/17 18/18/18 19/19/19
f 18/18/18 20/20/20 19/19/19
f 23/23/23 22/22/22 21/21/21
f 23/23/23 24/24/24 22/22/22
f 25/25/25 24/24/24 23/23/23
f 22/22/22 24/24/24 26/26/26
f 29/29/29 28/28/28 27/27/27
f 29/29/29 30/30/30 28/28/28
f 31/31/31 30/30/30 29/29/29
f 28/28/28 30/30/30 32/32/32
f 35/35/35 34/34/34 33/33/33
f 35/35/35 36/36/36 34/34/34
f 37/37/37 36/36/36 35/35/35
f 34/34/34 36/36/36 38/38/38
f 41/41/41 40/40/40 39/39/39
f 41/41/41 42/42/42 40/40/40
f 43/43/43 42/42/42 41/41/41
f 40/40/40 42/42/42 44/44/44
f 47/47/47 46/46/46 45/45/45
f 48/48/48 47/47/47 45/45/45
f 47/47/47 49/49/49 46/46/46
f 52/52/52 51/51/51 50/50/50
f 53/53/53 52/52/52 50/50/50
f 54/54/54 52/52/52 53/53/53
f 57/57/57 56/56/56 55/55/55
f 58/58/58 57/57/57 55/55/55
f 59/59/59 57/57/57 58/58/58
f 62/62/62 61/61/61 60/60/60
f 63/63/63 62/62/62 60/60/60
f 62/62/62 64/64/64 61/61/61
f 67/67/67 66/66/66 65/65/65
f 68/68/68 67/67/67 65/65/65
f 69/69/69 67/67/67 68/68/68
f 72/72/72 71/71/71 70/70/70
f 73/73/73 72/72/72 70/70/70
f 72/72/72 74/74/74 71/71/71
f 77/77/77 76/76/76 75/75/75
f 78/78/78 77/77/77 75/75/75
f 79/79/79 77/77/77 78/78/78
f 82/82/82 81/81/81 80/80/80
f 83/83/83 82/82/82 80/80/80
f 82/82/82 84/84/84 81/81/81
f 87/87/87 86/86/86 85/85/85
f 88/88/88 87/87/87 85/85/85
f 89/89/89 87/87/87 88/88/88
f 92/92/92 91/91/91 90/90/90
f 93/93/93 92/92/92 90/90/90
f 92/92/92 94/94/94 91/91/91
f 97/97/97 96/96/96 95/95/95
f 98/98/98 97/97/97 95/95/95
f 99/99/99 97/97/97 98/98/98
f 102/102/102 101/101/101 100/100/100
f 103/103/103 102/102/102 100/100/100
f 102/102/102 104/104/104 101/101/101
f 107/107/107 106/106/106 105/105/105
f 108/108/108 107/107/107 105/105/105
f 108/108/108 105/105/105 109/109/109
f 110/110/110 108/108/108 109/109/109
f 110/110/110 109/109/109 111/111/111
f 112/112/112 110/110/110 111/111/111
f 107/107/107 113/113/113 106/106/106
f 113/113/113 114/114/114 106/106/106
f 117/117/117 116/116/116 115/115/115
f 118/118/118 117/117/117 115/115/115
f 118/118/118 115/115/115 119/119/119
f 120/120/120 118/118/118 119/119/119
f 120/120/120 119/119/119 121/121/121
f 122/122/122 120/120/120 121/121/121
f 122/122/122 121/121/121 123/123/123
f 124/124/124 122/122/122 123/123/123
f 127/127/127 126/126/126 125/125/125
f 128/128/128 126/126/126 127/127/127
f 128/128/128 129/129/129 126/126/126
f 128/128/128 127/127/127 130/130/130
f 133/133/133 132/132/132 131/131/131
f 134/134/134 132/132/132 133/133/133
f 134/134/134 135/135/135 132/132/132
f 134/134/134 133/133/133 136/136/136
f 139/139/139 138/138/138 137/137/137
f 140/140/140 138/138/138 139/139/139
f 140/140/140 141/141/141 138/138/138
f 140/140/140 139/139/139 142/142/142
f 145/145/145 144/144/144 143/143/143
f 146/146/146 144/144/144 145/145/145
f 146/146/146 147/147/147 144/144/144
f 146/146/146 145/145/145 148/148/148
f 151/151/151 150/150/150 149/149/149
f 152/152/152 151/151/151 149/149/149
f 153/153/153 151/151/151 152/152/152
f 156/156/156 155/155/155 154/154/154
f 157/157/157 156/156/156 154/154/154
f 156/156/156 158/158/158 155/155/155
f 161/161/161 160/160/160 159/159/159
f 162/162/162 161/161/161 159/159/159
f 161/161/161 163/163/163 160/160/160
f 166/166/166 165/165/165 164/164/164
f 167/167/167 166/166/166 164/164/164
f 168/168/168 166/166/166 167/167/167
f 171/171/171 170/170/170 169/169/169
f 172/172/172 171/171/171 169/169/169
f 171/171/171 173/173/173 170/170/170
f 176/176/176 175/175/175 174/174/174
f 177/177/177 176/176/176 174/174/174
f 178/178/178 176/176/176 177/177/177
f 181/181/181 180/180/180 179/179/179
f 182/182/182 181/181/181 179/179/179
f 181/181/181 183/183/183 180/180/180
f 186/186/186 185/185/185 184/184/184
f 187/187/187 186/186/186 184/184/184
f 188/188/188 186/186/186 187/187/187
f 191/191/191 190/190/190 189/189/189
f 192/192/192 191/191/191 189/189/189
f 191/191/191 193/193/193 190/190/190
f 196/196/196 195/195/195 194/194/194
f 197/197/197 196/196/196 194/194/194
f 198/198/198 196/196/196 197/197/197
f 201/201/201 200/200/200 199/199/199
f 202/202/202 201/201/201 199/199/199
f 201/201/201 203/203/203 200/200/200
f 206/206/206 205/205/205 204/204/204
f 207/207/207 206/206/206 204/204/204
f 208/208/208 206/206/206 207/207/207
f 211/211/211 210/210/210 209/209/209
f 212/212/212 210/210/210 211/211/211
f 213/213/213 211/211/211 209/209/209
f 214/214/214 211/211/211 213/213/213
f 215/215/215 211/211/211 214/214/214
f 212/212/212 211/211/211 215/215/215
f 215/215/215 216/216/216 212/212/212
f 217/217/217 213/213/213 209/209/209
f 218/218/218 217/217/217 209/209/209
f 218/218/218 209/209/209 210/210/210
f 217/217/217 218/218/218 219/219/219
f 219/219/219 218/218/218 220/220/220
f 210/210/210 220/220/220 218/218/218
f 220/220/220 221/221/221 219/219/219
f 210/210/210 212/212/212 222/222/222
f 210/210/210 222/222/222 223/223/223
f 222/222/222 224/224/224 223/223/223
f 222/222/222 225/225/225 224/224/224
f 222/222/222 226/226/226 225/225/225
f 212/212/212 216/216/216 226/226/226
f 226/226/226 222/222/222 212/212/212
f 221/221/221 220/220/220 227/227/227
f 228/228/228 227/227/227 220/220/220
f 228/228/228 229/229/229 227/227/227
f 229/229/229 228/228/228 223/223/223
f 224/224/224 229/229/229 223/223/223
f 210/210/210 223/223/223 228/228/228
f 228/228/228 220/220/220 210/210/210
f 232/232/232 231/231/231 230/230/230
f 231/231/231 233/233/233 230/230/230
f 233/233/233 231/231/231 234/234/234
f 234/234/234 235/235/235 233/233/233
f 234/234/234 231/231/231 236/236/236
f 237/237/237 236/236/236 231/231/231
f 237/237/237 231/231/231 232/232/232
f 237/237/237 232/232/232 238/238/238
f 237/237/237 238/238/238 239/239/239
f 236/236/236 237/237/237 239/239/239
f 240/240/240 239/239/239 238/238/238
f 241/241/241 239/239/239 240/240/240
f 239/239/239 241/241/241 236/236/236
f 241/241/241 240/240/240 242/242/242
f 235/235/235 234/234/234 243/243/243
f 244/244/244 243/243/243 234/234/234
f 244/244/244 234/234/234 236/236/236
f 243/243/243 244/244/244 245/245/245
f 244/244/244 246/246/246 245/245/245
f 247/247/247 241/241/241 242/242/242
f 248/248/248 241/241/241 247/247/247
f 236/236/236 241/241/241 248/248/248
f 248/248/248 247/247/247 249/249/249
f 249/249/249 250/250/250 248/248/248
f 246/246/246 250/250/250 249/249/249
f 236/236/236 250/250/250 244/244/244
f 248/248/248 250/250/250 236/236/236
f 244/244/244 250/250/250 246/246/246
f 253/253/253 252/252/252 251/251/251
f 254/254/254 252/252/252 253/253/253
f 253/253/253 251/251/251 255/255/255
f 255/255/255 251/251/251 256/256/256
f 257/257/257 251/251/251 252/252/252
f 258/258/258 251/251/251 257/257/257
f 259/259/259 251/251/251 258/258/258
f 256/256/256 251/251/251 259/259/259
f 260/260/260 256/256/256 259/259/259
f 255/255/255 256/256/256 260/260/260
f 261/261/261 252/252/252 254/254/254
f 257/257/257 252/252/252 261/261/261
f 258/258/258 257/257/257 262/262/262
f 262/262/262 257/257/257 263/263/263
f 257/257/257 261/261/261 263/263/263
f 264/264/264 258/258/258 262/262/262
f 259/259/259 258/258/258 264/264/264
f 264/264/264 260/260/260 259/259/259
f 265/265/265 260/260/260 264/264/264
f 263/263/263 261/261/261 266/266/266
f 267/267/267 263/263/263 266/266/266
f 262/262/262 263/263/263 267/267/267
f 267/267/267 264/264/264 262/262/262
f 265/265/265 264/264/264 267/267/267
f 270/270/270 269/269/269 268/268/268
f 271/271/271 269/269/269 270/270/270
f 272/272/272 271/271/271 270/270/270
f 273/273/273 271/271/271 272/272/272
f 270/270/270 274/274/274 272/272/272
f 275/275/275 274/274/274 270/270/270
f 276/276/276 270/270/270 268/268/268
f 275/275/275 270/270/270 276/276/276
f 277/277/277 268/268/268 269/269/269
f 276/276/276 268/268/268 277/277/277
f 272/272/272 278/278/278 273/273/273
f 274/274/274 278/278/278 272/272/272
f 279/279/279 274/274/274 275/275/275
f 280/280/280 274/274/274 279/279/279
f 280/280/280 278/278/278 274/274/274
f 281/281/281 275/275/275 276/276/276
f 279/279/279 275/275/275 281/281/281
f 277/277/277 281/281/281 276/276/276
f 282/282/282 281/281/281 277/277/277
f 283/283/283 278/278/278 280/280/280
f 281/281/281 284/284/284 279/279/279
f 282/282/282 284/284/284 281/281/281
f 280/280/280 284/284/284 283/283/283
f 279/279/279 284/284/284 280/280/280
f 287/287/287 286/286/286 285/285/285
f 288/288/288 287/287/287 285/285/285
f 287/287/287 289/289/289 286/286/286
f 289/289/289 290/290/290 286/286/286
f 285/285/285 286/286/286 291/291/291
f 286/286/286 292/292/292 291/291/291
f 286/286/286 290/290/290 292/292/292
f 290/290/290 293/293/293 292/292/292
f 296/296/296 295/295/295 294/294/294
f 297/297/297 296/296/296 294/294/294
f 294/294/294 295/295/295 298/298/298
f 295/295/295 299/299/299 298/298/298
f 300/300/300 295/295/295 296/296/296
f 301/301/301 300/300/300 296/296/296
f 302/302/302 299/299/299 295/295/295
f 300/300/300 302/302/302 295/295/295
f 305/305/305 304/304/304 303/303/303
f 306/306/306 305/305/305 303/303/303
f 305/305/305 307/307/307 304/304/304
f 307/307/307 308/308/308 304/304/304
f 311/311/311 310/310/310 309/309/309
f 312/312/312 311/311/311 309/309/309
f 313/313/313 310/310/310 311/311/311
f 314/314/314 313/313/313 311/311/311
f 317/317/317 316/316/316 315/315/315
f 318/318/318 317/317/317 315/315/315
f 321/321/321 320/320/320 319/319/319
f 322/322/322 321/321/321 319/319/319
f 319/319/319 320/320/320 323/323/323
f 320/320/320 324/324/324 323/323/323
f 320/320/320 325/325/325 324/324/324
f 325/325/325 326/326/326 324/324/324
f 329/329/329 328/328/328 327/327/327
f 330/330/330 329/329/329 327/327/327
f 327/327/327 328/328/328 331/331/331
f 328/328/328 332/332/332 331/331/331
f 333/333/333 328/328/328 329/329/329
f 328/328/328 333/333/333 332/332/332
f 334/334/334 333/333/333 329/329/329
f 333/333/333 335/335/335 332/332/332
f 338/338/338 337/337/337 336/336/336
f 339/339/339 338/338/338 336/336/336
f 338/338/338 340/340/340 337/337/337
f 340/340/340 341/341/341 337/337/337
f 344/344/344 343/343/343 342/342/342
f 345/345/345 344/344/344 342/342/342
f 346/346/346 343/343/343 344/344/344
f 347/347/347 346/346/346 344/344/344
f 350/350/350 349/349/349 348/348/348
f 351/351/351 350/350/350 348/348/348
f 349/349/349 350/350/350 352/352/352
f 350/350/350 353/353/353 352/352/352
f 356/356/356 355/355/355 354/354/354
f 357/357/357 356/356/356 354/354/354
f 355/355/355 356/356/356 358/358/358
f 356/356/356 359/359/359 358/358/358
f 362/362/362 361/361/361 360/360/360
f 363/363/363 362/362/362 360/360/360
f 361/361/361 362/362/362 364/364/364
f 362/362/362 365/365/365 364/364/364
f 368/368/368 367/367/367 366/366/366
f 369/369/369 368/368/368 366/366/366
f 367/367/367 368/368/368 370/370/370
f 368/368/368 371/371/371 370/370/370
f 374/374/374 373/373/373 372/372/372
f 375/375/375 374/374/374 372/372/372
f 373/373/373 374/374/374 376/376/376
f 374/374/374 377/377/377 376/376/376
f 380/380/380 379/379/379 378/378/378
f 381/381/381 380/380/380 378/378/378
f 379/379/379 380/380/380 382/382/382
f 380/380/380 383/383/383 382/382/382
f 386/386/386 385/385/385 384/384/384
f 387/387/387 386/386/386 384/384/384
f 386/386/386 387/387/387 388/388/388
f 389/389/389 386/386/386 388/388/388
f 387/387/387 384/384/384 390/390/390
f 388/388/388 387/387/387 390/390/390
f 393/393/393 392/392/392 391/391/391
f 394/394/394 393/393/393 391/391/391
f 391/391/391 392/392/392 395/395/395
f 392/392/392 396/396/396 395/395/395
f 397/397/397 396/396/396 392/392/392
f 393/393/393 397/397/397 392/392/392
f 400/400/400 399/399/399 398/398/398
f 401/401/401 400/400/400 398/398/398
f 402/402/402 399/399/399 400/400/400
f 403/403/403 402/402/402 400/400/400
f 404/404/404 402/402/402 403/403/403
f 405/405/405 404/404/404 403/403/403
f 398/398/398 404/404/404 405/405/405
f 401/401/401 398/398/398 405/405/405
f 408/408/408 407/407/407 406/406/406
f 409/409/409 408/408/408 406/406/406
f 410/410/410 407/407/407 408/408/408
f 411/411/411 410/410/410 408/408/408
f 412/412/412 410/410/410 411/411/411
f 413/413/413 412/412/412 411/411/411
f 416/416/416 415/415/415 414/414/414
f 417/417/417 416/416/416 414/414/414
f 417/417/417 414/414/414 418/418/418
f 414/414/414 419/419/419 418/418/418
f 418/418/418 419/419/419 420/420/420
f 421/421/421 418/418/418 420/420/420
f 424/424/424 423/423/423 422/422/422
f 424/424/424 425/425/425 423/423/423
f 422/422/422 423/423/423 426/426/426
f 422/422/422 426/426/426 427/427/427
f 422/422/422 428/428/428 424/424/424
f 422/422/422 429/429/429 428/428/428
f 422/422/422 430/430/430 429/429/429
f 422/422/422 427/427/427 430/430/430
f 427/427/427 431/431/431 430/430/430
f 427/427/427 426/426/426 431/431/431
f 424/424/424 432/432/432 425/425/425
f 424/424/424 428/428/428 432/432/432
f 428/428/428 429/429/429 433/433/433
f 428/428/428 433/433/433 434/434/434
f 432/432/432 428/428/428 434/434/434
f 429/429/429 435/435/435 433/433/433
f 429/429/429 430/430/430 435/435/435
f 431/431/431 435/435/435 430/430/430
f 431/431/431 436/436/436 435/435/435
f 432/432/432 434/434/434 437/437/437
f 434/434/434 438/438/438 437/437/437
f 434/434/434 433/433/433 438/438/438
f 435/435/435 438/438/438 433/433/433
f 435/435/435 436/436/436 438/438/438
f 441/441/441 440/440/440 439/439/439
f 441/441/441 442/442/442 440/440/440
f 442/442/442 443/443/443 440/440/440
f 442/442/442 444/444/444 443/443/443
f 445/445/445 440/440/440 443/443/443
f 445/445/445 446/446/446 440/440/440
f 440/440/440 447/447/447 439/439/439
f 440/440/440 446/446/446 447/447/447
f 439/439/439 448/448/448 441/441/441
f 439/439/439 447/447/447 448/448/448
f 449/449/449 443/443/443 444/444/444
f 449/449/449 445/445/445 443/443/443
f 445/445/445 450/450/450 446/446/446
f 445/445/445 451/451/451 450/450/450
f 449/449/449 451/451/451 445/445/445
f 446/446/446 452/452/452 447/447/447
f 446/446/446 450/450/450 452/452/452
f 452/452/452 448/448/448 447/447/447
f 452/452/452 453/453/453 448/448/448
f 449/449/449 454/454/454 451/451/451
f 455/455/455 452/452/452 450/450/450
f 455/455/455 453/453/453 452/452/452
f 455/455/455 451/451/451 454/454/454
f 455/455/455 450/450/450 451/451/451
f 458/458/458 457/457/457 456/456/456
f 459/459/459 458/458/458 456/456/456
f 460/460/460 458/458/458 459/459/459
f 461/461/461 460/460/460 459/459/459
f 464/464/464 463/463/463 462/462/462
f 465/465/465 464/464/464 462/462/462
f 465/465/465 466/466/466 464/464/464
f 466/466/466 467/467/467 464/464/464
f 470/470/470 469/469/469 468/468/468
f 471/471/471 470/470/470 468/468/468
f 474/474/474 473/473/473 472/472/472
f 475/475/475 474/474/474 472/472/472
f 475/475/475 472/472/472 476/476/476
f 477/477/477 475/475/475 476/476/476
f 478/478/478 475/475/475 477/477/477
f 479/479/479 478/478/478 477/477/477
f 482/482/482 481/481/481 480/480/480
f 483/483/483 482/482/482 480/480/480
f 483/483/483 480/480/480 484/484/484
f 485/485/485 483/483/483 484/484/484
f 483/483/483 486/486/486 482/482/482
f 486/486/486 483/483/483 485/485/485
f 486/486/486 487/487/487 482/482/482
f 488/488/488 486/486/486 485/485/485
f 491/491/491 490/490/490 489/489/489
f 492/492/492 491/491/491 489/489/489
f 493/493/493 491/491/491 492/492/492
f 494/494/494 493/493/493 492/492/492
f 497/497/497 496/496/496 495/495/495
f 498/498/498 497/497/497 495/495/495
f 498/498/498 499/499/499 497/497/497
f 499/499/499 500/500/500 497/497/497
f 503/503/503 502/502/502 501/501/501
f 504/504/504 503/503/503 501/501/501
f 503/503/503 504/504/504 505/505/505
f 506/506/506 503/503/503 505/505/505
f 509/509/509 508/508/508 507/507/507
f 510/510/510 509/509/509 507/507/507
f 509/509/509 510/510/510 511/511/511
f 512/512/512 509/509/509 511/511/511
f 515/515/515 514/514/514 513/513/513
f 516/516/516 515/515/515 513/513/513
f 515/515/515 516/516/516 517/517/517
f 518/518/518 515/515/515 517/517/517
f 521/521/521 520/520/520 519/519/519
f 522/522/522 521/521/521 519/519/519
f 521/521/521 522/522/522 523/523/523
f 524/524/524 521/521/521 523/523/523
f 527/527/527 526/526/526 525/525/525
f 528/528/528 527/527/527 525/525/525
f 527/527/527 528/528/528 529/529/529
f 530/530/530 527/527/527 529/529/529
f 533/533/533 532/532/532 531/531/531
f 534/534/534 533/533/533 531/531/531
f 533/533/533 534/534/534 535/535/535
f 536/536/536 533/533/533 535/535/535
f 539/539/539 538/538/538 537/537/537
f 540/540/540 539/539/539 537/537/537
f 541/541/541 538/538/538 539/539/539
f 542/542/542 541/541/541 539/539/539
f 537/537/537 538/538/538 543/543/543
f 538/538/538 544/544/544 543/543/543
f 545/545/545 544/544/544 538/538/538
f 541/541/541 545/545/545 538/538/538
f 548/548/548 547/547/547 546/546/546
f 549/549/549 548/548/548 546/546/546
f 546/546/546 547/547/547 550/550/550
f 547/547/547 551/551/551 550/550/550
f 547/547/547 552/552/552 551/551/551
f 552/552/552 553/553/553 551/551/551
f 554/554/554 552/552/552 547/547/547
f 548/548/548 554/554/554 547/547/547
f 557/557/557 556/556/556 555/555/555
f 558/558/558 557/557/557 555/555/555
f 556/556/556 557/557/557 559/559/559
f 557/557/557 560/560/560 559/559/559
f 555/555/555 556/556/556 561/561/561
f 556/556/556 559/559/559 561/561/561
f 564/564/564 563/563/563 562/562/562
f 565/565/565 564/564/564 562/562/562
f 565/565/565 562/562/562 566/566/566
f 567/567/567 565/565/565 566/566/566
f 568/568/568 564/564/564 565/565/565
f 567/567/567 568/568/568 565/565/565
f 571/571/571 570/570/570 569/569/569
f 572/572/572 571/571/571 569/569/569
f 572/572/572 573/573/573 571/571/571
f 573/573/573 574/574/574 571/571/571
f 573/573/573 575/575/575 574/574/574
f 575/575/575 576/576/576 574/574/574
f 569/569/569 570/570/570 576/576/576
f 575/575/575 569/569/569 576/576/576
f 579/579/579 578/578/578 577/577/577
f 580/580/580 579/579/579 577/577/577
f 580/580/580 581/581/581 579/579/579
f 581/581/581 582/582/582 579/579/579
f 581/581/581 583/583/583 582/582/582
f 583/583/583 584/584/584 582/582/582
f 587/587/587 586/586/586 585/585/585
f 588/588/588 587/587/587 585/585/585
f 585/585/585 586/586/586 589/589/589
f 590/590/590 585/585/585 589/589/589
f 590/590/590 589/589/589 591/591/591
f 589/589/589 592/592/592 591/591/591
f 595/595/595 594/594/594 593/593/593
f 596/596/596 594/594/594 595/595/595
f 596/596/596 597/597/597 594/594/594
f 595/595/595 593/593/593 598/598/598
f 595/595/595 598/598/598 599/599/599
f 599/599/599 598/598/598 600/600/600
f 594/594/594 601/601/601 593/593/593
f 593/593/593 601/601/601 598/598/598
f 594/594/594 602/602/602 601/601/601
f 597/597/597 602/602/602 594/594/594
f 598/598/598 603/603/603 600/600/600
f 598/598/598 601/601/601 603/603/603
f 595/595/595 604/604/604 596/596/596
f 599/599/599 604/604/604 595/595/595
f 601/601/601 602/602/602 605/605/605
f 603/603/603 601/601/601 605/605/605
f 608/608/608 607/607/607 606/606/606
f 609/609/609 607/607/607 608/608/608
f 609/609/609 610/610/610 607/607/607
f 609/609/609 611/611/611 610/610/610
f 612/612/612 611/611/611 609/609/609
f 612/612/612 613/613/613 611/611/611
f 607/607/607 614/614/614 606/606/606
f 607/607/607 615/615/615 614/614/614
f 610/610/610 615/615/615 607/607/607
f 611/611/611 615/615/615 610/610/610
f 611/611/611 616/616/616 615/615/615
f 613/613/613 616/616/616 611/611/611
f 608/608/608 617/617/617 609/609/609
f 609/609/609 617/617/617 612/612/612
f 614/614/614 615/615/615 618/618/618
f 615/615/615 616/616/616 618/618/618
