g Crystal_mesh
v 0.288838774 0 -0.288838834
v 1.03947195E-16 0.662045062 1.03947188E-16
v -0.288838834 9.07007247E-17 -0.288838774
v -0.288838834 9.07007247E-17 -0.288838774
v 1.03947195E-16 0.662045062 1.03947188E-16
v -0.288838774 0 0.288838834
v -0.288838774 0 0.288838834
v 1.03947195E-16 0.662045062 1.03947188E-16
v 0.288838834 -9.07007247E-17 0.288838774
v 1.03947195E-16 0.662045062 1.03947188E-16
v 0.288838774 0 -0.288838834
v 0.288838834 -9.07007247E-17 0.288838774
v -1.03947195E-16 -0.662045062 -1.03947188E-16
v 0.288838774 0 -0.288838834
v -0.288838834 9.07007247E-17 -0.288838774
v -1.03947195E-16 -0.662045062 -1.03947188E-16
v -0.288838834 9.07007247E-17 -0.288838774
v -0.288838774 0 0.288838834
v -1.03947195E-16 -0.662045062 -1.03947188E-16
v -0.288838774 0 0.288838834
v 0.288838834 -9.07007247E-17 0.288838774
v -1.03947195E-16 -0.662045062 -1.03947188E-16
v 0.288838834 -9.07007247E-17 0.288838774
v 0.288838774 0 -0.288838834
vt 0.984774232 0.995717764
vt 0.789166451 0.500370562
vt 0.59355855 0.995717764
vt 0.00673472881 0.500370383
vt 0.202342629 0.995717764
vt 0.39795047 0.500370383
vt 0.593558133 0.995717764
vt 0.397950441 0.500370443
vt 0.202342629 0.995717764
vt 0.59355855 0.995717764
vt 0.78916651 0.500370324
vt 0.39795059 0.500370324
vt 0.39795047 0.500370502
vt 0.593558371 0.00502306595
vt 0.202342689 0.00502313301
vt 0.593558371 0.00502300262
vt 0.39795047 0.500370383
vt 0.789166272 0.500370383
vt 0.789166391 0.500370502
vt 0.984774172 0.00502300262
vt 0.593558371 0.00502300262
vt 0.202342689 0.00502313301
vt 0.00673472881 0.500370383
vt 0.39795059 0.500370383
vn 0.707106709 0 -0.707106888
vn -0 1 0
vn -0.707106888 0 -0.707106709
vn -0.707106888 0 -0.707106709
vn -0 1 0
vn -0.707106709 0 0.707106888
vn -0.707106709 0 0.707106888
vn -0 1 0
vn 0.707106888 0 0.707106709
vn -0 1 0
vn 0.707106709 0 -0.707106888
vn 0.707106888 0 0.707106709
vn -0 -1 0
vn 0.707106709 0 -0.707106888
vn -0.707106888 0 -0.707106709
vn -0 -1 0
vn -0.707106888 0 -0.707106709
vn -0.707106709 0 0.707106888
vn -0 -1 0
vn -0.707106709 0 0.707106888
vn 0.707106888 0 0.707106709
vn -0 -1 0
vn 0.707106888 0 0.707106709
vn 0.707106709 0 -0.707106888
g Crystal_mesh_0
f 3/3/3 2/2/2 1/1/1
f 6/6/6 5/5/5 4/4/4
f 9/9/9 8/8/8 7/7/7
f 12/12/12 11/11/11 10/10/10
f 15/15/15 14/14/14 13/13/13
f 18/18/18 17/17/17 16/16/16
f 21/21/21 20/20/20 19/19/19
f 24/24/24 23/23/23 22/22/22
