g md_BG01081
v 15 0 -5
v 15 0 3.03192936E-14
v 10 0 -5
v 10 0 2.02128624E-14
v -5 0 -25
v -5 0 -20
v -10 0 -25
v -10 0 -20
v 5 0 -15
v 5 0 -10
v 4.54789404E-14 0 -15
v 3.03192936E-14 0 -10
v -5 0 -15
v -5 0 -10
v -10 0 -15
v -10 0 -10
v 5 0 -5
v 5 0 1.01064312E-14
v 1.51596468E-14 0 -5
v -0 0 0
v -5 0 -5
v -5 0 -1.01064312E-14
v -10 0 -5
v -10 0 -2.02128624E-14
v -15 0 -5
v -15 0 -3.03192936E-14
v -20 -9.92616713E-26 -5
v -20 -4.41162881E-26 -4.04437463E-14
v -15 0 -25
v -15 0 -20
v -20 -6.35274673E-23 -25
v -20 -5.27189779E-23 -20
v -24.9583435 -3.05175774E-07 -24.8873234
v -20 -6.35274673E-23 -25
v -24.1842728 -3.05175774E-07 -19.9999981
v -20 -5.27189779E-23 -20
v -15 0 -15
v -15 0 -10
v -20 6.77626343E-23 -15
v -20 1.00805735E-23 -10
v -15 0 -35
v -15 0 -30
v -20 0 -35
v -20 -8.82568594E-21 -30
v -24.9583416 0 -35
v -20 0 -35
v -24.956398 -2.17393518E-20 -30
v -20 -8.82568594E-21 -30
v -30 -4.31986795E-23 -40
v -30 -1.94288174E-22 -35
v -35 1.88464828E-22 -40
v -35.1126709 -3.05175774E-07 -35.0416489
v -40 1.06871736E-23 -9.10858506E-14
v -39.9999962 -3.05175774E-07 -4.18426752
v -35 -9.53674295E-09 -7.57966755E-14
v -35.1126709 -3.05175774E-07 -4.95834446
v -30 -8.00495137E-09 -7.90154934
v -30.0009956 -1.15688486E-07 -5.00265503
v -30.7037468 -3.05175774E-07 -7.20480394
v -35.1126709 -3.05175774E-07 -4.95834446
v -25 -2.40148545E-09 -4.99999952
v -24.980793 -1.05462647E-07 -10
v -20 -9.92616713E-26 -5
v -20 1.00805735E-23 -10
v -24.9583473 6.10351549E-07 -15.1126719
v -20 6.77626343E-23 -15
v -24.980793 -1.05462647E-07 -10
v -20 1.00805735E-23 -10
v -20 -5.27189779E-23 -20
v -20 6.77626343E-23 -15
v -24.1842728 -3.05175774E-07 -19.9999981
v -24.9583473 6.10351549E-07 -15.1126719
v -30.7037449 -3.05175774E-07 -32.7951889
v -30 -1.94288174E-22 -35
v -30 -2.54109878E-23 -32.0737877
v -35.1126709 -3.05175774E-07 -35.0416489
v -20 -8.82568594E-21 -30
v -24.9602852 -2.08437186E-07 -30.0073013
v -24.956398 -2.17393518E-20 -30
v -27.2048035 -3.05175774E-07 -29.2962494
v -27.9152851 -2.66815376E-22 -30
v -24.9583435 -3.05175774E-07 -24.8873234
v -20 -6.35274673E-23 -25
v -24.9602852 -2.08437186E-07 -30.0073013
v -24.9583435 -3.05175774E-07 -24.8873234
v -10 0 -5
v -10 0 -2.02128624E-14
v -15 0 -5
v -15 0 -3.03192936E-14
v -10 0 -15
v -10 0 -10
v -15 0 -15
v -15 0 -10
v -10 0 -25
v -10 0 -20
v -15 0 -25
v -15 0 -20
v -10 0 -30
v -15 0 -30
v -15 0 -35
v 1.51596468E-14 0 -5
v -0 0 0
v -5 0 -5
v -5 0 -1.01064312E-14
v 4.54789404E-14 0 -15
v 3.03192936E-14 0 -10
v -5 0 -15
v -5 0 -10
v 6.06385873E-14 0 -20
v -5 0 -20
v -5 0 -25
v 10 0 -5
v 10 0 2.02128624E-14
v 5 0 -5
v 5 0 1.01064312E-14
v 10 0 -10
v 5 0 -10
v 5 0 -15
v 20 -4.41162881E-26 4.04437463E-14
v 15 0 3.03192936E-14
v 15 0 -5
v -15 0 -35
v -20 0 -35
v -20 0 -40
v -5 0 -25
v -10 0 -25
v -10 0 -30
v -10 0 -30
v -10 0 -25
v -15 0 -30
v -15 0 -25
v -15 0 -30
v -15 0 -25
v -20 -8.82568594E-21 -30
v -20 -6.35274673E-23 -25
v 5 0 -15
v 4.54789404E-14 0 -15
v 6.06385873E-14 0 -20
v 6.06385873E-14 0 -20
v 4.54789404E-14 0 -15
v -5 0 -20
v -5 0 -15
v -5 0 -20
v -5 0 -15
v -10 0 -20
v -10 0 -15
v -10 0 -20
v -10 0 -15
v -15 0 -20
v -15 0 -15
v -15 0 -20
v -15 0 -15
v -20 -5.27189779E-23 -20
v -20 6.77626343E-23 -15
v 15 0 -5
v 10 0 -5
v 10 0 -10
v 10 0 -10
v 10 0 -5
v 5 0 -10
v 5 0 -5
v 5 0 -10
v 5 0 -5
v 3.03192936E-14 0 -10
v 1.51596468E-14 0 -5
v 3.03192936E-14 0 -10
v 1.51596468E-14 0 -5
v -5 0 -10
v -5 0 -5
v -5 0 -10
v -5 0 -5
v -10 0 -10
v -10 0 -5
v -10 0 -10
v -10 0 -5
v -15 0 -10
v -15 0 -5
v -15 0 -10
v -15 0 -5
v -20 1.00805735E-23 -10
v -20 -9.92616713E-26 -5
v -25 -2.82118655E-39 -40
v -20 0 -40
v -24.9583416 0 -35
v -20 0 -35
v -30 -4.31986795E-23 -40
v -25 -2.82118655E-39 -40
v -30 -1.94288174E-22 -35
v -24.9583416 0 -35
v -24.956398 -2.17393518E-20 -30
v -27.9152851 -2.66815376E-22 -30
v -24.9583416 0 -35
v -30 -2.54109878E-23 -32.0737877
v -30 -1.94288174E-22 -35
v -35.1126709 -3.05175774E-07 -35.0416489
v -39.9999962 -3.05175774E-07 -35.8157234
v -35 1.88464828E-22 -40
v -40 1.32701828E-22 -40
v -24.980793 -1.05462647E-07 -10
v -27.2048073 -1.2207031E-06 -10.7037449
v -24.9583473 6.10351549E-07 -15.1126719
v -27.9153481 -8.7713463E-23 -10
v -25 -2.40148545E-09 -4.99999952
v -30 -8.00495137E-09 -7.90154934
v -27.9153481 -8.7713463E-23 -10
v -24.980793 -1.05462647E-07 -10
v -30.0009956 -1.15688486E-07 -5.00265503
v -25 -9.53674295E-09 -5.0595775E-14
v -30 -1.90734859E-08 -6.07215626E-14
v -25 -2.40148545E-09 -4.99999952
v -30.0009956 -1.15688486E-07 -5.00265503
v -20 -4.41162881E-26 -4.04437463E-14
v -25 -9.53674295E-09 -5.0595775E-14
v -20 -9.92616713E-26 -5
v -25 -2.40148545E-09 -4.99999952
v -35.1126709 -3.05175774E-07 -4.95834446
v -30.0009956 -1.15688486E-07 -5.00265503
v -35 -9.53674295E-09 -7.57966755E-14
v -30 -1.90734859E-08 -6.07215626E-14
v -35 -4.76837148E-09 5
v -35 -9.53674295E-09 -7.57966755E-14
v -30 -9.53674295E-09 5
v -30 -1.90734859E-08 -6.07215626E-14
v -35 0 25
v -35 0 20
v -30 0 25
v -30 0 20
v -35 0 15
v -35 -1.32348895E-25 10
v -30 0 15
v -30 1.32348895E-25 10
v -35 0 35
v -35 0 30
v -30 0 35
v -30 0 30
v -25 -4.76837148E-09 5
v -25 -9.53674295E-09 -5.0595775E-14
v -20 5.95570015E-25 5
v -20 -4.41162881E-26 -4.04437463E-14
v -15 0 5
v -15 0 -3.03192936E-14
v -10 0 5
v -10 0 -2.02128624E-14
v -25 0 25
v -25 0 20
v -20 0 25
v -20 0 20
v -15 0 25
v -15 0 20
v -10 0 25
v -10 0 20
v -25 0 15
v -25 3.30872225E-25 10
v -20 0 15
v -20 1.98523343E-25 10
v -15 0 15
v -15 0 10
v -10 0 15
v -10 0 10
v -25 0 35
v -25 0 30
v -20 0 35
v -20 0 30
v -15 0 35
v -15 0 30
v -10 0 35
v -10 0 30
v -5 0 35
v -5 0 30
v -7.07450117E-14 0 35
v -6.06385873E-14 0 30
v 5 0 35
v 5 0 30
v 10 0 35
v 10 0 30
v -5 0 25
v -5 0 20
v -5.0532156E-14 0 25
v -4.04257214E-14 0 20
v 5 0 25
v 5 0 20
v 10 0 25
v 10 0 20
v -5 0 15
v -5 0 10
v -3.03192936E-14 0 15
v -2.02128607E-14 0 10
v 5 0 15
v 5 0 10
v 10 0 15
v 10 0 10
v -5 0 5
v -5 0 -1.01064312E-14
v -1.01064304E-14 0 5
v -0 0 0
v 5 0 5
v 5 0 1.01064312E-14
v 10 0 5
v 10 0 2.02128624E-14
v 15 0 5
v 15 0 3.03192936E-14
v 20 -9.92616713E-26 5
v 20 -4.41162881E-26 4.04437463E-14
v 15 0 25
v 15 0 20
v 20 -6.35274673E-23 25
v 20 -5.27189779E-23 20
v 15 0 15
v 15 0 10
v 20 6.77626343E-23 15
v 20 1.00805735E-23 10
v 15 0 35
v 15 0 30
v 20 0 35
v 20 -8.82568594E-21 30
v 10 0 5
v 10 0 2.02128624E-14
v 15 0 5
v 15 0 3.03192936E-14
v 10 0 15
v 10 0 10
v 15 0 15
v 15 0 10
v 10 0 25
v 10 0 20
v 15 0 25
v 15 0 20
v 10 0 35
v 10 0 30
v 15 0 35
v 15 0 30
v -1.01064304E-14 0 5
v -0 0 0
v 5 0 5
v 5 0 1.01064312E-14
v -3.03192936E-14 0 15
v -2.02128607E-14 0 10
v 5 0 15
v 5 0 10
v -5.0532156E-14 0 25
v -4.04257214E-14 0 20
v 5 0 25
v 5 0 20
v -7.07450117E-14 0 35
v -6.06385873E-14 0 30
v 5 0 35
v 5 0 30
v -10 0 5
v -10 0 -2.02128624E-14
v -5 0 5
v -5 0 -1.01064312E-14
v -10 0 15
v -10 0 10
v -5 0 15
v -5 0 10
v -10 0 25
v -10 0 20
v -5 0 25
v -5 0 20
v -10 0 35
v -10 0 30
v -5 0 35
v -5 0 30
v -20 5.95570015E-25 5
v -20 -4.41162881E-26 -4.04437463E-14
v -15 0 5
v -15 0 -3.03192936E-14
v -20 0 15
v -20 1.98523343E-25 10
v -15 0 15
v -15 0 10
v -20 0 25
v -20 0 20
v -15 0 25
v -15 0 20
v -20 0 35
v -20 0 30
v -15 0 35
v -15 0 30
v -30 -9.53674295E-09 5
v -30 -1.90734859E-08 -6.07215626E-14
v -25 -4.76837148E-09 5
v -25 -9.53674295E-09 -5.0595775E-14
v -30 0 15
v -30 1.32348895E-25 10
v -25 0 15
v -25 3.30872225E-25 10
v -30 0 25
v -30 0 20
v -25 0 25
v -25 0 20
v -30 0 35
v -30 0 30
v -25 0 35
v -25 0 30
v -40 1.05879116E-24 5
v -40 1.06871736E-23 -9.10858506E-14
v -35 -4.76837148E-09 5
v -35 -9.53674295E-09 -7.57966755E-14
v -40 0 15
v -40 -2.6469779E-25 10
v -35 0 15
v -35 -1.32348895E-25 10
v -40 0 25
v -40 0 20
v -35 0 25
v -35 0 20
v -40 0 35
v -40 0 30
v -35 0 35
v -35 0 30
v -40 0 40
v -40 0 35
v -35 0 40
v -35 0 35
v -35 0 40
v -35 0 35
v -30 0 40
v -30 0 35
v -30 0 40
v -30 0 35
v -25 0 40
v -25 0 35
v -25 0 40
v -25 0 35
v -20 0 40
v -20 0 35
v -20 0 40
v -20 0 35
v -15 0 40
v -15 0 35
v -15 0 40
v -15 0 35
v -10 0 40
v -10 0 35
v -10 0 40
v -10 0 35
v -5 0 40
v -5 0 35
v -5 0 40
v -5 0 35
v -4.04257214E-14 0 40
v -7.07450117E-14 0 35
v -4.04257214E-14 0 40
v -7.07450117E-14 0 35
v 5 0 40
v 5 0 35
v 5 0 40
v 5 0 35
v 10 0 40
v 10 0 35
v 10 0 40
v 10 0 35
v 15 0 40
v 15 0 35
v 15 0 40
v 15 0 35
v 20 0 40
v 20 0 35
v -40 0 30
v -40 0 25
v -35 0 30
v -35 0 25
v -35 0 30
v -35 0 25
v -30 0 30
v -30 0 25
v -30 0 30
v -30 0 25
v -25 0 30
v -25 0 25
v -25 0 30
v -25 0 25
v -20 0 30
v -20 0 25
v -20 0 30
v -20 0 25
v -15 0 30
v -15 0 25
v -15 0 30
v -15 0 25
v -10 0 30
v -10 0 25
v -10 0 30
v -10 0 25
v -5 0 30
v -5 0 25
v -5 0 30
v -5 0 25
v -6.06385873E-14 0 30
v -5.0532156E-14 0 25
v -6.06385873E-14 0 30
v -5.0532156E-14 0 25
v 5 0 30
v 5 0 25
v 5 0 30
v 5 0 25
v 10 0 30
v 10 0 25
v 10 0 30
v 10 0 25
v 15 0 30
v 15 0 25
v 15 0 30
v 15 0 25
v 20 -8.82568594E-21 30
v 20 -6.35274673E-23 25
v -40 0 20
v -40 0 15
v -35 0 20
v -35 0 15
v -35 0 20
v -35 0 15
v -30 0 20
v -30 0 15
v -30 0 20
v -30 0 15
v -25 0 20
v -25 0 15
v -25 0 20
v -25 0 15
v -20 0 20
v -20 0 15
v -20 0 20
v -20 0 15
v -15 0 20
v -15 0 15
v -15 0 20
v -15 0 15
v -10 0 20
v -10 0 15
v -10 0 20
v -10 0 15
v -5 0 20
v -5 0 15
v -5 0 20
v -5 0 15
v -4.04257214E-14 0 20
v -3.03192936E-14 0 15
v -4.04257214E-14 0 20
v -3.03192936E-14 0 15
v 5 0 20
v 5 0 15
v 5 0 20
v 5 0 15
v 10 0 20
v 10 0 15
v 10 0 20
v 10 0 15
v 15 0 20
v 15 0 15
v 15 0 20
v 15 0 15
v 20 -5.27189779E-23 20
v 20 6.77626343E-23 15
v -40 -2.6469779E-25 10
v -40 1.05879116E-24 5
v -35 -1.32348895E-25 10
v -35 -4.76837148E-09 5
v -35 -1.32348895E-25 10
v -35 -4.76837148E-09 5
v -30 1.32348895E-25 10
v -30 -9.53674295E-09 5
v -30 1.32348895E-25 10
v -30 -9.53674295E-09 5
v -25 3.30872225E-25 10
v -25 -4.76837148E-09 5
v -25 3.30872225E-25 10
v -25 -4.76837148E-09 5
v -20 1.98523343E-25 10
v -20 5.95570015E-25 5
v -20 1.98523343E-25 10
v -20 5.95570015E-25 5
v -15 0 10
v -15 0 5
v -15 0 10
v -15 0 5
v -10 0 10
v -10 0 5
v -10 0 10
v -10 0 5
v -5 0 10
v -5 0 5
v -5 0 10
v -5 0 5
v -2.02128607E-14 0 10
v -1.01064304E-14 0 5
v -2.02128607E-14 0 10
v -1.01064304E-14 0 5
v 5 0 10
v 5 0 5
v 5 0 10
v 5 0 5
v 10 0 10
v 10 0 5
v 10 0 10
v 10 0 5
v 15 0 10
v 15 0 5
v 15 0 10
v 15 0 5
v 20 1.00805735E-23 10
v 20 -9.92616713E-26 5
v -39.9999962 -3.05175774E-07 -4.18426752
v -44.8873215 -6.10351549E-07 -4.95834446
v -39.9999962 -6.10351549E-07 -5.7400918
v -44.4065475 -6.10351549E-07 -6.43802214
v -44.8873215 -6.10351549E-07 -4.95834446
v -49.2962494 -6.10351549E-07 -7.20480394
v -44.4065475 -6.10351549E-07 -6.43802214
v -48.3817558 -6.10351549E-07 -8.46349335
v -49.2962494 -6.10351549E-07 -7.20480394
v -52.7951851 -6.10351549E-07 -10.7037449
v -48.3817558 -6.10351549E-07 -8.46349335
v -51.5365028 -6.10351549E-07 -11.6182337
v -52.7951851 -6.10351549E-07 -10.7037449
v -55.0416489 -6.10351549E-07 -15.1126719
v -51.5365028 -6.10351549E-07 -11.6182337
v -53.5619698 -6.10351549E-07 -15.5934477
v -55.0416489 -6.10351549E-07 -15.1126719
v -55.8157196 -6.10351549E-07 -19.9999981
v -53.5619698 -6.10351549E-07 -15.5934477
v -54.259903 -6.10351549E-07 -19.9999981
v -52.0333176 -6.10351549E-07 -16.0901375
v -52.6525764 -6.10351549E-07 -19.9999962
v -46.0997314 -6.10351549E-07 -18.018074
v -46.4136429 -6.10351549E-07 -19.9999962
v -50.2361526 -6.10351549E-07 -12.562995
v -52.0333176 -6.10351549E-07 -16.0901375
v -45.1887398 -6.10351549E-07 -16.2301521
v -46.0997314 -6.10351549E-07 -18.018074
v -47.4369965 -6.10351549E-07 -9.76384258
v -50.2361526 -6.10351549E-07 -12.562995
v -43.7698441 -6.10351549E-07 -14.8112507
v -45.1887398 -6.10351549E-07 -16.2301521
v -43.9098587 -6.10351549E-07 -7.96667528
v -47.4369965 -6.10351549E-07 -9.76384258
v -41.9819183 -6.10351549E-07 -13.90026
v -43.7698441 -6.10351549E-07 -14.8112507
v -39.9999962 -6.10351549E-07 -7.34741354
v -43.9098587 -6.10351549E-07 -7.96667528
v -39.9999962 -6.10351549E-07 -13.5863543
v -41.9819183 -6.10351549E-07 -13.90026
v -46.0997314 -6.10351549E-07 -18.018074
v -46.4136429 -6.10351549E-07 -19.9999962
v -39.9999962 -6.10351549E-07 -19.9999962
v -45.1887398 -6.10351549E-07 -16.2301521
v -43.7698441 -6.10351549E-07 -14.8112507
v -41.9819183 -6.10351549E-07 -13.90026
v -39.9999962 -6.10351549E-07 -13.5863543
v -55.8157196 -6.10351549E-07 -19.9999981
v -55.0416489 -6.10351549E-07 -24.8873234
v -54.259903 -6.10351549E-07 -19.9999981
v -53.5619698 -6.10351549E-07 -24.4065475
v -55.0416489 -6.10351549E-07 -24.8873234
v -52.7951927 -6.10351549E-07 -29.2962494
v -53.5619698 -6.10351549E-07 -24.4065475
v -51.536499 -6.10351549E-07 -28.3817539
v -52.7951927 -6.10351549E-07 -29.2962494
v -49.2962494 -6.10351549E-07 -32.7951889
v -51.536499 -6.10351549E-07 -28.3817539
v -48.3817635 -6.10351549E-07 -31.5365009
v -49.2962494 -6.10351549E-07 -32.7951889
v -44.8873215 -6.10351549E-07 -35.0416489
v -48.3817635 -6.10351549E-07 -31.5365009
v -44.4065475 -6.10351549E-07 -33.5619736
v -44.8873215 -6.10351549E-07 -35.0416489
v -39.9999962 -3.05175774E-07 -35.8157234
v -44.4065475 -6.10351549E-07 -33.5619736
v -39.9999962 -6.10351549E-07 -34.2598953
v -43.9098587 -6.10351549E-07 -32.0333214
v -39.9999962 -6.10351549E-07 -32.6525764
v -41.9819183 -6.10351549E-07 -26.0997314
v -39.9999962 -6.10351549E-07 -26.4136372
v -47.4370003 -6.10351549E-07 -30.2361507
v -43.9098587 -6.10351549E-07 -32.0333214
v -43.7698441 -6.10351549E-07 -25.1887417
v -41.9819183 -6.10351549E-07 -26.0997314
v -50.2361526 -6.10351549E-07 -27.4369965
v -47.4370003 -6.10351549E-07 -30.2361507
v -45.1887436 -6.10351549E-07 -23.7698402
v -43.7698441 -6.10351549E-07 -25.1887417
v -52.0333176 -6.10351549E-07 -23.9098587
v -50.2361526 -6.10351549E-07 -27.4369965
v -46.0997353 -6.10351549E-07 -21.9819202
v -45.1887436 -6.10351549E-07 -23.7698402
v -52.6525764 -6.10351549E-07 -19.9999962
v -52.0333176 -6.10351549E-07 -23.9098587
v -46.4136429 -6.10351549E-07 -19.9999962
v -46.0997353 -6.10351549E-07 -21.9819202
v -41.9819183 -6.10351549E-07 -26.0997314
v -39.9999962 -6.10351549E-07 -26.4136372
v -39.9999962 -6.10351549E-07 -19.9999962
v -43.7698441 -6.10351549E-07 -25.1887417
v -45.1887436 -6.10351549E-07 -23.7698402
v -46.0997353 -6.10351549E-07 -21.9819202
v -46.4136429 -6.10351549E-07 -19.9999962
v -39.9999962 -3.05175774E-07 -4.18426752
v -39.9999962 -6.10351549E-07 -5.7400918
v -35.1126709 -3.05175774E-07 -4.95834446
v -35.5934448 -6.10351549E-07 -6.43802214
v -35.1126709 -3.05175774E-07 -4.95834446
v -35.5934448 -6.10351549E-07 -6.43802214
v -30.7037468 -3.05175774E-07 -7.20480394
v -31.6182384 -6.10351549E-07 -8.46349239
v -30.7037468 -3.05175774E-07 -7.20480394
v -31.6182384 -6.10351549E-07 -8.46349239
v -27.2048073 -1.2207031E-06 -10.7037449
v -28.4634933 -6.10351549E-07 -11.6182346
v -27.2048073 -1.2207031E-06 -10.7037449
v -28.4634933 -6.10351549E-07 -11.6182346
v -24.9583473 6.10351549E-07 -15.1126719
v -26.4380226 -6.10351549E-07 -15.5934477
v -24.9583473 6.10351549E-07 -15.1126719
v -26.4380226 -6.10351549E-07 -15.5934477
v -24.1842728 -3.05175774E-07 -19.9999981
v -25.7400913 -6.10351549E-07 -19.9999962
v -27.9666767 -6.10351549E-07 -16.0901375
v -33.9002647 -6.10351549E-07 -18.018074
v -27.347414 -6.10351549E-07 -19.9999962
v -33.5863533 -6.10351549E-07 -19.9999962
v -29.7638454 -6.10351549E-07 -12.562995
v -34.8112526 -6.10351549E-07 -16.2301521
v -27.9666767 -6.10351549E-07 -16.0901375
v -33.9002647 -6.10351549E-07 -18.018074
v -32.5629959 -6.10351549E-07 -9.76384258
v -36.2301521 -6.10351549E-07 -14.8112507
v -29.7638454 -6.10351549E-07 -12.562995
v -34.8112526 -6.10351549E-07 -16.2301521
v -36.0901375 -6.10351549E-07 -7.96667528
v -38.018074 -6.10351549E-07 -13.90026
v -32.5629959 -6.10351549E-07 -9.76384258
v -36.2301521 -6.10351549E-07 -14.8112507
v -39.9999962 -6.10351549E-07 -7.34741354
v -39.9999962 -6.10351549E-07 -13.5863543
v -36.0901375 -6.10351549E-07 -7.96667528
v -38.018074 -6.10351549E-07 -13.90026
v -33.9002647 -6.10351549E-07 -18.018074
v -39.9999962 -6.10351549E-07 -19.9999962
v -33.5863533 -6.10351549E-07 -19.9999962
v -34.8112526 -6.10351549E-07 -16.2301521
v -36.2301521 -6.10351549E-07 -14.8112507
v -38.018074 -6.10351549E-07 -13.90026
v -39.9999962 -6.10351549E-07 -13.5863543
v -24.1842728 -3.05175774E-07 -19.9999981
v -25.7400913 -6.10351549E-07 -19.9999962
v -24.9583435 -3.05175774E-07 -24.8873234
v -26.4380226 -6.10351549E-07 -24.4065475
v -24.9583435 -3.05175774E-07 -24.8873234
v -26.4380226 -6.10351549E-07 -24.4065475
v -27.2048035 -3.05175774E-07 -29.2962494
v -28.4634914 -6.10351549E-07 -28.3817539
v -27.2048035 -3.05175774E-07 -29.2962494
v -28.4634914 -6.10351549E-07 -28.3817539
v -30.7037449 -3.05175774E-07 -32.7951889
v -31.6182308 -6.10351549E-07 -31.536499
v -30.7037449 -3.05175774E-07 -32.7951889
v -31.6182308 -6.10351549E-07 -31.536499
v -35.1126709 -3.05175774E-07 -35.0416489
v -35.5934448 -6.10351549E-07 -33.5619736
v -35.1126709 -3.05175774E-07 -35.0416489
v -35.5934448 -6.10351549E-07 -33.5619736
v -39.9999962 -3.05175774E-07 -35.8157234
v -39.9999962 -6.10351549E-07 -34.2598953
v -36.0901375 -6.10351549E-07 -32.0333176
v -38.018074 -6.10351549E-07 -26.0997314
v -39.9999962 -6.10351549E-07 -32.6525764
v -39.9999962 -6.10351549E-07 -26.4136372
v -32.5629921 -6.10351549E-07 -30.2361488
v -36.2301521 -6.10351549E-07 -25.1887417
v -36.0901375 -6.10351549E-07 -32.0333176
v -38.018074 -6.10351549E-07 -26.0997314
v -29.7638416 -6.10351549E-07 -27.4369965
v -34.8112488 -6.10351549E-07 -23.7698383
v -32.5629921 -6.10351549E-07 -30.2361488
v -36.2301521 -6.10351549E-07 -25.1887417
v -27.9666748 -6.10351549E-07 -23.9098587
v -33.9002571 -6.10351549E-07 -21.9819202
v -29.7638416 -6.10351549E-07 -27.4369965
v -34.8112488 -6.10351549E-07 -23.7698383
v -27.347414 -6.10351549E-07 -19.9999962
v -33.5863533 -6.10351549E-07 -19.9999962
v -27.9666748 -6.10351549E-07 -23.9098587
v -33.9002571 -6.10351549E-07 -21.9819202
v -38.018074 -6.10351549E-07 -26.0997314
v -39.9999962 -6.10351549E-07 -19.9999962
v -39.9999962 -6.10351549E-07 -26.4136372
v -36.2301521 -6.10351549E-07 -25.1887417
v -34.8112488 -6.10351549E-07 -23.7698383
v -33.9002571 -6.10351549E-07 -21.9819202
v -33.5863533 -6.10351549E-07 -19.9999962
v -29.1596642 -6.10351549E-07 -12.1240339
v -29.7638454 -6.10351549E-07 -12.562995
v -27.256422 -6.10351549E-07 -15.8593626
v -27.9666767 -6.10351549E-07 -16.0901375
v -32.1240387 -6.10351549E-07 -9.15966511
v -32.5629959 -6.10351549E-07 -9.76384258
v -29.1596642 -6.10351549E-07 -12.1240339
v -29.7638454 -6.10351549E-07 -12.562995
v -35.8593597 -6.10351549E-07 -7.25642204
v -36.0901375 -6.10351549E-07 -7.96667528
v -32.1240387 -6.10351549E-07 -9.15966511
v -32.5629959 -6.10351549E-07 -9.76384258
v -39.9999962 -6.10351549E-07 -6.60060883
v -39.9999962 -6.10351549E-07 -7.34741354
v -35.8593597 -6.10351549E-07 -7.25642204
v -36.0901375 -6.10351549E-07 -7.96667528
v -44.1406326 -6.10351549E-07 -7.25642204
v -43.9098587 -6.10351549E-07 -7.96667528
v -39.9999962 -6.10351549E-07 -6.60060883
v -39.9999962 -6.10351549E-07 -7.34741354
v -47.8759575 -6.10351549E-07 -9.15966511
v -47.4369965 -6.10351549E-07 -9.76384258
v -44.1406326 -6.10351549E-07 -7.25642204
v -43.9098587 -6.10351549E-07 -7.96667528
v -50.840332 -6.10351549E-07 -12.1240339
v -50.2361526 -6.10351549E-07 -12.562995
v -47.8759575 -6.10351549E-07 -9.15966511
v -47.4369965 -6.10351549E-07 -9.76384258
v -52.7435722 -6.10351549E-07 -15.8593626
v -52.0333176 -6.10351549E-07 -16.0901375
v -50.840332 -6.10351549E-07 -12.1240339
v -50.2361526 -6.10351549E-07 -12.562995
v -53.3993835 -6.10351549E-07 -19.9999962
v -52.6525764 -6.10351549E-07 -19.9999962
v -52.7435722 -6.10351549E-07 -15.8593626
v -52.0333176 -6.10351549E-07 -16.0901375
v -52.7435722 -6.10351549E-07 -24.1406345
v -52.0333176 -6.10351549E-07 -23.9098587
v -53.3993835 -6.10351549E-07 -19.9999962
v -52.6525764 -6.10351549E-07 -19.9999962
v -50.8403244 -6.10351549E-07 -27.8759556
v -50.2361526 -6.10351549E-07 -27.4369965
v -52.7435722 -6.10351549E-07 -24.1406345
v -52.0333176 -6.10351549E-07 -23.9098587
v -47.8759613 -6.10351549E-07 -30.8403282
v -47.4370003 -6.10351549E-07 -30.2361507
v -50.8403244 -6.10351549E-07 -27.8759556
v -50.2361526 -6.10351549E-07 -27.4369965
v -44.1406326 -6.10351549E-07 -32.7435722
v -43.9098587 -6.10351549E-07 -32.0333214
v -47.8759613 -6.10351549E-07 -30.8403282
v -47.4370003 -6.10351549E-07 -30.2361507
v -39.9999962 -6.10351549E-07 -33.3993797
v -39.9999962 -6.10351549E-07 -32.6525764
v -44.1406326 -6.10351549E-07 -32.7435722
v -43.9098587 -6.10351549E-07 -32.0333214
v -35.8593597 -6.10351549E-07 -32.7435722
v -36.0901375 -6.10351549E-07 -32.0333176
v -39.9999962 -6.10351549E-07 -33.3993797
v -39.9999962 -6.10351549E-07 -32.6525764
v -32.1240311 -6.10351549E-07 -30.8403263
v -32.5629921 -6.10351549E-07 -30.2361488
v -35.8593597 -6.10351549E-07 -32.7435722
v -36.0901375 -6.10351549E-07 -32.0333176
v -29.1596622 -6.10351549E-07 -27.8759556
v -29.7638416 -6.10351549E-07 -27.4369965
v -32.1240311 -6.10351549E-07 -30.8403263
v -32.5629921 -6.10351549E-07 -30.2361488
v -27.2564201 -6.10351549E-07 -24.1406345
v -27.9666748 -6.10351549E-07 -23.9098587
v -29.1596622 -6.10351549E-07 -27.8759556
v -29.7638416 -6.10351549E-07 -27.4369965
v -26.6006088 -6.10351549E-07 -19.9999962
v -27.347414 -6.10351549E-07 -19.9999962
v -27.2564201 -6.10351549E-07 -24.1406345
v -27.9666748 -6.10351549E-07 -23.9098587
v -27.256422 -6.10351549E-07 -15.8593626
v -27.9666767 -6.10351549E-07 -16.0901375
v -26.6006088 -6.10351549E-07 -19.9999962
v -27.347414 -6.10351549E-07 -19.9999962
v -28.4634933 -6.10351549E-07 -11.6182346
v -29.1596642 -6.10351549E-07 -12.1240339
v -26.4380226 -6.10351549E-07 -15.5934477
v -27.256422 -6.10351549E-07 -15.8593626
v -31.6182384 -6.10351549E-07 -8.46349239
v -32.1240387 -6.10351549E-07 -9.15966511
v -28.4634933 -6.10351549E-07 -11.6182346
v -29.1596642 -6.10351549E-07 -12.1240339
v -35.5934448 -6.10351549E-07 -6.43802214
v -35.8593597 -6.10351549E-07 -7.25642204
v -31.6182384 -6.10351549E-07 -8.46349239
v -32.1240387 -6.10351549E-07 -9.15966511
v -39.9999962 -6.10351549E-07 -5.7400918
v -39.9999962 -6.10351549E-07 -6.60060883
v -35.5934448 -6.10351549E-07 -6.43802214
v -35.8593597 -6.10351549E-07 -7.25642204
v -44.4065475 -6.10351549E-07 -6.43802214
v -44.1406326 -6.10351549E-07 -7.25642204
v -39.9999962 -6.10351549E-07 -5.7400918
v -39.9999962 -6.10351549E-07 -6.60060883
v -48.3817558 -6.10351549E-07 -8.46349335
v -47.8759575 -6.10351549E-07 -9.15966511
v -44.4065475 -6.10351549E-07 -6.43802214
v -44.1406326 -6.10351549E-07 -7.25642204
v -51.5365028 -6.10351549E-07 -11.6182337
v -50.840332 -6.10351549E-07 -12.1240339
v -48.3817558 -6.10351549E-07 -8.46349335
v -47.8759575 -6.10351549E-07 -9.15966511
v -53.5619698 -6.10351549E-07 -15.5934477
v -52.7435722 -6.10351549E-07 -15.8593626
v -51.5365028 -6.10351549E-07 -11.6182337
v -50.840332 -6.10351549E-07 -12.1240339
v -54.259903 -6.10351549E-07 -19.9999981
v -53.3993835 -6.10351549E-07 -19.9999962
v -53.5619698 -6.10351549E-07 -15.5934477
v -52.7435722 -6.10351549E-07 -15.8593626
v -53.5619698 -6.10351549E-07 -24.4065475
v -52.7435722 -6.10351549E-07 -24.1406345
v -54.259903 -6.10351549E-07 -19.9999981
v -53.3993835 -6.10351549E-07 -19.9999962
v -51.536499 -6.10351549E-07 -28.3817539
v -50.8403244 -6.10351549E-07 -27.8759556
v -53.5619698 -6.10351549E-07 -24.4065475
v -52.7435722 -6.10351549E-07 -24.1406345
v -48.3817635 -6.10351549E-07 -31.5365009
v -47.8759613 -6.10351549E-07 -30.8403282
v -51.536499 -6.10351549E-07 -28.3817539
v -50.8403244 -6.10351549E-07 -27.8759556
v -44.4065475 -6.10351549E-07 -33.5619736
v -44.1406326 -6.10351549E-07 -32.7435722
v -48.3817635 -6.10351549E-07 -31.5365009
v -47.8759613 -6.10351549E-07 -30.8403282
v -39.9999962 -6.10351549E-07 -34.2598953
v -39.9999962 -6.10351549E-07 -33.3993797
v -44.4065475 -6.10351549E-07 -33.5619736
v -44.1406326 -6.10351549E-07 -32.7435722
v -35.5934448 -6.10351549E-07 -33.5619736
v -35.8593597 -6.10351549E-07 -32.7435722
v -39.9999962 -6.10351549E-07 -34.2598953
v -39.9999962 -6.10351549E-07 -33.3993797
v -31.6182308 -6.10351549E-07 -31.536499
v -32.1240311 -6.10351549E-07 -30.8403263
v -35.5934448 -6.10351549E-07 -33.5619736
v -35.8593597 -6.10351549E-07 -32.7435722
v -28.4634914 -6.10351549E-07 -28.3817539
v -29.1596622 -6.10351549E-07 -27.8759556
v -31.6182308 -6.10351549E-07 -31.536499
v -32.1240311 -6.10351549E-07 -30.8403263
v -26.4380226 -6.10351549E-07 -24.4065475
v -27.2564201 -6.10351549E-07 -24.1406345
v -28.4634914 -6.10351549E-07 -28.3817539
v -29.1596622 -6.10351549E-07 -27.8759556
v -25.7400913 -6.10351549E-07 -19.9999962
v -26.6006088 -6.10351549E-07 -19.9999962
v -26.4380226 -6.10351549E-07 -24.4065475
v -27.2564201 -6.10351549E-07 -24.1406345
v -26.4380226 -6.10351549E-07 -15.5934477
v -27.256422 -6.10351549E-07 -15.8593626
v -25.7400913 -6.10351549E-07 -19.9999962
v -26.6006088 -6.10351549E-07 -19.9999962
v -35 0 45
v -35 0 40
v -30 0 45
v -30 0 40
v -35 0 55
v -35 0 50
v -30 0 55
v -30 0 50
v -25 0 45
v -25 0 40
v -20 0 45
v -20 0 40
v -25 0 55
v -25 0 50
v -20 0 55
v -20 0 50
v -30 0 45
v -30 0 40
v -25 0 45
v -25 0 40
v -30 0 55
v -30 0 50
v -25 0 55
v -25 0 50
v -40 0 45
v -40 0 40
v -35 0 45
v -35 0 40
v -40 0 55
v -40 0 50
v -35 0 55
v -35 0 50
v -40 0 50
v -40 0 45
v -35 0 50
v -35 0 45
v -35 0 50
v -35 0 45
v -30 0 50
v -30 0 45
v -30 0 50
v -30 0 45
v -25 0 50
v -25 0 45
v -25 0 50
v -25 0 45
v -20 0 50
v -20 0 45
v -35 0 60
v -35 0 55
v -30 0 60
v -30 0 55
v -25 0 60
v -25 0 55
v -20 0 60
v -20 0 55
v -30 0 60
v -30 0 55
v -25 0 60
v -25 0 55
v -40 0 60
v -40 0 55
v -35 0 60
v -35 0 55
v -0 0 55
v 5 0 55
v -0 0 60
v -5 0 60
v -10 0 60
v -5 0 55
v -10 0 55
v -15 0 60
v -20 0 60
v -15 0 55
v -20 0 55
v -10 0 60
v -15 0 60
v -10 0 55
v -15 0 55
v -0 0 60
v -5 0 60
v -0 0 55
v -5 0 55
v 5 0 45
v 5 0 40
v 10 0 45
v 10 0 40
v 5 0 50
v 10 0 50
v 5 0 55
v 15 0 40
v 20 0 40
v 15 0 45
v 10 0 45
v 10 0 40
v 15 0 45
v 15 0 40
v -0 0 45
v -4.04257214E-14 0 40
v 5 0 45
v 5 0 40
v -0 0 55
v -0 0 50
v 5 0 55
v 5 0 50
v -0 0 50
v -0 0 45
v 5 0 50
v 5 0 45
v 5 0 50
v 5 0 45
v 10 0 50
v 10 0 45
v 10 0 45
v 15 0 45
v 10 0 50
v -5 0 45
v -10 0 45
v -5 0 40
v -10 0 40
v -5 0 55
v -10 0 55
v -5 0 50
v -10 0 50
v -15 0 45
v -20 0 45
v -15 0 40
v -20 0 40
v -15 0 55
v -20 0 55
v -15 0 50
v -20 0 50
v -10 0 45
v -15 0 45
v -10 0 40
v -15 0 40
v -10 0 55
v -15 0 55
v -10 0 50
v -15 0 50
v -0 0 45
v -5 0 45
v -4.04257214E-14 0 40
v -5 0 40
v -0 0 55
v -5 0 55
v -0 0 50
v -5 0 50
v -0 0 50
v -5 0 50
v -0 0 45
v -5 0 45
v -5 0 50
v -10 0 50
v -5 0 45
v -10 0 45
v -10 0 50
v -15 0 50
v -10 0 45
v -15 0 45
v -15 0 50
v -20 0 50
v -15 0 45
v -20 0 45
vt 0.770996094 0.00354003906
vt 0.770996094 0.227661133
vt 0.99609375 0.00354003906
vt 0.99609375 0.227661133
vt 0.770996094 0.00354003906
vt 0.770996094 0.227661133
vt 0.99609375 0.00354003906
vt 0.99609375 0.227661133
vt 0.770996094 0.00354003906
vt 0.770996094 0.227661133
vt 0.99609375 0.00354003906
vt 0.99609375 0.227661133
vt 0.770996094 0.00354003906
vt 0.770996094 0.227661133
vt 0.99609375 0.00354003906
vt 0.99609375 0.227661133
vt 0.770996094 0.00354003906
vt 0.770996094 0.227661133
vt 0.99609375 0.00354003906
vt 0.99609375 0.227661133
vt 0.770996094 0.00354003906
vt 0.770996094 0.227661133
vt 0.99609375 0.00354003906
vt 0.99609375 0.227661133
vt 0.770996094 0.00354003906
vt 0.770996094 0.227661133
vt 0.99609375 0.00354003906
vt 0.99609375 0.227661133
vt 0.770996094 0.00354003906
vt 0.770996094 0.227661133
vt 0.99609375 0.00354003906
vt 0.99609375 0.227661133
vt 0.99609375 0.00354003906
vt 0.770996094 0.00354003906
vt 0.960449219 0.227661133
vt 0.770996094 0.227661133
vt 0.770996094 0.00354003906
vt 0.770996094 0.227661133
vt 0.99609375 0.00354003906
vt 0.99609375 0.227661133
vt 0.770996094 0.00354003906
vt 0.770996094 0.227661133
vt 0.99609375 0.00354003906
vt 0.99609375 0.227661133
vt 0.99609375 0.00354003906
vt 0.770996094 0.00354003906
vt 0.99609375 0.227661133
vt 0.770996094 0.227661133
vt 0.770996094 0.00354003906
vt 0.770996094 0.227661133
vt 0.99609375 0.00354003906
vt 0.99609375 0.227661133
vt 0.99609375 0.227661133
vt 0.99609375 0.0403137207
vt 0.770996094 0.227661133
vt 0.770996094 0.00354003906
vt 0.770996094 0.0977783203
vt 0.770996094 0.227661133
vt 0.803222656 0.12890625
vt 0.99609375 0.227661133
vt 0.99609375 0.227661133
vt 0.99609375 0.00354003906
vt 0.770996094 0.227661133
vt 0.770996094 0.00354003906
vt 0.99609375 0.00354003906
vt 0.770996094 0.00354003906
vt 0.99609375 0.227661133
vt 0.770996094 0.227661133
vt 0.770996094 0.00354003906
vt 0.770996094 0.227661133
vt 0.960449219 0.00354003906
vt 0.99609375 0.227661133
vt 0.803222656 0.102539062
vt 0.770996094 0.00354003906
vt 0.770996094 0.134765625
vt 0.99609375 0.00354003906
vt 0.770996094 0.00354003906
vt 0.770996094 0.00354003906
vt 0.770996094 0.00354003906
vt 0.871582031 0.035369873
vt 0.902832031 0.00354003906
vt 0.770996094 0.227661133
vt 0.770996094 0.227661133
vt 0.99609375 0.00354003906
vt 0.99609375 0.227661133
vt 0.770996094 0.00354003906
vt 0.770996094 0.227661133
vt 0.99609375 0.00354003906
vt 0.99609375 0.227661133
vt 0.770996094 0.00354003906
vt 0.770996094 0.227661133
vt 0.99609375 0.00354003906
vt 0.99609375 0.227661133
vt 0.770996094 0.00354003906
vt 0.770996094 0.227661133
vt 0.99609375 0.00354003906
vt 0.99609375 0.227661133
vt 0.770996094 0.227661133
vt 0.99609375 0.227661133
vt 0.99609375 0.00354003906
vt 0.770996094 0.00354003906
vt 0.770996094 0.227661133
vt 0.99609375 0.00354003906
vt 0.99609375 0.227661133
vt 0.770996094 0.00354003906
vt 0.770996094 0.227661133
vt 0.99609375 0.00354003906
vt 0.99609375 0.227661133
vt 0.770996094 0.227661133
vt 0.99609375 0.227661133
vt 0.99609375 0.00354003906
vt 0.770996094 0.00354003906
vt 0.770996094 0.227661133
vt 0.99609375 0.00354003906
vt 0.99609375 0.227661133
vt 0.770996094 0.227661133
vt 0.99609375 0.227661133
vt 0.99609375 0.00354003906
vt 0.770996094 0.227661133
vt 0.99609375 0.227661133
vt 0.99609375 0.00354003906
vt 0.770996094 0.227661133
vt 0.99609375 0.227661133
vt 0.99609375 0.00354003906
vt 0.770996094 0.227661133
vt 0.99609375 0.227661133
vt 0.99609375 0.00354003906
vt 0.770996094 0.00354003906
vt 0.770996094 0.227661133
vt 0.99609375 0.00354003906
vt 0.99609375 0.227661133
vt 0.770996094 0.00354003906
vt 0.770996094 0.227661133
vt 0.99609375 0.00354003906
vt 0.99609375 0.227661133
vt 0.770996094 0.227661133
vt 0.99609375 0.227661133
vt 0.99609375 0.00354003906
vt 0.770996094 0.00354003906
vt 0.770996094 0.227661133
vt 0.99609375 0.00354003906
vt 0.99609375 0.227661133
vt 0.770996094 0.00354003906
vt 0.770996094 0.227661133
vt 0.99609375 0.00354003906
vt 0.99609375 0.227661133
vt 0.770996094 0.00354003906
vt 0.770996094 0.227661133
vt 0.99609375 0.00354003906
vt 0.99609375 0.227661133
vt 0.770996094 0.00354003906
vt 0.770996094 0.227661133
vt 0.99609375 0.00354003906
vt 0.99609375 0.227661133
vt 0.770996094 0.227661133
vt 0.99609375 0.227661133
vt 0.99609375 0.00354003906
vt 0.770996094 0.00354003906
vt 0.770996094 0.227661133
vt 0.99609375 0.00354003906
vt 0.99609375 0.227661133
vt 0.770996094 0.00354003906
vt 0.770996094 0.227661133
vt 0.99609375 0.00354003906
vt 0.99609375 0.227661133
vt 0.770996094 0.00354003906
vt 0.770996094 0.227661133
vt 0.99609375 0.00354003906
vt 0.99609375 0.227661133
vt 0.770996094 0.00354003906
vt 0.770996094 0.227661133
vt 0.99609375 0.00354003906
vt 0.99609375 0.227661133
vt 0.770996094 0.00354003906
vt 0.770996094 0.227661133
vt 0.99609375 0.00354003906
vt 0.99609375 0.227661133
vt 0.770996094 0.00354003906
vt 0.770996094 0.227661133
vt 0.99609375 0.00354003906
vt 0.99609375 0.227661133
vt 0.99609375 0.00354003906
vt 0.770996094 0.00354003906
vt 0.99609375 0.227661133
vt 0.770996094 0.227661133
vt 0.99609375 0.00354003906
vt 0.770996094 0.00354003906
vt 0.99609375 0.227661133
vt 0.770996094 0.227661133
vt 0.770996094 0.227661133
vt 0.902832031 0.227661133
vt 0.770996094 0.00354003906
vt 0.99609375 0.134765625
vt 0.99609375 0.00354003906
vt 0.770996094 0.227661133
vt 0.99609375 0.191162109
vt 0.770996094 0.00354003906
vt 0.99609375 0.00354003906
vt 0.770996094 0.227661133
vt 0.871582031 0.196044922
vt 0.770996094 0.00354003906
vt 0.902832031 0.227661133
vt 0.770996094 0.227661133
vt 0.99609375 0.0977783203
vt 0.902832031 0.00354003906
vt 0.770996094 0.00354003906
vt 0.99609375 0.227661133
vt 0.770996094 0.227661133
vt 0.99609375 0.227661133
vt 0.770996094 0.00354003906
vt 0.99609375 0.00354003906
vt 0.770996094 0.227661133
vt 0.99609375 0.227661133
vt 0.770996094 0.00354003906
vt 0.99609375 0.00354003906
vt 0.99609375 0.00354003906
vt 0.770996094 0.00354003906
vt 0.99609375 0.227661133
vt 0.770996094 0.227661133
vt 0.770996094 0.00354003906
vt 0.770996094 0.227661133
vt 0.99609375 0.00354003906
vt 0.99609375 0.227661133
vt 0.770996094 0.00354003906
vt 0.770996094 0.227661133
vt 0.99609375 0.00354003906
vt 0.99609375 0.227661133
vt 0.770996094 0.00354003906
vt 0.770996094 0.227661133
vt 0.99609375 0.00354003906
vt 0.99609375 0.227661133
vt 0.770996094 0.00354003906
vt 0.770996094 0.227661133
vt 0.99609375 0.00354003906
vt 0.99609375 0.227661133
vt 0.770996094 0.00354003906
vt 0.770996094 0.227661133
vt 0.99609375 0.00354003906
vt 0.99609375 0.227661133
vt 0.770996094 0.00354003906
vt 0.770996094 0.227661133
vt 0.99609375 0.00354003906
vt 0.99609375 0.227661133
vt 0.770996094 0.00354003906
vt 0.770996094 0.227661133
vt 0.99609375 0.00354003906
vt 0.99609375 0.227661133
vt 0.770996094 0.00354003906
vt 0.770996094 0.227661133
vt 0.99609375 0.00354003906
vt 0.99609375 0.227661133
vt 0.770996094 0.00354003906
vt 0.770996094 0.227661133
vt 0.99609375 0.00354003906
vt 0.99609375 0.227661133
vt 0.770996094 0.00354003906
vt 0.770996094 0.227661133
vt 0.99609375 0.00354003906
vt 0.99609375 0.227661133
vt 0.770996094 0.00354003906
vt 0.770996094 0.227661133
vt 0.99609375 0.00354003906
vt 0.99609375 0.227661133
vt 0.770996094 0.00354003906
vt 0.770996094 0.227661133
vt 0.99609375 0.00354003906
vt 0.99609375 0.227661133
vt 0.770996094 0.00354003906
vt 0.770996094 0.227661133
vt 0.99609375 0.00354003906
vt 0.99609375 0.227661133
vt 0.770996094 0.00354003906
vt 0.770996094 0.227661133
vt 0.99609375 0.00354003906
vt 0.99609375 0.227661133
vt 0.770996094 0.00354003906
vt 0.770996094 0.227661133
vt 0.99609375 0.00354003906
vt 0.99609375 0.227661133
vt 0.770996094 0.00354003906
vt 0.770996094 0.227661133
vt 0.99609375 0.00354003906
vt 0.99609375 0.227661133
vt 0.770996094 0.00354003906
vt 0.770996094 0.227661133
vt 0.99609375 0.00354003906
vt 0.99609375 0.227661133
vt 0.770996094 0.00354003906
vt 0.770996094 0.227661133
vt 0.99609375 0.00354003906
vt 0.99609375 0.227661133
vt 0.770996094 0.00354003906
vt 0.770996094 0.227661133
vt 0.99609375 0.00354003906
vt 0.99609375 0.227661133
vt 0.770996094 0.00354003906
vt 0.770996094 0.227661133
vt 0.99609375 0.00354003906
vt 0.99609375 0.227661133
vt 0.770996094 0.00354003906
vt 0.770996094 0.227661133
vt 0.99609375 0.00354003906
vt 0.99609375 0.227661133
vt 0.770996094 0.00354003906
vt 0.770996094 0.227661133
vt 0.99609375 0.00354003906
vt 0.99609375 0.227661133
vt 0.770996094 0.00354003906
vt 0.770996094 0.227661133
vt 0.99609375 0.00354003906
vt 0.99609375 0.227661133
vt 0.770996094 0.00354003906
vt 0.770996094 0.227661133
vt 0.99609375 0.00354003906
vt 0.99609375 0.227661133
vt 0.770996094 0.00354003906
vt 0.770996094 0.227661133
vt 0.99609375 0.00354003906
vt 0.99609375 0.227661133
vt 0.770996094 0.00354003906
vt 0.770996094 0.227661133
vt 0.99609375 0.00354003906
vt 0.99609375 0.227661133
vt 0.770996094 0.00354003906
vt 0.770996094 0.227661133
vt 0.99609375 0.00354003906
vt 0.99609375 0.227661133
vt 0.770996094 0.00354003906
vt 0.770996094 0.227661133
vt 0.99609375 0.00354003906
vt 0.99609375 0.227661133
vt 0.770996094 0.00354003906
vt 0.770996094 0.227661133
vt 0.99609375 0.00354003906
vt 0.99609375 0.227661133
vt 0.770996094 0.00354003906
vt 0.770996094 0.227661133
vt 0.99609375 0.00354003906
vt 0.99609375 0.227661133
vt 0.770996094 0.00354003906
vt 0.770996094 0.227661133
vt 0.99609375 0.00354003906
vt 0.99609375 0.227661133
vt 0.770996094 0.00354003906
vt 0.770996094 0.227661133
vt 0.99609375 0.00354003906
vt 0.99609375 0.227661133
vt 0.770996094 0.00354003906
vt 0.770996094 0.227661133
vt 0.99609375 0.00354003906
vt 0.99609375 0.227661133
vt 0.770996094 0.00354003906
vt 0.770996094 0.227661133
vt 0.99609375 0.00354003906
vt 0.99609375 0.227661133
vt 0.770996094 0.00354003906
vt 0.770996094 0.227661133
vt 0.99609375 0.00354003906
vt 0.99609375 0.227661133
vt 0.770996094 0.00354003906
vt 0.770996094 0.227661133
vt 0.99609375 0.00354003906
vt 0.99609375 0.227661133
vt 0.770996094 0.00354003906
vt 0.770996094 0.227661133
vt 0.99609375 0.00354003906
vt 0.99609375 0.227661133
vt 0.770996094 0.00354003906
vt 0.770996094 0.227661133
vt 0.99609375 0.00354003906
vt 0.99609375 0.227661133
vt 0.770996094 0.00354003906
vt 0.770996094 0.227661133
vt 0.99609375 0.00354003906
vt 0.99609375 0.227661133
vt 0.770996094 0.00354003906
vt 0.770996094 0.227661133
vt 0.99609375 0.00354003906
vt 0.99609375 0.227661133
vt 0.770996094 0.00354003906
vt 0.770996094 0.227661133
vt 0.99609375 0.00354003906
vt 0.99609375 0.227661133
vt 0.770996094 0.00354003906
vt 0.770996094 0.227661133
vt 0.99609375 0.00354003906
vt 0.99609375 0.227661133
vt 0.770996094 0.00354003906
vt 0.770996094 0.227661133
vt 0.99609375 0.00354003906
vt 0.99609375 0.227661133
vt 0.770996094 0.00354003906
vt 0.770996094 0.227661133
vt 0.99609375 0.00354003906
vt 0.99609375 0.227661133
vt 0.770996094 0.00354003906
vt 0.770996094 0.227661133
vt 0.99609375 0.00354003906
vt 0.99609375 0.227661133
vt 0.770996094 0.00354003906
vt 0.770996094 0.227661133
vt 0.99609375 0.00354003906
vt 0.99609375 0.227661133
vt 0.770996094 0.00354003906
vt 0.770996094 0.227661133
vt 0.99609375 0.00354003906
vt 0.99609375 0.227661133
vt 0.770996094 0.00354003906
vt 0.770996094 0.227661133
vt 0.99609375 0.00354003906
vt 0.99609375 0.227661133
vt 0.770996094 0.00354003906
vt 0.770996094 0.227661133
vt 0.99609375 0.00354003906
vt 0.99609375 0.227661133
vt 0.770996094 0.00354003906
vt 0.770996094 0.227661133
vt 0.99609375 0.00354003906
vt 0.99609375 0.227661133
vt 0.770996094 0.00354003906
vt 0.770996094 0.227661133
vt 0.99609375 0.00354003906
vt 0.99609375 0.227661133
vt 0.770996094 0.00354003906
vt 0.770996094 0.227661133
vt 0.99609375 0.00354003906
vt 0.99609375 0.227661133
vt 0.770996094 0.00354003906
vt 0.770996094 0.227661133
vt 0.99609375 0.00354003906
vt 0.99609375 0.227661133
vt 0.770996094 0.00354003906
vt 0.770996094 0.227661133
vt 0.99609375 0.00354003906
vt 0.99609375 0.227661133
vt 0.770996094 0.00354003906
vt 0.770996094 0.227661133
vt 0.99609375 0.00354003906
vt 0.99609375 0.227661133
vt 0.770996094 0.00354003906
vt 0.770996094 0.227661133
vt 0.99609375 0.00354003906
vt 0.99609375 0.227661133
vt 0.770996094 0.00354003906
vt 0.770996094 0.227661133
vt 0.99609375 0.00354003906
vt 0.99609375 0.227661133
vt 0.770996094 0.00354003906
vt 0.770996094 0.227661133
vt 0.99609375 0.00354003906
vt 0.99609375 0.227661133
vt 0.770996094 0.00354003906
vt 0.770996094 0.227661133
vt 0.99609375 0.00354003906
vt 0.99609375 0.227661133
vt 0.770996094 0.00354003906
vt 0.770996094 0.227661133
vt 0.99609375 0.00354003906
vt 0.99609375 0.227661133
vt 0.770996094 0.00354003906
vt 0.770996094 0.227661133
vt 0.99609375 0.00354003906
vt 0.99609375 0.227661133
vt 0.770996094 0.00354003906
vt 0.770996094 0.227661133
vt 0.99609375 0.00354003906
vt 0.99609375 0.227661133
vt 0.770996094 0.00354003906
vt 0.770996094 0.227661133
vt 0.99609375 0.00354003906
vt 0.99609375 0.227661133
vt 0.770996094 0.00354003906
vt 0.770996094 0.227661133
vt 0.99609375 0.00354003906
vt 0.99609375 0.227661133
vt 0.770996094 0.00354003906
vt 0.770996094 0.227661133
vt 0.99609375 0.00354003906
vt 0.99609375 0.227661133
vt 0.770996094 0.00354003906
vt 0.770996094 0.227661133
vt 0.99609375 0.00354003906
vt 0.99609375 0.227661133
vt 0.770996094 0.00354003906
vt 0.770996094 0.227661133
vt 0.99609375 0.00354003906
vt 0.99609375 0.227661133
vt 0.770996094 0.00354003906
vt 0.770996094 0.227661133
vt 0.99609375 0.00354003906
vt 0.99609375 0.227661133
vt 0.770996094 0.00354003906
vt 0.770996094 0.227661133
vt 0.99609375 0.00354003906
vt 0.99609375 0.227661133
vt 0.770996094 0.00354003906
vt 0.770996094 0.227661133
vt 0.99609375 0.00354003906
vt 0.99609375 0.227661133
vt 0.770996094 0.00354003906
vt 0.770996094 0.227661133
vt 0.99609375 0.00354003906
vt 0.99609375 0.227661133
vt 0.770996094 0.00354003906
vt 0.770996094 0.227661133
vt 0.99609375 0.00354003906
vt 0.99609375 0.227661133
vt 0.770996094 0.00354003906
vt 0.770996094 0.227661133
vt 0.99609375 0.00354003906
vt 0.99609375 0.227661133
vt 0.770996094 0.00354003906
vt 0.770996094 0.227661133
vt 0.99609375 0.00354003906
vt 0.99609375 0.227661133
vt 0.770996094 0.00354003906
vt 0.770996094 0.227661133
vt 0.99609375 0.00354003906
vt 0.99609375 0.227661133
vt 0.770996094 0.00354003906
vt 0.770996094 0.227661133
vt 0.99609375 0.00354003906
vt 0.99609375 0.227661133
vt 0.770996094 0.00354003906
vt 0.770996094 0.227661133
vt 0.99609375 0.00354003906
vt 0.99609375 0.227661133
vt 0.770996094 0.00354003906
vt 0.770996094 0.227661133
vt 0.99609375 0.00354003906
vt 0.99609375 0.227661133
vt 0.770996094 0.00354003906
vt 0.770996094 0.227661133
vt 0.99609375 0.00354003906
vt 0.99609375 0.227661133
vt 0.770996094 0.00354003906
vt 0.770996094 0.227661133
vt 0.99609375 0.00354003906
vt 0.99609375 0.227661133
vt 0.770996094 0.00354003906
vt 0.770996094 0.227661133
vt 0.99609375 0.00354003906
vt 0.99609375 0.227661133
vt 0.770996094 0.00354003906
vt 0.770996094 0.227661133
vt 0.99609375 0.00354003906
vt 0.99609375 0.227661133
vt 0.770996094 0.00354003906
vt 0.770996094 0.227661133
vt 0.99609375 0.00354003906
vt 0.99609375 0.227661133
vt 0.770996094 0.00354003906
vt 0.770996094 0.227661133
vt 0.99609375 0.00354003906
vt 0.99609375 0.227661133
vt 0.770996094 0.00354003906
vt 0.770996094 0.227661133
vt 0.99609375 0.00354003906
vt 0.99609375 0.227661133
vt 0.770996094 0.00354003906
vt 0.770996094 0.227661133
vt 0.99609375 0.00354003906
vt 0.99609375 0.227661133
vt 0.770996094 0.00354003906
vt 0.770996094 0.227661133
vt 0.99609375 0.00354003906
vt 0.99609375 0.227661133
vt 0.770996094 0.00354003906
vt 0.770996094 0.227661133
vt 0.99609375 0.00354003906
vt 0.99609375 0.227661133
vt 0.770996094 0.00354003906
vt 0.770996094 0.227661133
vt 0.99609375 0.00354003906
vt 0.99609375 0.227661133
vt 0.770996094 0.00354003906
vt 0.770996094 0.227661133
vt 0.99609375 0.00354003906
vt 0.99609375 0.227661133
vt 0.770996094 0.00354003906
vt 0.770996094 0.227661133
vt 0.99609375 0.00354003906
vt 0.99609375 0.227661133
vt 0.770996094 0.00354003906
vt 0.770996094 0.227661133
vt 0.99609375 0.00354003906
vt 0.99609375 0.227661133
vt 0.770996094 0.00354003906
vt 0.770996094 0.227661133
vt 0.99609375 0.00354003906
vt 0.99609375 0.227661133
vt 0.770996094 0.00354003906
vt 0.770996094 0.227661133
vt 0.99609375 0.00354003906
vt 0.99609375 0.227661133
vt 0.770996094 0.00354003906
vt 0.770996094 0.227661133
vt 0.99609375 0.00354003906
vt 0.99609375 0.227661133
vt 0.770996094 0.00354003906
vt 0.770996094 0.227661133
vt 0.99609375 0.00354003906
vt 0.99609375 0.227661133
vt 0.145629883 0.717773438
vt 0.145629883 0.814941406
vt 0.0720214844 0.7265625
vt 0.0720214844 0.806640625
vt 0.145629883 0.717773438
vt 0.145629883 0.814941406
vt 0.0720214844 0.7265625
vt 0.0720214844 0.806640625
vt 0.145629883 0.717773438
vt 0.145629883 0.814941406
vt 0.0720214844 0.7265625
vt 0.0720214844 0.806640625
vt 0.145629883 0.717773438
vt 0.145629883 0.814941406
vt 0.0720214844 0.7265625
vt 0.0720214844 0.806640625
vt 0.145629883 0.717773438
vt 0.145629883 0.814941406
vt 0.0720214844 0.7265625
vt 0.0720214844 0.806640625
vt 0.170166016 0.718261719
vt 0.170166016 0.815429688
vt 0.0404968262 0.733886719
vt 0.0404968262 0.799804688
vt 0.170166016 0.718261719
vt 0.170166016 0.815429688
vt 0.0404968262 0.733886719
vt 0.0404968262 0.799804688
vt 0.170166016 0.718261719
vt 0.170166016 0.815429688
vt 0.0404968262 0.733886719
vt 0.0404968262 0.799804688
vt 0.170166016 0.718261719
vt 0.170166016 0.815429688
vt 0.0404968262 0.733886719
vt 0.0404968262 0.799804688
vt 0.170166016 0.718261719
vt 0.170166016 0.815429688
vt 0.0404968262 0.733886719
vt 0.0404968262 0.799804688
vt 0.465576172 0.794433594
vt 0.471923828 0.8359375
vt 0.338623047 0.8359375
vt 0.446533203 0.757324219
vt 0.416992188 0.727539062
vt 0.379882812 0.708984375
vt 0.338623047 0.702148438
vt 0.145629883 0.717773438
vt 0.145629883 0.814941406
vt 0.0720214844 0.7265625
vt 0.0720214844 0.806640625
vt 0.145629883 0.717773438
vt 0.145629883 0.814941406
vt 0.0720214844 0.7265625
vt 0.0720214844 0.806640625
vt 0.145629883 0.717773438
vt 0.145629883 0.814941406
vt 0.0720214844 0.7265625
vt 0.0720214844 0.806640625
vt 0.145629883 0.717773438
vt 0.145629883 0.814941406
vt 0.0720214844 0.7265625
vt 0.0720214844 0.806640625
vt 0.145629883 0.717773438
vt 0.145629883 0.814941406
vt 0.0720214844 0.7265625
vt 0.0720214844 0.806640625
vt 0.170166016 0.718261719
vt 0.170166016 0.815429688
vt 0.0404968262 0.733886719
vt 0.0404968262 0.799804688
vt 0.170166016 0.718261719
vt 0.170166016 0.815429688
vt 0.0404968262 0.733886719
vt 0.0404968262 0.799804688
vt 0.170166016 0.718261719
vt 0.170166016 0.815429688
vt 0.0404968262 0.733886719
vt 0.0404968262 0.799804688
vt 0.170166016 0.718261719
vt 0.170166016 0.815429688
vt 0.0404968262 0.733886719
vt 0.0404968262 0.799804688
vt 0.170166016 0.718261719
vt 0.170166016 0.815429688
vt 0.0404968262 0.733886719
vt 0.0404968262 0.799804688
vt 0.465576172 0.794433594
vt 0.471923828 0.8359375
vt 0.338623047 0.8359375
vt 0.446533203 0.757324219
vt 0.416992188 0.727539062
vt 0.379882812 0.708984375
vt 0.338623047 0.702148438
vt 0.145629883 0.717773438
vt 0.0720214844 0.7265625
vt 0.145629883 0.814941406
vt 0.0720214844 0.806640625
vt 0.145629883 0.717773438
vt 0.0720214844 0.7265625
vt 0.145629883 0.814941406
vt 0.0720214844 0.806640625
vt 0.145629883 0.717773438
vt 0.0720214844 0.7265625
vt 0.145629883 0.814941406
vt 0.0720214844 0.806640625
vt 0.145629883 0.717773438
vt 0.0720214844 0.7265625
vt 0.145629883 0.814941406
vt 0.0720214844 0.806640625
vt 0.145629883 0.717773438
vt 0.0720214844 0.7265625
vt 0.145629883 0.814941406
vt 0.0720214844 0.806640625
vt 0.170166016 0.718261719
vt 0.0404968262 0.733886719
vt 0.170166016 0.815429688
vt 0.0404968262 0.799804688
vt 0.170166016 0.718261719
vt 0.0404968262 0.733886719
vt 0.170166016 0.815429688
vt 0.0404968262 0.799804688
vt 0.170166016 0.718261719
vt 0.0404968262 0.733886719
vt 0.170166016 0.815429688
vt 0.0404968262 0.799804688
vt 0.170166016 0.718261719
vt 0.0404968262 0.733886719
vt 0.170166016 0.815429688
vt 0.0404968262 0.799804688
vt 0.170166016 0.718261719
vt 0.0404968262 0.733886719
vt 0.170166016 0.815429688
vt 0.0404968262 0.799804688
vt 0.465576172 0.794433594
vt 0.338623047 0.8359375
vt 0.471923828 0.8359375
vt 0.446533203 0.757324219
vt 0.416992188 0.727539062
vt 0.379882812 0.708984375
vt 0.338623047 0.702148438
vt 0.145629883 0.717773438
vt 0.0720214844 0.7265625
vt 0.145629883 0.814941406
vt 0.0720214844 0.806640625
vt 0.145629883 0.717773438
vt 0.0720214844 0.7265625
vt 0.145629883 0.814941406
vt 0.0720214844 0.806640625
vt 0.145629883 0.717773438
vt 0.0720214844 0.7265625
vt 0.145629883 0.814941406
vt 0.0720214844 0.806640625
vt 0.145629883 0.717773438
vt 0.0720214844 0.7265625
vt 0.145629883 0.814941406
vt 0.0720214844 0.806640625
vt 0.145629883 0.717773438
vt 0.0720214844 0.7265625
vt 0.145629883 0.814941406
vt 0.0720214844 0.806640625
vt 0.170166016 0.718261719
vt 0.0404968262 0.733886719
vt 0.170166016 0.815429688
vt 0.0404968262 0.799804688
vt 0.170166016 0.718261719
vt 0.0404968262 0.733886719
vt 0.170166016 0.815429688
vt 0.0404968262 0.799804688
vt 0.170166016 0.718261719
vt 0.0404968262 0.733886719
vt 0.170166016 0.815429688
vt 0.0404968262 0.799804688
vt 0.170166016 0.718261719
vt 0.0404968262 0.733886719
vt 0.170166016 0.815429688
vt 0.0404968262 0.799804688
vt 0.170166016 0.718261719
vt 0.0404968262 0.733886719
vt 0.170166016 0.815429688
vt 0.0404968262 0.799804688
vt 0.465576172 0.794433594
vt 0.338623047 0.8359375
vt 0.471923828 0.8359375
vt 0.446533203 0.757324219
vt 0.416992188 0.727539062
vt 0.379882812 0.708984375
vt 0.338623047 0.702148438
vt 0.00994873047 0.736816406
vt 0.0305633545 0.73828125
vt 0.00994873047 0.795898438
vt 0.0305633545 0.793945312
vt 0.00994873047 0.736816406
vt 0.0305633545 0.73828125
vt 0.00994873047 0.795898438
vt 0.0305633545 0.793945312
vt 0.00994873047 0.736816406
vt 0.0305633545 0.73828125
vt 0.00994873047 0.795898438
vt 0.0305633545 0.793945312
vt 0.00994873047 0.736816406
vt 0.0305633545 0.73828125
vt 0.00994873047 0.795898438
vt 0.0305633545 0.793945312
vt 0.00994873047 0.795898438
vt 0.0305633545 0.793945312
vt 0.00994873047 0.736816406
vt 0.0305633545 0.73828125
vt 0.00994873047 0.795898438
vt 0.0305633545 0.793945312
vt 0.00994873047 0.736816406
vt 0.0305633545 0.73828125
vt 0.00994873047 0.795898438
vt 0.0305633545 0.793945312
vt 0.00994873047 0.736816406
vt 0.0305633545 0.73828125
vt 0.00994873047 0.795898438
vt 0.0305633545 0.793945312
vt 0.00994873047 0.736816406
vt 0.0305633545 0.73828125
vt 0.00994873047 0.795898438
vt 0.0305633545 0.793945312
vt 0.00994873047 0.736816406
vt 0.0305633545 0.73828125
vt 0.00994873047 0.795898438
vt 0.0305633545 0.793945312
vt 0.00994873047 0.736816406
vt 0.0305633545 0.73828125
vt 0.00994873047 0.795898438
vt 0.0305633545 0.793945312
vt 0.00994873047 0.736816406
vt 0.0305633545 0.73828125
vt 0.00994873047 0.795898438
vt 0.0305633545 0.793945312
vt 0.00994873047 0.736816406
vt 0.0305633545 0.73828125
vt 0.00994873047 0.795898438
vt 0.0305633545 0.793945312
vt 0.00994873047 0.736816406
vt 0.0305633545 0.73828125
vt 0.00994873047 0.795898438
vt 0.0305633545 0.793945312
vt 0.00994873047 0.736816406
vt 0.0305633545 0.73828125
vt 0.00994873047 0.736816406
vt 0.0305633545 0.73828125
vt 0.00994873047 0.795898438
vt 0.0305633545 0.793945312
vt 0.00994873047 0.736816406
vt 0.0305633545 0.73828125
vt 0.00994873047 0.795898438
vt 0.0305633545 0.793945312
vt 0.00994873047 0.736816406
vt 0.0305633545 0.73828125
vt 0.00994873047 0.795898438
vt 0.0305633545 0.793945312
vt 0.00994873047 0.736816406
vt 0.0305633545 0.73828125
vt 0.00994873047 0.795898438
vt 0.0305633545 0.793945312
vt 0.00994873047 0.736816406
vt 0.0305633545 0.73828125
vt 0.00994873047 0.795898438
vt 0.0305633545 0.793945312
vt 0.00994873047 0.736816406
vt 0.0305633545 0.73828125
vt 0.00994873047 0.795898438
vt 0.0305633545 0.793945312
vt 0.290527344 0.542480469
vt 0.290527344 0.551269531
vt 0.246704102 0.542480469
vt 0.246704102 0.551269531
vt 0.246704102 0.542480469
vt 0.246704102 0.551269531
vt 0.290527344 0.542480469
vt 0.290527344 0.551269531
vt 0.290527344 0.542480469
vt 0.290527344 0.551269531
vt 0.246704102 0.542480469
vt 0.246704102 0.551269531
vt 0.246704102 0.542480469
vt 0.246704102 0.551269531
vt 0.290527344 0.542480469
vt 0.290527344 0.551269531
vt 0.290527344 0.542480469
vt 0.290527344 0.551269531
vt 0.246704102 0.542480469
vt 0.246704102 0.551269531
vt 0.246704102 0.542480469
vt 0.246704102 0.551269531
vt 0.290527344 0.542480469
vt 0.290527344 0.551269531
vt 0.290527344 0.542480469
vt 0.290527344 0.551269531
vt 0.246704102 0.542480469
vt 0.246704102 0.551269531
vt 0.246704102 0.542480469
vt 0.246704102 0.551269531
vt 0.290527344 0.542480469
vt 0.290527344 0.551269531
vt 0.290527344 0.542480469
vt 0.290527344 0.551269531
vt 0.246704102 0.542480469
vt 0.246704102 0.551269531
vt 0.246704102 0.542480469
vt 0.246704102 0.551269531
vt 0.290527344 0.542480469
vt 0.290527344 0.551269531
vt 0.290527344 0.542480469
vt 0.290527344 0.551269531
vt 0.246704102 0.542480469
vt 0.246704102 0.551269531
vt 0.246704102 0.542480469
vt 0.246704102 0.551269531
vt 0.290527344 0.542480469
vt 0.290527344 0.551269531
vt 0.290527344 0.542480469
vt 0.290527344 0.551269531
vt 0.246704102 0.542480469
vt 0.246704102 0.551269531
vt 0.246704102 0.542480469
vt 0.246704102 0.551269531
vt 0.290527344 0.542480469
vt 0.290527344 0.551269531
vt 0.290527344 0.542480469
vt 0.290527344 0.551269531
vt 0.246704102 0.542480469
vt 0.246704102 0.551269531
vt 0.246704102 0.542480469
vt 0.246704102 0.551269531
vt 0.290527344 0.542480469
vt 0.290527344 0.551269531
vt 0.290527344 0.542480469
vt 0.290527344 0.551269531
vt 0.246704102 0.542480469
vt 0.246704102 0.551269531
vt 0.246704102 0.542480469
vt 0.246704102 0.551269531
vt 0.290527344 0.542480469
vt 0.290527344 0.551269531
vt 0.290527344 0.542480469
vt 0.290527344 0.551269531
vt 0.246704102 0.542480469
vt 0.246704102 0.551269531
vt 0.246704102 0.542480469
vt 0.246704102 0.551269531
vt 0.290527344 0.542480469
vt 0.290527344 0.551269531
vt 0.770996094 0.00354003906
vt 0.770996094 0.227661133
vt 0.99609375 0.00354003906
vt 0.99609375 0.227661133
vt 0.770996094 0.00354003906
vt 0.770996094 0.227661133
vt 0.99609375 0.00354003906
vt 0.99609375 0.227661133
vt 0.770996094 0.00354003906
vt 0.770996094 0.227661133
vt 0.99609375 0.00354003906
vt 0.99609375 0.227661133
vt 0.770996094 0.00354003906
vt 0.770996094 0.227661133
vt 0.99609375 0.00354003906
vt 0.99609375 0.227661133
vt 0.770996094 0.00354003906
vt 0.770996094 0.227661133
vt 0.99609375 0.00354003906
vt 0.99609375 0.227661133
vt 0.770996094 0.00354003906
vt 0.770996094 0.227661133
vt 0.99609375 0.00354003906
vt 0.99609375 0.227661133
vt 0.770996094 0.00354003906
vt 0.770996094 0.227661133
vt 0.99609375 0.00354003906
vt 0.99609375 0.227661133
vt 0.770996094 0.00354003906
vt 0.770996094 0.227661133
vt 0.99609375 0.00354003906
vt 0.99609375 0.227661133
vt 0.770996094 0.00354003906
vt 0.770996094 0.227661133
vt 0.99609375 0.00354003906
vt 0.99609375 0.227661133
vt 0.770996094 0.00354003906
vt 0.770996094 0.227661133
vt 0.99609375 0.00354003906
vt 0.99609375 0.227661133
vt 0.770996094 0.00354003906
vt 0.770996094 0.227661133
vt 0.99609375 0.00354003906
vt 0.99609375 0.227661133
vt 0.770996094 0.00354003906
vt 0.770996094 0.227661133
vt 0.99609375 0.00354003906
vt 0.99609375 0.227661133
vt 0.770996094 0.00354003906
vt 0.770996094 0.227661133
vt 0.99609375 0.00354003906
vt 0.99609375 0.227661133
vt 0.770996094 0.00354003906
vt 0.770996094 0.227661133
vt 0.99609375 0.00354003906
vt 0.99609375 0.227661133
vt 0.770996094 0.00354003906
vt 0.770996094 0.227661133
vt 0.99609375 0.00354003906
vt 0.99609375 0.227661133
vt 0.770996094 0.00354003906
vt 0.770996094 0.227661133
vt 0.99609375 0.00354003906
vt 0.99609375 0.227661133
vt 0.770996094 0.227661133
vt 0.99609375 0.227661133
vt 0.770996094 0.00354003906
vt 0.770996094 0.00354003906
vt 0.99609375 0.00354003906
vt 0.770996094 0.227661133
vt 0.99609375 0.227661133
vt 0.770996094 0.00354003906
vt 0.99609375 0.00354003906
vt 0.770996094 0.227661133
vt 0.99609375 0.227661133
vt 0.770996094 0.00354003906
vt 0.99609375 0.00354003906
vt 0.770996094 0.227661133
vt 0.99609375 0.227661133
vt 0.770996094 0.00354003906
vt 0.99609375 0.00354003906
vt 0.770996094 0.227661133
vt 0.99609375 0.227661133
vt 0.770996094 0.00354003906
vt 0.770996094 0.227661133
vt 0.99609375 0.00354003906
vt 0.99609375 0.227661133
vt 0.770996094 0.227661133
vt 0.99609375 0.227661133
vt 0.770996094 0.00354003906
vt 0.770996094 0.227661133
vt 0.99609375 0.227661133
vt 0.770996094 0.00354003906
vt 0.770996094 0.00354003906
vt 0.770996094 0.227661133
vt 0.99609375 0.00354003906
vt 0.99609375 0.227661133
vt 0.770996094 0.00354003906
vt 0.770996094 0.227661133
vt 0.99609375 0.00354003906
vt 0.99609375 0.227661133
vt 0.770996094 0.00354003906
vt 0.770996094 0.227661133
vt 0.99609375 0.00354003906
vt 0.99609375 0.227661133
vt 0.770996094 0.00354003906
vt 0.770996094 0.227661133
vt 0.99609375 0.00354003906
vt 0.99609375 0.227661133
vt 0.770996094 0.00354003906
vt 0.770996094 0.227661133
vt 0.99609375 0.00354003906
vt 0.99609375 0.227661133
vt 0.770996094 0.227661133
vt 0.99609375 0.227661133
vt 0.770996094 0.00354003906
vt 0.770996094 0.00354003906
vt 0.99609375 0.00354003906
vt 0.770996094 0.227661133
vt 0.99609375 0.227661133
vt 0.770996094 0.00354003906
vt 0.99609375 0.00354003906
vt 0.770996094 0.227661133
vt 0.99609375 0.227661133
vt 0.770996094 0.00354003906
vt 0.99609375 0.00354003906
vt 0.770996094 0.227661133
vt 0.99609375 0.227661133
vt 0.770996094 0.00354003906
vt 0.99609375 0.00354003906
vt 0.770996094 0.227661133
vt 0.99609375 0.227661133
vt 0.770996094 0.00354003906
vt 0.99609375 0.00354003906
vt 0.770996094 0.227661133
vt 0.99609375 0.227661133
vt 0.770996094 0.00354003906
vt 0.99609375 0.00354003906
vt 0.770996094 0.227661133
vt 0.99609375 0.227661133
vt 0.770996094 0.00354003906
vt 0.99609375 0.00354003906
vt 0.770996094 0.227661133
vt 0.99609375 0.227661133
vt 0.770996094 0.00354003906
vt 0.99609375 0.00354003906
vt 0.770996094 0.227661133
vt 0.99609375 0.227661133
vt 0.770996094 0.00354003906
vt 0.99609375 0.00354003906
vt 0.770996094 0.227661133
vt 0.99609375 0.227661133
vt 0.770996094 0.00354003906
vt 0.99609375 0.00354003906
vt 0.770996094 0.227661133
vt 0.99609375 0.227661133
vt 0.770996094 0.00354003906
vt 0.99609375 0.00354003906
vt 0.770996094 0.227661133
vt 0.99609375 0.227661133
vt 0.770996094 0.00354003906
vt 0.99609375 0.00354003906
vt 0.770996094 0.227661133
vt 0.99609375 0.227661133
vn -0 1 0
vn -0 1 0
vn -0 1 0
vn -0 1 0
vn -0 1 0
vn -0 1 0
vn -0 1 0
vn -0 1 0
vn -0 1 0
vn -0 1 0
vn -0 1 0
vn -0 1 0
vn -0 1 0
vn -0 1 0
vn -0 1 0
vn -0 1 0
vn -0 1 0
vn -0 1 0
vn -0 1 0
vn -0 1 0
vn -0 1 0
vn -0 1 0
vn -0 1 0
vn -0 1 0
vn -0 1 0
vn -0 1 0
vn -0 1 0
vn -0 1 0
vn -0 1 0
vn -0 1 0
vn -0 1 0
vn -0 1 0
vn -0 1 0
vn -0 1 0
vn -0 1 0
vn -0 1 0
vn -0 1 0
vn -0 1 0
vn -0 1 0
vn -0 1 0
vn -0 1 0
vn -0 1 0
vn -0 1 0
vn -0 1 0
vn -0 1 0
vn -0 1 0
vn -0 1 0
vn -0 1 0
vn -0 1 0
vn -0 1 0
vn -0 1 0
vn -0 1 0
vn -0 1 0
vn -0 1 0
vn -0 1 0
vn -0 1 0
vn -3.57627869E-07 1 0
vn -0 1 0
vn -1.1920929E-07 1 0
vn -0 1 0
vn -0 1 0
vn -0 1 0
vn -0 1 0
vn -0 1 0
vn -0 1 0
vn -0 1 0
vn -0 1 0
vn -0 1 0
vn -0 1 0
vn -0 1 0
vn -0 1 0
vn -0 1 0
vn -1.1920929E-07 1 0
vn -0 1 0
vn -4.17232513E-07 1 0
vn -0 1 0
vn -0 1 0
vn -0 1 0
vn -0 1 1.66893005E-06
vn -0 1 1.78813934E-07
vn -0 1 6.55651093E-07
vn -0 1 0
vn -0 1 0
vn -0 1 0
vn -0 1 0
vn -0 1 0
vn -0 1 0
vn -0 1 0
vn -0 1 0
vn -0 1 0
vn -0 1 0
vn -0 1 0
vn -0 1 0
vn -0 1 0
vn -0 1 0
vn -0 1 0
vn -0 1 0
vn -0 1 0
vn -0 1 0
vn -0 1 0
vn -0 1 0
vn -0 1 0
vn -0 1 0
vn -0 1 0
vn -0 1 0
vn -0 1 0
vn -0 1 0
vn -0 1 0
vn -0 1 0
vn -0 1 0
vn -0 1 0
vn -0 1 0
vn -0 1 0
vn -0 1 0
vn -0 1 0
vn -0 1 0
vn -0 1 0
vn -0 1 0
vn -0 1 0
vn -0 1 0
vn -0 1 0
vn -0 1 0
vn -0 1 0
vn -0 1 0
vn -0 1 0
vn -0 1 0
vn -0 1 0
vn -0 1 0
vn -0 1 0
vn -0 1 0
vn -0 1 0
vn -0 1 0
vn -0 1 0
vn -0 1 0
vn -0 1 0
vn -0 1 0
vn -0 1 0
vn -0 1 0
vn -0 1 0
vn -0 1 0
vn -0 1 0
vn -0 1 0
vn -0 1 0
vn -0 1 0
vn -0 1 0
vn -0 1 0
vn -0 1 0
vn -0 1 0
vn -0 1 0
vn -0 1 0
vn -0 1 0
vn -0 1 0
vn -0 1 0
vn -0 1 0
vn -0 1 0
vn -0 1 0
vn -0 1 0
vn -0 1 0
vn -0 1 0
vn -0 1 0
vn -0 1 0
vn -0 1 0
vn -0 1 0
vn -0 1 0
vn -0 1 0
vn -0 1 0
vn -0 1 0
vn -0 1 0
vn -0 1 0
vn -0 1 0
vn -0 1 0
vn -0 1 0
vn -0 1 0
vn -0 1 0
vn -0 1 0
vn -0 1 0
vn -0 1 0
vn -0 1 0
vn -0 1 0
vn -0 1 0
vn -0 1 0
vn -0 1 0
vn -0 1 0
vn -0 1 0
vn -0 1 0
vn -0 1 0
vn -0 1 0
vn -0 1 0
vn -0 1 0
vn -0 1 0
vn -0 1 0
vn -0 1 0
vn -0 1 0
vn -0 1 0
vn -0 1 0
vn -0 1 0
vn -0 1 0
vn -0 1 0
vn -0 1 0
vn -4.17232513E-07 1 -2.38418579E-07
vn -0 1 0
vn -0 1 -1.66893005E-06
vn -0 1 0
vn -0 1 0
vn -0 1 0
vn -0 1 0
vn -0 1 0
vn -0 1 0
vn -0 1 0
vn -0 1 0
vn -0 1 0
vn -0 1 0
vn -0 1 0
vn -0 1 0
vn -0 1 0
vn -0 1 0
vn -0 1 0
vn -0 1 0
vn -0 1 0
vn -0 1 0
vn -0 1 0
vn -0 1 0
vn -0 1 0
vn -0 1 0
vn -0 1 0
vn -0 1 0
vn -0 1 0
vn -0 1 0
vn -0 1 0
vn -0 1 0
vn -0 1 0
vn -0 1 0
vn -0 1 0
vn -0 1 0
vn -0 1 0
vn -0 1 0
vn -0 1 0
vn -0 1 0
vn -0 1 0
vn -0 1 0
vn -0 1 0
vn -0 1 0
vn -0 1 0
vn -0 1 0
vn -0 1 0
vn -0 1 0
vn -0 1 0
vn -0 1 0
vn -0 1 0
vn -0 1 0
vn -0 1 0
vn -0 1 0
vn -0 1 0
vn -0 1 0
vn -0 1 0
vn -0 1 0
vn -0 1 0
vn -0 1 0
vn -0 1 0
vn -0 1 0
vn -0 1 0
vn -0 1 0
vn -0 1 0
vn -0 1 0
vn -0 1 0
vn -0 1 0
vn -0 1 0
vn -0 1 0
vn -0 1 0
vn -0 1 0
vn -0 1 0
vn -0 1 0
vn -0 1 0
vn -0 1 0
vn -0 1 0
vn -0 1 0
vn -0 1 0
vn -0 1 0
vn -0 1 0
vn -0 1 0
vn -0 1 0
vn -0 1 0
vn -0 1 0
vn -0 1 0
vn -0 1 0
vn -0 1 0
vn -0 1 0
vn -0 1 0
vn -0 1 0
vn -0 1 0
vn -0 1 0
vn -0 1 0
vn -0 1 0
vn -0 1 0
vn -0 1 0
vn -0 1 0
vn -0 1 0
vn -0 1 0
vn -0 1 0
vn -0 1 0
vn -0 1 0
vn -0 1 0
vn -0 1 0
vn -0 1 0
vn -0 1 0
vn -0 1 0
vn -0 1 0
vn -0 1 0
vn -0 1 0
vn -0 1 0
vn -0 1 0
vn -0 1 0
vn -0 1 0
vn -0 1 0
vn -0 1 0
vn -0 1 0
vn -0 1 0
vn -0 1 0
vn -0 1 0
vn -0 1 0
vn -0 1 0
vn -0 1 0
vn -0 1 0
vn -0 1 0
vn -0 1 0
vn -0 1 0
vn -0 1 0
vn -0 1 0
vn -0 1 0
vn -0 1 0
vn -0 1 0
vn -0 1 0
vn -0 1 0
vn -0 1 0
vn -0 1 0
vn -0 1 0
vn -0 1 0
vn -0 1 0
vn -0 1 0
vn -0 1 0
vn -0 1 0
vn -0 1 0
vn -0 1 0
vn -0 1 0
vn -0 1 0
vn -0 1 0
vn -0 1 0
vn -0 1 0
vn -0 1 0
vn -0 1 0
vn -0 1 0
vn -0 1 0
vn -0 1 0
vn -0 1 0
vn -0 1 0
vn -0 1 0
vn -0 1 0
vn -0 1 0
vn -0 1 0
vn -0 1 0
vn -0 1 0
vn -0 1 0
vn -0 1 0
vn -0 1 0
vn -0 1 0
vn -0 1 0
vn -0 1 0
vn -0 1 0
vn -0 1 0
vn -0 1 0
vn -0 1 0
vn -0 1 0
vn -0 1 0
vn -0 1 0
vn -0 1 0
vn -0 1 0
vn -0 1 0
vn -0 1 0
vn -0 1 0
vn -0 1 0
vn -0 1 0
vn -0 1 0
vn -0 1 0
vn -0 1 0
vn -0 1 0
vn -0 1 0
vn -0 1 0
vn -0 1 0
vn -0 1 0
vn -0 1 0
vn -0 1 0
vn -0 1 0
vn -0 1 0
vn -0 1 0
vn -0 1 0
vn -0 1 0
vn -0 1 0
vn -0 1 0
vn -0 1 0
vn -0 1 0
vn -0 1 0
vn -0 1 0
vn -0 1 0
vn -0 1 0
vn -0 1 0
vn -0 1 0
vn -0 1 0
vn -0 1 0
vn -0 1 0
vn -0 1 0
vn -0 1 0
vn -0 1 0
vn -0 1 0
vn -0 1 0
vn -0 1 0
vn -0 1 0
vn -0 1 0
vn -0 1 0
vn -0 1 0
vn -0 1 0
vn -0 1 0
vn -0 1 0
vn -0 1 0
vn -0 1 0
vn -0 1 0
vn -0 1 0
vn -0 1 0
vn -0 1 0
vn -0 1 0
vn -0 1 0
vn -0 1 0
vn -0 1 0
vn -0 1 0
vn -0 1 0
vn -0 1 0
vn -0 1 0
vn -0 1 0
vn -0 1 0
vn -0 1 0
vn -0 1 0
vn -0 1 0
vn -0 1 0
vn -0 1 0
vn -0 1 0
vn -0 1 0
vn -0 1 0
vn -0 1 0
vn -0 1 0
vn -0 1 0
vn -0 1 0
vn -0 1 0
vn -0 1 0
vn -0 1 0
vn -0 1 0
vn -0 1 0
vn -0 1 0
vn -0 1 0
vn -0 1 0
vn -0 1 0
vn -0 1 0
vn -0 1 0
vn -0 1 0
vn -0 1 0
vn -0 1 0
vn -0 1 0
vn -0 1 0
vn -0 1 0
vn -0 1 0
vn -0 1 0
vn -0 1 0
vn -0 1 0
vn -0 1 0
vn -0 1 0
vn -0 1 0
vn -0 1 0
vn -0 1 0
vn -0 1 0
vn -0 1 0
vn -0 1 0
vn -0 1 0
vn -0 1 0
vn -0 1 0
vn -0 1 0
vn -0 1 0
vn -0 1 0
vn -0 1 0
vn -0 1 0
vn -0 1 0
vn -0 1 0
vn -0 1 0
vn -0 1 0
vn -0 1 0
vn -0 1 0
vn -0 1 0
vn -0 1 0
vn -0 1 0
vn -0 1 0
vn -0 1 0
vn -0 1 0
vn -0 1 0
vn -0 1 0
vn -0 1 0
vn -0 1 0
vn -0 1 0
vn -0 1 0
vn -0 1 0
vn -0 1 0
vn -0 1 0
vn -0 1 0
vn -0 1 0
vn -0 1 0
vn -0 1 0
vn -0 1 0
vn -0 1 0
vn -0 1 0
vn -0 1 0
vn -0 1 0
vn -0 1 0
vn -0 1 0
vn -0 1 0
vn -0 1 0
vn -0 1 0
vn -0 1 0
vn -0 1 0
vn -0 1 0
vn -0 1 0
vn -0 1 0
vn -0 1 0
vn -0 1 0
vn -0 1 0
vn -0 1 0
vn -0 1 0
vn -0 1 0
vn -0 1 0
vn -0 1 0
vn -0 1 0
vn -0 1 0
vn -0 1 0
vn -0 1 0
vn -0 1 0
vn -0 1 0
vn -0 1 0
vn -0 1 0
vn -0 1 0
vn -0 1 0
vn -0 1 0
vn -0 1 0
vn -0 1 0
vn -0 1 0
vn -0 1 0
vn -0 1 0
vn -0 1 0
vn -0 1 0
vn -0 1 0
vn -0 1 0
vn -0 1 0
vn -0 1 0
vn -0 1 0
vn -0 1 0
vn -0 1 0
vn -0 1 0
vn -0 1 0
vn -0 1 0
vn -0 1 0
vn -0 1 0
vn -0 1 0
vn -0 1 0
vn -0 1 0
vn -0 1 0
vn -0 1 0
vn -0 1 0
vn -0 1 0
vn -0 1 0
vn -0 1 0
vn -0 1 0
vn -0 1 0
vn -0 1 0
vn -0 1 0
vn -0 1 0
vn -0 1 0
vn -0 1 0
vn -0 1 0
vn -0 1 0
vn -0 1 0
vn -0 1 0
vn -0 1 0
vn -0 1 0
vn -0 1 0
vn -0 1 0
vn -0 1 0
vn -0 1 0
vn -0 1 0
vn -0 1 0
vn -0 1 0
vn -0 1 0
vn -0 1 0
vn -0 1 0
vn -0 1 0
vn -0 1 0
vn -0 1 0
vn -0 1 0
vn -0 1 0
vn -0 1 0
vn -0 1 -1.1920929E-07
vn -0 1 0
vn -0 1 0
vn -0 1 0
vn -0 1 0
vn -0 1 0
vn -0 1 0
vn -0 1 0
vn -0 1 0
vn -0 1 0
vn -0 1 0
vn -0 1 0
vn -0 1 0
vn -0 1 0
vn -0 1 0
vn -0 1 0
vn -0 1 0
vn -0 1 0
vn -0 1 0
vn -0 1 0
vn -0 1 0
vn -0 1 0
vn -0 1 0
vn -0 1 0
vn -0 1 0
vn -0 1 0
vn -0 1 0
vn -0 1 0
vn -0 1 0
vn -0 1 0
vn -0 1 0
vn -0 1 0
vn -0 1 0
vn -0 1 0
vn -0 1 0
vn -0 1 0
vn -0 1 0
vn -0 1 0
vn -0 1 0
vn -0 1 0
vn -0 1 0
vn -0 1 0
vn -0 1 0
vn -0 1 0
vn -0 1 0
vn -0 1 0
vn -0 1 0
vn -0 1 0
vn -0 1 0
vn -0 1 0
vn -0 1 0
vn -0 1 0
vn -0 1 0
vn -0 1 0
vn -0 1 0
vn -0 1 0
vn -0 1 0
vn -0 1 0
vn -0 1 0
vn -0 1 0
vn -0 1 0
vn -0 1 0
vn -0 1 0
vn -0 1 0
vn -0 1 1.1920929E-07
vn -0 1 0
vn -0 1 0
vn -0 1 0
vn -0 1 0
vn -0 1 0
vn -0 1 0
vn -0 1 0
vn -0 1 0
vn -0 1 0
vn -0 1 0
vn -0 1 0
vn -0 1 0
vn -0 1 0
vn -0 1 0
vn -0 1 0
vn -0 1 0
vn -0 1 0
vn -0 1 0
vn -0 1 0
vn -0 1 0
vn -0 1 0
vn -0 1 0
vn -0 1 0
vn -0 1 0
vn -0 1 0
vn -0 1 0
vn -0 1 0
vn -0 1 0
vn -0 1 0
vn -0 1 -1.78813934E-07
vn -0 1 -1.1920929E-07
vn -0 1 -1.78813934E-07
vn -0 1 -1.1920929E-07
vn -0 1 -1.78813934E-07
vn -0 1 -1.1920929E-07
vn -0 1 0
vn -0 1 0
vn -0 1 0
vn -0 1 0
vn -0 1 0
vn -0 1 0
vn -0 1 0
vn -0 1 0
vn -3.57627869E-07 1 0
vn -2.38418579E-07 1 0
vn -3.57627869E-07 1 0
vn -2.38418579E-07 1 0
vn -4.76837158E-07 1 -1.78813934E-07
vn -3.57627869E-07 1 -1.1920929E-07
vn -0 1 0
vn -0 1 0
vn -0 1 0
vn -0 1 0
vn -0 1 0
vn -0 1 0
vn -0 1 0
vn -0 1 0
vn -0 1 0
vn -0 1 0
vn -0 1 0
vn -0 1 0
vn -0 1 0
vn -0 1 0
vn -0 1 0
vn -0 1 0
vn -0 1 0
vn -0 1 0
vn -0 1 0
vn -0 1 0
vn -0 1 0
vn -0 1 0
vn -0 1 0
vn -0 1 0
vn -0 1 0
vn -0 1 0
vn -0 1 0
vn -1.78813934E-07 1 0
vn -1.1920929E-07 1 0
vn -1.78813934E-07 1 0
vn -1.1920929E-07 1 0
vn -1.78813934E-07 1 0
vn -1.1920929E-07 1 0
vn -1.78813934E-07 1 1.1920929E-07
vn -1.1920929E-07 1 0
vn -1.78813934E-07 1 1.1920929E-07
vn -1.1920929E-07 1 0
vn -1.1920929E-07 1 1.78813934E-07
vn -0 1 1.1920929E-07
vn -1.1920929E-07 1 1.78813934E-07
vn -0 1 1.1920929E-07
vn -0 1 1.78813934E-07
vn -0 1 1.1920929E-07
vn -0 1 1.78813934E-07
vn -0 1 1.1920929E-07
vn -0 1 1.78813934E-07
vn -0 1 1.1920929E-07
vn -0 1 0
vn -0 1 0
vn -0 1 0
vn -0 1 0
vn -0 1 0
vn -0 1 0
vn -0 1 0
vn -0 1 0
vn -0 1 0
vn -0 1 0
vn -0 1 0
vn -0 1 0
vn -0 1 0
vn -0 1 0
vn -0 1 0
vn -0 1 0
vn -0 1 0
vn -0 1 0
vn -0 1 0
vn -0 1 0
vn -0 1 0
vn -0 1 0
vn -0 1 0
vn -0 1 0
vn -0 1 0
vn -0 1 0
vn -0 1 0
vn -0 1 0
vn -0 1 0
vn -0 1 0
vn -0 1 0
vn -0 1 0
vn -0 1 0
vn -0 1 0
vn -0 1 0
vn -0 1 0
vn -0 1 0
vn -0 1 0
vn -0 1 0
vn -0 1 0
vn -0 1 0
vn -0 1 0
vn -0 1 0
vn -0 1 0
vn -0 1 0
vn -0 1 0
vn -0 1 0
vn -0 1 0
vn -0 1 0
vn -0 1 0
vn -0 1 0
vn -0 1 0
vn -0 1 0
vn -0 1 0
vn -0 1 0
vn -0 1 0
vn -0 1 0
vn -0 1 0
vn -0 1 0
vn -0 1 0
vn -0 1 0
vn -0 1 0
vn -0 1 0
vn -0 1 0
vn -0 1 0
vn -0 1 0
vn -0 1 0
vn -0 1 0
vn -0 1 0
vn -0 1 0
vn -0 1 0
vn -0 1 0
vn -0 1 0
vn -0 1 0
vn -0 1 0
vn -0 1 0
vn -0 1 0
vn -0 1 0
vn -0 1 0
vn -0 1 0
vn -0 1 0
vn -0 1 0
vn -0 1 0
vn -0 1 0
vn -0 1 0
vn -0 1 0
vn -0 1 0
vn -0 1 0
vn -0 1 0
vn -0 1 0
vn -0 1 0
vn -0 1 0
vn -0 1 0
vn -0 1 0
vn -0 1 0
vn -0 1 0
vn -0 1 0
vn -0 1 0
vn -0 1 0
vn -0 1 0
vn -0 1 0
vn -0 1 0
vn -0 1 0
vn -0 1 0
vn -0 1 0
vn -0 1 0
vn -0 1 0
vn -0 1 0
vn -0 1 0
vn -2.38418579E-07 1 0
vn -0 1 0
vn -0 1 0
vn -0 1 0
vn -0 1 0
vn -0 1 0
vn -0 1 -1.1920929E-07
vn -0 1 0
vn -0 1 0
vn -0 1 0
vn -0 1 -1.1920929E-07
vn -0 1 0
vn -0 1 -1.1920929E-07
vn -0 1 0
vn -0 1 0
vn -0 1 0
vn -0 1 0
vn -0 1 0
vn -0 1 0
vn -0 1 0
vn -0 1 0
vn -0 1 0
vn -0 1 0
vn -0 1 0
vn -0 1 0
vn -0 1 0
vn -0 1 0
vn -0 1 0
vn -0 1 0
vn -0 1 0
vn -0 1 0
vn -0 1 0
vn -0 1 0
vn -0 1 0
vn -0 1 0
vn -0 1 0
vn -0 1 0
vn -0 1 0
vn -0 1 0
vn -0 1 0
vn -0 1 0
vn -0 1 0
vn -0 1 0
vn -0 1 0
vn -0 1 0
vn -0 1 0
vn -0 1 0
vn -0 1 0
vn -0 1 0
vn -0 1 0
vn -0 1 0
vn -0 1 0
vn -0 1 0
vn -0 1 0
vn -0 1 1.1920929E-07
vn -0 1 0
vn -0 1 1.1920929E-07
vn -0 1 0
vn -0 1 1.1920929E-07
vn -0 1 0
vn -0 1 1.1920929E-07
vn -0 1 0
vn -1.1920929E-07 1 0
vn -0 1 0
vn -0 1 1.1920929E-07
vn -0 1 0
vn -1.1920929E-07 1 0
vn -0 1 0
vn -1.1920929E-07 1 0
vn -0 1 0
vn -1.1920929E-07 1 0
vn -0 1 0
vn -1.1920929E-07 1 0
vn -0 1 0
vn -2.38418579E-07 1 0
vn -0 1 0
vn -3.57627869E-07 1 -1.1920929E-07
vn -0 1 0
vn -0 1 0
vn -0 1 0
vn -0 1 0
vn -0 1 0
vn -0 1 0
vn -0 1 0
vn -0 1 0
vn -0 1 0
vn -0 1 0
vn -0 1 0
vn -0 1 0
vn -0 1 0
vn -0 1 0
vn -0 1 0
vn -0 1 0
vn -0 1 0
vn -0 1 0
vn -0 1 0
vn -0 1 0
vn -0 1 0
vn -0 1 0
vn -0 1 0
vn -0 1 0
vn -0 1 0
vn -0 1 0
vn -0 1 0
vn -0 1 0
vn -0 1 0
vn -0 1 0
vn -0 1 0
vn -0 1 0
vn -0 1 0
vn -0 1 0
vn -0 1 0
vn -0 1 0
vn -0 1 0
vn -0 1 0
vn -0 1 0
vn -0 1 0
vn -0 1 0
vn -0 1 0
vn -0 1 0
vn -0 1 0
vn -0 1 0
vn -0 1 0
vn -0 1 0
vn -0 1 0
vn -0 1 0
vn -0 1 0
vn -0 1 0
vn -0 1 0
vn -0 1 0
vn -0 1 0
vn -0 1 0
vn -0 1 0
vn -0 1 0
vn -0 1 0
vn -0 1 0
vn -0 1 0
vn -0 1 0
vn -0 1 0
vn -0 1 0
vn -0 1 0
vn -0 1 0
vn -0 1 0
vn -0 1 0
vn -0 1 0
vn -0 1 0
vn -0 1 0
vn -0 1 0
vn -0 1 0
vn -0 1 0
vn -0 1 0
vn -0 1 0
vn -0 1 0
vn -0 1 0
vn -0 1 0
vn -0 1 0
vn -0 1 0
vn -0 1 0
vn -0 1 0
vn -0 1 0
vn -0 1 0
vn -0 1 0
vn -0 1 0
vn -0 1 0
vn -0 1 0
vn -0 1 0
vn -0 1 0
vn -0 1 0
vn -0 1 0
vn -0 1 0
vn -0 1 0
vn -0 1 0
vn -0 1 0
vn -0 1 0
vn -0 1 0
vn -0 1 0
vn -0 1 0
vn -0 1 0
vn -0 1 0
vn -0 1 0
vn -0 1 0
vn -0 1 0
vn -0 1 0
vn -0 1 0
vn -0 1 0
vn -0 1 0
vn -0 1 0
vn -0 1 0
vn -0 1 0
vn -0 1 0
vn -0 1 0
vn -0 1 0
vn -0 1 0
vn -0 1 0
vn -0 1 0
vn -0 1 0
vn -0 1 0
vn -0 1 0
vn -0 1 0
vn -0 1 0
vn -0 1 0
vn -0 1 0
vn -0 1 0
vn -0 1 0
vn -0 1 0
vn -0 1 0
vn -0 1 0
vn -0 1 0
vn -0 1 0
vn -0 1 0
vn -0 1 0
vn -0 1 0
vn -0 1 0
vn -0 1 0
vn -0 1 0
vn -0 1 0
vn -0 1 0
vn -0 1 0
vn -0 1 0
vn -0 1 0
vn -0 1 0
vn -0 1 0
vn -0 1 0
vn -0 1 0
vn -0 1 0
vn -0 1 0
vn -0 1 0
vn -0 1 0
vn -0 1 0
vn -0 1 0
vn -0 1 0
vn -0 1 0
vn -0 1 0
vn -0 1 0
vn -0 1 0
vn -0 1 0
vn -0 1 0
vn -0 1 0
vn -0 1 0
vn -0 1 0
vn -0 1 0
vn -0 1 0
g md_BG01081_0
f 3/3/3 2/2/2 1/1/1
f 3/3/3 4/4/4 2/2/2
f 7/7/7 6/6/6 5/5/5
f 7/7/7 8/8/8 6/6/6
f 11/11/11 10/10/10 9/9/9
f 11/11/11 12/12/12 10/10/10
f 15/15/15 14/14/14 13/13/13
f 15/15/15 16/16/16 14/14/14
f 19/19/19 18/18/18 17/17/17
f 19/19/19 20/20/20 18/18/18
f 23/23/23 22/22/22 21/21/21
f 23/23/23 24/24/24 22/22/22
f 27/27/27 26/26/26 25/25/25
f 27/27/27 28/28/28 26/26/26
f 31/31/31 30/30/30 29/29/29
f 31/31/31 32/32/32 30/30/30
f 35/35/35 34/34/34 33/33/33
f 35/35/35 36/36/36 34/34/34
f 39/39/39 38/38/38 37/37/37
f 39/39/39 40/40/40 38/38/38
f 43/43/43 42/42/42 41/41/41
f 43/43/43 44/44/44 42/42/42
f 47/47/47 46/46/46 45/45/45
f 47/47/47 48/48/48 46/46/46
f 51/51/51 50/50/50 49/49/49
f 51/51/51 52/52/52 50/50/50
f 55/55/55 54/54/54 53/53/53
f 55/55/55 56/56/56 54/54/54
f 59/59/59 58/58/58 57/57/57
f 58/58/58 59/59/59 60/60/60
f 63/63/63 62/62/62 61/61/61
f 63/63/63 64/64/64 62/62/62
f 67/67/67 66/66/66 65/65/65
f 67/67/67 68/68/68 66/66/66
f 71/71/71 70/70/70 69/69/69
f 71/71/71 72/72/72 70/70/70
f 75/75/75 74/74/74 73/73/73
f 74/74/74 76/76/76 73/73/73
f 79/79/79 78/78/78 77/77/77
f 79/79/79 80/80/80 78/78/78
f 80/80/80 79/79/79 81/81/81
f 78/78/78 80/80/80 82/82/82
f 84/84/84 83/83/83 77/77/77
f 84/84/84 85/85/85 83/83/83
f 88/88/88 87/87/87 86/86/86
f 88/88/88 89/89/89 87/87/87
f 92/92/92 91/91/91 90/90/90
f 92/92/92 93/93/93 91/91/91
f 96/96/96 95/95/95 94/94/94
f 96/96/96 97/97/97 95/95/95
f 100/100/100 99/99/99 98/98/98
f 103/103/103 102/102/102 101/101/101
f 103/103/103 104/104/104 102/102/102
f 107/107/107 106/106/106 105/105/105
f 107/107/107 108/108/108 106/106/106
f 111/111/111 110/110/110 109/109/109
f 114/114/114 113/113/113 112/112/112
f 114/114/114 115/115/115 113/113/113
f 118/118/118 117/117/117 116/116/116
f 121/121/121 120/120/120 119/119/119
f 124/124/124 123/123/123 122/122/122
f 127/127/127 126/126/126 125/125/125
f 130/130/130 129/129/129 128/128/128
f 130/130/130 131/131/131 129/129/129
f 134/134/134 133/133/133 132/132/132
f 134/134/134 135/135/135 133/133/133
f 138/138/138 137/137/137 136/136/136
f 141/141/141 140/140/140 139/139/139
f 141/141/141 142/142/142 140/140/140
f 145/145/145 144/144/144 143/143/143
f 145/145/145 146/146/146 144/144/144
f 149/149/149 148/148/148 147/147/147
f 149/149/149 150/150/150 148/148/148
f 153/153/153 152/152/152 151/151/151
f 153/153/153 154/154/154 152/152/152
f 157/157/157 156/156/156 155/155/155
f 160/160/160 159/159/159 158/158/158
f 160/160/160 161/161/161 159/159/159
f 164/164/164 163/163/163 162/162/162
f 164/164/164 165/165/165 163/163/163
f 168/168/168 167/167/167 166/166/166
f 168/168/168 169/169/169 167/167/167
f 172/172/172 171/171/171 170/170/170
f 172/172/172 173/173/173 171/171/171
f 176/176/176 175/175/175 174/174/174
f 176/176/176 177/177/177 175/175/175
f 180/180/180 179/179/179 178/178/178
f 180/180/180 181/181/181 179/179/179
f 184/184/184 183/183/183 182/182/182
f 184/184/184 185/185/185 183/183/183
f 188/188/188 187/187/187 186/186/186
f 188/188/188 189/189/189 187/187/187
f 192/192/192 191/191/191 190/190/190
f 192/192/192 193/193/193 191/191/191
f 194/194/194 193/193/193 192/192/192
f 197/197/197 196/196/196 195/195/195
f 197/197/197 198/198/198 196/196/196
f 201/201/201 200/200/200 199/199/199
f 200/200/200 202/202/202 199/199/199
f 205/205/205 204/204/204 203/203/203
f 206/206/206 205/205/205 203/203/203
f 203/203/203 204/204/204 207/207/207
f 210/210/210 209/209/209 208/208/208
f 210/210/210 211/211/211 209/209/209
f 214/214/214 213/213/213 212/212/212
f 214/214/214 215/215/215 213/213/213
f 218/218/218 217/217/217 216/216/216
f 218/218/218 219/219/219 217/217/217
f 222/222/222 221/221/221 220/220/220
f 222/222/222 223/223/223 221/221/221
f 226/226/226 225/225/225 224/224/224
f 226/226/226 227/227/227 225/225/225
f 230/230/230 229/229/229 228/228/228
f 230/230/230 231/231/231 229/229/229
f 234/234/234 233/233/233 232/232/232
f 234/234/234 235/235/235 233/233/233
f 238/238/238 237/237/237 236/236/236
f 238/238/238 239/239/239 237/237/237
f 242/242/242 241/241/241 240/240/240
f 242/242/242 243/243/243 241/241/241
f 246/246/246 245/245/245 244/244/244
f 246/246/246 247/247/247 245/245/245
f 250/250/250 249/249/249 248/248/248
f 250/250/250 251/251/251 249/249/249
f 254/254/254 253/253/253 252/252/252
f 254/254/254 255/255/255 253/253/253
f 258/258/258 257/257/257 256/256/256
f 258/258/258 259/259/259 257/257/257
f 262/262/262 261/261/261 260/260/260
f 262/262/262 263/263/263 261/261/261
f 266/266/266 265/265/265 264/264/264
f 266/266/266 267/267/267 265/265/265
f 270/270/270 269/269/269 268/268/268
f 270/270/270 271/271/271 269/269/269
f 274/274/274 273/273/273 272/272/272
f 274/274/274 275/275/275 273/273/273
f 278/278/278 277/277/277 276/276/276
f 278/278/278 279/279/279 277/277/277
f 282/282/282 281/281/281 280/280/280
f 282/282/282 283/283/283 281/281/281
f 286/286/286 285/285/285 284/284/284
f 286/286/286 287/287/287 285/285/285
f 290/290/290 289/289/289 288/288/288
f 290/290/290 291/291/291 289/289/289
f 294/294/294 293/293/293 292/292/292
f 294/294/294 295/295/295 293/293/293
f 298/298/298 297/297/297 296/296/296
f 298/298/298 299/299/299 297/297/297
f 302/302/302 301/301/301 300/300/300
f 302/302/302 303/303/303 301/301/301
f 306/306/306 305/305/305 304/304/304
f 306/306/306 307/307/307 305/305/305
f 310/310/310 309/309/309 308/308/308
f 310/310/310 311/311/311 309/309/309
f 314/314/314 313/313/313 312/312/312
f 314/314/314 315/315/315 313/313/313
f 318/318/318 317/317/317 316/316/316
f 318/318/318 319/319/319 317/317/317
f 322/322/322 321/321/321 320/320/320
f 322/322/322 323/323/323 321/321/321
f 326/326/326 325/325/325 324/324/324
f 326/326/326 327/327/327 325/325/325
f 330/330/330 329/329/329 328/328/328
f 330/330/330 331/331/331 329/329/329
f 334/334/334 333/333/333 332/332/332
f 334/334/334 335/335/335 333/333/333
f 338/338/338 337/337/337 336/336/336
f 338/338/338 339/339/339 337/337/337
f 342/342/342 341/341/341 340/340/340
f 342/342/342 343/343/343 341/341/341
f 346/346/346 345/345/345 344/344/344
f 346/346/346 347/347/347 345/345/345
f 350/350/350 349/349/349 348/348/348
f 350/350/350 351/351/351 349/349/349
f 354/354/354 353/353/353 352/352/352
f 354/354/354 355/355/355 353/353/353
f 358/358/358 357/357/357 356/356/356
f 358/358/358 359/359/359 357/357/357
f 362/362/362 361/361/361 360/360/360
f 362/362/362 363/363/363 361/361/361
f 366/366/366 365/365/365 364/364/364
f 366/366/366 367/367/367 365/365/365
f 370/370/370 369/369/369 368/368/368
f 370/370/370 371/371/371 369/369/369
f 374/374/374 373/373/373 372/372/372
f 374/374/374 375/375/375 373/373/373
f 378/378/378 377/377/377 376/376/376
f 378/378/378 379/379/379 377/377/377
f 382/382/382 381/381/381 380/380/380
f 382/382/382 383/383/383 381/381/381
f 386/386/386 385/385/385 384/384/384
f 386/386/386 387/387/387 385/385/385
f 390/390/390 389/389/389 388/388/388
f 390/390/390 391/391/391 389/389/389
f 394/394/394 393/393/393 392/392/392
f 394/394/394 395/395/395 393/393/393
f 398/398/398 397/397/397 396/396/396
f 398/398/398 399/399/399 397/397/397
f 402/402/402 401/401/401 400/400/400
f 402/402/402 403/403/403 401/401/401
f 406/406/406 405/405/405 404/404/404
f 406/406/406 407/407/407 405/405/405
f 410/410/410 409/409/409 408/408/408
f 410/410/410 411/411/411 409/409/409
f 414/414/414 413/413/413 412/412/412
f 414/414/414 415/415/415 413/413/413
f 418/418/418 417/417/417 416/416/416
f 418/418/418 419/419/419 417/417/417
f 422/422/422 421/421/421 420/420/420
f 422/422/422 423/423/423 421/421/421
f 426/426/426 425/425/425 424/424/424
f 426/426/426 427/427/427 425/425/425
f 430/430/430 429/429/429 428/428/428
f 430/430/430 431/431/431 429/429/429
f 434/434/434 433/433/433 432/432/432
f 434/434/434 435/435/435 433/433/433
f 438/438/438 437/437/437 436/436/436
f 438/438/438 439/439/439 437/437/437
f 442/442/442 441/441/441 440/440/440
f 442/442/442 443/443/443 441/441/441
f 446/446/446 445/445/445 444/444/444
f 446/446/446 447/447/447 445/445/445
f 450/450/450 449/449/449 448/448/448
f 450/450/450 451/451/451 449/449/449
f 454/454/454 453/453/453 452/452/452
f 454/454/454 455/455/455 453/453/453
f 458/458/458 457/457/457 456/456/456
f 458/458/458 459/459/459 457/457/457
f 462/462/462 461/461/461 460/460/460
f 462/462/462 463/463/463 461/461/461
f 466/466/466 465/465/465 464/464/464
f 466/466/466 467/467/467 465/465/465
f 470/470/470 469/469/469 468/468/468
f 470/470/470 471/471/471 469/469/469
f 474/474/474 473/473/473 472/472/472
f 474/474/474 475/475/475 473/473/473
f 478/478/478 477/477/477 476/476/476
f 478/478/478 479/479/479 477/477/477
f 482/482/482 481/481/481 480/480/480
f 482/482/482 483/483/483 481/481/481
f 486/486/486 485/485/485 484/484/484
f 486/486/486 487/487/487 485/485/485
f 490/490/490 489/489/489 488/488/488
f 490/490/490 491/491/491 489/489/489
f 494/494/494 493/493/493 492/492/492
f 494/494/494 495/495/495 493/493/493
f 498/498/498 497/497/497 496/496/496
f 498/498/498 499/499/499 497/497/497
f 502/502/502 501/501/501 500/500/500
f 502/502/502 503/503/503 501/501/501
f 506/506/506 505/505/505 504/504/504
f 506/506/506 507/507/507 505/505/505
f 510/510/510 509/509/509 508/508/508
f 510/510/510 511/511/511 509/509/509
f 514/514/514 513/513/513 512/512/512
f 514/514/514 515/515/515 513/513/513
f 518/518/518 517/517/517 516/516/516
f 518/518/518 519/519/519 517/517/517
f 522/522/522 521/521/521 520/520/520
f 522/522/522 523/523/523 521/521/521
f 526/526/526 525/525/525 524/524/524
f 526/526/526 527/527/527 525/525/525
f 530/530/530 529/529/529 528/528/528
f 530/530/530 531/531/531 529/529/529
f 534/534/534 533/533/533 532/532/532
f 534/534/534 535/535/535 533/533/533
f 538/538/538 537/537/537 536/536/536
f 538/538/538 539/539/539 537/537/537
f 542/542/542 541/541/541 540/540/540
f 542/542/542 543/543/543 541/541/541
f 546/546/546 545/545/545 544/544/544
f 546/546/546 547/547/547 545/545/545
f 550/550/550 549/549/549 548/548/548
f 550/550/550 551/551/551 549/549/549
f 554/554/554 553/553/553 552/552/552
f 554/554/554 555/555/555 553/553/553
f 558/558/558 557/557/557 556/556/556
f 558/558/558 559/559/559 557/557/557
f 562/562/562 561/561/561 560/560/560
f 562/562/562 563/563/563 561/561/561
f 566/566/566 565/565/565 564/564/564
f 566/566/566 567/567/567 565/565/565
f 570/570/570 569/569/569 568/568/568
f 570/570/570 571/571/571 569/569/569
f 574/574/574 573/573/573 572/572/572
f 574/574/574 575/575/575 573/573/573
f 578/578/578 577/577/577 576/576/576
f 578/578/578 579/579/579 577/577/577
f 582/582/582 581/581/581 580/580/580
f 582/582/582 583/583/583 581/581/581
f 586/586/586 585/585/585 584/584/584
f 586/586/586 587/587/587 585/585/585
f 590/590/590 589/589/589 588/588/588
f 590/590/590 591/591/591 589/589/589
f 594/594/594 593/593/593 592/592/592
f 594/594/594 595/595/595 593/593/593
f 598/598/598 597/597/597 596/596/596
f 598/598/598 599/599/599 597/597/597
f 602/602/602 601/601/601 600/600/600
f 602/602/602 603/603/603 601/601/601
f 606/606/606 605/605/605 604/604/604
f 606/606/606 607/607/607 605/605/605
f 610/610/610 609/609/609 608/608/608
f 610/610/610 611/611/611 609/609/609
f 614/614/614 613/613/613 612/612/612
f 614/614/614 615/615/615 613/613/613
f 618/618/618 617/617/617 616/616/616
f 618/618/618 619/619/619 617/617/617
f 622/622/622 621/621/621 620/620/620
f 622/622/622 623/623/623 621/621/621
f 626/626/626 625/625/625 624/624/624
f 626/626/626 627/627/627 625/625/625
f 630/630/630 629/629/629 628/628/628
f 630/630/630 631/631/631 629/629/629
f 634/634/634 633/633/633 632/632/632
f 634/634/634 635/635/635 633/633/633
f 638/638/638 637/637/637 636/636/636
f 638/638/638 639/639/639 637/637/637
f 642/642/642 641/641/641 640/640/640
f 642/642/642 643/643/643 641/641/641
f 646/646/646 645/645/645 644/644/644
f 646/646/646 644/644/644 647/647/647
f 646/646/646 647/647/647 648/648/648
f 646/646/646 648/648/648 649/649/649
f 646/646/646 649/649/649 650/650/650
f 653/653/653 652/652/652 651/651/651
f 653/653/653 654/654/654 652/652/652
f 657/657/657 656/656/656 655/655/655
f 657/657/657 658/658/658 656/656/656
f 661/661/661 660/660/660 659/659/659
f 661/661/661 662/662/662 660/660/660
f 665/665/665 664/664/664 663/663/663
f 665/665/665 666/666/666 664/664/664
f 669/669/669 668/668/668 667/667/667
f 669/669/669 670/670/670 668/668/668
f 673/673/673 672/672/672 671/671/671
f 673/673/673 674/674/674 672/672/672
f 677/677/677 676/676/676 675/675/675
f 677/677/677 678/678/678 676/676/676
f 681/681/681 680/680/680 679/679/679
f 681/681/681 682/682/682 680/680/680
f 685/685/685 684/684/684 683/683/683
f 685/685/685 686/686/686 684/684/684
f 689/689/689 688/688/688 687/687/687
f 689/689/689 690/690/690 688/688/688
f 693/693/693 692/692/692 691/691/691
f 693/693/693 691/691/691 694/694/694
f 693/693/693 694/694/694 695/695/695
f 693/693/693 695/695/695 696/696/696
f 693/693/693 696/696/696 697/697/697
f 700/700/700 699/699/699 698/698/698
f 700/700/700 701/701/701 699/699/699
f 704/704/704 703/703/703 702/702/702
f 704/704/704 705/705/705 703/703/703
f 708/708/708 707/707/707 706/706/706
f 708/708/708 709/709/709 707/707/707
f 712/712/712 711/711/711 710/710/710
f 712/712/712 713/713/713 711/711/711
f 716/716/716 715/715/715 714/714/714
f 716/716/716 717/717/717 715/715/715
f 720/720/720 719/719/719 718/718/718
f 720/720/720 721/721/721 719/719/719
f 724/724/724 723/723/723 722/722/722
f 724/724/724 725/725/725 723/723/723
f 728/728/728 727/727/727 726/726/726
f 728/728/728 729/729/729 727/727/727
f 732/732/732 731/731/731 730/730/730
f 732/732/732 733/733/733 731/731/731
f 736/736/736 735/735/735 734/734/734
f 736/736/736 737/737/737 735/735/735
f 740/740/740 739/739/739 738/738/738
f 738/738/738 739/739/739 741/741/741
f 741/741/741 739/739/739 742/742/742
f 742/742/742 739/739/739 743/743/743
f 743/743/743 739/739/739 744/744/744
f 747/747/747 746/746/746 745/745/745
f 747/747/747 748/748/748 746/746/746
f 751/751/751 750/750/750 749/749/749
f 751/751/751 752/752/752 750/750/750
f 755/755/755 754/754/754 753/753/753
f 755/755/755 756/756/756 754/754/754
f 759/759/759 758/758/758 757/757/757
f 759/759/759 760/760/760 758/758/758
f 763/763/763 762/762/762 761/761/761
f 763/763/763 764/764/764 762/762/762
f 767/767/767 766/766/766 765/765/765
f 767/767/767 768/768/768 766/766/766
f 771/771/771 770/770/770 769/769/769
f 771/771/771 772/772/772 770/770/770
f 775/775/775 774/774/774 773/773/773
f 775/775/775 776/776/776 774/774/774
f 779/779/779 778/778/778 777/777/777
f 779/779/779 780/780/780 778/778/778
f 783/783/783 782/782/782 781/781/781
f 783/783/783 784/784/784 782/782/782
f 787/787/787 786/786/786 785/785/785
f 785/785/785 786/786/786 788/788/788
f 788/788/788 786/786/786 789/789/789
f 789/789/789 786/786/786 790/790/790
f 790/790/790 786/786/786 791/791/791
f 794/794/794 793/793/793 792/792/792
f 794/794/794 795/795/795 793/793/793
f 798/798/798 797/797/797 796/796/796
f 798/798/798 799/799/799 797/797/797
f 802/802/802 801/801/801 800/800/800
f 802/802/802 803/803/803 801/801/801
f 806/806/806 805/805/805 804/804/804
f 806/806/806 807/807/807 805/805/805
f 810/810/810 809/809/809 808/808/808
f 810/810/810 811/811/811 809/809/809
f 814/814/814 813/813/813 812/812/812
f 814/814/814 815/815/815 813/813/813
f 818/818/818 817/817/817 816/816/816
f 818/818/818 819/819/819 817/817/817
f 822/822/822 821/821/821 820/820/820
f 822/822/822 823/823/823 821/821/821
f 826/826/826 825/825/825 824/824/824
f 826/826/826 827/827/827 825/825/825
f 830/830/830 829/829/829 828/828/828
f 830/830/830 831/831/831 829/829/829
f 834/834/834 833/833/833 832/832/832
f 834/834/834 835/835/835 833/833/833
f 838/838/838 837/837/837 836/836/836
f 838/838/838 839/839/839 837/837/837
f 842/842/842 841/841/841 840/840/840
f 842/842/842 843/843/843 841/841/841
f 846/846/846 845/845/845 844/844/844
f 846/846/846 847/847/847 845/845/845
f 850/850/850 849/849/849 848/848/848
f 850/850/850 851/851/851 849/849/849
f 854/854/854 853/853/853 852/852/852
f 854/854/854 855/855/855 853/853/853
f 858/858/858 857/857/857 856/856/856
f 858/858/858 859/859/859 857/857/857
f 862/862/862 861/861/861 860/860/860
f 862/862/862 863/863/863 861/861/861
f 866/866/866 865/865/865 864/864/864
f 866/866/866 867/867/867 865/865/865
f 870/870/870 869/869/869 868/868/868
f 870/870/870 871/871/871 869/869/869
f 874/874/874 873/873/873 872/872/872
f 874/874/874 875/875/875 873/873/873
f 878/878/878 877/877/877 876/876/876
f 878/878/878 879/879/879 877/877/877
f 882/882/882 881/881/881 880/880/880
f 882/882/882 883/883/883 881/881/881
f 886/886/886 885/885/885 884/884/884
f 886/886/886 887/887/887 885/885/885
f 890/890/890 889/889/889 888/888/888
f 890/890/890 891/891/891 889/889/889
f 894/894/894 893/893/893 892/892/892
f 894/894/894 895/895/895 893/893/893
f 898/898/898 897/897/897 896/896/896
f 898/898/898 899/899/899 897/897/897
f 902/902/902 901/901/901 900/900/900
f 902/902/902 903/903/903 901/901/901
f 906/906/906 905/905/905 904/904/904
f 906/906/906 907/907/907 905/905/905
f 910/910/910 909/909/909 908/908/908
f 910/910/910 911/911/911 909/909/909
f 914/914/914 913/913/913 912/912/912
f 914/914/914 915/915/915 913/913/913
f 918/918/918 917/917/917 916/916/916
f 918/918/918 919/919/919 917/917/917
f 922/922/922 921/921/921 920/920/920
f 922/922/922 923/923/923 921/921/921
f 926/926/926 925/925/925 924/924/924
f 926/926/926 927/927/927 925/925/925
f 930/930/930 929/929/929 928/928/928
f 930/930/930 931/931/931 929/929/929
f 934/934/934 933/933/933 932/932/932
f 934/934/934 935/935/935 933/933/933
f 938/938/938 937/937/937 936/936/936
f 938/938/938 939/939/939 937/937/937
f 942/942/942 941/941/941 940/940/940
f 942/942/942 943/943/943 941/941/941
f 946/946/946 945/945/945 944/944/944
f 946/946/946 947/947/947 945/945/945
f 950/950/950 949/949/949 948/948/948
f 950/950/950 951/951/951 949/949/949
f 954/954/954 953/953/953 952/952/952
f 954/954/954 955/955/955 953/953/953
f 958/958/958 957/957/957 956/956/956
f 958/958/958 959/959/959 957/957/957
f 962/962/962 961/961/961 960/960/960
f 962/962/962 963/963/963 961/961/961
f 966/966/966 965/965/965 964/964/964
f 966/966/966 967/967/967 965/965/965
f 970/970/970 969/969/969 968/968/968
f 970/970/970 971/971/971 969/969/969
f 974/974/974 973/973/973 972/972/972
f 974/974/974 975/975/975 973/973/973
f 978/978/978 977/977/977 976/976/976
f 978/978/978 979/979/979 977/977/977
f 982/982/982 981/981/981 980/980/980
f 982/982/982 983/983/983 981/981/981
f 986/986/986 985/985/985 984/984/984
f 986/986/986 987/987/987 985/985/985
f 990/990/990 989/989/989 988/988/988
f 990/990/990 991/991/991 989/989/989
f 994/994/994 993/993/993 992/992/992
f 994/994/994 995/995/995 993/993/993
f 998/998/998 997/997/997 996/996/996
f 998/998/998 999/999/999 997/997/997
f 1002/1002/1002 1001/1001/1001 1000/1000/1000
f 1002/1002/1002 1003/1003/1003 1001/1001/1001
f 1006/1006/1006 1005/1005/1005 1004/1004/1004
f 1006/1006/1006 1007/1007/1007 1005/1005/1005
f 1010/1010/1010 1009/1009/1009 1008/1008/1008
f 1010/1010/1010 1011/1011/1011 1009/1009/1009
f 1014/1014/1014 1013/1013/1013 1012/1012/1012
f 1014/1014/1014 1015/1015/1015 1013/1013/1013
f 1018/1018/1018 1017/1017/1017 1016/1016/1016
f 1021/1021/1021 1020/1020/1020 1019/1019/1019
f 1021/1021/1021 1022/1022/1022 1020/1020/1020
f 1025/1025/1025 1024/1024/1024 1023/1023/1023
f 1025/1025/1025 1026/1026/1026 1024/1024/1024
f 1029/1029/1029 1028/1028/1028 1027/1027/1027
f 1029/1029/1029 1030/1030/1030 1028/1028/1028
f 1033/1033/1033 1032/1032/1032 1031/1031/1031
f 1033/1033/1033 1034/1034/1034 1032/1032/1032
f 1037/1037/1037 1036/1036/1036 1035/1035/1035
f 1037/1037/1037 1038/1038/1038 1036/1036/1036
f 1041/1041/1041 1040/1040/1040 1039/1039/1039
f 1044/1044/1044 1043/1043/1043 1042/1042/1042
f 1047/1047/1047 1046/1046/1046 1045/1045/1045
f 1047/1047/1047 1048/1048/1048 1046/1046/1046
f 1051/1051/1051 1050/1050/1050 1049/1049/1049
f 1051/1051/1051 1052/1052/1052 1050/1050/1050
f 1055/1055/1055 1054/1054/1054 1053/1053/1053
f 1055/1055/1055 1056/1056/1056 1054/1054/1054
f 1059/1059/1059 1058/1058/1058 1057/1057/1057
f 1059/1059/1059 1060/1060/1060 1058/1058/1058
f 1063/1063/1063 1062/1062/1062 1061/1061/1061
f 1063/1063/1063 1064/1064/1064 1062/1062/1062
f 1067/1067/1067 1066/1066/1066 1065/1065/1065
f 1070/1070/1070 1069/1069/1069 1068/1068/1068
f 1070/1070/1070 1071/1071/1071 1069/1069/1069
f 1074/1074/1074 1073/1073/1073 1072/1072/1072
f 1074/1074/1074 1075/1075/1075 1073/1073/1073
f 1078/1078/1078 1077/1077/1077 1076/1076/1076
f 1078/1078/1078 1079/1079/1079 1077/1077/1077
f 1082/1082/1082 1081/1081/1081 1080/1080/1080
f 1082/1082/1082 1083/1083/1083 1081/1081/1081
f 1086/1086/1086 1085/1085/1085 1084/1084/1084
f 1086/1086/1086 1087/1087/1087 1085/1085/1085
f 1090/1090/1090 1089/1089/1089 1088/1088/1088
f 1090/1090/1090 1091/1091/1091 1089/1089/1089
f 1094/1094/1094 1093/1093/1093 1092/1092/1092
f 1094/1094/1094 1095/1095/1095 1093/1093/1093
f 1098/1098/1098 1097/1097/1097 1096/1096/1096
f 1098/1098/1098 1099/1099/1099 1097/1097/1097
f 1102/1102/1102 1101/1101/1101 1100/1100/1100
f 1102/1102/1102 1103/1103/1103 1101/1101/1101
f 1106/1106/1106 1105/1105/1105 1104/1104/1104
f 1106/1106/1106 1107/1107/1107 1105/1105/1105
f 1110/1110/1110 1109/1109/1109 1108/1108/1108
f 1110/1110/1110 1111/1111/1111 1109/1109/1109
f 1114/1114/1114 1113/1113/1113 1112/1112/1112
f 1114/1114/1114 1115/1115/1115 1113/1113/1113
