g wp_013_003_002_Mesh_b
v -4.42146442E-19 -0.0151466737 -0.127882272
v -0.0121891992 -0.0354556628 -0.129641086
v 0.0121891992 -0.0354557075 -0.12964122
v -8.21459004E-18 -0.0515324585 -0.116979323
v -0.0121891992 -0.00636052946 -0.0103921359
v -2.13045843E-17 -0.0249229502 -0.00634694938
v -8.21459004E-18 -0.0515324585 -0.116979323
v -0.0121891992 -0.0354556628 -0.129641086
v -4.42146442E-19 -0.0151466737 -0.127882272
v -1.39004195E-17 0.0122018894 -0.0144373076
v 0.0121891992 -0.0354557075 -0.12964122
v 0.0121891992 -0.00636052946 -0.0103921359
v -8.21459004E-18 -0.0515324585 -0.116979323
v -2.13045843E-17 -0.0249229502 -0.00634694938
v -0.0121891992 0.0113498466 0.0968796387
v -2.81626974E-17 0.0302298293 0.0944958702
v 0.0121891992 0.0113498466 0.0968796387
v -3.51332624E-17 -0.00753010157 0.0992635638
v -3.51332624E-17 -0.00753010157 0.0992635638
v -3.22394554E-18 -0.0383050591 -0.165493563
v 0.00367179397 -0.0388086438 -0.161579281
v 0.00367179397 -0.0289133731 -0.155905098
v -5.82320314E-19 -0.0257894658 -0.158316821
v -7.324638E-18 -0.0522296578 -0.161718518
v 0.00367179397 -0.0498179235 -0.158594564
v -1.16460545E-17 -0.0594064072 -0.149202883
v 0.00367179397 -0.0554921217 -0.148699269
v 0.00367179397 -0.0525073819 -0.137689978
v -1.28087611E-17 -0.0556312688 -0.135278255
v -1.03408653E-17 -0.0431156754 -0.128101498
v 0.00367179397 -0.0426121019 -0.132015795
v -1.65705142E-18 -0.0220143497 -0.144392222
v 0.00367179397 -0.0259286296 -0.144895807
v 0.00367179397 -0.0316028222 -0.135000527
v -5.71320001E-18 -0.0291910972 -0.131876603
v -9.57993602E-18 -0.0515778437 -0.148195669
v -7.15640601E-18 -0.0474062003 -0.155470639
v -1.02497885E-17 -0.0493834764 -0.140101701
v -8.81048186E-18 -0.0421085209 -0.135930091
v -3.75249989E-18 -0.0298429094 -0.145399392
v -6.11598072E-18 -0.0340145379 -0.138124451
v -3.11762346E-18 -0.0320372842 -0.15349336
v -4.59271273E-18 -0.0393122397 -0.157664984
v -1.03408653E-17 -0.0431156754 -0.128101498
v -5.71320001E-18 -0.0291910972 -0.131876603
v 0.00367179397 -0.0316028222 -0.135000527
v 0.00367179397 -0.0426121019 -0.132015795
v -6.11598072E-18 -0.0340145379 -0.138124451
v -8.81048186E-18 -0.0421085209 -0.135930091
v -0.00367179397 -0.0388086438 -0.161579281
v -3.22394554E-18 -0.0383050591 -0.165493563
v -5.82320314E-19 -0.0257894658 -0.158316821
v -0.00367179397 -0.0289133731 -0.155905098
v -0.00367179397 -0.0498179235 -0.158594564
v -7.324638E-18 -0.0522296578 -0.161718518
v -0.00367179397 -0.0554921217 -0.148699269
v -1.16460545E-17 -0.0594064072 -0.149202883
v -1.28087611E-17 -0.0556312688 -0.135278255
v -0.00367179397 -0.0525073819 -0.137689978
v -0.00367179397 -0.0426121019 -0.132015795
v -1.03408653E-17 -0.0431156754 -0.128101498
v -0.00367179397 -0.0259286296 -0.144895807
v -1.65705142E-18 -0.0220143497 -0.144392222
v -5.71320001E-18 -0.0291910972 -0.131876603
v -0.00367179397 -0.0316028222 -0.135000527
v -6.11598072E-18 -0.0340145379 -0.138124451
v -3.75249989E-18 -0.0298429094 -0.145399392
v -3.11762346E-18 -0.0320372842 -0.15349336
v -4.59271273E-18 -0.0393122397 -0.157664984
v -7.15640601E-18 -0.0474062003 -0.155470639
v -9.57993602E-18 -0.0515778437 -0.148195669
v -1.02497885E-17 -0.0493834764 -0.140101701
v -8.81048186E-18 -0.0421085209 -0.135930091
v -0.00367179397 -0.0426121019 -0.132015795
v -0.00367179397 -0.0316028222 -0.135000527
v -5.71320001E-18 -0.0291910972 -0.131876603
v -1.03408653E-17 -0.0431156754 -0.128101498
v -6.11598072E-18 -0.0340145379 -0.138124451
v -8.81048186E-18 -0.0421085209 -0.135930091
v -1.93715088E-09 -0.0428219326 -0.138268322
v -2.40295828E-09 -0.044202853 -0.12248566
v 0.0107798073 -0.0353321843 -0.129222348
v 0.00553927897 -0.03819957 -0.139551491
v 1.21086541E-09 -0.0223872084 -0.128541693
v 5.96046434E-10 -0.0335772 -0.140834659
v 5.96046434E-10 -0.0335772 -0.140834659
v 1.21086541E-09 -0.0223872084 -0.128541693
v -0.0107798073 -0.0353321843 -0.129222348
v -0.00553927897 -0.03819957 -0.139551491
v -2.40295828E-09 -0.044202853 -0.12248566
v -1.93715088E-09 -0.0428219326 -0.138268322
v 5.96046434E-10 -0.0335772 -0.140834659
v -0.00553927897 -0.03819957 -0.139551491
v 0.00553927897 -0.03819957 -0.139551491
v -1.93715088E-09 -0.0428219326 -0.138268322
v 0.0404715873 0.0113504408 0.0968843475
v 0.0350494273 0.0332411565 0.0941204652
v 0.0350494273 -0.0105402749 0.0996483415
v 0.0202357955 -0.0265653599 0.101671681
v 0.0202357955 0.0492662787 0.0920971185
v 9.53674295E-09 -0.0324309915 0.102412254
v 9.53674295E-09 0.0551318713 0.0913564935
v -0.0202357862 -0.0265653599 0.101671636
v -0.0202357862 0.0492662787 0.0920970738
v -0.0350494087 -0.0105402749 0.0996483415
v -0.0350494087 0.0332411565 0.0941204652
v -0.0404715799 0.0113504408 0.0968843997
v -0.0350494087 -0.00965480786 0.106661364
v -0.0404715799 0.0122359078 0.103897423
v -0.0350494087 0.0341266245 0.101133488
v -0.0202357769 -0.0256798938 0.108684696
v -0.0202357769 0.0501517467 0.0991101339
v 4.76837148E-09 -0.0315455236 0.109425306
v 4.76837148E-09 0.0560173392 0.0983695388
v 0.0202357955 -0.0256798938 0.108684696
v 0.0202357955 0.0501517467 0.0991101339
v 0.0350494273 -0.00965480786 0.106661364
v 0.0350494273 0.0341266245 0.101133488
v 0.0404715873 0.0122359078 0.103897423
v -0.0350494087 0.0341266245 0.101133488
v -0.0404715799 0.0122359078 0.103897423
v -0.0404715799 0.0113504408 0.0968843997
v -0.0350494087 0.0332411565 0.0941204652
v -0.0202357769 0.0501517467 0.0991101339
v -0.0202357862 0.0492662787 0.0920970738
v 4.76837148E-09 0.0560173392 0.0983695388
v 9.53674295E-09 0.0551318713 0.0913564935
v -0.0350494087 -0.0105402749 0.0996483415
v -0.0350494087 -0.00965480786 0.106661364
v -0.0202357862 -0.0265653599 0.101671636
v -0.0202357769 -0.0256798938 0.108684696
v 9.53674295E-09 -0.0324309915 0.102412254
v 4.76837148E-09 -0.0315455236 0.109425306
v 0.0350494273 -0.00965480786 0.106661364
v 0.0404715873 0.0122359078 0.103897423
v 0.0404715873 0.0113504408 0.0968843475
v 0.0350494273 -0.0105402749 0.0996483415
v 0.0202357955 -0.0256798938 0.108684696
v 0.0202357955 -0.0265653599 0.101671681
v 4.76837148E-09 -0.0315455236 0.109425306
v 9.53674295E-09 -0.0324309915 0.102412254
v 0.0350494273 0.0332411565 0.0941204652
v 0.0350494273 0.0341266245 0.101133488
v 0.0202357955 0.0492662787 0.0920971185
v 0.0202357955 0.0501517467 0.0991101339
v 9.53674295E-09 0.0551318713 0.0913564935
v 4.76837148E-09 0.0560173392 0.0983695388
v -0.005500481 -0.0966007188 -0.230106458
v -0.005500481 -0.0895492509 -0.219540551
v -1.49011592E-09 -0.0948321968 -0.216014817
v -1.49011592E-09 -0.101883657 -0.226580754
v -2.98023134E-10 -0.0913177654 -0.233632192
v -2.98023134E-10 -0.084266305 -0.22306627
v -1.60799585E-09 -0.101892844 -0.23803623
v -1.49011592E-09 -0.101883657 -0.226580754
v -1.49011592E-09 -0.0948321968 -0.216014817
v 0.00550048053 -0.0895492509 -0.219540551
v 0.00550048053 -0.0966007188 -0.230106458
v -2.98023134E-10 -0.084266305 -0.22306627
v -2.98023134E-10 -0.0913177654 -0.233632192
v -1.60799585E-09 -0.101892844 -0.23803623
v -2.98023134E-10 -0.084266305 -0.22306627
v -1.49011592E-09 -0.0948321968 -0.216014817
v -0.005500481 -0.0895492509 -0.219540551
v 0.00550048053 -0.0895492509 -0.219540551
v 0.00205799495 -0.085621424 -0.222161904
v 0.00205799495 -0.0657918453 -0.192449227
v -0.00205799541 -0.0657918453 -0.192449227
v -0.00205799541 -0.085621424 -0.222161904
v 0.00205799495 -0.0657918453 -0.192449227
v 0.00205799495 -0.073647514 -0.187206537
v -0.00205799541 -0.073647514 -0.187206537
v -0.00205799541 -0.0657918453 -0.192449227
v 0.00205799495 -0.073647514 -0.187206537
v 0.00205799495 -0.0934770927 -0.216919214
v -0.00205799541 -0.0934770927 -0.216919214
v -0.00205799541 -0.073647514 -0.187206537
v -0.00205799541 -0.085621424 -0.222161904
v -0.00205799541 -0.0657918453 -0.192449227
v -0.00205799541 -0.073647514 -0.187206537
v -0.00205799541 -0.0934770927 -0.216919214
v 0.00205799495 -0.0934770927 -0.216919214
v 0.00205799495 -0.073647514 -0.187206537
v 0.00205799495 -0.0657918453 -0.192449227
v 0.00205799495 -0.085621424 -0.222161904
v -4.47556547E-10 -0.0416307636 -0.152937964
v -4.47556547E-10 -0.046431426 -0.14973411
v -0.00455759512 -0.0504313447 -0.15572758
v -0.00455759512 -0.0456306823 -0.158931449
v -0.000933125382 -0.0673193559 -0.191429779
v -0.000933125382 -0.0721200183 -0.18822594
v 0.000933124335 -0.0721200183 -0.18822594
v 0.00455759326 -0.0504313447 -0.15572758
v 0.00455759326 -0.0456306823 -0.158931449
v 0.000933124335 -0.0673193559 -0.191429779
v -4.47556547E-10 -0.046431426 -0.14973411
v -4.47556547E-10 -0.0416307636 -0.152937964
v 0.00265957834 -0.0791068599 -0.294470936
v 0.00265957834 -0.0763622671 -0.268277496
v -0.00265957881 -0.0763622671 -0.268277496
v -0.00265957881 -0.0791068599 -0.294470936
v -0.00265957881 -0.0895439684 -0.244385183
v 0.00265957834 -0.0895439684 -0.244385183
v -0.00265957881 -0.100423984 -0.235835239
v 0.00265957834 -0.100423984 -0.235835239
v 0.00265957834 -0.0959364027 -0.313073158
v -0.00265957881 -0.0959364027 -0.313073158
v 0.00265957834 -0.100918308 -0.339774549
v -0.00265957881 -0.100918308 -0.339774549
v 0.00265957834 -0.120427437 -0.360295475
v -0.00265957881 -0.120427437 -0.360295475
v 0.00265957834 -0.151310638 -0.365670592
v -0.00265957881 -0.151310638 -0.365670592
v -0.00265957881 -0.177987158 -0.352056026
v 0.00265957834 -0.164389163 -0.360486597
v 0.00265957834 -0.177987158 -0.352056026
v -0.00265957881 -0.164389163 -0.360486597
v -0.00265957881 -0.162750915 -0.238648772
v -0.00265957881 -0.139615566 -0.226063654
v 0.00265957834 -0.139615566 -0.226063654
v 0.00265957834 -0.162750915 -0.238648772
v -0.00265957881 -0.173471615 -0.261327893
v 0.00265957834 -0.173471615 -0.261327893
v -0.00265957881 -0.196217537 -0.276173979
v 0.00265957834 -0.196217537 -0.276173979
v 0.00265957834 -0.112494215 -0.229068696
v -0.00265957881 -0.112494215 -0.229068696
v 0.00265957834 -0.100423984 -0.235835239
v -0.00265957881 -0.100423984 -0.235835239
v -0.00265957881 -0.207681969 -0.302063793
v 0.00265957834 -0.207681969 -0.302063793
v -0.00265957881 -0.200795487 -0.332645476
v 0.00265957834 -0.200795487 -0.332645476
v 0.00265957834 -0.190989986 -0.34273383
v 0.00265957834 -0.177987158 -0.352056026
v -0.00265957881 -0.177987158 -0.352056026
v -0.00265957881 -0.190989986 -0.34273383
v 0.00265957834 -0.164389163 -0.360486597
v 0.00265957834 -0.177987158 -0.352056026
v 0.00265957834 -0.190989986 -0.34273383
v 0.00265957834 -0.151310638 -0.365670592
v 0.00265957834 -0.200795487 -0.332645476
v 0.00265957834 -0.207681969 -0.302063793
v 0.00265957834 -0.120427437 -0.360295475
v 0.00265957834 -0.196217537 -0.276173979
v 0.00265957834 -0.100918308 -0.339774549
v 0.00265957834 -0.173471615 -0.261327893
v 0.00265957834 -0.0959364027 -0.313073158
v 0.00265957834 -0.162750915 -0.238648772
v 0.00265957834 -0.0791068599 -0.294470936
v 0.00265957834 -0.139615566 -0.226063654
v 0.00265957834 -0.0763622671 -0.268277496
v 0.00265957834 -0.112494215 -0.229068696
v 0.00265957834 -0.0895439684 -0.244385183
v 0.00265957834 -0.100423984 -0.235835239
v -0.00265957881 -0.0895439684 -0.244385183
v -0.00265957881 -0.100423984 -0.235835239
v -0.00265957881 -0.112494215 -0.229068696
v -0.00265957881 -0.139615566 -0.226063654
v -0.00265957881 -0.0763622671 -0.268277496
v -0.00265957881 -0.162750915 -0.238648772
v -0.00265957881 -0.0791068599 -0.294470936
v -0.00265957881 -0.173471615 -0.261327893
v -0.00265957881 -0.0959364027 -0.313073158
v -0.00265957881 -0.196217537 -0.276173979
v -0.00265957881 -0.100918308 -0.339774549
v -0.00265957881 -0.207681969 -0.302063793
v -0.00265957881 -0.120427437 -0.360295475
v -0.00265957881 -0.200795487 -0.332645476
v -0.00265957881 -0.151310638 -0.365670592
v -0.00265957881 -0.164389163 -0.360486597
v -0.00265957881 -0.190989986 -0.34273383
v -0.00265957881 -0.177987158 -0.352056026
v -0.00365186227 0.0159839056 -0.27057305
v -0.00365186227 0.0188484006 -0.298399895
v -0.00365186227 0.0206913762 -0.283167571
v -0.00365186227 0.0104659554 -0.311332494
v -0.00365186227 0.00524265273 -0.260590822
v -0.00365186227 -0.00338663091 -0.317985594
v -0.00365186227 -0.00989707001 -0.254740596
v -0.00365186227 -0.0202010535 -0.321227252
v -0.00365186227 -0.0271304604 -0.253912985
v -0.00365186227 -0.0373232625 -0.321479052
v -0.00365186227 -0.0438338369 -0.258234084
v -0.00365186227 -0.0522407517 -0.317787588
v -0.00365186227 -0.0574642159 -0.267045945
v -0.00365186227 -0.0630820617 -0.306833923
v -0.00365186227 -0.0659466162 -0.279007077
v -0.00365186227 -0.0679895356 -0.292296499
v -0.00365186227 -0.00989707001 -0.254740596
v -0.00123915577 -0.00989707001 -0.254740596
v -0.00123915577 -0.0271304604 -0.253912985
v -0.00365186227 -0.0271304604 -0.253912985
v -0.00365186227 0.00524265273 -0.260590822
v -0.00123915577 0.00524265273 -0.260590822
v -0.00365186227 0.0159839056 -0.27057305
v -0.001239156 0.0159839056 -0.27057305
v -0.00365186227 0.0206913762 -0.283167571
v -0.00123915577 0.0206913762 -0.283167571
v -0.00365186227 0.0188484006 -0.298399895
v -0.00123915577 0.0188484006 -0.298399895
v -0.00365186227 0.0104659554 -0.311332494
v -0.00123915577 0.0104659554 -0.311332494
v -0.00365186227 -0.00338663091 -0.317985594
v -0.00123915577 -0.00338663091 -0.317985594
v -0.00365186227 -0.0202010535 -0.321227252
v -0.00123915577 -0.0202010535 -0.321227252
v -0.00365186227 -0.0438338369 -0.258234084
v -0.00365186227 -0.0271304604 -0.253912985
v -0.00123915577 -0.0271304604 -0.253912985
v -0.00123915577 -0.0438338369 -0.258234084
v -0.00365186227 -0.0574642159 -0.267045945
v -0.00123915577 -0.0574642159 -0.267045945
v -0.001239156 -0.0659466162 -0.279007077
v -0.00365186227 -0.0659466162 -0.279007077
v -0.00365186227 -0.0679895356 -0.292296499
v -0.00123915577 -0.0679895356 -0.292296499
v -0.00365186227 -0.0630820617 -0.306833923
v -0.00123915577 -0.0630820617 -0.306833923
v -0.00365186227 -0.0522407517 -0.317787588
v -0.00123915577 -0.0522407517 -0.317787588
v -0.00365186227 -0.0373232625 -0.321479052
v -0.00123915577 -0.0373232625 -0.321479052
v -0.00365186227 -0.0202010535 -0.321227252
v -0.00123915577 -0.0202010535 -0.321227252
v -0.00123915577 -0.0630820617 -0.306833923
v -0.00123915577 -0.0679895356 -0.292296499
v -0.001239156 -0.0659466162 -0.279007077
v -0.00123915577 -0.0522407517 -0.317787588
v -0.00123915577 -0.0574642159 -0.267045945
v -0.00123915577 -0.0373232625 -0.321479052
v -0.00123915577 -0.0438338369 -0.258234084
v -0.00123915577 -0.0202010535 -0.321227252
v -0.00123915577 -0.0271304604 -0.253912985
v -0.00123915577 -0.00989707001 -0.254740596
v -0.00123915577 -0.00338663091 -0.317985594
v -0.00123915577 0.0104659554 -0.311332494
v -0.00123915577 0.00524265273 -0.260590822
v -0.001239156 0.0159839056 -0.27057305
v -0.00123915577 0.0188484006 -0.298399895
v -0.00123915577 0.0206913762 -0.283167571
v -0.00550048146 -0.0278927945 -0.246507525
v -0.00550048146 -0.0291935578 -0.23387149
v -1.49011603E-09 -0.0355115682 -0.234521881
v -1.49011603E-09 -0.0342108048 -0.247157931
v -2.98023217E-10 -0.0215747822 -0.245857164
v -2.98023217E-10 -0.0228755474 -0.233221099
v -3.01274367E-10 -0.027015077 -0.255033821
v -1.49011603E-09 -0.0342108048 -0.247157931
v -1.49011603E-09 -0.0355115682 -0.234521881
v 0.0055004796 -0.0291935578 -0.23387149
v 0.0055004796 -0.0278927945 -0.246507525
v -2.98023217E-10 -0.0228755474 -0.233221099
v -2.98023217E-10 -0.0215747822 -0.245857164
v -3.01274367E-10 -0.027015077 -0.255033821
v -2.98023217E-10 -0.0228755474 -0.233221099
v -1.49011603E-09 -0.0355115682 -0.234521881
v -0.00550048146 -0.0291935578 -0.23387149
v 0.0055004796 -0.0291935578 -0.23387149
v 0.00205799495 -0.0244961642 -0.233387947
v 0.00205799495 -0.0281540956 -0.197853804
v -0.00205799541 -0.0281540956 -0.197853804
v -0.00205799541 -0.0244961642 -0.233387947
v 0.00205799495 -0.0281540956 -0.197853804
v 0.00205799495 -0.0375488922 -0.198820904
v -0.00205799541 -0.0375488922 -0.198820904
v -0.00205799541 -0.0281540956 -0.197853804
v 0.00205799495 -0.0375488922 -0.198820904
v 0.00205799495 -0.0338909626 -0.234355047
v -0.00205799541 -0.0338909626 -0.234355047
v -0.00205799541 -0.0375488922 -0.198820904
v -0.00205799541 -0.0244961642 -0.233387947
v -0.00205799541 -0.0281540956 -0.197853804
v -0.00205799541 -0.0375488922 -0.198820904
v -0.00205799541 -0.0338909626 -0.234355047
v 0.00205799495 -0.0338909626 -0.234355047
v 0.00205799495 -0.0375488922 -0.198820904
v 0.00205799495 -0.0281540956 -0.197853804
v 0.00205799495 -0.0244961642 -0.233387947
v -4.47556658E-10 -0.0347196087 -0.152008504
v -4.47556658E-10 -0.0404608436 -0.152599514
v -0.00455759512 -0.0397229865 -0.15976727
v -0.00455759512 -0.0339817517 -0.15917626
v -0.000933125382 -0.0299808886 -0.198041856
v -0.000933125382 -0.0357221216 -0.198632866
v 0.000933124335 -0.0357221216 -0.198632866
v 0.00455759326 -0.0397229865 -0.15976727
v 0.00455759326 -0.0339817517 -0.15917626
v 0.000933124335 -0.0299808886 -0.198041856
v -4.47556658E-10 -0.0404608436 -0.152599514
v -4.47556658E-10 -0.0347196087 -0.152008504
vt 0.252540469 0.119891576
vt 0.200577021 0.161538303
vt 0.30022192 0.162844867
vt 0.248226166 0.205170125
vt 0.611507714 0.172923267
vt 0.535822451 0.172923267
vt 0.535822272 0.343058884
vt 0.611507535 0.353487968
vt 0.687407613 0.343064487
vt 0.687407851 0.172923267
vt 0.763307571 0.353488207
vt 0.763307691 0.172923267
vt 0.838992953 0.343058884
vt 0.838992953 0.172923267
vt 0.611506939 0.00651213527
vt 0.68740797 0.00651213527
vt 0.763308644 0.00651213527
vt 0.838992953 0.00651213527
vt 0.53582263 0.00651213527
vt 0.930807114 0.996183991
vt 0.922180951 0.986307085
vt 0.96538955 0.963864803
vt 0.985457718 0.967799127
vt 0.852021098 0.996933818
vt 0.859889865 0.986899614
vt 0.795250833 0.969608665
vt 0.815005183 0.965295315
vt 0.813820004 0.934149742
vt 0.793752015 0.930215418
vt 0.848402262 0.901830256
vt 0.857028604 0.911707401
vt 0.983958662 0.92840606
vt 0.964204371 0.932719171
vt 0.919319808 0.911114872
vt 0.927188456 0.901080728
vt 0.834759593 0.960982144
vt 0.867758453 0.97686559
vt 0.833888173 0.938084066
vt 0.865654945 0.921584547
vt 0.944449961 0.937032223
vt 0.911451221 0.921148956
vt 0.945321202 0.95993042
vt 0.913554549 0.976429939
vt 0.848402262 0.901830256
vt 0.927188456 0.901080728
vt 0.919319808 0.911114872
vt 0.857028604 0.911707401
vt 0.911451221 0.921148956
vt 0.865654945 0.921584547
vt 0.922180951 0.986307085
vt 0.930807114 0.996183991
vt 0.985457718 0.967799127
vt 0.96538955 0.963864803
vt 0.859889865 0.986899614
vt 0.852021098 0.996933818
vt 0.815005183 0.965295315
vt 0.795250833 0.969608665
vt 0.793752015 0.930215418
vt 0.813820004 0.934149742
vt 0.857028604 0.911707401
vt 0.848402262 0.901830256
vt 0.964204371 0.932719171
vt 0.983958662 0.92840606
vt 0.927188456 0.901080728
vt 0.919319808 0.911114872
vt 0.911451221 0.921148956
vt 0.944449961 0.937032223
vt 0.945321202 0.95993042
vt 0.913554549 0.976429939
vt 0.867758453 0.97686559
vt 0.834759593 0.960982144
vt 0.833888173 0.938084066
vt 0.865654945 0.921584547
vt 0.857028604 0.911707401
vt 0.919319808 0.911114872
vt 0.927188456 0.901080728
vt 0.848402262 0.901830256
vt 0.911451221 0.921148956
vt 0.865654945 0.921584547
vt 0.298199773 0.288510859
vt 0.224728882 0.294287384
vt 0.224352717 0.267752528
vt 0.297772765 0.267275691
vt 0.223040998 0.241150305
vt 0.297345996 0.246424243
vt 0.297345996 0.236827657
vt 0.223040998 0.225510761
vt 0.224352717 0.267871201
vt 0.297772765 0.267510712
vt 0.224728882 0.309560061
vt 0.298199773 0.298010647
vt 0.922360599 0.946562886
vt 0.887478054 0.926423609
vt 0.887478054 0.966702521
vt 0.852595448 0.946562886
vt 0.519471645 0.475797325
vt 0.547848105 0.418060809
vt 0.547848105 0.533533812
vt 0.625374377 0.575799942
vt 0.625374377 0.375794679
vt 0.73127681 0.591270387
vt 0.73127681 0.360324204
vt 0.837179542 0.575799942
vt 0.837179542 0.375794679
vt 0.914705634 0.533533812
vt 0.914705634 0.418060809
vt 0.943082213 0.475797325
vt 0.914705634 0.533533812
vt 0.943082213 0.475797325
vt 0.914705634 0.418060809
vt 0.837179303 0.575799942
vt 0.837179303 0.375794679
vt 0.731276929 0.591270387
vt 0.731276929 0.360324204
vt 0.625374377 0.575799942
vt 0.625374377 0.375794679
vt 0.547848105 0.533533812
vt 0.547848105 0.418060809
vt 0.519471645 0.475797325
vt 0.0565984324 0.41887778
vt 0.0565984324 0.482603043
vt 0.0974291489 0.482603043
vt 0.0974291489 0.41887778
vt 0.0565984324 0.372227579
vt 0.0974293128 0.372227579
vt 0.0565984324 0.355152428
vt 0.0974293128 0.355152428
vt 0.0974291489 0.546328306
vt 0.0565984324 0.546328306
vt 0.0974293128 0.592978537
vt 0.0565984324 0.592978537
vt 0.0974293128 0.610053658
vt 0.0565984324 0.610053658
vt 0.0565984324 0.546328306
vt 0.0565984324 0.482603043
vt 0.0974294767 0.482603043
vt 0.0974291489 0.546328306
vt 0.0565984324 0.592978537
vt 0.0974291489 0.592978537
vt 0.0565984324 0.610053658
vt 0.0974293128 0.610053658
vt 0.0974291489 0.41887778
vt 0.0565984324 0.41887778
vt 0.0974291489 0.372227579
vt 0.0565984324 0.372227579
vt 0.0974293128 0.355152428
vt 0.0565984324 0.355152428
vt 0.915213227 0.244128123
vt 0.915213227 0.296080887
vt 0.967165709 0.296080887
vt 0.967165709 0.244128123
vt 0.863260448 0.244128123
vt 0.863260448 0.296080887
vt 0.915213108 0.223151252
vt 0.967165709 0.244128123
vt 0.967165709 0.296080887
vt 0.915213227 0.296080887
vt 0.915213227 0.244128123
vt 0.863260448 0.296080887
vt 0.863260448 0.244128123
vt 0.915213108 0.223151252
vt 0.856497884 0.324281335
vt 0.970283628 0.324281335
vt 0.913390815 0.29964596
vt 0.913390815 0.348916709
vt 0.11592178 0.618580282
vt 0.11592178 0.810744226
vt 0.16020523 0.810744226
vt 0.16020523 0.618580282
vt 0.0143099912 0.832885981
vt 0.115921661 0.832885921
vt 0.11592178 0.810744107
vt 0.01431017 0.810744286
vt 0.16020523 0.810744286
vt 0.160205111 0.618580222
vt 0.115921661 0.618580282
vt 0.115921661 0.810744286
vt 0.01431017 0.618580282
vt 0.01431017 0.810744226
vt 0.11592178 0.810744226
vt 0.11592178 0.618580282
vt 0.0143098719 0.618580282
vt 0.0143099912 0.810744166
vt 0.115921482 0.810744166
vt 0.115921482 0.618580222
vt 0.538088262 0.958622217
vt 0.538088262 0.973947585
vt 0.57635498 0.973947585
vt 0.57635498 0.958622217
vt 0.783847988 0.958622277
vt 0.783847988 0.973947644
vt 0.783848226 0.973947644
vt 0.57635498 0.973947585
vt 0.57635498 0.958622217
vt 0.783848226 0.958622277
vt 0.538088262 0.973947585
vt 0.538088262 0.958622217
vt 0.0598847456 0.527238309
vt 0.0598847456 0.557191014
vt 0.0936053246 0.557191014
vt 0.0936053246 0.527238309
vt 0.0936053246 0.588065386
vt 0.0598847456 0.588065386
vt 0.0936053246 0.603480697
vt 0.0598847456 0.603480697
vt 0.0598847456 0.499061018
vt 0.0936053246 0.499061018
vt 0.0598847456 0.468323171
vt 0.0936053246 0.468323171
vt 0.0598847456 0.436292529
vt 0.0936053246 0.436292529
vt 0.0598847456 0.400877595
vt 0.0936053246 0.400877595
vt 0.0936053246 0.367381424
vt 0.0598847456 0.38520506
vt 0.0598847456 0.367381424
vt 0.0936053246 0.38520506
vt 0.0936053246 0.527238309
vt 0.0936053246 0.557191014
vt 0.0598847456 0.557191014
vt 0.0598847456 0.527238429
vt 0.0936053246 0.499060988
vt 0.0598847456 0.499060988
vt 0.0936053246 0.468323171
vt 0.0598847456 0.468323171
vt 0.0598847456 0.588065386
vt 0.0936053246 0.588065386
vt 0.0598847456 0.603480577
vt 0.0936053246 0.603480577
vt 0.0936053246 0.43629244
vt 0.0598847456 0.436292529
vt 0.0936053246 0.400877476
vt 0.0598847456 0.400877595
vt 0.0598847456 0.385204911
vt 0.0598847456 0.367381424
vt 0.0936053246 0.367381424
vt 0.0936053246 0.385204911
vt 0.639974177 0.738121092
vt 0.686970413 0.737333477
vt 0.733966708 0.738121092
vt 0.599544466 0.742453456
vt 0.7743963 0.742453456
vt 0.838615 0.772337973
vt 0.535325766 0.772337973
vt 0.855337322 0.813335359
vt 0.518603563 0.813335359
vt 0.822169304 0.850036681
vt 0.551771641 0.850036681
vt 0.834745944 0.886502981
vt 0.539194942 0.886502981
vt 0.798721313 0.920758426
vt 0.575219572 0.920758426
vt 0.727517068 0.939209282
vt 0.646423757 0.939209282
vt 0.686970413 0.940784812
vt 0.646423757 0.939209282
vt 0.686970413 0.940784812
vt 0.727517068 0.939209282
vt 0.798721313 0.920758426
vt 0.575219572 0.920758426
vt 0.834745944 0.886502981
vt 0.539194942 0.886502981
vt 0.822169304 0.850036681
vt 0.551771641 0.850036681
vt 0.855337322 0.813335359
vt 0.518603563 0.813335359
vt 0.838615 0.772337973
vt 0.535325766 0.772337973
vt 0.7743963 0.742453456
vt 0.599544466 0.742453456
vt 0.639974177 0.738121092
vt 0.733966708 0.738121092
vt 0.686970413 0.737333477
vt 0.538690031 0.688839138
vt 0.538690269 0.633475184
vt 0.525259554 0.663089931
vt 0.576937497 0.609713376
vt 0.576937199 0.710668206
vt 0.634177983 0.599422693
vt 0.634177804 0.725253999
vt 0.701697826 0.596448481
vt 0.701697826 0.730375707
vt 0.76921767 0.599422693
vt 0.769217908 0.725253999
vt 0.826458156 0.609713376
vt 0.826458454 0.710668206
vt 0.864705324 0.633475184
vt 0.864705622 0.688839138
vt 0.878136158 0.663089931
vt 0.084535189 0.596491218
vt 0.0590719059 0.596491218
vt 0.0590719059 0.606013536
vt 0.084535189 0.606013536
vt 0.084535189 0.569373667
vt 0.0590719059 0.569373667
vt 0.084535189 0.528789878
vt 0.0590719059 0.528789878
vt 0.084535189 0.480917931
vt 0.0590719059 0.480917931
vt 0.084535189 0.425859332
vt 0.0590719059 0.425859332
vt 0.084535189 0.381682277
vt 0.0590719059 0.381682277
vt 0.084535189 0.362550169
vt 0.0590719059 0.362550169
vt 0.084535189 0.357020378
vt 0.0590719059 0.357020378
vt 0.084535189 0.596491218
vt 0.084535189 0.606013536
vt 0.0590719059 0.606013536
vt 0.0590719059 0.596491218
vt 0.084535189 0.569373667
vt 0.0590719059 0.569373667
vt 0.0590719059 0.528789878
vt 0.084535189 0.528789878
vt 0.084535189 0.480917931
vt 0.0590719059 0.480917931
vt 0.084535189 0.425859332
vt 0.0590719059 0.425859332
vt 0.084535189 0.381682277
vt 0.0590719059 0.381682277
vt 0.084535189 0.362550169
vt 0.0590719059 0.362550169
vt 0.084535189 0.357020378
vt 0.0590719059 0.357020378
vt 0.864705324 0.633475184
vt 0.878136158 0.663089931
vt 0.864705622 0.688839138
vt 0.826458156 0.609713376
vt 0.826458454 0.710668206
vt 0.76921767 0.599422693
vt 0.769217908 0.725253999
vt 0.701697826 0.596448481
vt 0.701697826 0.730375707
vt 0.634177804 0.725253999
vt 0.634177983 0.599422693
vt 0.576937497 0.609713376
vt 0.576937199 0.710668206
vt 0.538690031 0.688839138
vt 0.538690269 0.633475184
vt 0.525259554 0.663089931
vt 0.915213227 0.244128123
vt 0.915213227 0.296080887
vt 0.967165709 0.296080887
vt 0.967165709 0.244128123
vt 0.863260448 0.244128123
vt 0.863260448 0.296080887
vt 0.915213108 0.223151252
vt 0.967165709 0.244128123
vt 0.967165709 0.296080887
vt 0.915213227 0.296080887
vt 0.915213227 0.244128123
vt 0.863260448 0.296080887
vt 0.863260448 0.244128123
vt 0.915213108 0.223151252
vt 0.856497884 0.324281335
vt 0.970283628 0.324281335
vt 0.913390815 0.29964596
vt 0.913390815 0.348916709
vt 0.11592178 0.618580282
vt 0.11592178 0.810744226
vt 0.16020523 0.810744226
vt 0.16020523 0.618580282
vt 0.0143099912 0.832885981
vt 0.115921661 0.832885921
vt 0.11592178 0.810744107
vt 0.01431017 0.810744286
vt 0.16020523 0.810744286
vt 0.160205111 0.618580222
vt 0.115921661 0.618580282
vt 0.115921661 0.810744286
vt 0.01431017 0.618580282
vt 0.01431017 0.810744226
vt 0.11592178 0.810744226
vt 0.11592178 0.618580282
vt 0.0143098719 0.618580282
vt 0.0143099912 0.810744166
vt 0.115921482 0.810744166
vt 0.115921482 0.618580222
vt 0.538088262 0.958622217
vt 0.538088262 0.973947585
vt 0.57635498 0.973947585
vt 0.57635498 0.958622217
vt 0.783847988 0.958622277
vt 0.783847988 0.973947644
vt 0.783848226 0.973947644
vt 0.57635498 0.973947585
vt 0.57635498 0.958622217
vt 0.783848226 0.958622277
vt 0.538088262 0.973947585
vt 0.538088262 0.958622217
vn -4.60568981E-06 0.0862831622 -0.996270657
vn -5.68139239E-06 -0.287352055 -0.957825065
vn -5.68139103E-06 -0.287352115 -0.957825005
vn -5.95640722E-06 -0.618730068 -0.785603642
vn -0.999851584 0.0168944821 -0.00337793026
vn 1.29758035E-07 -0.979667902 0.200626031
vn 2.66258326E-06 -0.971873462 0.235503495
vn -0.999660134 0.0253174957 -0.00621514302
vn 3.18499474E-06 0.971818507 -0.235730439
vn 3.54577111E-07 0.979501486 -0.201436847
vn 0.999660134 0.0253176372 -0.00621516956
vn 0.999851584 0.0168945063 -0.00337793515
vn 2.66258326E-06 -0.971873462 0.235503495
vn 1.29758035E-07 -0.979667902 0.200626031
vn -0.999836862 0.0178018231 -0.00306668831
vn -0 0.986612022 -0.163085312
vn 0.999836862 0.0178017933 -0.00306668505
vn -0 -0.986675918 0.162697881
vn -0 -0.986675918 0.162697881
vn 0.732132494 0.0869184583 -0.675593913
vn 0.961813688 0.0349262394 -0.271467566
vn 0.96181339 0.216653273 -0.167261362
vn 0.732132196 0.539177656 -0.416257024
vn 0.732134581 -0.416254491 -0.539176404
vn 0.961813688 -0.167260751 -0.216652229
vn 0.732132912 -0.675593555 -0.0869182423
vn 0.961813629 -0.271467954 -0.0349243209
vn 0.96181345 -0.21665363 0.167260617
vn 0.732132018 -0.539177656 0.416257352
vn 0.704623282 -0.352976859 0.615559399
vn 0.955691218 -0.146433264 0.25536564
vn 0.732132018 0.675594449 0.0869178772
vn 0.961813509 0.271468163 0.034925621
vn 0.955690563 0.255367607 0.146433815
vn 0.704623163 0.615559757 0.35297659
vn 0.732131898 0.675594628 0.0869178995
vn 0.732132494 0.416257113 0.539177299
vn 0.732132912 0.539176822 -0.416256815
vn 0.704624057 0.352975905 -0.615559101
vn 0.732131958 -0.675594687 -0.0869172066
vn 0.704622626 -0.615560234 -0.352976769
vn 0.732132852 -0.539176822 0.416256875
vn 0.732132912 -0.0869176835 0.675593674
vn 0.704624295 0.185672447 0.684857905
vn 0.704624295 0.185672447 0.684857845
vn 0.955691755 0.0770262778 0.284113169
vn 0.955691755 0.0770262778 0.284113079
vn 0.704622567 -0.18567273 -0.684859633
vn 0.704622626 -0.18567273 -0.684859514
vn -0.961813688 0.0349260196 -0.271467566
vn -0.732132494 0.0869183242 -0.675594032
vn -0.732132256 0.539177716 -0.416256875
vn -0.96181345 0.216653183 -0.167261094
vn -0.961813629 -0.167261139 -0.216652587
vn -0.732134342 -0.416254789 -0.539176404
vn -0.961813509 -0.271468282 -0.0349245407
vn -0.732132614 -0.675593793 -0.0869184881
vn -0.732132018 -0.539177656 0.416257352
vn -0.96181345 -0.21665363 0.167260602
vn -0.955691218 -0.146433264 0.25536564
vn -0.704623282 -0.352976859 0.615559399
vn -0.961813569 0.271468043 0.0349255651
vn -0.732132018 0.675594449 0.0869178772
vn -0.704623163 0.615559757 0.35297659
vn -0.955690622 0.255367517 0.146433741
vn -0.70462209 -0.615560651 -0.352977067
vn -0.73213172 -0.675594926 -0.0869173333
vn -0.732132852 -0.539176822 0.416256875
vn -0.732133329 -0.0869178176 0.675593138
vn -0.732132912 0.416256905 0.539176762
vn -0.732131839 0.675594687 0.0869178623
vn -0.732132912 0.539176822 -0.416256815
vn -0.704624057 0.352975905 -0.615559101
vn -0.955692053 0.0770259947 0.284112066
vn -0.955692053 0.0770259947 0.284112066
vn -0.70462507 0.185672283 0.68485707
vn -0.70462507 0.185672283 0.68485707
vn -0.704622149 -0.185672849 -0.684859991
vn -0.70462209 -0.185672835 -0.684860051
vn -0 -0.995113075 -0.0987417251
vn -0 -0.995113075 -0.0987417325
vn 0.895907342 -0.117067926 -0.428538382
vn 0.895926416 -0.118818112 -0.428016514
vn -1.47957309E-07 0.751351655 -0.659902036
vn -1.30834735E-07 0.751351655 -0.659902036
vn -1.30834735E-07 0.751351655 -0.659902036
vn -1.47957309E-07 0.751351655 -0.659902036
vn -0.895907283 -0.11706724 -0.428538769
vn -0.895926356 -0.118817583 -0.428016812
vn -0 -0.995113075 -0.0987417325
vn -0 -0.995113075 -0.0987417251
vn -0 -0.267484456 -0.963562191
vn -0 -0.267484814 -0.963562071
vn -0 -0.267484784 -0.963562071
vn -0 -0.267485261 -0.963561952
vn -1.11599275E-05 -0.125266194 -0.992123187
vn -2.53538786E-07 -0.125266269 -0.992123187
vn -2.53539127E-07 -0.125266269 -0.992123187
vn 1.27714623E-06 -0.125266284 -0.992123187
vn 1.27714657E-06 -0.125266299 -0.992123187
vn 1.18756191E-06 -0.125266299 -0.992123187
vn 1.18756145E-06 -0.125266269 -0.992123187
vn -0 -0.125266284 -0.992123187
vn -0 -0.125266284 -0.992123187
vn -3.79362018E-06 -0.125266284 -0.992123187
vn -3.79362018E-06 -0.125266284 -0.992123187
vn -0 -0.125266314 -0.992123127
vn 4.42678925E-07 0.125266239 0.992123187
vn 1.59427157E-06 0.125266299 0.992123187
vn 4.42678953E-07 0.125266254 0.992123187
vn 3.34621831E-07 0.125266314 0.992123127
vn 3.34621831E-07 0.125266314 0.992123127
vn -0 0.125266314 0.992123127
vn -0 0.125266314 0.992123127
vn -3.34621689E-07 0.125266314 0.992123127
vn -3.34621689E-07 0.125266314 0.992123127
vn -4.63844799E-07 0.125266269 0.992123187
vn -4.63844799E-07 0.125266269 0.992123187
vn -3.18855086E-06 0.125266194 0.992123187
vn -0.883755803 0.464262486 -0.0586175472
vn -1 -1.09480972E-07 0
vn -1 0 0
vn -0.883755624 0.464262813 -0.0586175807
vn -0.53275001 0.839606822 -0.106008619
vn -0.53275013 0.839606762 -0.106008612
vn -6.10136567E-07 0.992123246 -0.125265762
vn -5.70345264E-07 0.992123246 -0.125265762
vn -0.883755505 -0.464263022 0.058618132
vn -0.883755565 -0.464262962 0.058618132
vn -0.532749951 -0.839606822 0.106008992
vn -0.532749593 -0.83960706 0.106009021
vn -4.3770649E-07 -0.992123246 0.125265673
vn -4.77498077E-07 -0.992123246 0.125265688
vn 0.883756101 -0.464261979 0.0586178452
vn 1 -3.04112461E-07 0
vn 1 0 0
vn 0.88375622 -0.464261651 0.0586178042
vn 0.532749832 -0.839606881 0.106009103
vn 0.532749832 -0.839606881 0.106009103
vn -4.77498077E-07 -0.992123246 0.125265688
vn -4.3770649E-07 -0.992123246 0.125265673
vn 0.883756459 0.464261204 -0.0586177371
vn 0.883756459 0.464261264 -0.0586177483
vn 0.532749891 0.839606822 -0.106008969
vn 0.53275001 0.839606762 -0.106008962
vn -5.70345264E-07 0.992123246 -0.125265762
vn -6.10136567E-07 0.992123246 -0.125265762
vn -0.991445482 -0.0724541023 -0.108564734
vn -1 2.11642316E-07 2.11642316E-07
vn -1.08614955E-07 -0.831776977 0.555109918
vn -0 -0.901743114 0.432272375
vn -0 0.745188415 -0.666853964
vn 2.17229882E-07 0.831777334 -0.555109501
vn -1.94947475E-07 -0.555106997 -0.831778944
vn -0 -0.901743114 0.432272375
vn -1.08614955E-07 -0.831776977 0.555109918
vn 1 -2.11642316E-07 3.99768822E-07
vn 0.991445482 -0.0724544153 -0.108564325
vn 2.17229882E-07 0.831777334 -0.555109501
vn -0 0.745188415 -0.666853964
vn -1.94947475E-07 -0.555106997 -0.831778944
vn 1.36489814E-06 0.555110514 0.831776619
vn 1.36489859E-06 0.555110633 0.831776559
vn 5.45959711E-06 0.555110455 0.831776679
vn -2.72979833E-06 0.555110633 0.8317765
vn -0 0.831777215 -0.55510956
vn -0 0.831777215 -0.55510956
vn -0 0.831777215 -0.55510956
vn -0 0.831777215 -0.55510956
vn -0 0.555108786 0.831777692
vn -0 0.555108786 0.831777692
vn -0 0.555108786 0.831777692
vn -0 0.555108786 0.831777692
vn -0 -0.831777215 0.55510956
vn -0 -0.831777215 0.55510956
vn -0 -0.831777215 0.55510956
vn -0 -0.831777215 0.55510956
vn -1 0 0
vn -1 0 0
vn -1 0 0
vn -1 0 0
vn 1 0 0
vn 1 0 0
vn 1 0 0
vn 1 0 0
vn -4.32764239E-07 0.555110037 0.831776917
vn -3.60636903E-07 0.555110037 0.831776917
vn -0.999796748 0.0111911362 0.0167687181
vn -0.999796748 0.0111910943 0.0167686455
vn -0.995724797 -0.0512752272 -0.076830931
vn -0.995724797 -0.0512752235 -0.076830931
vn 0.995724797 -0.0512752496 -0.076830931
vn 0.999796748 0.0111910161 0.0167685375
vn 0.999796748 0.0111909732 0.016768463
vn 0.995724797 -0.0512752533 -0.076830931
vn -3.60636903E-07 0.555110037 0.831776917
vn -4.32764239E-07 0.555110037 0.831776917
vn -0 0.916337192 -0.400407434
vn -0 0.978970349 0.204002529
vn -0 0.978970349 0.204002529
vn -0 0.916337192 -0.400407434
vn -0 0.803196967 0.595713556
vn -0 0.803196967 0.595713556
vn -0 0.55510962 0.831777155
vn -0 0.55510962 0.831777155
vn -0 0.90101254 -0.433793038
vn -0 0.90101254 -0.433793038
vn -0 0.887713194 -0.460396826
vn -0 0.887713194 -0.460396826
vn -0 0.457068622 -0.889431417
vn -0 0.457068622 -0.889431417
vn -0 -0.141701505 -0.98990941
vn -0 -0.141701505 -0.98990941
vn -0 -0.55510956 -0.831777215
vn -0 -0.454578161 -0.890706837
vn -0 -0.55510956 -0.831777215
vn -0 -0.454578161 -0.890706837
vn -0 -0.721363127 0.692557037
vn -0 -0.187251225 0.982312024
vn -0 -0.187251225 0.982312024
vn -0 -0.721363127 0.692557037
vn -0 -0.746313095 0.665595114
vn -0 -0.746313095 0.665595114
vn -0 -0.765776932 0.643106282
vn -0 -0.765776932 0.643106282
vn -0 0.241922706 0.970295548
vn -0 0.241922706 0.970295548
vn -0 0.55510962 0.831777155
vn -0 0.55510962 0.831777155
vn -0 -0.996730208 0.0808014423
vn -0 -0.996730208 0.0808014423
vn -0 -0.859764695 -0.510690331
vn -0 -0.859764695 -0.510690331
vn -0 -0.648103297 -0.761552453
vn -0 -0.55510956 -0.831777215
vn -0 -0.55510956 -0.831777215
vn -0 -0.648103297 -0.761552453
vn 1 0 0
vn 1 0 0
vn 1 0 0
vn 1 0 0
vn 1 0 0
vn 1 0 0
vn 1 0 0
vn 1 0 0
vn 1 0 0
vn 1 0 0
vn 1 0 0
vn 1 0 0
vn 1 0 0
vn 1 0 0
vn 1 0 0
vn 1 0 0
vn 1 0 0
vn 1 -1.00749268E-07 0
vn -1 0 0
vn -1 1.00749268E-07 0
vn -1 0 0
vn -1 0 0
vn -1 0 0
vn -1 0 0
vn -1 0 0
vn -1 0 0
vn -1 0 0
vn -1 0 0
vn -1 0 0
vn -1 0 0
vn -1 0 0
vn -1 0 0
vn -1 0 0
vn -1 0 0
vn -1 0 0
vn -1 0 0
vn -1 0 0
vn -1 0 0
vn -1 2.51186322E-07 0
vn -1 0 0
vn -1 0 0
vn -1 0 0
vn -1 0 0
vn -1 0 0
vn -1 0 0
vn -1 0 0
vn -1 0 0
vn -1 0 0
vn -1 0 0
vn -1 0 0
vn -1 0 0
vn -1 0 0
vn -0 0.202023923 0.979380548
vn -0 0.202023923 0.979380548
vn -0 -0.102399752 0.994743288
vn -0 -0.102399752 0.994743288
vn -0 0.52184093 0.853042841
vn -0 0.52184093 0.853042841
vn -0 0.825281978 0.564720929
vn -0 0.825281978 0.564720929
vn -0 0.994743407 0.102398746
vn -0 0.994743407 0.102398746
vn -0 0.939968705 -0.341260523
vn -0 0.939968705 -0.341260523
vn -0 0.660986543 -0.750397742
vn -0 0.660986543 -0.750397742
vn -0 0.307064325 -0.951688766
vn -0 0.307064325 -0.951688766
vn -0 0.102400161 -0.994743288
vn -0 0.102400161 -0.994743288
vn -0 -0.397310078 0.917684436
vn -0 -0.102399752 0.994743288
vn -0 -0.102399752 0.994743288
vn -0 -0.397310078 0.917684436
vn -0 -0.684682012 0.72884196
vn -0 -0.684682012 0.72884196
vn -0 -0.923021615 0.384748071
vn -0 -0.923021615 0.384748071
vn -0 -0.994743168 -0.102400921
vn -0 -0.994743168 -0.102400921
vn -0 -0.850733936 -0.525596499
vn -0 -0.850733936 -0.525596499
vn -0 -0.494251102 -0.869319201
vn -0 -0.494251102 -0.869319201
vn -0 -0.106743276 -0.994286656
vn -0 -0.106743276 -0.994286656
vn -0 0.102400161 -0.994743288
vn -0 0.102400161 -0.994743288
vn 1 0 0
vn 1 0 0
vn 1 0 0
vn 1 0 0
vn 1 0 0
vn 1 0 0
vn 1 0 0
vn 1 0 0
vn 1 0 0
vn 1 0 0
vn 1 0 0
vn 1 0 0
vn 1 0 0
vn 1 0 0
vn 1 0 0
vn 1 0 0
vn -0.991358578 0.0134327812 -0.130490243
vn -1 8.46570742E-07 0
vn 2.17229768E-07 -0.994743347 -0.102399677
vn 1.62984151E-07 -0.970460892 -0.241258562
vn -0 0.999258876 -0.0384936221
vn -0 0.994743347 0.102399588
vn 2.317515E-07 0.102400847 -0.994743168
vn 1.62984151E-07 -0.970460892 -0.241258562
vn 2.17229768E-07 -0.994743347 -0.102399677
vn 1 0 0
vn 0.991358578 0.0134323342 -0.130490154
vn -0 0.994743347 0.102399588
vn -0 0.999258876 -0.0384936221
vn 2.317515E-07 0.102400847 -0.994743168
vn -0 -0.102400564 0.994743228
vn -0 -0.102400564 0.994743228
vn -0 -0.102400586 0.994743228
vn -0 -0.102400541 0.994743228
vn -0 0.994743288 0.102400236
vn -0 0.994743288 0.102400236
vn -0 0.994743288 0.102400236
vn -0 0.994743288 0.102400236
vn -0 -0.102399051 0.994743407
vn -0 -0.102399051 0.994743407
vn -0 -0.102399051 0.994743407
vn -0 -0.102399051 0.994743407
vn -0 -0.994743288 -0.102400236
vn -0 -0.994743288 -0.102400236
vn -0 -0.994743288 -0.102400236
vn -0 -0.994743288 -0.102400236
vn -1 0 0
vn -1 0 0
vn -1 0 0
vn -1 0 0
vn 1 0 0
vn 1 0 0
vn 1 0 0
vn 1 0 0
vn -0 -0.102400318 0.994743228
vn -0 -0.102400318 0.994743228
vn -0.999796748 -0.00206435961 0.0200538952
vn -0.999796748 -0.00206436682 0.0200539678
vn -0.995724797 0.00945871789 -0.0918842033
vn -0.995724797 0.00945871789 -0.0918842182
vn 0.995724797 0.0094587151 -0.0918841213
vn 0.999796748 -0.00206436077 0.0200539771
vn 0.999796748 -0.00206436822 0.0200540666
vn 0.995724797 0.0094587151 -0.0918841287
vn -0 -0.102400318 0.994743228
vn -0 -0.102400318 0.994743228
g wp_013_003_002_Mesh_b_0
f 3/3/3 2/2/2 1/1/1
f 4/4/4 2/2/2 3/3/3
f 7/7/7 6/6/6 5/5/5
f 8/8/8 7/7/7 5/5/5
f 8/8/8 5/5/5 9/9/9
f 5/5/5 10/10/10 9/9/9
f 9/9/9 10/10/10 11/11/11
f 10/10/10 12/12/12 11/11/11
f 11/11/11 12/12/12 13/13/13
f 12/12/12 14/14/14 13/13/13
f 5/5/5 15/15/15 10/10/10
f 5/5/5 6/6/6 15/15/15
f 15/15/15 16/16/16 10/10/10
f 10/10/10 16/16/16 12/12/12
f 16/16/16 17/17/17 12/12/12
f 12/12/12 17/17/17 18/18/18
f 14/14/14 12/12/12 18/18/18
f 6/6/6 19/19/19 15/15/15
f 22/22/22 21/21/21 20/20/20
f 23/23/23 22/22/22 20/20/20
f 20/20/20 21/21/21 24/24/24
f 21/21/21 25/25/25 24/24/24
f 24/24/24 25/25/25 26/26/26
f 25/25/25 27/27/27 26/26/26
f 27/27/27 28/28/28 26/26/26
f 28/28/28 29/29/29 26/26/26
f 29/29/29 28/28/28 30/30/30
f 28/28/28 31/31/31 30/30/30
f 22/22/22 23/23/23 32/32/32
f 33/33/33 22/22/22 32/32/32
f 34/34/34 33/33/33 32/32/32
f 35/35/35 34/34/34 32/32/32
f 27/27/27 25/25/25 36/36/36
f 25/25/25 37/37/37 36/36/36
f 38/38/38 28/28/28 27/27/27
f 36/36/36 38/38/38 27/27/27
f 28/28/28 38/38/38 39/39/39
f 31/31/31 28/28/28 39/39/39
f 33/33/33 34/34/34 40/40/40
f 34/34/34 41/41/41 40/40/40
f 40/40/40 42/42/42 33/33/33
f 42/42/42 22/22/22 33/33/33
f 22/22/22 42/42/42 43/43/43
f 21/21/21 22/22/22 43/43/43
f 21/21/21 43/43/43 37/37/37
f 25/25/25 21/21/21 37/37/37
f 46/46/46 45/45/45 44/44/44
f 47/47/47 46/46/46 44/44/44
f 48/48/48 46/46/46 47/47/47
f 49/49/49 48/48/48 47/47/47
f 52/52/52 51/51/51 50/50/50
f 53/53/53 52/52/52 50/50/50
f 50/50/50 51/51/51 54/54/54
f 51/51/51 55/55/55 54/54/54
f 54/54/54 55/55/55 56/56/56
f 55/55/55 57/57/57 56/56/56
f 57/57/57 58/58/58 56/56/56
f 58/58/58 59/59/59 56/56/56
f 59/59/59 58/58/58 60/60/60
f 58/58/58 61/61/61 60/60/60
f 52/52/52 53/53/53 62/62/62
f 63/63/63 52/52/52 62/62/62
f 64/64/64 63/63/63 62/62/62
f 65/65/65 64/64/64 62/62/62
f 66/66/66 65/65/65 62/62/62
f 67/67/67 66/66/66 62/62/62
f 62/62/62 53/53/53 68/68/68
f 67/67/67 62/62/62 68/68/68
f 68/68/68 53/53/53 50/50/50
f 69/69/69 68/68/68 50/50/50
f 69/69/69 50/50/50 54/54/54
f 70/70/70 69/69/69 54/54/54
f 70/70/70 54/54/54 56/56/56
f 71/71/71 70/70/70 56/56/56
f 71/71/71 56/56/56 72/72/72
f 56/56/56 59/59/59 72/72/72
f 72/72/72 59/59/59 60/60/60
f 73/73/73 72/72/72 60/60/60
f 76/76/76 75/75/75 74/74/74
f 77/77/77 76/76/76 74/74/74
f 74/74/74 75/75/75 78/78/78
f 79/79/79 74/74/74 78/78/78
f 82/82/82 81/81/81 80/80/80
f 83/83/83 82/82/82 80/80/80
f 84/84/84 82/82/82 83/83/83
f 85/85/85 84/84/84 83/83/83
f 88/88/88 87/87/87 86/86/86
f 89/89/89 88/88/88 86/86/86
f 90/90/90 88/88/88 89/89/89
f 91/91/91 90/90/90 89/89/89
f 94/94/94 93/93/93 92/92/92
f 93/93/93 94/94/94 95/95/95
f 98/98/98 97/97/97 96/96/96
f 98/98/98 99/99/99 97/97/97
f 99/99/99 100/100/100 97/97/97
f 99/99/99 101/101/101 100/100/100
f 101/101/101 102/102/102 100/100/100
f 101/101/101 103/103/103 102/102/102
f 103/103/103 104/104/104 102/102/102
f 103/103/103 105/105/105 104/104/104
f 105/105/105 106/106/106 104/104/104
f 105/105/105 107/107/107 106/106/106
f 110/110/110 109/109/109 108/108/108
f 110/110/110 108/108/108 111/111/111
f 112/112/112 110/110/110 111/111/111
f 112/112/112 111/111/111 113/113/113
f 114/114/114 112/112/112 113/113/113
f 114/114/114 113/113/113 115/115/115
f 116/116/116 114/114/114 115/115/115
f 116/116/116 115/115/115 117/117/117
f 118/118/118 116/116/116 117/117/117
f 119/119/119 118/118/118 117/117/117
f 122/122/122 121/121/121 120/120/120
f 123/123/123 122/122/122 120/120/120
f 123/123/123 120/120/120 124/124/124
f 125/125/125 123/123/123 124/124/124
f 125/125/125 124/124/124 126/126/126
f 127/127/127 125/125/125 126/126/126
f 122/122/122 128/128/128 121/121/121
f 128/128/128 129/129/129 121/121/121
f 128/128/128 130/130/130 129/129/129
f 130/130/130 131/131/131 129/129/129
f 130/130/130 132/132/132 131/131/131
f 132/132/132 133/133/133 131/131/131
f 136/136/136 135/135/135 134/134/134
f 137/137/137 136/136/136 134/134/134
f 137/137/137 134/134/134 138/138/138
f 139/139/139 137/137/137 138/138/138
f 139/139/139 138/138/138 140/140/140
f 141/141/141 139/139/139 140/140/140
f 136/136/136 142/142/142 135/135/135
f 142/142/142 143/143/143 135/135/135
f 142/142/142 144/144/144 143/143/143
f 144/144/144 145/145/145 143/143/143
f 144/144/144 146/146/146 145/145/145
f 146/146/146 147/147/147 145/145/145
f 150/150/150 149/149/149 148/148/148
f 151/151/151 150/150/150 148/148/148
f 148/148/148 149/149/149 152/152/152
f 149/149/149 153/153/153 152/152/152
f 148/148/148 154/154/154 151/151/151
f 148/148/148 152/152/152 154/154/154
f 157/157/157 156/156/156 155/155/155
f 158/158/158 157/157/157 155/155/155
f 159/159/159 157/157/157 158/158/158
f 160/160/160 159/159/159 158/158/158
f 155/155/155 161/161/161 158/158/158
f 158/158/158 161/161/161 160/160/160
f 164/164/164 163/163/163 162/162/162
f 163/163/163 165/165/165 162/162/162
f 168/168/168 167/167/167 166/166/166
f 169/169/169 168/168/168 166/166/166
f 172/172/172 171/171/171 170/170/170
f 173/173/173 172/172/172 170/170/170
f 176/176/176 175/175/175 174/174/174
f 177/177/177 176/176/176 174/174/174
f 180/180/180 179/179/179 178/178/178
f 181/181/181 180/180/180 178/178/178
f 184/184/184 183/183/183 182/182/182
f 185/185/185 184/184/184 182/182/182
f 188/188/188 187/187/187 186/186/186
f 189/189/189 188/188/188 186/186/186
f 188/188/188 189/189/189 190/190/190
f 191/191/191 188/188/188 190/190/190
f 194/194/194 193/193/193 192/192/192
f 195/195/195 194/194/194 192/192/192
f 196/196/196 193/193/193 194/194/194
f 197/197/197 196/196/196 194/194/194
f 200/200/200 199/199/199 198/198/198
f 201/201/201 200/200/200 198/198/198
f 199/199/199 200/200/200 202/202/202
f 203/203/203 199/199/199 202/202/202
f 202/202/202 204/204/204 203/203/203
f 204/204/204 205/205/205 203/203/203
f 201/201/201 198/198/198 206/206/206
f 207/207/207 201/201/201 206/206/206
f 207/207/207 206/206/206 208/208/208
f 209/209/209 207/207/207 208/208/208
f 209/209/209 208/208/208 210/210/210
f 211/211/211 209/209/209 210/210/210
f 211/211/211 210/210/210 212/212/212
f 213/213/213 211/211/211 212/212/212
f 214/214/214 213/213/213 212/212/212
f 214/214/214 212/212/212 215/215/215
f 215/215/215 216/216/216 214/214/214
f 214/214/214 217/217/217 213/213/213
f 220/220/220 219/219/219 218/218/218
f 221/221/221 220/220/220 218/218/218
f 221/221/221 218/218/218 222/222/222
f 223/223/223 221/221/221 222/222/222
f 223/223/223 222/222/222 224/224/224
f 225/225/225 223/223/223 224/224/224
f 220/220/220 226/226/226 219/219/219
f 226/226/226 227/227/227 219/219/219
f 227/227/227 226/226/226 228/228/228
f 229/229/229 227/227/227 228/228/228
f 225/225/225 224/224/224 230/230/230
f 231/231/231 225/225/225 230/230/230
f 231/231/231 230/230/230 232/232/232
f 233/233/233 231/231/231 232/232/232
f 234/234/234 233/233/233 232/232/232
f 232/232/232 235/235/235 234/234/234
f 232/232/232 236/236/236 235/235/235
f 232/232/232 237/237/237 236/236/236
f 240/240/240 239/239/239 238/238/238
f 240/240/240 238/238/238 241/241/241
f 242/242/242 240/240/240 241/241/241
f 242/242/242 241/241/241 243/243/243
f 241/241/241 244/244/244 243/243/243
f 243/243/243 244/244/244 245/245/245
f 244/244/244 246/246/246 245/245/245
f 245/245/245 246/246/246 247/247/247
f 246/246/246 248/248/248 247/247/247
f 247/247/247 248/248/248 249/249/249
f 248/248/248 250/250/250 249/249/249
f 249/249/249 250/250/250 251/251/251
f 250/250/250 252/252/252 251/251/251
f 251/251/251 252/252/252 253/253/253
f 252/252/252 254/254/254 253/253/253
f 254/254/254 255/255/255 253/253/253
f 258/258/258 257/257/257 256/256/256
f 258/258/258 256/256/256 259/259/259
f 256/256/256 260/260/260 259/259/259
f 259/259/259 260/260/260 261/261/261
f 260/260/260 262/262/262 261/261/261
f 261/261/261 262/262/262 263/263/263
f 262/262/262 264/264/264 263/263/263
f 263/263/263 264/264/264 265/265/265
f 264/264/264 266/266/266 265/265/265
f 265/265/265 266/266/266 267/267/267
f 266/266/266 268/268/268 267/267/267
f 267/267/267 268/268/268 269/269/269
f 268/268/268 270/270/270 269/269/269
f 270/270/270 271/271/271 269/269/269
f 271/271/271 272/272/272 269/269/269
f 271/271/271 273/273/273 272/272/272
f 276/276/276 275/275/275 274/274/274
f 275/275/275 277/277/277 274/274/274
f 277/277/277 278/278/278 274/274/274
f 277/277/277 279/279/279 278/278/278
f 279/279/279 280/280/280 278/278/278
f 279/279/279 281/281/281 280/280/280
f 281/281/281 282/282/282 280/280/280
f 281/281/281 283/283/283 282/282/282
f 283/283/283 284/284/284 282/282/282
f 283/283/283 285/285/285 284/284/284
f 285/285/285 286/286/286 284/284/284
f 285/285/285 287/287/287 286/286/286
f 287/287/287 288/288/288 286/286/286
f 287/287/287 289/289/289 288/288/288
f 292/292/292 291/291/291 290/290/290
f 293/293/293 292/292/292 290/290/290
f 290/290/290 291/291/291 294/294/294
f 291/291/291 295/295/295 294/294/294
f 296/296/296 294/294/294 295/295/295
f 297/297/297 296/296/296 295/295/295
f 296/296/296 297/297/297 298/298/298
f 297/297/297 299/299/299 298/298/298
f 298/298/298 299/299/299 300/300/300
f 299/299/299 301/301/301 300/300/300
f 300/300/300 301/301/301 302/302/302
f 301/301/301 303/303/303 302/302/302
f 302/302/302 303/303/303 304/304/304
f 303/303/303 305/305/305 304/304/304
f 304/304/304 305/305/305 306/306/306
f 305/305/305 307/307/307 306/306/306
f 310/310/310 309/309/309 308/308/308
f 311/311/311 310/310/310 308/308/308
f 311/311/311 308/308/308 312/312/312
f 313/313/313 311/311/311 312/312/312
f 313/313/313 312/312/312 314/314/314
f 312/312/312 315/315/315 314/314/314
f 314/314/314 315/315/315 316/316/316
f 317/317/317 314/314/314 316/316/316
f 317/317/317 316/316/316 318/318/318
f 319/319/319 317/317/317 318/318/318
f 319/319/319 318/318/318 320/320/320
f 321/321/321 319/319/319 320/320/320
f 321/321/321 320/320/320 322/322/322
f 323/323/323 321/321/321 322/322/322
f 323/323/323 322/322/322 324/324/324
f 325/325/325 323/323/323 324/324/324
f 328/328/328 327/327/327 326/326/326
f 328/328/328 326/326/326 329/329/329
f 330/330/330 328/328/328 329/329/329
f 330/330/330 329/329/329 331/331/331
f 332/332/332 330/330/330 331/331/331
f 331/331/331 333/333/333 332/332/332
f 333/333/333 334/334/334 332/332/332
f 334/334/334 333/333/333 335/335/335
f 333/333/333 336/336/336 335/335/335
f 336/336/336 337/337/337 335/335/335
f 337/337/337 338/338/338 335/335/335
f 338/338/338 337/337/337 339/339/339
f 337/337/337 340/340/340 339/339/339
f 339/339/339 340/340/340 341/341/341
f 344/344/344 343/343/343 342/342/342
f 345/345/345 344/344/344 342/342/342
f 342/342/342 343/343/343 346/346/346
f 343/343/343 347/347/347 346/346/346
f 342/342/342 348/348/348 345/345/345
f 342/342/342 346/346/346 348/348/348
f 351/351/351 350/350/350 349/349/349
f 352/352/352 351/351/351 349/349/349
f 353/353/353 351/351/351 352/352/352
f 354/354/354 353/353/353 352/352/352
f 349/349/349 355/355/355 352/352/352
f 352/352/352 355/355/355 354/354/354
f 358/358/358 357/357/357 356/356/356
f 357/357/357 359/359/359 356/356/356
f 362/362/362 361/361/361 360/360/360
f 363/363/363 362/362/362 360/360/360
f 366/366/366 365/365/365 364/364/364
f 367/367/367 366/366/366 364/364/364
f 370/370/370 369/369/369 368/368/368
f 371/371/371 370/370/370 368/368/368
f 374/374/374 373/373/373 372/372/372
f 375/375/375 374/374/374 372/372/372
f 378/378/378 377/377/377 376/376/376
f 379/379/379 378/378/378 376/376/376
f 382/382/382 381/381/381 380/380/380
f 383/383/383 382/382/382 380/380/380
f 382/382/382 383/383/383 384/384/384
f 385/385/385 382/382/382 384/384/384
f 388/388/388 387/387/387 386/386/386
f 389/389/389 388/388/388 386/386/386
f 390/390/390 387/387/387 388/388/388
f 391/391/391 390/390/390 388/388/388
