g barrier_daruma
v 8.6792841 -12.1484823 -8.6683197
v 8.6792841 12.1484814 -8.6683197
v -8.67132282 12.1484814 -8.66832542
v -8.67132282 -12.1484823 -8.66832542
v -8.67132282 -12.1484823 -8.66832542
v -8.67132282 12.1484814 -8.66832542
v -8.6792841 12.1484814 8.66832542
v -8.6792841 -12.1484823 8.66832542
v 8.67826271 -12.1484823 8.66832542
v 8.67826271 12.1484814 8.66832542
v 8.6792841 12.1484814 -8.6683197
v 8.6792841 -12.1484823 -8.6683197
vt 1.02527845 1.43575156
vt 1.02527845 1.3001717E-07
vt -1.3001717E-07 1.3001717E-07
vt -1.3001717E-07 1.43575156
vt 0 0
vt 0 1.43575132
vt 1.02445388 1.43575132
vt 1.02445388 0
vt 0 0
vt 0 1.43575096
vt 1.0244534 1.43575096
vt 1.0244534 0
vn -0 0 -1
vn -0 0 -1
vn -0 0 -1
vn -0 0 -1
vn -1 0 0
vn -1 0 0
vn -1 0 0
vn -1 0 0
vn 1 0 0
vn 1 0 0
vn 1 0 0
vn 1 0 0
g barrier_daruma_0
f 3/3/3 2/2/2 1/1/1
f 4/4/4 3/3/3 1/1/1
f 7/7/7 6/6/6 5/5/5
f 8/8/8 7/7/7 5/5/5
f 11/11/11 10/10/10 9/9/9
f 12/12/12 11/11/11 9/9/9
