g md_00011_tr
v 5.56766844 37.7745934 -44.3745689
v 13.1740475 38.6219826 -41.5671921
v 14.026844 33.6154289 -43.8544121
v 6.42045403 32.7680359 -46.0066147
v 5.68717051 31.0984192 -51.0653801
v 16.3803635 30.5498962 -52.2419434
v 16.491621 37.6155777 -53.3431396
v 5.79847383 38.1641045 -52.1665573
v 16.4450722 34.1452332 -100.654785
v 1.91113961 32.6580276 -101.701073
v 0.579725325 41.9035187 -98.8992157
v 15.113657 43.390728 -97.8529434
v 21.4439087 29.0821552 -94.1058121
v 18.5261822 29.7181664 -98.2016907
v 21.5616112 38.0586052 -91.372345
v 9.94151974 39.6714897 -99.7789078
v 10.616684 30.6950436 -101.44326
v 16.7029114 41.610733 -54.042923
v 9.92244339 41.806839 -48.8629761
v 10.5574522 36.2725983 -47.9957199
v 17.337925 36.0764923 -53.175663
v 10.8353577 41.3672943 -50.3834953
v 14.8977976 41.3672943 -43.7064743
v 14.8977976 36.2024193 -43.7064743
v 10.8353577 36.2024193 -50.3834953
v 24.7996044 37.2167969 -56.1631088
v 18.1211662 37.4224968 -53.0401344
v 18.2853851 32.5573082 -52.7804298
v 24.9638138 32.3516083 -55.9034081
v 7.27782822 39.2743797 -49.8058777
v 12.2904253 39.0904465 -43.2970734
v 12.4093027 33.6273537 -43.4482079
v 7.39670563 33.8112831 -49.9570122
v 5.38502979 38.5445518 -98.6236191
v 16.058836 38.9373398 -95.7068405
v 16.7496891 32.0611954 -97.8229752
v 6.07589293 31.6684074 -100.739777
v 11.9384804 31.0674171 -50.9643822
v 17.2018948 30.8557568 -52.2130165
v 11.9819536 38.1076927 -51.2228737
v 21.8475208 37.7109642 -55.2706337
v 21.80406 30.6706886 -55.0121422
v 21.3962517 38.187149 -41.7464256
v 17.5509949 32.2509308 -45.2909203
v 11.4748421 32.1702347 -44.3266258
v 11.7993259 38.0536232 -41.2366333
v 21.5365295 32.3038673 -44.19907
v -3.37300444 42.1439018 -101.232704
v -5.06080818 33.9979324 -104.514282
v -18.2872314 35.520195 -100.877296
v -16.5994835 43.666172 -97.5957108
v 41.4252281 38.1744881 -16.5459023
v 43.6314774 30.7370892 -18.4674664
v 36.7552299 31.1890163 -28.3065834
v 34.549942 38.6267586 -26.3853226
v 54.0200005 40.8602028 -15.2774353
v 53.7877579 31.7289104 -15.5652361
v 40.0718002 32.0786972 -17.4297314
v 40.303299 41.2099838 -17.1413422
v 51.8415413 40.1477089 -24.4123306
v 51.5207443 31.9223499 -24.2974186
v 45.7703056 32.2374344 -13.3236542
v 46.0907364 40.4627914 -13.438633
v 46.9740334 38.3896713 -14.2849684
v 48.9280167 31.7457199 -15.5862522
v 40.7176704 30.6159573 -22.3925858
v 38.7629967 37.2596931 -21.0912323
v 37.9920921 40.3004761 -20.1186562
v 38.2440414 33.2602005 -20.1933956
v 41.1516838 33.656929 -30.6850624
v 40.8997116 40.6972084 -30.60993
v 37.6572113 34.7640419 -27.1769791
v 37.6385574 42.5384712 -27.0694675
v 42.8186455 42.1808243 -16.4727306
v 42.8363419 34.406395 -16.5805473
v 32.7646446 40.3825607 -70.664917
v 34.7511024 31.2818222 -72.1000366
v 27.6062298 31.6398525 -84.5118866
v 25.6200294 40.7407074 -83.0770569
v 79.8096924 42.7294121 -33.3479004
v 79.6600113 32.1627121 -33.7556114
v 65.4545364 32.5674858 -40.9214211
v 65.6042786 43.1341896 -40.5141525
v 28.8949852 37.3754005 -65.1755829
v 36.6940804 30.204155 -70.4712296
v 31.4736614 39.0280533 -75.3460846
v 36.0770798 30.9259338 -74.9138031
v 33.4988327 29.2735252 -64.7432098
v 74.8973312 33.0409508 -46.2960205
v 74.8973312 50.4648247 -46.2960205
v 84.7263184 51.7809067 -20.0227242
v 84.7263184 31.1105003 -20.0227242
v 85 47.2704124 2.85833504E-13
v 85 30.3321381 2.85833504E-13
v 48.6988182 33.5265465 -71.64814
v 48.6988182 47.7371674 -71.64814
v 74.8973312 50.4648247 -46.2960205
v 74.8973312 33.0409508 -46.2960205
v 33.498455 33.5265465 -90.6735001
v 33.498455 50.4648247 -90.6735001
v 17.5481834 28.297802 -103.915718
v 17.5481834 42.2527275 -103.915718
v 33.498455 50.4648247 -90.6735001
v 33.498455 33.5265465 -90.6735001
v -0.450944811 42.9870529 -103.870056
v -0.450944811 32.9261742 -103.870056
v -20.3712692 34.1137848 -103.739937
v -20.3712692 47.5951271 -103.739937
v 22.5346584 42.8667908 40.78162
v 12.3186188 40.9346657 41.5990219
v 13.6167564 34.2958908 43.3069611
v 23.8328075 36.2280235 42.489563
v 8.3575573 41.1275558 46.231308
v 16.1406994 41.1203461 53.2614555
v 16.7365704 34.2257309 52.4678116
v 8.95342541 34.232933 45.4376717
v 11.890152 44.3910637 45.373745
v 20.9818401 44.3910637 50.7226143
v 20.9818401 37.4091797 50.7226143
v 11.890152 37.4091797 45.373745
v 11.6644049 42.7893257 51.3990822
v 23.4121342 42.5978508 52.2337112
v 23.4121342 34.9820175 50.818531
v 11.6644049 35.1734848 49.9839058
v 16.7163849 41.852562 40.8155212
v 10.1260214 41.852562 50.4819031
v 10.1260214 34.0760918 50.4819031
v 16.7163849 34.0760918 40.8155212
v 14.1550188 37.7211227 47.0862045
v 27.2386227 34.7736359 44.6574745
v 26.0192661 45.1743317 44.603466
v 14.261466 45.6194115 46.8120804
v 23.9630909 34.7433205 40.2190208
v 18.4465332 35.4524841 53.7392807
v 19.9244804 45.0425186 53.8836823
v 25.44104 44.3333588 40.3634186
v 25.9411106 41.4278564 36.935463
v 19.1328678 41.5400581 41.3839836
v 20.2764587 36.7186546 43.2753181
v 27.0846996 36.6064644 38.8268089
v 81.908844 43.8811874 43.3216743
v 73.764328 44.1308212 43.7683182
v 73.7044296 38.7464485 43.8501053
v 81.8489685 38.4968224 43.4034615
v 71.5642242 43.2063828 46.5948029
v 75.9087982 43.2351685 53.4318924
v 75.9443665 37.849144 53.4361801
v 71.5998154 37.8203583 46.599102
v 70.5524902 40.979126 46.1389389
v 81.0330429 40.5823936 44.1702538
v 81.1279068 47.622673 43.9258957
v 70.6473694 48.0194092 45.8945885
v 70.495018 38.3330612 50.7980003
v 75.1251297 38.0633545 41.282032
v 75.0423584 45.1041298 41.0098038
v 70.4122467 45.3738365 50.5257721
v 78.7108688 25.3334808 51.9693413
v 78.7108688 53.9155884 51.9693413
v 51.9847221 39.4849243 72.2416306
v 51.9847221 19.7175713 72.2416306
v 87.8838654 36.3790359 27.3218937
v 84.5997238 55.1067848 27.3218937
v 78.7108688 53.9155884 51.9693413
v 78.7108688 25.3334808 51.9693413
v 85 30.3321381 2.85833504E-13
v 85 47.2704124 2.85833504E-13
v 84.5997238 55.1067848 27.3218937
v 87.8838654 36.3790359 27.3218937
v -5.56766844 37.7745934 44.3745689
v -13.1740475 38.6219826 41.5671921
v -14.026844 33.6154289 43.8544121
v -6.42045403 32.7680359 46.0066147
v -5.68717051 31.0984192 51.0653801
v -16.3803635 30.5498962 52.2419434
v -16.491621 37.6155777 53.3431396
v -5.79847383 38.1641045 52.1665573
v -16.4450722 34.1452332 100.654785
v -1.91113961 32.6580276 101.701073
v -0.579725325 41.9035187 98.8992157
v -15.113657 43.390728 97.8529434
v -21.4439087 29.0821552 94.1058121
v -18.5261822 29.7181664 98.2016907
v -21.5616112 38.0586052 91.372345
v -9.94151974 39.6714897 99.7789078
v -10.616684 30.6950436 101.44326
v -16.7029114 41.610733 54.042923
v -9.92244339 41.806839 48.8629761
v -10.5574522 36.2725983 47.9957199
v -17.337925 36.0764923 53.175663
v -10.8353577 41.3672943 50.3834953
v -14.8977976 41.3672943 43.7064743
v -14.8977976 36.2024193 43.7064743
v -10.8353577 36.2024193 50.3834953
v -24.7996044 37.2167969 56.1631088
v -18.1211662 37.4224968 53.0401344
v -18.2853851 32.5573082 52.7804298
v -24.9638138 32.3516083 55.9034081
v -7.27782822 39.2743797 49.8058777
v -12.2904253 39.0904465 43.2970734
v -12.4093027 33.6273537 43.4482079
v -7.39670563 33.8112831 49.9570122
v -5.38502979 38.5445518 98.6236191
v -16.058836 38.9373398 95.7068405
v -16.7496891 32.0611954 97.8229752
v -6.07589293 31.6684074 100.739777
v -11.9384804 31.0674171 50.9643822
v -17.2018948 30.8557568 52.2130165
v -11.9819536 38.1076927 51.2228737
v -21.8475208 37.7109642 55.2706337
v -21.80406 30.6706886 55.0121422
v -21.3962517 38.187149 41.7464256
v -17.5509949 32.2509308 45.2909203
v -11.4748421 32.1702347 44.3266258
v -11.7993259 38.0536232 41.2366333
v -21.5365295 32.3038673 44.19907
v 3.37300444 42.1439018 101.232704
v 5.06080818 33.9979324 104.514282
v 18.2872314 35.520195 100.877296
v 16.5994835 43.666172 97.5957108
v -41.4252281 38.1744881 16.5459023
v -43.6314774 30.7370892 18.4674664
v -36.7552299 31.1890163 28.3065834
v -34.549942 38.6267586 26.3853226
v -54.0200005 40.8602028 15.2774353
v -53.7877579 31.7289104 15.5652361
v -40.0718002 32.0786972 17.4297314
v -40.303299 41.2099838 17.1413422
v -51.8415413 40.1477089 24.4123306
v -51.5207443 31.9223499 24.2974186
v -45.7703056 32.2374344 13.3236542
v -46.0907364 40.4627914 13.438633
v -46.9740334 38.3896713 14.2849684
v -48.9280167 31.7457199 15.5862522
v -40.7176704 30.6159573 22.3925858
v -38.7629967 37.2596931 21.0912323
v -37.9920921 40.3004761 20.1186562
v -38.2440414 33.2602005 20.1933956
v -41.1516838 33.656929 30.6850624
v -40.8997116 40.6972084 30.60993
v -37.6572113 34.7640419 27.1769791
v -37.6385574 42.5384712 27.0694675
v -42.8186455 42.1808243 16.4727306
v -42.8363419 34.406395 16.5805473
v -32.7646446 40.3825607 70.664917
v -34.7511024 31.2818222 72.1000366
v -27.6062298 31.6398525 84.5118866
v -25.6200294 40.7407074 83.0770569
v -79.8096924 42.7294121 33.3479004
v -79.6600113 32.1627121 33.7556114
v -65.4545364 32.5674858 40.9214211
v -65.6042786 43.1341896 40.5141525
v -28.8949852 37.3754005 65.1755829
v -36.6940804 30.204155 70.4712296
v -31.4736614 39.0280533 75.3460846
v -36.0770798 30.9259338 74.9138031
v -33.4988327 29.2735252 64.7432098
v -74.8973312 33.0409508 46.2960205
v -74.8973312 50.4648247 46.2960205
v -84.7263184 51.7809067 20.0227242
v -84.7263184 31.1105003 20.0227242
v -85 47.2704124 -2.96242983E-13
v -85 30.3321381 -2.96242983E-13
v -48.6988182 33.5265465 71.64814
v -48.6988182 47.7371674 71.64814
v -74.8973312 50.4648247 46.2960205
v -74.8973312 33.0409508 46.2960205
v -33.498455 33.5265465 90.6735001
v -33.498455 50.4648247 90.6735001
v -17.5481834 28.297802 103.915718
v -17.5481834 42.2527275 103.915718
v -33.498455 50.4648247 90.6735001
v -33.498455 33.5265465 90.6735001
v 0.450944811 42.9870529 103.870056
v 0.450944811 32.9261742 103.870056
v 20.3712692 34.1137848 103.739937
v 20.3712692 47.5951271 103.739937
v -22.5346584 42.8667908 -40.78162
v -12.3186188 40.9346657 -41.5990219
v -13.6167564 34.2958908 -43.3069611
v -23.8328075 36.2280235 -42.489563
v -8.3575573 41.1275558 -46.231308
v -16.1406994 41.1203461 -53.2614555
v -16.7365704 34.2257309 -52.4678116
v -8.95342541 34.232933 -45.4376717
v -11.890152 44.3910637 -45.373745
v -20.9818401 44.3910637 -50.7226143
v -20.9818401 37.4091797 -50.7226143
v -11.890152 37.4091797 -45.373745
v -11.6644049 42.7893257 -51.3990822
v -23.4121342 42.5978508 -52.2337112
v -23.4121342 34.9820175 -50.818531
v -11.6644049 35.1734848 -49.9839058
v -16.7163849 41.852562 -40.8155212
v -10.1260214 41.852562 -50.4819031
v -10.1260214 34.0760918 -50.4819031
v -16.7163849 34.0760918 -40.8155212
v -14.1550188 37.7211227 -47.0862045
v -27.2386227 34.7736359 -44.6574745
v -26.0192661 45.1743317 -44.603466
v -14.261466 45.6194115 -46.8120804
v -23.9630909 34.7433205 -40.2190208
v -18.4465332 35.4524841 -53.7392807
v -19.9244804 45.0425186 -53.8836823
v -25.44104 44.3333588 -40.3634186
v -25.9411106 41.4278564 -36.935463
v -19.1328678 41.5400581 -41.3839836
v -20.2764587 36.7186546 -43.2753181
v -27.0846996 36.6064644 -38.8268089
v -81.908844 43.8811874 -43.3216743
v -73.764328 44.1308212 -43.7683182
v -73.7044296 38.7464485 -43.8501053
v -81.8489685 38.4968224 -43.4034615
v -71.5642242 43.2063828 -46.5948029
v -75.9087982 43.2351685 -53.4318924
v -75.9443665 37.849144 -53.4361801
v -71.5998154 37.8203583 -46.599102
v -70.5524902 40.979126 -46.1389389
v -81.0330429 40.5823936 -44.1702538
v -81.1279068 47.622673 -43.9258957
v -70.6473694 48.0194092 -45.8945885
v -70.495018 38.3330612 -50.7980003
v -75.1251297 38.0633545 -41.282032
v -75.0423584 45.1041298 -41.0098038
v -70.4122467 45.3738365 -50.5257721
v -78.7108688 25.3334808 -51.9693413
v -78.7108688 53.9155884 -51.9693413
v -51.9847221 39.4849243 -72.2416306
v -51.9847221 19.7175713 -72.2416306
v -87.8838654 36.3790359 -27.3218937
v -84.5997238 55.1067848 -27.3218937
v -78.7108688 53.9155884 -51.9693413
v -78.7108688 25.3334808 -51.9693413
v -85 30.3321381 -2.96242983E-13
v -85 47.2704124 -2.96242983E-13
v -84.5997238 55.1067848 -27.3218937
v -87.8838654 36.3790359 -27.3218937
vt 0.0758056641 0.999511719
vt 0.137939453 0.999511719
vt 0.137939453 0.950683594
vt 0.0758056641 0.950683594
vt 0.140258789 0.999511719
vt 0.224243164 0.999511719
vt 0.224243164 0.915527344
vt 0.140258789 0.915527344
vt 0.140258789 0.999511719
vt 0.224243164 0.999511719
vt 0.224243164 0.915527344
vt 0.140258789 0.915527344
vt 0.140258789 0.999511719
vt 0.173339844 0.999511719
vt 0.140258789 0.915527344
vt 0.224243164 0.915527344
vt 0.224243164 0.999511719
vt 0.0758056641 0.999511719
vt 0.137939453 0.999511719
vt 0.137939453 0.950683594
vt 0.0758056641 0.950683594
vt 0.0758056641 0.999511719
vt 0.137939453 0.999511719
vt 0.137939453 0.950683594
vt 0.0758056641 0.950683594
vt 0.0758056641 0.999511719
vt 0.137695312 0.999511719
vt 0.137695312 0.953125
vt 0.0758056641 0.953125
vt 0.0758056641 0.999511719
vt 0.137939453 0.999511719
vt 0.137939453 0.950683594
vt 0.0758056641 0.950683594
vt 0.0758056641 0.999511719
vt 0.137695312 0.999511719
vt 0.137695312 0.953125
vt 0.0758056641 0.953125
vt 0.140258789 0.999511719
vt 0.185058594 0.999511719
vt 0.140258789 0.915527344
vt 0.224243164 0.915527344
vt 0.224243164 0.999511719
vt 0.140258789 0.915527344
vt 0.173461914 0.999511719
vt 0.224243164 0.999511719
vt 0.224243164 0.915527344
vt 0.140258789 0.999511719
vt 0.224243164 0.915527344
vt 0.224243164 0.999511719
vt 0.140258789 0.999511719
vt 0.140258789 0.915527344
vt 0.224243164 0.915527344
vt 0.224243164 0.999511719
vt 0.140258789 0.999511719
vt 0.140258789 0.915527344
vt 0.224243164 0.915527344
vt 0.224243164 0.999511719
vt 0.140258789 0.999511719
vt 0.140258789 0.915527344
vt 0.224243164 0.915527344
vt 0.224243164 0.999511719
vt 0.140258789 0.999511719
vt 0.140258789 0.915527344
vt 0.224243164 0.915527344
vt 0.224243164 0.999511719
vt 0.140258789 0.999511719
vt 0.140258789 0.915527344
vt 0.224243164 0.915527344
vt 0.224243164 0.999511719
vt 0.140258789 0.999511719
vt 0.140258789 0.915527344
vt 0.137939453 0.950683594
vt 0.137939453 0.999511719
vt 0.0758056641 0.999511719
vt 0.0758056641 0.950683594
vt 0.224243164 0.915527344
vt 0.224243164 0.999511719
vt 0.140258789 0.999511719
vt 0.140258789 0.915527344
vt 0.224243164 0.915527344
vt 0.224243164 0.999511719
vt 0.140258789 0.999511719
vt 0.140258789 0.915527344
vt 0.224243164 0.915527344
vt 0.176879883 0.999511719
vt 0.140258789 0.915527344
vt 0.140258789 0.999511719
vt 0.224243164 0.999511719
vt 0.227416992 0.915039062
vt 0.227416992 0.994140625
vt 0.414794922 0.994140625
vt 0.414794922 0.915039062
vt 0.514160156 0.994140625
vt 0.514160156 0.915039062
vt 0.339111328 0.915039062
vt 0.339111328 0.994140625
vt 0.514160156 0.994140625
vt 0.514160156 0.915039062
vt 0.227416992 0.915039062
vt 0.227416992 0.994140625
vt 0.426025391 0.915039062
vt 0.426025391 0.994140625
vt 0.514160156 0.994140625
vt 0.514160156 0.915039062
vt 0.316162109 0.994140625
vt 0.316162109 0.915039062
vt 0.227416992 0.915039062
vt 0.227416992 0.994140625
vt 0.0758056641 0.999511719
vt 0.137939453 0.999511719
vt 0.137939453 0.950683594
vt 0.0758056641 0.950683594
vt 0.0758056641 0.999511719
vt 0.137939453 0.999511719
vt 0.137939453 0.950683594
vt 0.0758056641 0.950683594
vt 0.0758056641 0.999511719
vt 0.137939453 0.999511719
vt 0.137939453 0.950683594
vt 0.0758056641 0.950683594
vt 0.0758056641 0.999511719
vt 0.137939453 0.999511719
vt 0.137939453 0.950683594
vt 0.0758056641 0.950683594
vt 0.0758056641 0.999511719
vt 0.137939453 0.999511719
vt 0.137939453 0.950683594
vt 0.0758056641 0.950683594
vt 0.140258789 0.999511719
vt 0.224243164 0.999511719
vt 0.224243164 0.915527344
vt 0.140258789 0.915527344
vt 0.140258789 0.999511719
vt 0.224243164 0.999511719
vt 0.224243164 0.915527344
vt 0.140258789 0.915527344
vt 0.0758056641 0.999511719
vt 0.137939453 0.999511719
vt 0.137939453 0.950683594
vt 0.0758056641 0.950683594
vt 0.0758056641 0.999511719
vt 0.137939453 0.999511719
vt 0.137939453 0.950683594
vt 0.0758056641 0.950683594
vt 0.0758056641 0.999511719
vt 0.137939453 0.999511719
vt 0.137939453 0.950683594
vt 0.0758056641 0.950683594
vt 0.140258789 0.999511719
vt 0.224243164 0.999511719
vt 0.224243164 0.915527344
vt 0.140258789 0.915527344
vt 0.140258789 0.999511719
vt 0.224243164 0.999511719
vt 0.224243164 0.915527344
vt 0.140258789 0.915527344
vt 0.227416992 0.915039062
vt 0.227416992 0.994140625
vt 0.408935547 0.994140625
vt 0.408935547 0.915039062
vt 0.370849609 0.915039062
vt 0.370849609 0.994140625
vt 0.514160156 0.994140625
vt 0.514160156 0.915039062
vt 0.227416992 0.915039062
vt 0.227416992 0.994140625
vt 0.370849609 0.994140625
vt 0.370849609 0.915039062
vt 0.0758056641 0.999511719
vt 0.137939453 0.999511719
vt 0.137939453 0.950683594
vt 0.0758056641 0.950683594
vt 0.140258789 0.999511719
vt 0.224243164 0.999511719
vt 0.224243164 0.915527344
vt 0.140258789 0.915527344
vt 0.140258789 0.999511719
vt 0.224243164 0.999511719
vt 0.224243164 0.915527344
vt 0.140258789 0.915527344
vt 0.140258789 0.999511719
vt 0.173339844 0.999511719
vt 0.140258789 0.915527344
vt 0.224243164 0.915527344
vt 0.224243164 0.999511719
vt 0.0758056641 0.999511719
vt 0.137939453 0.999511719
vt 0.137939453 0.950683594
vt 0.0758056641 0.950683594
vt 0.0758056641 0.999511719
vt 0.137939453 0.999511719
vt 0.137939453 0.950683594
vt 0.0758056641 0.950683594
vt 0.0758056641 0.999511719
vt 0.137695312 0.999511719
vt 0.137695312 0.953125
vt 0.0758056641 0.953125
vt 0.0758056641 0.999511719
vt 0.137939453 0.999511719
vt 0.137939453 0.950683594
vt 0.0758056641 0.950683594
vt 0.0758056641 0.999511719
vt 0.137695312 0.999511719
vt 0.137695312 0.953125
vt 0.0758056641 0.953125
vt 0.140258789 0.999511719
vt 0.185058594 0.999511719
vt 0.140258789 0.915527344
vt 0.224243164 0.915527344
vt 0.224243164 0.999511719
vt 0.140258789 0.915527344
vt 0.173461914 0.999511719
vt 0.224243164 0.999511719
vt 0.224243164 0.915527344
vt 0.140258789 0.999511719
vt 0.224243164 0.915527344
vt 0.224243164 0.999511719
vt 0.140258789 0.999511719
vt 0.140258789 0.915527344
vt 0.224243164 0.915527344
vt 0.224243164 0.999511719
vt 0.140258789 0.999511719
vt 0.140258789 0.915527344
vt 0.224243164 0.915527344
vt 0.224243164 0.999511719
vt 0.140258789 0.999511719
vt 0.140258789 0.915527344
vt 0.224243164 0.915527344
vt 0.224243164 0.999511719
vt 0.140258789 0.999511719
vt 0.140258789 0.915527344
vt 0.224243164 0.915527344
vt 0.224243164 0.999511719
vt 0.140258789 0.999511719
vt 0.140258789 0.915527344
vt 0.224243164 0.915527344
vt 0.224243164 0.999511719
vt 0.140258789 0.999511719
vt 0.140258789 0.915527344
vt 0.137939453 0.950683594
vt 0.137939453 0.999511719
vt 0.0758056641 0.999511719
vt 0.0758056641 0.950683594
vt 0.224243164 0.915527344
vt 0.224243164 0.999511719
vt 0.140258789 0.999511719
vt 0.140258789 0.915527344
vt 0.224243164 0.915527344
vt 0.224243164 0.999511719
vt 0.140258789 0.999511719
vt 0.140258789 0.915527344
vt 0.224243164 0.915527344
vt 0.176879883 0.999511719
vt 0.140258789 0.915527344
vt 0.140258789 0.999511719
vt 0.224243164 0.999511719
vt 0.227416992 0.915039062
vt 0.227416992 0.994140625
vt 0.414794922 0.994140625
vt 0.414794922 0.915039062
vt 0.514160156 0.994140625
vt 0.514160156 0.915039062
vt 0.339111328 0.915039062
vt 0.339111328 0.994140625
vt 0.514160156 0.994140625
vt 0.514160156 0.915039062
vt 0.227416992 0.915039062
vt 0.227416992 0.994140625
vt 0.426025391 0.915039062
vt 0.426025391 0.994140625
vt 0.514160156 0.994140625
vt 0.514160156 0.915039062
vt 0.316162109 0.994140625
vt 0.316162109 0.915039062
vt 0.227416992 0.915039062
vt 0.227416992 0.994140625
vt 0.0758056641 0.999511719
vt 0.137939453 0.999511719
vt 0.137939453 0.950683594
vt 0.0758056641 0.950683594
vt 0.0758056641 0.999511719
vt 0.137939453 0.999511719
vt 0.137939453 0.950683594
vt 0.0758056641 0.950683594
vt 0.0758056641 0.999511719
vt 0.137939453 0.999511719
vt 0.137939453 0.950683594
vt 0.0758056641 0.950683594
vt 0.0758056641 0.999511719
vt 0.137939453 0.999511719
vt 0.137939453 0.950683594
vt 0.0758056641 0.950683594
vt 0.0758056641 0.999511719
vt 0.137939453 0.999511719
vt 0.137939453 0.950683594
vt 0.0758056641 0.950683594
vt 0.140258789 0.999511719
vt 0.224243164 0.999511719
vt 0.224243164 0.915527344
vt 0.140258789 0.915527344
vt 0.140258789 0.999511719
vt 0.224243164 0.999511719
vt 0.224243164 0.915527344
vt 0.140258789 0.915527344
vt 0.0758056641 0.999511719
vt 0.137939453 0.999511719
vt 0.137939453 0.950683594
vt 0.0758056641 0.950683594
vt 0.0758056641 0.999511719
vt 0.137939453 0.999511719
vt 0.137939453 0.950683594
vt 0.0758056641 0.950683594
vt 0.0758056641 0.999511719
vt 0.137939453 0.999511719
vt 0.137939453 0.950683594
vt 0.0758056641 0.950683594
vt 0.140258789 0.999511719
vt 0.224243164 0.999511719
vt 0.224243164 0.915527344
vt 0.140258789 0.915527344
vt 0.140258789 0.999511719
vt 0.224243164 0.999511719
vt 0.224243164 0.915527344
vt 0.140258789 0.915527344
vt 0.227416992 0.915039062
vt 0.227416992 0.994140625
vt 0.408935547 0.994140625
vt 0.408935547 0.915039062
vt 0.370849609 0.915039062
vt 0.370849609 0.994140625
vt 0.514160156 0.994140625
vt 0.514160156 0.915039062
vt 0.227416992 0.915039062
vt 0.227416992 0.994140625
vt 0.370849609 0.994140625
vt 0.370849609 0.915039062
vn -0.24597168 -0.389404297 0.887695312
vn -0.24597168 -0.389404297 0.887695312
vn -0.24597168 -0.389404297 0.887695312
vn -0.24597168 -0.389404297 0.887695312
vn -0.115783691 -0.151123047 -0.981933594
vn -0.115783691 -0.151123047 -0.981933594
vn -0.115783691 -0.151123047 -0.981933594
vn -0.115783691 -0.151123047 -0.981933594
vn -0.0385437012 -0.294921875 0.954589844
vn -0.0385437012 -0.294921875 0.954589844
vn -0.0385437012 -0.294921875 0.954589844
vn -0.0385437012 -0.294921875 0.954589844
vn -0.815429688 -0.158691406 0.556152344
vn -0.587890625 -0.312255859 0.746582031
vn -0.611328125 -0.356201172 0.706542969
vn -0.522949219 -0.326171875 0.787597656
vn -0.392578125 -0.196166992 0.8984375
vn -0.599609375 -0.190551758 -0.77734375
vn -0.599609375 -0.190551758 -0.77734375
vn -0.599609375 -0.190551758 -0.77734375
vn -0.599609375 -0.190551758 -0.77734375
vn -0.854492188 0 0.520019531
vn -0.854492188 0 0.520019531
vn -0.854492188 0 0.520019531
vn -0.854492188 0 0.520019531
vn -0.424316406 -0.0625610352 -0.903320312
vn -0.424316406 -0.0625610352 -0.903320312
vn -0.424316406 -0.0625610352 -0.903320312
vn -0.424316406 -0.0625610352 -0.903320312
vn -0.792480469 -0.0340881348 0.609375
vn -0.792480469 -0.0340881348 0.609375
vn -0.792480469 -0.0340881348 0.609375
vn -0.792480469 -0.0340881348 0.609375
vn -0.0963745117 -0.307373047 0.946777344
vn -0.0963745117 -0.307373047 0.946777344
vn -0.0963745117 -0.307373047 0.946777344
vn -0.0963745117 -0.307373047 0.946777344
vn -0.231933594 -0.0342712402 -0.972167969
vn -0.381835938 -0.100891113 -0.918457031
vn -0.343017578 -0.119689941 -0.931640625
vn -0.41796875 -0.118408203 -0.900878906
vn -0.520507812 -0.0281219482 -0.853515625
vn 0.0517883301 -0.499511719 0.864746094
vn 0.054473877 -0.500488281 0.864257812
vn 0.0874023438 -0.510742188 0.854980469
vn 0.0874023438 -0.510742188 0.854980469
vn -0.239868164 -0.378417969 0.894042969
vn 0.199584961 -0.401367188 0.894042969
vn 0.199584961 -0.401367188 0.894042969
vn 0.199584961 -0.401367188 0.894042969
vn 0.199584961 -0.401367188 0.894042969
vn -0.771484375 -0.363769531 0.522460938
vn -0.771484375 -0.363769531 0.522460938
vn -0.771484375 -0.363769531 0.522460938
vn -0.771484375 -0.363769531 0.522460938
vn -0.135375977 -0.0278167725 0.990234375
vn -0.135375977 -0.0278167725 0.990234375
vn -0.135375977 -0.0278167725 0.990234375
vn -0.135375977 -0.0278167725 0.990234375
vn 0.885253906 -0.0279998779 0.464599609
vn 0.885253906 -0.0279998779 0.464599609
vn 0.885253906 -0.0279998779 0.464599609
vn 0.885253906 -0.0279998779 0.464599609
vn -0.579101562 -0.317382812 0.750976562
vn -0.579101562 -0.317382812 0.750976562
vn -0.579101562 -0.317382812 0.750976562
vn -0.579101562 -0.317382812 0.750976562
vn -0.962890625 -0.0316162109 -0.268066406
vn -0.962890625 -0.0316162109 -0.268066406
vn -0.962890625 -0.0316162109 -0.268066406
vn -0.962890625 -0.0316162109 -0.268066406
vn -0.8984375 -0.00817871094 0.438964844
vn -0.8984375 -0.00817871094 0.438964844
vn -0.8984375 -0.00817871094 0.438964844
vn -0.8984375 -0.00817871094 0.438964844
vn -0.840332031 -0.258544922 0.476318359
vn -0.840332031 -0.258544922 0.476318359
vn -0.840332031 -0.258544922 0.476318359
vn -0.840332031 -0.258544922 0.476318359
vn -0.450927734 -0.0280151367 0.892089844
vn -0.450927734 -0.0280151367 0.892089844
vn -0.450927734 -0.0280151367 0.892089844
vn -0.450927734 -0.0280151367 0.892089844
vn -0.750976562 -0.567382812 -0.337402344
vn -0.785644531 -0.547851562 -0.287109375
vn -0.766113281 -0.591796875 -0.250488281
vn -0.869628906 -0.491943359 0.0408630371
vn -0.746582031 -0.450439453 -0.489746094
vn -0.834960938 0 0.550292969
vn -0.836425781 0 0.547851562
vn -0.974609375 0 0.224121094
vn -0.978027344 0 0.208496094
vn -0.997558594 -0.052520752 0.0451049805
vn -0.998046875 -0.0490112305 0.0430297852
vn -0.730957031 0 0.682617188
vn -0.731445312 0 0.682128906
vn -0.836425781 0 0.547851562
vn -0.834960938 0 0.550292969
vn -0.714355469 0 0.699707031
vn -0.7265625 0 0.687011719
vn -0.404052734 0 0.914550781
vn -0.432617188 0 0.901367188
vn -0.7265625 0 0.687011719
vn -0.714355469 0 0.699707031
vn 0.00477600098 0 1
vn 0.00442886353 0 1
vn 0.00653076172 0 1
vn 0.00653076172 0 1
vn -0.0292358398 -0.254394531 -0.966796875
vn -0.0292358398 -0.254394531 -0.966796875
vn -0.0292358398 -0.254394531 -0.966796875
vn -0.0292358398 -0.254394531 -0.966796875
vn -0.663574219 -0.141845703 0.734375
vn -0.663574219 -0.141845703 0.734375
vn -0.663574219 -0.141845703 0.734375
vn -0.663574219 -0.141845703 0.734375
vn -0.506835938 0 0.861816406
vn -0.506835938 0 0.861816406
vn -0.506835938 0 0.861816406
vn -0.506835938 0 0.861816406
vn -0.0726318359 -0.182250977 0.98046875
vn -0.0726318359 -0.182250977 0.98046875
vn -0.0726318359 -0.182250977 0.98046875
vn -0.0726318359 -0.182250977 0.98046875
vn -0.826171875 0 -0.563476562
vn -0.826171875 0 -0.563476562
vn -0.826171875 0 -0.563476562
vn -0.826171875 0 -0.563476562
vn -0.187255859 -0.0289916992 -0.981933594
vn -0.187255859 -0.0289916992 -0.981933594
vn -0.187255859 -0.0289916992 -0.981933594
vn -0.187255859 -0.0289916992 -0.981933594
vn 0.913085938 -0.146484375 0.380371094
vn 0.913085938 -0.146484375 0.380371094
vn 0.913085938 -0.146484375 0.380371094
vn 0.913085938 -0.146484375 0.380371094
vn -0.501953125 -0.416503906 -0.7578125
vn -0.501953125 -0.416503906 -0.7578125
vn -0.501953125 -0.416503906 -0.7578125
vn -0.501953125 -0.416503906 -0.7578125
vn -0.0552062988 -0.0145492554 -0.998535156
vn -0.0552062988 -0.0145492554 -0.998535156
vn -0.0552062988 -0.0145492554 -0.998535156
vn -0.0552062988 -0.0145492554 -0.998535156
vn -0.84375 -0.00514984131 0.536132812
vn -0.84375 -0.00514984131 0.536132812
vn -0.84375 -0.00514984131 0.536132812
vn -0.84375 -0.00514984131 0.536132812
vn -0.185668945 -0.0315856934 -0.981933594
vn -0.185668945 -0.0315856934 -0.981933594
vn -0.185668945 -0.0315856934 -0.981933594
vn -0.185668945 -0.0315856934 -0.981933594
vn -0.899414062 -0.0274505615 -0.436767578
vn -0.899414062 -0.0274505615 -0.436767578
vn -0.899414062 -0.0274505615 -0.436767578
vn -0.899414062 -0.0274505615 -0.436767578
vn -0.752441406 -0.0232696533 -0.658203125
vn -0.819335938 -0.0354309082 -0.572265625
vn -0.604492188 0 -0.796875
vn -0.604492188 0 -0.796875
vn -0.985839844 -0.0781860352 -0.149536133
vn -0.983886719 -0.0773925781 -0.16015625
vn -0.819335938 -0.0354309082 -0.572265625
vn -0.752441406 -0.0232696533 -0.658203125
vn -0.998046875 -0.0490112305 0.0430297852
vn -0.997558594 -0.052520752 0.0451049805
vn -0.983886719 -0.0773925781 -0.16015625
vn -0.985839844 -0.0781860352 -0.149536133
vn 0.24597168 -0.389404297 -0.887695312
vn 0.24597168 -0.389404297 -0.887695312
vn 0.24597168 -0.389404297 -0.887695312
vn 0.24597168 -0.389404297 -0.887695312
vn 0.115783691 -0.151123047 0.981933594
vn 0.115783691 -0.151123047 0.981933594
vn 0.115783691 -0.151123047 0.981933594
vn 0.115783691 -0.151123047 0.981933594
vn 0.0385437012 -0.294921875 -0.954589844
vn 0.0385437012 -0.294921875 -0.954589844
vn 0.0385437012 -0.294921875 -0.954589844
vn 0.0385437012 -0.294921875 -0.954589844
vn 0.815429688 -0.158691406 -0.556152344
vn 0.587890625 -0.312255859 -0.746582031
vn 0.611328125 -0.356201172 -0.706542969
vn 0.522949219 -0.326171875 -0.787597656
vn 0.392578125 -0.196166992 -0.8984375
vn 0.599609375 -0.190551758 0.77734375
vn 0.599609375 -0.190551758 0.77734375
vn 0.599609375 -0.190551758 0.77734375
vn 0.599609375 -0.190551758 0.77734375
vn 0.854492188 0 -0.520019531
vn 0.854492188 0 -0.520019531
vn 0.854492188 0 -0.520019531
vn 0.854492188 0 -0.520019531
vn 0.424316406 -0.0625610352 0.903320312
vn 0.424316406 -0.0625610352 0.903320312
vn 0.424316406 -0.0625610352 0.903320312
vn 0.424316406 -0.0625610352 0.903320312
vn 0.792480469 -0.0340881348 -0.609375
vn 0.792480469 -0.0340881348 -0.609375
vn 0.792480469 -0.0340881348 -0.609375
vn 0.792480469 -0.0340881348 -0.609375
vn 0.0963745117 -0.307373047 -0.946777344
vn 0.0963745117 -0.307373047 -0.946777344
vn 0.0963745117 -0.307373047 -0.946777344
vn 0.0963745117 -0.307373047 -0.946777344
vn 0.231933594 -0.0342712402 0.972167969
vn 0.381835938 -0.100891113 0.918457031
vn 0.343017578 -0.119689941 0.931640625
vn 0.41796875 -0.118408203 0.900878906
vn 0.520507812 -0.0281219482 0.853515625
vn -0.0517883301 -0.499511719 -0.864746094
vn -0.054473877 -0.500488281 -0.864257812
vn -0.0874023438 -0.510742188 -0.854980469
vn -0.0874023438 -0.510742188 -0.854980469
vn 0.239868164 -0.378417969 -0.894042969
vn -0.199584961 -0.401367188 -0.894042969
vn -0.199584961 -0.401367188 -0.894042969
vn -0.199584961 -0.401367188 -0.894042969
vn -0.199584961 -0.401367188 -0.894042969
vn 0.771484375 -0.363769531 -0.522460938
vn 0.771484375 -0.363769531 -0.522460938
vn 0.771484375 -0.363769531 -0.522460938
vn 0.771484375 -0.363769531 -0.522460938
vn 0.135375977 -0.0278167725 -0.990234375
vn 0.135375977 -0.0278167725 -0.990234375
vn 0.135375977 -0.0278167725 -0.990234375
vn 0.135375977 -0.0278167725 -0.990234375
vn -0.885253906 -0.0279998779 -0.464599609
vn -0.885253906 -0.0279998779 -0.464599609
vn -0.885253906 -0.0279998779 -0.464599609
vn -0.885253906 -0.0279998779 -0.464599609
vn 0.579101562 -0.317382812 -0.750976562
vn 0.579101562 -0.317382812 -0.750976562
vn 0.579101562 -0.317382812 -0.750976562
vn 0.579101562 -0.317382812 -0.750976562
vn 0.962890625 -0.0316162109 0.268066406
vn 0.962890625 -0.0316162109 0.268066406
vn 0.962890625 -0.0316162109 0.268066406
vn 0.962890625 -0.0316162109 0.268066406
vn 0.8984375 -0.00817871094 -0.438964844
vn 0.8984375 -0.00817871094 -0.438964844
vn 0.8984375 -0.00817871094 -0.438964844
vn 0.8984375 -0.00817871094 -0.438964844
vn 0.840332031 -0.258544922 -0.476318359
vn 0.840332031 -0.258544922 -0.476318359
vn 0.840332031 -0.258544922 -0.476318359
vn 0.840332031 -0.258544922 -0.476318359
vn 0.450927734 -0.0280151367 -0.892089844
vn 0.450927734 -0.0280151367 -0.892089844
vn 0.450927734 -0.0280151367 -0.892089844
vn 0.450927734 -0.0280151367 -0.892089844
vn 0.750976562 -0.567382812 0.337402344
vn 0.785644531 -0.547851562 0.287109375
vn 0.766113281 -0.591796875 0.250488281
vn 0.869628906 -0.491943359 -0.0408630371
vn 0.746582031 -0.450439453 0.489746094
vn 0.834960938 0 -0.550292969
vn 0.836425781 0 -0.547851562
vn 0.974609375 0 -0.224121094
vn 0.978027344 0 -0.208496094
vn 0.997558594 -0.052520752 -0.0451049805
vn 0.998046875 -0.0490112305 -0.0430297852
vn 0.730957031 0 -0.682617188
vn 0.731445312 0 -0.682128906
vn 0.836425781 0 -0.547851562
vn 0.834960938 0 -0.550292969
vn 0.714355469 0 -0.699707031
vn 0.7265625 0 -0.687011719
vn 0.404052734 0 -0.914550781
vn 0.432617188 0 -0.901367188
vn 0.7265625 0 -0.687011719
vn 0.714355469 0 -0.699707031
vn -0.00477600098 0 -1
vn -0.00442886353 0 -1
vn -0.00653076172 0 -1
vn -0.00653076172 0 -1
vn 0.0292358398 -0.254394531 0.966796875
vn 0.0292358398 -0.254394531 0.966796875
vn 0.0292358398 -0.254394531 0.966796875
vn 0.0292358398 -0.254394531 0.966796875
vn 0.663574219 -0.141845703 -0.734375
vn 0.663574219 -0.141845703 -0.734375
vn 0.663574219 -0.141845703 -0.734375
vn 0.663574219 -0.141845703 -0.734375
vn 0.506835938 0 -0.861816406
vn 0.506835938 0 -0.861816406
vn 0.506835938 0 -0.861816406
vn 0.506835938 0 -0.861816406
vn 0.0726318359 -0.182250977 -0.98046875
vn 0.0726318359 -0.182250977 -0.98046875
vn 0.0726318359 -0.182250977 -0.98046875
vn 0.0726318359 -0.182250977 -0.98046875
vn 0.826171875 0 0.563476562
vn 0.826171875 0 0.563476562
vn 0.826171875 0 0.563476562
vn 0.826171875 0 0.563476562
vn 0.187255859 -0.0289916992 0.981933594
vn 0.187255859 -0.0289916992 0.981933594
vn 0.187255859 -0.0289916992 0.981933594
vn 0.187255859 -0.0289916992 0.981933594
vn -0.913085938 -0.146484375 -0.380371094
vn -0.913085938 -0.146484375 -0.380371094
vn -0.913085938 -0.146484375 -0.380371094
vn -0.913085938 -0.146484375 -0.380371094
vn 0.501953125 -0.416503906 0.7578125
vn 0.501953125 -0.416503906 0.7578125
vn 0.501953125 -0.416503906 0.7578125
vn 0.501953125 -0.416503906 0.7578125
vn 0.0552062988 -0.0145492554 0.998535156
vn 0.0552062988 -0.0145492554 0.998535156
vn 0.0552062988 -0.0145492554 0.998535156
vn 0.0552062988 -0.0145492554 0.998535156
vn 0.84375 -0.00514984131 -0.536132812
vn 0.84375 -0.00514984131 -0.536132812
vn 0.84375 -0.00514984131 -0.536132812
vn 0.84375 -0.00514984131 -0.536132812
vn 0.185668945 -0.0315856934 0.981933594
vn 0.185668945 -0.0315856934 0.981933594
vn 0.185668945 -0.0315856934 0.981933594
vn 0.185668945 -0.0315856934 0.981933594
vn 0.899414062 -0.0274505615 0.436767578
vn 0.899414062 -0.0274505615 0.436767578
vn 0.899414062 -0.0274505615 0.436767578
vn 0.899414062 -0.0274505615 0.436767578
vn 0.752441406 -0.0232696533 0.658203125
vn 0.819335938 -0.0354309082 0.572265625
vn 0.604492188 0 0.796875
vn 0.604492188 0 0.796875
vn 0.985839844 -0.0781860352 0.149536133
vn 0.983886719 -0.0773925781 0.16015625
vn 0.819335938 -0.0354309082 0.572265625
vn 0.752441406 -0.0232696533 0.658203125
vn 0.998046875 -0.0490112305 -0.0430297852
vn 0.997558594 -0.052520752 -0.0451049805
vn 0.983886719 -0.0773925781 0.16015625
vn 0.985839844 -0.0781860352 0.149536133
g md_00011_tr_0
f 3/3/3 2/2/2 1/1/1
f 4/4/4 3/3/3 1/1/1
f 7/7/7 6/6/6 5/5/5
f 8/8/8 7/7/7 5/5/5
f 11/11/11 10/10/10 9/9/9
f 12/12/12 11/11/11 9/9/9
f 15/15/15 14/14/14 13/13/13
f 15/15/15 16/16/16 14/14/14
f 17/17/17 14/14/14 16/16/16
f 20/20/20 19/19/19 18/18/18
f 21/21/21 20/20/20 18/18/18
f 24/24/24 23/23/23 22/22/22
f 25/25/25 24/24/24 22/22/22
f 28/28/28 27/27/27 26/26/26
f 29/29/29 28/28/28 26/26/26
f 32/32/32 31/31/31 30/30/30
f 33/33/33 32/32/32 30/30/30
f 36/36/36 35/35/35 34/34/34
f 37/37/37 36/36/36 34/34/34
f 40/40/40 39/39/39 38/38/38
f 40/40/40 41/41/41 39/39/39
f 42/42/42 39/39/39 41/41/41
f 45/45/45 44/44/44 43/43/43
f 46/46/46 45/45/45 43/43/43
f 44/44/44 47/47/47 43/43/43
f 50/50/50 49/49/49 48/48/48
f 51/51/51 50/50/50 48/48/48
f 54/54/54 53/53/53 52/52/52
f 55/55/55 54/54/54 52/52/52
f 58/58/58 57/57/57 56/56/56
f 59/59/59 58/58/58 56/56/56
f 62/62/62 61/61/61 60/60/60
f 63/63/63 62/62/62 60/60/60
f 66/66/66 65/65/65 64/64/64
f 67/67/67 66/66/66 64/64/64
f 70/70/70 69/69/69 68/68/68
f 71/71/71 70/70/70 68/68/68
f 74/74/74 73/73/73 72/72/72
f 75/75/75 74/74/74 72/72/72
f 78/78/78 77/77/77 76/76/76
f 79/79/79 78/78/78 76/76/76
f 82/82/82 81/81/81 80/80/80
f 83/83/83 82/82/82 80/80/80
f 86/86/86 85/85/85 84/84/84
f 87/87/87 85/85/85 86/86/86
f 85/85/85 88/88/88 84/84/84
f 91/91/91 90/90/90 89/89/89
f 92/92/92 91/91/91 89/89/89
f 91/91/91 92/92/92 93/93/93
f 92/92/92 94/94/94 93/93/93
f 97/97/97 96/96/96 95/95/95
f 98/98/98 97/97/97 95/95/95
f 95/95/95 96/96/96 99/99/99
f 96/96/96 100/100/100 99/99/99
f 103/103/103 102/102/102 101/101/101
f 104/104/104 103/103/103 101/101/101
f 101/101/101 102/102/102 105/105/105
f 106/106/106 101/101/101 105/105/105
f 106/106/106 105/105/105 107/107/107
f 105/105/105 108/108/108 107/107/107
f 111/111/111 110/110/110 109/109/109
f 112/112/112 111/111/111 109/109/109
f 115/115/115 114/114/114 113/113/113
f 116/116/116 115/115/115 113/113/113
f 119/119/119 118/118/118 117/117/117
f 120/120/120 119/119/119 117/117/117
f 123/123/123 122/122/122 121/121/121
f 124/124/124 123/123/123 121/121/121
f 127/127/127 126/126/126 125/125/125
f 128/128/128 127/127/127 125/125/125
f 131/131/131 130/130/130 129/129/129
f 132/132/132 131/131/131 129/129/129
f 135/135/135 134/134/134 133/133/133
f 136/136/136 135/135/135 133/133/133
f 139/139/139 138/138/138 137/137/137
f 140/140/140 139/139/139 137/137/137
f 143/143/143 142/142/142 141/141/141
f 144/144/144 143/143/143 141/141/141
f 147/147/147 146/146/146 145/145/145
f 148/148/148 147/147/147 145/145/145
f 151/151/151 150/150/150 149/149/149
f 152/152/152 151/151/151 149/149/149
f 155/155/155 154/154/154 153/153/153
f 156/156/156 155/155/155 153/153/153
f 159/159/159 158/158/158 157/157/157
f 160/160/160 159/159/159 157/157/157
f 163/163/163 162/162/162 161/161/161
f 164/164/164 163/163/163 161/161/161
f 167/167/167 166/166/166 165/165/165
f 168/168/168 167/167/167 165/165/165
f 171/171/171 170/170/170 169/169/169
f 172/172/172 171/171/171 169/169/169
f 175/175/175 174/174/174 173/173/173
f 176/176/176 175/175/175 173/173/173
f 179/179/179 178/178/178 177/177/177
f 180/180/180 179/179/179 177/177/177
f 183/183/183 182/182/182 181/181/181
f 183/183/183 184/184/184 182/182/182
f 185/185/185 182/182/182 184/184/184
f 188/188/188 187/187/187 186/186/186
f 189/189/189 188/188/188 186/186/186
f 192/192/192 191/191/191 190/190/190
f 193/193/193 192/192/192 190/190/190
f 196/196/196 195/195/195 194/194/194
f 197/197/197 196/196/196 194/194/194
f 200/200/200 199/199/199 198/198/198
f 201/201/201 200/200/200 198/198/198
f 204/204/204 203/203/203 202/202/202
f 205/205/205 204/204/204 202/202/202
f 208/208/208 207/207/207 206/206/206
f 208/208/208 209/209/209 207/207/207
f 210/210/210 207/207/207 209/209/209
f 213/213/213 212/212/212 211/211/211
f 214/214/214 213/213/213 211/211/211
f 212/212/212 215/215/215 211/211/211
f 218/218/218 217/217/217 216/216/216
f 219/219/219 218/218/218 216/216/216
f 222/222/222 221/221/221 220/220/220
f 223/223/223 222/222/222 220/220/220
f 226/226/226 225/225/225 224/224/224
f 227/227/227 226/226/226 224/224/224
f 230/230/230 229/229/229 228/228/228
f 231/231/231 230/230/230 228/228/228
f 234/234/234 233/233/233 232/232/232
f 235/235/235 234/234/234 232/232/232
f 238/238/238 237/237/237 236/236/236
f 239/239/239 238/238/238 236/236/236
f 242/242/242 241/241/241 240/240/240
f 243/243/243 242/242/242 240/240/240
f 246/246/246 245/245/245 244/244/244
f 247/247/247 246/246/246 244/244/244
f 250/250/250 249/249/249 248/248/248
f 251/251/251 250/250/250 248/248/248
f 254/254/254 253/253/253 252/252/252
f 255/255/255 253/253/253 254/254/254
f 253/253/253 256/256/256 252/252/252
f 259/259/259 258/258/258 257/257/257
f 260/260/260 259/259/259 257/257/257
f 259/259/259 260/260/260 261/261/261
f 260/260/260 262/262/262 261/261/261
f 265/265/265 264/264/264 263/263/263
f 266/266/266 265/265/265 263/263/263
f 263/263/263 264/264/264 267/267/267
f 264/264/264 268/268/268 267/267/267
f 271/271/271 270/270/270 269/269/269
f 272/272/272 271/271/271 269/269/269
f 269/269/269 270/270/270 273/273/273
f 274/274/274 269/269/269 273/273/273
f 274/274/274 273/273/273 275/275/275
f 273/273/273 276/276/276 275/275/275
f 279/279/279 278/278/278 277/277/277
f 280/280/280 279/279/279 277/277/277
f 283/283/283 282/282/282 281/281/281
f 284/284/284 283/283/283 281/281/281
f 287/287/287 286/286/286 285/285/285
f 288/288/288 287/287/287 285/285/285
f 291/291/291 290/290/290 289/289/289
f 292/292/292 291/291/291 289/289/289
f 295/295/295 294/294/294 293/293/293
f 296/296/296 295/295/295 293/293/293
f 299/299/299 298/298/298 297/297/297
f 300/300/300 299/299/299 297/297/297
f 303/303/303 302/302/302 301/301/301
f 304/304/304 303/303/303 301/301/301
f 307/307/307 306/306/306 305/305/305
f 308/308/308 307/307/307 305/305/305
f 311/311/311 310/310/310 309/309/309
f 312/312/312 311/311/311 309/309/309
f 315/315/315 314/314/314 313/313/313
f 316/316/316 315/315/315 313/313/313
f 319/319/319 318/318/318 317/317/317
f 320/320/320 319/319/319 317/317/317
f 323/323/323 322/322/322 321/321/321
f 324/324/324 323/323/323 321/321/321
f 327/327/327 326/326/326 325/325/325
f 328/328/328 327/327/327 325/325/325
f 331/331/331 330/330/330 329/329/329
f 332/332/332 331/331/331 329/329/329
f 335/335/335 334/334/334 333/333/333
f 336/336/336 335/335/335 333/333/333
